<?xml version="1.0" encoding="UTF-8" standalone="no"?>
<!DOCTYPE svg PUBLIC "-//W3C//DTD SVG 1.1//EN" "http://www.w3.org/Graphics/SVG/1.1/DTD/svg11.dtd">
<svg width="100%" height="100%" viewBox="0 0 1800 1201" version="1.1" xmlns="http://www.w3.org/2000/svg" xmlns:xlink="http://www.w3.org/1999/xlink" xml:space="preserve" xmlns:serif="http://www.serif.com/" style="fill-rule:evenodd;clip-rule:evenodd;stroke-linecap:round;stroke-miterlimit:10;">
    <rect id="_10---multiply" serif:id="10 - multiply" x="0" y="0.312" width="1800" height="1200" style="fill:none;"/>
    <g id="_10---multiply1" serif:id="10 - multiply">
        <path d="M1035.14,688.325l-21.165,-6.35l6.35,-21.165" style="fill:none;stroke:url(#_Linear1);stroke-width:10.42px;"/>
        <path d="M792.506,685.467c-75.202,-38.973 -126.637,-117.535 -126.637,-208.015c-0,-129.22 104.911,-234.131 234.131,-234.131c129.22,-0 234.131,104.911 234.131,234.131c0,87.855 -48.494,164.473 -120.151,204.523" style="fill:none;stroke:url(#_Linear2);stroke-width:10.42px;stroke-linejoin:round;stroke-miterlimit:1.5;"/>
        <g id="Large-MXR" serif:id="Large MXR">
            <circle cx="900" cy="476.649" r="188.193" style="fill:rgb(131,133,136);"/>
            <rect x="892.136" y="335.727" width="15.728" height="131.341" style="fill:white;"/>
            <circle cx="900" cy="306.505" r="7.864" style="fill:white;"/>
        </g>
        <g>
            <rect x="436.836" y="714.027" width="330.592" height="79.707" style="fill:rgb(125,97,186);stroke:rgb(125,97,186);stroke-width:10.42px;stroke-linejoin:round;stroke-miterlimit:1.5;"/>
            <path d="M456.783,751.631l7.891,-0l1.53,-7.6l5.452,-0l-1.53,7.6l6.647,-0l0,5.7l-7.843,-0l-1.53,7.6l-5.452,-0l1.53,-7.6l-6.695,-0l-0,-5.7Z" style="fill:rgb(244,244,245);fill-rule:nonzero;"/>
            <path d="M492.124,754.481c0,-1.134 0.399,-2.117 1.196,-2.95c0.797,-0.834 1.738,-1.25 2.822,-1.25c1.084,-0 2.024,0.416 2.821,1.25c0.797,0.833 1.196,1.816 1.196,2.95c-0,1.133 -0.399,2.116 -1.196,2.95c-0.797,0.833 -1.737,1.25 -2.821,1.25c-1.084,-0 -2.025,-0.417 -2.822,-1.25c-0.797,-0.834 -1.196,-1.817 -1.196,-2.95Zm-7.556,-3.9c0.989,-4.934 2.694,-8.55 5.117,-10.85c2.423,-2.3 5.675,-3.45 9.756,-3.45c1.595,-0 3.021,0.283 4.281,0.85c1.259,0.566 2.319,1.341 3.18,2.325c0.861,0.983 1.522,2.141 1.985,3.475c0.462,1.333 0.693,2.766 0.693,4.3c-0,1.166 -0.112,2.283 -0.335,3.35l-1.578,7.8c-0.988,4.933 -2.694,8.55 -5.117,10.85c-2.423,2.3 -5.675,3.45 -9.756,3.45c-1.594,-0 -3.021,-0.284 -4.28,-0.85c-1.26,-0.567 -2.32,-1.342 -3.18,-2.325c-0.861,-0.984 -1.523,-2.142 -1.985,-3.475c-0.462,-1.334 -0.694,-2.767 -0.694,-4.3c0,-1.167 0.112,-2.284 0.335,-3.35l1.578,-7.8Zm9.182,16.1c2.105,-0 3.755,-0.7 4.95,-2.1c1.196,-1.4 2.017,-3.2 2.463,-5.4l1.865,-9c0.191,-0.9 0.287,-1.75 0.287,-2.55c0,-1.634 -0.398,-2.934 -1.195,-3.9c-0.798,-0.967 -2.009,-1.45 -3.635,-1.45c-2.104,-0 -3.754,0.7 -4.95,2.1c-1.195,1.4 -2.016,3.2 -2.463,5.4l-1.865,9c-0.191,0.9 -0.287,1.75 -0.287,2.55c0,1.633 0.399,2.933 1.196,3.9c0.797,0.966 2.008,1.45 3.634,1.45Z" style="fill:rgb(244,244,245);fill-rule:nonzero;"/>
            <path d="M566.681,756.481c-0,2.333 -0.319,4.491 -0.956,6.475c-0.638,1.983 -1.579,3.691 -2.822,5.125c-1.243,1.433 -2.798,2.558 -4.663,3.375c-1.865,0.816 -4.025,1.225 -6.48,1.225c-1.403,-0 -2.718,-0.217 -3.945,-0.65c-1.228,-0.434 -2.304,-1.075 -3.228,-1.925c-0.925,-0.85 -1.658,-1.892 -2.2,-3.125c-0.542,-1.234 -0.813,-2.634 -0.813,-4.2c-0,-2.567 0.382,-4.859 1.148,-6.875c0.765,-2.017 1.809,-3.725 3.132,-5.125c1.323,-1.4 2.885,-2.467 4.687,-3.2c1.801,-0.734 3.738,-1.1 5.81,-1.1c1.499,-0 2.885,0.241 4.161,0.725c1.275,0.483 2.367,1.158 3.276,2.025c0.908,0.866 1.618,1.916 2.128,3.15c0.51,1.233 0.765,2.6 0.765,4.1Zm-14.012,10.3c1.148,-0.034 2.208,-0.3 3.18,-0.8c0.972,-0.5 1.801,-1.159 2.487,-1.975c0.685,-0.817 1.219,-1.775 1.602,-2.875c0.382,-1.1 0.574,-2.267 0.574,-3.5c-0,-1.734 -0.447,-3.042 -1.339,-3.925c-0.893,-0.884 -2.089,-1.325 -3.587,-1.325c-1.148,-0 -2.2,0.258 -3.156,0.775c-0.957,0.516 -1.786,1.2 -2.487,2.05c-0.702,0.85 -1.244,1.825 -1.626,2.925c-0.383,1.1 -0.574,2.25 -0.574,3.45c-0,1.7 0.446,2.991 1.339,3.875c0.893,0.883 2.088,1.325 3.587,1.325Z" style="fill:rgb(244,244,245);fill-rule:nonzero;"/>
            <path d="M594.801,762.881c-0.893,2.966 -2.479,5.341 -4.758,7.125c-2.28,1.783 -5.333,2.675 -9.158,2.675c-1.403,-0 -2.726,-0.234 -3.97,-0.7c-1.243,-0.467 -2.327,-1.167 -3.252,-2.1c-0.924,-0.934 -1.65,-2.092 -2.176,-3.475c-0.526,-1.384 -0.789,-2.992 -0.789,-4.825c0,-2.067 0.343,-4.017 1.028,-5.85c0.686,-1.834 1.682,-3.434 2.989,-4.8c1.307,-1.367 2.886,-2.45 4.735,-3.25c1.849,-0.8 3.953,-1.2 6.312,-1.2c1.722,-0 3.237,0.266 4.544,0.8c1.307,0.533 2.391,1.258 3.252,2.175c0.861,0.916 1.514,1.991 1.96,3.225c0.447,1.233 0.67,2.533 0.67,3.9l-6.121,1.25c-0,-1.7 -0.407,-3.017 -1.22,-3.95c-0.813,-0.934 -2.128,-1.4 -3.945,-1.4c-1.148,-0 -2.208,0.225 -3.181,0.675c-0.972,0.45 -1.817,1.066 -2.534,1.85c-0.718,0.783 -1.275,1.7 -1.674,2.75c-0.399,1.05 -0.598,2.175 -0.598,3.375c0,1.9 0.478,3.3 1.435,4.2c0.956,0.9 2.168,1.35 3.634,1.35c2.009,-0 3.571,-0.467 4.687,-1.4c1.116,-0.934 1.961,-2.25 2.535,-3.95l5.595,1.55Z" style="fill:rgb(244,244,245);fill-rule:nonzero;"/>
            <path d="M608.957,753.181l-6.695,-0l-0,-6l7.938,-0l2.2,-10.9l6.026,-0l-2.2,10.9l8.226,-0l-0,6l-9.469,-0l-2.679,12.85l0.479,0.35l6.408,-4.6l3.013,4.7l-6.935,4.9c-1.211,0.866 -2.502,1.3 -3.873,1.3c-0.702,-0 -1.371,-0.125 -2.009,-0.375c-0.637,-0.25 -1.195,-0.609 -1.674,-1.075c-0.478,-0.467 -0.86,-1.034 -1.147,-1.7c-0.287,-0.667 -0.431,-1.417 -0.431,-2.25c0,-0.267 0.016,-0.509 0.048,-0.725c0.032,-0.217 0.08,-0.509 0.144,-0.875l2.63,-12.5Z" style="fill:rgb(244,244,245);fill-rule:nonzero;"/>
            <path d="M650.707,766.031l0.478,0.35l2.295,-1.7l3.013,4.7l-2.821,2c-1.244,0.866 -2.551,1.3 -3.922,1.3c-1.211,-0 -2.295,-0.35 -3.252,-1.05c-0.956,-0.7 -1.562,-1.684 -1.817,-2.95l-0.861,-0c-0.287,0.566 -0.622,1.091 -1.004,1.575c-0.383,0.483 -0.853,0.9 -1.411,1.25c-0.558,0.35 -1.212,0.633 -1.961,0.85c-0.749,0.216 -1.634,0.325 -2.654,0.325c-1.243,-0 -2.391,-0.259 -3.443,-0.775c-1.052,-0.517 -1.969,-1.234 -2.75,-2.15c-0.781,-0.917 -1.395,-1.992 -1.841,-3.225c-0.447,-1.234 -0.67,-2.584 -0.67,-4.05c0,-2.234 0.287,-4.317 0.861,-6.25c0.574,-1.934 1.403,-3.625 2.487,-5.075c1.084,-1.45 2.415,-2.592 3.993,-3.425c1.578,-0.834 3.356,-1.25 5.332,-1.25c1.754,-0 3.141,0.366 4.161,1.1c1.02,0.733 1.706,1.7 2.056,2.9l0.861,-0l0.67,-3.3l6.025,-0l-3.825,18.85Zm-11.574,0.65c1.148,-0 2.168,-0.242 3.061,-0.725c0.893,-0.484 1.634,-1.125 2.224,-1.925c0.59,-0.8 1.044,-1.742 1.363,-2.825c0.319,-1.084 0.478,-2.225 0.478,-3.425c0,-1.567 -0.43,-2.842 -1.291,-3.825c-0.861,-0.984 -2.009,-1.475 -3.444,-1.475c-1.147,-0 -2.167,0.241 -3.06,0.725c-0.893,0.483 -1.642,1.125 -2.248,1.925c-0.606,0.8 -1.068,1.741 -1.387,2.825c-0.319,1.083 -0.478,2.225 -0.478,3.425c-0,1.4 0.391,2.633 1.172,3.7c0.781,1.066 1.984,1.6 3.61,1.6Z" style="fill:rgb(244,244,245);fill-rule:nonzero;"/>
            <path d="M663.523,753.281l-0.574,-0.2l-1.865,2.45l-4.16,-3.55l2.247,-3c0.638,-0.834 1.379,-1.459 2.224,-1.875c0.845,-0.417 1.73,-0.625 2.654,-0.625c0.67,-0 1.323,0.116 1.961,0.35c0.638,0.233 1.204,0.575 1.698,1.025c0.494,0.45 0.9,1.025 1.219,1.725c0.319,0.7 0.51,1.5 0.574,2.4l1.004,17l0.861,-0l9.661,-22.2l5.404,2.75l-10.043,22.45l-11.621,-0l-1.244,-18.7Z" style="fill:rgb(244,244,245);fill-rule:nonzero;"/>
            <path d="M694.226,761.631c-0.064,0.266 -0.096,0.55 -0.096,0.85c0,1.2 0.439,2.2 1.315,3c0.877,0.8 2.033,1.2 3.467,1.2c1.499,-0 2.695,-0.284 3.587,-0.85c0.893,-0.567 1.578,-1.234 2.057,-2l4.782,3.15c-0.383,0.666 -0.885,1.333 -1.506,2c-0.622,0.666 -1.387,1.275 -2.296,1.825c-0.909,0.55 -1.977,1 -3.204,1.35c-1.228,0.35 -2.654,0.525 -4.28,0.525c-1.467,-0 -2.814,-0.242 -4.041,-0.725c-1.228,-0.484 -2.28,-1.15 -3.157,-2c-0.877,-0.85 -1.562,-1.867 -2.056,-3.05c-0.494,-1.184 -0.741,-2.492 -0.741,-3.925c-0,-2.267 0.326,-4.4 0.98,-6.4c0.654,-2 1.602,-3.75 2.845,-5.25c1.244,-1.5 2.774,-2.684 4.591,-3.55c1.818,-0.867 3.906,-1.3 6.265,-1.3c1.658,-0 3.101,0.275 4.328,0.825c1.228,0.55 2.24,1.283 3.037,2.2c0.797,0.916 1.395,1.958 1.794,3.125c0.398,1.166 0.597,2.366 0.597,3.6c0,0.4 -0.024,0.808 -0.071,1.225c-0.048,0.416 -0.136,0.958 -0.263,1.625l-0.527,2.55l-17.407,-0Zm7.556,-9.45c-1.499,-0 -2.798,0.391 -3.898,1.175c-1.1,0.783 -1.921,1.741 -2.463,2.875l11.191,-0c0,-1.267 -0.375,-2.259 -1.124,-2.975c-0.749,-0.717 -1.984,-1.075 -3.706,-1.075Z" style="fill:rgb(244,244,245);fill-rule:nonzero;"/>
            <path d="M731.002,752.181c-0.351,-0 -0.709,0.041 -1.076,0.125c-0.367,0.083 -0.709,0.208 -1.028,0.375c-0.319,0.166 -0.582,0.391 -0.789,0.675c-0.208,0.283 -0.311,0.625 -0.311,1.025c-0,0.7 0.382,1.216 1.148,1.55c0.765,0.333 2.072,0.616 3.921,0.85c2.072,0.266 3.746,0.925 5.021,1.975c1.276,1.05 1.913,2.558 1.913,4.525c0,2.933 -0.98,5.233 -2.941,6.9c-1.96,1.666 -4.678,2.5 -8.154,2.5c-1.753,-0 -3.26,-0.267 -4.519,-0.8c-1.259,-0.534 -2.295,-1.2 -3.108,-2c-0.813,-0.8 -1.427,-1.684 -1.842,-2.65c-0.414,-0.967 -0.637,-1.884 -0.669,-2.75l5.93,-1.5c0.096,1.1 0.542,2.041 1.339,2.825c0.797,0.783 2.009,1.175 3.635,1.175c1.115,-0 2.088,-0.184 2.917,-0.55c0.829,-0.367 1.243,-1.017 1.243,-1.95c0,-0.7 -0.319,-1.259 -0.956,-1.675c-0.638,-0.417 -1.818,-0.709 -3.539,-0.875c-2.296,-0.2 -4.121,-0.884 -5.476,-2.05c-1.355,-1.167 -2.032,-2.717 -2.032,-4.65c-0,-1.4 0.279,-2.65 0.836,-3.75c0.558,-1.1 1.3,-2.017 2.224,-2.75c0.925,-0.734 2.001,-1.292 3.228,-1.675c1.228,-0.384 2.511,-0.575 3.85,-0.575c1.658,-0 3.045,0.233 4.161,0.7c1.116,0.466 2.024,1.05 2.726,1.75c0.701,0.7 1.219,1.458 1.554,2.275c0.335,0.816 0.55,1.575 0.646,2.275l-5.835,1.6c-0.127,-0.9 -0.526,-1.609 -1.195,-2.125c-0.67,-0.517 -1.611,-0.775 -2.822,-0.775Z" style="fill:rgb(244,244,245);fill-rule:nonzero;"/>
        </g>
        <g>
            <rect x="1032.57" y="714.027" width="330.592" height="79.707" style="fill:rgb(64,140,148);stroke:rgb(64,140,148);stroke-width:10.42px;stroke-linejoin:round;stroke-miterlimit:1.5;"/>
            <path d="M1057.18,751.631l7.891,-0l1.53,-7.6l5.452,-0l-1.53,7.6l6.647,-0l-0,5.7l-7.843,-0l-1.53,7.6l-5.452,-0l1.53,-7.6l-6.695,-0l-0,-5.7Z" style="fill:rgb(244,244,245);fill-rule:nonzero;"/>
            <path d="M1093.53,756.981l-0,-10.4l9.995,-2.4l-0,-0.9l-15.304,-0l0,-6.3l20.469,-0l-0,11l-10.474,2.7l0,0.9l1.1,-0c1.052,-0 2.065,0.183 3.037,0.55c0.972,0.366 1.841,0.916 2.606,1.65c0.766,0.733 1.379,1.65 1.842,2.75c0.462,1.1 0.693,2.383 0.693,3.85c-0,1.833 -0.319,3.5 -0.956,5c-0.638,1.5 -1.539,2.791 -2.703,3.875c-1.163,1.083 -2.582,1.925 -4.256,2.525c-1.674,0.6 -3.531,0.9 -5.571,0.9c-1.658,-0 -3.165,-0.25 -4.52,-0.75c-1.355,-0.5 -2.51,-1.2 -3.467,-2.1c-0.956,-0.9 -1.697,-1.967 -2.223,-3.2c-0.527,-1.234 -0.79,-2.584 -0.79,-4.05c0,-0.867 0.096,-1.75 0.287,-2.65l0.239,-1.25l6.313,-0l-0.191,1.05c-0.064,0.4 -0.112,0.725 -0.144,0.975c-0.031,0.25 -0.047,0.508 -0.047,0.775c-0,1.5 0.438,2.691 1.315,3.575c0.876,0.883 2.176,1.325 3.897,1.325c1.818,-0 3.316,-0.459 4.496,-1.375c1.179,-0.917 1.769,-2.225 1.769,-3.925c0,-1.267 -0.406,-2.267 -1.219,-3c-0.813,-0.734 -1.921,-1.1 -3.324,-1.1l-2.869,-0Z" style="fill:rgb(244,244,245);fill-rule:nonzero;"/>
            <path d="M1167.08,756.481c-0,2.333 -0.319,4.491 -0.957,6.475c-0.637,1.983 -1.578,3.691 -2.821,5.125c-1.244,1.433 -2.798,2.558 -4.663,3.375c-1.865,0.816 -4.025,1.225 -6.48,1.225c-1.403,-0 -2.718,-0.217 -3.945,-0.65c-1.228,-0.434 -2.304,-1.075 -3.229,-1.925c-0.924,-0.85 -1.657,-1.892 -2.199,-3.125c-0.542,-1.234 -0.813,-2.634 -0.813,-4.2c-0,-2.567 0.382,-4.859 1.147,-6.875c0.766,-2.017 1.81,-3.725 3.133,-5.125c1.323,-1.4 2.885,-2.467 4.686,-3.2c1.802,-0.734 3.739,-1.1 5.811,-1.1c1.498,-0 2.885,0.241 4.161,0.725c1.275,0.483 2.367,1.158 3.276,2.025c0.908,0.866 1.618,1.916 2.128,3.15c0.51,1.233 0.765,2.6 0.765,4.1Zm-14.012,10.3c1.147,-0.034 2.207,-0.3 3.18,-0.8c0.972,-0.5 1.801,-1.159 2.487,-1.975c0.685,-0.817 1.219,-1.775 1.602,-2.875c0.382,-1.1 0.574,-2.267 0.574,-3.5c-0,-1.734 -0.447,-3.042 -1.339,-3.925c-0.893,-0.884 -2.089,-1.325 -3.587,-1.325c-1.148,-0 -2.2,0.258 -3.157,0.775c-0.956,0.516 -1.785,1.2 -2.486,2.05c-0.702,0.85 -1.244,1.825 -1.626,2.925c-0.383,1.1 -0.574,2.25 -0.574,3.45c-0,1.7 0.446,2.991 1.339,3.875c0.893,0.883 2.088,1.325 3.587,1.325Z" style="fill:rgb(244,244,245);fill-rule:nonzero;"/>
            <path d="M1195.2,762.881c-0.893,2.966 -2.479,5.341 -4.758,7.125c-2.28,1.783 -5.333,2.675 -9.159,2.675c-1.402,-0 -2.726,-0.234 -3.969,-0.7c-1.243,-0.467 -2.327,-1.167 -3.252,-2.1c-0.925,-0.934 -1.65,-2.092 -2.176,-3.475c-0.526,-1.384 -0.789,-2.992 -0.789,-4.825c-0,-2.067 0.343,-4.017 1.028,-5.85c0.686,-1.834 1.682,-3.434 2.989,-4.8c1.307,-1.367 2.885,-2.45 4.735,-3.25c1.849,-0.8 3.953,-1.2 6.312,-1.2c1.722,-0 3.236,0.266 4.544,0.8c1.307,0.533 2.391,1.258 3.252,2.175c0.86,0.916 1.514,1.991 1.96,3.225c0.447,1.233 0.67,2.533 0.67,3.9l-6.122,1.25c0,-1.7 -0.406,-3.017 -1.219,-3.95c-0.813,-0.934 -2.128,-1.4 -3.945,-1.4c-1.148,-0 -2.208,0.225 -3.181,0.675c-0.972,0.45 -1.817,1.066 -2.534,1.85c-0.718,0.783 -1.276,1.7 -1.674,2.75c-0.399,1.05 -0.598,2.175 -0.598,3.375c0,1.9 0.478,3.3 1.435,4.2c0.956,0.9 2.168,1.35 3.634,1.35c2.009,-0 3.571,-0.467 4.687,-1.4c1.116,-0.934 1.961,-2.25 2.535,-3.95l5.595,1.55Z" style="fill:rgb(244,244,245);fill-rule:nonzero;"/>
            <path d="M1209.35,753.181l-6.696,-0l0,-6l7.939,-0l2.2,-10.9l6.026,-0l-2.2,10.9l8.225,-0l0,6l-9.469,-0l-2.678,12.85l0.479,0.35l6.408,-4.6l3.013,4.7l-6.935,4.9c-1.211,0.866 -2.502,1.3 -3.873,1.3c-0.702,-0 -1.371,-0.125 -2.009,-0.375c-0.638,-0.25 -1.196,-0.609 -1.674,-1.075c-0.478,-0.467 -0.861,-1.034 -1.148,-1.7c-0.286,-0.667 -0.43,-1.417 -0.43,-2.25c0,-0.267 0.016,-0.509 0.048,-0.725c0.032,-0.217 0.08,-0.509 0.143,-0.875l2.631,-12.5Z" style="fill:rgb(244,244,245);fill-rule:nonzero;"/>
            <path d="M1251.1,766.031l0.479,0.35l2.295,-1.7l3.013,4.7l-2.822,2c-1.243,0.866 -2.55,1.3 -3.921,1.3c-1.212,-0 -2.296,-0.35 -3.252,-1.05c-0.957,-0.7 -1.562,-1.684 -1.817,-2.95l-0.861,-0c-0.287,0.566 -0.622,1.091 -1.004,1.575c-0.383,0.483 -0.853,0.9 -1.411,1.25c-0.558,0.35 -1.212,0.633 -1.961,0.85c-0.749,0.216 -1.634,0.325 -2.654,0.325c-1.244,-0 -2.391,-0.259 -3.443,-0.775c-1.053,-0.517 -1.969,-1.234 -2.75,-2.15c-0.781,-0.917 -1.395,-1.992 -1.841,-3.225c-0.447,-1.234 -0.67,-2.584 -0.67,-4.05c-0,-2.234 0.287,-4.317 0.861,-6.25c0.574,-1.934 1.403,-3.625 2.487,-5.075c1.084,-1.45 2.415,-2.592 3.993,-3.425c1.578,-0.834 3.355,-1.25 5.332,-1.25c1.754,-0 3.141,0.366 4.161,1.1c1.02,0.733 1.705,1.7 2.056,2.9l0.861,-0l0.67,-3.3l6.025,-0l-3.826,18.85Zm-11.573,0.65c1.148,-0 2.168,-0.242 3.061,-0.725c0.893,-0.484 1.634,-1.125 2.224,-1.925c0.589,-0.8 1.044,-1.742 1.363,-2.825c0.318,-1.084 0.478,-2.225 0.478,-3.425c-0,-1.567 -0.431,-2.842 -1.291,-3.825c-0.861,-0.984 -2.009,-1.475 -3.444,-1.475c-1.147,-0 -2.168,0.241 -3.06,0.725c-0.893,0.483 -1.642,1.125 -2.248,1.925c-0.606,0.8 -1.068,1.741 -1.387,2.825c-0.319,1.083 -0.478,2.225 -0.478,3.425c-0,1.4 0.39,2.633 1.172,3.7c0.781,1.066 1.984,1.6 3.61,1.6Z" style="fill:rgb(244,244,245);fill-rule:nonzero;"/>
            <path d="M1263.92,753.281l-0.574,-0.2l-1.865,2.45l-4.161,-3.55l2.248,-3c0.638,-0.834 1.379,-1.459 2.224,-1.875c0.845,-0.417 1.73,-0.625 2.654,-0.625c0.67,-0 1.323,0.116 1.961,0.35c0.638,0.233 1.203,0.575 1.698,1.025c0.494,0.45 0.9,1.025 1.219,1.725c0.319,0.7 0.51,1.5 0.574,2.4l1.004,17l0.861,-0l9.66,-22.2l5.404,2.75l-10.042,22.45l-11.622,-0l-1.243,-18.7Z" style="fill:rgb(244,244,245);fill-rule:nonzero;"/>
            <path d="M1294.62,761.631c-0.064,0.266 -0.096,0.55 -0.096,0.85c-0,1.2 0.438,2.2 1.315,3c0.877,0.8 2.033,1.2 3.467,1.2c1.499,-0 2.694,-0.284 3.587,-0.85c0.893,-0.567 1.578,-1.234 2.056,-2l4.783,3.15c-0.383,0.666 -0.885,1.333 -1.507,2c-0.621,0.666 -1.387,1.275 -2.295,1.825c-0.909,0.55 -1.977,1 -3.204,1.35c-1.228,0.35 -2.655,0.525 -4.281,0.525c-1.466,-0 -2.813,-0.242 -4.041,-0.725c-1.227,-0.484 -2.279,-1.15 -3.156,-2c-0.877,-0.85 -1.562,-1.867 -2.056,-3.05c-0.494,-1.184 -0.742,-2.492 -0.742,-3.925c0,-2.267 0.327,-4.4 0.981,-6.4c0.653,-2 1.602,-3.75 2.845,-5.25c1.244,-1.5 2.774,-2.684 4.591,-3.55c1.818,-0.867 3.906,-1.3 6.265,-1.3c1.658,-0 3.101,0.275 4.328,0.825c1.228,0.55 2.24,1.283 3.037,2.2c0.797,0.916 1.395,1.958 1.793,3.125c0.399,1.166 0.598,2.366 0.598,3.6c0,0.4 -0.024,0.808 -0.072,1.225c-0.047,0.416 -0.135,0.958 -0.263,1.625l-0.526,2.55l-17.407,-0Zm7.556,-9.45c-1.499,-0 -2.798,0.391 -3.898,1.175c-1.1,0.783 -1.921,1.741 -2.463,2.875l11.191,-0c-0,-1.267 -0.375,-2.259 -1.124,-2.975c-0.749,-0.717 -1.985,-1.075 -3.706,-1.075Z" style="fill:rgb(244,244,245);fill-rule:nonzero;"/>
            <path d="M1331.4,752.181c-0.351,-0 -0.71,0.041 -1.076,0.125c-0.367,0.083 -0.71,0.208 -1.028,0.375c-0.319,0.166 -0.582,0.391 -0.79,0.675c-0.207,0.283 -0.31,0.625 -0.31,1.025c-0,0.7 0.382,1.216 1.147,1.55c0.766,0.333 2.073,0.616 3.922,0.85c2.072,0.266 3.746,0.925 5.021,1.975c1.276,1.05 1.913,2.558 1.913,4.525c0,2.933 -0.98,5.233 -2.941,6.9c-1.961,1.666 -4.679,2.5 -8.154,2.5c-1.753,-0 -3.26,-0.267 -4.519,-0.8c-1.259,-0.534 -2.296,-1.2 -3.109,-2c-0.813,-0.8 -1.426,-1.684 -1.841,-2.65c-0.414,-0.967 -0.637,-1.884 -0.669,-2.75l5.93,-1.5c0.095,1.1 0.542,2.041 1.339,2.825c0.797,0.783 2.008,1.175 3.634,1.175c1.116,-0 2.089,-0.184 2.918,-0.55c0.829,-0.367 1.243,-1.017 1.243,-1.95c0,-0.7 -0.319,-1.259 -0.956,-1.675c-0.638,-0.417 -1.818,-0.709 -3.539,-0.875c-2.296,-0.2 -4.121,-0.884 -5.476,-2.05c-1.355,-1.167 -2.033,-2.717 -2.033,-4.65c0,-1.4 0.279,-2.65 0.837,-3.75c0.558,-1.1 1.3,-2.017 2.224,-2.75c0.925,-0.734 2.001,-1.292 3.228,-1.675c1.228,-0.384 2.511,-0.575 3.85,-0.575c1.658,-0 3.045,0.233 4.161,0.7c1.115,0.466 2.024,1.05 2.725,1.75c0.702,0.7 1.22,1.458 1.555,2.275c0.335,0.816 0.55,1.575 0.645,2.275l-5.834,1.6c-0.128,-0.9 -0.526,-1.609 -1.196,-2.125c-0.669,-0.517 -1.61,-0.775 -2.821,-0.775Z" style="fill:rgb(244,244,245);fill-rule:nonzero;"/>
        </g>
        <g>
            <rect x="748.053" y="877.597" width="303.894" height="79.707" style="fill:rgb(35,31,32);stroke:rgb(35,31,32);stroke-width:10.42px;stroke-linejoin:round;stroke-miterlimit:1.5;"/>
            <path d="M774.057,899.95l6.313,0l-2.917,14.3l9.564,0l2.918,-14.3l6.312,0l-7.125,35l-6.313,0l2.917,-14.4l-9.564,0l-2.918,14.4l-6.265,0l7.078,-35Z" style="fill:rgb(244,244,245);fill-rule:nonzero;"/>
            <path d="M819.155,929l0.478,0.35l2.295,-1.7l3.013,4.7l-2.821,2c-1.244,0.867 -2.551,1.3 -3.922,1.3c-1.211,0 -2.295,-0.35 -3.252,-1.05c-0.956,-0.7 -1.562,-1.683 -1.817,-2.95l-0.861,0c-0.287,0.567 -0.622,1.092 -1.004,1.575c-0.383,0.483 -0.853,0.9 -1.411,1.25c-0.558,0.35 -1.211,0.633 -1.961,0.85c-0.749,0.217 -1.634,0.325 -2.654,0.325c-1.243,0 -2.391,-0.258 -3.443,-0.775c-1.052,-0.517 -1.969,-1.233 -2.75,-2.15c-0.781,-0.917 -1.395,-1.992 -1.841,-3.225c-0.447,-1.233 -0.67,-2.583 -0.67,-4.05c0,-2.233 0.287,-4.317 0.861,-6.25c0.574,-1.933 1.403,-3.625 2.487,-5.075c1.084,-1.45 2.415,-2.592 3.993,-3.425c1.578,-0.833 3.356,-1.25 5.332,-1.25c1.754,0 3.141,0.367 4.161,1.1c1.02,0.733 1.706,1.7 2.056,2.9l0.861,0l0.67,-3.3l6.026,0l-3.826,18.85Zm-11.574,0.65c1.148,0 2.168,-0.242 3.061,-0.725c0.893,-0.483 1.634,-1.125 2.224,-1.925c0.59,-0.8 1.044,-1.742 1.363,-2.825c0.319,-1.083 0.478,-2.225 0.478,-3.425c0,-1.567 -0.43,-2.842 -1.291,-3.825c-0.861,-0.983 -2.009,-1.475 -3.443,-1.475c-1.148,0 -2.168,0.242 -3.061,0.725c-0.893,0.483 -1.642,1.125 -2.248,1.925c-0.606,0.8 -1.068,1.742 -1.387,2.825c-0.318,1.083 -0.478,2.225 -0.478,3.425c0,1.4 0.391,2.633 1.172,3.7c0.781,1.067 1.984,1.6 3.61,1.6Z" style="fill:rgb(244,244,245);fill-rule:nonzero;"/>
            <path d="M834.028,916.05l-0.479,-0.3l-3.778,2.9l-3.204,-4.5l3.826,-3c0.733,-0.567 1.507,-0.992 2.32,-1.275c0.813,-0.283 1.586,-0.425 2.319,-0.425c1.275,0 2.391,0.367 3.348,1.1c0.956,0.733 1.53,1.767 1.721,3.1l0.861,0c0.638,-1.4 1.53,-2.45 2.678,-3.15c1.148,-0.7 2.439,-1.05 3.874,-1.05c1.817,0 3.292,0.592 4.424,1.775c1.131,1.183 1.697,2.825 1.697,4.925c0,0.433 -0.024,0.858 -0.071,1.275c-0.048,0.417 -0.136,0.925 -0.263,1.525l-0.24,1.1l-6.408,0.5l0.144,-0.7c0.095,-0.5 0.143,-0.95 0.143,-1.35c0,-0.967 -0.255,-1.733 -0.765,-2.3c-0.51,-0.567 -1.275,-0.85 -2.296,-0.85c-1.275,0 -2.287,0.45 -3.036,1.35c-0.75,0.9 -1.3,2.183 -1.65,3.85l-1.722,8.4l5.739,0l-0,6l-16.356,0l0,-6l4.591,0l2.583,-12.9Z" style="fill:rgb(244,244,245);fill-rule:nonzero;"/>
            <path d="M877.69,929l0.479,0.35l2.582,-1.9l3.013,4.7l-3.109,2.2c-0.669,0.467 -1.331,0.8 -1.984,1c-0.654,0.2 -1.299,0.3 -1.937,0.3c-1.212,0 -2.296,-0.35 -3.252,-1.05c-0.956,-0.7 -1.562,-1.683 -1.817,-2.95l-0.861,0c-0.287,0.567 -0.622,1.092 -1.004,1.575c-0.383,0.483 -0.853,0.9 -1.411,1.25c-0.558,0.35 -1.212,0.633 -1.961,0.85c-0.749,0.217 -1.634,0.325 -2.654,0.325c-1.244,0 -2.391,-0.258 -3.443,-0.775c-1.053,-0.517 -1.969,-1.233 -2.75,-2.15c-0.781,-0.917 -1.395,-1.992 -1.841,-3.225c-0.447,-1.233 -0.67,-2.583 -0.67,-4.05c-0,-2.233 0.287,-4.317 0.861,-6.25c0.574,-1.933 1.403,-3.625 2.487,-5.075c1.084,-1.45 2.415,-2.592 3.993,-3.425c1.578,-0.833 3.355,-1.25 5.332,-1.25c1.69,0 3.061,0.4 4.113,1.2c1.052,0.8 1.738,1.833 2.056,3.1l0.861,0l2.917,-14.5l6.074,0l-2.965,14.5l-3.109,15.25Zm-11.573,0.65c1.148,0 2.168,-0.242 3.061,-0.725c0.893,-0.483 1.634,-1.125 2.224,-1.925c0.589,-0.8 1.044,-1.742 1.363,-2.825c0.318,-1.083 0.478,-2.225 0.478,-3.425c-0,-1.567 -0.431,-2.842 -1.291,-3.825c-0.861,-0.983 -2.009,-1.475 -3.444,-1.475c-1.147,0 -2.168,0.242 -3.06,0.725c-0.893,0.483 -1.642,1.125 -2.248,1.925c-0.606,0.8 -1.068,1.742 -1.387,2.825c-0.319,1.083 -0.478,2.225 -0.478,3.425c-0,1.4 0.39,2.633 1.172,3.7c0.781,1.067 1.984,1.6 3.61,1.6Z" style="fill:rgb(244,244,245);fill-rule:nonzero;"/>
            <path d="M928.718,915.15c-0.351,0 -0.709,0.042 -1.076,0.125c-0.367,0.083 -0.709,0.208 -1.028,0.375c-0.319,0.167 -0.582,0.392 -0.789,0.675c-0.208,0.283 -0.311,0.625 -0.311,1.025c-0,0.7 0.382,1.217 1.148,1.55c0.765,0.333 2.072,0.617 3.921,0.85c2.072,0.267 3.746,0.925 5.021,1.975c1.276,1.05 1.913,2.558 1.913,4.525c0,2.933 -0.98,5.233 -2.941,6.9c-1.96,1.667 -4.678,2.5 -8.154,2.5c-1.753,0 -3.26,-0.267 -4.519,-0.8c-1.259,-0.533 -2.295,-1.2 -3.108,-2c-0.813,-0.8 -1.427,-1.683 -1.842,-2.65c-0.414,-0.967 -0.637,-1.883 -0.669,-2.75l5.93,-1.5c0.096,1.1 0.542,2.042 1.339,2.825c0.797,0.783 2.009,1.175 3.635,1.175c1.115,0 2.088,-0.183 2.917,-0.55c0.829,-0.367 1.243,-1.017 1.243,-1.95c0,-0.7 -0.319,-1.258 -0.956,-1.675c-0.638,-0.417 -1.818,-0.708 -3.539,-0.875c-2.296,-0.2 -4.121,-0.883 -5.476,-2.05c-1.355,-1.167 -2.032,-2.717 -2.032,-4.65c-0,-1.4 0.279,-2.65 0.836,-3.75c0.558,-1.1 1.3,-2.017 2.224,-2.75c0.925,-0.733 2.001,-1.292 3.228,-1.675c1.228,-0.383 2.511,-0.575 3.85,-0.575c1.658,0 3.045,0.233 4.161,0.7c1.116,0.467 2.024,1.05 2.726,1.75c0.701,0.7 1.219,1.458 1.554,2.275c0.335,0.817 0.55,1.575 0.646,2.275l-5.835,1.6c-0.127,-0.9 -0.526,-1.608 -1.196,-2.125c-0.669,-0.517 -1.61,-0.775 -2.821,-0.775Z" style="fill:rgb(244,244,245);fill-rule:nonzero;"/>
            <path d="M953.49,924.55c-0.063,0.233 -0.111,0.483 -0.143,0.75c-0.032,0.267 -0.048,0.533 -0.048,0.8c0,1.267 0.351,2.225 1.052,2.875c0.702,0.65 1.658,0.975 2.87,0.975c1.721,0 3.044,-0.583 3.969,-1.75c0.925,-1.167 1.61,-2.85 2.056,-5.05l2.631,-13l6.025,0l-6.264,30.9c-0.224,1.133 -0.75,2.067 -1.579,2.8c-0.829,0.733 -1.785,1.1 -2.869,1.1l-13.869,0l0,-6l11.43,0c0.861,0 1.387,-0.5 1.578,-1.5l1.244,-6.1l-0.861,0c-0.702,1.5 -1.594,2.592 -2.678,3.275c-1.084,0.683 -2.439,1.025 -4.065,1.025c-0.957,0 -1.85,-0.175 -2.678,-0.525c-0.829,-0.35 -1.563,-0.85 -2.2,-1.5c-0.638,-0.65 -1.14,-1.45 -1.507,-2.4c-0.366,-0.95 -0.55,-2.042 -0.55,-3.275c0,-0.833 0.096,-1.7 0.287,-2.6l1.865,-9.25l-0.478,-0.35l-2.869,2.1l-3.013,-4.7l3.491,-2.45c0.606,-0.433 1.227,-0.75 1.865,-0.95c0.638,-0.2 1.275,-0.3 1.913,-0.3c0.701,0 1.371,0.125 2.009,0.375c0.637,0.25 1.195,0.6 1.673,1.05c0.479,0.45 0.861,1 1.148,1.65c0.287,0.65 0.43,1.392 0.43,2.225c0,0.467 -0.047,0.967 -0.143,1.5l-1.722,8.3Z" style="fill:rgb(244,244,245);fill-rule:nonzero;"/>
            <path d="M989.98,920.55c0.127,-0.633 0.191,-1.167 0.191,-1.6c-0,-1.2 -0.335,-2.133 -1.004,-2.8c-0.67,-0.667 -1.579,-1 -2.726,-1c-1.435,0 -2.663,0.533 -3.683,1.6c-1.02,1.067 -1.705,2.5 -2.056,4.3l-2.822,13.9l-6.025,0l5.021,-24.8l5.787,0l-0.813,4l0.86,0c0.766,-1.667 1.778,-2.867 3.037,-3.6c1.26,-0.733 2.654,-1.1 4.185,-1.1c2.008,0 3.61,0.633 4.806,1.9c1.196,1.267 1.793,3.05 1.793,5.35c0,0.533 -0.032,1.025 -0.095,1.475c-0.064,0.45 -0.144,0.942 -0.239,1.475l-1.913,9.35l0.478,0.35l2.056,-1.5l3.013,4.7l-2.582,1.8c-1.212,0.867 -2.503,1.3 -3.874,1.3c-0.701,0 -1.371,-0.125 -2.009,-0.375c-0.637,-0.25 -1.195,-0.6 -1.673,-1.05c-0.479,-0.45 -0.861,-1 -1.148,-1.65c-0.287,-0.65 -0.431,-1.392 -0.431,-2.225c0,-0.433 0.048,-0.933 0.144,-1.5l1.722,-8.3Z" style="fill:rgb(244,244,245);fill-rule:nonzero;"/>
            <path d="M1026.66,925.85c-0.893,2.967 -2.479,5.342 -4.758,7.125c-2.28,1.783 -5.333,2.675 -9.159,2.675c-1.402,0 -2.725,-0.233 -3.969,-0.7c-1.243,-0.467 -2.327,-1.167 -3.252,-2.1c-0.924,-0.933 -1.65,-2.092 -2.176,-3.475c-0.526,-1.383 -0.789,-2.992 -0.789,-4.825c0,-2.067 0.343,-4.017 1.028,-5.85c0.686,-1.833 1.682,-3.433 2.989,-4.8c1.307,-1.367 2.886,-2.45 4.735,-3.25c1.849,-0.8 3.953,-1.2 6.312,-1.2c1.722,0 3.237,0.267 4.544,0.8c1.307,0.533 2.391,1.258 3.252,2.175c0.86,0.917 1.514,1.992 1.96,3.225c0.447,1.233 0.67,2.533 0.67,3.9l-6.121,1.25c-0,-1.7 -0.407,-3.017 -1.22,-3.95c-0.813,-0.933 -2.128,-1.4 -3.945,-1.4c-1.148,0 -2.208,0.225 -3.181,0.675c-0.972,0.45 -1.817,1.067 -2.534,1.85c-0.718,0.783 -1.276,1.7 -1.674,2.75c-0.399,1.05 -0.598,2.175 -0.598,3.375c0,1.9 0.478,3.3 1.435,4.2c0.956,0.9 2.168,1.35 3.634,1.35c2.009,0 3.571,-0.467 4.687,-1.4c1.116,-0.933 1.961,-2.25 2.535,-3.95l5.595,1.55Z" style="fill:rgb(244,244,245);fill-rule:nonzero;"/>
        </g>
        <path d="M891.022,753.768l-5.512,0l0,-42.515c0,-9.508 4.674,-14.353 14.021,-14.535c3.674,-0 6.732,0.908 9.175,2.725c2.443,1.878 3.684,4.553 3.725,8.025c-0.041,5.45 -2.564,8.943 -7.571,10.477l0,0.121c6.319,0.989 9.529,4.684 9.63,11.083c-0.041,3.775 -1.161,6.884 -3.362,9.327c-2.281,2.463 -5.359,3.714 -9.235,3.755c-2.362,-0 -4.351,-0.343 -5.966,-1.03c-1.655,-0.706 -3.29,-1.948 -4.905,-3.724l-0,16.291Zm0.09,-27.102c0,1.454 0.142,2.847 0.424,4.179c0.283,1.272 0.757,2.443 1.424,3.513c0.706,1.049 1.695,1.857 2.967,2.422c1.252,0.666 2.847,0.999 4.785,0.999c2.604,0 4.633,-0.847 6.086,-2.543c1.393,-1.615 2.09,-3.705 2.09,-6.268c-0.041,-3.049 -0.99,-5.219 -2.847,-6.511c-1.857,-1.191 -4.169,-1.787 -6.934,-1.787c-1.05,0.041 -2.11,0.101 -3.18,0.182l0,-4.663c0.909,-0 1.777,-0.02 2.604,-0.061c2.322,-0.04 4.29,-0.676 5.905,-1.907c1.575,-1.212 2.382,-3.16 2.423,-5.845c-0.121,-4.784 -2.665,-7.176 -7.631,-7.176c-2.867,0.04 -4.936,0.888 -6.208,2.543c-1.272,1.696 -1.908,3.987 -1.908,6.874l0,16.049Z" style="fill:rgb(131,133,136);fill-rule:nonzero;"/>
    </g>
    <defs>
        <linearGradient id="_Linear1" x1="0" y1="0" x2="1" y2="0" gradientUnits="userSpaceOnUse" gradientTransform="matrix(468.262,0,0,468.262,665.869,464.394)"><stop offset="0" style="stop-color:rgb(145,120,199);stop-opacity:1"/><stop offset="0.21" style="stop-color:rgb(145,120,199);stop-opacity:1"/><stop offset="0.84" style="stop-color:rgb(118,188,194);stop-opacity:1"/><stop offset="1" style="stop-color:rgb(124,192,198);stop-opacity:1"/></linearGradient>
        <linearGradient id="_Linear2" x1="0" y1="0" x2="1" y2="0" gradientUnits="userSpaceOnUse" gradientTransform="matrix(468.262,0,0,468.262,665.869,464.394)"><stop offset="0" style="stop-color:rgb(145,120,199);stop-opacity:1"/><stop offset="0.21" style="stop-color:rgb(145,120,199);stop-opacity:1"/><stop offset="0.84" style="stop-color:rgb(118,188,194);stop-opacity:1"/><stop offset="1" style="stop-color:rgb(124,192,198);stop-opacity:1"/></linearGradient>
    </defs>
</svg>
