<?xml version="1.0" encoding="UTF-8" standalone="no"?>
<!DOCTYPE svg PUBLIC "-//W3C//DTD SVG 1.1//EN" "http://www.w3.org/Graphics/SVG/1.1/DTD/svg11.dtd">
<svg width="100%" height="100%" viewBox="0 0 1800 1201" version="1.1" xmlns="http://www.w3.org/2000/svg" xmlns:xlink="http://www.w3.org/1999/xlink" xml:space="preserve" xmlns:serif="http://www.serif.com/" style="fill-rule:evenodd;clip-rule:evenodd;stroke-linecap:round;stroke-linejoin:round;stroke-miterlimit:1.5;">
    <rect id="_18---lfo-fm" serif:id="18 - lfo fm" x="0" y="0.802" width="1800" height="1200" style="fill:none;"/>
    <g id="_18---lfo-fm1" serif:id="18 - lfo fm">
        <g id="Base">
            <rect id="Outline" x="617.357" y="87.813" width="565.286" height="1025.98" style="fill:none;stroke:rgb(12,12,12);stroke-width:4.17px;"/>
            <path id="Mounting-holes" serif:id="Mounting holes" d="M693.207,1089.84c0,-7.712 -6.26,-13.973 -13.972,-13.973l-3.992,0c-7.712,0 -13.973,6.261 -13.973,13.973c0,7.711 6.261,13.972 13.973,13.972l3.992,0c7.712,0 13.972,-6.261 13.972,-13.972Zm0,-978.073c0,-7.712 -6.26,-13.973 -13.972,-13.973l-3.992,0c-7.712,0 -13.973,6.261 -13.973,13.973c0,7.711 6.261,13.972 13.973,13.972l3.992,0c7.712,0 13.972,-6.261 13.972,-13.972Zm446.161,978.073c0,-7.712 -6.26,-13.973 -13.972,-13.973l-3.992,0c-7.712,0 -13.973,6.261 -13.973,13.973c0,7.711 6.261,13.972 13.973,13.972l3.992,0c7.712,0 13.972,-6.261 13.972,-13.972Zm0,-978.073c0,-7.712 -6.26,-13.973 -13.972,-13.973l-3.992,0c-7.712,0 -13.973,6.261 -13.973,13.973c0,7.711 6.261,13.972 13.973,13.972l3.992,0c7.712,0 13.972,-6.261 13.972,-13.972Z" style="fill:rgb(213,213,213);"/>
            <g id="Legend">
                <path d="M685.538,1038.52c-0.051,1.13 0.315,1.681 1.098,1.656c0.475,-0 0.834,-0.084 1.078,-0.251l-0,3.043c-0.295,0.102 -0.68,0.167 -1.155,0.192c-0.501,0.052 -0.918,0.077 -1.252,0.077c-0.924,-0.025 -1.649,-0.366 -2.176,-1.02c-0.577,-0.629 -0.866,-1.393 -0.866,-2.292l-0.077,0c-1.605,2.208 -3.8,3.312 -6.585,3.312c-2.991,-0.051 -5.225,-1.123 -6.701,-3.215c-1.502,-2.028 -2.253,-4.461 -2.253,-7.298c0,-2.901 0.726,-5.397 2.176,-7.49c1.438,-2.131 3.71,-3.222 6.816,-3.273c2.76,-0 4.93,1.117 6.508,3.35l0.077,0l0,-2.965l3.312,0l0,16.174Zm-9.377,1.887c1.027,-0 1.906,-0.238 2.638,-0.713c0.706,-0.449 1.297,-1.052 1.772,-1.809c0.924,-1.554 1.386,-3.261 1.386,-5.122c-0,-2.08 -0.424,-3.909 -1.271,-5.488c-0.86,-1.604 -2.426,-2.432 -4.698,-2.484c-2.015,0.052 -3.485,0.867 -4.409,2.446c-0.925,1.553 -1.387,3.273 -1.387,5.16c0,2.002 0.462,3.806 1.387,5.41c0.924,1.682 2.451,2.549 4.582,2.6Z" style="fill:rgb(131,133,136);fill-rule:nonzero;"/>
                <path d="M673.895,363.841c-0.059,1.291 0.359,1.922 1.254,1.893c0.543,-0 0.954,-0.096 1.232,-0.286l0,3.476c-0.337,0.118 -0.777,0.191 -1.32,0.221c-0.572,0.058 -1.049,0.088 -1.43,0.088c-1.056,-0.03 -1.885,-0.419 -2.487,-1.167c-0.66,-0.719 -0.99,-1.591 -0.99,-2.618l-0.088,-0c-1.834,2.523 -4.342,3.785 -7.526,3.785c-3.418,-0.059 -5.971,-1.284 -7.658,-3.675c-1.716,-2.318 -2.574,-5.098 -2.574,-8.34c-0,-3.316 0.829,-6.169 2.486,-8.56c1.643,-2.436 4.24,-3.683 7.79,-3.741c3.154,-0 5.634,1.276 7.438,3.829l0.088,-0l-0,-3.389l3.785,-0l-0,18.484Zm-10.717,2.157c1.174,-0 2.179,-0.272 3.015,-0.814c0.807,-0.514 1.482,-1.203 2.025,-2.069c1.056,-1.775 1.584,-3.726 1.584,-5.853c-0,-2.377 -0.484,-4.467 -1.452,-6.272c-0.983,-1.834 -2.773,-2.78 -5.37,-2.838c-2.303,0.058 -3.983,0.99 -5.039,2.794c-1.056,1.775 -1.584,3.741 -1.584,5.898c-0,2.288 0.528,4.349 1.584,6.183c1.056,1.922 2.802,2.912 5.237,2.971Z" style="fill:rgb(131,133,136);fill-rule:nonzero;"/>
                <path d="M1113.95,1059.13l-3.504,-0l-0,-27.034c-0,-6.046 2.971,-9.126 8.915,-9.242c2.336,-0 4.281,0.578 5.834,1.733c1.553,1.194 2.343,2.895 2.368,5.102c-0.025,3.466 -1.63,5.687 -4.813,6.662l-0,0.077c4.017,0.629 6.058,2.979 6.123,7.048c-0.026,2.4 -0.739,4.377 -2.138,5.93c-1.45,1.566 -3.408,2.362 -5.872,2.388c-1.502,-0 -2.767,-0.219 -3.794,-0.655c-1.052,-0.449 -2.092,-1.239 -3.119,-2.368l0,10.359Zm0.058,-17.233c-0,0.924 0.09,1.81 0.27,2.657c0.179,0.809 0.481,1.553 0.904,2.233c0.45,0.668 1.079,1.181 1.887,1.541c0.796,0.423 1.81,0.635 3.043,0.635c1.656,0 2.946,-0.539 3.87,-1.617c0.886,-1.027 1.328,-2.356 1.328,-3.986c-0.025,-1.938 -0.629,-3.318 -1.81,-4.14c-1.18,-0.757 -2.65,-1.136 -4.409,-1.136c-0.667,0.026 -1.341,0.065 -2.022,0.116l0,-2.965c0.578,-0 1.13,-0.013 1.656,-0.039c1.477,-0.025 2.728,-0.43 3.755,-1.213c1.001,-0.77 1.515,-2.009 1.54,-3.716c-0.077,-3.042 -1.694,-4.563 -4.852,-4.563c-1.823,0.025 -3.138,0.564 -3.947,1.617c-0.809,1.078 -1.213,2.535 -1.213,4.371l-0,10.205Z" style="fill:rgb(131,133,136);fill-rule:nonzero;"/>
                <path d="M1124.39,378.97l-4.005,-0l-0,-30.896c-0,-6.909 3.396,-10.43 10.188,-10.562c2.67,-0 4.893,0.66 6.668,1.98c1.775,1.365 2.677,3.309 2.706,5.832c-0.029,3.961 -1.863,6.499 -5.501,7.614l0,0.088c4.592,0.719 6.924,3.403 6.998,8.054c-0.03,2.743 -0.844,5.002 -2.443,6.777c-1.658,1.79 -3.895,2.7 -6.711,2.729c-1.717,-0 -3.162,-0.25 -4.335,-0.748c-1.203,-0.514 -2.392,-1.416 -3.565,-2.707l-0,11.839Zm0.066,-19.695c-0,1.056 0.102,2.069 0.308,3.037c0.205,0.924 0.55,1.775 1.034,2.553c0.513,0.762 1.232,1.349 2.157,1.76c0.909,0.484 2.068,0.726 3.476,0.726c1.893,0 3.367,-0.616 4.423,-1.848c1.013,-1.174 1.519,-2.692 1.519,-4.555c-0.03,-2.216 -0.719,-3.793 -2.069,-4.732c-1.349,-0.865 -3.029,-1.298 -5.039,-1.298c-0.763,0.029 -1.533,0.073 -2.31,0.132l-0,-3.389c0.66,0 1.291,-0.014 1.892,-0.044c1.687,-0.029 3.117,-0.491 4.291,-1.386c1.144,-0.88 1.731,-2.296 1.76,-4.247c-0.088,-3.477 -1.936,-5.215 -5.545,-5.215c-2.083,0.029 -3.587,0.645 -4.511,1.848c-0.924,1.232 -1.386,2.898 -1.386,4.995l-0,11.663Z" style="fill:rgb(131,133,136);fill-rule:nonzero;"/>
                <path d="M902.399,512.249c2.655,-0.088 4.687,-0.909 6.095,-2.464c1.379,-1.599 2.069,-3.66 2.069,-6.184c-0.03,-5.398 -2.751,-8.34 -8.164,-8.824l-0,17.472Zm-4.049,3.521c-3.507,-0.058 -6.433,-1.137 -8.78,-3.235c-2.406,-2.083 -3.639,-4.907 -3.697,-8.472c-0,-3.843 1.107,-6.924 3.322,-9.242c2.201,-2.347 5.252,-3.535 9.155,-3.565l-0,-3.653l4.049,0l-0,3.653c3.946,0.03 7.012,1.218 9.198,3.565c2.171,2.318 3.271,5.399 3.301,9.242c-0.059,3.565 -1.277,6.389 -3.653,8.472c-2.348,2.098 -5.296,3.177 -8.846,3.235l-0,3.653l-4.049,0l-0,-3.653Zm-0,-20.993c-5.443,0.484 -8.164,3.426 -8.164,8.824c-0,2.524 0.726,4.585 2.178,6.184c1.379,1.555 3.374,2.376 5.986,2.464l-0,-17.472Z" style="fill:rgb(131,133,136);fill-rule:nonzero;"/>
                <g>
                    <path d="M726.829,584.673l-19.82,0.059l-0.125,-17.109l-6.689,0l0,17.05" style="fill:none;stroke:rgb(131,133,136);stroke-width:6.25px;"/>
                    <path d="M721.836,570.693l4.03,4.03l-4.03,4.03" style="fill:none;stroke:rgb(131,133,136);stroke-width:4.23px;stroke-linejoin:miter;stroke-miterlimit:10;"/>
                    <path d="M707.062,574.723l18.804,0" style="fill:none;stroke:rgb(131,133,136);stroke-width:4.23px;stroke-dasharray:0.04,5.07,0,0;stroke-dashoffset:21.13;"/>
                </g>
                <g>
                    <path d="M1072.93,584.673l19.82,0.059l0.126,-17.109l6.688,0l0,17.05" style="fill:none;stroke:rgb(131,133,136);stroke-width:6.25px;"/>
                    <path d="M1077.92,578.753l-4.029,-4.03l4.029,-4.03" style="fill:none;stroke:rgb(131,133,136);stroke-width:4.23px;stroke-linejoin:miter;stroke-miterlimit:10;"/>
                    <path d="M1092.7,574.723l-18.803,0" style="fill:none;stroke:rgb(131,133,136);stroke-width:4.23px;stroke-dasharray:0.04,5.07,0,0;stroke-dashoffset:21.13;"/>
                </g>
                <path d="M905.028,681.565l0,-0.374l-7.988,-10.717l13.688,0l-0,-5.017l-22.094,0l0,3.345l9.859,12.565l-9.859,12.785l0,3.323l22.732,-0l-0,-4.929l-14.436,-0l8.098,-10.981Z" style="fill:rgb(131,133,136);fill-rule:nonzero;"/>
                <path d="M788.917,1022.06l-2.893,7.701l-7.264,0l6.14,4.621l-2.956,7.763l6.973,-5.245l6.993,5.245l-2.976,-7.763l6.14,-4.621l-7.285,0l-2.872,-7.701Z" style="fill:rgb(131,133,136);fill-rule:nonzero;"/>
                <path d="M1008.96,1020.7l-3.284,8.743l-8.247,0l6.971,5.246l-3.356,8.815l7.916,-5.955l7.94,5.955l-3.379,-8.815l6.971,-5.246l-8.271,0l-3.261,-8.743Zm0,3.167l2.482,6.687l5.742,0l-4.986,3.757l2.316,6.026l-5.554,-4.159l-5.553,4.159l2.316,-6.026l-4.986,-3.757l5.719,0l2.504,-6.687Z" style="fill:rgb(131,133,136);fill-rule:nonzero;"/>
                <path d="M894.81,1025.03c-1.497,-0.198 -3.01,-0.528 -4.539,-0.99l-0,-1.981c3.103,0.803 6.354,1.205 9.754,1.205c3.4,-0 6.634,-0.402 9.704,-1.205l0,2.014c-1.573,0.429 -3.103,0.748 -4.588,0.957l-0,14.127c1.485,0.209 3.015,0.523 4.588,0.941l0,2.046c-3.07,-0.814 -6.304,-1.221 -9.704,-1.221c-3.4,0 -6.651,0.407 -9.754,1.221l-0,-1.98c1.529,-0.484 3.042,-0.82 4.539,-1.007l-0,-14.127Zm2.046,13.979c2.079,-0.231 4.159,-0.231 6.238,-0l0,-13.831c-2.079,0.232 -4.159,0.232 -6.238,0l-0,13.831Z" style="fill:rgb(131,133,136);fill-rule:nonzero;"/>
                <path d="M967.578,1088.47c-4.385,0.297 -6.232,3.205 -7.214,6.27c-0.863,2.695 -1.83,5.477 -2.883,6.907c-0.584,0.793 -1.235,1.201 -1.868,1.201c-0.629,-0 -1.089,-0.332 -1.384,-0.954c-0.449,-0.948 -0.438,-2.803 -0.319,-4.661c0.094,-1.458 0.237,-2.915 0.175,-3.848c-0.009,-0.135 -0.038,-0.288 -0.063,-0.402c-0.054,0.029 -0.108,0.066 -0.164,0.109c-0.207,0.155 -0.411,0.381 -0.618,0.65c-0.719,0.933 -1.43,2.348 -2.102,3.576c-0.574,1.047 -1.132,1.964 -1.629,2.425c-0.338,0.313 -0.681,0.453 -0.989,0.453c-0.581,0 -0.998,-0.354 -1.159,-1.093c-0.206,-0.945 0.081,-2.799 0.418,-4.651c0.267,-1.467 0.555,-2.934 0.566,-3.873c0.001,-0.119 -0.012,-0.254 -0.026,-0.359c-0.08,0.047 -0.16,0.117 -0.246,0.196c-0.259,0.24 -0.517,0.585 -0.779,0.999c-0.87,1.375 -1.735,3.457 -2.525,5.266c-0.65,1.488 -1.258,2.798 -1.768,3.453c-0.367,0.47 -0.758,0.659 -1.065,0.659c-0.58,0 -0.978,-0.301 -1.207,-0.863c-0.313,-0.772 -0.196,-2.285 0.026,-3.797c0.138,-0.939 0.303,-1.877 0.373,-2.6c0.017,-0.177 0.02,-0.377 0.017,-0.539c-0.052,0.026 -0.108,0.054 -0.167,0.084c-0.479,0.242 -1.095,0.631 -1.795,1.063c-1.226,0.756 -2.695,1.62 -4.152,2.132c-0.297,1.175 -0.776,2.292 -1.407,3.163c-0.839,1.157 -1.945,1.886 -3.232,1.886c-1.133,-0 -1.838,-0.575 -2.285,-1.392c-0.377,-0.689 -0.553,-1.571 -0.661,-2.358c-0.048,-0.355 -0.113,-0.777 -0.159,-1.067c-0.232,0.1 -0.543,0.238 -0.824,0.371c-0.494,0.234 -1.071,0.492 -1.69,0.702c-0.261,1.227 -0.709,2.397 -1.311,3.304c-0.793,1.197 -1.856,1.943 -3.081,1.943c-1.089,0 -1.803,-0.605 -2.264,-1.488c-0.383,-0.734 -0.579,-1.675 -0.701,-2.514c-0.052,-0.358 -0.091,-0.695 -0.129,-0.982c-0.148,0.172 -0.306,0.373 -0.474,0.585c-0.498,0.629 -1.079,1.348 -1.731,1.826c-0.517,0.379 -1.079,0.613 -1.676,0.613c-1.073,-0 -1.91,-0.522 -2.521,-1.427c-0.503,-0.745 -0.846,-1.777 -1.036,-2.967c-0.877,0.639 -1.851,1.195 -2.803,1.701c-0.004,0.124 -0.012,0.248 -0.024,0.371c-0.127,1.326 -0.761,2.78 -1.573,3.73c-0.627,0.734 -1.372,1.164 -2.07,1.164c-0.364,0 -0.788,-0.141 -1.16,-0.413c-0.53,-0.388 -0.949,-1.031 -0.949,-1.796c-0,-0.772 0.582,-1.515 1.615,-2.195c0.773,-0.509 1.812,-1.014 2.915,-1.579c-0.069,-0.747 -0.295,-1.467 -0.659,-1.991c-0.273,-0.394 -0.623,-0.675 -1.064,-0.675c-1.367,-0 -2.274,0.792 -2.926,1.794c-0.73,1.122 -1.15,2.505 -1.469,3.541c-0.222,0.721 -0.412,1.292 -0.593,1.573c-0.22,0.341 -0.497,0.45 -0.732,0.45c-0.125,-0 -0.26,-0.033 -0.392,-0.132c-0.082,-0.062 -0.224,-0.217 -0.318,-0.512c-0.147,-0.459 -0.329,-1.593 -0.476,-3.114c-0.586,0.938 -1.163,1.794 -1.705,2.525c-0.861,1.165 -1.645,2.023 -2.238,2.437c-0.371,0.259 -0.706,0.367 -0.968,0.367c-1.146,-0 -1.788,-0.804 -1.987,-2.152c-0.224,-1.522 0.134,-3.826 0.482,-5.828c0.176,-1.017 0.347,-1.953 0.42,-2.651c0.02,-0.189 0.023,-0.399 0.022,-0.558c-0.529,0.044 -1.105,0.17 -1.689,0.297c-0.389,2.129 -1.582,4.678 -3.139,6.52c-1.316,1.555 -2.898,2.588 -4.448,2.588c-1.877,0 -3.235,-0.732 -4.158,-1.858c-1.167,0.976 -2.459,1.584 -3.745,1.584c-1.357,-0 -2.486,-1.031 -3.267,-2.806c-0.257,-0.584 -0.48,-1.251 -0.669,-1.979c-0.606,1.225 -1.219,2.338 -1.811,3.27c-0.708,1.113 -1.394,1.976 -2.005,2.492c-0.522,0.441 -1.022,0.646 -1.45,0.646c-0.93,0 -1.588,-0.632 -1.954,-1.765c-0.415,-1.284 -0.47,-3.289 -0.449,-5.296c0.02,-1.899 0.103,-3.798 -0.056,-5.014c-0.035,-0.274 -0.082,-0.507 -0.151,-0.688c-0.011,-0.029 -0.029,-0.064 -0.045,-0.093c-0.039,0.025 -0.076,0.067 -0.12,0.109c-0.17,0.162 -0.335,0.399 -0.503,0.687c-0.592,1.011 -1.171,2.594 -1.743,4.175c-0.702,1.944 -1.398,3.884 -2.06,4.876c-0.427,0.639 -0.913,0.929 -1.326,0.929c-0.476,-0 -0.886,-0.292 -1.119,-0.933c-0.297,-0.819 -0.316,-2.424 -0.305,-4.031c0.008,-1.259 0.029,-2.519 -0.119,-3.326c-0.025,-0.134 -0.08,-0.292 -0.115,-0.385c-0.281,0.06 -0.517,0.304 -0.759,0.612c-0.602,0.764 -1.125,1.963 -1.679,3.158c-0.604,1.303 -1.244,2.6 -2.004,3.434c-0.612,0.672 -1.308,1.062 -2.096,1.062c-1.256,0 -1.932,-0.89 -2.088,-2.46c-0.18,-1.801 0.329,-4.615 0.819,-7.428c0.176,-1.01 0.351,-2.02 0.483,-2.978c-0.226,0.044 -0.461,0.067 -0.706,0.067c-2.558,0 -3.341,-2.393 -2.858,-4.35c0.335,-1.357 1.287,-2.417 2.508,-2.417c1.399,0 2.153,0.893 2.413,2.419c0.093,0.549 0.117,1.191 0.091,1.899c0.086,-0.117 0.167,-0.241 0.243,-0.371c0.621,-1.056 0.947,-2.466 0.99,-3.874c0.042,-1.405 -0.197,-2.812 -0.743,-3.866c-0.476,-0.918 -1.189,-1.562 -2.186,-1.562c-1.67,0 -3.06,0.996 -4.134,2.552c-1.738,2.516 -2.649,6.468 -2.505,10.476c0.185,5.165 1.295,10.426 0.689,13.118c-0.193,0.858 -0.557,1.489 -1.092,1.869c-0.379,0.27 -0.849,0.424 -1.434,0.424c-1.01,-0 -1.887,-0.622 -2.608,-1.642c-0.916,-1.295 -1.603,-3.251 -2.153,-4.955c-0.345,-1.071 -0.635,-2.036 -0.905,-2.636c-0.01,-0.024 -0.022,-0.048 -0.035,-0.073l-0.031,0.044c-0.322,0.483 -0.685,1.26 -1.083,2.122c-0.75,1.627 -1.618,3.531 -2.512,4.532c-0.511,0.571 -1.06,0.87 -1.584,0.87c-0.615,0 -1.146,-0.419 -1.459,-1.321c-0.484,-1.391 -0.532,-4.184 -0.498,-7.346c0.042,-3.908 0.186,-8.402 -0.39,-11.372c-0.176,-0.907 -0.413,-1.662 -0.762,-2.187c-0.259,-0.39 -0.578,-0.634 -1.005,-0.634c-0.739,-0 -1.253,0.635 -1.667,1.487c-0.765,1.57 -1.09,3.92 -1.053,5.847c0.061,3.193 1.142,5.223 1.142,5.223c0.16,0.298 0.049,0.671 -0.25,0.832c-0.299,0.161 -0.671,0.049 -0.832,-0.25c-0,0 -1.221,-2.244 -1.289,-5.782c-0.04,-2.112 0.338,-4.686 1.177,-6.408c0.654,-1.344 1.607,-2.178 2.772,-2.178c1.302,-0 2.225,1.027 2.739,2.823c0.64,2.237 0.715,5.731 0.687,9.227c-0.032,3.943 -0.197,7.886 0.271,9.897c0.067,0.287 0.144,0.528 0.245,0.713c0.055,0.101 0.084,0.201 0.172,0.201c0.128,-0 0.246,-0.077 0.372,-0.177c0.211,-0.167 0.416,-0.408 0.621,-0.696c0.71,-0.996 1.383,-2.505 1.987,-3.815c0.51,-1.105 0.981,-2.075 1.375,-2.561c0.315,-0.389 0.654,-0.537 0.921,-0.537c0.246,-0 0.543,0.121 0.795,0.477c0.253,0.358 0.532,1.086 0.832,2.003c0.536,1.642 1.19,3.943 2.141,5.518c0.52,0.862 1.095,1.525 1.867,1.525c0.593,0 0.954,-0.297 1.165,-0.808c0.187,-0.449 0.274,-1.029 0.307,-1.708c0.139,-2.843 -0.707,-7.267 -0.863,-11.621c-0.154,-4.296 0.859,-8.522 2.722,-11.22c1.326,-1.92 3.083,-3.082 5.145,-3.082c1.193,0 2.141,0.573 2.834,1.51c0.93,1.258 1.382,3.218 1.323,5.184c-0.059,1.961 -0.626,3.916 -1.651,5.171c-0.285,0.349 -0.605,0.648 -0.959,0.883c-0.138,1.18 -0.349,2.453 -0.571,3.725c-0.468,2.688 -0.979,5.375 -0.808,7.095c0.078,0.782 0.241,1.354 0.866,1.354c0.597,-0 1.06,-0.447 1.499,-1.044c0.55,-0.747 1.025,-1.745 1.487,-2.741c0.598,-1.29 1.178,-2.576 1.827,-3.401c0.555,-0.704 1.182,-1.096 1.862,-1.096c0.454,0 0.862,0.291 1.075,0.954c0.263,0.815 0.261,2.412 0.25,4.01c-0.008,1.253 -0.018,2.507 0.152,3.309c0.024,0.113 0.071,0.242 0.109,0.335c0.01,-0.009 0.019,-0.018 0.027,-0.026c0.153,-0.163 0.303,-0.402 0.459,-0.692c0.547,-1.016 1.106,-2.606 1.68,-4.194c0.706,-1.954 1.442,-3.903 2.178,-4.9c0.453,-0.614 0.956,-0.905 1.414,-0.905c0.476,-0 0.882,0.279 1.122,0.907c0.308,0.805 0.343,2.42 0.317,4.25c-0.031,2.177 -0.129,4.681 0.234,6.336c0.084,0.382 0.19,0.713 0.338,0.971c0.14,0.245 0.312,0.415 0.573,0.415c0.202,0 0.411,-0.148 0.657,-0.356c0.541,-0.456 1.135,-1.228 1.761,-2.212c0.797,-1.255 1.633,-2.846 2.437,-4.596c-0.28,-1.727 -0.412,-3.65 -0.402,-5.573c0.008,-1.439 0.097,-2.878 0.262,-4.234c-3.47,0.193 -5.198,0.494 -5.198,0.494c-0.267,0.047 -0.522,-0.132 -0.569,-0.399c-0.047,-0.268 0.132,-0.523 0.4,-0.569c-0,-0 1.828,-0.321 5.503,-0.518c0.34,-2.218 0.893,-4.145 1.63,-5.386c0.669,-1.125 1.513,-1.725 2.435,-1.725c0.792,-0 1.346,0.488 1.58,1.468c0.242,1.011 0.115,2.678 -0.307,4.688c-0.055,0.263 -0.115,0.532 -0.179,0.807c2.329,-0.014 5.042,0.033 8.139,0.184c0.271,0.013 0.48,0.243 0.467,0.514c-0.013,0.271 -0.244,0.481 -0.515,0.467c-3.192,-0.155 -5.97,-0.2 -8.336,-0.18c-0.829,3.167 -2.176,6.888 -3.64,10.13c0.222,1.256 0.532,2.386 0.935,3.301c0.54,1.228 1.203,2.072 2.142,2.072c1.064,0 2.112,-0.556 3.067,-1.389c-0.882,-1.696 -1.089,-3.883 -0.802,-5.844c0.227,-1.552 0.762,-2.942 1.468,-3.811c0.566,-0.697 1.249,-1.078 1.975,-1.078c0.784,0 1.367,0.25 1.785,0.655c0.583,0.567 0.854,1.486 0.793,2.611c-0.123,2.251 -1.564,5.409 -3.565,7.569l-0.085,0.091c0.719,0.893 1.779,1.471 3.267,1.471c1.05,-0 2.085,-0.662 3.02,-1.615c1.522,-1.554 2.752,-3.905 3.247,-5.948l0.014,-0.062c-0.306,0.046 -0.605,0.075 -0.891,0.075c-1.946,-0 -2.706,-1.713 -2.397,-3.093c0.216,-0.966 0.939,-1.754 2.094,-1.754c0.781,0 1.367,0.253 1.792,0.667c0.579,0.565 0.866,1.476 0.843,2.592c0.677,-0.147 1.34,-0.284 1.926,-0.284c0.318,0 0.575,0.145 0.736,0.482c0.089,0.187 0.146,0.502 0.131,0.923c-0.025,0.741 -0.241,1.934 -0.471,3.259c-0.324,1.869 -0.685,4.018 -0.476,5.44c0.091,0.618 0.245,1.101 0.771,1.101c0.031,-0 0.062,-0.024 0.102,-0.045c0.112,-0.059 0.235,-0.148 0.368,-0.26c0.492,-0.413 1.09,-1.11 1.749,-2c0.792,-1.072 1.664,-2.417 2.528,-3.897c-0.262,-4.331 -0.182,-10.218 1.062,-13.477c0.667,-1.748 1.7,-2.771 3.038,-2.771c0.64,0 1.131,0.19 1.5,0.511c0.36,0.312 0.61,0.76 0.738,1.334c0.207,0.928 0.085,2.241 -0.304,3.77c-0.81,3.19 -2.759,7.395 -4.785,10.922c0.009,0.136 0.018,0.27 0.028,0.402c0.075,1.026 0.167,1.936 0.262,2.659c0.344,-1.112 0.81,-2.548 1.575,-3.725c0.874,-1.342 2.123,-2.352 3.956,-2.352c0.84,-0 1.555,0.455 2.074,1.203c0.39,0.562 0.666,1.298 0.802,2.083c0.964,-0.528 1.921,-1.117 2.742,-1.807c-0.014,-0.233 -0.022,-0.47 -0.027,-0.71c-0.06,-3.527 0.89,-7.667 2.371,-9.837c0.749,-1.096 1.654,-1.709 2.602,-1.709c0.548,-0 0.965,0.175 1.274,0.464c0.414,0.387 0.644,1.022 0.633,1.854c-0.033,2.517 -2.326,7.192 -5.377,10.252c-0.067,0.067 -0.136,0.133 -0.205,0.199c0.099,1.029 0.308,1.956 0.65,2.686c0.392,0.837 0.957,1.399 1.79,1.399c0.443,-0 0.837,-0.258 1.206,-0.582c0.46,-0.405 0.871,-0.928 1.237,-1.39c0.404,-0.51 0.767,-0.952 1.072,-1.177c0.244,-0.179 0.482,-0.254 0.692,-0.254c0.211,-0 0.421,0.08 0.587,0.313c0.063,0.087 0.127,0.219 0.175,0.396c0.062,0.226 0.11,0.573 0.162,0.987c0.094,0.743 0.207,1.735 0.532,2.54c0.248,0.612 0.615,1.127 1.312,1.127c0.835,0 1.516,-0.577 2.057,-1.393c0.426,-0.641 0.761,-1.433 0.992,-2.281c-0.307,0.051 -0.616,0.079 -0.925,0.079c-3.118,0 -4.289,-2.793 -3.861,-5.049c0.299,-1.578 1.372,-2.846 2.999,-2.846c2.144,-0 3.282,2.052 3.384,4.634c0.019,0.474 0.004,0.963 -0.043,1.455c0.539,-0.221 1.025,-0.465 1.42,-0.653c0.552,-0.263 0.983,-0.415 1.21,-0.415c0.263,-0 0.512,0.114 0.688,0.425c0.12,0.212 0.21,0.642 0.278,1.186c0.085,0.682 0.169,1.594 0.477,2.334c0.234,0.563 0.614,1.021 1.335,1.021c0.903,0 1.648,-0.566 2.237,-1.379c0.426,-0.588 0.77,-1.305 1.022,-2.074c-0.311,0.052 -0.617,0.081 -0.916,0.081c-3.1,0 -4.346,-2.798 -3.86,-5.051c0.335,-1.55 1.469,-2.824 3.319,-2.824c2.067,0 3.155,2.019 3.187,4.566c0.006,0.475 -0.023,0.967 -0.086,1.461c1.144,-0.486 2.274,-1.18 3.243,-1.778c0.867,-0.534 1.615,-1.004 2.149,-1.239c0.321,-0.141 0.591,-0.204 0.792,-0.204c0.402,-0 0.747,0.227 0.865,0.806c0.104,0.508 -0.016,1.531 -0.194,2.687c-0.203,1.317 -0.468,2.831 -0.381,3.832c0.014,0.159 0.037,0.301 0.075,0.423c0.016,0.051 0.019,0.105 0.04,0.137c0.043,-0.041 0.104,-0.103 0.148,-0.158c0.124,-0.16 0.253,-0.366 0.389,-0.607c0.567,-1.008 1.217,-2.584 1.908,-4.158c0.848,-1.93 1.765,-3.853 2.651,-4.837c0.511,-0.567 1.047,-0.849 1.54,-0.849c0.362,-0 0.639,0.161 0.829,0.486c0.143,0.244 0.231,0.649 0.225,1.179c-0.012,0.989 -0.305,2.534 -0.586,4.079c-0.265,1.451 -0.522,2.902 -0.469,3.831c0.008,0.138 0.045,0.3 0.072,0.404c0.029,-0.02 0.059,-0.043 0.082,-0.065c0.109,-0.101 0.22,-0.232 0.335,-0.385c0.508,-0.679 1.058,-1.742 1.633,-2.803c0.614,-1.134 1.258,-2.266 1.896,-2.992c0.552,-0.628 1.138,-0.965 1.682,-0.965c0.421,0 0.787,0.244 0.966,0.829c0.192,0.629 0.152,1.891 0.053,3.321c-0.115,1.666 -0.291,3.581 -0.085,4.848c0.044,0.275 0.106,0.515 0.201,0.702c0.062,0.122 0.131,0.222 0.259,0.222c0.178,-0 0.339,-0.115 0.508,-0.273c0.264,-0.247 0.516,-0.606 0.765,-1.042c0.839,-1.463 1.602,-3.735 2.308,-5.939c1.149,-3.587 3.368,-6.946 8.65,-7.139l0.07,-0.328c0.031,-0.147 0.175,-0.24 0.322,-0.209l0.327,0.07c0.147,0.031 0.24,0.175 0.209,0.322l-0.058,0.271c0.003,0.003 0.006,0.005 0.009,0.008l0.256,0.05l0.061,-0.286c0.043,-0.201 0.242,-0.33 0.444,-0.287l0.459,0.098c0.202,0.043 0.331,0.241 0.287,0.443l-0.057,0.267l0.244,0.049l0.054,-0.271c0.046,-0.235 0.27,-0.389 0.506,-0.349l4.15,0.714c0.243,0.042 0.404,0.276 0.357,0.518l-0.013,0.066l0.029,0.006c0.123,0.024 0.212,0.121 0.232,0.237l3.661,0.721c0.167,0.033 0.3,0.143 0.368,0.287l1.243,0.147l0.347,0.462l-0.08,0.409l-0.497,0.296l-1.203,-0.338c-0.118,0.109 -0.284,0.162 -0.453,0.129l-3.66,-0.721c-0.063,0.099 -0.182,0.155 -0.305,0.131l-0.029,-0.006l-0.013,0.066c-0.047,0.242 -0.286,0.398 -0.527,0.344l-4.11,-0.913c-0.233,-0.052 -0.383,-0.28 -0.337,-0.515l0.054,-0.271l-0.262,-0.051l-0.061,0.286c-0.043,0.201 -0.242,0.33 -0.444,0.287l-0.459,-0.098c-0.202,-0.043 -0.33,-0.241 -0.287,-0.443l0.057,-0.268l-0.267,-0.052l-0.062,0.29c-0.031,0.147 -0.175,0.241 -0.321,0.209l-0.328,-0.07c-0.147,-0.031 -0.24,-0.175 -0.209,-0.322l0.03,-0.141Zm-61.84,10.381c-0.463,0.239 -0.907,0.469 -1.315,0.694c-0.606,0.335 -1.128,0.657 -1.494,0.993c-0.247,0.226 -0.43,0.437 -0.43,0.69c-0,0.346 0.205,0.628 0.445,0.804c0.142,0.103 0.297,0.176 0.435,0.176c0.398,0 0.779,-0.315 1.136,-0.733c0.577,-0.676 1.043,-1.664 1.223,-2.624Zm-27.743,-0.716c1.309,-1.471 2.341,-3.401 2.815,-5.11c0.232,-0.838 0.332,-1.62 0.242,-2.257c-0.053,-0.38 -0.17,-0.703 -0.397,-0.923c-0.215,-0.209 -0.525,-0.308 -0.929,-0.308c-0.386,-0 -0.72,0.253 -1.021,0.623c-0.593,0.731 -1.015,1.911 -1.206,3.215c-0.23,1.57 -0.127,3.348 0.496,4.76Zm45.704,-1.514c0.089,-0.618 0.124,-1.239 0.1,-1.832c-0.039,-0.987 -0.235,-1.894 -0.64,-2.552c-0.338,-0.549 -0.832,-0.903 -1.516,-0.903c-1.012,0 -1.606,0.865 -1.792,1.847c-0.3,1.585 0.463,3.592 2.654,3.592c0.401,-0 0.803,-0.058 1.194,-0.152Zm10.286,-1.297c0.118,-0.638 0.175,-1.283 0.167,-1.897c-0.012,-0.961 -0.18,-1.846 -0.555,-2.487c-0.307,-0.525 -0.763,-0.865 -1.403,-0.865c-1.195,-0 -1.902,0.853 -2.118,1.855c-0.34,1.575 0.491,3.562 2.659,3.562c0.406,0 0.825,-0.061 1.25,-0.168Zm-35.844,-1.071c1.61,-3.014 3.05,-6.304 3.709,-8.902c0.33,-1.3 0.471,-2.412 0.296,-3.201c-0.064,-0.285 -0.166,-0.519 -0.345,-0.674c-0.169,-0.146 -0.401,-0.209 -0.694,-0.209c-0.891,0 -1.446,0.817 -1.89,1.98c-1.017,2.665 -1.201,7.157 -1.076,11.006Zm12.754,-0.397c2.143,-2.381 3.816,-5.519 4.294,-7.742c0.125,-0.579 0.169,-1.088 0.099,-1.491c-0.036,-0.2 -0.094,-0.369 -0.212,-0.48c-0.104,-0.097 -0.251,-0.132 -0.435,-0.132c-0.369,-0 -0.707,0.195 -1.028,0.5c-0.404,0.384 -0.767,0.938 -1.093,1.602c-0.993,2.026 -1.604,5.039 -1.625,7.743Zm-37.59,-8.912c-0.915,0.017 -1.76,0.044 -2.534,0.077c-0.173,1.37 -0.265,2.836 -0.273,4.301c-0.006,1.136 0.037,2.272 0.134,3.363c1.066,-2.57 2.019,-5.309 2.673,-7.741Zm15.098,6.875c0.025,-0.359 0.016,-0.695 -0.033,-1c-0.063,-0.397 -0.191,-0.734 -0.427,-0.964c-0.22,-0.214 -0.532,-0.318 -0.935,-0.318c-0.506,-0 -0.8,0.37 -0.895,0.793c-0.158,0.704 0.206,1.596 1.198,1.596c0.348,0 0.716,-0.043 1.092,-0.107Zm-40.819,-5.214c0.1,-1.05 0.117,-1.996 -0.012,-2.753c-0.14,-0.823 -0.447,-1.396 -1.201,-1.396c-0.695,0 -1.124,0.711 -1.315,1.482c-0.304,1.234 0.053,2.827 1.665,2.827c0.311,0 0.598,-0.056 0.863,-0.16Zm25.975,-2.649c0.089,-0.367 0.171,-0.725 0.244,-1.073c0.373,-1.781 0.528,-3.255 0.314,-4.15c-0.071,-0.296 -0.146,-0.525 -0.385,-0.525c-0.331,-0 -0.622,0.18 -0.893,0.465c-0.358,0.376 -0.668,0.924 -0.943,1.593c-0.422,1.027 -0.751,2.324 -0.983,3.765c0.809,-0.033 1.691,-0.059 2.646,-0.075Z" style="fill:rgb(131,133,136);"/>
                <path d="M754.404,122.075c0.834,-0 1.549,-0.136 2.146,-0.406c0.598,-0.27 1.099,-0.625 1.505,-1.065c0.405,-0.439 0.726,-0.946 0.963,-1.521c0.236,-0.574 0.422,-1.154 0.558,-1.74l0.135,-0.609l4.461,0l-0.135,0.609c-0.315,1.464 -0.743,2.743 -1.284,3.836c-0.541,1.093 -1.228,2.005 -2.062,2.738c-0.834,0.732 -1.825,1.284 -2.974,1.656c-1.15,0.372 -2.502,0.558 -4.056,0.558c-1.06,-0 -2.028,-0.158 -2.907,-0.474c-0.879,-0.315 -1.634,-0.777 -2.265,-1.385c-0.631,-0.609 -1.121,-1.347 -1.47,-2.214c-0.349,-0.868 -0.524,-1.865 -0.524,-2.992c-0,-0.405 0.022,-0.811 0.068,-1.216c0.045,-0.406 0.123,-0.868 0.236,-1.386l1.116,-5.273c0.698,-3.267 1.937,-5.695 3.718,-7.284c1.78,-1.588 4.101,-2.383 6.962,-2.383c1.127,0 2.135,0.181 3.025,0.541c0.891,0.361 1.645,0.851 2.265,1.47c0.62,0.62 1.093,1.347 1.42,2.18c0.326,0.834 0.49,1.724 0.49,2.671c-0,0.315 -0.023,0.631 -0.068,0.946c-0.045,0.316 -0.101,0.642 -0.169,0.98l-0.135,0.609l-4.462,-0l0.136,-0.609c0.135,-0.541 0.202,-1.059 0.202,-1.555c0,-0.878 -0.253,-1.628 -0.76,-2.247c-0.507,-0.62 -1.392,-0.93 -2.653,-0.93c-0.744,0 -1.42,0.141 -2.028,0.423c-0.609,0.281 -1.138,0.664 -1.589,1.149c-0.451,0.484 -0.828,1.048 -1.132,1.69c-0.305,0.642 -0.536,1.313 -0.693,2.011l-1.251,5.949c-0.067,0.338 -0.124,0.67 -0.169,0.997c-0.045,0.327 -0.067,0.637 -0.067,0.929c-0,1.014 0.264,1.826 0.794,2.434c0.529,0.608 1.414,0.913 2.653,0.913Z" style="fill:rgb(131,133,136);fill-rule:nonzero;"/>
                <path d="M782.661,121.635l0.338,0.237l1.622,-1.149l2.13,3.177l-1.994,1.352c-0.879,0.586 -1.803,0.879 -2.772,0.879c-0.856,-0 -1.622,-0.237 -2.298,-0.71c-0.676,-0.473 -1.105,-1.138 -1.285,-1.994l-0.608,-0c-0.203,0.383 -0.44,0.738 -0.71,1.064c-0.27,0.327 -0.603,0.609 -0.997,0.845c-0.394,0.237 -0.856,0.429 -1.386,0.575c-0.529,0.146 -1.155,0.22 -1.876,0.22c-0.879,-0 -1.69,-0.175 -2.433,-0.524c-0.744,-0.349 -1.392,-0.834 -1.944,-1.454c-0.552,-0.619 -0.986,-1.346 -1.301,-2.18c-0.316,-0.833 -0.473,-1.746 -0.473,-2.738c-0,-1.509 0.202,-2.918 0.608,-4.225c0.406,-1.306 0.991,-2.45 1.758,-3.43c0.766,-0.98 1.706,-1.752 2.822,-2.316c1.115,-0.563 2.372,-0.845 3.769,-0.845c1.239,0 2.219,0.248 2.94,0.744c0.721,0.496 1.206,1.149 1.454,1.96l0.608,0l0.473,-2.23l4.259,-0l-2.704,12.742Zm-8.18,0.44c0.812,-0 1.533,-0.164 2.164,-0.49c0.631,-0.327 1.154,-0.761 1.571,-1.302c0.417,-0.541 0.738,-1.177 0.964,-1.909c0.225,-0.733 0.338,-1.505 0.338,-2.316c-0,-1.059 -0.305,-1.921 -0.913,-2.585c-0.608,-0.665 -1.42,-0.998 -2.434,-0.998c-0.811,0 -1.532,0.164 -2.163,0.491c-0.631,0.326 -1.16,0.76 -1.588,1.301c-0.429,0.541 -0.755,1.177 -0.981,1.91c-0.225,0.732 -0.338,1.504 -0.338,2.315c0,0.946 0.276,1.78 0.829,2.501c0.552,0.721 1.402,1.082 2.551,1.082Z" style="fill:rgb(131,133,136);fill-rule:nonzero;"/>
                <path d="M798.04,112.273c-0.248,-0 -0.501,0.028 -0.76,0.084c-0.26,0.056 -0.502,0.141 -0.727,0.254c-0.225,0.112 -0.411,0.264 -0.558,0.456c-0.146,0.191 -0.22,0.422 -0.22,0.693c0,0.473 0.271,0.822 0.812,1.048c0.54,0.225 1.464,0.417 2.771,0.574c1.465,0.181 2.648,0.626 3.549,1.335c0.902,0.71 1.352,1.73 1.352,3.059c0,1.983 -0.693,3.538 -2.078,4.665c-1.386,1.126 -3.307,1.69 -5.763,1.69c-1.24,-0 -2.304,-0.181 -3.194,-0.541c-0.891,-0.361 -1.623,-0.811 -2.197,-1.352c-0.575,-0.541 -1.009,-1.138 -1.302,-1.792c-0.293,-0.653 -0.45,-1.273 -0.473,-1.859l4.191,-1.014c0.068,0.744 0.383,1.381 0.947,1.91c0.563,0.53 1.419,0.794 2.568,0.794c0.789,0 1.476,-0.123 2.062,-0.371c0.586,-0.248 0.879,-0.688 0.879,-1.319c0,-0.473 -0.225,-0.85 -0.676,-1.132c-0.451,-0.281 -1.284,-0.479 -2.501,-0.591c-1.623,-0.136 -2.913,-0.597 -3.87,-1.386c-0.958,-0.789 -1.437,-1.837 -1.437,-3.144c0,-0.946 0.197,-1.791 0.592,-2.535c0.394,-0.743 0.918,-1.363 1.571,-1.859c0.654,-0.495 1.414,-0.873 2.282,-1.132c0.867,-0.259 1.774,-0.389 2.721,-0.389c1.172,0 2.152,0.158 2.94,0.474c0.789,0.315 1.431,0.709 1.927,1.183c0.496,0.473 0.862,0.985 1.099,1.538c0.236,0.552 0.388,1.064 0.456,1.537l-4.124,1.082c-0.09,-0.608 -0.372,-1.087 -0.845,-1.436c-0.473,-0.35 -1.138,-0.524 -1.994,-0.524Z" style="fill:rgb(131,133,136);fill-rule:nonzero;"/>
                <path d="M815.21,112.949l-4.732,-0l0,-4.056l5.611,-0l1.555,-7.369l4.259,0l-1.555,7.369l5.814,-0l-0,4.056l-6.693,-0l-1.892,8.686l0.338,0.237l4.529,-3.11l2.129,3.177l-4.901,3.313c-0.856,0.586 -1.769,0.879 -2.738,0.879c-0.495,-0 -0.969,-0.085 -1.419,-0.254c-0.451,-0.169 -0.845,-0.411 -1.183,-0.727c-0.338,-0.315 -0.609,-0.698 -0.812,-1.149c-0.202,-0.45 -0.304,-0.957 -0.304,-1.521c0,-0.18 0.012,-0.343 0.034,-0.49c0.023,-0.146 0.056,-0.343 0.101,-0.591l1.859,-8.45Z" style="fill:rgb(131,133,136);fill-rule:nonzero;"/>
                <path d="M847.388,115.179c0,1.578 -0.225,3.037 -0.676,4.378c-0.451,1.34 -1.115,2.495 -1.994,3.464c-0.879,0.969 -1.977,1.73 -3.296,2.282c-1.318,0.552 -2.844,0.828 -4.579,0.828c-0.992,-0 -1.921,-0.147 -2.789,-0.44c-0.867,-0.293 -1.628,-0.726 -2.281,-1.301c-0.654,-0.575 -1.172,-1.279 -1.555,-2.113c-0.383,-0.833 -0.575,-1.78 -0.575,-2.839c0,-1.735 0.271,-3.284 0.811,-4.647c0.541,-1.364 1.279,-2.518 2.214,-3.465c0.935,-0.946 2.04,-1.667 3.313,-2.163c1.273,-0.496 2.642,-0.744 4.106,-0.744c1.059,0 2.04,0.164 2.941,0.491c0.901,0.326 1.673,0.783 2.315,1.368c0.642,0.586 1.144,1.296 1.504,2.13c0.361,0.834 0.541,1.757 0.541,2.771Zm-9.903,6.963c0.811,-0.022 1.56,-0.203 2.247,-0.541c0.688,-0.338 1.274,-0.783 1.758,-1.335c0.485,-0.552 0.862,-1.2 1.132,-1.943c0.271,-0.744 0.406,-1.532 0.406,-2.366c-0,-1.172 -0.316,-2.056 -0.946,-2.653c-0.631,-0.598 -1.476,-0.896 -2.535,-0.896c-0.812,-0 -1.555,0.174 -2.231,0.524c-0.676,0.349 -1.262,0.811 -1.758,1.386c-0.496,0.574 -0.879,1.233 -1.149,1.977c-0.27,0.743 -0.406,1.521 -0.406,2.332c0,1.149 0.316,2.022 0.947,2.62c0.631,0.597 1.476,0.895 2.535,0.895Z" style="fill:rgb(131,133,136);fill-rule:nonzero;"/>
                <path d="M855.23,112.881l-0.338,-0.203l-2.67,1.961l-2.265,-3.042l2.704,-2.028c0.518,-0.383 1.065,-0.671 1.639,-0.862c0.575,-0.192 1.121,-0.288 1.64,-0.288c0.901,0 1.69,0.248 2.366,0.744c0.676,0.496 1.081,1.194 1.216,2.096l0.609,-0c0.45,-0.947 1.081,-1.657 1.893,-2.13c0.811,-0.473 1.723,-0.71 2.737,-0.71c1.285,0 2.327,0.4 3.127,1.2c0.8,0.8 1.2,1.91 1.2,3.33c-0,0.293 -0.017,0.58 -0.051,0.862c-0.034,0.281 -0.096,0.625 -0.186,1.03l-0.169,0.744l-4.529,0.338l0.101,-0.473c0.068,-0.338 0.102,-0.642 0.102,-0.913c-0,-0.653 -0.18,-1.171 -0.541,-1.555c-0.361,-0.383 -0.901,-0.574 -1.622,-0.574c-0.902,-0 -1.617,0.304 -2.147,0.912c-0.529,0.609 -0.918,1.476 -1.166,2.603l-1.217,5.678l4.056,0l0,4.056l-11.559,0l-0,-4.056l3.245,0l1.825,-8.72Z" style="fill:rgb(131,133,136);fill-rule:nonzero;"/>
                <path d="M902.584,115.72l-3.549,0c-0.519,0 -1.014,0.085 -1.488,0.254c-0.473,0.169 -0.89,0.405 -1.25,0.71c-0.361,0.304 -0.648,0.676 -0.862,1.115c-0.214,0.439 -0.321,0.941 -0.321,1.504c-0,0.789 0.253,1.369 0.76,1.741c0.507,0.372 1.155,0.557 1.944,0.557l3.515,0l1.251,-5.881Zm5.712,-6.827l-0.609,2.771l2.705,0l-0,4.259l-3.617,0l-2.062,9.734l-8.18,0c-1.802,0 -3.233,-0.456 -4.292,-1.368c-1.059,-0.913 -1.589,-2.147 -1.589,-3.702c0,-1.667 0.479,-3.081 1.437,-4.241c0.957,-1.161 2.281,-1.91 3.971,-2.248l0,-0.609c-0.811,-0.338 -1.526,-0.839 -2.146,-1.504c-0.62,-0.664 -0.93,-1.605 -0.93,-2.822c0,-1.036 0.186,-1.989 0.558,-2.856c0.372,-0.868 0.907,-1.622 1.606,-2.265c0.698,-0.642 1.554,-1.143 2.568,-1.504c1.014,-0.36 2.175,-0.541 3.482,-0.541l3.515,0l0,4.056l-3.65,0c-0.519,0 -1.009,0.068 -1.471,0.203c-0.462,0.135 -0.873,0.344 -1.233,0.626c-0.361,0.281 -0.643,0.642 -0.845,1.081c-0.203,0.44 -0.305,0.952 -0.305,1.538c0,0.744 0.265,1.29 0.795,1.639c0.529,0.35 1.188,0.524 1.977,0.524l3.448,0l0.608,-2.771l4.259,-0Z" style="fill:rgb(131,133,136);fill-rule:nonzero;"/>
                <path d="M938.277,116.734l-1.893,8.923l-4.428,0l5.002,-23.66l8.45,0c0.992,0 1.888,0.158 2.687,0.474c0.8,0.315 1.482,0.755 2.045,1.318c0.564,0.563 0.997,1.228 1.302,1.994c0.304,0.766 0.456,1.6 0.456,2.501c-0,1.262 -0.214,2.411 -0.642,3.448c-0.428,1.036 -1.037,1.926 -1.825,2.67c-0.789,0.744 -1.735,1.318 -2.84,1.724c-1.104,0.405 -2.332,0.608 -3.684,0.608l-4.63,0Zm0.912,-4.259l4.124,0c1.149,0 2.107,-0.338 2.873,-1.014c0.766,-0.676 1.149,-1.554 1.149,-2.636c-0,-0.834 -0.265,-1.47 -0.794,-1.91c-0.53,-0.439 -1.223,-0.659 -2.079,-0.659l-3.955,0l-1.318,6.219Z" style="fill:rgb(131,133,136);fill-rule:nonzero;"/>
                <path d="M971.502,115.179c0,1.578 -0.225,3.037 -0.676,4.378c-0.451,1.34 -1.115,2.495 -1.994,3.464c-0.879,0.969 -1.977,1.73 -3.296,2.282c-1.318,0.552 -2.845,0.828 -4.58,0.828c-0.991,-0 -1.921,-0.147 -2.788,-0.44c-0.868,-0.293 -1.628,-0.726 -2.282,-1.301c-0.653,-0.575 -1.171,-1.279 -1.554,-2.113c-0.383,-0.833 -0.575,-1.78 -0.575,-2.839c-0,-1.735 0.27,-3.284 0.811,-4.647c0.541,-1.364 1.279,-2.518 2.214,-3.465c0.935,-0.946 2.039,-1.667 3.313,-2.163c1.273,-0.496 2.642,-0.744 4.106,-0.744c1.059,0 2.039,0.164 2.941,0.491c0.901,0.326 1.673,0.783 2.315,1.368c0.642,0.586 1.144,1.296 1.504,2.13c0.361,0.834 0.541,1.757 0.541,2.771Zm-9.903,6.963c0.811,-0.022 1.56,-0.203 2.247,-0.541c0.688,-0.338 1.273,-0.783 1.758,-1.335c0.484,-0.552 0.862,-1.2 1.132,-1.943c0.271,-0.744 0.406,-1.532 0.406,-2.366c-0,-1.172 -0.316,-2.056 -0.947,-2.653c-0.631,-0.598 -1.476,-0.896 -2.535,-0.896c-0.811,-0 -1.554,0.174 -2.23,0.524c-0.676,0.349 -1.262,0.811 -1.758,1.386c-0.496,0.574 -0.879,1.233 -1.149,1.977c-0.271,0.743 -0.406,1.521 -0.406,2.332c0,1.149 0.316,2.022 0.947,2.62c0.631,0.597 1.476,0.895 2.535,0.895Z" style="fill:rgb(131,133,136);fill-rule:nonzero;"/>
                <path d="M985.935,125.252c-0.451,0.315 -0.913,0.541 -1.386,0.676c-0.473,0.135 -0.935,0.203 -1.386,0.203c-0.496,-0 -0.969,-0.085 -1.42,-0.254c-0.45,-0.169 -0.845,-0.405 -1.183,-0.71c-0.338,-0.304 -0.602,-0.676 -0.794,-1.115c-0.191,-0.439 -0.287,-0.93 -0.287,-1.47c-0,-0.406 0.045,-0.8 0.135,-1.183l3.684,-15.379l-0.338,-0.237l-4.529,3.11l-2.129,-3.178l4.901,-3.312c0.45,-0.315 0.912,-0.541 1.385,-0.676c0.474,-0.135 0.936,-0.203 1.386,-0.203c0.496,0 0.969,0.085 1.42,0.254c0.451,0.169 0.845,0.405 1.183,0.71c0.338,0.304 0.603,0.676 0.794,1.115c0.192,0.439 0.287,0.929 0.287,1.47c0,0.361 -0.045,0.755 -0.135,1.183l-3.684,15.379l0.338,0.237l4.529,-3.11l2.13,3.177l-4.901,3.313Z" style="fill:rgb(131,133,136);fill-rule:nonzero;"/>
                <path d="M1006.62,125.252c-0.45,0.315 -0.912,0.541 -1.385,0.676c-0.474,0.135 -0.936,0.203 -1.386,0.203c-0.496,-0 -0.969,-0.085 -1.42,-0.254c-0.451,-0.169 -0.845,-0.405 -1.183,-0.71c-0.338,-0.304 -0.603,-0.676 -0.794,-1.115c-0.192,-0.439 -0.288,-0.93 -0.288,-1.47c0,-0.406 0.046,-0.8 0.136,-1.183l3.684,-15.379l-0.338,-0.237l-4.529,3.11l-2.13,-3.178l4.901,-3.312c0.451,-0.315 0.913,-0.541 1.386,-0.676c0.473,-0.135 0.935,-0.203 1.386,-0.203c0.496,0 0.969,0.085 1.42,0.254c0.45,0.169 0.845,0.405 1.183,0.71c0.338,0.304 0.602,0.676 0.794,1.115c0.191,0.439 0.287,0.929 0.287,1.47c0,0.361 -0.045,0.755 -0.135,1.183l-3.684,15.379l0.338,0.237l4.529,-3.11l2.129,3.177l-4.901,3.313Z" style="fill:rgb(131,133,136);fill-rule:nonzero;"/>
                <path d="M1022.24,108.893l-2.096,9.734c-0.09,0.383 -0.135,0.755 -0.135,1.115c0,0.857 0.237,1.493 0.71,1.91c0.473,0.417 1.104,0.625 1.893,0.625c1.194,0 2.112,-0.388 2.754,-1.166c0.643,-0.777 1.121,-1.876 1.437,-3.295l1.893,-8.923l4.259,-0l-2.772,12.776l0.372,0.203l1.217,-0.879l2.129,3.11l-1.589,1.149c-0.428,0.315 -0.873,0.541 -1.335,0.676c-0.462,0.135 -0.918,0.203 -1.369,0.203c-0.924,-0 -1.735,-0.265 -2.433,-0.795c-0.699,-0.529 -1.093,-1.301 -1.183,-2.315l-0.609,0c-0.495,1.149 -1.166,1.955 -2.011,2.417c-0.845,0.462 -1.797,0.693 -2.856,0.693c-1.465,-0 -2.659,-0.445 -3.583,-1.335c-0.924,-0.89 -1.385,-2.135 -1.385,-3.735c-0,-0.564 0.067,-1.172 0.202,-1.826l2.231,-10.342l4.259,-0Z" style="fill:rgb(131,133,136);fill-rule:nonzero;"/>
                <path d="M1047.72,117.714l1.758,4.158l0.405,-0l1.319,-2.434l3.38,1.758l-1.082,2.163c-0.901,1.848 -2.31,2.772 -4.225,2.772c-0.946,-0 -1.718,-0.214 -2.315,-0.643c-0.597,-0.428 -1.088,-1.115 -1.471,-2.061l-1.115,-2.603l-5.577,5.239l-2.873,-3.008l6.76,-6.321l-1.69,-4.022l-0.406,0l-1.622,2.603l-3.245,-2.096l1.623,-2.501c0.969,-1.532 2.275,-2.299 3.92,-2.299c1.668,0 2.885,0.879 3.651,2.637l1.081,2.569l5.341,-5.003l2.873,3.008l-6.49,6.084Z" style="fill:rgb(131,133,136);fill-rule:nonzero;"/>
                <path d="M1106.24,922.175l19.82,0.059c1.163,0.004 2.11,-0.934 2.119,-2.097l0.11,-15.012c-0,0 2.478,0 2.478,0c0,4.564 0,14.938 0,14.938c0,1.165 0.947,2.112 2.113,2.112c1.166,0 2.112,-0.947 2.112,-2.112l0,-17.05c0,-1.167 -0.945,-2.113 -2.112,-2.113l-6.688,0c-1.161,0 -2.104,0.937 -2.113,2.097l-0.11,15.006c-5.101,-0.015 -17.716,-0.053 -17.716,-0.053c-1.166,-0.003 -2.116,0.94 -2.119,2.106c-0.004,1.166 0.94,2.116 2.106,2.119Z" style="fill:rgb(131,133,136);"/>
                <path d="M1112.74,912.649l-2.536,-2.536c-0,-0 2.536,-2.536 2.536,-2.536c0.824,-0.825 0.824,-2.163 0,-2.988c-0.824,-0.824 -2.163,-0.824 -2.987,0l-5.524,5.524l5.524,5.523c0.824,0.825 2.163,0.825 2.987,0c0.824,-0.824 0.824,-2.163 0,-2.987Z" style="fill:rgb(131,133,136);"/>
                <path d="M1116.47,908l-0.042,0c-1.166,0 -2.112,0.947 -2.112,2.113c-0,1.166 0.946,2.112 2.112,2.112l0.042,0c1.166,0 2.113,-0.946 2.113,-2.112c-0,-1.166 -0.947,-2.113 -2.113,-2.113Zm-5.112,0l-0.042,0c-1.166,0 -2.113,0.947 -2.113,2.113c0,1.166 0.947,2.112 2.113,2.112l0.042,0c1.166,0 2.113,-0.946 2.113,-2.112c-0,-1.166 -0.947,-2.113 -2.113,-2.113Zm10.225,0l-0.043,0c-1.165,0 -2.112,0.947 -2.112,2.113c-0,1.166 0.947,2.112 2.112,2.112l0.043,0c1.166,0 2.112,-0.946 2.112,-2.112c0,-1.166 -0.946,-2.113 -2.112,-2.113Z" style="fill:rgb(131,133,136);"/>
                <path d="M692.146,917.95c-0,0 -12.615,0.038 -17.717,0.053c-0,-0 -0.11,-15.006 -0.11,-15.006c-0.008,-1.16 -0.952,-2.097 -2.112,-2.097l-6.689,0c-1.166,0 -2.112,0.946 -2.112,2.113l-0,17.05c-0,1.165 0.946,2.112 2.112,2.112c1.166,0 2.113,-0.947 2.113,-2.112l-0,-14.938c-0,0 2.479,0 2.479,0c-0,0 0.109,15.012 0.109,15.012c0.009,1.163 0.956,2.101 2.119,2.097l19.82,-0.059c1.166,-0.003 2.11,-0.953 2.106,-2.119c-0.003,-1.166 -0.952,-2.109 -2.118,-2.106Z" style="fill:rgb(131,133,136);"/>
                <path d="M685.665,907.577l2.536,2.536c0,-0 -2.536,2.536 -2.536,2.536c-0.824,0.824 -0.824,2.163 0,2.987c0.825,0.825 2.163,0.825 2.988,0l5.523,-5.523l-5.523,-5.524c-0.825,-0.824 -2.163,-0.824 -2.988,0c-0.824,0.825 -0.824,2.163 0,2.988Z" style="fill:rgb(131,133,136);"/>
                <path d="M681.934,912.225l0.042,0c1.166,0 2.113,-0.946 2.113,-2.112c-0,-1.166 -0.947,-2.113 -2.113,-2.113l-0.042,0c-1.166,0 -2.113,0.947 -2.113,2.113c0,1.166 0.947,2.112 2.113,2.112Zm5.112,0l0.042,0c1.166,0 2.113,-0.946 2.113,-2.112c-0,-1.166 -0.947,-2.113 -2.113,-2.113l-0.042,0c-1.166,0 -2.112,0.947 -2.112,2.113c-0,1.166 0.946,2.112 2.112,2.112Zm-10.224,0l0.042,0c1.166,0 2.112,-0.946 2.112,-2.112c0,-1.166 -0.946,-2.113 -2.112,-2.113l-0.042,0c-1.166,0 -2.113,0.947 -2.113,2.113c0,1.166 0.947,2.112 2.113,2.112Z" style="fill:rgb(131,133,136);"/>
                <path d="M661.057,778.506l0,16.772c0,0.741 0.388,1.427 1.023,1.81c0.634,0.382 1.422,0.404 2.077,0.058l28.206,-14.914c-0,0 -0.095,13.309 -0.095,13.309c-0.008,1.166 0.932,2.119 2.098,2.127c1.166,0.008 2.119,-0.931 2.127,-2.097l0.12,-16.844c0.005,-0.743 -0.381,-1.434 -1.016,-1.82c-0.635,-0.386 -1.427,-0.41 -2.084,-0.062l-28.231,14.926c0,0 0,-13.265 0,-13.265c0,-1.166 -0.946,-2.112 -2.112,-2.112c-1.166,-0 -2.113,0.946 -2.113,2.112Z" style="fill:rgb(131,133,136);"/>
                <path d="M800.105,778.462c-0,-0 0.072,10.36 0.103,14.929c0,-0.001 -15.596,0.046 -15.596,0.046c0,0 -0.109,-15.006 -0.109,-15.006c-0.009,-1.16 -0.952,-2.097 -2.113,-2.097l-6.688,0c-1.167,0 -2.113,0.946 -2.113,2.113l0,17.05c0,1.166 0.947,2.112 2.113,2.112c1.166,0 2.112,-0.946 2.112,-2.112l0,-14.938c0,0 2.479,0 2.479,0c0,0 0.11,15.012 0.11,15.012c0.009,1.163 0.956,2.101 2.119,2.097l19.82,-0.059c0.561,-0.002 1.099,-0.227 1.495,-0.626c0.395,-0.399 0.615,-0.939 0.611,-1.501l-0.118,-17.05c-0.008,-1.166 -0.961,-2.106 -2.127,-2.098c-1.166,0.009 -2.106,0.962 -2.098,2.128Z" style="fill:rgb(131,133,136);"/>
                <path d="M800.105,903.086c-0,0 0.072,10.351 0.103,14.923c0,0 -9.077,0 -9.077,0c0,-4.564 0,-14.937 0,-14.937c0,-1.167 -0.946,-2.113 -2.112,-2.113l-13.317,0c-1.167,0 -2.113,0.946 -2.113,2.113l0,17.05c0,1.166 0.947,2.112 2.113,2.112c1.166,0 2.112,-0.946 2.112,-2.112l0,-14.938c0,0 9.092,0 9.092,0c0,0 0,14.938 0,14.938c0,1.166 0.946,2.112 2.113,2.112l13.316,0c0.563,0 1.103,-0.224 1.499,-0.624c0.397,-0.399 0.618,-0.94 0.614,-1.503l-0.118,-17.05c-0.008,-1.166 -0.961,-2.106 -2.127,-2.098c-1.166,0.008 -2.106,0.962 -2.098,2.127Z" style="fill:rgb(131,133,136);"/>
                <path d="M1133.12,778.506l-0,13.265c-0,0 -28.231,-14.926 -28.231,-14.926c-0.657,-0.348 -1.448,-0.324 -2.084,0.062c-0.635,0.386 -1.021,1.077 -1.016,1.82l0.12,16.844c0.008,1.166 0.961,2.105 2.127,2.097c1.166,-0.008 2.106,-0.961 2.098,-2.127l-0.095,-13.309c7.93,4.193 28.206,14.914 28.206,14.914c0.655,0.346 1.443,0.324 2.078,-0.058c0.634,-0.383 1.022,-1.069 1.022,-1.81l-0,-16.772c-0,-1.166 -0.947,-2.112 -2.113,-2.112c-1.165,-0 -2.112,0.946 -2.112,2.112Z" style="fill:rgb(131,133,136);"/>
                <path d="M994.073,778.432l-0.119,17.05c-0.004,0.562 0.216,1.102 0.612,1.501c0.395,0.399 0.933,0.624 1.494,0.626l19.821,0.059c1.163,0.004 2.11,-0.934 2.118,-2.097l0.11,-15.012c0,0 2.479,0 2.479,0c-0,0 -0,14.938 -0,14.938c-0,1.166 0.947,2.112 2.112,2.112c1.166,0 2.113,-0.946 2.113,-2.112l-0,-17.05c-0,-1.167 -0.946,-2.113 -2.113,-2.113l-6.688,0c-1.161,0 -2.104,0.937 -2.112,2.097l-0.11,15.006c-0,0 -15.596,-0.047 -15.596,-0.047c-0,0.001 0.103,-14.928 0.103,-14.928c0.009,-1.166 -0.931,-2.119 -2.097,-2.128c-1.166,-0.008 -2.119,0.932 -2.127,2.098Z" style="fill:rgb(131,133,136);"/>
                <path d="M994.073,902.998l-0.119,17.05c-0.004,0.563 0.217,1.104 0.614,1.503c0.396,0.399 0.936,0.624 1.499,0.624l13.317,0c1.166,0 2.112,-0.946 2.112,-2.112l0,-14.938c0,0 9.092,0 9.092,0c-0,0 -0,14.938 -0,14.938c-0,1.165 0.947,2.112 2.112,2.112c1.166,0 2.113,-0.947 2.113,-2.112l-0,-17.05c-0,-1.167 -0.946,-2.113 -2.113,-2.113l-13.316,0c-1.167,0 -2.113,0.946 -2.113,2.113l0,14.937c0,0 -9.077,0 -9.077,0c0.032,-4.572 0.103,-14.923 0.103,-14.923c0.009,-1.165 -0.931,-2.119 -2.097,-2.127c-1.166,-0.008 -2.119,0.932 -2.127,2.098Z" style="fill:rgb(131,133,136);"/>
                <circle cx="899.999" cy="797.733" r="28.743" style="fill:rgb(131,133,136);"/>
                <path d="M901.791,830.337c-0.386,-0.618 -1.063,-0.994 -1.792,-0.994c-0.728,0 -1.406,0.376 -1.792,0.994l-8.274,13.246c-0.407,0.652 -0.429,1.472 -0.056,2.144c0.372,0.671 1.079,1.088 1.847,1.088l16.55,0c0.768,0 1.475,-0.417 1.848,-1.088c0.372,-0.672 0.351,-1.492 -0.056,-2.144l-8.275,-13.246Z" style="fill:rgb(131,133,136);"/>
            </g>
            <g id="Jacks">
                <circle cx="678.335" cy="855.491" r="37.913" style="fill:rgb(222,222,222);"/>
                <circle cx="678.335" cy="976.852" r="37.913" style="fill:rgb(222,222,222);"/>
                <circle cx="1119.81" cy="855.491" r="37.913" style="fill:rgb(222,222,222);"/>
                <circle cx="1119.57" cy="976.852" r="37.913" style="fill:rgb(222,222,222);"/>
                <g id="Flat-jack" serif:id="Flat jack">
                    <path d="M899.264,943.146c0.247,-0.143 0.553,-0.143 0.801,0c3.255,1.88 25.333,14.627 28.589,16.506c0.247,0.144 0.4,0.408 0.4,0.694c0,3.759 0.001,29.253 0.002,33.012c-0,0.286 -0.153,0.551 -0.401,0.694c-3.255,1.879 -25.332,14.626 -28.587,16.506c-0.248,0.143 -0.553,0.143 -0.801,-0c-3.256,-1.88 -25.334,-14.627 -28.589,-16.506c-0.248,-0.143 -0.401,-0.408 -0.401,-0.694c0,-3.759 -0.001,-29.253 -0.001,-33.012c-0,-0.286 0.152,-0.55 0.4,-0.694c3.255,-1.879 25.332,-14.626 28.588,-16.506Z" style="fill:rgb(213,213,213);"/>
                    <path d="M898.326,941.523c0.828,-0.478 1.848,-0.478 2.676,-0l28.589,16.506c0.828,0.478 1.338,1.361 1.338,2.317l0.002,33.012c-0,0.956 -0.51,1.84 -1.338,2.318l-28.588,16.506c-0.828,0.478 -1.848,0.478 -2.676,-0l-28.589,-16.506c-0.828,-0.478 -1.338,-1.362 -1.338,-2.318l-0.001,-33.012c-0,-0.956 0.51,-1.839 1.338,-2.317l28.587,-16.506Zm0.938,1.623l-28.588,16.506c-0.248,0.144 -0.4,0.408 -0.4,0.694l0.001,33.012c0,0.286 0.153,0.551 0.401,0.694l28.589,16.506c0.248,0.143 0.553,0.143 0.801,-0l28.587,-16.506c0.248,-0.143 0.401,-0.408 0.401,-0.694l-0.002,-33.012c0,-0.286 -0.153,-0.55 -0.4,-0.694l-28.589,-16.506c-0.248,-0.143 -0.554,-0.143 -0.801,0Z" style="fill:rgb(169,169,169);"/>
                    <ellipse cx="899.666" cy="976.852" rx="17.849" ry="17.848" style="fill:rgb(131,133,136);"/>
                </g>
                <g id="Flat-jack1" serif:id="Flat jack">
                    <path d="M1008.55,943.146c0.248,-0.143 0.554,-0.143 0.801,0c3.256,1.88 25.334,14.627 28.589,16.506c0.248,0.144 0.401,0.408 0.401,0.694c0,3.759 0.001,29.253 0.001,33.012c0,0.286 -0.152,0.551 -0.4,0.694c-3.255,1.879 -25.332,14.626 -28.587,16.506c-0.248,0.143 -0.554,0.143 -0.802,-0c-3.255,-1.88 -25.333,-14.627 -28.589,-16.506c-0.247,-0.143 -0.4,-0.408 -0.4,-0.694c-0,-3.759 -0.001,-29.253 -0.002,-33.012c0,-0.286 0.153,-0.55 0.401,-0.694c3.255,-1.879 25.332,-14.626 28.587,-16.506Z" style="fill:rgb(213,213,213);"/>
                    <path d="M1007.62,941.523c0.828,-0.478 1.848,-0.478 2.676,-0l28.589,16.506c0.828,0.478 1.338,1.361 1.338,2.317l0.001,33.012c0,0.956 -0.51,1.84 -1.338,2.318l-28.587,16.506c-0.828,0.478 -1.848,0.478 -2.676,-0l-28.589,-16.506c-0.828,-0.478 -1.338,-1.362 -1.338,-2.318l-0.002,-33.012c0,-0.956 0.51,-1.839 1.338,-2.317l28.588,-16.506Zm0.937,1.623l-28.587,16.506c-0.248,0.144 -0.401,0.408 -0.401,0.694l0.002,33.012c-0,0.286 0.153,0.551 0.4,0.694l28.589,16.506c0.248,0.143 0.554,0.143 0.802,-0l28.587,-16.506c0.248,-0.143 0.4,-0.408 0.4,-0.694l-0.001,-33.012c-0,-0.286 -0.153,-0.55 -0.401,-0.694l-28.589,-16.506c-0.247,-0.143 -0.553,-0.143 -0.801,0Z" style="fill:rgb(169,169,169);"/>
                    <ellipse cx="1008.96" cy="976.852" rx="17.849" ry="17.848" style="fill:rgb(131,133,136);"/>
                </g>
                <g id="Flat-jack2" serif:id="Flat jack">
                    <path d="M1119.16,943.146c0.248,-0.143 0.553,-0.143 0.801,0c3.255,1.88 25.334,14.627 28.589,16.506c0.248,0.144 0.401,0.408 0.401,0.694c-0,3.759 0.001,29.253 0.001,33.012c0,0.286 -0.153,0.551 -0.4,0.694c-3.256,1.879 -25.333,14.626 -28.588,16.506c-0.248,0.143 -0.553,0.143 -0.801,-0c-3.255,-1.88 -25.334,-14.627 -28.589,-16.506c-0.248,-0.143 -0.4,-0.408 -0.4,-0.694c-0.001,-3.759 -0.002,-29.253 -0.002,-33.012c0,-0.286 0.153,-0.55 0.401,-0.694c3.255,-1.879 25.332,-14.626 28.587,-16.506Z" style="fill:rgb(213,213,213);"/>
                    <path d="M1118.23,941.523c0.828,-0.478 1.849,-0.478 2.677,-0l28.588,16.506c0.828,0.478 1.339,1.361 1.339,2.317l0.001,33.012c0,0.956 -0.51,1.84 -1.338,2.318l-28.587,16.506c-0.828,0.478 -1.848,0.478 -2.676,-0l-28.589,-16.506c-0.828,-0.478 -1.338,-1.362 -1.338,-2.318l-0.002,-33.012c0,-0.956 0.51,-1.839 1.338,-2.317l28.587,-16.506Zm0.938,1.623l-28.587,16.506c-0.248,0.144 -0.401,0.408 -0.401,0.694l0.002,33.012c-0,0.286 0.152,0.551 0.4,0.694l28.589,16.506c0.248,0.143 0.553,0.143 0.801,-0l28.588,-16.506c0.247,-0.143 0.4,-0.408 0.4,-0.694l-0.001,-33.012c-0,-0.286 -0.153,-0.55 -0.401,-0.694l-28.589,-16.506c-0.248,-0.143 -0.553,-0.143 -0.801,0Z" style="fill:rgb(169,169,169);"/>
                    <ellipse cx="1119.57" cy="976.852" rx="17.849" ry="17.848" style="fill:rgb(131,133,136);"/>
                </g>
                <g id="Flat-jack3" serif:id="Flat jack">
                    <path d="M1119.41,821.786c0.248,-0.144 0.554,-0.144 0.802,-0c3.255,1.879 25.333,14.626 28.588,16.506c0.248,0.143 0.401,0.407 0.401,0.693c0,3.759 0.001,29.253 0.002,33.012c-0,0.286 -0.153,0.551 -0.401,0.694c-3.255,1.879 -25.332,14.626 -28.587,16.506c-0.248,0.143 -0.554,0.143 -0.801,-0c-3.256,-1.88 -25.334,-14.627 -28.589,-16.506c-0.248,-0.143 -0.401,-0.408 -0.401,-0.694c-0,-3.758 -0.001,-29.253 -0.001,-33.012c-0,-0.286 0.152,-0.55 0.4,-0.693c3.255,-1.88 25.332,-14.627 28.587,-16.506Z" style="fill:rgb(213,213,213);"/>
                    <path d="M1118.47,820.162c0.828,-0.478 1.848,-0.478 2.676,-0l28.589,16.506c0.828,0.478 1.338,1.361 1.338,2.317l0.002,33.012c-0,0.956 -0.51,1.84 -1.338,2.318l-28.588,16.506c-0.828,0.478 -1.848,0.478 -2.676,-0l-28.589,-16.506c-0.828,-0.478 -1.338,-1.362 -1.338,-2.318l-0.001,-33.012c-0,-0.956 0.51,-1.839 1.338,-2.317l28.587,-16.506Zm0.937,1.624l-28.587,16.506c-0.248,0.143 -0.4,0.407 -0.4,0.693l0.001,33.012c0,0.286 0.153,0.551 0.401,0.694l28.589,16.506c0.247,0.143 0.553,0.143 0.801,-0l28.587,-16.506c0.248,-0.143 0.401,-0.408 0.401,-0.694l-0.002,-33.012c0,-0.286 -0.153,-0.55 -0.401,-0.693l-28.588,-16.506c-0.248,-0.144 -0.554,-0.144 -0.802,-0Z" style="fill:rgb(169,169,169);"/>
                    <ellipse cx="1119.81" cy="855.491" rx="17.849" ry="17.848" style="fill:rgb(131,133,136);"/>
                </g>
                <g id="Flat-jack4" serif:id="Flat jack">
                    <path d="M677.933,821.786c0.248,-0.144 0.554,-0.144 0.801,-0c3.256,1.879 25.334,14.626 28.589,16.506c0.248,0.143 0.401,0.407 0.401,0.693c0,3.759 0.001,29.253 0.001,33.012c0,0.286 -0.152,0.551 -0.4,0.694c-3.255,1.879 -25.332,14.626 -28.587,16.506c-0.248,0.143 -0.554,0.143 -0.802,-0c-3.255,-1.88 -25.333,-14.627 -28.588,-16.506c-0.248,-0.143 -0.401,-0.408 -0.401,-0.694c-0,-3.758 -0.001,-29.253 -0.002,-33.012c0,-0.286 0.153,-0.55 0.401,-0.693c3.255,-1.88 25.332,-14.627 28.587,-16.506Z" style="fill:rgb(213,213,213);"/>
                    <path d="M676.996,820.162c0.828,-0.478 1.848,-0.478 2.676,-0l28.589,16.506c0.828,0.478 1.338,1.361 1.338,2.317l0.001,33.012c0,0.956 -0.51,1.84 -1.338,2.318l-28.587,16.506c-0.828,0.478 -1.848,0.478 -2.676,-0l-28.589,-16.506c-0.828,-0.478 -1.338,-1.362 -1.338,-2.318l-0.002,-33.012c0,-0.956 0.51,-1.839 1.338,-2.317l28.588,-16.506Zm0.937,1.624l-28.587,16.506c-0.248,0.143 -0.401,0.407 -0.401,0.693l0.002,33.012c0,0.286 0.153,0.551 0.401,0.694l28.588,16.506c0.248,0.143 0.554,0.143 0.802,-0l28.587,-16.506c0.248,-0.143 0.4,-0.408 0.4,-0.694l-0.001,-33.012c-0,-0.286 -0.153,-0.55 -0.401,-0.693l-28.589,-16.506c-0.247,-0.144 -0.553,-0.144 -0.801,-0Z" style="fill:rgb(169,169,169);"/>
                    <ellipse cx="678.335" cy="855.491" rx="17.849" ry="17.848" style="fill:rgb(131,133,136);"/>
                </g>
                <g id="Flat-jack5" serif:id="Flat jack">
                    <path d="M677.933,943.146c0.248,-0.143 0.554,-0.143 0.801,0c3.256,1.88 25.334,14.627 28.589,16.506c0.248,0.144 0.401,0.408 0.401,0.694c0,3.759 0.001,29.253 0.001,33.012c0,0.286 -0.152,0.551 -0.4,0.694c-3.255,1.879 -25.332,14.626 -28.587,16.506c-0.248,0.143 -0.554,0.143 -0.802,-0c-3.255,-1.88 -25.333,-14.627 -28.588,-16.506c-0.248,-0.143 -0.401,-0.408 -0.401,-0.694c-0,-3.759 -0.001,-29.253 -0.002,-33.012c0,-0.286 0.153,-0.55 0.401,-0.694c3.255,-1.879 25.332,-14.626 28.587,-16.506Z" style="fill:rgb(213,213,213);"/>
                    <path d="M676.996,941.523c0.828,-0.478 1.848,-0.478 2.676,-0l28.589,16.506c0.828,0.478 1.338,1.361 1.338,2.317l0.001,33.012c0,0.956 -0.51,1.84 -1.338,2.318l-28.587,16.506c-0.828,0.478 -1.848,0.478 -2.676,-0l-28.589,-16.506c-0.828,-0.478 -1.338,-1.362 -1.338,-2.318l-0.002,-33.012c0,-0.956 0.51,-1.839 1.338,-2.317l28.588,-16.506Zm0.937,1.623l-28.587,16.506c-0.248,0.144 -0.401,0.408 -0.401,0.694l0.002,33.012c0,0.286 0.153,0.551 0.401,0.694l28.588,16.506c0.248,0.143 0.554,0.143 0.802,-0l28.587,-16.506c0.248,-0.143 0.4,-0.408 0.4,-0.694l-0.001,-33.012c-0,-0.286 -0.153,-0.55 -0.401,-0.694l-28.589,-16.506c-0.247,-0.143 -0.553,-0.143 -0.801,0Z" style="fill:rgb(169,169,169);"/>
                    <ellipse cx="678.335" cy="976.852" rx="17.849" ry="17.848" style="fill:rgb(131,133,136);"/>
                </g>
                <g id="Flat-jack6" serif:id="Flat jack">
                    <path d="M788.515,943.146c0.248,-0.143 0.553,-0.143 0.801,0c3.255,1.88 25.334,14.627 28.589,16.506c0.248,0.144 0.4,0.408 0.4,0.694c0.001,3.759 0.002,29.253 0.002,33.012c-0,0.286 -0.153,0.551 -0.401,0.694c-3.255,1.879 -25.332,14.626 -28.587,16.506c-0.248,0.143 -0.553,0.143 -0.801,-0c-3.255,-1.88 -25.334,-14.627 -28.589,-16.506c-0.248,-0.143 -0.401,-0.408 -0.401,-0.694c0,-3.759 -0.001,-29.253 -0.001,-33.012c-0,-0.286 0.153,-0.55 0.4,-0.694c3.256,-1.879 25.333,-14.626 28.588,-16.506Z" style="fill:rgb(213,213,213);"/>
                    <path d="M787.577,941.523c0.828,-0.478 1.848,-0.478 2.676,-0l28.589,16.506c0.828,0.478 1.338,1.361 1.338,2.317l0.002,33.012c-0,0.956 -0.51,1.84 -1.338,2.318l-28.587,16.506c-0.828,0.478 -1.849,0.478 -2.677,-0l-28.588,-16.506c-0.828,-0.478 -1.339,-1.362 -1.339,-2.318l-0.001,-33.012c-0,-0.956 0.51,-1.839 1.338,-2.317l28.587,-16.506Zm0.938,1.623l-28.588,16.506c-0.247,0.144 -0.4,0.408 -0.4,0.694l0.001,33.012c0,0.286 0.153,0.551 0.401,0.694l28.589,16.506c0.248,0.143 0.553,0.143 0.801,-0l28.587,-16.506c0.248,-0.143 0.401,-0.408 0.401,-0.694l-0.002,-33.012c0,-0.286 -0.152,-0.55 -0.4,-0.694l-28.589,-16.506c-0.248,-0.143 -0.553,-0.143 -0.801,0Z" style="fill:rgb(169,169,169);"/>
                    <ellipse cx="788.917" cy="976.852" rx="17.849" ry="17.848" style="fill:rgb(131,133,136);"/>
                </g>
            </g>
            <g id="Stars">
                <path d="M921.849,265.58l5.267,15.959c0.212,0.642 0.718,1.143 1.361,1.35c0.643,0.206 1.346,0.093 1.891,-0.306l9.37,-6.844l-0.643,11.585c-0.037,0.675 0.25,1.326 0.773,1.754c0.523,0.427 1.219,0.578 1.873,0.407l16.256,-4.266l-11.188,12.542c-0.449,0.504 -0.631,1.193 -0.488,1.853c0.143,0.66 0.593,1.212 1.211,1.485l10.611,4.692l-10.354,5.236c-0.603,0.305 -1.024,0.88 -1.132,1.546c-0.108,0.667 0.109,1.345 0.584,1.826l11.822,11.945l-16.455,-3.418c-0.662,-0.137 -1.349,0.05 -1.849,0.504c-0.5,0.454 -0.754,1.119 -0.681,1.791l1.242,11.536l-9.712,-6.349c-0.565,-0.37 -1.273,-0.447 -1.905,-0.207c-0.631,0.239 -1.11,0.766 -1.288,1.418l-4.434,16.211l-5.268,-15.96c-0.212,-0.641 -0.717,-1.143 -1.36,-1.349c-0.644,-0.207 -1.347,-0.093 -1.892,0.305l-9.37,6.844l0.643,-11.585c0.038,-0.674 -0.25,-1.326 -0.773,-1.753c-0.523,-0.427 -1.219,-0.579 -1.872,-0.407l-16.257,4.266l11.188,-12.542c0.45,-0.504 0.631,-1.193 0.488,-1.853c-0.142,-0.66 -0.592,-1.212 -1.21,-1.486l-10.612,-4.692l10.355,-5.236c0.602,-0.305 1.023,-0.879 1.131,-1.546c0.109,-0.667 -0.108,-1.345 -0.583,-1.825l-11.823,-11.945l16.456,3.417c0.661,0.138 1.348,-0.049 1.849,-0.503c0.5,-0.454 0.753,-1.12 0.681,-1.791l-1.243,-11.536l9.712,6.349c0.565,0.369 1.273,0.446 1.905,0.207c0.632,-0.239 1.111,-0.766 1.289,-1.418l4.434,-16.211Z" style="fill:rgb(213,213,213);"/>
                <path d="M879.598,332.707l-7.734,5.817l-1.434,-10.133l-16.494,9.137l9.137,-16.495l-10.134,-1.433l6.152,-8.179l-18.124,-5.203l18.124,-5.202l-6.152,-8.179l10.134,-1.433l-9.137,-16.495l16.494,9.137l1.434,-10.133l8.179,6.152l5.202,-18.125l5.202,18.125l8.179,-6.152l1.434,10.133l0.94,-0.52l0.24,2.231l-20.473,-4.253c-0.913,-0.189 -1.841,0.241 -2.286,1.06c-0.445,0.819 -0.301,1.832 0.355,2.495l14.709,14.862l-11.747,5.94c-0.728,0.368 -1.179,1.124 -1.158,1.94c0.021,0.816 0.511,1.547 1.257,1.877l12.039,5.323l-13.92,15.605c-0.518,0.581 -0.667,1.388 -0.418,2.101Zm33.172,-55.702l1.854,-1.027l-0.519,1.9l-1.335,-0.873Zm3.267,60.236l-1.248,-0.691l0.821,-0.601l0.427,1.292Zm-13.731,-7.606l-1.071,-0.593l1.12,-0.294l-0.049,0.887Zm-2.387,-0.248l-1.293,9.137l-8.179,-6.152l-5.202,18.125l-4.796,-16.709c0.487,0.313 1.094,0.421 1.68,0.267l17.79,-4.668Z" style="fill:rgb(213,213,213);"/>
                <path d="M985.159,479.509l5.715,7.616l3.712,-5.342l0.885,6.445l8.549,-4.196l-5.478,7.79l6.229,1.879l-5.857,2.834l6.632,6.833l-9.101,-2.802l0.138,6.504l-4.505,-4.694l-4.45,8.419l-0.147,-9.522l-6.143,2.141l3.072,-5.735l-9.382,-1.63l9.01,-3.082l-3.934,-5.182l6.403,1.151l-1.348,-9.427Z" style="fill:rgb(213,213,213);stroke:rgb(213,213,213);stroke-width:6.25px;stroke-linecap:butt;stroke-miterlimit:2;"/>
                <path d="M901.721,708.649l1.4,11.485l3.821,-2.85l0.356,4.754l9.585,-6.48l-6.31,9.697l4.759,0.273l-2.783,3.871l11.508,1.197l-11.067,3.372l3.47,3.268l-4.619,1.177l8.045,8.314l-10.645,-4.531l0.557,4.735l-4.295,-2.069l0.82,11.541l-5.243,-10.314l-2.616,3.986l-1.961,-4.345l-6.79,9.367l2.613,-11.271l-4.566,1.372l1.291,-4.589l-11.223,2.811l9.246,-6.955l-4.378,-1.884l3.938,-2.685l-10.404,-5.061l11.553,0.616l-2.143,-4.258l4.743,0.475l-4.717,-10.565l8.454,7.899l1.096,-4.64l3.328,3.412l3.177,-11.125Z" style="fill:rgb(213,213,213);stroke:rgb(213,213,213);stroke-width:3.33px;stroke-linecap:butt;stroke-miterlimit:2;"/>
                <path d="M997.591,457.535l1.928,3.721l2.824,1.815l-2.824,1.815l-1.928,3.721l-1.927,-3.721l-2.824,-1.815l2.824,-1.815l1.927,-3.721Z" style="fill:rgb(213,213,213);stroke:rgb(213,213,213);stroke-width:6.25px;stroke-linecap:butt;stroke-miterlimit:2;"/>
                <path d="M1079.82,596.502l-0.319,14.01l9.816,-0.269l-6.12,7.68l11.384,8.172l-14.01,-0.318l0.269,9.816l-7.68,-6.12l-8.172,11.384l0.318,-14.01l-9.816,0.269l6.12,-7.68l-11.384,-8.173l14.01,0.319l-0.269,-9.816l7.68,6.12l8.173,-11.384Z" style="fill:rgb(213,213,213);stroke:rgb(213,213,213);stroke-width:6.25px;stroke-linecap:butt;stroke-miterlimit:2;"/>
                <path d="M672.708,615.214l3.837,11.181l8.262,1.023l-4.227,7.172l6.522,9.858l-11.601,-2.266l-5.017,6.643l-4.098,-7.246l-11.798,0.719l7.763,-8.914l-3.245,-7.666l8.325,0.074l5.277,-10.578Z" style="fill:rgb(213,213,213);stroke:rgb(213,213,213);stroke-width:6.25px;stroke-linecap:butt;stroke-miterlimit:2;"/>
                <path d="M807.009,504.314l4.043,14.262c0.043,0.153 0.107,0.292 0.187,0.406c0.08,0.115 0.174,0.204 0.277,0.261l9.557,5.272l-9.235,5.816c-0.1,0.063 -0.189,0.157 -0.262,0.276c-0.073,0.119 -0.129,0.261 -0.163,0.417l-3.21,14.472l-4.043,-14.262c-0.043,-0.153 -0.107,-0.292 -0.187,-0.406c-0.08,-0.115 -0.174,-0.204 -0.277,-0.261l-9.557,-5.272l9.236,-5.816c0.099,-0.063 0.188,-0.157 0.261,-0.276c0.073,-0.119 0.129,-0.261 0.164,-0.417l3.209,-14.472Z" style="fill:rgb(213,213,213);stroke:rgb(213,213,213);stroke-width:6.25px;"/>
                <path d="M1030.08,602.117l2.941,5.137c0.023,0.041 0.05,0.077 0.08,0.108c0.029,0.031 0.06,0.055 0.093,0.073l4.07,2.212l-2.912,3.603c-0.023,0.028 -0.043,0.063 -0.058,0.103c-0.015,0.039 -0.026,0.083 -0.032,0.13l-0.748,5.871l-2.94,-5.136c-0.024,-0.041 -0.051,-0.078 -0.08,-0.108c-0.029,-0.031 -0.061,-0.055 -0.093,-0.073l-4.07,-2.212l2.911,-3.603c0.024,-0.029 0.043,-0.064 0.058,-0.103c0.016,-0.04 0.027,-0.084 0.033,-0.13l0.747,-5.872Z" style="fill:rgb(213,213,213);stroke:rgb(213,213,213);stroke-width:6.25px;"/>
                <path d="M713.647,411.759l1.938,-2.769c0.015,-0.022 0.029,-0.05 0.04,-0.082c0.012,-0.033 0.021,-0.07 0.027,-0.111l0.81,-5.072l1.403,4.941c0.011,0.04 0.025,0.076 0.04,0.107c0.015,0.031 0.032,0.057 0.05,0.077l2.251,2.521l-1.938,2.769c-0.015,0.022 -0.029,0.05 -0.04,0.082c-0.012,0.033 -0.021,0.07 -0.027,0.111l-0.81,5.072l-1.403,-4.941c-0.011,-0.04 -0.025,-0.076 -0.04,-0.107c-0.015,-0.031 -0.032,-0.057 -0.05,-0.077l-2.251,-2.521Z" style="fill:rgb(213,213,213);stroke:rgb(213,213,213);stroke-width:6.25px;"/>
                <path d="M1097.46,632.574l1.082,5.96c0.013,0.071 0.032,0.134 0.056,0.186c0.023,0.051 0.051,0.09 0.08,0.112l2.482,1.863l-2.287,2.097c-0.027,0.025 -0.051,0.066 -0.069,0.12c-0.019,0.053 -0.031,0.119 -0.037,0.19l-0.493,6.037l-1.082,-5.96c-0.012,-0.07 -0.031,-0.134 -0.055,-0.185c-0.023,-0.052 -0.051,-0.091 -0.08,-0.112l-2.482,-1.863l2.287,-2.098c0.027,-0.025 0.051,-0.066 0.069,-0.119c0.018,-0.054 0.031,-0.119 0.037,-0.19l0.492,-6.038Z" style="fill:rgb(213,213,213);stroke:rgb(213,213,213);stroke-width:6.25px;"/>
                <path d="M1119.49,388.866l3.121,9.947c0.062,0.199 0.2,0.368 0.386,0.476c0.186,0.107 0.406,0.144 0.617,0.103l10.572,-2.04l-5.114,9.052c-0.102,0.18 -0.129,0.392 -0.075,0.592c0.054,0.201 0.184,0.376 0.366,0.49l9.083,5.731l-10.354,2.855c-0.206,0.057 -0.382,0.186 -0.492,0.363c-0.109,0.176 -0.145,0.386 -0.099,0.589l2.273,10.145l-9.529,-5.015c-0.19,-0.1 -0.411,-0.128 -0.62,-0.08c-0.209,0.049 -0.39,0.172 -0.507,0.344l-5.868,8.616l-3.122,-9.947c-0.062,-0.198 -0.2,-0.368 -0.385,-0.475c-0.186,-0.107 -0.406,-0.144 -0.617,-0.103l-10.573,2.04l5.114,-9.052c0.102,-0.181 0.129,-0.392 0.075,-0.593c-0.054,-0.2 -0.184,-0.375 -0.365,-0.489l-9.084,-5.732l10.354,-2.854c0.207,-0.057 0.382,-0.187 0.492,-0.363c0.109,-0.176 0.145,-0.387 0.1,-0.589l-2.273,-10.145l9.528,5.015c0.19,0.1 0.412,0.128 0.62,0.079c0.209,-0.049 0.39,-0.171 0.507,-0.343l5.869,-8.617Z" style="fill:rgb(213,213,213);stroke:rgb(213,213,213);stroke-width:6.25px;"/>
                <path d="M747.177,396.613l4.162,6.638c0.069,0.111 0.172,0.2 0.294,0.257c0.122,0.056 0.259,0.077 0.393,0.059l8.029,-1.031l-2.84,7.246c-0.047,0.121 -0.056,0.253 -0.026,0.38c0.03,0.126 0.098,0.241 0.196,0.33l5.85,5.352l-7.702,2.398c-0.129,0.04 -0.243,0.116 -0.327,0.217c-0.085,0.101 -0.136,0.224 -0.149,0.353l-0.733,7.705l-6.765,-4.256c-0.114,-0.072 -0.246,-0.109 -0.382,-0.109c-0.135,-0 -0.268,0.037 -0.381,0.109l-6.766,4.256l-0.733,-7.705c-0.013,-0.129 -0.064,-0.252 -0.149,-0.353c-0.084,-0.101 -0.198,-0.177 -0.327,-0.217l-7.702,-2.398l5.85,-5.352c0.098,-0.089 0.166,-0.204 0.196,-0.33c0.031,-0.127 0.021,-0.259 -0.026,-0.38l-2.84,-7.246l8.029,1.031c0.135,0.018 0.271,-0.003 0.393,-0.059c0.123,-0.057 0.225,-0.146 0.295,-0.257l4.161,-6.638Z" style="fill:rgb(213,213,213);stroke:rgb(213,213,213);stroke-width:6.25px;"/>
            </g>
            <g id="Controls">
                <g id="_1900h" serif:id="1900h">
                    <circle cx="900" cy="425.938" r="50.7" style="fill:rgb(131,133,136);"/>
                    <rect x="898.156" y="381.35" width="3.687" height="35.149" style="fill:white;"/>
                </g>
                <g id="_1900h1" serif:id="1900h">
                    <circle cx="900" cy="604.539" r="50.7" style="fill:rgb(131,133,136);"/>
                    <rect x="898.156" y="559.952" width="3.687" height="35.149" style="fill:white;"/>
                </g>
                <g id="_1900h2" serif:id="1900h">
                    <circle cx="714.524" cy="503.139" r="50.7" style="fill:rgb(131,133,136);"/>
                    <rect x="712.681" y="458.552" width="3.687" height="35.149" style="fill:white;"/>
                </g>
                <g id="_1900h3" serif:id="1900h">
                    <circle cx="1085.24" cy="503.139" r="50.7" style="fill:rgb(131,133,136);"/>
                    <rect x="1083.39" y="458.552" width="3.687" height="35.149" style="fill:white;"/>
                </g>
                <g id="Large-MXR" serif:id="Large MXR">
                    <circle cx="748.053" cy="255.881" r="99.803" style="fill:rgb(131,133,136);"/>
                    <rect x="743.882" y="181.146" width="8.341" height="69.654" style="fill:white;"/>
                    <circle cx="748.053" cy="165.649" r="4.171" style="fill:white;"/>
                </g>
                <g id="Large-MXR1" serif:id="Large MXR">
                    <circle cx="1051.95" cy="255.881" r="99.803" style="fill:rgb(131,133,136);"/>
                    <rect x="1047.78" y="181.146" width="8.341" height="69.654" style="fill:white;"/>
                    <circle cx="1051.95" cy="165.649" r="4.171" style="fill:white;"/>
                </g>
                <g id="_1RWHT" serif:id="1RWHT">
                    <ellipse cx="899.759" cy="797.82" rx="20.779" ry="20.813" style="fill:rgb(213,213,213);"/>
                </g>
                <g id="Tall-Trimmer" serif:id="Tall Trimmer">
                    <circle cx="788.917" cy="734.952" r="23.953" style="fill:rgb(131,133,136);"/>
                    <rect x="786.583" y="710.999" width="4.667" height="12.839" style="fill:white;"/>
                </g>
                <g id="Tall-Trimmer1" serif:id="Tall Trimmer">
                    <circle cx="678.335" cy="734.952" r="23.953" style="fill:rgb(131,133,136);"/>
                    <rect x="676.002" y="710.999" width="4.667" height="12.839" style="fill:white;"/>
                </g>
                <g id="Tall-Trimmer2" serif:id="Tall Trimmer">
                    <circle cx="788.917" cy="855.491" r="23.953" style="fill:rgb(131,133,136);"/>
                    <rect x="786.583" y="831.538" width="4.667" height="12.839" style="fill:white;"/>
                </g>
                <g id="Tall-Trimmer3" serif:id="Tall Trimmer">
                    <circle cx="1119.57" cy="734.952" r="23.953" style="fill:rgb(131,133,136);"/>
                    <rect x="1117.23" y="710.999" width="4.667" height="12.839" style="fill:white;"/>
                </g>
                <g id="Tall-Trimmer4" serif:id="Tall Trimmer">
                    <circle cx="1009.54" cy="855.491" r="23.953" style="fill:rgb(131,133,136);"/>
                    <rect x="1007.21" y="831.538" width="4.667" height="12.839" style="fill:white;"/>
                </g>
                <g id="Tall-Trimmer5" serif:id="Tall Trimmer">
                    <circle cx="1008.96" cy="734.952" r="23.953" style="fill:rgb(131,133,136);"/>
                    <rect x="1006.62" y="710.999" width="4.667" height="12.839" style="fill:white;"/>
                </g>
            </g>
        </g>
        <g>
            <rect x="168.153" y="382.855" width="415.666" height="79.707" style="fill:rgb(230,33,109);stroke:rgb(230,33,109);stroke-width:10.42px;"/>
            <path d="M187.998,438.825l6.982,-34.4l6.313,0l-5.835,28.7l14.538,0l0,6.3l-21.998,0l-0,-0.6Z" style="fill:rgb(244,244,245);fill-rule:nonzero;"/>
            <path d="M224.439,404.425l20.134,0l-0,6.3l-15.112,0l-1.626,8l13.534,0l-0,6.3l-14.826,0l-2.917,14.4l-6.313,0l7.126,-35Z" style="fill:rgb(244,244,245);fill-rule:nonzero;"/>
            <path d="M248.925,418.025c0.988,-4.933 2.638,-8.55 4.949,-10.85c2.312,-2.3 5.492,-3.45 9.541,-3.45c1.69,0 3.188,0.275 4.495,0.825c1.308,0.55 2.408,1.317 3.3,2.3c0.893,0.984 1.57,2.142 2.033,3.475c0.462,1.334 0.693,2.767 0.693,4.3c0,0.567 -0.024,1.134 -0.072,1.7c-0.047,0.567 -0.135,1.134 -0.263,1.7l-1.578,7.8c-0.988,4.934 -2.638,8.55 -4.949,10.85c-2.312,2.3 -5.492,3.45 -9.541,3.45c-1.69,0 -3.188,-0.275 -4.496,-0.825c-1.307,-0.55 -2.407,-1.316 -3.299,-2.3c-0.893,-0.983 -1.571,-2.133 -2.033,-3.45c-0.462,-1.316 -0.693,-2.758 -0.693,-4.325c-0,-0.566 0.024,-1.133 0.071,-1.7c0.048,-0.566 0.136,-1.133 0.263,-1.7l1.579,-7.8Zm9.182,16.1c1.084,0 2.04,-0.208 2.869,-0.625c0.829,-0.416 1.554,-0.975 2.176,-1.675c0.622,-0.7 1.132,-1.533 1.53,-2.5c0.399,-0.966 0.71,-2 0.933,-3.1l1.769,-8.6c0.096,-0.533 0.168,-0.991 0.216,-1.375c0.047,-0.383 0.071,-0.758 0.071,-1.125c0,-1.7 -0.422,-3.025 -1.267,-3.975c-0.845,-0.95 -2.032,-1.425 -3.563,-1.425c-1.084,0 -2.04,0.209 -2.869,0.625c-0.829,0.417 -1.554,0.975 -2.176,1.675c-0.622,0.7 -1.132,1.534 -1.531,2.5c-0.398,0.967 -0.709,2 -0.932,3.1l-1.77,8.6c-0.191,0.9 -0.286,1.734 -0.286,2.5c-0,1.7 0.422,3.025 1.267,3.975c0.845,0.95 2.032,1.425 3.563,1.425Z" style="fill:rgb(244,244,245);fill-rule:nonzero;"/>
            <path d="M315.782,420.625l-6.743,0l-0,-6l7.986,0l1.052,-5.1c0.128,-0.7 0.383,-1.366 0.765,-2c0.383,-0.633 0.837,-1.175 1.363,-1.625c0.526,-0.45 1.116,-0.808 1.77,-1.075c0.653,-0.266 1.315,-0.4 1.984,-0.4l8.417,0l0,6l-7.173,0c-0.861,0 -1.387,0.5 -1.578,1.5l-0.574,2.7l8.082,0l-0,6l-9.326,0l-5.308,24.8c-0.351,1.634 -1.004,2.809 -1.961,3.525c-0.956,0.717 -1.992,1.075 -3.108,1.075c-0.925,0 -1.826,-0.225 -2.702,-0.675c-0.877,-0.45 -1.555,-1.091 -2.033,-1.925l-3.013,-5.05l4.639,-2.95l2.104,3.8l0.574,-0.1l4.783,-22.5Z" style="fill:rgb(244,244,245);fill-rule:nonzero;"/>
            <path d="M342.132,420.525l-0.478,-0.3l-3.778,2.9l-3.204,-4.5l3.826,-3c0.733,-0.566 1.506,-0.991 2.319,-1.275c0.813,-0.283 1.586,-0.425 2.32,-0.425c1.275,0 2.391,0.367 3.347,1.1c0.957,0.734 1.531,1.767 1.722,3.1l0.861,0c0.637,-1.4 1.53,-2.45 2.678,-3.15c1.148,-0.7 2.439,-1.05 3.873,-1.05c1.818,0 3.292,0.592 4.424,1.775c1.132,1.184 1.698,2.825 1.698,4.925c-0,0.434 -0.024,0.859 -0.072,1.275c-0.048,0.417 -0.135,0.925 -0.263,1.525l-0.239,1.1l-6.408,0.5l0.143,-0.7c0.096,-0.5 0.144,-0.95 0.144,-1.35c-0,-0.966 -0.255,-1.733 -0.766,-2.3c-0.51,-0.566 -1.275,-0.85 -2.295,-0.85c-1.275,0 -2.288,0.45 -3.037,1.35c-0.749,0.9 -1.299,2.184 -1.65,3.85l-1.721,8.4l5.738,0l0,6l-16.355,0l-0,-6l4.591,0l2.582,-12.9Z" style="fill:rgb(244,244,245);fill-rule:nonzero;"/>
            <path d="M370.778,429.075c-0.063,0.267 -0.095,0.55 -0.095,0.85c-0,1.2 0.438,2.2 1.315,3c0.877,0.8 2.032,1.2 3.467,1.2c1.499,0 2.694,-0.283 3.587,-0.85c0.893,-0.566 1.578,-1.233 2.056,-2l4.783,3.15c-0.383,0.667 -0.885,1.334 -1.507,2c-0.622,0.667 -1.387,1.275 -2.295,1.825c-0.909,0.55 -1.977,1 -3.205,1.35c-1.227,0.35 -2.654,0.525 -4.28,0.525c-1.466,0 -2.813,-0.241 -4.041,-0.725c-1.227,-0.483 -2.279,-1.15 -3.156,-2c-0.877,-0.85 -1.562,-1.866 -2.057,-3.05c-0.494,-1.183 -0.741,-2.491 -0.741,-3.925c0,-2.266 0.327,-4.4 0.981,-6.4c0.653,-2 1.602,-3.75 2.845,-5.25c1.244,-1.5 2.774,-2.683 4.591,-3.55c1.817,-0.866 3.906,-1.3 6.265,-1.3c1.658,0 3.101,0.275 4.328,0.825c1.227,0.55 2.24,1.284 3.037,2.2c0.797,0.917 1.395,1.959 1.793,3.125c0.399,1.167 0.598,2.367 0.598,3.6c-0,0.4 -0.024,0.809 -0.072,1.225c-0.048,0.417 -0.135,0.959 -0.263,1.625l-0.526,2.55l-17.408,0Zm7.557,-9.45c-1.499,0 -2.798,0.392 -3.898,1.175c-1.1,0.784 -1.921,1.742 -2.463,2.875l11.191,0c-0,-1.266 -0.375,-2.258 -1.124,-2.975c-0.749,-0.716 -1.985,-1.075 -3.706,-1.075Z" style="fill:rgb(244,244,245);fill-rule:nonzero;"/>
            <path d="M404.398,434.125c1.148,0 2.2,-0.25 3.157,-0.75c0.956,-0.5 1.785,-1.175 2.486,-2.025c0.702,-0.85 1.244,-1.825 1.626,-2.925c0.383,-1.1 0.574,-2.25 0.574,-3.45c0,-1.6 -0.438,-2.841 -1.315,-3.725c-0.877,-0.883 -2.096,-1.325 -3.658,-1.325c-1.148,0 -2.208,0.259 -3.181,0.775c-0.972,0.517 -1.801,1.2 -2.486,2.05c-0.686,0.85 -1.22,1.825 -1.603,2.925c-0.382,1.1 -0.573,2.25 -0.573,3.45c-0,1.634 0.438,2.875 1.315,3.725c0.877,0.85 2.096,1.275 3.658,1.275Zm5.835,1.7l-0.861,0c-0.351,0.567 -0.749,1.109 -1.196,1.625c-0.446,0.517 -0.98,0.975 -1.602,1.375c-0.622,0.4 -1.363,0.717 -2.224,0.95c-0.86,0.234 -1.865,0.35 -3.012,0.35c-1.116,0 -2.16,-0.216 -3.133,-0.65c-0.972,-0.433 -1.833,-1.05 -2.582,-1.85c-0.75,-0.8 -1.339,-1.766 -1.77,-2.9c-0.43,-1.133 -0.645,-2.4 -0.645,-3.8c-0,-2.233 0.294,-4.375 0.884,-6.425c0.59,-2.05 1.459,-3.858 2.607,-5.425c1.147,-1.566 2.55,-2.816 4.208,-3.75c1.658,-0.933 3.555,-1.4 5.691,-1.4c1.945,0 3.404,0.417 4.376,1.25c0.972,0.834 1.634,1.85 1.985,3.05l0.86,0l0.718,-3.6l6.026,0l-5.883,28.75l0.478,0.35l2.679,-1.9l3.012,4.7l-3.204,2.2c-0.637,0.467 -1.299,0.8 -1.984,1c-0.686,0.2 -1.347,0.3 -1.985,0.3c-1.435,0 -2.654,-0.475 -3.659,-1.425c-1.004,-0.95 -1.506,-2.258 -1.506,-3.925c0,-0.466 0.064,-1.016 0.191,-1.65l1.531,-7.2Z" style="fill:rgb(244,244,245);fill-rule:nonzero;"/>
            <path d="M432.088,414.625l-2.965,14.4c-0.128,0.567 -0.191,1.117 -0.191,1.65c-0,1.267 0.334,2.209 1.004,2.825c0.669,0.617 1.562,0.925 2.678,0.925c1.69,0 2.989,-0.575 3.898,-1.725c0.908,-1.15 1.586,-2.775 2.032,-4.875l2.678,-13.2l6.026,0l-3.922,18.9l0.526,0.3l1.722,-1.3l3.013,4.6l-2.248,1.7c-0.605,0.467 -1.235,0.8 -1.889,1c-0.653,0.2 -1.299,0.3 -1.937,0.3c-1.307,0 -2.455,-0.391 -3.443,-1.175c-0.988,-0.783 -1.546,-1.925 -1.674,-3.425l-0.86,0c-0.702,1.7 -1.65,2.892 -2.846,3.575c-1.196,0.684 -2.543,1.025 -4.041,1.025c-2.072,0 -3.762,-0.658 -5.069,-1.975c-1.307,-1.316 -1.961,-3.158 -1.961,-5.525c-0,-0.833 0.096,-1.733 0.287,-2.7l3.156,-15.3l6.026,0Z" style="fill:rgb(244,244,245);fill-rule:nonzero;"/>
            <path d="M458.582,429.075c-0.064,0.267 -0.096,0.55 -0.096,0.85c0,1.2 0.439,2.2 1.316,3c0.876,0.8 2.032,1.2 3.467,1.2c1.498,0 2.694,-0.283 3.586,-0.85c0.893,-0.566 1.579,-1.233 2.057,-2l4.782,3.15c-0.382,0.667 -0.885,1.334 -1.506,2c-0.622,0.667 -1.387,1.275 -2.296,1.825c-0.908,0.55 -1.976,1 -3.204,1.35c-1.227,0.35 -2.654,0.525 -4.28,0.525c-1.467,0 -2.814,-0.241 -4.041,-0.725c-1.228,-0.483 -2.28,-1.15 -3.156,-2c-0.877,-0.85 -1.563,-1.866 -2.057,-3.05c-0.494,-1.183 -0.741,-2.491 -0.741,-3.925c-0,-2.266 0.327,-4.4 0.98,-6.4c0.654,-2 1.602,-3.75 2.846,-5.25c1.243,-1.5 2.773,-2.683 4.591,-3.55c1.817,-0.866 3.905,-1.3 6.265,-1.3c1.657,0 3.1,0.275 4.328,0.825c1.227,0.55 2.239,1.284 3.036,2.2c0.797,0.917 1.395,1.959 1.794,3.125c0.398,1.167 0.598,2.367 0.598,3.6c-0,0.4 -0.024,0.809 -0.072,1.225c-0.048,0.417 -0.136,0.959 -0.263,1.625l-0.526,2.55l-17.408,0Zm7.556,-9.45c-1.498,0 -2.798,0.392 -3.897,1.175c-1.1,0.784 -1.921,1.742 -2.463,2.875l11.19,0c0,-1.266 -0.374,-2.258 -1.124,-2.975c-0.749,-0.716 -1.984,-1.075 -3.706,-1.075Z" style="fill:rgb(244,244,245);fill-rule:nonzero;"/>
            <path d="M498.084,425.025c0.128,-0.633 0.191,-1.166 0.191,-1.6c0,-1.2 -0.334,-2.133 -1.004,-2.8c-0.669,-0.666 -1.578,-1 -2.726,-1c-1.434,0 -2.662,0.534 -3.682,1.6c-1.02,1.067 -1.706,2.5 -2.057,4.3l-2.821,13.9l-6.026,0l5.022,-24.8l5.786,0l-0.813,4l0.861,0c0.765,-1.666 1.777,-2.866 3.037,-3.6c1.259,-0.733 2.654,-1.1 4.184,-1.1c2.009,0 3.611,0.634 4.807,1.9c1.195,1.267 1.793,3.05 1.793,5.35c-0,0.534 -0.032,1.025 -0.096,1.475c-0.063,0.45 -0.143,0.942 -0.239,1.475l-1.913,9.35l0.478,0.35l2.057,-1.5l3.013,4.7l-2.583,1.8c-1.211,0.867 -2.502,1.3 -3.873,1.3c-0.702,0 -1.371,-0.125 -2.009,-0.375c-0.638,-0.25 -1.196,-0.6 -1.674,-1.05c-0.478,-0.45 -0.861,-1 -1.148,-1.65c-0.287,-0.65 -0.43,-1.391 -0.43,-2.225c0,-0.433 0.048,-0.933 0.143,-1.5l1.722,-8.3Z" style="fill:rgb(244,244,245);fill-rule:nonzero;"/>
            <path d="M534.765,430.325c-0.893,2.967 -2.479,5.342 -4.759,7.125c-2.279,1.784 -5.332,2.675 -9.158,2.675c-1.403,0 -2.726,-0.233 -3.969,-0.7c-1.244,-0.466 -2.328,-1.166 -3.252,-2.1c-0.925,-0.933 -1.65,-2.091 -2.176,-3.475c-0.526,-1.383 -0.789,-2.991 -0.789,-4.825c-0,-2.066 0.342,-4.016 1.028,-5.85c0.685,-1.833 1.682,-3.433 2.989,-4.8c1.307,-1.366 2.885,-2.45 4.734,-3.25c1.849,-0.8 3.954,-1.2 6.313,-1.2c1.722,0 3.236,0.267 4.543,0.8c1.307,0.534 2.391,1.259 3.252,2.175c0.861,0.917 1.515,1.992 1.961,3.225c0.446,1.234 0.669,2.534 0.669,3.9l-6.121,1.25c0,-1.7 -0.406,-3.016 -1.219,-3.95c-0.813,-0.933 -2.129,-1.4 -3.946,-1.4c-1.148,0 -2.208,0.225 -3.18,0.675c-0.972,0.45 -1.817,1.067 -2.535,1.85c-0.717,0.784 -1.275,1.7 -1.674,2.75c-0.398,1.05 -0.597,2.175 -0.597,3.375c-0,1.9 0.478,3.3 1.434,4.2c0.957,0.9 2.168,1.35 3.635,1.35c2.009,0 3.571,-0.466 4.687,-1.4c1.116,-0.933 1.96,-2.25 2.534,-3.95l5.596,1.55Z" style="fill:rgb(244,244,245);fill-rule:nonzero;"/>
            <path d="M549.399,429.025c-0.064,0.234 -0.112,0.484 -0.144,0.75c-0.032,0.267 -0.048,0.534 -0.048,0.8c0,1.267 0.351,2.225 1.052,2.875c0.702,0.65 1.658,0.975 2.87,0.975c1.721,0 3.045,-0.583 3.969,-1.75c0.925,-1.166 1.61,-2.85 2.057,-5.05l2.63,-13l6.026,0l-6.265,30.9c-0.224,1.134 -0.75,2.067 -1.578,2.8c-0.829,0.734 -1.786,1.1 -2.87,1.1l-13.869,0l0,-6l11.43,0c0.861,0 1.387,-0.5 1.578,-1.5l1.244,-6.1l-0.861,0c-0.702,1.5 -1.594,2.592 -2.678,3.275c-1.084,0.684 -2.439,1.025 -4.065,1.025c-0.957,0 -1.849,-0.175 -2.678,-0.525c-0.829,-0.35 -1.563,-0.85 -2.2,-1.5c-0.638,-0.65 -1.14,-1.45 -1.507,-2.4c-0.366,-0.95 -0.55,-2.041 -0.55,-3.275c0,-0.833 0.096,-1.7 0.287,-2.6l1.865,-9.25l-0.478,-0.35l-2.869,2.1l-3.013,-4.7l3.491,-2.45c0.606,-0.433 1.228,-0.75 1.865,-0.95c0.638,-0.2 1.275,-0.3 1.913,-0.3c0.702,0 1.371,0.125 2.009,0.375c0.637,0.25 1.195,0.6 1.673,1.05c0.479,0.45 0.861,1 1.148,1.65c0.287,0.65 0.431,1.392 0.431,2.225c-0,0.467 -0.048,0.967 -0.144,1.5l-1.721,8.3Z" style="fill:rgb(244,244,245);fill-rule:nonzero;"/>
        </g>
        <path d="M960.835,492.661l-21.376,-5.597l5.597,-21.377" style="fill:none;stroke:rgb(230,33,109);stroke-width:10.42px;stroke-linejoin:miter;stroke-miterlimit:10;"/>
        <path d="M866.899,490.783c-23.156,-12.001 -38.995,-36.193 -38.995,-64.054c-0,-39.791 32.305,-72.096 72.096,-72.096c39.791,-0 72.096,32.305 72.096,72.096c0,25.23 -12.988,47.451 -32.637,60.335" style="fill:none;stroke:rgb(230,33,109);stroke-width:10.42px;"/>
        <path d="M775.359,570.019l-21.376,-5.597l5.597,-21.377" style="fill:none;stroke:rgb(64,140,148);stroke-width:10.42px;stroke-linejoin:miter;stroke-miterlimit:10;"/>
        <path d="M681.424,568.141c-23.157,-12.001 -38.996,-36.193 -38.996,-64.054c0,-39.791 32.305,-72.096 72.096,-72.096c39.791,-0 72.096,32.305 72.096,72.096c0,25.23 -12.988,47.451 -32.637,60.335" style="fill:none;stroke:rgb(64,140,148);stroke-width:10.42px;"/>
        <path d="M1146.07,570.019l-21.376,-5.597l5.597,-21.377" style="fill:none;stroke:rgb(64,140,148);stroke-width:10.42px;stroke-linejoin:miter;stroke-miterlimit:10;"/>
        <path d="M1052.13,568.141c-23.156,-12.001 -38.995,-36.193 -38.995,-64.054c0,-39.791 32.305,-72.096 72.096,-72.096c39.791,-0 72.096,32.305 72.096,72.096c0,25.23 -12.988,47.451 -32.637,60.335" style="fill:none;stroke:rgb(64,140,148);stroke-width:10.42px;"/>
        <g>
            <rect x="1217.35" y="436.807" width="329.875" height="136.15" style="fill:rgb(64,140,148);stroke:rgb(64,140,148);stroke-width:10.42px;"/>
            <g transform="matrix(0.956466,0,0,1,950.838,-2317.13)">
                <g transform="matrix(50,0,0,50,299.213,2814.69)">
                    <path d="M0.165,-0.7l0.421,0l0,0.126l-0.316,0l-0.034,0.16l0.283,0l0,0.126l-0.31,0l-0.061,0.288l-0.132,-0l0.149,-0.7Z" style="fill:rgb(244,244,245);fill-rule:nonzero;"/>
                </g>
                <g transform="matrix(50,0,0,50,329.813,2814.69)">
                    <path d="M0.178,-0.378l-0.01,-0.006l-0.079,0.058l-0.067,-0.09l0.08,-0.06c0.015,-0.011 0.032,-0.02 0.049,-0.026c0.017,-0.005 0.033,-0.008 0.048,-0.008c0.027,0 0.05,0.007 0.07,0.022c0.02,0.015 0.032,0.035 0.036,0.062l0.018,0c0.013,-0.028 0.032,-0.049 0.056,-0.063c0.024,-0.014 0.051,-0.021 0.081,-0.021c0.038,0 0.069,0.012 0.093,0.035c0.023,0.024 0.035,0.057 0.035,0.099c0,0.009 -0,0.017 -0.001,0.025c-0.001,0.009 -0.003,0.019 -0.006,0.031l-0.005,0.022l-0.134,0.01l0.003,-0.014c0.002,-0.01 0.003,-0.019 0.003,-0.027c0,-0.019 -0.005,-0.035 -0.016,-0.046c-0.011,-0.011 -0.027,-0.017 -0.048,-0.017c-0.027,-0 -0.048,0.009 -0.063,0.027c-0.016,0.018 -0.028,0.044 -0.035,0.077l-0.036,0.168l0.12,-0l0,0.12l-0.342,-0l0,-0.12l0.096,-0l0.054,-0.258Z" style="fill:rgb(244,244,245);fill-rule:nonzero;"/>
                </g>
                <g transform="matrix(50,0,0,50,360.413,2814.69)">
                    <path d="M0.165,-0.207c-0.001,0.005 -0.002,0.011 -0.002,0.017c0,0.024 0.009,0.044 0.027,0.06c0.019,0.016 0.043,0.024 0.073,0.024c0.031,0 0.056,-0.006 0.075,-0.017c0.019,-0.011 0.033,-0.025 0.043,-0.04l0.1,0.063c-0.008,0.013 -0.018,0.027 -0.031,0.04c-0.014,0.013 -0.029,0.026 -0.048,0.037c-0.019,0.011 -0.042,0.02 -0.067,0.027c-0.026,0.007 -0.056,0.01 -0.09,0.01c-0.031,0 -0.059,-0.005 -0.084,-0.014c-0.026,-0.01 -0.048,-0.023 -0.066,-0.04c-0.019,-0.017 -0.033,-0.038 -0.043,-0.062c-0.011,-0.023 -0.016,-0.049 -0.016,-0.078c0,-0.045 0.007,-0.088 0.021,-0.128c0.013,-0.04 0.033,-0.075 0.059,-0.105c0.026,-0.03 0.058,-0.054 0.096,-0.071c0.038,-0.017 0.082,-0.026 0.131,-0.026c0.035,0 0.065,0.005 0.091,0.017c0.025,0.011 0.046,0.025 0.063,0.043c0.017,0.019 0.029,0.04 0.038,0.063c0.008,0.023 0.012,0.047 0.012,0.072c0,0.008 -0,0.016 -0.001,0.025c-0.001,0.008 -0.003,0.019 -0.006,0.032l-0.011,0.051l-0.364,0Zm0.158,-0.189c-0.031,-0 -0.058,0.008 -0.081,0.024c-0.023,0.015 -0.041,0.034 -0.052,0.057l0.234,0c0,-0.025 -0.008,-0.045 -0.023,-0.059c-0.016,-0.015 -0.042,-0.022 -0.078,-0.022Z" style="fill:rgb(244,244,245);fill-rule:nonzero;"/>
                </g>
                <g transform="matrix(50,0,0,50,391.013,2814.69)">
                    <path d="M0.256,-0.106c0.024,0 0.046,-0.005 0.066,-0.015c0.02,-0.01 0.037,-0.023 0.052,-0.041c0.015,-0.016 0.026,-0.036 0.034,-0.058c0.008,-0.022 0.012,-0.045 0.012,-0.069c-0,-0.032 -0.009,-0.057 -0.028,-0.074c-0.018,-0.018 -0.043,-0.027 -0.076,-0.027c-0.024,0 -0.046,0.005 -0.067,0.016c-0.02,0.01 -0.037,0.024 -0.051,0.041c-0.015,0.017 -0.026,0.036 -0.034,0.058c-0.008,0.022 -0.012,0.045 -0.012,0.069c0,0.033 0.009,0.058 0.027,0.075c0.019,0.017 0.044,0.025 0.077,0.025Zm0.122,0.034l-0.018,0c-0.007,0.011 -0.016,0.022 -0.025,0.033c-0.009,0.01 -0.02,0.019 -0.033,0.027c-0.013,0.008 -0.029,0.014 -0.047,0.019c-0.018,0.005 -0.039,0.007 -0.063,0.007c-0.023,0 -0.045,-0.004 -0.065,-0.013c-0.021,-0.009 -0.039,-0.021 -0.054,-0.037c-0.016,-0.016 -0.028,-0.035 -0.037,-0.058c-0.009,-0.023 -0.014,-0.048 -0.014,-0.076c0,-0.045 0.006,-0.087 0.019,-0.128c0.012,-0.041 0.03,-0.078 0.054,-0.109c0.024,-0.031 0.053,-0.056 0.088,-0.075c0.035,-0.019 0.074,-0.028 0.119,-0.028c0.041,0 0.071,0.008 0.092,0.025c0.02,0.017 0.034,0.037 0.041,0.061l0.018,0l0.015,-0.072l0.126,0l-0.123,0.575l0.01,0.007l0.056,-0.038l0.063,0.094l-0.067,0.044c-0.013,0.009 -0.027,0.016 -0.041,0.02c-0.015,0.004 -0.029,0.006 -0.042,0.006c-0.03,-0 -0.055,-0.01 -0.076,-0.029c-0.021,-0.019 -0.032,-0.045 -0.032,-0.078c0,-0.009 0.001,-0.02 0.004,-0.033l0.032,-0.144Z" style="fill:rgb(244,244,245);fill-rule:nonzero;"/>
                </g>
                <g transform="matrix(50,0,0,50,421.613,2814.69)">
                    <path d="M0.223,-0.496l-0.062,0.288c-0.003,0.011 -0.004,0.022 -0.004,0.033c0,0.025 0.007,0.044 0.021,0.056c0.014,0.013 0.033,0.019 0.056,0.019c0.035,-0 0.063,-0.012 0.082,-0.035c0.019,-0.023 0.033,-0.055 0.042,-0.097l0.056,-0.264l0.126,0l-0.082,0.378l0.011,0.006l0.036,-0.026l0.063,0.092l-0.047,0.034c-0.013,0.009 -0.026,0.016 -0.04,0.02c-0.013,0.004 -0.027,0.006 -0.04,0.006c-0.027,-0 -0.051,-0.008 -0.072,-0.024c-0.021,-0.015 -0.032,-0.038 -0.035,-0.068l-0.018,-0c-0.015,0.034 -0.035,0.058 -0.06,0.071c-0.025,0.014 -0.053,0.021 -0.084,0.021c-0.043,-0 -0.079,-0.013 -0.106,-0.04c-0.027,-0.026 -0.041,-0.063 -0.041,-0.11c-0,-0.017 0.002,-0.035 0.006,-0.054l0.066,-0.306l0.126,0Z" style="fill:rgb(244,244,245);fill-rule:nonzero;"/>
                </g>
                <g transform="matrix(50,0,0,50,452.213,2814.69)">
                    <path d="M0.165,-0.207c-0.001,0.005 -0.002,0.011 -0.002,0.017c0,0.024 0.009,0.044 0.027,0.06c0.019,0.016 0.043,0.024 0.073,0.024c0.031,0 0.056,-0.006 0.075,-0.017c0.019,-0.011 0.033,-0.025 0.043,-0.04l0.1,0.063c-0.008,0.013 -0.018,0.027 -0.031,0.04c-0.014,0.013 -0.029,0.026 -0.048,0.037c-0.019,0.011 -0.042,0.02 -0.067,0.027c-0.026,0.007 -0.056,0.01 -0.09,0.01c-0.031,0 -0.059,-0.005 -0.084,-0.014c-0.026,-0.01 -0.048,-0.023 -0.066,-0.04c-0.019,-0.017 -0.033,-0.038 -0.043,-0.062c-0.011,-0.023 -0.016,-0.049 -0.016,-0.078c0,-0.045 0.007,-0.088 0.021,-0.128c0.013,-0.04 0.033,-0.075 0.059,-0.105c0.026,-0.03 0.058,-0.054 0.096,-0.071c0.038,-0.017 0.082,-0.026 0.131,-0.026c0.035,0 0.065,0.005 0.091,0.017c0.025,0.011 0.046,0.025 0.063,0.043c0.017,0.019 0.029,0.04 0.038,0.063c0.008,0.023 0.012,0.047 0.012,0.072c0,0.008 -0,0.016 -0.001,0.025c-0.001,0.008 -0.003,0.019 -0.006,0.032l-0.011,0.051l-0.364,0Zm0.158,-0.189c-0.031,-0 -0.058,0.008 -0.081,0.024c-0.023,0.015 -0.041,0.034 -0.052,0.057l0.234,0c0,-0.025 -0.008,-0.045 -0.023,-0.059c-0.016,-0.015 -0.042,-0.022 -0.078,-0.022Z" style="fill:rgb(244,244,245);fill-rule:nonzero;"/>
                </g>
                <g transform="matrix(50,0,0,50,482.813,2814.69)">
                    <path d="M0.379,-0.288c0.003,-0.013 0.004,-0.023 0.004,-0.032c0,-0.024 -0.007,-0.043 -0.021,-0.056c-0.014,-0.013 -0.033,-0.02 -0.057,-0.02c-0.03,0 -0.056,0.011 -0.077,0.032c-0.021,0.021 -0.036,0.05 -0.043,0.086l-0.059,0.278l-0.126,0l0.105,-0.496l0.121,0l-0.017,0.08l0.018,0c0.016,-0.033 0.037,-0.057 0.064,-0.072c0.026,-0.015 0.055,-0.022 0.087,-0.022c0.042,0 0.076,0.013 0.101,0.038c0.024,0.025 0.037,0.061 0.037,0.107c0,0.011 -0.001,0.021 -0.002,0.03c-0.001,0.009 -0.003,0.018 -0.005,0.029l-0.04,0.187l0.01,0.007l0.043,-0.03l0.063,0.094l-0.054,0.036c-0.025,0.017 -0.052,0.026 -0.081,0.026c-0.015,0 -0.029,-0.002 -0.042,-0.007c-0.013,-0.005 -0.025,-0.012 -0.035,-0.021c-0.01,-0.009 -0.018,-0.02 -0.024,-0.033c-0.006,-0.013 -0.009,-0.028 -0.009,-0.045c0,-0.009 0.001,-0.019 0.003,-0.03l0.036,-0.166Z" style="fill:rgb(244,244,245);fill-rule:nonzero;"/>
                </g>
                <g transform="matrix(50,0,0,50,513.413,2814.69)">
                    <path d="M0.534,-0.182c-0.019,0.059 -0.052,0.107 -0.1,0.142c-0.047,0.036 -0.111,0.054 -0.191,0.054c-0.029,-0 -0.057,-0.005 -0.083,-0.014c-0.026,-0.009 -0.049,-0.023 -0.068,-0.042c-0.019,-0.019 -0.035,-0.042 -0.046,-0.07c-0.011,-0.027 -0.016,-0.059 -0.016,-0.096c-0,-0.041 0.007,-0.08 0.021,-0.117c0.015,-0.037 0.036,-0.069 0.063,-0.096c0.027,-0.027 0.06,-0.049 0.099,-0.065c0.039,-0.016 0.083,-0.024 0.132,-0.024c0.036,0 0.068,0.005 0.095,0.016c0.027,0.011 0.05,0.025 0.068,0.043c0.018,0.019 0.032,0.04 0.041,0.065c0.009,0.025 0.014,0.051 0.014,0.078l-0.128,0.025c-0,-0.034 -0.009,-0.06 -0.026,-0.079c-0.017,-0.019 -0.044,-0.028 -0.082,-0.028c-0.024,0 -0.046,0.005 -0.067,0.014c-0.02,0.009 -0.038,0.021 -0.052,0.036c-0.016,0.016 -0.027,0.034 -0.036,0.055c-0.008,0.021 -0.012,0.044 -0.012,0.068c0,0.038 0.01,0.066 0.03,0.084c0.02,0.018 0.045,0.027 0.076,0.027c0.042,-0 0.075,-0.009 0.098,-0.028c0.023,-0.019 0.041,-0.045 0.053,-0.079l0.117,0.031Z" style="fill:rgb(244,244,245);fill-rule:nonzero;"/>
                </g>
                <g transform="matrix(50,0,0,50,544.013,2814.69)">
                    <path d="M0.228,-0.208c-0.001,0.005 -0.002,0.01 -0.003,0.015c-0.001,0.005 -0.001,0.011 -0.001,0.016c0,0.025 0.007,0.044 0.022,0.057c0.015,0.013 0.035,0.02 0.06,0.02c0.036,-0 0.064,-0.012 0.083,-0.035c0.019,-0.023 0.034,-0.057 0.043,-0.101l0.055,-0.26l0.126,0l-0.131,0.618c-0.005,0.023 -0.016,0.041 -0.033,0.056c-0.017,0.015 -0.037,0.022 -0.06,0.022l-0.29,0l0,-0.12l0.239,0c0.018,0 0.029,-0.01 0.033,-0.03l0.026,-0.122l-0.018,0c-0.015,0.03 -0.033,0.052 -0.056,0.066c-0.023,0.013 -0.051,0.02 -0.085,0.02c-0.02,0 -0.039,-0.003 -0.056,-0.01c-0.017,-0.007 -0.033,-0.017 -0.046,-0.03c-0.013,-0.013 -0.024,-0.029 -0.032,-0.048c-0.007,-0.02 -0.011,-0.041 -0.011,-0.066c0,-0.017 0.002,-0.034 0.006,-0.052l0.039,-0.185l-0.01,-0.007l-0.06,0.042l-0.063,-0.094l0.073,-0.049c0.013,-0.009 0.026,-0.015 0.039,-0.019c0.013,-0.004 0.027,-0.006 0.04,-0.006c0.015,0 0.029,0.003 0.042,0.007c0.013,0.005 0.025,0.013 0.035,0.022c0.01,0.009 0.018,0.019 0.024,0.032c0.006,0.013 0.009,0.028 0.009,0.045c0,0.009 -0.001,0.019 -0.003,0.03l-0.036,0.166Z" style="fill:rgb(244,244,245);fill-rule:nonzero;"/>
                </g>
                <g transform="matrix(50,0,0,50,299.213,2864.69)">
                    <path d="M0.431,-0.348c0.001,-0.005 0.002,-0.01 0.002,-0.014c0,-0.019 -0.009,-0.028 -0.027,-0.028c-0.011,0 -0.019,0.004 -0.024,0.011c-0.005,0.007 -0.009,0.015 -0.011,0.025l-0.076,0.354l-0.126,0l0.074,-0.348c0.001,-0.007 0.002,-0.011 0.002,-0.014c0,-0.019 -0.009,-0.028 -0.026,-0.028c-0.019,0 -0.031,0.012 -0.036,0.036l-0.076,0.354l-0.125,0l0.105,-0.496l0.126,0l-0.01,0.048l0.018,0c0.005,-0.021 0.015,-0.036 0.03,-0.046c0.015,-0.011 0.031,-0.016 0.05,-0.016c0.022,0 0.039,0.006 0.05,0.018c0.011,0.012 0.019,0.027 0.022,0.044l0.018,0c0.007,-0.018 0.019,-0.033 0.034,-0.044c0.015,-0.012 0.034,-0.018 0.058,-0.018c0.028,0 0.05,0.009 0.065,0.027c0.015,0.018 0.022,0.04 0.022,0.065c0,0.005 -0,0.009 -0,0.013c-0.001,0.003 -0.002,0.008 -0.003,0.013l-0.059,0.273l0.01,0.007l0.034,-0.024l0.063,0.094l-0.045,0.03c-0.013,0.009 -0.027,0.016 -0.04,0.02c-0.014,0.004 -0.028,0.006 -0.041,0.006c-0.015,0 -0.028,-0.002 -0.041,-0.007c-0.013,-0.005 -0.025,-0.013 -0.035,-0.022c-0.01,-0.009 -0.018,-0.021 -0.023,-0.034c-0.006,-0.014 -0.009,-0.03 -0.009,-0.047c0,-0.009 0.001,-0.021 0.004,-0.034l0.046,-0.218Z" style="fill:rgb(244,244,245);fill-rule:nonzero;"/>
                </g>
                <g transform="matrix(50,0,0,50,329.813,2864.69)">
                    <path d="M0.558,-0.31c0,0.047 -0.007,0.09 -0.02,0.13c-0.013,0.039 -0.033,0.073 -0.059,0.102c-0.026,0.029 -0.058,0.051 -0.098,0.067c-0.038,0.017 -0.084,0.025 -0.135,0.025c-0.029,-0 -0.057,-0.004 -0.082,-0.013c-0.026,-0.009 -0.049,-0.022 -0.068,-0.039c-0.019,-0.017 -0.035,-0.037 -0.046,-0.062c-0.011,-0.025 -0.017,-0.053 -0.017,-0.084c0,-0.051 0.008,-0.097 0.024,-0.138c0.016,-0.04 0.038,-0.074 0.066,-0.102c0.027,-0.028 0.06,-0.049 0.098,-0.064c0.037,-0.015 0.078,-0.022 0.121,-0.022c0.031,0 0.06,0.005 0.087,0.015c0.027,0.009 0.049,0.023 0.069,0.04c0.019,0.017 0.033,0.038 0.044,0.063c0.011,0.025 0.016,0.052 0.016,0.082Zm-0.293,0.206c0.024,-0.001 0.046,-0.006 0.066,-0.016c0.021,-0.01 0.038,-0.023 0.052,-0.04c0.015,-0.016 0.026,-0.035 0.034,-0.057c0.008,-0.022 0.012,-0.045 0.012,-0.07c-0,-0.035 -0.009,-0.061 -0.028,-0.079c-0.019,-0.017 -0.044,-0.026 -0.075,-0.026c-0.024,-0 -0.046,0.005 -0.066,0.016c-0.02,0.01 -0.037,0.023 -0.052,0.04c-0.015,0.018 -0.026,0.037 -0.034,0.059c-0.008,0.022 -0.012,0.045 -0.012,0.069c0,0.034 0.009,0.06 0.028,0.078c0.019,0.017 0.044,0.026 0.075,0.026Z" style="fill:rgb(244,244,245);fill-rule:nonzero;"/>
                </g>
                <g transform="matrix(50,0,0,50,360.413,2864.69)">
                    <path d="M0.479,-0.119l0.01,0.007l0.054,-0.038l0.063,0.094l-0.065,0.044c-0.014,0.009 -0.028,0.016 -0.042,0.02c-0.013,0.004 -0.027,0.006 -0.04,0.006c-0.025,-0 -0.048,-0.007 -0.068,-0.021c-0.02,-0.014 -0.033,-0.034 -0.038,-0.059l-0.018,0c-0.006,0.011 -0.013,0.022 -0.021,0.032c-0.008,0.009 -0.018,0.018 -0.03,0.025c-0.011,0.007 -0.025,0.012 -0.041,0.017c-0.015,0.004 -0.034,0.006 -0.055,0.006c-0.026,0 -0.05,-0.005 -0.072,-0.016c-0.022,-0.01 -0.041,-0.024 -0.058,-0.042c-0.016,-0.019 -0.029,-0.04 -0.038,-0.065c-0.009,-0.025 -0.014,-0.052 -0.014,-0.081c-0,-0.045 0.006,-0.086 0.018,-0.125c0.012,-0.039 0.029,-0.073 0.052,-0.101c0.023,-0.029 0.05,-0.052 0.083,-0.069c0.033,-0.017 0.071,-0.025 0.112,-0.025c0.035,0 0.064,0.008 0.086,0.024c0.022,0.016 0.036,0.037 0.043,0.062l0.018,0l0.061,-0.29l0.127,0l-0.062,0.29l-0.065,0.305Zm-0.242,0.013c0.024,0 0.045,-0.005 0.064,-0.014c0.019,-0.01 0.034,-0.023 0.046,-0.039c0.013,-0.016 0.022,-0.035 0.029,-0.056c0.007,-0.022 0.01,-0.045 0.01,-0.069c-0,-0.031 -0.009,-0.057 -0.027,-0.076c-0.018,-0.02 -0.042,-0.03 -0.072,-0.03c-0.024,0 -0.045,0.005 -0.064,0.015c-0.019,0.009 -0.034,0.022 -0.047,0.038c-0.013,0.016 -0.022,0.035 -0.029,0.056c-0.007,0.022 -0.01,0.045 -0.01,0.069c-0,0.028 0.008,0.053 0.024,0.074c0.017,0.021 0.042,0.032 0.076,0.032Z" style="fill:rgb(244,244,245);fill-rule:nonzero;"/>
                </g>
                <g transform="matrix(50,0,0,50,391.013,2864.69)">
                    <path d="M0.223,-0.496l-0.062,0.288c-0.003,0.011 -0.004,0.022 -0.004,0.033c0,0.025 0.007,0.044 0.021,0.056c0.014,0.013 0.033,0.019 0.056,0.019c0.035,-0 0.063,-0.012 0.082,-0.035c0.019,-0.023 0.033,-0.055 0.042,-0.097l0.056,-0.264l0.126,0l-0.082,0.378l0.011,0.006l0.036,-0.026l0.063,0.092l-0.047,0.034c-0.013,0.009 -0.026,0.016 -0.04,0.02c-0.013,0.004 -0.027,0.006 -0.04,0.006c-0.027,-0 -0.051,-0.008 -0.072,-0.024c-0.021,-0.015 -0.032,-0.038 -0.035,-0.068l-0.018,-0c-0.015,0.034 -0.035,0.058 -0.06,0.071c-0.025,0.014 -0.053,0.021 -0.084,0.021c-0.043,-0 -0.079,-0.013 -0.106,-0.04c-0.027,-0.026 -0.041,-0.063 -0.041,-0.11c-0,-0.017 0.002,-0.035 0.006,-0.054l0.066,-0.306l0.126,0Z" style="fill:rgb(244,244,245);fill-rule:nonzero;"/>
                </g>
                <g transform="matrix(50,0,0,50,421.613,2864.69)">
                    <path d="M0.373,-0.012c-0.013,0.009 -0.027,0.016 -0.041,0.02c-0.014,0.004 -0.028,0.006 -0.041,0.006c-0.015,0 -0.029,-0.002 -0.042,-0.008c-0.013,-0.005 -0.025,-0.012 -0.035,-0.021c-0.01,-0.009 -0.018,-0.02 -0.024,-0.033c-0.005,-0.012 -0.008,-0.027 -0.008,-0.043c0,-0.012 0.001,-0.024 0.004,-0.035l0.109,-0.455l-0.01,-0.007l-0.134,0.092l-0.063,-0.094l0.145,-0.098c0.013,-0.009 0.027,-0.016 0.041,-0.02c0.014,-0.004 0.028,-0.006 0.041,-0.006c0.015,0 0.029,0.002 0.042,0.007c0.013,0.005 0.025,0.012 0.035,0.021c0.01,0.009 0.018,0.02 0.024,0.033c0.005,0.013 0.008,0.028 0.008,0.044c-0,0.011 -0.001,0.022 -0.004,0.035l-0.109,0.455l0.01,0.007l0.134,-0.092l0.063,0.094l-0.145,0.098Z" style="fill:rgb(244,244,245);fill-rule:nonzero;"/>
                </g>
                <g transform="matrix(50,0,0,50,452.213,2864.69)">
                    <path d="M0.479,-0.119l0.01,0.007l0.048,-0.034l0.063,0.094l-0.059,0.04c-0.026,0.017 -0.053,0.026 -0.082,0.026c-0.025,0 -0.048,-0.007 -0.068,-0.021c-0.02,-0.014 -0.033,-0.034 -0.038,-0.059l-0.018,0c-0.006,0.011 -0.013,0.022 -0.021,0.032c-0.008,0.009 -0.018,0.018 -0.029,0.025c-0.012,0.007 -0.026,0.012 -0.041,0.017c-0.016,0.004 -0.035,0.006 -0.056,0.006c-0.026,0 -0.05,-0.005 -0.072,-0.015c-0.022,-0.011 -0.041,-0.025 -0.057,-0.043c-0.017,-0.019 -0.03,-0.04 -0.039,-0.065c-0.009,-0.025 -0.014,-0.052 -0.014,-0.081c0,-0.045 0.006,-0.086 0.018,-0.125c0.012,-0.039 0.029,-0.073 0.052,-0.101c0.023,-0.029 0.051,-0.052 0.084,-0.069c0.033,-0.017 0.07,-0.025 0.111,-0.025c0.037,0 0.066,0.007 0.087,0.022c0.021,0.015 0.036,0.034 0.043,0.058l0.018,0l0.014,-0.066l0.126,0l-0.08,0.377Zm-0.242,0.013c0.024,0 0.045,-0.005 0.064,-0.014c0.019,-0.01 0.034,-0.023 0.047,-0.039c0.012,-0.016 0.021,-0.035 0.028,-0.056c0.007,-0.022 0.01,-0.045 0.01,-0.069c0,-0.031 -0.009,-0.057 -0.027,-0.076c-0.018,-0.02 -0.042,-0.03 -0.072,-0.03c-0.024,0 -0.045,0.005 -0.064,0.015c-0.019,0.009 -0.034,0.022 -0.047,0.038c-0.013,0.016 -0.022,0.035 -0.029,0.056c-0.007,0.022 -0.01,0.045 -0.01,0.069c0,0.028 0.008,0.053 0.025,0.074c0.016,0.021 0.041,0.032 0.075,0.032Z" style="fill:rgb(244,244,245);fill-rule:nonzero;"/>
                </g>
                <g transform="matrix(50,0,0,50,482.813,2864.69)">
                    <path d="M0.218,-0.376l-0.14,0l0,-0.12l0.166,0l0.046,-0.218l0.126,0l-0.046,0.218l0.172,0l0,0.12l-0.198,0l-0.056,0.257l0.01,0.007l0.134,-0.092l0.063,0.094l-0.145,0.098c-0.025,0.017 -0.052,0.026 -0.081,0.026c-0.015,-0 -0.029,-0.003 -0.042,-0.008c-0.013,-0.005 -0.025,-0.012 -0.035,-0.021c-0.01,-0.009 -0.018,-0.021 -0.024,-0.034c-0.006,-0.013 -0.009,-0.028 -0.009,-0.045c-0,-0.005 0,-0.01 0.001,-0.015c0.001,-0.004 0.002,-0.01 0.003,-0.017l0.055,-0.25Z" style="fill:rgb(244,244,245);fill-rule:nonzero;"/>
                </g>
                <g transform="matrix(50,0,0,50,513.413,2864.69)">
                    <path d="M0.38,-0.012c-0.013,0.009 -0.027,0.016 -0.041,0.02c-0.014,0.004 -0.028,0.006 -0.041,0.006c-0.015,0 -0.029,-0.002 -0.042,-0.008c-0.013,-0.005 -0.025,-0.012 -0.035,-0.021c-0.01,-0.009 -0.018,-0.02 -0.024,-0.033c-0.005,-0.012 -0.008,-0.027 -0.008,-0.043c-0,-0.013 0.001,-0.024 0.004,-0.035l0.06,-0.251l-0.01,-0.007l-0.134,0.092l-0.063,-0.094l0.145,-0.098c0.013,-0.009 0.027,-0.016 0.041,-0.02c0.014,-0.004 0.028,-0.006 0.041,-0.006c0.015,0 0.029,0.003 0.042,0.007c0.013,0.005 0.025,0.013 0.035,0.022c0.01,0.009 0.018,0.019 0.024,0.032c0.005,0.013 0.008,0.028 0.008,0.044c-0,0.013 -0.001,0.024 -0.004,0.035l-0.06,0.251l0.01,0.007l0.134,-0.092l0.063,0.094l-0.145,0.098Zm0.087,-0.631c0,0.013 -0.003,0.026 -0.008,0.037c-0.004,0.012 -0.011,0.022 -0.02,0.03c-0.009,0.009 -0.019,0.015 -0.03,0.02c-0.012,0.005 -0.024,0.008 -0.037,0.008c-0.013,-0 -0.026,-0.003 -0.037,-0.008c-0.011,-0.005 -0.021,-0.011 -0.03,-0.02c-0.009,-0.008 -0.016,-0.018 -0.021,-0.03c-0.005,-0.011 -0.007,-0.024 -0.007,-0.037c0,-0.013 0.003,-0.026 0.008,-0.037c0.005,-0.012 0.011,-0.022 0.02,-0.03c0.009,-0.009 0.019,-0.015 0.03,-0.02c0.011,-0.005 0.024,-0.008 0.037,-0.008c0.013,0 0.025,0.003 0.036,0.008c0.012,0.005 0.022,0.011 0.031,0.02c0.009,0.008 0.016,0.018 0.02,0.03c0.005,0.011 0.008,0.024 0.008,0.037Z" style="fill:rgb(244,244,245);fill-rule:nonzero;"/>
                </g>
                <g transform="matrix(50,0,0,50,544.013,2864.69)">
                    <path d="M0.558,-0.31c0,0.047 -0.007,0.09 -0.02,0.13c-0.013,0.039 -0.033,0.073 -0.059,0.102c-0.026,0.029 -0.058,0.051 -0.098,0.067c-0.038,0.017 -0.084,0.025 -0.135,0.025c-0.029,-0 -0.057,-0.004 -0.082,-0.013c-0.026,-0.009 -0.049,-0.022 -0.068,-0.039c-0.019,-0.017 -0.035,-0.037 -0.046,-0.062c-0.011,-0.025 -0.017,-0.053 -0.017,-0.084c0,-0.051 0.008,-0.097 0.024,-0.138c0.016,-0.04 0.038,-0.074 0.066,-0.102c0.027,-0.028 0.06,-0.049 0.098,-0.064c0.037,-0.015 0.078,-0.022 0.121,-0.022c0.031,0 0.06,0.005 0.087,0.015c0.027,0.009 0.049,0.023 0.069,0.04c0.019,0.017 0.033,0.038 0.044,0.063c0.011,0.025 0.016,0.052 0.016,0.082Zm-0.293,0.206c0.024,-0.001 0.046,-0.006 0.066,-0.016c0.021,-0.01 0.038,-0.023 0.052,-0.04c0.015,-0.016 0.026,-0.035 0.034,-0.057c0.008,-0.022 0.012,-0.045 0.012,-0.07c-0,-0.035 -0.009,-0.061 -0.028,-0.079c-0.019,-0.017 -0.044,-0.026 -0.075,-0.026c-0.024,-0 -0.046,0.005 -0.066,0.016c-0.02,0.01 -0.037,0.023 -0.052,0.04c-0.015,0.018 -0.026,0.037 -0.034,0.059c-0.008,0.022 -0.012,0.045 -0.012,0.069c0,0.034 0.009,0.06 0.028,0.078c0.019,0.017 0.044,0.026 0.075,0.026Z" style="fill:rgb(244,244,245);fill-rule:nonzero;"/>
                </g>
                <g transform="matrix(50,0,0,50,574.613,2864.69)">
                    <path d="M0.379,-0.288c0.003,-0.013 0.004,-0.023 0.004,-0.032c0,-0.024 -0.007,-0.043 -0.021,-0.056c-0.014,-0.013 -0.033,-0.02 -0.057,-0.02c-0.03,0 -0.056,0.011 -0.077,0.032c-0.021,0.021 -0.036,0.05 -0.043,0.086l-0.059,0.278l-0.126,0l0.105,-0.496l0.121,0l-0.017,0.08l0.018,0c0.016,-0.033 0.037,-0.057 0.064,-0.072c0.026,-0.015 0.055,-0.022 0.087,-0.022c0.042,0 0.076,0.013 0.101,0.038c0.024,0.025 0.037,0.061 0.037,0.107c0,0.011 -0.001,0.021 -0.002,0.03c-0.001,0.009 -0.003,0.018 -0.005,0.029l-0.04,0.187l0.01,0.007l0.043,-0.03l0.063,0.094l-0.054,0.036c-0.025,0.017 -0.052,0.026 -0.081,0.026c-0.015,0 -0.029,-0.002 -0.042,-0.007c-0.013,-0.005 -0.025,-0.012 -0.035,-0.021c-0.01,-0.009 -0.018,-0.02 -0.024,-0.033c-0.006,-0.013 -0.009,-0.028 -0.009,-0.045c0,-0.009 0.001,-0.019 0.003,-0.03l0.036,-0.166Z" style="fill:rgb(244,244,245);fill-rule:nonzero;"/>
                </g>
            </g>
        </g>
        <g id="Tall-Trimmer6" serif:id="Tall Trimmer">
            <path d="M798.56,755.695c-11.449,6.61 -26.111,2.682 -32.721,-8.767c-6.61,-11.449 -2.681,-26.11 8.768,-32.72c11.449,-6.61 26.11,-2.682 32.72,8.767c6.61,11.449 2.681,26.11 -8.767,32.72Z" style="fill:rgb(131,133,136);"/>
            <path d="M796.538,756.862l4.043,-2.334l-6.42,-11.119l-4.042,2.334l6.419,11.119Z" style="fill:white;"/>
        </g>
        <g id="Tall-Trimmer7" serif:id="Tall Trimmer">
            <path d="M1020.93,755.696c-11.448,6.61 -26.11,2.681 -32.72,-8.767c-6.61,-11.449 -2.681,-26.111 8.768,-32.721c11.448,-6.61 26.11,-2.681 32.72,8.768c6.61,11.448 2.681,26.11 -8.768,32.72Z" style="fill:rgb(131,133,136);"/>
            <path d="M1018.91,756.863l4.042,-2.334l-6.419,-11.119l-4.042,2.334l6.419,11.119Z" style="fill:white;"/>
        </g>
    </g>
</svg>
