<?xml version="1.0" encoding="UTF-8" standalone="no"?>
<!DOCTYPE svg PUBLIC "-//W3C//DTD SVG 1.1//EN" "http://www.w3.org/Graphics/SVG/1.1/DTD/svg11.dtd">
<svg width="100%" height="100%" viewBox="0 0 1801 1200" version="1.1" xmlns="http://www.w3.org/2000/svg" xmlns:xlink="http://www.w3.org/1999/xlink" xml:space="preserve" xmlns:serif="http://www.serif.com/" style="fill-rule:evenodd;clip-rule:evenodd;stroke-linecap:round;stroke-linejoin:round;stroke-miterlimit:1.5;">
    <rect id="_7---Patch-1" serif:id="7 - Patch 1" x="0.129" y="0" width="1800" height="1200" style="fill:none;"/>
    <clipPath id="_clip1">
        <rect id="_7---Patch-11" serif:id="7 - Patch 1" x="0.129" y="0" width="1800" height="1200"/>
    </clipPath>
    <g clip-path="url(#_clip1)">
        <g id="Base">
            <rect x="617.486" y="87.011" width="565.286" height="1025.98" style="fill:white;"/>
            <rect id="Outline" x="617.486" y="87.011" width="565.286" height="1025.98" style="fill:none;stroke:rgb(12,12,12);stroke-width:4.17px;"/>
            <path id="Mounting-holes" serif:id="Mounting holes" d="M693.337,1089.04c-0,-7.711 -6.261,-13.972 -13.973,-13.972l-3.992,0c-7.711,0 -13.972,6.261 -13.972,13.972c-0,7.712 6.261,13.973 13.972,13.973l3.992,-0c7.712,-0 13.973,-6.261 13.973,-13.973Zm-0,-978.072c-0,-7.712 -6.261,-13.973 -13.973,-13.973l-3.992,0c-7.711,0 -13.972,6.261 -13.972,13.973c-0,7.711 6.261,13.972 13.972,13.972l3.992,-0c7.712,-0 13.973,-6.261 13.973,-13.972Zm446.161,978.072c-0,-7.711 -6.261,-13.972 -13.973,-13.972l-3.992,0c-7.711,0 -13.972,6.261 -13.972,13.972c-0,7.712 6.261,13.973 13.972,13.973l3.992,-0c7.712,-0 13.973,-6.261 13.973,-13.973Zm-0,-978.072c-0,-7.712 -6.261,-13.973 -13.973,-13.973l-3.992,0c-7.711,0 -13.972,6.261 -13.972,13.973c-0,7.711 6.261,13.972 13.972,13.972l3.992,-0c7.712,-0 13.973,-6.261 13.973,-13.972Z" style="fill:rgb(213,213,213);"/>
            <g id="Legend">
                <path d="M685.668,1037.72c-0.052,1.129 0.314,1.681 1.097,1.656c0.475,-0 0.835,-0.084 1.078,-0.251l0,3.043c-0.295,0.102 -0.68,0.167 -1.155,0.192c-0.5,0.052 -0.918,0.077 -1.251,0.077c-0.925,-0.025 -1.65,-0.366 -2.176,-1.02c-0.578,-0.629 -0.867,-1.393 -0.867,-2.292l-0.077,0c-1.604,2.208 -3.799,3.312 -6.585,3.312c-2.991,-0.051 -5.224,-1.123 -6.7,-3.215c-1.502,-2.028 -2.253,-4.461 -2.253,-7.298c-0,-2.901 0.725,-5.398 2.176,-7.49c1.437,-2.131 3.709,-3.222 6.816,-3.273c2.76,-0 4.929,1.117 6.508,3.35l0.077,0l-0,-2.965l3.312,-0l-0,16.174Zm-9.377,1.887c1.027,-0 1.906,-0.238 2.638,-0.713c0.706,-0.449 1.296,-1.052 1.771,-1.81c0.924,-1.553 1.386,-3.26 1.386,-5.121c0,-2.08 -0.423,-3.909 -1.27,-5.488c-0.86,-1.604 -2.427,-2.432 -4.699,-2.484c-2.015,0.052 -3.485,0.867 -4.409,2.446c-0.924,1.553 -1.386,3.273 -1.386,5.16c-0,2.002 0.462,3.806 1.386,5.41c0.924,1.682 2.452,2.548 4.583,2.6Z" style="fill:rgb(131,133,136);fill-rule:nonzero;"/>
                <path d="M674.024,363.039c-0.058,1.291 0.36,1.922 1.255,1.893c0.542,-0 0.953,-0.096 1.232,-0.286l-0,3.476c-0.337,0.118 -0.778,0.191 -1.32,0.22c-0.572,0.059 -1.049,0.088 -1.431,0.088c-1.056,-0.029 -1.885,-0.418 -2.486,-1.166c-0.66,-0.719 -0.991,-1.592 -0.991,-2.618l-0.088,-0c-1.833,2.523 -4.342,3.784 -7.525,3.784c-3.418,-0.058 -5.971,-1.283 -7.658,-3.674c-1.717,-2.318 -2.575,-5.098 -2.575,-8.34c0,-3.316 0.829,-6.169 2.487,-8.56c1.643,-2.436 4.239,-3.683 7.79,-3.741c3.154,-0 5.633,1.276 7.437,3.829l0.088,-0l0,-3.389l3.785,-0l0,18.484Zm-10.716,2.157c1.173,-0 2.178,-0.272 3.015,-0.815c0.806,-0.513 1.481,-1.202 2.024,-2.068c1.056,-1.775 1.584,-3.726 1.584,-5.853c0,-2.377 -0.484,-4.467 -1.452,-6.272c-0.983,-1.834 -2.773,-2.78 -5.369,-2.839c-2.303,0.059 -3.983,0.991 -5.039,2.795c-1.057,1.775 -1.585,3.741 -1.585,5.897c0,2.289 0.528,4.35 1.585,6.184c1.056,1.922 2.802,2.912 5.237,2.971Z" style="fill:rgb(131,133,136);fill-rule:nonzero;"/>
                <path d="M1114.09,1058.33l-3.505,-0l0,-27.034c0,-6.046 2.972,-9.127 8.915,-9.242c2.336,-0 4.281,0.578 5.834,1.733c1.554,1.194 2.343,2.894 2.369,5.102c-0.026,3.466 -1.631,5.687 -4.814,6.662l0,0.077c4.018,0.629 6.059,2.978 6.123,7.048c-0.026,2.4 -0.738,4.377 -2.137,5.93c-1.451,1.566 -3.408,2.362 -5.873,2.388c-1.502,-0 -2.766,-0.219 -3.793,-0.655c-1.053,-0.449 -2.092,-1.239 -3.119,-2.368l-0,10.359Zm0.057,-17.233c0,0.924 0.09,1.81 0.27,2.657c0.18,0.809 0.481,1.553 0.905,2.233c0.449,0.668 1.078,1.181 1.887,1.541c0.796,0.423 1.81,0.635 3.042,0.635c1.656,0 2.946,-0.539 3.87,-1.617c0.886,-1.027 1.329,-2.356 1.329,-3.986c-0.026,-1.938 -0.629,-3.318 -1.81,-4.14c-1.181,-0.757 -2.651,-1.136 -4.409,-1.136c-0.668,0.026 -1.342,0.064 -2.022,0.116l-0,-2.965c0.578,-0 1.13,-0.013 1.656,-0.039c1.476,-0.026 2.728,-0.43 3.754,-1.213c1.002,-0.77 1.515,-2.009 1.541,-3.716c-0.077,-3.042 -1.695,-4.563 -4.852,-4.563c-1.823,0.025 -3.139,0.564 -3.948,1.617c-0.808,1.078 -1.213,2.535 -1.213,4.371l0,10.205Z" style="fill:rgb(131,133,136);fill-rule:nonzero;"/>
                <path d="M1124.52,378.168l-4.005,-0l0,-30.896c0,-6.909 3.396,-10.43 10.189,-10.562c2.67,-0 4.892,0.66 6.667,1.98c1.775,1.365 2.678,3.308 2.707,5.832c-0.029,3.961 -1.863,6.499 -5.501,7.614l-0,0.088c4.591,0.718 6.924,3.403 6.997,8.054c-0.029,2.743 -0.843,5.002 -2.442,6.777c-1.658,1.79 -3.895,2.699 -6.712,2.729c-1.716,-0 -3.161,-0.25 -4.335,-0.748c-1.203,-0.514 -2.391,-1.416 -3.565,-2.707l0,11.839Zm0.066,-19.695c0,1.056 0.103,2.069 0.308,3.037c0.206,0.924 0.55,1.775 1.035,2.552c0.513,0.763 1.232,1.35 2.156,1.761c0.91,0.484 2.069,0.726 3.477,0.726c1.892,0 3.367,-0.616 4.423,-1.848c1.012,-1.174 1.518,-2.692 1.518,-4.556c-0.029,-2.215 -0.719,-3.792 -2.068,-4.731c-1.35,-0.865 -3.03,-1.298 -5.039,-1.298c-0.763,0.029 -1.533,0.073 -2.311,0.132l0,-3.389c0.66,0 1.291,-0.014 1.892,-0.044c1.688,-0.029 3.118,-0.491 4.292,-1.386c1.144,-0.88 1.731,-2.296 1.76,-4.247c-0.088,-3.477 -1.937,-5.215 -5.545,-5.215c-2.084,0.029 -3.587,0.645 -4.511,1.848c-0.925,1.232 -1.387,2.897 -1.387,4.995l0,11.663Z" style="fill:rgb(131,133,136);fill-rule:nonzero;"/>
                <path d="M902.528,511.447c2.655,-0.088 4.687,-0.909 6.096,-2.464c1.379,-1.599 2.068,-3.661 2.068,-6.184c-0.029,-5.398 -2.751,-8.34 -8.164,-8.824l0,17.472Zm-4.049,3.521c-3.506,-0.059 -6.433,-1.137 -8.78,-3.235c-2.406,-2.083 -3.638,-4.907 -3.697,-8.472c0,-3.843 1.108,-6.924 3.323,-9.242c2.2,-2.347 5.252,-3.535 9.154,-3.565l0,-3.653l4.049,0l0,3.653c3.946,0.03 7.012,1.218 9.198,3.565c2.171,2.318 3.272,5.399 3.301,9.242c-0.059,3.565 -1.276,6.389 -3.653,8.472c-2.347,2.098 -5.296,3.176 -8.846,3.235l0,3.653l-4.049,-0l0,-3.653Zm0,-20.993c-5.443,0.484 -8.164,3.426 -8.164,8.824c0,2.523 0.726,4.585 2.179,6.184c1.379,1.555 3.374,2.376 5.985,2.464l0,-17.472Z" style="fill:rgb(131,133,136);fill-rule:nonzero;"/>
                <g>
                    <path d="M726.958,583.871l-19.82,0.059l-0.125,-17.109l-6.688,0l-0,17.05" style="fill:none;stroke:rgb(131,133,136);stroke-width:6.25px;"/>
                    <path d="M721.965,569.891l4.03,4.03l-4.03,4.03" style="fill:none;stroke:rgb(131,133,136);stroke-width:4.23px;stroke-linejoin:miter;stroke-miterlimit:10;"/>
                    <path d="M707.192,573.921l18.803,0" style="fill:none;stroke:rgb(131,133,136);stroke-width:4.23px;stroke-dasharray:0.04,5.07,0,0;stroke-dashoffset:21.13;"/>
                </g>
                <g>
                    <path d="M1073.06,583.871l19.82,0.059l0.125,-17.109l6.689,0l-0,17.05" style="fill:none;stroke:rgb(131,133,136);stroke-width:6.25px;"/>
                    <path d="M1078.05,577.951l-4.03,-4.03l4.03,-4.03" style="fill:none;stroke:rgb(131,133,136);stroke-width:4.23px;stroke-linejoin:miter;stroke-miterlimit:10;"/>
                    <path d="M1092.83,573.921l-18.804,0" style="fill:none;stroke:rgb(131,133,136);stroke-width:4.23px;stroke-dasharray:0.04,5.07,0,0;stroke-dashoffset:21.13;"/>
                </g>
                <path d="M905.158,680.763l-0,-0.374l-7.988,-10.717l13.687,0l0,-5.017l-22.093,0l-0,3.345l9.858,12.565l-9.858,12.785l-0,3.323l22.731,-0l0,-4.929l-14.435,-0l8.098,-10.981Z" style="fill:rgb(131,133,136);fill-rule:nonzero;"/>
                <path d="M789.046,1021.25l-2.893,7.701l-7.264,0l6.14,4.621l-2.955,7.763l6.972,-5.245l6.994,5.245l-2.977,-7.763l6.141,-4.621l-7.285,0l-2.873,-7.701Z" style="fill:rgb(131,133,136);fill-rule:nonzero;"/>
                <path d="M1009.09,1019.89l-3.285,8.743l-8.247,0l6.971,5.246l-3.355,8.814l7.916,-5.954l7.94,5.954l-3.379,-8.814l6.971,-5.246l-8.271,0l-3.261,-8.743Zm-0,3.167l2.481,6.687l5.742,-0l-4.986,3.757l2.316,6.026l-5.553,-4.159l-5.553,4.159l2.315,-6.026l-4.986,-3.757l5.719,-0l2.505,-6.687Z" style="fill:rgb(131,133,136);fill-rule:nonzero;"/>
                <path d="M894.939,1024.22c-1.496,-0.198 -3.009,-0.528 -4.539,-0.99l0,-1.981c3.103,0.803 6.354,1.205 9.754,1.205c3.4,-0 6.635,-0.402 9.705,-1.205l-0,2.014c-1.574,0.429 -3.103,0.748 -4.589,0.957l0,14.127c1.486,0.209 3.015,0.523 4.589,0.941l-0,2.046c-3.07,-0.814 -6.305,-1.221 -9.705,-1.221c-3.4,0 -6.651,0.407 -9.754,1.221l0,-1.98c1.53,-0.484 3.043,-0.82 4.539,-1.007l0,-14.127Zm2.046,13.979c2.08,-0.231 4.159,-0.231 6.239,-0l-0,-13.831c-2.08,0.231 -4.159,0.231 -6.239,0l0,13.831Z" style="fill:rgb(131,133,136);fill-rule:nonzero;"/>
                <path d="M967.708,1087.67c-4.386,0.297 -6.233,3.205 -7.214,6.27c-0.863,2.695 -1.83,5.477 -2.884,6.907c-0.584,0.793 -1.234,1.201 -1.868,1.201c-0.628,-0 -1.089,-0.332 -1.384,-0.954c-0.449,-0.948 -0.438,-2.803 -0.318,-4.661c0.093,-1.458 0.237,-2.915 0.174,-3.848c-0.009,-0.135 -0.037,-0.288 -0.062,-0.402c-0.054,0.028 -0.108,0.066 -0.164,0.108c-0.207,0.156 -0.412,0.382 -0.619,0.651c-0.719,0.933 -1.43,2.348 -2.102,3.576c-0.574,1.047 -1.131,1.964 -1.629,2.425c-0.338,0.313 -0.68,0.453 -0.988,0.453c-0.581,-0 -0.999,-0.354 -1.16,-1.094c-0.206,-0.944 0.081,-2.798 0.418,-4.65c0.268,-1.467 0.556,-2.934 0.566,-3.873c0.002,-0.119 -0.012,-0.254 -0.026,-0.359c-0.08,0.047 -0.16,0.117 -0.246,0.196c-0.259,0.24 -0.517,0.585 -0.778,0.999c-0.87,1.375 -1.735,3.457 -2.525,5.266c-0.65,1.488 -1.258,2.798 -1.769,3.453c-0.366,0.47 -0.758,0.659 -1.064,0.659c-0.58,0 -0.979,-0.301 -1.207,-0.864c-0.313,-0.771 -0.197,-2.284 0.026,-3.796c0.138,-0.939 0.303,-1.877 0.373,-2.6c0.017,-0.177 0.019,-0.377 0.016,-0.539c-0.052,0.025 -0.107,0.054 -0.166,0.084c-0.479,0.242 -1.095,0.631 -1.795,1.063c-1.226,0.756 -2.696,1.62 -4.153,2.132c-0.297,1.175 -0.775,2.292 -1.407,3.162c-0.838,1.157 -1.945,1.887 -3.232,1.887c-1.133,-0 -1.837,-0.575 -2.285,-1.392c-0.377,-0.689 -0.553,-1.571 -0.66,-2.358c-0.049,-0.355 -0.113,-0.777 -0.159,-1.068c-0.232,0.101 -0.544,0.239 -0.824,0.371c-0.495,0.235 -1.072,0.493 -1.691,0.703c-0.26,1.227 -0.709,2.397 -1.31,3.304c-0.794,1.197 -1.857,1.943 -3.082,1.943c-1.089,0 -1.803,-0.605 -2.264,-1.489c-0.383,-0.733 -0.579,-1.674 -0.701,-2.513c-0.052,-0.358 -0.09,-0.695 -0.128,-0.982c-0.148,0.172 -0.306,0.373 -0.475,0.585c-0.498,0.629 -1.079,1.347 -1.73,1.826c-0.517,0.379 -1.08,0.613 -1.676,0.613c-1.073,-0 -1.91,-0.522 -2.521,-1.427c-0.503,-0.745 -0.846,-1.777 -1.037,-2.968c-0.877,0.64 -1.85,1.196 -2.802,1.701c-0.004,0.125 -0.012,0.249 -0.024,0.372c-0.128,1.326 -0.762,2.779 -1.573,3.73c-0.627,0.734 -1.372,1.164 -2.07,1.164c-0.364,-0 -0.788,-0.141 -1.16,-0.413c-0.531,-0.388 -0.95,-1.031 -0.95,-1.796c0,-0.772 0.582,-1.516 1.615,-2.195c0.773,-0.509 1.813,-1.014 2.915,-1.58c-0.068,-0.746 -0.294,-1.466 -0.658,-1.991c-0.273,-0.393 -0.623,-0.674 -1.065,-0.674c-1.366,-0 -2.274,0.792 -2.925,1.793c-0.73,1.122 -1.15,2.506 -1.47,3.542c-0.222,0.72 -0.412,1.292 -0.593,1.573c-0.219,0.341 -0.496,0.45 -0.731,0.45c-0.126,-0 -0.261,-0.033 -0.392,-0.132c-0.083,-0.062 -0.224,-0.217 -0.319,-0.512c-0.147,-0.459 -0.328,-1.593 -0.476,-3.114c-0.586,0.938 -1.163,1.794 -1.704,2.525c-0.862,1.165 -1.646,2.022 -2.239,2.437c-0.371,0.259 -0.705,0.367 -0.968,0.367c-1.145,-0 -1.788,-0.804 -1.986,-2.152c-0.224,-1.522 0.134,-3.826 0.481,-5.828c0.177,-1.017 0.347,-1.953 0.42,-2.651c0.02,-0.189 0.024,-0.399 0.022,-0.558c-0.528,0.044 -1.105,0.17 -1.688,0.297c-0.39,2.129 -1.582,4.678 -3.14,6.519c-1.315,1.555 -2.898,2.589 -4.447,2.589c-1.878,0 -3.235,-0.732 -4.159,-1.858c-1.166,0.976 -2.459,1.584 -3.745,1.584c-1.357,-0 -2.486,-1.031 -3.266,-2.806c-0.257,-0.584 -0.48,-1.251 -0.669,-1.979c-0.606,1.225 -1.219,2.338 -1.812,3.27c-0.707,1.113 -1.393,1.976 -2.004,2.492c-0.523,0.441 -1.022,0.646 -1.451,0.646c-0.929,0 -1.587,-0.632 -1.954,-1.765c-0.415,-1.284 -0.469,-3.289 -0.448,-5.296c0.02,-1.899 0.103,-3.798 -0.056,-5.014c-0.036,-0.274 -0.082,-0.507 -0.151,-0.688c-0.011,-0.029 -0.029,-0.064 -0.045,-0.093c-0.039,0.025 -0.076,0.067 -0.12,0.109c-0.17,0.162 -0.335,0.399 -0.503,0.686c-0.593,1.012 -1.172,2.595 -1.743,4.176c-0.703,1.944 -1.398,3.884 -2.061,4.876c-0.427,0.639 -0.912,0.929 -1.326,0.929c-0.476,-0 -0.885,-0.292 -1.118,-0.933c-0.298,-0.819 -0.317,-2.424 -0.306,-4.031c0.009,-1.26 0.029,-2.52 -0.119,-3.326c-0.024,-0.134 -0.079,-0.292 -0.114,-0.385c-0.282,0.06 -0.517,0.304 -0.759,0.612c-0.602,0.764 -1.125,1.963 -1.679,3.158c-0.605,1.303 -1.245,2.6 -2.005,3.434c-0.611,0.672 -1.308,1.062 -2.096,1.062c-1.255,0 -1.931,-0.89 -2.088,-2.46c-0.179,-1.801 0.33,-4.615 0.82,-7.428c0.176,-1.01 0.35,-2.02 0.483,-2.978c-0.226,0.044 -0.462,0.067 -0.706,0.067c-2.559,-0 -3.342,-2.393 -2.858,-4.35c0.335,-1.357 1.287,-2.417 2.507,-2.417c1.4,0 2.154,0.893 2.413,2.419c0.093,0.549 0.118,1.191 0.092,1.899c0.086,-0.117 0.166,-0.241 0.243,-0.371c0.621,-1.056 0.947,-2.466 0.989,-3.874c0.043,-1.405 -0.197,-2.812 -0.743,-3.866c-0.475,-0.918 -1.188,-1.562 -2.186,-1.562c-1.67,-0 -3.059,0.996 -4.134,2.552c-1.738,2.516 -2.648,6.468 -2.505,10.476c0.186,5.164 1.296,10.426 0.69,13.118c-0.194,0.858 -0.557,1.489 -1.092,1.869c-0.379,0.27 -0.849,0.424 -1.435,0.424c-1.009,-0 -1.887,-0.622 -2.608,-1.642c-0.915,-1.295 -1.602,-3.251 -2.152,-4.955c-0.346,-1.071 -0.636,-2.036 -0.905,-2.636c-0.011,-0.024 -0.023,-0.048 -0.036,-0.073l-0.03,0.044c-0.323,0.482 -0.686,1.26 -1.083,2.122c-0.751,1.627 -1.618,3.531 -2.513,4.531c-0.511,0.572 -1.06,0.871 -1.583,0.871c-0.615,0 -1.146,-0.419 -1.46,-1.321c-0.484,-1.391 -0.531,-4.184 -0.497,-7.347c0.041,-3.907 0.186,-8.402 -0.39,-11.371c-0.176,-0.907 -0.414,-1.662 -0.763,-2.187c-0.258,-0.39 -0.577,-0.634 -1.005,-0.634c-0.738,-0 -1.252,0.635 -1.667,1.487c-0.764,1.57 -1.09,3.92 -1.053,5.846c0.062,3.194 1.142,5.224 1.142,5.224c0.161,0.298 0.049,0.671 -0.25,0.832c-0.298,0.161 -0.671,0.049 -0.832,-0.25c0,0 -1.22,-2.244 -1.288,-5.782c-0.041,-2.113 0.338,-4.686 1.176,-6.408c0.655,-1.344 1.607,-2.178 2.772,-2.178c1.302,-0 2.226,1.027 2.739,2.823c0.64,2.237 0.715,5.731 0.687,9.226c-0.031,3.944 -0.196,7.887 0.271,9.898c0.067,0.287 0.145,0.528 0.245,0.712c0.055,0.102 0.084,0.202 0.173,0.202c0.128,-0 0.246,-0.077 0.372,-0.177c0.21,-0.167 0.415,-0.408 0.62,-0.696c0.711,-0.996 1.383,-2.505 1.988,-3.816c0.509,-1.104 0.98,-2.075 1.375,-2.56c0.315,-0.389 0.654,-0.537 0.92,-0.537c0.246,-0 0.543,0.121 0.795,0.477c0.254,0.358 0.532,1.086 0.832,2.003c0.537,1.642 1.19,3.942 2.142,5.518c0.52,0.862 1.095,1.525 1.866,1.525c0.593,0 0.955,-0.297 1.166,-0.808c0.186,-0.449 0.274,-1.029 0.307,-1.708c0.138,-2.843 -0.707,-7.267 -0.864,-11.622c-0.154,-4.295 0.86,-8.522 2.722,-11.219c1.327,-1.92 3.084,-3.082 5.145,-3.082c1.193,0 2.141,0.573 2.834,1.51c0.93,1.258 1.383,3.218 1.324,5.184c-0.06,1.961 -0.626,3.916 -1.651,5.171c-0.286,0.349 -0.606,0.647 -0.96,0.883c-0.137,1.18 -0.349,2.452 -0.571,3.725c-0.468,2.688 -0.979,5.375 -0.807,7.095c0.078,0.782 0.24,1.354 0.865,1.354c0.598,-0 1.061,-0.448 1.5,-1.044c0.55,-0.747 1.024,-1.745 1.486,-2.741c0.598,-1.29 1.178,-2.576 1.828,-3.401c0.554,-0.704 1.181,-1.096 1.862,-1.096c0.453,0 0.862,0.291 1.075,0.954c0.262,0.815 0.261,2.412 0.25,4.01c-0.009,1.253 -0.019,2.507 0.151,3.309c0.024,0.112 0.072,0.242 0.11,0.335c0.01,-0.009 0.019,-0.018 0.027,-0.026c0.152,-0.163 0.303,-0.402 0.459,-0.692c0.546,-1.016 1.105,-2.606 1.679,-4.194c0.707,-1.954 1.443,-3.903 2.178,-4.9c0.453,-0.614 0.956,-0.905 1.415,-0.905c0.475,-0 0.882,0.279 1.122,0.907c0.307,0.805 0.343,2.42 0.317,4.249c-0.032,2.178 -0.129,4.682 0.234,6.337c0.083,0.382 0.19,0.713 0.338,0.971c0.14,0.245 0.312,0.415 0.572,0.415c0.202,0 0.412,-0.148 0.658,-0.356c0.54,-0.456 1.135,-1.228 1.76,-2.212c0.798,-1.255 1.633,-2.846 2.437,-4.596c-0.28,-1.727 -0.412,-3.65 -0.401,-5.574c0.008,-1.439 0.097,-2.877 0.261,-4.234c-3.47,0.194 -5.197,0.495 -5.197,0.495c-0.268,0.047 -0.523,-0.132 -0.569,-0.4c-0.047,-0.267 0.132,-0.522 0.399,-0.568c0,-0 1.829,-0.321 5.503,-0.518c0.341,-2.218 0.893,-4.145 1.631,-5.386c0.668,-1.125 1.512,-1.725 2.435,-1.725c0.792,-0 1.345,0.488 1.58,1.468c0.242,1.011 0.114,2.678 -0.307,4.688c-0.055,0.263 -0.115,0.532 -0.18,0.807c2.33,-0.015 5.042,0.033 8.139,0.184c0.271,0.013 0.481,0.243 0.467,0.514c-0.013,0.271 -0.244,0.481 -0.514,0.467c-3.192,-0.155 -5.971,-0.2 -8.337,-0.18c-0.829,3.167 -2.176,6.888 -3.64,10.13c0.223,1.256 0.533,2.386 0.935,3.301c0.541,1.228 1.203,2.072 2.142,2.072c1.064,0 2.113,-0.557 3.068,-1.39c-0.883,-1.695 -1.089,-3.882 -0.802,-5.843c0.227,-1.552 0.762,-2.942 1.468,-3.811c0.566,-0.697 1.249,-1.078 1.975,-1.078c0.784,0 1.366,0.25 1.784,0.655c0.584,0.566 0.855,1.485 0.794,2.611c-0.123,2.251 -1.564,5.409 -3.566,7.569l-0.085,0.091c0.72,0.892 1.78,1.471 3.268,1.471c1.05,-0 2.085,-0.662 3.019,-1.615c1.523,-1.554 2.753,-3.905 3.247,-5.948l0.015,-0.062c-0.306,0.046 -0.606,0.075 -0.892,0.075c-1.945,-0 -2.706,-1.713 -2.397,-3.093c0.217,-0.967 0.94,-1.754 2.094,-1.754c0.782,0 1.367,0.253 1.793,0.667c0.579,0.564 0.865,1.476 0.843,2.592c0.677,-0.147 1.34,-0.284 1.925,-0.284c0.319,0 0.576,0.145 0.736,0.481c0.09,0.188 0.146,0.503 0.132,0.924c-0.026,0.741 -0.241,1.934 -0.471,3.259c-0.324,1.869 -0.685,4.018 -0.476,5.439c0.09,0.619 0.244,1.102 0.77,1.102c0.031,-0 0.063,-0.025 0.103,-0.046c0.112,-0.058 0.234,-0.147 0.368,-0.259c0.491,-0.413 1.09,-1.11 1.748,-2c0.793,-1.072 1.664,-2.417 2.528,-3.897c-0.262,-4.332 -0.181,-10.218 1.063,-13.477c0.667,-1.748 1.7,-2.771 3.038,-2.771c0.639,0 1.13,0.19 1.5,0.511c0.359,0.312 0.61,0.76 0.738,1.334c0.206,0.928 0.084,2.241 -0.304,3.77c-0.81,3.19 -2.76,7.395 -4.786,10.922c0.009,0.136 0.019,0.27 0.028,0.402c0.075,1.026 0.167,1.936 0.263,2.659c0.343,-1.112 0.809,-2.548 1.575,-3.725c0.873,-1.342 2.123,-2.352 3.955,-2.352c0.84,-0 1.555,0.455 2.074,1.203c0.39,0.562 0.667,1.298 0.803,2.082c0.963,-0.527 1.921,-1.116 2.742,-1.806c-0.014,-0.233 -0.023,-0.47 -0.027,-0.71c-0.06,-3.527 0.889,-7.667 2.371,-9.837c0.748,-1.096 1.654,-1.709 2.601,-1.709c0.549,-0 0.966,0.175 1.275,0.464c0.413,0.387 0.644,1.022 0.633,1.854c-0.033,2.517 -2.327,7.191 -5.378,10.252c-0.067,0.067 -0.135,0.133 -0.205,0.199c0.1,1.029 0.309,1.956 0.65,2.686c0.392,0.836 0.957,1.399 1.791,1.399c0.443,-0 0.836,-0.258 1.205,-0.582c0.461,-0.405 0.872,-0.928 1.238,-1.39c0.403,-0.51 0.767,-0.952 1.072,-1.177c0.244,-0.179 0.481,-0.254 0.691,-0.254c0.211,-0 0.422,0.08 0.588,0.313c0.062,0.087 0.127,0.219 0.175,0.396c0.061,0.226 0.109,0.573 0.162,0.987c0.093,0.743 0.206,1.735 0.532,2.54c0.247,0.612 0.614,1.127 1.311,1.127c0.836,0 1.516,-0.577 2.058,-1.393c0.425,-0.642 0.76,-1.433 0.992,-2.281c-0.307,0.051 -0.617,0.079 -0.926,0.079c-3.118,0 -4.288,-2.793 -3.861,-5.049c0.299,-1.578 1.373,-2.846 3,-2.846c2.144,-0 3.281,2.052 3.383,4.634c0.019,0.474 0.004,0.963 -0.042,1.455c0.538,-0.221 1.024,-0.465 1.42,-0.653c0.551,-0.263 0.983,-0.415 1.21,-0.415c0.262,-0 0.511,0.114 0.687,0.425c0.12,0.212 0.21,0.642 0.278,1.186c0.085,0.682 0.169,1.594 0.477,2.334c0.235,0.563 0.615,1.021 1.335,1.021c0.904,-0 1.648,-0.566 2.238,-1.379c0.426,-0.588 0.77,-1.305 1.022,-2.074c-0.311,0.052 -0.617,0.081 -0.916,0.081c-3.1,-0 -4.346,-2.798 -3.86,-5.051c0.334,-1.55 1.468,-2.824 3.319,-2.824c2.067,0 3.154,2.019 3.187,4.565c0.006,0.476 -0.023,0.968 -0.086,1.462c1.144,-0.487 2.273,-1.18 3.243,-1.778c0.867,-0.535 1.614,-1.004 2.149,-1.239c0.32,-0.141 0.59,-0.204 0.792,-0.204c0.402,-0 0.747,0.227 0.865,0.806c0.103,0.508 -0.016,1.531 -0.195,2.687c-0.203,1.317 -0.468,2.831 -0.38,3.832c0.014,0.158 0.036,0.301 0.074,0.423c0.016,0.051 0.02,0.105 0.041,0.137c0.043,-0.041 0.104,-0.103 0.147,-0.158c0.124,-0.16 0.253,-0.366 0.389,-0.607c0.567,-1.008 1.217,-2.584 1.909,-4.158c0.847,-1.93 1.765,-3.853 2.651,-4.837c0.51,-0.567 1.046,-0.849 1.54,-0.849c0.361,-0 0.638,0.161 0.829,0.486c0.143,0.244 0.23,0.649 0.224,1.179c-0.011,0.989 -0.304,2.534 -0.586,4.079c-0.264,1.451 -0.521,2.902 -0.468,3.831c0.008,0.138 0.044,0.299 0.072,0.404c0.028,-0.02 0.059,-0.044 0.082,-0.065c0.109,-0.101 0.22,-0.232 0.334,-0.385c0.509,-0.679 1.058,-1.742 1.633,-2.803c0.615,-1.135 1.258,-2.266 1.896,-2.992c0.553,-0.628 1.139,-0.965 1.682,-0.965c0.422,0 0.787,0.244 0.966,0.829c0.193,0.629 0.153,1.891 0.054,3.32c-0.115,1.666 -0.292,3.582 -0.086,4.848c0.045,0.276 0.106,0.516 0.201,0.703c0.063,0.122 0.131,0.222 0.259,0.222c0.179,-0 0.339,-0.115 0.508,-0.273c0.264,-0.247 0.516,-0.606 0.766,-1.042c0.838,-1.463 1.602,-3.735 2.308,-5.939c1.149,-3.587 3.368,-6.946 8.649,-7.14l0.07,-0.327c0.031,-0.147 0.176,-0.24 0.322,-0.209l0.328,0.07c0.147,0.031 0.24,0.175 0.208,0.322l-0.057,0.271c0.003,0.003 0.006,0.005 0.009,0.007l0.256,0.051l0.061,-0.286c0.043,-0.201 0.241,-0.33 0.443,-0.287l0.459,0.098c0.202,0.043 0.331,0.241 0.288,0.443l-0.057,0.267l0.244,0.048l0.053,-0.27c0.046,-0.235 0.271,-0.39 0.506,-0.349l4.15,0.714c0.244,0.042 0.405,0.276 0.357,0.518l-0.013,0.066l0.03,0.006c0.122,0.024 0.211,0.121 0.231,0.237l3.661,0.721c0.168,0.033 0.3,0.143 0.368,0.287l1.243,0.147l0.348,0.462l-0.081,0.409l-0.497,0.296l-1.203,-0.338c-0.117,0.109 -0.283,0.162 -0.452,0.129l-3.661,-0.721c-0.062,0.099 -0.182,0.155 -0.304,0.131l-0.029,-0.006l-0.013,0.066c-0.048,0.242 -0.286,0.398 -0.527,0.344l-4.111,-0.913c-0.233,-0.052 -0.382,-0.281 -0.336,-0.515l0.053,-0.271l-0.262,-0.051l-0.061,0.286c-0.043,0.201 -0.241,0.33 -0.443,0.287l-0.459,-0.098c-0.202,-0.043 -0.331,-0.242 -0.288,-0.444l0.057,-0.267l-0.266,-0.052l-0.062,0.29c-0.031,0.147 -0.176,0.24 -0.322,0.209l-0.328,-0.07c-0.146,-0.031 -0.24,-0.175 -0.208,-0.322l0.03,-0.141Zm-61.84,10.381c-0.464,0.239 -0.907,0.469 -1.315,0.694c-0.607,0.335 -1.128,0.657 -1.495,0.993c-0.247,0.226 -0.43,0.437 -0.43,0.69c0,0.346 0.206,0.628 0.446,0.804c0.142,0.103 0.296,0.176 0.435,0.176c0.397,0 0.779,-0.315 1.135,-0.733c0.578,-0.676 1.044,-1.664 1.224,-2.624Zm-27.744,-0.716c1.309,-1.472 2.341,-3.401 2.815,-5.11c0.233,-0.838 0.332,-1.62 0.243,-2.258c-0.054,-0.38 -0.171,-0.702 -0.398,-0.922c-0.215,-0.209 -0.525,-0.308 -0.928,-0.308c-0.386,-0 -0.721,0.253 -1.021,0.623c-0.594,0.731 -1.016,1.911 -1.207,3.215c-0.229,1.57 -0.127,3.348 0.496,4.76Zm45.705,-1.515c0.088,-0.617 0.123,-1.238 0.1,-1.831c-0.039,-0.987 -0.236,-1.894 -0.64,-2.552c-0.338,-0.549 -0.833,-0.903 -1.516,-0.903c-1.013,0 -1.606,0.865 -1.793,1.847c-0.3,1.585 0.464,3.592 2.654,3.592c0.401,-0 0.803,-0.059 1.195,-0.153Zm10.286,-1.296c0.118,-0.638 0.175,-1.283 0.167,-1.897c-0.012,-0.961 -0.181,-1.846 -0.556,-2.487c-0.306,-0.525 -0.763,-0.865 -1.402,-0.865c-1.196,-0 -1.902,0.853 -2.118,1.854c-0.34,1.576 0.491,3.563 2.659,3.563c0.405,0 0.825,-0.061 1.25,-0.168Zm-35.844,-1.071c1.609,-3.014 3.049,-6.304 3.709,-8.902c0.33,-1.3 0.471,-2.412 0.295,-3.201c-0.063,-0.285 -0.166,-0.519 -0.344,-0.674c-0.169,-0.146 -0.402,-0.209 -0.694,-0.209c-0.891,-0 -1.446,0.817 -1.89,1.98c-1.017,2.665 -1.201,7.157 -1.076,11.006Zm12.754,-0.397c2.143,-2.381 3.815,-5.519 4.294,-7.743c0.124,-0.578 0.169,-1.087 0.098,-1.49c-0.035,-0.201 -0.093,-0.369 -0.212,-0.48c-0.103,-0.097 -0.251,-0.132 -0.435,-0.132c-0.369,-0 -0.707,0.195 -1.028,0.5c-0.403,0.384 -0.767,0.938 -1.092,1.602c-0.994,2.026 -1.604,5.038 -1.625,7.743Zm-37.59,-8.912c-0.915,0.017 -1.76,0.044 -2.535,0.077c-0.173,1.37 -0.264,2.836 -0.272,4.301c-0.007,1.136 0.037,2.272 0.133,3.363c1.067,-2.571 2.019,-5.309 2.674,-7.741Zm15.097,6.875c0.026,-0.359 0.017,-0.695 -0.032,-1c-0.064,-0.397 -0.192,-0.734 -0.428,-0.964c-0.219,-0.214 -0.531,-0.318 -0.935,-0.318c-0.505,-0 -0.8,0.37 -0.895,0.793c-0.157,0.704 0.206,1.596 1.198,1.596c0.349,0 0.717,-0.043 1.092,-0.107Zm-40.818,-5.214c0.099,-1.051 0.116,-1.996 -0.012,-2.753c-0.14,-0.823 -0.447,-1.396 -1.202,-1.396c-0.694,-0 -1.124,0.711 -1.314,1.482c-0.305,1.234 0.052,2.827 1.665,2.827c0.31,0 0.598,-0.056 0.863,-0.16Zm25.974,-2.649c0.09,-0.367 0.171,-0.725 0.244,-1.073c0.374,-1.781 0.529,-3.255 0.315,-4.15c-0.071,-0.296 -0.146,-0.525 -0.385,-0.525c-0.332,-0 -0.623,0.18 -0.894,0.465c-0.358,0.376 -0.668,0.924 -0.943,1.593c-0.422,1.027 -0.751,2.324 -0.983,3.765c0.809,-0.033 1.691,-0.059 2.646,-0.075Z" style="fill:rgb(131,133,136);"/>
                <path d="M754.534,121.273c0.833,-0 1.549,-0.136 2.146,-0.406c0.597,-0.27 1.098,-0.625 1.504,-1.065c0.406,-0.439 0.727,-0.946 0.963,-1.521c0.237,-0.574 0.423,-1.155 0.558,-1.74l0.135,-0.609l4.462,0l-0.135,0.609c-0.316,1.464 -0.744,2.743 -1.285,3.836c-0.541,1.093 -1.228,2.005 -2.062,2.738c-0.833,0.732 -1.825,1.284 -2.974,1.656c-1.149,0.372 -2.501,0.558 -4.056,0.558c-1.059,-0 -2.028,-0.158 -2.907,-0.474c-0.879,-0.315 -1.633,-0.777 -2.264,-1.385c-0.631,-0.609 -1.121,-1.347 -1.471,-2.214c-0.349,-0.868 -0.524,-1.865 -0.524,-2.992c0,-0.405 0.023,-0.811 0.068,-1.216c0.045,-0.406 0.124,-0.868 0.237,-1.386l1.115,-5.273c0.699,-3.267 1.938,-5.695 3.718,-7.284c1.78,-1.589 4.101,-2.383 6.963,-2.383c1.127,0 2.135,0.18 3.025,0.541c0.89,0.36 1.645,0.851 2.265,1.47c0.619,0.62 1.092,1.347 1.419,2.18c0.327,0.834 0.49,1.724 0.49,2.671c0,0.315 -0.022,0.63 -0.067,0.946c-0.045,0.315 -0.102,0.642 -0.169,0.98l-0.136,0.609l-4.461,-0l0.135,-0.609c0.135,-0.541 0.203,-1.059 0.203,-1.555c-0,-0.878 -0.254,-1.628 -0.761,-2.247c-0.507,-0.62 -1.391,-0.93 -2.653,-0.93c-0.744,0 -1.42,0.141 -2.028,0.423c-0.608,0.281 -1.138,0.664 -1.589,1.149c-0.45,0.484 -0.828,1.048 -1.132,1.69c-0.304,0.642 -0.535,1.312 -0.693,2.011l-1.25,5.949c-0.068,0.338 -0.124,0.67 -0.169,0.997c-0.045,0.327 -0.068,0.636 -0.068,0.929c0,1.014 0.265,1.826 0.794,2.434c0.53,0.608 1.414,0.913 2.654,0.913Z" style="fill:rgb(131,133,136);fill-rule:nonzero;"/>
                <path d="M782.791,120.833l0.338,0.237l1.622,-1.149l2.129,3.177l-1.994,1.352c-0.879,0.586 -1.803,0.879 -2.771,0.879c-0.857,-0 -1.623,-0.237 -2.299,-0.71c-0.676,-0.473 -1.104,-1.138 -1.284,-1.994l-0.609,-0c-0.202,0.383 -0.439,0.738 -0.709,1.064c-0.271,0.327 -0.603,0.609 -0.998,0.845c-0.394,0.237 -0.856,0.428 -1.385,0.575c-0.53,0.146 -1.155,0.22 -1.876,0.22c-0.879,-0 -1.69,-0.175 -2.434,-0.524c-0.744,-0.35 -1.391,-0.834 -1.943,-1.454c-0.552,-0.619 -0.986,-1.346 -1.302,-2.18c-0.315,-0.834 -0.473,-1.746 -0.473,-2.738c0,-1.509 0.203,-2.918 0.608,-4.225c0.406,-1.307 0.992,-2.45 1.758,-3.43c0.766,-0.981 1.707,-1.752 2.822,-2.316c1.116,-0.563 2.372,-0.845 3.769,-0.845c1.239,0 2.22,0.248 2.941,0.744c0.721,0.496 1.205,1.149 1.453,1.96l0.609,0l0.473,-2.23l4.259,-0l-2.704,12.742Zm-8.18,0.44c0.811,-0 1.532,-0.164 2.163,-0.491c0.631,-0.326 1.155,-0.76 1.572,-1.301c0.417,-0.541 0.738,-1.177 0.963,-1.91c0.225,-0.732 0.338,-1.504 0.338,-2.315c0,-1.059 -0.304,-1.921 -0.912,-2.586c-0.609,-0.664 -1.42,-0.997 -2.434,-0.997c-0.811,0 -1.532,0.164 -2.163,0.49c-0.631,0.327 -1.161,0.761 -1.589,1.302c-0.428,0.541 -0.755,1.177 -0.98,1.909c-0.225,0.733 -0.338,1.505 -0.338,2.316c-0,0.946 0.276,1.78 0.828,2.501c0.552,0.721 1.403,1.082 2.552,1.082Z" style="fill:rgb(131,133,136);fill-rule:nonzero;"/>
                <path d="M798.17,111.471c-0.248,-0 -0.502,0.028 -0.761,0.084c-0.259,0.056 -0.501,0.141 -0.727,0.254c-0.225,0.112 -0.411,0.264 -0.557,0.456c-0.147,0.191 -0.22,0.422 -0.22,0.693c-0,0.473 0.27,0.822 0.811,1.048c0.541,0.225 1.465,0.416 2.772,0.574c1.464,0.18 2.647,0.625 3.549,1.335c0.901,0.71 1.352,1.73 1.352,3.059c-0,1.983 -0.693,3.538 -2.079,4.665c-1.386,1.126 -3.307,1.69 -5.763,1.69c-1.239,-0 -2.304,-0.181 -3.194,-0.541c-0.89,-0.361 -1.622,-0.811 -2.197,-1.352c-0.575,-0.541 -1.008,-1.138 -1.301,-1.792c-0.293,-0.653 -0.451,-1.273 -0.473,-1.859l4.191,-1.014c0.067,0.744 0.383,1.381 0.946,1.91c0.563,0.53 1.42,0.794 2.569,0.794c0.789,0 1.476,-0.124 2.062,-0.371c0.586,-0.248 0.879,-0.688 0.879,-1.319c-0,-0.473 -0.226,-0.85 -0.676,-1.132c-0.451,-0.282 -1.285,-0.479 -2.502,-0.591c-1.622,-0.136 -2.912,-0.598 -3.87,-1.386c-0.957,-0.789 -1.436,-1.837 -1.436,-3.144c-0,-0.946 0.197,-1.791 0.591,-2.535c0.395,-0.743 0.918,-1.363 1.572,-1.859c0.653,-0.495 1.414,-0.873 2.281,-1.132c0.868,-0.259 1.775,-0.389 2.721,-0.389c1.172,0 2.152,0.158 2.941,0.474c0.789,0.315 1.431,0.709 1.927,1.183c0.495,0.473 0.861,0.985 1.098,1.537c0.237,0.553 0.389,1.065 0.456,1.538l-4.123,1.082c-0.09,-0.608 -0.372,-1.087 -0.845,-1.437c-0.473,-0.349 -1.138,-0.523 -1.994,-0.523Z" style="fill:rgb(131,133,136);fill-rule:nonzero;"/>
                <path d="M815.34,112.147l-4.732,-0l-0,-4.056l5.611,-0l1.555,-7.369l4.258,0l-1.554,7.369l5.813,-0l0,4.056l-6.692,-0l-1.893,8.686l0.338,0.237l4.529,-3.11l2.13,3.177l-4.901,3.313c-0.857,0.586 -1.769,0.879 -2.738,0.879c-0.496,-0 -0.969,-0.085 -1.42,-0.254c-0.45,-0.169 -0.845,-0.411 -1.183,-0.727c-0.338,-0.315 -0.608,-0.698 -0.811,-1.149c-0.203,-0.45 -0.304,-0.957 -0.304,-1.521c-0,-0.18 0.011,-0.343 0.034,-0.49c0.022,-0.146 0.056,-0.344 0.101,-0.591l1.859,-8.45Z" style="fill:rgb(131,133,136);fill-rule:nonzero;"/>
                <path d="M847.518,114.377c-0,1.578 -0.226,3.037 -0.676,4.377c-0.451,1.341 -1.116,2.496 -1.995,3.465c-0.878,0.969 -1.977,1.729 -3.295,2.281c-1.318,0.553 -2.845,0.829 -4.58,0.829c-0.991,-0 -1.921,-0.147 -2.788,-0.44c-0.868,-0.293 -1.629,-0.727 -2.282,-1.301c-0.653,-0.575 -1.172,-1.279 -1.555,-2.113c-0.383,-0.833 -0.574,-1.78 -0.574,-2.839c-0,-1.735 0.27,-3.284 0.811,-4.647c0.541,-1.364 1.279,-2.518 2.214,-3.465c0.935,-0.946 2.039,-1.667 3.312,-2.163c1.273,-0.496 2.642,-0.744 4.107,-0.744c1.059,0 2.039,0.164 2.94,0.49c0.902,0.327 1.674,0.783 2.316,1.369c0.642,0.586 1.143,1.296 1.504,2.13c0.36,0.834 0.541,1.757 0.541,2.771Zm-9.904,6.963c0.811,-0.022 1.561,-0.203 2.248,-0.541c0.687,-0.338 1.273,-0.783 1.758,-1.335c0.484,-0.552 0.861,-1.2 1.132,-1.943c0.27,-0.744 0.405,-1.532 0.405,-2.366c0,-1.172 -0.315,-2.056 -0.946,-2.654c-0.631,-0.597 -1.476,-0.895 -2.535,-0.895c-0.811,-0 -1.555,0.174 -2.231,0.524c-0.676,0.349 -1.262,0.811 -1.757,1.385c-0.496,0.575 -0.879,1.234 -1.15,1.978c-0.27,0.743 -0.405,1.521 -0.405,2.332c-0,1.149 0.315,2.022 0.946,2.619c0.631,0.598 1.476,0.896 2.535,0.896Z" style="fill:rgb(131,133,136);fill-rule:nonzero;"/>
                <path d="M855.359,112.079l-0.338,-0.203l-2.67,1.961l-2.265,-3.042l2.704,-2.028c0.519,-0.384 1.065,-0.671 1.64,-0.862c0.574,-0.192 1.121,-0.288 1.639,-0.288c0.901,0 1.69,0.248 2.366,0.744c0.676,0.496 1.082,1.194 1.217,2.096l0.608,-0c0.451,-0.947 1.082,-1.657 1.893,-2.13c0.811,-0.473 1.724,-0.71 2.738,-0.71c1.284,0 2.326,0.4 3.126,1.2c0.8,0.8 1.2,1.91 1.2,3.33c0,0.293 -0.017,0.58 -0.05,0.861c-0.034,0.282 -0.096,0.626 -0.186,1.031l-0.169,0.744l-4.53,0.338l0.102,-0.473c0.067,-0.338 0.101,-0.642 0.101,-0.913c0,-0.653 -0.18,-1.172 -0.541,-1.555c-0.36,-0.383 -0.901,-0.574 -1.622,-0.574c-0.901,-0 -1.617,0.304 -2.146,0.912c-0.53,0.609 -0.918,1.476 -1.166,2.603l-1.217,5.678l4.056,0l-0,4.056l-11.56,0l0,-4.056l3.245,0l1.825,-8.72Z" style="fill:rgb(131,133,136);fill-rule:nonzero;"/>
                <path d="M902.713,114.918l-3.549,0c-0.518,0 -1.014,0.085 -1.487,0.254c-0.473,0.169 -0.89,0.405 -1.251,0.709c-0.36,0.305 -0.647,0.676 -0.862,1.116c-0.214,0.439 -0.321,0.941 -0.321,1.504c0,0.789 0.254,1.369 0.761,1.741c0.507,0.371 1.155,0.557 1.943,0.557l3.516,0l1.25,-5.881Zm5.712,-6.827l-0.608,2.771l2.704,0l-0,4.259l-3.617,-0l-2.061,9.734l-8.18,0c-1.803,0 -3.234,-0.456 -4.293,-1.369c-1.059,-0.912 -1.588,-2.146 -1.588,-3.701c-0,-1.667 0.479,-3.081 1.436,-4.242c0.958,-1.16 2.282,-1.909 3.972,-2.247l-0,-0.609c-0.811,-0.338 -1.527,-0.839 -2.147,-1.504c-0.619,-0.664 -0.929,-1.605 -0.929,-2.822c-0,-1.037 0.186,-1.989 0.558,-2.856c0.371,-0.868 0.907,-1.623 1.605,-2.265c0.699,-0.642 1.555,-1.143 2.569,-1.504c1.014,-0.36 2.174,-0.541 3.481,-0.541l3.516,0l-0,4.056l-3.651,0c-0.518,0 -1.008,0.068 -1.47,0.203c-0.462,0.135 -0.873,0.344 -1.234,0.625c-0.36,0.282 -0.642,0.643 -0.845,1.082c-0.203,0.439 -0.304,0.952 -0.304,1.538c-0,0.744 0.265,1.29 0.794,1.639c0.53,0.35 1.189,0.524 1.978,0.524l3.447,0l0.609,-2.771l4.258,-0Z" style="fill:rgb(131,133,136);fill-rule:nonzero;"/>
                <path d="M938.406,115.932l-1.893,8.923l-4.428,0l5.003,-23.66l8.45,0c0.991,0 1.887,0.158 2.687,0.474c0.8,0.315 1.482,0.754 2.045,1.318c0.563,0.563 0.997,1.228 1.301,1.994c0.304,0.766 0.456,1.6 0.456,2.501c0,1.262 -0.214,2.411 -0.642,3.448c-0.428,1.036 -1.036,1.926 -1.825,2.67c-0.789,0.744 -1.735,1.318 -2.839,1.724c-1.104,0.405 -2.332,0.608 -3.684,0.608l-4.631,0Zm0.913,-4.259l4.123,0c1.149,0 2.107,-0.338 2.873,-1.014c0.766,-0.676 1.149,-1.554 1.149,-2.636c0,-0.834 -0.264,-1.47 -0.794,-1.91c-0.529,-0.439 -1.222,-0.659 -2.079,-0.659l-3.954,0l-1.318,6.219Z" style="fill:rgb(131,133,136);fill-rule:nonzero;"/>
                <path d="M971.632,114.377c-0,1.578 -0.226,3.037 -0.676,4.377c-0.451,1.341 -1.116,2.496 -1.995,3.465c-0.878,0.969 -1.977,1.729 -3.295,2.281c-1.318,0.553 -2.845,0.829 -4.58,0.829c-0.992,-0 -1.921,-0.147 -2.789,-0.44c-0.867,-0.293 -1.628,-0.727 -2.281,-1.301c-0.654,-0.575 -1.172,-1.279 -1.555,-2.113c-0.383,-0.833 -0.575,-1.78 -0.575,-2.839c0,-1.735 0.271,-3.284 0.812,-4.647c0.54,-1.364 1.278,-2.518 2.214,-3.465c0.935,-0.946 2.039,-1.667 3.312,-2.163c1.273,-0.496 2.642,-0.744 4.107,-0.744c1.059,0 2.039,0.164 2.94,0.49c0.902,0.327 1.673,0.783 2.316,1.369c0.642,0.586 1.143,1.296 1.504,2.13c0.36,0.834 0.541,1.757 0.541,2.771Zm-9.904,6.963c0.811,-0.022 1.561,-0.203 2.248,-0.541c0.687,-0.338 1.273,-0.783 1.757,-1.335c0.485,-0.552 0.862,-1.2 1.133,-1.943c0.27,-0.744 0.405,-1.532 0.405,-2.366c0,-1.172 -0.315,-2.056 -0.946,-2.654c-0.631,-0.597 -1.476,-0.895 -2.535,-0.895c-0.811,-0 -1.555,0.174 -2.231,0.524c-0.676,0.349 -1.262,0.811 -1.757,1.385c-0.496,0.575 -0.879,1.234 -1.15,1.978c-0.27,0.743 -0.405,1.521 -0.405,2.332c-0,1.149 0.315,2.022 0.946,2.619c0.631,0.598 1.476,0.896 2.535,0.896Z" style="fill:rgb(131,133,136);fill-rule:nonzero;"/>
                <path d="M986.064,124.45c-0.451,0.315 -0.912,0.541 -1.386,0.676c-0.473,0.135 -0.935,0.203 -1.385,0.203c-0.496,-0 -0.969,-0.085 -1.42,-0.254c-0.451,-0.169 -0.845,-0.406 -1.183,-0.71c-0.338,-0.304 -0.603,-0.676 -0.794,-1.115c-0.192,-0.44 -0.288,-0.93 -0.288,-1.47c0,-0.406 0.045,-0.8 0.136,-1.183l3.684,-15.379l-0.338,-0.237l-4.529,3.11l-2.13,-3.178l4.901,-3.312c0.451,-0.316 0.913,-0.541 1.386,-0.676c0.473,-0.135 0.935,-0.203 1.386,-0.203c0.495,0 0.969,0.085 1.419,0.254c0.451,0.169 0.845,0.405 1.183,0.709c0.338,0.305 0.603,0.676 0.795,1.116c0.191,0.439 0.287,0.929 0.287,1.47c-0,0.361 -0.045,0.755 -0.135,1.183l-3.684,15.379l0.338,0.237l4.529,-3.11l2.129,3.177l-4.901,3.313Z" style="fill:rgb(131,133,136);fill-rule:nonzero;"/>
                <path d="M1006.75,124.45c-0.451,0.315 -0.913,0.541 -1.386,0.676c-0.473,0.135 -0.935,0.203 -1.386,0.203c-0.496,-0 -0.969,-0.085 -1.419,-0.254c-0.451,-0.169 -0.845,-0.406 -1.183,-0.71c-0.338,-0.304 -0.603,-0.676 -0.795,-1.115c-0.191,-0.44 -0.287,-0.93 -0.287,-1.47c-0,-0.406 0.045,-0.8 0.135,-1.183l3.684,-15.379l-0.338,-0.237l-4.529,3.11l-2.129,-3.178l4.901,-3.312c0.45,-0.316 0.912,-0.541 1.386,-0.676c0.473,-0.135 0.935,-0.203 1.385,-0.203c0.496,0 0.969,0.085 1.42,0.254c0.451,0.169 0.845,0.405 1.183,0.709c0.338,0.305 0.603,0.676 0.794,1.116c0.192,0.439 0.288,0.929 0.288,1.47c-0,0.361 -0.045,0.755 -0.136,1.183l-3.684,15.379l0.338,0.237l4.529,-3.11l2.13,3.177l-4.901,3.313Z" style="fill:rgb(131,133,136);fill-rule:nonzero;"/>
                <path d="M1022.37,108.091l-2.095,9.734c-0.09,0.383 -0.135,0.755 -0.135,1.115c-0,0.857 0.236,1.493 0.709,1.91c0.474,0.417 1.105,0.625 1.893,0.625c1.195,0 2.113,-0.388 2.755,-1.166c0.642,-0.777 1.121,-1.876 1.436,-3.295l1.893,-8.923l4.259,-0l-2.772,12.776l0.372,0.203l1.217,-0.879l2.129,3.11l-1.588,1.149c-0.428,0.315 -0.873,0.541 -1.335,0.676c-0.462,0.135 -0.918,0.203 -1.369,0.203c-0.924,-0 -1.735,-0.265 -2.434,-0.795c-0.698,-0.529 -1.093,-1.301 -1.183,-2.315l-0.608,-0c-0.496,1.149 -1.166,1.955 -2.011,2.417c-0.845,0.462 -1.797,0.693 -2.856,0.693c-1.465,-0 -2.659,-0.445 -3.583,-1.336c-0.924,-0.89 -1.386,-2.135 -1.386,-3.734c0,-0.564 0.068,-1.172 0.203,-1.826l2.231,-10.342l4.258,-0Z" style="fill:rgb(131,133,136);fill-rule:nonzero;"/>
                <path d="M1047.85,116.912l1.757,4.158l0.406,-0l1.318,-2.434l3.38,1.758l-1.081,2.163c-0.902,1.848 -2.31,2.772 -4.226,2.772c-0.946,-0 -1.718,-0.214 -2.315,-0.643c-0.597,-0.428 -1.087,-1.115 -1.47,-2.061l-1.116,-2.603l-5.577,5.239l-2.873,-3.008l6.76,-6.321l-1.69,-4.022l-0.405,-0l-1.623,2.603l-3.244,-2.096l1.622,-2.501c0.969,-1.533 2.276,-2.299 3.921,-2.299c1.667,0 2.884,0.879 3.65,2.637l1.082,2.569l5.34,-5.003l2.873,3.008l-6.489,6.084Z" style="fill:rgb(131,133,136);fill-rule:nonzero;"/>
                <path d="M1106.37,921.373l19.821,0.059c1.163,0.003 2.11,-0.934 2.118,-2.097l0.11,-15.012c0,0 2.479,0 2.479,0c-0,4.564 -0,14.937 -0,14.937c-0,1.166 0.947,2.113 2.112,2.113c1.166,-0 2.113,-0.947 2.113,-2.113l-0,-17.049c-0,-1.167 -0.946,-2.113 -2.113,-2.113l-6.688,0c-1.161,0 -2.104,0.937 -2.112,2.097l-0.11,15.006c-5.102,-0.015 -17.717,-0.053 -17.717,-0.053c-1.166,-0.004 -2.115,0.94 -2.119,2.106c-0.003,1.166 0.941,2.115 2.106,2.119Z" style="fill:rgb(131,133,136);"/>
                <path d="M1112.87,911.847l-2.537,-2.536c0,-0 2.537,-2.536 2.537,-2.536c0.824,-0.825 0.824,-2.164 -0,-2.988c-0.825,-0.824 -2.164,-0.824 -2.988,0l-5.524,5.524l5.524,5.523c0.824,0.825 2.163,0.825 2.988,0c0.824,-0.824 0.824,-2.163 -0,-2.987Z" style="fill:rgb(131,133,136);"/>
                <path d="M1116.6,907.198l-0.042,0c-1.166,0 -2.113,0.947 -2.113,2.113c0,1.166 0.947,2.112 2.113,2.112l0.042,0c1.166,0 2.112,-0.946 2.112,-2.112c0,-1.166 -0.946,-2.113 -2.112,-2.113Zm-5.112,0l-0.043,0c-1.165,0 -2.112,0.947 -2.112,2.113c-0,1.166 0.947,2.112 2.112,2.112l0.043,0c1.166,0 2.112,-0.946 2.112,-2.112c0,-1.166 -0.946,-2.113 -2.112,-2.113Zm10.224,0l-0.042,0c-1.166,0 -2.113,0.947 -2.113,2.113c0,1.166 0.947,2.112 2.113,2.112l0.042,0c1.166,0 2.113,-0.946 2.113,-2.112c-0,-1.166 -0.947,-2.113 -2.113,-2.113Z" style="fill:rgb(131,133,136);"/>
                <path d="M692.275,917.148c0,-0 -12.615,0.038 -17.717,0.053c0,-0 -0.109,-15.006 -0.109,-15.006c-0.009,-1.16 -0.952,-2.097 -2.113,-2.097l-6.688,0c-1.167,0 -2.113,0.946 -2.113,2.113l0,17.049c0,1.166 0.947,2.113 2.113,2.113c1.166,-0 2.112,-0.947 2.112,-2.113l0,-14.937c0,0 2.479,0 2.479,0c-0,0 0.11,15.012 0.11,15.012c0.008,1.163 0.956,2.1 2.119,2.097l19.82,-0.059c1.166,-0.004 2.109,-0.953 2.106,-2.119c-0.004,-1.166 -0.953,-2.11 -2.119,-2.106Z" style="fill:rgb(131,133,136);"/>
                <path d="M685.795,906.775l2.536,2.536c-0,-0 -2.536,2.536 -2.536,2.536c-0.825,0.824 -0.825,2.163 -0,2.987c0.824,0.825 2.163,0.825 2.987,0l5.524,-5.523l-5.524,-5.524c-0.824,-0.824 -2.163,-0.824 -2.987,0c-0.825,0.824 -0.825,2.163 -0,2.988Z" style="fill:rgb(131,133,136);"/>
                <path d="M682.063,911.423l0.043,0c1.165,0 2.112,-0.946 2.112,-2.112c0,-1.166 -0.947,-2.113 -2.112,-2.113l-0.043,0c-1.166,0 -2.112,0.947 -2.112,2.113c-0,1.166 0.946,2.112 2.112,2.112Zm5.113,0l0.042,0c1.166,0 2.112,-0.946 2.112,-2.112c0,-1.166 -0.946,-2.113 -2.112,-2.113l-0.042,0c-1.166,0 -2.113,0.947 -2.113,2.113c0,1.166 0.947,2.112 2.113,2.112Zm-10.225,0l0.042,0c1.166,0 2.113,-0.946 2.113,-2.112c-0,-1.166 -0.947,-2.113 -2.113,-2.113l-0.042,0c-1.166,0 -2.113,0.947 -2.113,2.113c0,1.166 0.947,2.112 2.113,2.112Z" style="fill:rgb(131,133,136);"/>
                <path d="M661.187,777.704l-0,16.772c-0,0.741 0.388,1.427 1.022,1.809c0.635,0.383 1.423,0.405 2.078,0.058l28.205,-14.913c0,0 -0.094,13.309 -0.094,13.309c-0.008,1.166 0.932,2.119 2.097,2.127c1.166,0.008 2.12,-0.931 2.128,-2.097l0.119,-16.844c0.006,-0.743 -0.38,-1.435 -1.016,-1.82c-0.635,-0.386 -1.426,-0.41 -2.083,-0.062l-28.231,14.926c-0,0 -0,-13.265 -0,-13.265c-0,-1.166 -0.947,-2.113 -2.113,-2.113c-1.166,0 -2.112,0.947 -2.112,2.113Z" style="fill:rgb(131,133,136);"/>
                <path d="M800.234,777.659c0,0 0.072,10.361 0.104,14.929c-0,0 -15.596,0.047 -15.596,0.047c-0,-0 -0.11,-15.006 -0.11,-15.006c-0.008,-1.16 -0.952,-2.097 -2.112,-2.097l-6.689,0c-1.166,0 -2.112,0.946 -2.112,2.113l-0,17.05c-0,1.166 0.946,2.112 2.112,2.112c1.166,0 2.113,-0.946 2.113,-2.112l-0,-14.938c-0,0 2.479,0 2.479,0c-0,0 0.109,15.012 0.109,15.012c0.009,1.163 0.956,2.101 2.119,2.097l19.82,-0.059c0.562,-0.002 1.1,-0.227 1.495,-0.626c0.395,-0.399 0.615,-0.939 0.611,-1.501l-0.118,-17.05c-0.008,-1.166 -0.961,-2.106 -2.127,-2.098c-1.166,0.008 -2.106,0.962 -2.098,2.127Z" style="fill:rgb(131,133,136);"/>
                <path d="M800.234,902.284c0,0 0.072,10.351 0.104,14.923c-0,0 -9.077,0 -9.077,0c-0,-4.564 -0,-14.937 -0,-14.937c-0,-1.167 -0.946,-2.113 -2.113,-2.113l-13.317,0c-1.166,0 -2.112,0.946 -2.112,2.113l-0,17.05c-0,1.165 0.946,2.112 2.112,2.112c1.166,0 2.113,-0.947 2.113,-2.112l-0,-14.938c-0,0 9.092,0 9.092,0c-0,0 -0,14.938 -0,14.938c-0,1.166 0.945,2.112 2.112,2.112l13.317,0c0.563,0 1.102,-0.225 1.499,-0.624c0.396,-0.399 0.617,-0.94 0.613,-1.503l-0.118,-17.05c-0.008,-1.166 -0.961,-2.106 -2.127,-2.098c-1.166,0.008 -2.106,0.962 -2.098,2.127Z" style="fill:rgb(131,133,136);"/>
                <path d="M1133.25,777.704l0,13.265c0,0 -28.23,-14.926 -28.23,-14.926c-0.657,-0.348 -1.449,-0.324 -2.084,0.062c-0.636,0.385 -1.021,1.077 -1.016,1.82l0.119,16.844c0.009,1.166 0.962,2.105 2.128,2.097c1.166,-0.008 2.106,-0.961 2.097,-2.127l-0.094,-13.309c7.929,4.192 28.206,14.913 28.206,14.913c0.654,0.347 1.443,0.325 2.077,-0.058c0.635,-0.382 1.022,-1.068 1.022,-1.809l0,-16.772c0,-1.166 -0.946,-2.113 -2.112,-2.113c-1.166,0 -2.113,0.947 -2.113,2.113Z" style="fill:rgb(131,133,136);"/>
                <path d="M994.202,777.63l-0.118,17.05c-0.004,0.562 0.216,1.102 0.611,1.501c0.395,0.399 0.933,0.624 1.495,0.626l19.82,0.059c1.163,0.004 2.11,-0.934 2.119,-2.097l0.11,-15.012c-0,0 2.478,0 2.478,0c0,0 0,14.938 0,14.938c0,1.166 0.947,2.112 2.113,2.112c1.166,0 2.112,-0.946 2.112,-2.112l0,-17.05c0,-1.167 -0.945,-2.113 -2.112,-2.113l-6.688,0c-1.161,0 -2.104,0.937 -2.113,2.097l-0.11,15.006c0,-0 -15.596,-0.047 -15.596,-0.047c0,0 0.104,-14.929 0.104,-14.929c0.008,-1.165 -0.932,-2.119 -2.098,-2.127c-1.166,-0.008 -2.119,0.932 -2.127,2.098Z" style="fill:rgb(131,133,136);"/>
                <path d="M994.202,902.196l-0.118,17.05c-0.004,0.563 0.217,1.104 0.613,1.503c0.397,0.399 0.936,0.624 1.499,0.624l13.317,-0c1.167,-0 2.113,-0.946 2.113,-2.113l-0,-14.937c-0,0 9.091,0 9.091,0c0,0 0,14.937 0,14.937c0,1.166 0.947,2.113 2.113,2.113c1.166,-0 2.112,-0.947 2.112,-2.113l0,-17.049c0,-1.167 -0.945,-2.113 -2.112,-2.113l-13.317,0c-1.167,0 -2.112,0.946 -2.112,2.113l-0,14.937c-0,-0 -9.078,-0 -9.078,-0c0.032,-4.572 0.104,-14.923 0.104,-14.923c0.008,-1.166 -0.932,-2.119 -2.098,-2.127c-1.166,-0.008 -2.119,0.932 -2.127,2.098Z" style="fill:rgb(131,133,136);"/>
                <circle cx="900.129" cy="796.931" r="28.743" style="fill:rgb(131,133,136);"/>
                <path d="M901.92,829.534c-0.386,-0.617 -1.063,-0.993 -1.791,-0.993c-0.729,0 -1.406,0.376 -1.792,0.993l-8.275,13.247c-0.407,0.651 -0.428,1.472 -0.056,2.144c0.372,0.671 1.08,1.088 1.848,1.088l16.55,-0c0.767,-0 1.475,-0.417 1.847,-1.088c0.372,-0.672 0.351,-1.493 -0.056,-2.144l-8.275,-13.247Z" style="fill:rgb(131,133,136);"/>
            </g>
            <g id="Jacks">
                <circle cx="678.465" cy="854.689" r="37.913" style="fill:rgb(222,222,222);"/>
                <circle cx="678.465" cy="976.05" r="37.913" style="fill:rgb(222,222,222);"/>
                <circle cx="1119.94" cy="854.689" r="37.913" style="fill:rgb(222,222,222);"/>
                <circle cx="1119.7" cy="976.05" r="37.913" style="fill:rgb(222,222,222);"/>
                <g id="Flat-jack" serif:id="Flat jack">
                    <path d="M899.393,942.344c0.248,-0.143 0.553,-0.143 0.801,0c3.255,1.88 25.334,14.627 28.589,16.506c0.248,0.143 0.401,0.408 0.401,0.694c-0,3.759 0.001,29.253 0.001,33.012c0,0.286 -0.153,0.551 -0.4,0.694c-3.256,1.879 -25.333,14.626 -28.588,16.506c-0.248,0.143 -0.553,0.143 -0.801,-0c-3.255,-1.88 -25.334,-14.627 -28.589,-16.506c-0.248,-0.143 -0.4,-0.408 -0.4,-0.694c-0,-3.759 -0.002,-29.253 -0.002,-33.012c0,-0.286 0.153,-0.551 0.401,-0.694c3.255,-1.879 25.332,-14.626 28.587,-16.506Z" style="fill:rgb(213,213,213);"/>
                    <path d="M898.455,940.721c0.828,-0.478 1.849,-0.478 2.677,-0l28.589,16.506c0.827,0.478 1.338,1.361 1.338,2.317l0.001,33.012c0,0.956 -0.51,1.84 -1.338,2.318l-28.587,16.505c-0.828,0.479 -1.848,0.479 -2.676,0.001l-28.589,-16.506c-0.828,-0.478 -1.338,-1.362 -1.338,-2.318l-0.002,-33.012c0,-0.956 0.51,-1.839 1.338,-2.317l28.587,-16.506Zm0.938,1.623l-28.587,16.506c-0.248,0.143 -0.401,0.408 -0.401,0.694l0.002,33.012c-0,0.286 0.152,0.551 0.4,0.694l28.589,16.506c0.248,0.143 0.553,0.143 0.801,-0l28.588,-16.506c0.247,-0.143 0.4,-0.408 0.4,-0.694l-0.001,-33.012c-0,-0.286 -0.153,-0.551 -0.401,-0.694l-28.589,-16.506c-0.248,-0.143 -0.553,-0.143 -0.801,0Z" style="fill:rgb(169,169,169);"/>
                    <ellipse cx="899.795" cy="976.05" rx="17.849" ry="17.848" style="fill:rgb(131,133,136);"/>
                </g>
                <g id="Flat-jack1" serif:id="Flat jack">
                    <path d="M1008.68,942.344c0.248,-0.143 0.553,-0.143 0.801,0c3.255,1.88 25.334,14.627 28.589,16.506c0.248,0.143 0.4,0.408 0.4,0.694c0,3.759 0.002,29.253 0.002,33.012c-0,0.286 -0.153,0.551 -0.401,0.694c-3.255,1.879 -25.332,14.626 -28.587,16.506c-0.248,0.143 -0.553,0.143 -0.801,-0c-3.255,-1.88 -25.334,-14.627 -28.589,-16.506c-0.248,-0.143 -0.401,-0.408 -0.401,-0.694c0,-3.759 -0.001,-29.253 -0.001,-33.012c-0,-0.286 0.153,-0.551 0.4,-0.694c3.256,-1.879 25.333,-14.626 28.588,-16.506Z" style="fill:rgb(213,213,213);"/>
                    <path d="M1007.75,940.721c0.828,-0.478 1.848,-0.478 2.676,-0l28.589,16.506c0.828,0.478 1.338,1.361 1.338,2.317l0.002,33.012c-0,0.956 -0.51,1.84 -1.338,2.318l-28.587,16.505c-0.828,0.479 -1.849,0.479 -2.677,0.001l-28.588,-16.506c-0.828,-0.478 -1.339,-1.362 -1.339,-2.318l-0.001,-33.012c-0,-0.956 0.51,-1.839 1.338,-2.317l28.587,-16.506Zm0.938,1.623l-28.588,16.506c-0.247,0.143 -0.4,0.408 -0.4,0.694l0.001,33.012c0,0.286 0.153,0.551 0.401,0.694l28.589,16.506c0.248,0.143 0.553,0.143 0.801,-0l28.587,-16.506c0.248,-0.143 0.401,-0.408 0.401,-0.694l-0.002,-33.012c0,-0.286 -0.152,-0.551 -0.4,-0.694l-28.589,-16.506c-0.248,-0.143 -0.553,-0.143 -0.801,0Z" style="fill:rgb(169,169,169);"/>
                    <ellipse cx="1009.09" cy="976.05" rx="17.849" ry="17.848" style="fill:rgb(131,133,136);"/>
                </g>
                <g id="Flat-jack2" serif:id="Flat jack">
                    <path d="M1119.29,942.344c0.248,-0.143 0.554,-0.143 0.802,0c3.255,1.88 25.333,14.627 28.588,16.506c0.248,0.143 0.401,0.408 0.401,0.694c0,3.759 0.001,29.253 0.002,33.012c-0,0.286 -0.153,0.551 -0.401,0.694c-3.255,1.879 -25.332,14.626 -28.587,16.506c-0.248,0.143 -0.554,0.143 -0.801,-0c-3.256,-1.88 -25.334,-14.627 -28.589,-16.506c-0.248,-0.143 -0.401,-0.408 -0.401,-0.694c-0,-3.759 -0.001,-29.253 -0.001,-33.012c-0,-0.286 0.152,-0.551 0.4,-0.694c3.255,-1.879 25.332,-14.626 28.587,-16.506Z" style="fill:rgb(213,213,213);"/>
                    <path d="M1118.36,940.721c0.828,-0.478 1.848,-0.478 2.676,-0l28.589,16.506c0.828,0.478 1.338,1.361 1.338,2.317l0.002,33.012c-0,0.956 -0.51,1.84 -1.338,2.318l-28.588,16.505c-0.828,0.479 -1.848,0.479 -2.676,0.001l-28.589,-16.506c-0.828,-0.478 -1.338,-1.362 -1.338,-2.318l-0.001,-33.012c-0,-0.956 0.51,-1.839 1.338,-2.317l28.587,-16.506Zm0.937,1.623l-28.587,16.506c-0.248,0.143 -0.4,0.408 -0.4,0.694l0.001,33.012c0,0.286 0.153,0.551 0.401,0.694l28.589,16.506c0.247,0.143 0.553,0.143 0.801,-0l28.587,-16.506c0.248,-0.143 0.401,-0.408 0.401,-0.694l-0.002,-33.012c0,-0.286 -0.153,-0.551 -0.401,-0.694l-28.588,-16.506c-0.248,-0.143 -0.554,-0.143 -0.802,0Z" style="fill:rgb(169,169,169);"/>
                    <ellipse cx="1119.7" cy="976.05" rx="17.849" ry="17.848" style="fill:rgb(131,133,136);"/>
                </g>
                <g id="Flat-jack3" serif:id="Flat jack">
                    <path d="M1119.54,820.984c0.248,-0.144 0.553,-0.144 0.801,-0.001c3.255,1.88 25.334,14.627 28.589,16.506c0.248,0.144 0.401,0.408 0.401,0.694c-0,3.759 0.001,29.253 0.001,33.012c0,0.286 -0.153,0.551 -0.4,0.694c-3.256,1.879 -25.333,14.626 -28.588,16.506c-0.248,0.143 -0.553,0.143 -0.801,-0c-3.255,-1.88 -25.334,-14.627 -28.589,-16.506c-0.248,-0.143 -0.4,-0.408 -0.4,-0.694c-0.001,-3.759 -0.002,-29.253 -0.002,-33.012c0,-0.286 0.153,-0.55 0.401,-0.694c3.255,-1.879 25.332,-14.626 28.587,-16.505Z" style="fill:rgb(213,213,213);"/>
                    <path d="M1118.6,819.36c0.828,-0.478 1.849,-0.478 2.677,-0l28.588,16.506c0.828,0.478 1.338,1.361 1.339,2.317l0.001,33.012c0,0.956 -0.51,1.84 -1.338,2.318l-28.587,16.506c-0.828,0.478 -1.848,0.478 -2.676,-0l-28.589,-16.506c-0.828,-0.478 -1.338,-1.362 -1.338,-2.318l-0.002,-33.012c0,-0.956 0.51,-1.839 1.338,-2.317l28.587,-16.506Zm0.938,1.624l-28.587,16.505c-0.248,0.144 -0.401,0.408 -0.401,0.694l0.002,33.012c-0,0.286 0.152,0.551 0.4,0.694l28.589,16.506c0.248,0.143 0.553,0.143 0.801,-0l28.588,-16.506c0.247,-0.143 0.4,-0.408 0.4,-0.694l-0.001,-33.012c-0,-0.286 -0.153,-0.55 -0.401,-0.694l-28.589,-16.506c-0.248,-0.143 -0.553,-0.143 -0.801,0.001Z" style="fill:rgb(169,169,169);"/>
                    <ellipse cx="1119.94" cy="854.689" rx="17.849" ry="17.848" style="fill:rgb(131,133,136);"/>
                </g>
                <g id="Flat-jack4" serif:id="Flat jack">
                    <path d="M678.063,820.984c0.248,-0.144 0.553,-0.144 0.801,-0.001c3.255,1.88 25.334,14.627 28.589,16.506c0.248,0.144 0.4,0.408 0.4,0.694c0.001,3.759 0.002,29.253 0.002,33.012c-0,0.286 -0.153,0.551 -0.401,0.694c-3.255,1.879 -25.332,14.626 -28.587,16.506c-0.248,0.143 -0.553,0.143 -0.801,-0c-3.255,-1.88 -25.334,-14.627 -28.589,-16.506c-0.248,-0.143 -0.4,-0.408 -0.401,-0.694c0,-3.759 -0.001,-29.253 -0.001,-33.012c-0,-0.286 0.153,-0.55 0.401,-0.694c3.255,-1.879 25.332,-14.626 28.587,-16.505Z" style="fill:rgb(213,213,213);"/>
                    <path d="M677.125,819.36c0.828,-0.478 1.848,-0.478 2.676,-0l28.589,16.506c0.828,0.478 1.338,1.361 1.338,2.317l0.002,33.012c-0,0.956 -0.51,1.84 -1.338,2.318l-28.587,16.506c-0.828,0.478 -1.849,0.478 -2.677,-0l-28.588,-16.506c-0.828,-0.478 -1.338,-1.362 -1.339,-2.318l-0.001,-33.012c-0,-0.956 0.51,-1.839 1.338,-2.317l28.587,-16.506Zm0.938,1.624l-28.587,16.505c-0.248,0.144 -0.401,0.408 -0.401,0.694l0.001,33.012c0.001,0.286 0.153,0.551 0.401,0.694l28.589,16.506c0.248,0.143 0.553,0.143 0.801,-0l28.587,-16.506c0.248,-0.143 0.401,-0.408 0.401,-0.694l-0.002,-33.012c0,-0.286 -0.152,-0.55 -0.4,-0.694l-28.589,-16.506c-0.248,-0.143 -0.553,-0.143 -0.801,0.001Z" style="fill:rgb(169,169,169);"/>
                    <ellipse cx="678.465" cy="854.689" rx="17.849" ry="17.848" style="fill:rgb(131,133,136);"/>
                </g>
                <g id="Flat-jack5" serif:id="Flat jack">
                    <path d="M678.063,942.344c0.248,-0.143 0.553,-0.143 0.801,0c3.255,1.88 25.334,14.627 28.589,16.506c0.248,0.143 0.4,0.408 0.4,0.694c0.001,3.759 0.002,29.253 0.002,33.012c-0,0.286 -0.153,0.551 -0.401,0.694c-3.255,1.879 -25.332,14.626 -28.587,16.506c-0.248,0.143 -0.553,0.143 -0.801,-0c-3.255,-1.88 -25.334,-14.627 -28.589,-16.506c-0.248,-0.143 -0.4,-0.408 -0.401,-0.694c0,-3.759 -0.001,-29.253 -0.001,-33.012c-0,-0.286 0.153,-0.551 0.401,-0.694c3.255,-1.879 25.332,-14.626 28.587,-16.506Z" style="fill:rgb(213,213,213);"/>
                    <path d="M677.125,940.721c0.828,-0.478 1.848,-0.478 2.676,-0l28.589,16.506c0.828,0.478 1.338,1.361 1.338,2.317l0.002,33.012c-0,0.956 -0.51,1.84 -1.338,2.318l-28.587,16.505c-0.828,0.479 -1.849,0.479 -2.677,0.001l-28.588,-16.506c-0.828,-0.478 -1.338,-1.362 -1.339,-2.318l-0.001,-33.012c-0,-0.956 0.51,-1.839 1.338,-2.317l28.587,-16.506Zm0.938,1.623l-28.587,16.506c-0.248,0.143 -0.401,0.408 -0.401,0.694l0.001,33.012c0.001,0.286 0.153,0.551 0.401,0.694l28.589,16.506c0.248,0.143 0.553,0.143 0.801,-0l28.587,-16.506c0.248,-0.143 0.401,-0.408 0.401,-0.694l-0.002,-33.012c0,-0.286 -0.152,-0.551 -0.4,-0.694l-28.589,-16.506c-0.248,-0.143 -0.553,-0.143 -0.801,0Z" style="fill:rgb(169,169,169);"/>
                    <ellipse cx="678.465" cy="976.05" rx="17.849" ry="17.848" style="fill:rgb(131,133,136);"/>
                </g>
                <g id="Flat-jack6" serif:id="Flat jack">
                    <path d="M788.644,942.344c0.248,-0.143 0.554,-0.143 0.801,0c3.256,1.88 25.334,14.627 28.589,16.506c0.248,0.143 0.401,0.408 0.401,0.694c0,3.759 0.001,29.253 0.001,33.012c0,0.286 -0.152,0.551 -0.4,0.694c-3.255,1.879 -25.332,14.626 -28.587,16.506c-0.248,0.143 -0.554,0.143 -0.802,-0c-3.255,-1.88 -25.333,-14.627 -28.588,-16.506c-0.248,-0.143 -0.401,-0.408 -0.401,-0.694c-0,-3.759 -0.001,-29.253 -0.002,-33.012c0,-0.286 0.153,-0.551 0.401,-0.694c3.255,-1.879 25.332,-14.626 28.587,-16.506Z" style="fill:rgb(213,213,213);"/>
                    <path d="M787.707,940.721c0.828,-0.478 1.848,-0.478 2.676,-0l28.589,16.506c0.828,0.478 1.338,1.361 1.338,2.317l0.001,33.012c0,0.956 -0.51,1.84 -1.338,2.318l-28.587,16.505c-0.828,0.479 -1.848,0.479 -2.676,0.001l-28.589,-16.506c-0.828,-0.478 -1.338,-1.362 -1.338,-2.318l-0.002,-33.012c0,-0.956 0.51,-1.839 1.338,-2.317l28.588,-16.506Zm0.937,1.623l-28.587,16.506c-0.248,0.143 -0.401,0.408 -0.401,0.694l0.002,33.012c-0,0.286 0.153,0.551 0.401,0.694l28.588,16.506c0.248,0.143 0.554,0.143 0.802,-0l28.587,-16.506c0.248,-0.143 0.4,-0.408 0.4,-0.694l-0.001,-33.012c-0,-0.286 -0.153,-0.551 -0.401,-0.694l-28.589,-16.506c-0.247,-0.143 -0.553,-0.143 -0.801,0Z" style="fill:rgb(169,169,169);"/>
                    <ellipse cx="789.046" cy="976.05" rx="17.849" ry="17.848" style="fill:rgb(131,133,136);"/>
                </g>
            </g>
            <g id="Stars">
                <path d="M921.978,264.778l5.268,15.959c0.212,0.642 0.717,1.143 1.36,1.35c0.643,0.206 1.347,0.093 1.892,-0.306l9.37,-6.844l-0.643,11.585c-0.038,0.675 0.25,1.326 0.773,1.754c0.523,0.427 1.219,0.578 1.872,0.407l16.257,-4.266l-11.188,12.542c-0.45,0.504 -0.631,1.193 -0.488,1.853c0.142,0.66 0.592,1.212 1.21,1.485l10.612,4.692l-10.355,5.236c-0.602,0.305 -1.023,0.88 -1.131,1.546c-0.109,0.667 0.108,1.345 0.583,1.825l11.823,11.946l-16.456,-3.418c-0.661,-0.137 -1.348,0.05 -1.849,0.504c-0.5,0.453 -0.753,1.119 -0.681,1.791l1.242,11.536l-9.711,-6.349c-0.565,-0.37 -1.273,-0.447 -1.905,-0.207c-0.632,0.239 -1.111,0.766 -1.289,1.418l-4.434,16.211l-5.267,-15.96c-0.212,-0.641 -0.718,-1.143 -1.361,-1.349c-0.643,-0.207 -1.346,-0.093 -1.892,0.305l-9.369,6.844l0.643,-11.585c0.037,-0.674 -0.25,-1.326 -0.773,-1.753c-0.524,-0.427 -1.219,-0.579 -1.873,-0.407l-16.256,4.266l11.188,-12.542c0.449,-0.504 0.631,-1.193 0.488,-1.853c-0.143,-0.66 -0.593,-1.213 -1.211,-1.486l-10.611,-4.692l10.354,-5.236c0.603,-0.305 1.023,-0.879 1.132,-1.546c0.108,-0.667 -0.109,-1.345 -0.584,-1.825l-11.822,-11.946l16.455,3.418c0.662,0.138 1.349,-0.05 1.849,-0.503c0.5,-0.454 0.753,-1.12 0.681,-1.791l-1.242,-11.536l9.712,6.349c0.565,0.369 1.273,0.446 1.904,0.207c0.632,-0.24 1.111,-0.767 1.289,-1.418l4.434,-16.211Z" style="fill:rgb(213,213,213);"/>
                <path d="M879.727,331.905l-7.734,5.817l-1.433,-10.134l-16.495,9.138l9.137,-16.495l-10.133,-1.433l6.152,-8.179l-18.125,-5.203l18.125,-5.202l-6.152,-8.179l10.133,-1.434l-9.137,-16.494l16.495,9.137l1.433,-10.133l8.179,6.152l5.202,-18.125l5.203,18.125l8.179,-6.152l1.433,10.133l0.941,-0.521l0.24,2.232l-20.474,-4.253c-0.912,-0.189 -1.841,0.241 -2.286,1.06c-0.445,0.819 -0.3,1.832 0.355,2.495l14.709,14.862l-11.746,5.94c-0.729,0.368 -1.18,1.124 -1.159,1.94c0.022,0.816 0.511,1.547 1.258,1.877l12.038,5.323l-13.919,15.605c-0.518,0.581 -0.667,1.388 -0.419,2.101Zm33.173,-55.702l1.854,-1.027l-0.52,1.9l-1.334,-0.873Zm3.266,60.236l-1.248,-0.691l0.822,-0.601l0.426,1.292Zm-13.731,-7.606l-1.07,-0.593l1.119,-0.294l-0.049,0.887Zm-2.387,-0.248l-1.292,9.137l-8.179,-6.152l-5.203,18.124l-4.795,-16.708c0.486,0.313 1.093,0.421 1.68,0.267l17.789,-4.668Z" style="fill:rgb(213,213,213);"/>
                <path d="M985.288,478.707l5.716,7.616l3.712,-5.342l0.885,6.445l8.548,-4.196l-5.477,7.79l6.228,1.879l-5.856,2.833l6.632,6.834l-9.101,-2.802l0.137,6.504l-4.504,-4.694l-4.45,8.419l-0.147,-9.522l-6.144,2.141l3.073,-5.735l-9.382,-1.63l9.01,-3.082l-3.934,-5.182l6.403,1.15l-1.349,-9.426Z" style="fill:rgb(213,213,213);stroke:rgb(213,213,213);stroke-width:6.25px;stroke-linecap:butt;stroke-miterlimit:2;"/>
                <path d="M901.851,707.847l1.399,11.485l3.821,-2.85l0.357,4.754l9.585,-6.48l-6.311,9.697l4.76,0.273l-2.783,3.871l11.508,1.197l-11.068,3.372l3.471,3.268l-4.62,1.177l8.046,8.314l-10.646,-4.531l0.558,4.734l-4.295,-2.068l0.819,11.541l-5.243,-10.314l-2.616,3.986l-1.96,-4.346l-6.791,9.368l2.613,-11.271l-4.565,1.371l1.291,-4.588l-11.224,2.81l9.247,-6.954l-4.379,-1.884l3.939,-2.685l-10.405,-5.061l11.554,0.616l-2.144,-4.258l4.744,0.475l-4.717,-10.565l8.454,7.898l1.095,-4.639l3.329,3.412l3.177,-11.125Z" style="fill:rgb(213,213,213);stroke:rgb(213,213,213);stroke-width:3.33px;stroke-linecap:butt;stroke-miterlimit:2;"/>
                <path d="M997.721,456.733l1.927,3.721l2.824,1.815l-2.824,1.815l-1.927,3.721l-1.927,-3.721l-2.825,-1.815l2.825,-1.815l1.927,-3.721Z" style="fill:rgb(213,213,213);stroke:rgb(213,213,213);stroke-width:6.25px;stroke-linecap:butt;stroke-miterlimit:2;"/>
                <path d="M1079.95,595.7l-0.319,14.01l9.816,-0.269l-6.119,7.68l11.383,8.172l-14.01,-0.319l0.269,9.817l-7.679,-6.12l-8.173,11.384l0.319,-14.01l-9.816,0.269l6.12,-7.68l-11.384,-8.173l14.01,0.319l-0.269,-9.816l7.679,6.12l8.173,-11.384Z" style="fill:rgb(213,213,213);stroke:rgb(213,213,213);stroke-width:6.25px;stroke-linecap:butt;stroke-miterlimit:2;"/>
                <path d="M672.837,614.412l3.838,11.181l8.261,1.023l-4.226,7.172l6.522,9.858l-11.601,-2.266l-5.017,6.643l-4.098,-7.246l-11.799,0.719l7.764,-8.914l-3.245,-7.666l8.324,0.074l5.277,-10.578Z" style="fill:rgb(213,213,213);stroke:rgb(213,213,213);stroke-width:6.25px;stroke-linecap:butt;stroke-miterlimit:2;"/>
                <path d="M807.139,503.512l4.042,14.262c0.044,0.153 0.108,0.292 0.188,0.406c0.08,0.115 0.174,0.204 0.277,0.261l9.557,5.272l-9.236,5.816c-0.099,0.063 -0.188,0.157 -0.261,0.276c-0.074,0.119 -0.129,0.261 -0.164,0.417l-3.209,14.472l-4.043,-14.262c-0.043,-0.153 -0.107,-0.292 -0.187,-0.407c-0.08,-0.114 -0.175,-0.203 -0.277,-0.26l-9.557,-5.272l9.235,-5.816c0.1,-0.063 0.189,-0.157 0.262,-0.276c0.073,-0.119 0.129,-0.262 0.163,-0.417l3.21,-14.472Z" style="fill:rgb(213,213,213);stroke:rgb(213,213,213);stroke-width:6.25px;"/>
                <path d="M1030.21,601.315l2.94,5.137c0.024,0.041 0.051,0.077 0.08,0.108c0.029,0.03 0.061,0.055 0.093,0.073l4.07,2.212l-2.911,3.603c-0.024,0.028 -0.043,0.063 -0.059,0.103c-0.015,0.039 -0.026,0.083 -0.032,0.13l-0.747,5.871l-2.941,-5.136c-0.023,-0.041 -0.05,-0.078 -0.08,-0.108c-0.029,-0.031 -0.06,-0.056 -0.093,-0.073l-4.07,-2.212l2.912,-3.603c0.023,-0.029 0.043,-0.064 0.058,-0.103c0.015,-0.04 0.026,-0.084 0.032,-0.131l0.748,-5.871Z" style="fill:rgb(213,213,213);stroke:rgb(213,213,213);stroke-width:6.25px;"/>
                <path d="M713.776,410.957l1.938,-2.769c0.016,-0.022 0.029,-0.05 0.041,-0.082c0.011,-0.033 0.02,-0.07 0.027,-0.111l0.81,-5.072l1.403,4.941c0.011,0.04 0.024,0.075 0.04,0.107c0.015,0.031 0.032,0.057 0.05,0.077l2.251,2.521l-1.938,2.769c-0.015,0.022 -0.029,0.05 -0.041,0.082c-0.011,0.033 -0.02,0.07 -0.027,0.111l-0.81,5.072l-1.403,-4.941c-0.011,-0.04 -0.024,-0.076 -0.04,-0.107c-0.015,-0.031 -0.032,-0.057 -0.05,-0.077l-2.251,-2.521Z" style="fill:rgb(213,213,213);stroke:rgb(213,213,213);stroke-width:6.25px;"/>
                <path d="M1097.59,631.772l1.082,5.96c0.013,0.07 0.032,0.134 0.055,0.186c0.024,0.051 0.051,0.09 0.08,0.112l2.482,1.863l-2.287,2.097c-0.027,0.025 -0.051,0.066 -0.069,0.12c-0.018,0.053 -0.031,0.118 -0.037,0.19l-0.492,6.037l-1.082,-5.96c-0.013,-0.07 -0.032,-0.134 -0.055,-0.186c-0.024,-0.051 -0.051,-0.09 -0.081,-0.112l-2.482,-1.863l2.288,-2.097c0.027,-0.025 0.05,-0.066 0.069,-0.119c0.018,-0.054 0.031,-0.119 0.036,-0.191l0.493,-6.037Z" style="fill:rgb(213,213,213);stroke:rgb(213,213,213);stroke-width:6.25px;"/>
                <path d="M1119.62,388.064l3.122,9.947c0.062,0.199 0.2,0.368 0.385,0.475c0.186,0.108 0.406,0.145 0.617,0.104l10.573,-2.04l-5.114,9.052c-0.102,0.18 -0.129,0.392 -0.075,0.592c0.053,0.201 0.184,0.376 0.365,0.49l9.083,5.731l-10.353,2.855c-0.207,0.057 -0.382,0.186 -0.492,0.363c-0.11,0.176 -0.145,0.386 -0.1,0.588l2.273,10.146l-9.528,-5.015c-0.19,-0.1 -0.412,-0.129 -0.621,-0.08c-0.208,0.049 -0.389,0.172 -0.506,0.344l-5.869,8.616l-3.121,-9.947c-0.063,-0.198 -0.2,-0.368 -0.386,-0.475c-0.186,-0.107 -0.406,-0.144 -0.617,-0.104l-10.572,2.041l5.114,-9.052c0.102,-0.181 0.129,-0.392 0.075,-0.593c-0.054,-0.2 -0.185,-0.375 -0.366,-0.49l-9.083,-5.731l10.354,-2.854c0.206,-0.057 0.382,-0.187 0.491,-0.363c0.11,-0.177 0.146,-0.387 0.1,-0.589l-2.273,-10.145l9.529,5.014c0.19,0.1 0.411,0.129 0.62,0.08c0.209,-0.049 0.39,-0.171 0.507,-0.343l5.868,-8.617Z" style="fill:rgb(213,213,213);stroke:rgb(213,213,213);stroke-width:6.25px;"/>
                <path d="M747.307,395.811l4.161,6.638c0.07,0.111 0.172,0.2 0.294,0.257c0.122,0.056 0.259,0.076 0.393,0.059l8.029,-1.031l-2.839,7.246c-0.048,0.121 -0.057,0.253 -0.027,0.379c0.03,0.127 0.099,0.242 0.197,0.331l5.85,5.352l-7.702,2.398c-0.129,0.04 -0.243,0.116 -0.328,0.217c-0.084,0.101 -0.136,0.224 -0.148,0.353l-0.734,7.705l-6.765,-4.256c-0.113,-0.072 -0.246,-0.11 -0.381,-0.11c-0.136,0 -0.269,0.038 -0.382,0.11l-6.765,4.256l-0.734,-7.705c-0.012,-0.129 -0.064,-0.252 -0.148,-0.353c-0.085,-0.101 -0.198,-0.177 -0.327,-0.217l-7.703,-2.398l5.851,-5.352c0.097,-0.089 0.166,-0.204 0.196,-0.331c0.03,-0.126 0.021,-0.258 -0.027,-0.379l-2.839,-7.246l8.029,1.031c0.134,0.017 0.271,-0.003 0.393,-0.059c0.122,-0.057 0.224,-0.146 0.294,-0.257l4.162,-6.638Z" style="fill:rgb(213,213,213);stroke:rgb(213,213,213);stroke-width:6.25px;"/>
            </g>
            <g id="Controls">
                <g id="_1900h" serif:id="1900h">
                    <circle cx="900.129" cy="425.135" r="50.7" style="fill:rgb(131,133,136);"/>
                    <rect x="898.286" y="380.548" width="3.687" height="35.149" style="fill:white;"/>
                </g>
                <g id="_1900h1" serif:id="1900h">
                    <circle cx="900.129" cy="603.737" r="50.7" style="fill:rgb(131,133,136);"/>
                    <rect x="898.286" y="559.15" width="3.687" height="35.149" style="fill:white;"/>
                </g>
                <g id="_1900h2" serif:id="1900h">
                    <circle cx="714.654" cy="502.337" r="50.7" style="fill:rgb(131,133,136);"/>
                    <rect x="712.81" y="457.75" width="3.687" height="35.149" style="fill:white;"/>
                </g>
                <g id="_1900h3" serif:id="1900h">
                    <circle cx="1085.37" cy="502.337" r="50.7" style="fill:rgb(131,133,136);"/>
                    <rect x="1083.52" y="457.75" width="3.687" height="35.149" style="fill:white;"/>
                </g>
                <g id="Large-MXR" serif:id="Large MXR">
                    <circle cx="748.183" cy="255.079" r="99.803" style="fill:rgb(131,133,136);"/>
                    <rect x="744.012" y="180.344" width="8.341" height="69.654" style="fill:white;"/>
                    <circle cx="748.183" cy="164.847" r="4.171" style="fill:white;"/>
                </g>
                <g id="Large-MXR1" serif:id="Large MXR">
                    <circle cx="1052.08" cy="255.079" r="99.803" style="fill:rgb(131,133,136);"/>
                    <rect x="1047.91" y="180.344" width="8.341" height="69.654" style="fill:white;"/>
                    <circle cx="1052.08" cy="164.847" r="4.171" style="fill:white;"/>
                </g>
                <g id="_1RWHT" serif:id="1RWHT">
                    <ellipse cx="899.888" cy="797.018" rx="20.779" ry="20.813" style="fill:rgb(213,213,213);"/>
                </g>
                <g id="Tall-Trimmer" serif:id="Tall Trimmer">
                    <circle cx="789.046" cy="734.15" r="23.953" style="fill:rgb(131,133,136);"/>
                    <rect x="786.713" y="710.197" width="4.667" height="12.839" style="fill:white;"/>
                </g>
                <g id="Tall-Trimmer1" serif:id="Tall Trimmer">
                    <circle cx="678.465" cy="734.15" r="23.953" style="fill:rgb(131,133,136);"/>
                    <rect x="676.131" y="710.197" width="4.667" height="12.839" style="fill:white;"/>
                </g>
                <g id="Tall-Trimmer2" serif:id="Tall Trimmer">
                    <circle cx="789.046" cy="854.689" r="23.953" style="fill:rgb(131,133,136);"/>
                    <rect x="786.713" y="830.736" width="4.667" height="12.839" style="fill:white;"/>
                </g>
                <g id="Tall-Trimmer3" serif:id="Tall Trimmer">
                    <circle cx="1119.7" cy="734.15" r="23.953" style="fill:rgb(131,133,136);"/>
                    <rect x="1117.36" y="710.197" width="4.667" height="12.839" style="fill:white;"/>
                </g>
                <g id="Tall-Trimmer4" serif:id="Tall Trimmer">
                    <circle cx="1009.67" cy="854.689" r="23.953" style="fill:rgb(131,133,136);"/>
                    <rect x="1007.34" y="830.736" width="4.667" height="12.839" style="fill:white;"/>
                </g>
                <g id="Tall-Trimmer5" serif:id="Tall Trimmer">
                    <circle cx="1009.09" cy="734.15" r="23.953" style="fill:rgb(131,133,136);"/>
                    <rect x="1006.75" y="710.197" width="4.667" height="12.839" style="fill:white;"/>
                </g>
            </g>
        </g>
        <g id="_1900h4" serif:id="1900h">
            <path d="M874.779,469.043c-24.233,-13.991 -32.548,-45.024 -18.557,-69.258c13.991,-24.233 45.024,-32.548 69.258,-18.557c24.233,13.991 32.548,45.024 18.557,69.258c-13.991,24.233 -45.024,32.548 -69.258,18.557Z" style="fill:rgb(131,133,136);"/>
            <path d="M876.239,462.827l3.193,1.844l17.575,-30.44l-3.193,-1.844l-17.575,30.44Z" style="fill:white;"/>
        </g>
        <g id="_1900h5" serif:id="1900h">
            <path d="M689.303,546.244c-24.233,-13.991 -32.549,-45.024 -18.558,-69.258c13.992,-24.233 45.025,-32.548 69.258,-18.557c24.233,13.991 32.549,45.024 18.558,69.257c-13.991,24.234 -45.025,32.549 -69.258,18.558Z" style="fill:rgb(131,133,136);"/>
            <path d="M690.763,540.028l3.193,1.844l17.575,-30.44l-3.194,-1.844l-17.574,30.44Z" style="fill:white;"/>
        </g>
        <g id="_1900h6" serif:id="1900h">
            <path d="M871.463,645.556c-23.079,-15.822 -28.972,-47.405 -13.15,-70.485c15.821,-23.08 47.404,-28.972 70.484,-13.151c23.08,15.822 28.973,47.405 13.151,70.485c-15.822,23.08 -47.405,28.972 -70.485,13.151Z" style="fill:rgb(131,133,136);"/>
            <path d="M873.399,639.472l3.041,2.084l19.874,-28.991l-3.041,-2.085l-19.874,28.992Z" style="fill:white;"/>
        </g>
        <g id="_1900h7" serif:id="1900h">
            <path d="M1060.26,546.245c-24.233,-13.991 -32.549,-45.024 -18.558,-69.257c13.991,-24.233 45.025,-32.549 69.258,-18.558c24.233,13.991 32.549,45.025 18.558,69.258c-13.992,24.233 -45.025,32.549 -69.258,18.557Z" style="fill:rgb(131,133,136);"/>
            <path d="M1061.72,540.03l3.193,1.844l17.574,-30.44l-3.193,-1.844l-17.574,30.44Z" style="fill:white;"/>
        </g>
        <g id="Large-MXR2" serif:id="Large MXR">
            <path d="M698.281,341.511c-47.703,-27.541 -64.072,-88.631 -36.531,-136.334c27.542,-47.703 88.631,-64.072 136.334,-36.53c47.704,27.541 64.072,88.63 36.531,136.334c-27.542,47.703 -88.631,64.072 -136.334,36.53Z" style="fill:rgb(131,133,136);"/>
            <path d="M707.203,317.716l7.224,4.17l34.827,-60.322l-7.224,-4.17l-34.827,60.322Z" style="fill:white;"/>
            <path d="M700.981,336.834c-1.993,-1.151 -2.677,-3.704 -1.526,-5.698c1.151,-1.993 3.704,-2.677 5.697,-1.526c1.993,1.151 2.678,3.704 1.527,5.697c-1.151,1.994 -3.704,2.678 -5.698,1.527Z" style="fill:white;"/>
        </g>
        <g id="Large-MXR3" serif:id="Large MXR">
            <path d="M1004.81,341.511c-47.703,-27.541 -64.072,-88.631 -36.53,-136.334c27.541,-47.703 88.631,-64.072 136.334,-36.53c47.703,27.541 64.072,88.63 36.53,136.334c-27.541,47.703 -88.63,64.072 -136.334,36.53Z" style="fill:rgb(131,133,136);"/>
            <path d="M1013.73,317.716l7.224,4.17l34.826,-60.322l-7.223,-4.17l-34.827,60.322Z" style="fill:white;"/>
            <path d="M1007.51,336.834c-1.993,-1.151 -2.678,-3.704 -1.527,-5.698c1.151,-1.993 3.704,-2.677 5.698,-1.526c1.993,1.151 2.677,3.704 1.526,5.697c-1.151,1.994 -3.704,2.678 -5.697,1.527Z" style="fill:white;"/>
        </g>
        <g id="Tall-Trimmer6" serif:id="Tall Trimmer">
            <path d="M690.441,754.893c-11.448,6.61 -26.11,2.682 -32.72,-8.767c-6.61,-11.449 -2.681,-26.11 8.768,-32.72c11.448,-6.61 26.11,-2.682 32.72,8.767c6.61,11.449 2.681,26.11 -8.768,32.72Z" style="fill:rgb(131,133,136);"/>
            <path d="M688.42,756.06l4.042,-2.333l-6.419,-11.12l-4.042,2.334l6.419,11.119Z" style="fill:white;"/>
        </g>
        <g id="Tall-Trimmer7" serif:id="Tall Trimmer">
            <path d="M777.07,754.893c-11.449,-6.61 -15.378,-21.271 -8.768,-32.72c6.61,-11.449 21.272,-15.377 32.72,-8.767c11.449,6.61 15.378,21.271 8.768,32.72c-6.61,11.449 -21.272,15.377 -32.72,8.767Z" style="fill:rgb(131,133,136);"/>
            <path d="M775.049,753.727l4.042,2.333l6.419,-11.119l-4.042,-2.334l-6.419,11.12Z" style="fill:white;"/>
        </g>
        <g id="Tall-Trimmer8" serif:id="Tall Trimmer">
            <path d="M777.07,875.433c-11.449,-6.61 -15.378,-21.271 -8.768,-32.72c6.61,-11.449 21.272,-15.377 32.72,-8.767c11.449,6.61 15.378,21.271 8.768,32.72c-6.61,11.449 -21.272,15.377 -32.72,8.767Z" style="fill:rgb(131,133,136);"/>
            <path d="M775.049,874.266l4.042,2.334l6.419,-11.119l-4.042,-2.334l-6.419,11.119Z" style="fill:white;"/>
        </g>
        <g id="Tall-Trimmer9" serif:id="Tall Trimmer">
            <path d="M997.697,875.433c-11.449,-6.61 -15.378,-21.271 -8.768,-32.72c6.61,-11.449 21.272,-15.377 32.72,-8.767c11.449,6.61 15.378,21.271 8.768,32.72c-6.61,11.449 -21.272,15.377 -32.72,8.767Z" style="fill:rgb(131,133,136);"/>
            <path d="M995.675,874.266l4.043,2.334l6.419,-11.119l-4.042,-2.334l-6.42,11.119Z" style="fill:white;"/>
        </g>
        <g id="Tall-Trimmer10" serif:id="Tall Trimmer">
            <path d="M997.697,754.893c-11.449,-6.61 -15.378,-21.271 -8.768,-32.72c6.61,-11.449 21.272,-15.377 32.72,-8.767c11.449,6.61 15.378,21.271 8.768,32.72c-6.61,11.449 -21.272,15.377 -32.72,8.767Z" style="fill:rgb(131,133,136);"/>
            <path d="M995.675,753.727l4.043,2.333l6.419,-11.119l-4.042,-2.334l-6.42,11.12Z" style="fill:white;"/>
        </g>
        <g id="Tall-Trimmer11" serif:id="Tall Trimmer">
            <path d="M1107.72,754.893c-11.449,-6.61 -15.377,-21.271 -8.767,-32.72c6.609,-11.449 21.271,-15.377 32.72,-8.767c11.448,6.61 15.377,21.271 8.767,32.72c-6.61,11.449 -21.271,15.377 -32.72,8.767Z" style="fill:rgb(131,133,136);"/>
            <path d="M1105.7,753.727l4.042,2.333l6.42,-11.119l-4.043,-2.334l-6.419,11.12Z" style="fill:white;"/>
        </g>
        <path d="M832.877,368.293l-21.251,-6.055l6.054,-21.251" style="fill:none;stroke:rgb(230,33,109);stroke-width:10.42px;stroke-linejoin:miter;stroke-miterlimit:10;"/>
        <path d="M691.176,365.82c-39.882,-20.668 -67.159,-62.331 -67.159,-110.315c-0,-68.529 55.637,-124.166 124.166,-124.166c68.528,-0 124.165,55.637 124.165,124.166c0,45.356 -24.372,85.065 -60.722,106.733" style="fill:none;stroke:rgb(230,33,109);stroke-width:10.42px;"/>
        <g>
            <path d="M709.133,786.229l-15.431,-8.747l15.571,-8.99l-0.14,17.737Z" style="fill:none;stroke:rgb(230,33,109);stroke-width:10.42px;"/>
            <path d="M701.487,772.987c-21.53,12.431 -49.102,5.043 -61.533,-16.488c-12.431,-21.53 -5.043,-49.103 16.488,-61.533c21.53,-12.431 49.103,-5.043 61.533,16.487c12.431,21.531 5.043,49.103 -16.488,61.534Z" style="fill:none;stroke:rgb(230,33,109);stroke-width:10.42px;"/>
        </g>
        <path d="M811.671,1015.06c-21.531,12.43 -49.103,5.042 -61.533,-16.488c-12.431,-21.531 -5.043,-49.103 16.487,-61.534c21.531,-12.43 49.103,-5.042 61.534,16.488c12.43,21.531 5.042,49.103 -16.488,61.534Z" style="fill:none;stroke:rgb(64,140,148);stroke-width:10.42px;"/>
        <g id="Left-in" serif:id="Left in">
            <path d="M777.455,1164.33l-0.002,-5.339l-4.523,-0.143l-0.007,-20.66l4.523,0.143l-0.002,-5.379l-5.148,-0.162l-0.003,-7.602c-1.679,-0.484 -2.924,-2.073 -2.924,-3.918l-0.024,-69.677c-0.001,-2.178 1.733,-3.891 3.87,-3.824l1.925,0.06l-0.001,-2.711l6.207,0.195l-0.014,-41.794l0.782,0.024l-0.002,-5.183c-0,-1.216 0.968,-2.173 2.161,-2.136l-0.564,-0.018l-0.82,-14.749l4.368,-5.405l5.233,0.156l4.347,5.543l-1.453,14.822l0.275,0.009c1.194,0.037 2.163,1.055 2.163,2.272l0.002,5.183l0.508,0.016l0.014,41.794l6.193,0.195l0.001,2.711l1.987,0.063c2.137,0.067 3.872,1.889 3.873,4.067l0.023,69.677c0.001,1.775 -1.151,3.241 -2.734,3.687l0.003,7.655l-5.312,-0.167l0.001,5.379l4.579,0.144l0.007,20.66l-4.579,-0.144l0.002,5.339l-24.002,-0.754l28.581,0.898l0.006,19.527c0.001,0.631 -0.502,1.128 -1.122,1.109l-31.791,-0.366c-0.62,-0.019 -1.123,-0.548 -1.123,-1.179l-0.007,-20.16l4.523,0.142Zm0.007,21.304l24.935,0.15l-24.935,-0.15Z" style="fill:rgb(102,173,181);"/>
            <path d="M782.113,999.702l0,3.964l15.71,-0l-0,-3.964l-15.71,0Z" style="fill:rgb(244,244,245);"/>
            <path d="M779.917,1182.41l-0,409.564l19.934,-0l0,-409.564l-19.934,0Z" style="fill:rgb(102,173,181);"/>
        </g>
    </g>
</svg>
