<?xml version="1.0" encoding="UTF-8" standalone="no"?>
<!DOCTYPE svg PUBLIC "-//W3C//DTD SVG 1.1//EN" "http://www.w3.org/Graphics/SVG/1.1/DTD/svg11.dtd">
<svg width="100%" height="100%" viewBox="0 0 1800 1201" version="1.1" xmlns="http://www.w3.org/2000/svg" xmlns:xlink="http://www.w3.org/1999/xlink" xml:space="preserve" xmlns:serif="http://www.serif.com/" style="fill-rule:evenodd;clip-rule:evenodd;stroke-linecap:round;stroke-miterlimit:10;">
    <rect id="_8---Coarse" serif:id="8 - Coarse" x="0" y="0.95" width="1800" height="1200" style="fill:none;"/>
    <g id="_8---Coarse1" serif:id="8 - Coarse">
        <path d="M1035.14,650.099l-21.165,-6.351l6.35,-21.165" style="fill:none;stroke:url(#_Linear1);stroke-width:10.42px;"/>
        <path d="M792.506,647.24c-75.202,-38.973 -126.637,-117.534 -126.637,-208.015c-0,-129.22 104.911,-234.131 234.131,-234.131c129.22,0 234.131,104.911 234.131,234.131c0,87.855 -48.494,164.473 -120.151,204.523" style="fill:none;stroke:url(#_Linear2);stroke-width:10.42px;stroke-linejoin:round;stroke-miterlimit:1.5;"/>
        <g id="Large-MXR" serif:id="Large MXR">
            <path d="M805.904,601.402c-89.951,-51.933 -120.817,-167.125 -68.884,-257.076c51.934,-89.951 167.125,-120.816 257.076,-68.883c89.951,51.933 120.817,167.125 68.884,257.076c-51.934,89.951 -167.125,120.816 -257.076,68.883Z" style="fill:rgb(131,133,136);"/>
            <path d="M822.728,556.533l13.622,7.864l65.67,-113.745l-13.621,-7.864l-65.671,113.745Z" style="fill:white;"/>
            <path d="M810.996,592.582c-3.759,-2.17 -5.049,-6.984 -2.879,-10.743c2.171,-3.759 6.984,-5.048 10.743,-2.878c3.759,2.17 5.049,6.984 2.879,10.743c-2.171,3.758 -6.984,5.048 -10.743,2.878Z" style="fill:white;"/>
        </g>
        <path d="M668.049,443.631l-20.077,-0c-2.874,-0 -5.208,-2.334 -5.208,-5.209c-0,-2.874 2.334,-5.208 5.208,-5.208l20.077,0c-0.038,1.732 -0.057,3.468 -0.057,5.208c-0,1.741 0.019,3.477 0.057,5.209Zm6.515,-60.222l-19.352,-5.185c-2.777,-0.744 -4.427,-3.602 -3.683,-6.379c0.744,-2.777 3.602,-4.427 6.379,-3.683l19.35,5.185c-0.971,3.324 -1.87,6.679 -2.694,10.062Zm21.949,-56.456l-17.38,-10.034c-2.489,-1.437 -3.343,-4.625 -1.906,-7.115c1.437,-2.489 4.625,-3.343 7.115,-1.906l17.39,10.041c-1.805,2.962 -3.545,5.967 -5.219,9.014Zm35.823,-48.829l-14.229,-14.229c-2.033,-2.033 -2.033,-5.333 -0,-7.366c2.032,-2.032 5.333,-2.032 7.365,0l14.229,14.229c-2.509,2.4 -4.965,4.856 -7.365,7.366Zm47.18,-37.969l-10.04,-17.391c-1.438,-2.489 -0.583,-5.677 1.906,-7.114c2.489,-1.438 5.677,-0.584 7.115,1.906l10.034,17.379c-3.047,1.674 -6.053,3.415 -9.015,5.22Zm55.408,-24.475l-5.184,-19.35c-0.744,-2.776 0.906,-5.634 3.682,-6.378c2.777,-0.744 5.635,0.906 6.379,3.682l5.186,19.353c-3.384,0.824 -6.739,1.722 -10.063,2.693Zm59.868,-9.208l-0,-20.077c-0,-2.875 2.333,-5.209 5.208,-5.209c2.875,0 5.208,2.334 5.208,5.209l0,20.077c-1.731,-0.039 -3.467,-0.058 -5.208,-0.058c-1.741,0 -3.477,0.019 -5.208,0.058Zm60.221,6.515l5.186,-19.353c0.744,-2.776 3.602,-4.426 6.379,-3.682c2.776,0.744 4.426,3.602 3.682,6.378l-5.184,19.35c-3.324,-0.971 -6.679,-1.869 -10.063,-2.693Zm56.456,21.948l10.034,-17.379c1.438,-2.49 4.626,-3.344 7.115,-1.906c2.489,1.437 3.344,4.625 1.906,7.114l-10.04,17.391c-2.962,-1.805 -5.968,-3.546 -9.015,-5.22Zm48.83,35.823l14.229,-14.229c2.032,-2.032 5.333,-2.032 7.365,0c2.033,2.033 2.033,5.333 0,7.366l-14.229,14.229c-2.4,-2.51 -4.856,-4.966 -7.365,-7.366Zm37.969,47.181l17.39,-10.041c2.49,-1.437 5.678,-0.583 7.115,1.906c1.437,2.49 0.583,5.678 -1.906,7.115l-17.38,10.034c-1.674,-3.047 -3.414,-6.052 -5.219,-9.014Zm24.474,55.408l19.35,-5.185c2.777,-0.744 5.635,0.906 6.379,3.683c0.744,2.777 -0.906,5.635 -3.683,6.379l-19.352,5.185c-0.824,-3.383 -1.723,-6.738 -2.694,-10.062Zm9.209,59.867l20.077,0c2.874,0 5.208,2.334 5.208,5.208c0,2.875 -2.334,5.209 -5.208,5.209l-20.077,-0c0.038,-1.732 0.057,-3.468 0.057,-5.209c0,-1.74 -0.019,-3.476 -0.057,-5.208Zm-6.515,60.222l19.352,5.185c2.777,0.744 4.427,3.602 3.683,6.379c-0.744,2.777 -3.602,4.427 -6.379,3.683l-19.35,-5.185c0.971,-3.324 1.87,-6.679 2.694,-10.062Zm-21.949,56.456l17.38,10.034c2.489,1.437 3.343,4.625 1.906,7.114c-1.437,2.49 -4.625,3.344 -7.115,1.907l-17.39,-10.041c1.805,-2.962 3.545,-5.967 5.219,-9.014Zm-35.823,48.829l14.229,14.229c2.033,2.033 2.033,5.333 0,7.366c-2.032,2.032 -5.333,2.032 -7.365,-0l-14.229,-14.229c2.509,-2.4 4.965,-4.856 7.365,-7.366Zm-279.133,43.189l-10.034,17.379c-1.438,2.489 -4.626,3.344 -7.115,1.906c-2.489,-1.437 -3.344,-4.625 -1.906,-7.114l10.04,-17.391c2.962,1.805 5.968,3.546 9.015,5.22Zm-48.83,-35.823l-14.229,14.229c-2.032,2.032 -5.333,2.032 -7.365,-0c-2.033,-2.033 -2.033,-5.333 -0,-7.366l14.229,-14.229c2.4,2.51 4.856,4.966 7.365,7.366Zm-37.969,-47.181l-17.39,10.041c-2.49,1.437 -5.678,0.583 -7.115,-1.907c-1.437,-2.489 -0.583,-5.677 1.906,-7.114l17.38,-10.034c1.674,3.047 3.414,6.052 5.219,9.014Zm-24.474,-55.408l-19.35,5.185c-2.777,0.744 -5.635,-0.906 -6.379,-3.683c-0.744,-2.777 0.906,-5.635 3.683,-6.379l19.352,-5.185c0.824,3.383 1.723,6.738 2.694,10.062Z" style="fill:url(#_Linear3);"/>
        <g>
            <rect x="545.884" y="675.801" width="221.544" height="79.707" style="fill:rgb(125,97,186);stroke:rgb(125,97,186);stroke-width:10.42px;stroke-linejoin:round;stroke-miterlimit:1.5;"/>
            <path d="M569.981,733.154l6.982,-34.4l6.313,0l-5.835,28.7l14.539,0l-0,6.3l-21.999,0l-0,-0.6Z" style="fill:rgb(244,244,245);fill-rule:nonzero;"/>
            <path d="M625.217,718.254c-0,2.333 -0.319,4.492 -0.957,6.475c-0.637,1.983 -1.578,3.692 -2.821,5.125c-1.244,1.433 -2.798,2.558 -4.663,3.375c-1.865,0.817 -4.025,1.225 -6.48,1.225c-1.403,0 -2.718,-0.217 -3.946,-0.65c-1.227,-0.433 -2.303,-1.075 -3.228,-1.925c-0.924,-0.85 -1.658,-1.892 -2.2,-3.125c-0.542,-1.233 -0.813,-2.633 -0.813,-4.2c0,-2.567 0.383,-4.858 1.148,-6.875c0.765,-2.017 1.81,-3.725 3.133,-5.125c1.323,-1.4 2.885,-2.467 4.686,-3.2c1.802,-0.733 3.739,-1.1 5.811,-1.1c1.498,0 2.885,0.242 4.161,0.725c1.275,0.483 2.367,1.158 3.275,2.025c0.909,0.867 1.618,1.917 2.129,3.15c0.51,1.233 0.765,2.6 0.765,4.1Zm-14.012,10.3c1.147,-0.033 2.207,-0.3 3.18,-0.8c0.972,-0.5 1.801,-1.158 2.487,-1.975c0.685,-0.817 1.219,-1.775 1.602,-2.875c0.382,-1.1 0.574,-2.267 0.574,-3.5c-0,-1.733 -0.447,-3.042 -1.34,-3.925c-0.892,-0.883 -2.088,-1.325 -3.586,-1.325c-1.148,0 -2.2,0.258 -3.157,0.775c-0.956,0.517 -1.785,1.2 -2.486,2.05c-0.702,0.85 -1.244,1.825 -1.626,2.925c-0.383,1.1 -0.574,2.25 -0.574,3.45c-0,1.7 0.446,2.992 1.339,3.875c0.892,0.883 2.088,1.325 3.587,1.325Z" style="fill:rgb(244,244,245);fill-rule:nonzero;"/>
            <path d="M634.734,727.454l-0.526,2.7l0.86,0l0.526,-2.4l4.831,-18.8l9.564,0l-2.487,18.8l-0.478,2.4l0.861,0l0.574,-2.7l4.83,-19.1l4.926,1.25l-6.361,24.15l-9.612,0l2.821,-21.8l-0.86,0l-5.5,21.8l-9.373,0l2.725,-24.8l5.022,0l-2.343,18.5Z" style="fill:rgb(244,244,245);fill-rule:nonzero;"/>
            <path d="M664.958,723.404c-0.064,0.267 -0.096,0.55 -0.096,0.85c0,1.2 0.439,2.2 1.315,3c0.877,0.8 2.033,1.2 3.468,1.2c1.498,0 2.694,-0.283 3.586,-0.85c0.893,-0.567 1.579,-1.233 2.057,-2l4.782,3.15c-0.382,0.667 -0.885,1.333 -1.506,2c-0.622,0.667 -1.387,1.275 -2.296,1.825c-0.909,0.55 -1.977,1 -3.204,1.35c-1.227,0.35 -2.654,0.525 -4.28,0.525c-1.467,0 -2.814,-0.242 -4.041,-0.725c-1.228,-0.483 -2.28,-1.15 -3.157,-2c-0.876,-0.85 -1.562,-1.867 -2.056,-3.05c-0.494,-1.183 -0.741,-2.492 -0.741,-3.925c-0,-2.267 0.327,-4.4 0.98,-6.4c0.654,-2 1.602,-3.75 2.846,-5.25c1.243,-1.5 2.773,-2.683 4.591,-3.55c1.817,-0.867 3.905,-1.3 6.264,-1.3c1.658,0 3.101,0.275 4.328,0.825c1.228,0.55 2.24,1.283 3.037,2.2c0.797,0.917 1.395,1.958 1.794,3.125c0.398,1.167 0.597,2.367 0.597,3.6c0,0.4 -0.023,0.808 -0.071,1.225c-0.048,0.417 -0.136,0.958 -0.263,1.625l-0.526,2.55l-17.408,0Zm7.556,-9.45c-1.498,0 -2.798,0.392 -3.898,1.175c-1.1,0.783 -1.92,1.742 -2.462,2.875l11.19,0c0,-1.267 -0.374,-2.258 -1.124,-2.975c-0.749,-0.717 -1.984,-1.075 -3.706,-1.075Z" style="fill:rgb(244,244,245);fill-rule:nonzero;"/>
            <path d="M701.734,713.954c-0.351,0 -0.709,0.042 -1.076,0.125c-0.367,0.083 -0.709,0.208 -1.028,0.375c-0.319,0.167 -0.582,0.392 -0.789,0.675c-0.207,0.283 -0.311,0.625 -0.311,1.025c-0,0.7 0.382,1.217 1.148,1.55c0.765,0.333 2.072,0.617 3.921,0.85c2.073,0.267 3.746,0.925 5.022,1.975c1.275,1.05 1.913,2.558 1.913,4.525c-0,2.933 -0.981,5.233 -2.942,6.9c-1.96,1.667 -4.678,2.5 -8.153,2.5c-1.754,0 -3.26,-0.267 -4.52,-0.8c-1.259,-0.533 -2.295,-1.2 -3.108,-2c-0.813,-0.8 -1.427,-1.683 -1.841,-2.65c-0.415,-0.967 -0.638,-1.883 -0.67,-2.75l5.93,-1.5c0.096,1.1 0.542,2.042 1.339,2.825c0.797,0.783 2.009,1.175 3.635,1.175c1.116,0 2.088,-0.183 2.917,-0.55c0.829,-0.367 1.243,-1.017 1.243,-1.95c0,-0.7 -0.318,-1.258 -0.956,-1.675c-0.638,-0.417 -1.817,-0.708 -3.539,-0.875c-2.296,-0.2 -4.121,-0.883 -5.476,-2.05c-1.355,-1.167 -2.032,-2.717 -2.032,-4.65c-0,-1.4 0.279,-2.65 0.837,-3.75c0.558,-1.1 1.299,-2.017 2.223,-2.75c0.925,-0.733 2.001,-1.292 3.228,-1.675c1.228,-0.383 2.511,-0.575 3.85,-0.575c1.658,0 3.045,0.233 4.161,0.7c1.116,0.467 2.024,1.05 2.726,1.75c0.701,0.7 1.219,1.458 1.554,2.275c0.335,0.817 0.55,1.575 0.646,2.275l-5.835,1.6c-0.127,-0.9 -0.526,-1.608 -1.195,-2.125c-0.67,-0.517 -1.61,-0.775 -2.822,-0.775Z" style="fill:rgb(244,244,245);fill-rule:nonzero;"/>
            <path d="M726.028,714.954l-6.695,0l0,-6l7.939,0l2.2,-10.9l6.025,0l-2.2,10.9l8.226,0l0,6l-9.469,0l-2.678,12.85l0.478,0.35l6.408,-4.6l3.013,4.7l-6.934,4.9c-1.212,0.867 -2.503,1.3 -3.874,1.3c-0.701,0 -1.371,-0.125 -2.008,-0.375c-0.638,-0.25 -1.196,-0.608 -1.674,-1.075c-0.478,-0.467 -0.861,-1.033 -1.148,-1.7c-0.287,-0.667 -0.43,-1.417 -0.43,-2.25c-0,-0.267 0.016,-0.508 0.048,-0.725c0.031,-0.217 0.079,-0.508 0.143,-0.875l2.63,-12.5Z" style="fill:rgb(244,244,245);fill-rule:nonzero;"/>
        </g>
        <g>
            <rect x="1032.57" y="675.801" width="240.06" height="79.707" style="fill:rgb(64,140,148);stroke:rgb(64,140,148);stroke-width:10.42px;stroke-linejoin:round;stroke-miterlimit:1.5;"/>
            <path d="M1059.67,698.754l6.312,0l-2.917,14.3l9.565,0l2.917,-14.3l6.313,0l-7.126,35l-6.313,0l2.918,-14.4l-9.565,0l-2.917,14.4l-6.265,0l7.078,-35Z" style="fill:rgb(244,244,245);fill-rule:nonzero;"/>
            <path d="M1100.03,733.154c-0.638,0.467 -1.292,0.8 -1.961,1c-0.67,0.2 -1.323,0.3 -1.961,0.3c-0.701,0 -1.371,-0.125 -2.009,-0.375c-0.637,-0.25 -1.195,-0.6 -1.673,-1.05c-0.479,-0.45 -0.853,-1 -1.124,-1.65c-0.271,-0.65 -0.407,-1.375 -0.407,-2.175c0,-0.633 0.064,-1.217 0.192,-1.75l2.869,-12.55l-0.478,-0.35l-6.409,4.6l-3.012,-4.7l6.934,-4.9c0.638,-0.467 1.291,-0.8 1.961,-1c0.669,-0.2 1.323,-0.3 1.96,-0.3c0.702,0 1.371,0.125 2.009,0.375c0.638,0.25 1.196,0.6 1.674,1.05c0.478,0.45 0.853,1 1.124,1.65c0.271,0.65 0.406,1.375 0.406,2.175c0,0.633 -0.064,1.217 -0.191,1.75l-2.87,12.55l0.479,0.35l6.408,-4.6l3.013,4.7l-6.934,4.9Zm4.16,-31.55c0,0.667 -0.119,1.292 -0.359,1.875c-0.239,0.583 -0.565,1.083 -0.98,1.5c-0.414,0.417 -0.901,0.75 -1.459,1c-0.557,0.25 -1.139,0.375 -1.745,0.375c-0.638,0 -1.228,-0.125 -1.77,-0.375c-0.542,-0.25 -1.02,-0.583 -1.434,-1c-0.415,-0.417 -0.741,-0.917 -0.981,-1.5c-0.239,-0.583 -0.358,-1.208 -0.358,-1.875c-0,-0.667 0.119,-1.292 0.358,-1.875c0.24,-0.583 0.566,-1.083 0.981,-1.5c0.414,-0.417 0.892,-0.75 1.434,-1c0.542,-0.25 1.132,-0.375 1.77,-0.375c0.606,0 1.188,0.125 1.745,0.375c0.558,0.25 1.045,0.583 1.459,1c0.415,0.417 0.741,0.917 0.98,1.5c0.24,0.583 0.359,1.208 0.359,1.875Z" style="fill:rgb(244,244,245);fill-rule:nonzero;"/>
            <path d="M1129.49,730.154l-0.861,0c-0.351,0.567 -0.749,1.108 -1.196,1.625c-0.446,0.517 -0.988,0.975 -1.626,1.375c-0.637,0.4 -1.403,0.717 -2.295,0.95c-0.893,0.233 -1.929,0.35 -3.109,0.35c-1.147,0 -2.224,-0.2 -3.228,-0.6c-1.004,-0.4 -1.873,-1 -2.606,-1.8c-0.733,-0.8 -1.315,-1.808 -1.746,-3.025c-0.43,-1.217 -0.645,-2.642 -0.645,-4.275c-0,-2.067 0.295,-4.092 0.884,-6.075c0.59,-1.983 1.459,-3.75 2.607,-5.3c1.148,-1.55 2.574,-2.792 4.28,-3.725c1.706,-0.933 3.69,-1.4 5.954,-1.4c1.945,0 3.419,0.392 4.424,1.175c1.004,0.783 1.634,1.825 1.889,3.125l0.86,0l0.718,-3.6l6.026,0l-6.265,30.9c-0.255,1.133 -0.797,2.067 -1.626,2.8c-0.829,0.733 -1.786,1.1 -2.87,1.1l-14.729,0l-0,-6l12.338,0c0.861,0 1.387,-0.5 1.578,-1.5l1.244,-6.1Zm-5.978,-1.7c1.148,0 2.208,-0.25 3.18,-0.75c0.972,-0.5 1.817,-1.167 2.535,-2c0.717,-0.833 1.275,-1.8 1.673,-2.9c0.399,-1.1 0.598,-2.25 0.598,-3.45c0,-1.6 -0.446,-2.85 -1.339,-3.75c-0.892,-0.9 -2.152,-1.35 -3.778,-1.35c-1.211,0 -2.311,0.25 -3.3,0.75c-0.988,0.5 -1.825,1.158 -2.51,1.975c-0.686,0.817 -1.22,1.767 -1.602,2.85c-0.383,1.083 -0.574,2.192 -0.574,3.325c-0,1.767 0.47,3.092 1.41,3.975c0.941,0.883 2.176,1.325 3.707,1.325Z" style="fill:rgb(244,244,245);fill-rule:nonzero;"/>
            <path d="M1158.8,719.354c0.064,-0.367 0.112,-0.658 0.144,-0.875c0.032,-0.217 0.048,-0.458 0.048,-0.725c-0,-1.2 -0.335,-2.133 -1.005,-2.8c-0.669,-0.667 -1.578,-1 -2.726,-1c-1.626,0 -2.957,0.6 -3.993,1.8c-1.036,1.2 -1.761,2.8 -2.176,4.8l-2.678,13.2l-6.026,0l7.27,-35.7l6.025,0l-2.917,14.3l0.861,0c1.626,-2.733 3.953,-4.1 6.982,-4.1c1.977,0 3.595,0.617 4.854,1.85c1.26,1.233 1.889,3.033 1.889,5.4c0,0.467 -0.032,0.942 -0.095,1.425c-0.064,0.483 -0.144,0.992 -0.24,1.525l-1.913,9.35l0.479,0.35l3.06,-2.2l3.013,4.7l-3.586,2.5c-1.212,0.867 -2.503,1.3 -3.874,1.3c-0.702,0 -1.371,-0.125 -2.009,-0.375c-0.637,-0.25 -1.195,-0.608 -1.674,-1.075c-0.478,-0.467 -0.86,-1.033 -1.147,-1.7c-0.287,-0.667 -0.431,-1.417 -0.431,-2.25c0,-0.433 0.064,-0.967 0.192,-1.6l1.673,-8.1Z" style="fill:rgb(244,244,245);fill-rule:nonzero;"/>
            <path d="M1177.55,723.404c-0.064,0.267 -0.096,0.55 -0.096,0.85c0,1.2 0.439,2.2 1.316,3c0.876,0.8 2.032,1.2 3.467,1.2c1.498,0 2.694,-0.283 3.587,-0.85c0.892,-0.567 1.578,-1.233 2.056,-2l4.782,3.15c-0.382,0.667 -0.884,1.333 -1.506,2c-0.622,0.667 -1.387,1.275 -2.296,1.825c-0.908,0.55 -1.976,1 -3.204,1.35c-1.227,0.35 -2.654,0.525 -4.28,0.525c-1.467,0 -2.814,-0.242 -4.041,-0.725c-1.228,-0.483 -2.28,-1.15 -3.156,-2c-0.877,-0.85 -1.563,-1.867 -2.057,-3.05c-0.494,-1.183 -0.741,-2.492 -0.741,-3.925c-0,-2.267 0.327,-4.4 0.98,-6.4c0.654,-2 1.602,-3.75 2.846,-5.25c1.243,-1.5 2.774,-2.683 4.591,-3.55c1.817,-0.867 3.905,-1.3 6.265,-1.3c1.658,0 3.1,0.275 4.328,0.825c1.227,0.55 2.239,1.283 3.036,2.2c0.798,0.917 1.395,1.958 1.794,3.125c0.398,1.167 0.598,2.367 0.598,3.6c-0,0.4 -0.024,0.808 -0.072,1.225c-0.048,0.417 -0.136,0.958 -0.263,1.625l-0.526,2.55l-17.408,0Zm7.556,-9.45c-1.498,0 -2.797,0.392 -3.897,1.175c-1.1,0.783 -1.921,1.742 -2.463,2.875l11.19,0c0,-1.267 -0.374,-2.258 -1.123,-2.975c-0.75,-0.717 -1.985,-1.075 -3.707,-1.075Z" style="fill:rgb(244,244,245);fill-rule:nonzero;"/>
            <path d="M1214.33,713.954c-0.35,0 -0.709,0.042 -1.076,0.125c-0.366,0.083 -0.709,0.208 -1.028,0.375c-0.319,0.167 -0.582,0.392 -0.789,0.675c-0.207,0.283 -0.311,0.625 -0.311,1.025c0,0.7 0.383,1.217 1.148,1.55c0.765,0.333 2.072,0.617 3.921,0.85c2.073,0.267 3.747,0.925 5.022,1.975c1.275,1.05 1.913,2.558 1.913,4.525c-0,2.933 -0.981,5.233 -2.941,6.9c-1.961,1.667 -4.679,2.5 -8.154,2.5c-1.754,0 -3.26,-0.267 -4.52,-0.8c-1.259,-0.533 -2.295,-1.2 -3.108,-2c-0.813,-0.8 -1.427,-1.683 -1.841,-2.65c-0.415,-0.967 -0.638,-1.883 -0.67,-2.75l5.93,-1.5c0.096,1.1 0.542,2.042 1.339,2.825c0.797,0.783 2.009,1.175 3.635,1.175c1.116,0 2.088,-0.183 2.917,-0.55c0.829,-0.367 1.244,-1.017 1.244,-1.95c-0,-0.7 -0.319,-1.258 -0.957,-1.675c-0.638,-0.417 -1.817,-0.708 -3.539,-0.875c-2.295,-0.2 -4.121,-0.883 -5.476,-2.05c-1.355,-1.167 -2.032,-2.717 -2.032,-4.65c-0,-1.4 0.279,-2.65 0.837,-3.75c0.558,-1.1 1.299,-2.017 2.224,-2.75c0.924,-0.733 2,-1.292 3.228,-1.675c1.227,-0.383 2.51,-0.575 3.849,-0.575c1.658,0 3.045,0.233 4.161,0.7c1.116,0.467 2.025,1.05 2.726,1.75c0.701,0.7 1.219,1.458 1.554,2.275c0.335,0.817 0.55,1.575 0.646,2.275l-5.835,1.6c-0.127,-0.9 -0.526,-1.608 -1.195,-2.125c-0.67,-0.517 -1.61,-0.775 -2.822,-0.775Z" style="fill:rgb(244,244,245);fill-rule:nonzero;"/>
            <path d="M1238.62,714.954l-6.696,0l0,-6l7.939,0l2.2,-10.9l6.026,0l-2.2,10.9l8.225,0l0,6l-9.469,0l-2.678,12.85l0.478,0.35l6.409,-4.6l3.013,4.7l-6.935,4.9c-1.211,0.867 -2.503,1.3 -3.873,1.3c-0.702,0 -1.371,-0.125 -2.009,-0.375c-0.638,-0.25 -1.196,-0.608 -1.674,-1.075c-0.478,-0.467 -0.861,-1.033 -1.148,-1.7c-0.287,-0.667 -0.43,-1.417 -0.43,-2.25c-0,-0.267 0.016,-0.508 0.048,-0.725c0.032,-0.217 0.079,-0.508 0.143,-0.875l2.631,-12.5Z" style="fill:rgb(244,244,245);fill-rule:nonzero;"/>
        </g>
        <path d="M688.382,130.321c0.659,-3.289 1.759,-5.7 3.3,-7.233c1.541,-1.533 3.661,-2.3 6.36,-2.3c1.127,-0 2.126,0.183 2.997,0.55c0.871,0.367 1.605,0.878 2.2,1.533c0.595,0.656 1.047,1.428 1.355,2.317c0.308,0.889 0.462,1.844 0.462,2.867c0,0.377 -0.016,0.755 -0.048,1.133c-0.032,0.378 -0.09,0.755 -0.175,1.133l-1.052,5.2c-0.616,3.089 -1.626,5.4 -3.029,6.934c-1.403,1.533 -3.294,2.388 -5.675,2.566l-0.096,0.434c-0.021,0.111 -0.031,0.211 -0.031,0.3c-0,0.422 0.233,0.633 0.701,0.633l1.785,-0l0,4l-3.794,-0c-0.892,-0 -1.615,-0.261 -2.168,-0.783c-0.552,-0.523 -0.829,-1.195 -0.829,-2.017c0,-0.178 0.011,-0.345 0.032,-0.5c0.022,-0.156 0.053,-0.322 0.096,-0.5l0.446,-2.033c-1.339,-0.512 -2.359,-1.367 -3.06,-2.567c-0.702,-1.2 -1.052,-2.6 -1.052,-4.2c-0,-0.378 0.015,-0.756 0.047,-1.133c0.032,-0.378 0.091,-0.756 0.176,-1.134l1.052,-5.2Zm6.121,10.734c0.723,-0 1.36,-0.139 1.913,-0.417c0.553,-0.278 1.036,-0.65 1.451,-1.117c0.414,-0.466 0.754,-1.022 1.02,-1.666c0.266,-0.645 0.473,-1.334 0.622,-2.067l1.179,-5.733c0.064,-0.356 0.112,-0.662 0.144,-0.917c0.032,-0.256 0.048,-0.506 0.048,-0.75c-0,-1.133 -0.282,-2.017 -0.845,-2.65c-0.564,-0.633 -1.355,-0.95 -2.375,-0.95c-0.723,-0 -1.361,0.139 -1.913,0.417c-0.553,0.277 -1.037,0.65 -1.451,1.116c-0.415,0.467 -0.755,1.022 -1.02,1.667c-0.266,0.644 -0.473,1.333 -0.622,2.067l-1.18,5.733c-0.127,0.6 -0.191,1.155 -0.191,1.667c0,1.133 0.282,2.016 0.845,2.65c0.563,0.633 1.355,0.95 2.375,0.95Z" style="fill:rgb(35,31,32);fill-rule:nonzero;"/>
        <path d="M712.931,128.055l-1.977,9.6c-0.085,0.377 -0.127,0.744 -0.127,1.1c-0,0.844 0.223,1.472 0.669,1.883c0.447,0.411 1.042,0.617 1.786,0.617c1.126,-0 1.992,-0.384 2.598,-1.15c0.606,-0.767 1.058,-1.85 1.355,-3.25l1.786,-8.8l4.017,-0l-2.615,12.6l0.351,0.2l1.148,-0.867l2.008,3.067l-1.498,1.133c-0.404,0.311 -0.824,0.533 -1.259,0.667c-0.436,0.133 -0.866,0.2 -1.292,0.2c-0.871,-0 -1.636,-0.262 -2.295,-0.784c-0.659,-0.522 -1.031,-1.283 -1.116,-2.283l-0.574,-0c-0.467,1.133 -1.1,1.928 -1.897,2.383c-0.797,0.456 -1.695,0.684 -2.694,0.684c-1.381,-0 -2.508,-0.439 -3.379,-1.317c-0.872,-0.878 -1.308,-2.106 -1.308,-3.683c0,-0.556 0.064,-1.156 0.192,-1.8l2.104,-10.2l4.017,-0Z" style="fill:rgb(35,31,32);fill-rule:nonzero;"/>
        <path d="M740.605,140.621l0.319,0.234l1.53,-1.134l2.009,3.134l-1.881,1.333c-0.829,0.578 -1.701,0.867 -2.615,0.867c-0.807,-0 -1.53,-0.234 -2.168,-0.7c-0.637,-0.467 -1.041,-1.123 -1.211,-1.967l-0.574,-0c-0.191,0.378 -0.415,0.728 -0.67,1.05c-0.255,0.322 -0.568,0.6 -0.94,0.833c-0.372,0.234 -0.808,0.422 -1.307,0.567c-0.5,0.144 -1.09,0.217 -1.77,0.217c-0.829,-0 -1.594,-0.173 -2.295,-0.517c-0.702,-0.345 -1.313,-0.822 -1.834,-1.433c-0.52,-0.612 -0.93,-1.328 -1.227,-2.15c-0.298,-0.823 -0.446,-1.723 -0.446,-2.7c-0,-1.489 0.191,-2.878 0.573,-4.167c0.383,-1.289 0.936,-2.417 1.658,-3.383c0.723,-0.967 1.61,-1.728 2.662,-2.284c1.053,-0.555 2.238,-0.833 3.555,-0.833c1.169,-0 2.094,0.244 2.774,0.733c0.68,0.489 1.137,1.134 1.371,1.934l0.574,-0l0.446,-2.2l4.017,-0l-2.55,12.566Zm-7.716,0.434c0.766,-0 1.446,-0.162 2.041,-0.484c0.595,-0.322 1.089,-0.75 1.482,-1.283c0.394,-0.533 0.696,-1.161 0.909,-1.883c0.213,-0.723 0.319,-1.484 0.319,-2.284c-0,-1.044 -0.287,-1.894 -0.861,-2.55c-0.574,-0.655 -1.339,-0.983 -2.296,-0.983c-0.765,-0 -1.445,0.161 -2.04,0.483c-0.595,0.322 -1.095,0.75 -1.498,1.284c-0.404,0.533 -0.712,1.161 -0.925,1.883c-0.213,0.722 -0.319,1.483 -0.319,2.283c0,0.934 0.261,1.756 0.781,2.467c0.521,0.711 1.323,1.067 2.407,1.067Z" style="fill:rgb(35,31,32);fill-rule:nonzero;"/>
        <path d="M756.929,134.988c0.085,-0.422 0.127,-0.778 0.127,-1.067c0,-0.8 -0.223,-1.422 -0.669,-1.866c-0.447,-0.445 -1.053,-0.667 -1.818,-0.667c-0.956,-0 -1.775,0.355 -2.455,1.067c-0.68,0.711 -1.137,1.666 -1.371,2.866l-1.881,9.267l-4.017,-0l3.348,-16.533l3.858,-0l-0.542,2.666l0.573,0c0.511,-1.111 1.185,-1.911 2.025,-2.4c0.84,-0.489 1.769,-0.733 2.79,-0.733c1.339,-0 2.407,0.422 3.204,1.267c0.797,0.844 1.195,2.033 1.195,3.566c0,0.356 -0.021,0.684 -0.063,0.984c-0.043,0.3 -0.096,0.627 -0.16,0.983l-1.275,6.233l0.319,0.234l1.371,-1l2.008,3.133l-1.721,1.2c-0.808,0.578 -1.669,0.867 -2.583,0.867c-0.467,-0 -0.914,-0.084 -1.339,-0.25c-0.425,-0.167 -0.797,-0.4 -1.116,-0.7c-0.319,-0.3 -0.574,-0.667 -0.765,-1.1c-0.191,-0.434 -0.287,-0.928 -0.287,-1.484c0,-0.289 0.032,-0.622 0.096,-1l1.148,-5.533Z" style="fill:rgb(35,31,32);fill-rule:nonzero;"/>
        <path d="M771.307,132.055l-4.463,-0l-0,-4l5.292,-0l1.467,-7.267l4.017,-0l-1.466,7.267l5.483,-0l0,4l-6.312,-0l-1.786,8.566l0.319,0.234l4.272,-3.067l2.009,3.133l-4.623,3.267c-0.808,0.578 -1.669,0.867 -2.583,0.867c-0.467,-0 -0.914,-0.084 -1.339,-0.25c-0.425,-0.167 -0.797,-0.406 -1.115,-0.717c-0.319,-0.311 -0.574,-0.689 -0.766,-1.133c-0.191,-0.445 -0.287,-0.945 -0.287,-1.5c0,-0.178 0.011,-0.339 0.032,-0.484c0.022,-0.144 0.053,-0.339 0.096,-0.583l1.753,-8.333Z" style="fill:rgb(35,31,32);fill-rule:nonzero;"/>
        <path d="M795.984,144.188c-0.425,0.311 -0.861,0.533 -1.307,0.667c-0.446,0.133 -0.882,0.2 -1.307,0.2c-0.468,-0 -0.914,-0.084 -1.339,-0.25c-0.425,-0.167 -0.797,-0.4 -1.116,-0.7c-0.319,-0.3 -0.569,-0.667 -0.749,-1.1c-0.181,-0.434 -0.271,-0.917 -0.271,-1.45c-0,-0.423 0.042,-0.812 0.127,-1.167l1.913,-8.367l-0.319,-0.233l-4.272,3.067l-2.008,-3.134l4.623,-3.266c0.425,-0.312 0.86,-0.534 1.307,-0.667c0.446,-0.133 0.882,-0.2 1.307,-0.2c0.467,-0 0.914,0.083 1.339,0.25c0.425,0.167 0.797,0.4 1.116,0.7c0.319,0.3 0.568,0.667 0.749,1.1c0.181,0.433 0.271,0.917 0.271,1.45c0,0.422 -0.042,0.811 -0.127,1.167l-1.913,8.366l0.318,0.234l4.273,-3.067l2.008,3.133l-4.623,3.267Zm2.774,-21.033c0,0.444 -0.08,0.861 -0.239,1.25c-0.16,0.388 -0.377,0.722 -0.654,1c-0.276,0.277 -0.6,0.5 -0.972,0.666c-0.372,0.167 -0.76,0.25 -1.164,0.25c-0.425,0 -0.818,-0.083 -1.179,-0.25c-0.362,-0.166 -0.681,-0.389 -0.957,-0.666c-0.276,-0.278 -0.494,-0.612 -0.653,-1c-0.16,-0.389 -0.24,-0.806 -0.24,-1.25c0,-0.445 0.08,-0.862 0.24,-1.25c0.159,-0.389 0.377,-0.723 0.653,-1c0.276,-0.278 0.595,-0.5 0.957,-0.667c0.361,-0.167 0.754,-0.25 1.179,-0.25c0.404,-0 0.792,0.083 1.164,0.25c0.372,0.167 0.696,0.389 0.972,0.667c0.277,0.277 0.494,0.611 0.654,1c0.159,0.388 0.239,0.805 0.239,1.25Z" style="fill:rgb(35,31,32);fill-rule:nonzero;"/>
        <path d="M818.334,140.588l-0,4l-13.678,-0l0,-6.567l11.924,-5.5l0,-0.6l-9.278,0l0,-3.866l13.104,-0l0,6.466l-11.86,5.467l-0,0.6l9.788,-0Z" style="fill:rgb(35,31,32);fill-rule:nonzero;"/>
        <path d="M828.153,137.688c-0.042,0.178 -0.063,0.367 -0.063,0.567c-0,0.8 0.292,1.466 0.876,2c0.585,0.533 1.355,0.8 2.312,0.8c0.999,-0 1.796,-0.189 2.391,-0.567c0.595,-0.378 1.052,-0.822 1.371,-1.333l3.188,2.1c-0.255,0.444 -0.59,0.888 -1.004,1.333c-0.415,0.444 -0.925,0.85 -1.53,1.217c-0.606,0.366 -1.318,0.666 -2.137,0.9c-0.818,0.233 -1.769,0.35 -2.853,0.35c-0.978,-0 -1.876,-0.162 -2.694,-0.484c-0.818,-0.322 -1.52,-0.766 -2.104,-1.333c-0.585,-0.567 -1.042,-1.245 -1.371,-2.033c-0.33,-0.789 -0.494,-1.662 -0.494,-2.617c-0,-1.511 0.217,-2.933 0.653,-4.267c0.436,-1.333 1.068,-2.5 1.897,-3.5c0.829,-1 1.849,-1.789 3.061,-2.366c1.211,-0.578 2.604,-0.867 4.176,-0.867c1.106,-0 2.067,0.183 2.886,0.55c0.818,0.367 1.493,0.855 2.024,1.467c0.532,0.611 0.93,1.305 1.196,2.083c0.266,0.778 0.398,1.578 0.398,2.4c0,0.267 -0.016,0.539 -0.047,0.817c-0.032,0.277 -0.091,0.638 -0.176,1.083l-0.35,1.7l-11.606,-0Zm5.038,-6.3c-0.999,-0 -1.865,0.261 -2.599,0.783c-0.733,0.522 -1.28,1.161 -1.642,1.917l7.461,-0c-0,-0.845 -0.25,-1.506 -0.749,-1.983c-0.5,-0.478 -1.323,-0.717 -2.471,-0.717Z" style="fill:rgb(35,31,32);fill-rule:nonzero;"/>
        <path d="M857.676,140.621l0.319,0.234l1.722,-1.267l2.008,3.133l-2.072,1.467c-0.446,0.311 -0.887,0.533 -1.323,0.667c-0.436,0.133 -0.866,0.2 -1.291,0.2c-0.808,-0 -1.531,-0.234 -2.168,-0.7c-0.638,-0.467 -1.042,-1.123 -1.212,-1.967l-0.574,-0c-0.191,0.378 -0.414,0.728 -0.669,1.05c-0.255,0.322 -0.569,0.6 -0.941,0.833c-0.372,0.234 -0.807,0.422 -1.307,0.567c-0.499,0.144 -1.089,0.217 -1.769,0.217c-0.829,-0 -1.594,-0.173 -2.296,-0.517c-0.701,-0.345 -1.312,-0.822 -1.833,-1.433c-0.521,-0.612 -0.93,-1.328 -1.228,-2.15c-0.297,-0.823 -0.446,-1.723 -0.446,-2.7c0,-1.489 0.191,-2.878 0.574,-4.167c0.383,-1.289 0.935,-2.417 1.658,-3.383c0.722,-0.967 1.61,-1.728 2.662,-2.284c1.052,-0.555 2.237,-0.833 3.555,-0.833c1.126,-0 2.04,0.267 2.742,0.8c0.701,0.533 1.158,1.222 1.371,2.067l0.574,-0l1.944,-9.667l4.049,-0l-1.976,9.667l-2.073,10.166Zm-7.715,0.434c0.765,-0 1.445,-0.162 2.04,-0.484c0.595,-0.322 1.09,-0.75 1.483,-1.283c0.393,-0.533 0.696,-1.161 0.908,-1.883c0.213,-0.723 0.319,-1.484 0.319,-2.284c0,-1.044 -0.287,-1.894 -0.861,-2.55c-0.573,-0.655 -1.339,-0.983 -2.295,-0.983c-0.765,-0 -1.445,0.161 -2.04,0.483c-0.596,0.322 -1.095,0.75 -1.499,1.284c-0.404,0.533 -0.712,1.161 -0.925,1.883c-0.212,0.722 -0.318,1.483 -0.318,2.283c-0,0.934 0.26,1.756 0.781,2.467c0.52,0.711 1.323,1.067 2.407,1.067Z" style="fill:rgb(35,31,32);fill-rule:nonzero;"/>
        <path d="M896.7,140.621l0.319,0.234l1.53,-1.134l2.009,3.134l-1.881,1.333c-0.829,0.578 -1.7,0.867 -2.614,0.867c-0.808,-0 -1.531,-0.234 -2.168,-0.7c-0.638,-0.467 -1.042,-1.123 -1.212,-1.967l-0.574,-0c-0.191,0.378 -0.414,0.728 -0.669,1.05c-0.255,0.322 -0.569,0.6 -0.941,0.833c-0.372,0.234 -0.808,0.422 -1.307,0.567c-0.5,0.144 -1.089,0.217 -1.77,0.217c-0.828,-0 -1.594,-0.173 -2.295,-0.517c-0.701,-0.345 -1.313,-0.822 -1.833,-1.433c-0.521,-0.612 -0.93,-1.328 -1.228,-2.15c-0.297,-0.823 -0.446,-1.723 -0.446,-2.7c-0,-1.489 0.191,-2.878 0.574,-4.167c0.382,-1.289 0.935,-2.417 1.658,-3.383c0.722,-0.967 1.61,-1.728 2.662,-2.284c1.052,-0.555 2.237,-0.833 3.555,-0.833c1.169,-0 2.093,0.244 2.773,0.733c0.681,0.489 1.138,1.134 1.371,1.934l0.574,-0l0.447,-2.2l4.017,-0l-2.551,12.566Zm-7.715,0.434c0.765,-0 1.445,-0.162 2.04,-0.484c0.595,-0.322 1.089,-0.75 1.483,-1.283c0.393,-0.533 0.696,-1.161 0.908,-1.883c0.213,-0.723 0.319,-1.484 0.319,-2.284c0,-1.044 -0.287,-1.894 -0.861,-2.55c-0.574,-0.655 -1.339,-0.983 -2.295,-0.983c-0.765,-0 -1.446,0.161 -2.041,0.483c-0.595,0.322 -1.094,0.75 -1.498,1.284c-0.404,0.533 -0.712,1.161 -0.925,1.883c-0.212,0.722 -0.319,1.483 -0.319,2.283c0,0.934 0.261,1.756 0.782,2.467c0.52,0.711 1.323,1.067 2.407,1.067Z" style="fill:rgb(35,31,32);fill-rule:nonzero;"/>
        <path d="M907.891,132.055l-4.464,-0l0,-4l5.293,-0l1.466,-7.267l4.018,-0l-1.467,7.267l5.484,-0l-0,4l-6.313,-0l-1.785,8.566l0.318,0.234l4.273,-3.067l2.008,3.133l-4.623,3.267c-0.807,0.578 -1.668,0.867 -2.582,0.867c-0.468,-0 -0.914,-0.084 -1.339,-0.25c-0.425,-0.167 -0.797,-0.406 -1.116,-0.717c-0.319,-0.311 -0.574,-0.689 -0.765,-1.133c-0.192,-0.445 -0.287,-0.945 -0.287,-1.5c-0,-0.178 0.01,-0.339 0.032,-0.484c0.021,-0.144 0.053,-0.339 0.095,-0.583l1.754,-8.333Z" style="fill:rgb(35,31,32);fill-rule:nonzero;"/>
        <path d="M950.23,131.388c-0.233,-0 -0.472,0.028 -0.717,0.083c-0.244,0.056 -0.473,0.139 -0.685,0.25c-0.213,0.111 -0.388,0.261 -0.526,0.45c-0.139,0.189 -0.208,0.417 -0.208,0.684c0,0.466 0.255,0.811 0.765,1.033c0.511,0.222 1.382,0.411 2.615,0.567c1.381,0.177 2.497,0.616 3.347,1.316c0.851,0.7 1.276,1.706 1.276,3.017c-0,1.955 -0.654,3.489 -1.961,4.6c-1.307,1.111 -3.119,1.667 -5.436,1.667c-1.169,-0 -2.173,-0.178 -3.013,-0.534c-0.839,-0.355 -1.53,-0.8 -2.072,-1.333c-0.542,-0.533 -0.951,-1.122 -1.228,-1.767c-0.276,-0.644 -0.425,-1.255 -0.446,-1.833l3.953,-1c0.064,0.733 0.362,1.361 0.893,1.883c0.532,0.522 1.339,0.784 2.423,0.784c0.744,-0 1.392,-0.123 1.945,-0.367c0.553,-0.245 0.829,-0.678 0.829,-1.3c-0,-0.467 -0.213,-0.839 -0.638,-1.117c-0.425,-0.278 -1.211,-0.472 -2.359,-0.583c-1.53,-0.133 -2.747,-0.589 -3.65,-1.367c-0.904,-0.778 -1.355,-1.811 -1.355,-3.1c-0,-0.933 0.185,-1.766 0.557,-2.5c0.372,-0.733 0.867,-1.344 1.483,-1.833c0.616,-0.489 1.334,-0.861 2.152,-1.117c0.818,-0.255 1.674,-0.383 2.567,-0.383c1.105,-0 2.029,0.155 2.773,0.467c0.744,0.311 1.35,0.7 1.818,1.166c0.467,0.467 0.813,0.972 1.036,1.517c0.223,0.544 0.366,1.05 0.43,1.517l-3.889,1.066c-0.085,-0.6 -0.351,-1.072 -0.798,-1.416c-0.446,-0.345 -1.073,-0.517 -1.881,-0.517Z" style="fill:rgb(35,31,32);fill-rule:nonzero;"/>
        <path d="M964.737,137.688c-0.043,0.178 -0.064,0.367 -0.064,0.567c0,0.8 0.292,1.466 0.877,2c0.584,0.533 1.355,0.8 2.311,0.8c0.999,-0 1.796,-0.189 2.391,-0.567c0.596,-0.378 1.053,-0.822 1.371,-1.333l3.189,2.1c-0.255,0.444 -0.59,0.888 -1.005,1.333c-0.414,0.444 -0.924,0.85 -1.53,1.217c-0.606,0.366 -1.318,0.666 -2.136,0.9c-0.818,0.233 -1.77,0.35 -2.854,0.35c-0.977,-0 -1.875,-0.162 -2.694,-0.484c-0.818,-0.322 -1.519,-0.766 -2.104,-1.333c-0.584,-0.567 -1.041,-1.245 -1.371,-2.033c-0.329,-0.789 -0.494,-1.662 -0.494,-2.617c0,-1.511 0.218,-2.933 0.654,-4.267c0.435,-1.333 1.068,-2.5 1.897,-3.5c0.829,-1 1.849,-1.789 3.06,-2.366c1.212,-0.578 2.604,-0.867 4.177,-0.867c1.105,-0 2.067,0.183 2.885,0.55c0.819,0.367 1.493,0.855 2.025,1.467c0.531,0.611 0.93,1.305 1.195,2.083c0.266,0.778 0.399,1.578 0.399,2.4c-0,0.267 -0.016,0.539 -0.048,0.817c-0.032,0.277 -0.09,0.638 -0.175,1.083l-0.351,1.7l-11.605,-0Zm5.037,-6.3c-0.999,-0 -1.865,0.261 -2.598,0.783c-0.733,0.522 -1.281,1.161 -1.642,1.917l7.46,-0c0,-0.845 -0.249,-1.506 -0.749,-1.983c-0.499,-0.478 -1.323,-0.717 -2.471,-0.717Z" style="fill:rgb(35,31,32);fill-rule:nonzero;"/>
        <path d="M992.729,132.988c0.043,-0.178 0.064,-0.333 0.064,-0.467c0,-0.622 -0.287,-0.933 -0.861,-0.933c-0.34,-0 -0.595,0.117 -0.765,0.35c-0.17,0.233 -0.287,0.517 -0.351,0.85l-2.423,11.8l-4.017,-0l2.36,-11.6c0.042,-0.222 0.063,-0.378 0.063,-0.467c0,-0.622 -0.276,-0.933 -0.829,-0.933c-0.616,-0 -0.999,0.4 -1.147,1.2l-2.423,11.8l-3.986,-0l3.348,-16.533l4.017,-0l-0.319,1.6l0.574,-0c0.17,-0.689 0.489,-1.206 0.957,-1.55c0.467,-0.345 0.999,-0.517 1.594,-0.517c0.701,-0 1.233,0.2 1.594,0.6c0.361,0.4 0.595,0.889 0.701,1.467l0.574,-0c0.234,-0.6 0.59,-1.095 1.068,-1.484c0.478,-0.389 1.1,-0.583 1.865,-0.583c0.893,-0 1.578,0.3 2.057,0.9c0.478,0.6 0.717,1.322 0.717,2.167c0,0.155 -0.005,0.294 -0.016,0.416c-0.011,0.122 -0.037,0.272 -0.08,0.45l-1.881,9.1l0.319,0.234l1.084,-0.8l2.009,3.133l-1.435,1c-0.425,0.311 -0.855,0.533 -1.291,0.667c-0.436,0.133 -0.866,0.2 -1.291,0.2c-0.468,-0 -0.909,-0.084 -1.324,-0.25c-0.414,-0.167 -0.781,-0.406 -1.099,-0.717c-0.319,-0.311 -0.569,-0.695 -0.75,-1.15c-0.18,-0.456 -0.271,-0.972 -0.271,-1.55c0,-0.311 0.043,-0.689 0.128,-1.133l1.466,-7.267Z" style="fill:rgb(35,31,32);fill-rule:nonzero;"/>
        <path d="M1010.62,144.188c-0.425,0.311 -0.86,0.533 -1.307,0.667c-0.446,0.133 -0.882,0.2 -1.307,0.2c-0.468,-0 -0.914,-0.084 -1.339,-0.25c-0.425,-0.167 -0.797,-0.4 -1.116,-0.7c-0.319,-0.3 -0.568,-0.667 -0.749,-1.1c-0.181,-0.434 -0.271,-0.917 -0.271,-1.45c-0,-0.423 0.042,-0.812 0.127,-1.167l1.913,-8.367l-0.319,-0.233l-4.272,3.067l-2.008,-3.134l4.623,-3.266c0.425,-0.312 0.86,-0.534 1.307,-0.667c0.446,-0.133 0.882,-0.2 1.307,-0.2c0.468,-0 0.914,0.083 1.339,0.25c0.425,0.167 0.797,0.4 1.116,0.7c0.319,0.3 0.568,0.667 0.749,1.1c0.181,0.433 0.271,0.917 0.271,1.45c0,0.422 -0.042,0.811 -0.127,1.167l-1.913,8.366l0.318,0.234l4.273,-3.067l2.008,3.133l-4.623,3.267Zm2.774,-21.033c0,0.444 -0.08,0.861 -0.239,1.25c-0.159,0.388 -0.377,0.722 -0.654,1c-0.276,0.277 -0.6,0.5 -0.972,0.666c-0.372,0.167 -0.76,0.25 -1.164,0.25c-0.425,0 -0.818,-0.083 -1.179,-0.25c-0.362,-0.166 -0.681,-0.389 -0.957,-0.666c-0.276,-0.278 -0.494,-0.612 -0.653,-1c-0.16,-0.389 -0.24,-0.806 -0.24,-1.25c0,-0.445 0.08,-0.862 0.24,-1.25c0.159,-0.389 0.377,-0.723 0.653,-1c0.276,-0.278 0.595,-0.5 0.957,-0.667c0.361,-0.167 0.754,-0.25 1.179,-0.25c0.404,-0 0.792,0.083 1.164,0.25c0.372,0.167 0.696,0.389 0.972,0.667c0.277,0.277 0.495,0.611 0.654,1c0.159,0.388 0.239,0.805 0.239,1.25Z" style="fill:rgb(35,31,32);fill-rule:nonzero;"/>
        <path d="M1024.96,132.055l-4.463,-0l-0,-4l5.292,-0l1.467,-7.267l4.017,-0l-1.467,7.267l5.484,-0l0,4l-6.312,-0l-1.786,8.566l0.319,0.234l4.272,-3.067l2.009,3.133l-4.623,3.267c-0.808,0.578 -1.669,0.867 -2.583,0.867c-0.467,-0 -0.914,-0.084 -1.339,-0.25c-0.425,-0.167 -0.797,-0.406 -1.116,-0.717c-0.318,-0.311 -0.573,-0.689 -0.765,-1.133c-0.191,-0.445 -0.287,-0.945 -0.287,-1.5c0,-0.178 0.011,-0.339 0.032,-0.484c0.021,-0.144 0.053,-0.339 0.096,-0.583l1.753,-8.333Z" style="fill:rgb(35,31,32);fill-rule:nonzero;"/>
        <path d="M1055.31,134.255c0,1.555 -0.212,2.994 -0.637,4.316c-0.426,1.322 -1.053,2.461 -1.881,3.417c-0.829,0.955 -1.866,1.705 -3.109,2.25c-1.243,0.544 -2.683,0.817 -4.32,0.817c-0.935,-0 -1.812,-0.145 -2.63,-0.434c-0.819,-0.289 -1.536,-0.716 -2.152,-1.283c-0.617,-0.567 -1.106,-1.261 -1.467,-2.083c-0.361,-0.823 -0.542,-1.756 -0.542,-2.8c0,-1.712 0.255,-3.239 0.765,-4.584c0.51,-1.344 1.206,-2.483 2.089,-3.416c0.882,-0.934 1.923,-1.645 3.124,-2.134c1.201,-0.489 2.492,-0.733 3.874,-0.733c0.999,-0 1.923,0.161 2.773,0.483c0.851,0.322 1.579,0.772 2.184,1.35c0.606,0.578 1.079,1.278 1.419,2.1c0.34,0.822 0.51,1.734 0.51,2.734Zm-9.341,6.866c0.765,-0.022 1.472,-0.2 2.12,-0.533c0.648,-0.333 1.201,-0.772 1.658,-1.317c0.457,-0.544 0.813,-1.183 1.068,-1.916c0.255,-0.734 0.382,-1.512 0.382,-2.334c0,-1.155 -0.297,-2.028 -0.892,-2.616c-0.595,-0.589 -1.392,-0.884 -2.391,-0.884c-0.766,0 -1.467,0.172 -2.105,0.517c-0.637,0.344 -1.19,0.8 -1.658,1.367c-0.467,0.566 -0.829,1.216 -1.084,1.95c-0.255,0.733 -0.382,1.5 -0.382,2.3c-0,1.133 0.297,1.994 0.893,2.583c0.595,0.589 1.392,0.883 2.391,0.883Z" style="fill:rgb(35,31,32);fill-rule:nonzero;"/>
        <path d="M1069.12,134.988c0.085,-0.422 0.128,-0.778 0.128,-1.067c-0,-0.8 -0.223,-1.422 -0.67,-1.866c-0.446,-0.445 -1.052,-0.667 -1.817,-0.667c-0.957,-0 -1.775,0.355 -2.455,1.067c-0.68,0.711 -1.137,1.666 -1.371,2.866l-1.881,9.267l-4.017,-0l3.347,-16.533l3.858,-0l-0.542,2.666l0.574,0c0.51,-1.111 1.185,-1.911 2.025,-2.4c0.839,-0.489 1.769,-0.733 2.789,-0.733c1.339,-0 2.407,0.422 3.204,1.267c0.798,0.844 1.196,2.033 1.196,3.566c0,0.356 -0.021,0.684 -0.064,0.984c-0.042,0.3 -0.095,0.627 -0.159,0.983l-1.275,6.233l0.318,0.234l1.371,-1l2.009,3.133l-1.722,1.2c-0.807,0.578 -1.668,0.867 -2.582,0.867c-0.468,-0 -0.914,-0.084 -1.339,-0.25c-0.425,-0.167 -0.797,-0.4 -1.116,-0.7c-0.319,-0.3 -0.574,-0.667 -0.765,-1.1c-0.192,-0.434 -0.287,-0.928 -0.287,-1.484c-0,-0.289 0.032,-0.622 0.095,-1l1.148,-5.533Z" style="fill:rgb(35,31,32);fill-rule:nonzero;"/>
        <path d="M1081.81,137.688c-0.042,0.178 -0.063,0.367 -0.063,0.567c-0,0.8 0.292,1.466 0.876,2c0.585,0.533 1.355,0.8 2.312,0.8c0.999,-0 1.796,-0.189 2.391,-0.567c0.595,-0.378 1.052,-0.822 1.371,-1.333l3.188,2.1c-0.255,0.444 -0.59,0.888 -1.004,1.333c-0.415,0.444 -0.925,0.85 -1.531,1.217c-0.605,0.366 -1.317,0.666 -2.136,0.9c-0.818,0.233 -1.769,0.35 -2.853,0.35c-0.978,-0 -1.876,-0.162 -2.694,-0.484c-0.818,-0.322 -1.52,-0.766 -2.104,-1.333c-0.585,-0.567 -1.042,-1.245 -1.371,-2.033c-0.33,-0.789 -0.494,-1.662 -0.494,-2.617c-0,-1.511 0.217,-2.933 0.653,-4.267c0.436,-1.333 1.068,-2.5 1.897,-3.5c0.829,-1 1.849,-1.789 3.061,-2.366c1.211,-0.578 2.604,-0.867 4.176,-0.867c1.106,-0 2.067,0.183 2.886,0.55c0.818,0.367 1.493,0.855 2.024,1.467c0.532,0.611 0.93,1.305 1.196,2.083c0.265,0.778 0.398,1.578 0.398,2.4c0,0.267 -0.016,0.539 -0.047,0.817c-0.032,0.277 -0.091,0.638 -0.176,1.083l-0.351,1.7l-11.605,-0Zm5.038,-6.3c-0.999,-0 -1.865,0.261 -2.599,0.783c-0.733,0.522 -1.28,1.161 -1.642,1.917l7.461,-0c-0,-0.845 -0.25,-1.506 -0.749,-1.983c-0.5,-0.478 -1.324,-0.717 -2.471,-0.717Z" style="fill:rgb(35,31,32);fill-rule:nonzero;"/>
        <path d="M1106.33,131.388c-0.234,-0 -0.473,0.028 -0.718,0.083c-0.244,0.056 -0.473,0.139 -0.685,0.25c-0.213,0.111 -0.388,0.261 -0.526,0.45c-0.138,0.189 -0.207,0.417 -0.207,0.684c-0,0.466 0.255,0.811 0.765,1.033c0.51,0.222 1.381,0.411 2.614,0.567c1.382,0.177 2.498,0.616 3.348,1.316c0.85,0.7 1.275,1.706 1.275,3.017c0,1.955 -0.654,3.489 -1.961,4.6c-1.307,1.111 -3.119,1.667 -5.436,1.667c-1.169,-0 -2.173,-0.178 -3.012,-0.534c-0.84,-0.355 -1.531,-0.8 -2.073,-1.333c-0.542,-0.533 -0.951,-1.122 -1.227,-1.767c-0.277,-0.644 -0.425,-1.255 -0.447,-1.833l3.954,-1c0.064,0.733 0.361,1.361 0.892,1.883c0.532,0.522 1.34,0.784 2.424,0.784c0.743,-0 1.392,-0.123 1.944,-0.367c0.553,-0.245 0.829,-0.678 0.829,-1.3c0,-0.467 -0.212,-0.839 -0.637,-1.117c-0.425,-0.278 -1.212,-0.472 -2.36,-0.583c-1.53,-0.133 -2.747,-0.589 -3.65,-1.367c-0.903,-0.778 -1.355,-1.811 -1.355,-3.1c-0,-0.933 0.186,-1.766 0.558,-2.5c0.372,-0.733 0.866,-1.344 1.482,-1.833c0.617,-0.489 1.334,-0.861 2.152,-1.117c0.819,-0.255 1.674,-0.383 2.567,-0.383c1.105,-0 2.03,0.155 2.774,0.467c0.744,0.311 1.349,0.7 1.817,1.166c0.468,0.467 0.813,0.972 1.036,1.517c0.223,0.544 0.367,1.05 0.43,1.517l-3.889,1.066c-0.085,-0.6 -0.351,-1.072 -0.797,-1.416c-0.447,-0.345 -1.074,-0.517 -1.881,-0.517Z" style="fill:rgb(35,31,32);fill-rule:nonzero;"/>
        <g>
            <path d="M911.328,953.087c-0.081,1.776 0.494,2.644 1.726,2.604c0.747,-0 1.312,-0.131 1.695,-0.394l0,4.785c-0.464,0.161 -1.069,0.262 -1.816,0.303c-0.788,0.08 -1.444,0.121 -1.969,0.121c-1.453,-0.041 -2.594,-0.576 -3.422,-1.605c-0.908,-0.989 -1.362,-2.191 -1.362,-3.604l-0.121,0c-2.524,3.473 -5.976,5.209 -10.357,5.209c-4.703,-0.081 -8.216,-1.767 -10.537,-5.057c-2.362,-3.19 -3.543,-7.015 -3.543,-11.477c-0,-4.562 1.14,-8.489 3.421,-11.779c2.261,-3.351 5.835,-5.067 10.72,-5.148c4.34,-0 7.752,1.756 10.235,5.269l0.121,-0l0,-4.664l5.209,0l-0,25.437Zm-14.747,2.967c1.615,0 2.997,-0.373 4.148,-1.12c1.11,-0.707 2.039,-1.655 2.786,-2.846c1.454,-2.443 2.18,-5.128 2.18,-8.055c0,-3.271 -0.666,-6.147 -1.998,-8.631c-1.353,-2.523 -3.816,-3.825 -7.389,-3.906c-3.169,0.081 -5.481,1.363 -6.934,3.846c-1.454,2.443 -2.181,5.148 -2.181,8.115c0,3.15 0.727,5.986 2.181,8.509c1.453,2.645 3.855,4.008 7.207,4.088Z" style="fill:rgb(131,133,136);fill-rule:nonzero;"/>
            <circle cx="900" cy="856.1" r="59.625" style="fill:rgb(222,222,222);"/>
            <path d="M899.597,802.959c0.248,-0.143 0.553,-0.143 0.801,0c4.261,2.46 41.16,23.764 45.42,26.224c0.248,0.143 0.401,0.407 0.401,0.693c-0,4.92 0.002,47.527 0.002,52.447c0,0.287 -0.153,0.551 -0.4,0.694c-4.261,2.46 -41.157,23.764 -45.418,26.224c-0.248,0.143 -0.553,0.143 -0.801,-0c-4.261,-2.46 -41.16,-23.764 -45.42,-26.224c-0.248,-0.143 -0.401,-0.407 -0.401,-0.694c0,-4.919 -0.002,-47.527 -0.002,-52.447c-0,-0.286 0.153,-0.55 0.4,-0.693c4.261,-2.46 41.157,-23.764 45.418,-26.224Z" style="fill:rgb(213,213,213);"/>
            <path d="M898.659,801.335c0.828,-0.478 1.849,-0.478 2.677,0l45.42,26.224c0.828,0.478 1.338,1.361 1.338,2.317l0.002,52.447c0,0.956 -0.51,1.84 -1.338,2.318l-45.417,26.223c-0.828,0.478 -1.849,0.478 -2.677,0l-45.42,-26.223c-0.828,-0.478 -1.338,-1.362 -1.338,-2.318l-0.002,-52.447c-0,-0.956 0.51,-1.839 1.338,-2.317l45.417,-26.224Zm0.938,1.624l-45.418,26.224c-0.247,0.143 -0.4,0.407 -0.4,0.693l0.002,52.447c0,0.287 0.153,0.551 0.401,0.694l45.42,26.224c0.248,0.143 0.553,0.143 0.801,-0l45.418,-26.224c0.247,-0.143 0.4,-0.407 0.4,-0.694l-0.002,-52.447c-0,-0.286 -0.153,-0.55 -0.401,-0.693l-45.42,-26.224c-0.248,-0.143 -0.553,-0.143 -0.801,0Z" style="fill:rgb(169,169,169);"/>
            <ellipse cx="900" cy="856.1" rx="28.071" ry="28.07" style="fill:rgb(131,133,136);"/>
        </g>
        <g>
            <rect x="658.901" y="1002.21" width="482.199" height="79.707" style="fill:rgb(35,31,32);stroke:rgb(35,31,32);stroke-width:10.42px;stroke-linejoin:round;stroke-miterlimit:1.5;"/>
            <path d="M697.062,1052.21l0.861,-0l6.456,-31.7l6.025,-0l-7.125,35l-11.765,-0l2.248,-31.7l-0.861,-0l-6.456,31.7l-5.978,-0l7.078,-35l11.764,-0l-2.247,31.7Z" style="fill:rgb(244,244,245);fill-rule:nonzero;"/>
            <path d="M736.755,1040.01c0,2.333 -0.319,4.491 -0.956,6.475c-0.638,1.983 -1.579,3.691 -2.822,5.125c-1.243,1.433 -2.798,2.558 -4.663,3.375c-1.865,0.816 -4.025,1.225 -6.48,1.225c-1.403,-0 -2.718,-0.217 -3.945,-0.65c-1.228,-0.434 -2.304,-1.075 -3.228,-1.925c-0.925,-0.85 -1.658,-1.892 -2.2,-3.125c-0.542,-1.234 -0.813,-2.634 -0.813,-4.2c-0,-2.567 0.382,-4.859 1.148,-6.875c0.765,-2.017 1.809,-3.725 3.132,-5.125c1.323,-1.4 2.885,-2.467 4.687,-3.2c1.801,-0.734 3.738,-1.1 5.81,-1.1c1.499,-0 2.886,0.241 4.161,0.725c1.275,0.483 2.367,1.158 3.276,2.025c0.908,0.866 1.618,1.916 2.128,3.15c0.51,1.233 0.765,2.6 0.765,4.1Zm-14.012,10.3c1.148,-0.034 2.208,-0.3 3.18,-0.8c0.973,-0.5 1.801,-1.159 2.487,-1.975c0.685,-0.817 1.219,-1.775 1.602,-2.875c0.383,-1.1 0.574,-2.267 0.574,-3.5c-0,-1.734 -0.446,-3.042 -1.339,-3.925c-0.893,-0.884 -2.088,-1.325 -3.587,-1.325c-1.148,-0 -2.2,0.258 -3.156,0.775c-0.957,0.516 -1.786,1.2 -2.487,2.05c-0.701,0.85 -1.243,1.825 -1.626,2.925c-0.383,1.1 -0.574,2.25 -0.574,3.45c0,1.7 0.446,2.991 1.339,3.875c0.893,0.883 2.088,1.325 3.587,1.325Z" style="fill:rgb(244,244,245);fill-rule:nonzero;"/>
            <path d="M749.763,1036.71l-6.695,-0l-0,-6l7.938,-0l2.2,-10.9l6.026,-0l-2.2,10.9l8.226,-0l-0,6l-9.469,-0l-2.678,12.85l0.478,0.35l6.408,-4.6l3.013,4.7l-6.934,4.9c-1.212,0.866 -2.503,1.3 -3.874,1.3c-0.701,-0 -1.371,-0.125 -2.009,-0.375c-0.637,-0.25 -1.195,-0.609 -1.673,-1.075c-0.479,-0.467 -0.861,-1.034 -1.148,-1.7c-0.287,-0.667 -0.431,-1.417 -0.431,-2.25c0,-0.267 0.016,-0.509 0.048,-0.725c0.032,-0.217 0.08,-0.509 0.144,-0.875l2.63,-12.5Z" style="fill:rgb(244,244,245);fill-rule:nonzero;"/>
            <path d="M787.017,1041.11c0.064,-0.367 0.112,-0.659 0.144,-0.875c0.032,-0.217 0.048,-0.459 0.048,-0.725c-0,-1.2 -0.335,-2.134 -1.005,-2.8c-0.669,-0.667 -1.578,-1 -2.726,-1c-1.626,-0 -2.957,0.6 -3.993,1.8c-1.036,1.2 -1.761,2.8 -2.176,4.8l-2.678,13.2l-6.026,-0l7.27,-35.7l6.025,-0l-2.917,14.3l0.861,-0c1.626,-2.734 3.953,-4.1 6.982,-4.1c1.977,-0 3.595,0.616 4.854,1.85c1.26,1.233 1.889,3.033 1.889,5.4c0,0.466 -0.032,0.941 -0.095,1.425c-0.064,0.483 -0.144,0.991 -0.24,1.525l-1.913,9.35l0.479,0.35l3.06,-2.2l3.013,4.7l-3.586,2.5c-1.212,0.866 -2.503,1.3 -3.874,1.3c-0.702,-0 -1.371,-0.125 -2.009,-0.375c-0.637,-0.25 -1.195,-0.609 -1.674,-1.075c-0.478,-0.467 -0.86,-1.034 -1.147,-1.7c-0.287,-0.667 -0.431,-1.417 -0.431,-2.25c0,-0.434 0.064,-0.967 0.192,-1.6l1.673,-8.1Z" style="fill:rgb(244,244,245);fill-rule:nonzero;"/>
            <path d="M816.046,1054.91c-0.637,0.466 -1.291,0.8 -1.961,1c-0.669,0.2 -1.323,0.3 -1.96,0.3c-0.702,-0 -1.371,-0.125 -2.009,-0.375c-0.638,-0.25 -1.196,-0.6 -1.674,-1.05c-0.478,-0.45 -0.853,-1 -1.124,-1.65c-0.271,-0.65 -0.406,-1.375 -0.406,-2.175c-0,-0.634 0.064,-1.217 0.191,-1.75l2.87,-12.55l-0.479,-0.35l-6.408,4.6l-3.013,-4.7l6.935,-4.9c0.637,-0.467 1.291,-0.8 1.96,-1c0.67,-0.2 1.323,-0.3 1.961,-0.3c0.701,-0 1.371,0.125 2.009,0.375c0.637,0.25 1.195,0.6 1.673,1.05c0.479,0.45 0.853,1 1.124,1.65c0.271,0.65 0.407,1.375 0.407,2.175c-0,0.633 -0.064,1.216 -0.191,1.75l-2.87,12.55l0.478,0.35l6.409,-4.6l3.013,4.7l-6.935,4.9Zm4.161,-31.55c-0,0.666 -0.12,1.291 -0.359,1.875c-0.239,0.583 -0.566,1.083 -0.98,1.5c-0.415,0.416 -0.901,0.75 -1.459,1c-0.558,0.25 -1.14,0.375 -1.745,0.375c-0.638,-0 -1.228,-0.125 -1.77,-0.375c-0.542,-0.25 -1.02,-0.584 -1.435,-1c-0.414,-0.417 -0.741,-0.917 -0.98,-1.5c-0.239,-0.584 -0.359,-1.209 -0.359,-1.875c0,-0.667 0.12,-1.292 0.359,-1.875c0.239,-0.584 0.566,-1.084 0.98,-1.5c0.415,-0.417 0.893,-0.75 1.435,-1c0.542,-0.25 1.132,-0.375 1.77,-0.375c0.605,-0 1.187,0.125 1.745,0.375c0.558,0.25 1.044,0.583 1.459,1c0.414,0.416 0.741,0.916 0.98,1.5c0.239,0.583 0.359,1.208 0.359,1.875Z" style="fill:rgb(244,244,245);fill-rule:nonzero;"/>
            <path d="M845.266,1041.11c0.128,-0.634 0.192,-1.167 0.192,-1.6c-0,-1.2 -0.335,-2.134 -1.005,-2.8c-0.669,-0.667 -1.578,-1 -2.726,-1c-1.434,-0 -2.662,0.533 -3.682,1.6c-1.02,1.066 -1.706,2.5 -2.057,4.3l-2.821,13.9l-6.026,-0l5.022,-24.8l5.786,-0l-0.813,4l0.861,-0c0.765,-1.667 1.777,-2.867 3.037,-3.6c1.259,-0.734 2.654,-1.1 4.184,-1.1c2.009,-0 3.611,0.633 4.807,1.9c1.195,1.266 1.793,3.05 1.793,5.35c0,0.533 -0.032,1.025 -0.096,1.475c-0.063,0.45 -0.143,0.941 -0.239,1.475l-1.913,9.35l0.479,0.35l2.056,-1.5l3.013,4.7l-2.583,1.8c-1.211,0.866 -2.502,1.3 -3.873,1.3c-0.702,-0 -1.371,-0.125 -2.009,-0.375c-0.638,-0.25 -1.195,-0.6 -1.674,-1.05c-0.478,-0.45 -0.861,-1 -1.147,-1.65c-0.287,-0.65 -0.431,-1.392 -0.431,-2.225c0,-0.434 0.048,-0.934 0.144,-1.5l1.721,-8.3Z" style="fill:rgb(244,244,245);fill-rule:nonzero;"/>
            <path d="M874.773,1051.91l-0.861,-0c-0.35,0.566 -0.749,1.108 -1.195,1.625c-0.447,0.516 -0.989,0.975 -1.626,1.375c-0.638,0.4 -1.403,0.716 -2.296,0.95c-0.892,0.233 -1.929,0.35 -3.108,0.35c-1.148,-0 -2.224,-0.2 -3.228,-0.6c-1.005,-0.4 -1.873,-1 -2.607,-1.8c-0.733,-0.8 -1.315,-1.809 -1.745,-3.025c-0.431,-1.217 -0.646,-2.642 -0.646,-4.275c0,-2.067 0.295,-4.092 0.885,-6.075c0.59,-1.984 1.458,-3.75 2.606,-5.3c1.148,-1.55 2.575,-2.792 4.28,-3.725c1.706,-0.934 3.691,-1.4 5.954,-1.4c1.945,-0 3.42,0.391 4.424,1.175c1.004,0.783 1.634,1.825 1.889,3.125l0.861,-0l0.717,-3.6l6.026,-0l-6.265,30.9c-0.255,1.133 -0.797,2.066 -1.626,2.8c-0.829,0.733 -1.785,1.1 -2.869,1.1l-14.73,-0l0,-6l12.339,-0c0.86,-0 1.386,-0.5 1.578,-1.5l1.243,-6.1Zm-5.978,-1.7c1.148,-0 2.208,-0.25 3.181,-0.75c0.972,-0.5 1.817,-1.167 2.534,-2c0.718,-0.834 1.275,-1.8 1.674,-2.9c0.399,-1.1 0.598,-2.25 0.598,-3.45c-0,-1.6 -0.447,-2.85 -1.339,-3.75c-0.893,-0.9 -2.152,-1.35 -3.778,-1.35c-1.212,-0 -2.312,0.25 -3.3,0.75c-0.988,0.5 -1.825,1.158 -2.511,1.975c-0.685,0.816 -1.219,1.766 -1.602,2.85c-0.383,1.083 -0.574,2.191 -0.574,3.325c0,1.766 0.47,3.091 1.411,3.975c0.94,0.883 2.176,1.325 3.706,1.325Z" style="fill:rgb(244,244,245);fill-rule:nonzero;"/>
            <path d="M920.731,1065.51l-6.025,-0l5.882,-28.85l-0.478,-0.35l-2.2,1.7l-3.109,-4.5l2.583,-2c0.669,-0.5 1.363,-0.875 2.08,-1.125c0.717,-0.25 1.411,-0.375 2.08,-0.375c1.276,-0 2.392,0.383 3.348,1.15c0.957,0.766 1.546,1.816 1.77,3.15l0.86,-0c1.563,-2.867 4.113,-4.3 7.652,-4.3c1.084,-0 2.12,0.216 3.109,0.65c0.988,0.433 1.857,1.066 2.606,1.9c0.749,0.833 1.339,1.858 1.769,3.075c0.431,1.216 0.646,2.608 0.646,4.175c0,1.966 -0.231,3.933 -0.693,5.9c-0.463,1.966 -1.188,3.725 -2.176,5.275c-0.989,1.55 -2.256,2.808 -3.802,3.775c-1.547,0.966 -3.404,1.45 -5.572,1.45c-1.02,-0 -1.913,-0.125 -2.678,-0.375c-0.765,-0.25 -1.419,-0.575 -1.961,-0.975c-0.542,-0.4 -0.988,-0.859 -1.339,-1.375c-0.35,-0.517 -0.589,-1.042 -0.717,-1.575l-0.861,-0l-2.774,13.6Zm9.182,-15.3c1.18,-0 2.216,-0.225 3.109,-0.675c0.893,-0.45 1.634,-1.075 2.224,-1.875c0.59,-0.8 1.028,-1.75 1.315,-2.85c0.287,-1.1 0.43,-2.3 0.43,-3.6c0,-1.4 -0.43,-2.617 -1.291,-3.65c-0.861,-1.034 -2.056,-1.55 -3.587,-1.55c-1.084,-0 -2.056,0.225 -2.917,0.675c-0.861,0.45 -1.594,1.075 -2.2,1.875c-0.605,0.8 -1.076,1.75 -1.411,2.85c-0.334,1.1 -0.502,2.3 -0.502,3.6c0,1.566 0.431,2.825 1.292,3.775c0.86,0.95 2.04,1.425 3.538,1.425Z" style="fill:rgb(244,244,245);fill-rule:nonzero;"/>
            <path d="M967.12,1049.56l0.478,0.35l2.296,-1.7l3.013,4.7l-2.822,2c-1.243,0.866 -2.55,1.3 -3.921,1.3c-1.212,-0 -2.296,-0.35 -3.252,-1.05c-0.957,-0.7 -1.563,-1.684 -1.818,-2.95l-0.861,-0c-0.286,0.566 -0.621,1.091 -1.004,1.575c-0.382,0.483 -0.853,0.9 -1.411,1.25c-0.558,0.35 -1.211,0.633 -1.96,0.85c-0.75,0.216 -1.634,0.325 -2.655,0.325c-1.243,-0 -2.391,-0.259 -3.443,-0.775c-1.052,-0.517 -1.969,-1.234 -2.75,-2.15c-0.781,-0.917 -1.395,-1.992 -1.841,-3.225c-0.446,-1.234 -0.669,-2.584 -0.669,-4.05c-0,-2.234 0.287,-4.317 0.86,-6.25c0.574,-1.934 1.403,-3.625 2.487,-5.075c1.084,-1.45 2.415,-2.592 3.993,-3.425c1.579,-0.834 3.356,-1.25 5.333,-1.25c1.753,-0 3.14,0.366 4.16,1.1c1.021,0.733 1.706,1.7 2.057,2.9l0.861,-0l0.669,-3.3l6.026,-0l-3.826,18.85Zm-11.573,0.65c1.148,-0 2.168,-0.242 3.06,-0.725c0.893,-0.484 1.634,-1.125 2.224,-1.925c0.59,-0.8 1.044,-1.742 1.363,-2.825c0.319,-1.084 0.478,-2.225 0.478,-3.425c0,-1.567 -0.43,-2.842 -1.291,-3.825c-0.861,-0.984 -2.008,-1.475 -3.443,-1.475c-1.148,-0 -2.168,0.241 -3.061,0.725c-0.892,0.483 -1.642,1.125 -2.247,1.925c-0.606,0.8 -1.068,1.741 -1.387,2.825c-0.319,1.083 -0.479,2.225 -0.479,3.425c0,1.4 0.391,2.633 1.172,3.7c0.781,1.066 1.985,1.6 3.611,1.6Z" style="fill:rgb(244,244,245);fill-rule:nonzero;"/>
            <path d="M983.906,1036.71l-6.695,-0l-0,-6l7.938,-0l2.2,-10.9l6.026,-0l-2.2,10.9l8.226,-0l-0,6l-9.469,-0l-2.678,12.85l0.478,0.35l6.408,-4.6l3.013,4.7l-6.934,4.9c-1.212,0.866 -2.503,1.3 -3.874,1.3c-0.701,-0 -1.371,-0.125 -2.009,-0.375c-0.637,-0.25 -1.195,-0.609 -1.673,-1.075c-0.479,-0.467 -0.861,-1.034 -1.148,-1.7c-0.287,-0.667 -0.431,-1.417 -0.431,-2.25c0,-0.267 0.016,-0.509 0.048,-0.725c0.032,-0.217 0.08,-0.509 0.144,-0.875l2.63,-12.5Z" style="fill:rgb(244,244,245);fill-rule:nonzero;"/>
            <path d="M1028.29,1046.41c-0.893,2.966 -2.479,5.341 -4.758,7.125c-2.28,1.783 -5.333,2.675 -9.159,2.675c-1.402,-0 -2.725,-0.234 -3.969,-0.7c-1.243,-0.467 -2.327,-1.167 -3.252,-2.1c-0.924,-0.934 -1.65,-2.092 -2.176,-3.475c-0.526,-1.384 -0.789,-2.992 -0.789,-4.825c0,-2.067 0.343,-4.017 1.028,-5.85c0.686,-1.834 1.682,-3.434 2.989,-4.8c1.307,-1.367 2.886,-2.45 4.735,-3.25c1.849,-0.8 3.953,-1.2 6.312,-1.2c1.722,-0 3.237,0.266 4.544,0.8c1.307,0.533 2.391,1.258 3.252,2.175c0.86,0.916 1.514,1.991 1.96,3.225c0.447,1.233 0.67,2.533 0.67,3.9l-6.121,1.25c-0,-1.7 -0.407,-3.017 -1.22,-3.95c-0.813,-0.934 -2.128,-1.4 -3.945,-1.4c-1.148,-0 -2.208,0.225 -3.181,0.675c-0.972,0.45 -1.817,1.066 -2.534,1.85c-0.718,0.783 -1.276,1.7 -1.674,2.75c-0.399,1.05 -0.598,2.175 -0.598,3.375c0,1.9 0.478,3.3 1.435,4.2c0.956,0.9 2.168,1.35 3.634,1.35c2.009,-0 3.571,-0.467 4.687,-1.4c1.116,-0.934 1.961,-2.25 2.535,-3.95l5.595,1.55Z" style="fill:rgb(244,244,245);fill-rule:nonzero;"/>
            <path d="M1050.43,1041.11c0.064,-0.367 0.112,-0.659 0.144,-0.875c0.032,-0.217 0.048,-0.459 0.048,-0.725c-0,-1.2 -0.335,-2.134 -1.005,-2.8c-0.669,-0.667 -1.578,-1 -2.726,-1c-1.626,-0 -2.957,0.6 -3.993,1.8c-1.036,1.2 -1.761,2.8 -2.176,4.8l-2.678,13.2l-6.026,-0l7.269,-35.7l6.026,-0l-2.917,14.3l0.861,-0c1.626,-2.734 3.953,-4.1 6.982,-4.1c1.977,-0 3.595,0.616 4.854,1.85c1.259,1.233 1.889,3.033 1.889,5.4c0,0.466 -0.032,0.941 -0.096,1.425c-0.063,0.483 -0.143,0.991 -0.239,1.525l-1.913,9.35l0.479,0.35l3.06,-2.2l3.013,4.7l-3.587,2.5c-1.211,0.866 -2.502,1.3 -3.873,1.3c-0.702,-0 -1.371,-0.125 -2.009,-0.375c-0.638,-0.25 -1.195,-0.609 -1.674,-1.075c-0.478,-0.467 -0.86,-1.034 -1.147,-1.7c-0.287,-0.667 -0.431,-1.417 -0.431,-2.25c0,-0.434 0.064,-0.967 0.191,-1.6l1.674,-8.1Z" style="fill:rgb(244,244,245);fill-rule:nonzero;"/>
            <path d="M1069.17,1045.16c-0.064,0.266 -0.096,0.55 -0.096,0.85c0,1.2 0.439,2.2 1.315,3c0.877,0.8 2.033,1.2 3.468,1.2c1.498,-0 2.694,-0.284 3.586,-0.85c0.893,-0.567 1.579,-1.234 2.057,-2l4.782,3.15c-0.382,0.666 -0.885,1.333 -1.506,2c-0.622,0.666 -1.387,1.275 -2.296,1.825c-0.908,0.55 -1.976,1 -3.204,1.35c-1.227,0.35 -2.654,0.525 -4.28,0.525c-1.467,-0 -2.814,-0.242 -4.041,-0.725c-1.228,-0.484 -2.28,-1.15 -3.157,-2c-0.876,-0.85 -1.562,-1.867 -2.056,-3.05c-0.494,-1.184 -0.741,-2.492 -0.741,-3.925c-0,-2.267 0.327,-4.4 0.98,-6.4c0.654,-2 1.602,-3.75 2.846,-5.25c1.243,-1.5 2.773,-2.684 4.591,-3.55c1.817,-0.867 3.905,-1.3 6.265,-1.3c1.657,-0 3.1,0.275 4.328,0.825c1.227,0.55 2.239,1.283 3.036,2.2c0.797,0.916 1.395,1.958 1.794,3.125c0.398,1.166 0.598,2.366 0.598,3.6c-0,0.4 -0.024,0.808 -0.072,1.225c-0.048,0.416 -0.136,0.958 -0.263,1.625l-0.526,2.55l-17.408,-0Zm7.556,-9.45c-1.498,-0 -2.798,0.391 -3.898,1.175c-1.099,0.783 -1.92,1.741 -2.462,2.875l11.19,-0c0,-1.267 -0.374,-2.259 -1.124,-2.975c-0.749,-0.717 -1.984,-1.075 -3.706,-1.075Z" style="fill:rgb(244,244,245);fill-rule:nonzero;"/>
            <path d="M1113.46,1049.56l0.479,0.35l2.582,-1.9l3.013,4.7l-3.109,2.2c-0.669,0.466 -1.331,0.8 -1.984,1c-0.654,0.2 -1.299,0.3 -1.937,0.3c-1.212,-0 -2.296,-0.35 -3.252,-1.05c-0.957,-0.7 -1.562,-1.684 -1.817,-2.95l-0.861,-0c-0.287,0.566 -0.622,1.091 -1.004,1.575c-0.383,0.483 -0.853,0.9 -1.411,1.25c-0.558,0.35 -1.212,0.633 -1.961,0.85c-0.749,0.216 -1.634,0.325 -2.654,0.325c-1.244,-0 -2.391,-0.259 -3.443,-0.775c-1.053,-0.517 -1.969,-1.234 -2.75,-2.15c-0.781,-0.917 -1.395,-1.992 -1.842,-3.225c-0.446,-1.234 -0.669,-2.584 -0.669,-4.05c-0,-2.234 0.287,-4.317 0.861,-6.25c0.574,-1.934 1.403,-3.625 2.487,-5.075c1.084,-1.45 2.415,-2.592 3.993,-3.425c1.578,-0.834 3.355,-1.25 5.332,-1.25c1.69,-0 3.061,0.4 4.113,1.2c1.052,0.8 1.738,1.833 2.056,3.1l0.861,-0l2.917,-14.5l6.074,-0l-2.965,14.5l-3.109,15.25Zm-11.573,0.65c1.148,-0 2.168,-0.242 3.061,-0.725c0.893,-0.484 1.634,-1.125 2.224,-1.925c0.589,-0.8 1.044,-1.742 1.363,-2.825c0.318,-1.084 0.478,-2.225 0.478,-3.425c-0,-1.567 -0.431,-2.842 -1.291,-3.825c-0.861,-0.984 -2.009,-1.475 -3.444,-1.475c-1.147,-0 -2.168,0.241 -3.06,0.725c-0.893,0.483 -1.642,1.125 -2.248,1.925c-0.606,0.8 -1.068,1.741 -1.387,2.825c-0.319,1.083 -0.478,2.225 -0.478,3.425c-0,1.4 0.39,2.633 1.171,3.7c0.782,1.066 1.985,1.6 3.611,1.6Z" style="fill:rgb(244,244,245);fill-rule:nonzero;"/>
        </g>
        <path d="M911.328,688.868c-0.081,1.776 0.494,2.644 1.726,2.604c0.747,0 1.312,-0.131 1.695,-0.394l0,4.785c-0.464,0.161 -1.069,0.262 -1.816,0.303c-0.788,0.08 -1.444,0.121 -1.969,0.121c-1.453,-0.041 -2.594,-0.576 -3.422,-1.605c-0.908,-0.989 -1.362,-2.19 -1.362,-3.604l-0.121,0c-2.524,3.473 -5.976,5.209 -10.357,5.209c-4.703,-0.081 -8.216,-1.767 -10.537,-5.057c-2.362,-3.19 -3.543,-7.015 -3.543,-11.477c-0,-4.562 1.14,-8.489 3.421,-11.779c2.261,-3.351 5.835,-5.067 10.72,-5.148c4.34,-0 7.752,1.756 10.235,5.269l0.121,-0l0,-4.664l5.209,0l-0,25.437Zm-14.747,2.967c1.615,0 2.997,-0.373 4.148,-1.12c1.11,-0.707 2.039,-1.655 2.786,-2.846c1.454,-2.443 2.18,-5.128 2.18,-8.055c0,-3.271 -0.666,-6.147 -1.998,-8.63c-1.353,-2.524 -3.816,-3.826 -7.389,-3.907c-3.169,0.081 -5.481,1.363 -6.934,3.846c-1.454,2.443 -2.181,5.148 -2.181,8.115c0,3.15 0.727,5.986 2.181,8.509c1.453,2.645 3.855,4.008 7.207,4.088Z" style="fill:rgb(131,133,136);fill-rule:nonzero;"/>
    </g>
    <defs>
        <linearGradient id="_Linear1" x1="0" y1="0" x2="1" y2="0" gradientUnits="userSpaceOnUse" gradientTransform="matrix(468.262,0,0,442.146,665.869,426.167)"><stop offset="0" style="stop-color:rgb(145,120,199);stop-opacity:1"/><stop offset="0.21" style="stop-color:rgb(145,120,199);stop-opacity:1"/><stop offset="0.84" style="stop-color:rgb(118,188,194);stop-opacity:1"/><stop offset="1" style="stop-color:rgb(124,192,198);stop-opacity:1"/></linearGradient>
        <linearGradient id="_Linear2" x1="0" y1="0" x2="1" y2="0" gradientUnits="userSpaceOnUse" gradientTransform="matrix(468.262,0,0,442.146,665.869,426.167)"><stop offset="0" style="stop-color:rgb(145,120,199);stop-opacity:1"/><stop offset="0.21" style="stop-color:rgb(145,120,199);stop-opacity:1"/><stop offset="0.84" style="stop-color:rgb(118,188,194);stop-opacity:1"/><stop offset="1" style="stop-color:rgb(124,192,198);stop-opacity:1"/></linearGradient>
        <linearGradient id="_Linear3" x1="0" y1="0" x2="1" y2="0" gradientUnits="userSpaceOnUse" gradientTransform="matrix(514.472,0,0,480.707,642.764,421.54)"><stop offset="0" style="stop-color:rgb(145,120,199);stop-opacity:1"/><stop offset="0.21" style="stop-color:rgb(145,120,199);stop-opacity:1"/><stop offset="0.84" style="stop-color:rgb(118,188,194);stop-opacity:1"/><stop offset="1" style="stop-color:rgb(124,192,198);stop-opacity:1"/></linearGradient>
    </defs>
</svg>
