<?xml version="1.0" encoding="UTF-8" standalone="no"?>
<!DOCTYPE svg PUBLIC "-//W3C//DTD SVG 1.1//EN" "http://www.w3.org/Graphics/SVG/1.1/DTD/svg11.dtd">
<svg width="100%" height="100%" viewBox="0 0 1801 1200" version="1.1" xmlns="http://www.w3.org/2000/svg" xmlns:xlink="http://www.w3.org/1999/xlink" xml:space="preserve" xmlns:serif="http://www.serif.com/" style="fill-rule:evenodd;clip-rule:evenodd;stroke-linecap:round;stroke-miterlimit:10;">
    <rect id="_8---Coarse" serif:id="8 - Coarse" x="0.045" y="0" width="1800" height="1200" style="fill:none;"/>
    <g id="_8---Coarse1" serif:id="8 - Coarse">
        <path d="M1035.19,649.148l-21.165,-6.35l6.351,-21.165" style="fill:none;stroke:url(#_Linear1);stroke-width:10.42px;"/>
        <path d="M792.55,646.29c-75.201,-38.973 -126.636,-117.535 -126.636,-208.015c-0,-129.22 104.91,-234.131 234.131,-234.131c129.22,-0 234.131,104.911 234.131,234.131c-0,87.855 -48.494,164.473 -120.152,204.523" style="fill:none;stroke:url(#_Linear2);stroke-width:10.42px;stroke-linejoin:round;stroke-miterlimit:1.5;"/>
        <g id="Large-MXR" serif:id="Large MXR">
            <path d="M805.948,600.452c-89.95,-51.933 -120.816,-167.125 -68.883,-257.076c51.933,-89.951 167.125,-120.817 257.076,-68.883c89.951,51.933 120.816,167.125 68.883,257.075c-51.933,89.951 -167.125,120.817 -257.076,68.884Z" style="fill:rgb(131,133,136);"/>
            <path d="M822.773,555.582l13.621,7.865l65.671,-113.746l-13.621,-7.864l-65.671,113.745Z" style="fill:white;"/>
            <path d="M811.041,591.632c-3.759,-2.17 -5.049,-6.984 -2.879,-10.743c2.17,-3.759 6.984,-5.049 10.743,-2.879c3.759,2.171 5.049,6.984 2.878,10.743c-2.17,3.759 -6.983,5.049 -10.742,2.879Z" style="fill:white;"/>
        </g>
        <path d="M668.094,442.68l-20.077,0c-2.875,0 -5.208,-2.333 -5.208,-5.208c-0,-2.874 2.333,-5.208 5.208,-5.208l20.077,-0c-0.038,1.731 -0.058,3.467 -0.058,5.208c0,1.741 0.02,3.477 0.058,5.208Zm6.515,-60.221l-19.352,-5.186c-2.777,-0.744 -4.427,-3.602 -3.683,-6.378c0.744,-2.777 3.602,-4.427 6.379,-3.683l19.349,5.184c-0.97,3.324 -1.869,6.679 -2.693,10.063Zm21.949,-56.456l-17.38,-10.034c-2.489,-1.437 -3.343,-4.625 -1.906,-7.115c1.437,-2.489 4.625,-3.344 7.115,-1.906l17.39,10.04c-1.805,2.962 -3.545,5.968 -5.219,9.015Zm35.822,-48.83l-14.229,-14.229c-2.032,-2.032 -2.032,-5.333 0,-7.365c2.033,-2.033 5.333,-2.033 7.366,-0l14.229,14.229c-2.51,2.4 -4.965,4.856 -7.366,7.365Zm47.181,-37.968l-10.041,-17.391c-1.437,-2.49 -0.583,-5.678 1.907,-7.115c2.489,-1.437 5.677,-0.583 7.114,1.907l10.034,17.379c-3.047,1.674 -6.052,3.415 -9.014,5.22Zm55.408,-24.475l-5.185,-19.35c-0.744,-2.777 0.907,-5.635 3.683,-6.379c2.777,-0.744 5.635,0.906 6.379,3.683l5.186,19.353c-3.384,0.824 -6.739,1.722 -10.063,2.693Zm59.867,-9.209l0,-20.077c0,-2.874 2.334,-5.208 5.209,-5.208c2.874,0 5.208,2.334 5.208,5.208l0,20.077c-1.731,-0.038 -3.468,-0.057 -5.208,-0.057c-1.741,-0 -3.477,0.019 -5.209,0.057Zm60.222,6.516l5.185,-19.353c0.744,-2.777 3.603,-4.427 6.379,-3.683c2.777,0.744 4.427,3.602 3.683,6.379l-5.185,19.35c-3.324,-0.971 -6.678,-1.869 -10.062,-2.693Zm56.456,21.948l10.034,-17.379c1.437,-2.49 4.625,-3.344 7.115,-1.907c2.489,1.437 3.343,4.625 1.906,7.115l-10.04,17.391c-2.962,-1.805 -5.968,-3.546 -9.015,-5.22Zm48.829,35.823l14.229,-14.229c2.033,-2.033 5.333,-2.033 7.366,-0c2.033,2.032 2.033,5.333 0,7.365l-14.229,14.229c-2.4,-2.509 -4.856,-4.965 -7.366,-7.365Zm37.969,47.18l17.391,-10.04c2.489,-1.438 5.677,-0.583 7.115,1.906c1.437,2.49 0.583,5.678 -1.907,7.115l-17.379,10.034c-1.674,-3.047 -3.415,-6.053 -5.22,-9.015Zm24.475,55.408l19.35,-5.184c2.776,-0.744 5.635,0.906 6.379,3.683c0.744,2.776 -0.907,5.634 -3.683,6.378l-19.353,5.186c-0.824,-3.384 -1.722,-6.739 -2.693,-10.063Zm9.209,59.868l20.076,-0c2.875,-0 5.209,2.334 5.209,5.208c-0,2.875 -2.334,5.208 -5.209,5.208l-20.076,0c0.038,-1.731 0.057,-3.467 0.057,-5.208c0,-1.741 -0.019,-3.477 -0.057,-5.208Zm-6.516,60.221l19.353,5.186c2.776,0.744 4.427,3.602 3.683,6.379c-0.744,2.776 -3.603,4.427 -6.379,3.683l-19.35,-5.185c0.971,-3.324 1.869,-6.679 2.693,-10.063Zm-21.948,56.456l17.379,10.034c2.49,1.438 3.344,4.626 1.907,7.115c-1.438,2.49 -4.626,3.344 -7.115,1.907l-17.391,-10.041c1.805,-2.962 3.546,-5.967 5.22,-9.015Zm-35.823,48.83l14.229,14.229c2.033,2.032 2.033,5.333 0,7.365c-2.033,2.033 -5.333,2.033 -7.366,0l-14.229,-14.228c2.51,-2.401 4.966,-4.857 7.366,-7.366Zm-279.134,43.188l-10.034,17.38c-1.437,2.489 -4.625,3.343 -7.114,1.906c-2.49,-1.437 -3.344,-4.625 -1.907,-7.115l10.041,-17.39c2.962,1.805 5.967,3.545 9.014,5.219Zm-48.829,-35.822l-14.229,14.228c-2.033,2.033 -5.333,2.033 -7.366,0c-2.032,-2.032 -2.032,-5.333 0,-7.365l14.229,-14.229c2.401,2.509 4.856,4.965 7.366,7.366Zm-37.969,-47.181l-17.39,10.041c-2.49,1.437 -5.678,0.583 -7.115,-1.907c-1.437,-2.489 -0.583,-5.677 1.906,-7.115l17.38,-10.034c1.674,3.048 3.414,6.053 5.219,9.015Zm-24.475,-55.408l-19.349,5.185c-2.777,0.744 -5.635,-0.907 -6.379,-3.683c-0.744,-2.777 0.906,-5.635 3.683,-6.379l19.352,-5.186c0.824,3.384 1.723,6.739 2.693,10.063Z" style="fill:url(#_Linear3);"/>
        <g>
            <rect x="545.928" y="674.85" width="221.544" height="79.707" style="fill:rgb(125,97,186);stroke:rgb(125,97,186);stroke-width:10.42px;stroke-linejoin:round;stroke-miterlimit:1.5;"/>
            <path d="M570.026,732.204l6.982,-34.4l6.312,-0l-5.834,28.7l14.538,-0l0,6.3l-21.998,-0l-0,-0.6Z" style="fill:rgb(244,244,245);fill-rule:nonzero;"/>
            <path d="M625.261,717.304c0,2.333 -0.318,4.491 -0.956,6.475c-0.638,1.983 -1.578,3.691 -2.822,5.125c-1.243,1.433 -2.797,2.558 -4.662,3.375c-1.865,0.816 -4.025,1.225 -6.48,1.225c-1.403,-0 -2.718,-0.217 -3.946,-0.65c-1.227,-0.434 -2.303,-1.075 -3.228,-1.925c-0.925,-0.85 -1.658,-1.892 -2.2,-3.125c-0.542,-1.234 -0.813,-2.634 -0.813,-4.2c0,-2.567 0.383,-4.859 1.148,-6.875c0.765,-2.017 1.809,-3.725 3.132,-5.125c1.324,-1.4 2.886,-2.467 4.687,-3.2c1.801,-0.734 3.738,-1.1 5.811,-1.1c1.498,-0 2.885,0.241 4.16,0.725c1.276,0.483 2.367,1.158 3.276,2.025c0.909,0.866 1.618,1.916 2.128,3.15c0.51,1.233 0.765,2.6 0.765,4.1Zm-14.012,10.3c1.148,-0.034 2.208,-0.3 3.18,-0.8c0.973,-0.5 1.802,-1.159 2.487,-1.975c0.686,-0.817 1.22,-1.775 1.602,-2.875c0.383,-1.1 0.574,-2.267 0.574,-3.5c0,-1.734 -0.446,-3.042 -1.339,-3.925c-0.893,-0.884 -2.088,-1.325 -3.587,-1.325c-1.147,-0 -2.199,0.258 -3.156,0.775c-0.956,0.516 -1.785,1.2 -2.487,2.05c-0.701,0.85 -1.243,1.825 -1.626,2.925c-0.382,1.1 -0.574,2.25 -0.574,3.45c0,1.7 0.447,2.991 1.339,3.875c0.893,0.883 2.089,1.325 3.587,1.325Z" style="fill:rgb(244,244,245);fill-rule:nonzero;"/>
            <path d="M634.778,726.504l-0.526,2.7l0.861,-0l0.526,-2.4l4.83,-18.8l9.565,-0l-2.487,18.8l-0.478,2.4l0.861,-0l0.574,-2.7l4.83,-19.1l4.926,1.25l-6.361,24.15l-9.612,-0l2.821,-21.8l-0.861,-0l-5.499,21.8l-9.374,-0l2.726,-24.8l5.022,-0l-2.344,18.5Z" style="fill:rgb(244,244,245);fill-rule:nonzero;"/>
            <path d="M665.003,722.454c-0.064,0.266 -0.096,0.55 -0.096,0.85c-0,1.2 0.438,2.2 1.315,3c0.877,0.8 2.033,1.2 3.467,1.2c1.499,-0 2.694,-0.284 3.587,-0.85c0.893,-0.567 1.578,-1.234 2.056,-2l4.783,3.15c-0.383,0.666 -0.885,1.333 -1.507,2c-0.621,0.666 -1.387,1.275 -2.295,1.825c-0.909,0.55 -1.977,1 -3.204,1.35c-1.228,0.35 -2.655,0.525 -4.28,0.525c-1.467,-0 -2.814,-0.242 -4.042,-0.725c-1.227,-0.484 -2.279,-1.15 -3.156,-2c-0.877,-0.85 -1.562,-1.867 -2.056,-3.05c-0.494,-1.184 -0.742,-2.492 -0.742,-3.925c0,-2.267 0.327,-4.4 0.981,-6.4c0.653,-2 1.602,-3.75 2.845,-5.25c1.244,-1.5 2.774,-2.684 4.591,-3.55c1.818,-0.867 3.906,-1.3 6.265,-1.3c1.658,-0 3.101,0.275 4.328,0.825c1.228,0.55 2.24,1.283 3.037,2.2c0.797,0.916 1.395,1.958 1.793,3.125c0.399,1.166 0.598,2.366 0.598,3.6c0,0.4 -0.024,0.808 -0.072,1.225c-0.047,0.416 -0.135,0.958 -0.263,1.625l-0.526,2.55l-17.407,-0Zm7.556,-9.45c-1.499,-0 -2.798,0.391 -3.898,1.175c-1.1,0.783 -1.921,1.741 -2.463,2.875l11.191,-0c-0,-1.267 -0.375,-2.259 -1.124,-2.975c-0.749,-0.717 -1.985,-1.075 -3.706,-1.075Z" style="fill:rgb(244,244,245);fill-rule:nonzero;"/>
            <path d="M701.779,713.004c-0.351,-0 -0.71,0.041 -1.076,0.125c-0.367,0.083 -0.71,0.208 -1.028,0.375c-0.319,0.166 -0.582,0.391 -0.79,0.675c-0.207,0.283 -0.31,0.625 -0.31,1.025c-0,0.7 0.382,1.216 1.147,1.55c0.766,0.333 2.073,0.616 3.922,0.85c2.072,0.266 3.746,0.925 5.021,1.975c1.276,1.05 1.913,2.558 1.913,4.525c0,2.933 -0.98,5.233 -2.941,6.9c-1.961,1.666 -4.679,2.5 -8.154,2.5c-1.753,-0 -3.26,-0.267 -4.519,-0.8c-1.259,-0.534 -2.296,-1.2 -3.109,-2c-0.813,-0.8 -1.426,-1.684 -1.841,-2.65c-0.414,-0.967 -0.637,-1.884 -0.669,-2.75l5.93,-1.5c0.095,1.1 0.542,2.041 1.339,2.825c0.797,0.783 2.008,1.175 3.634,1.175c1.116,-0 2.089,-0.184 2.918,-0.55c0.829,-0.367 1.243,-1.017 1.243,-1.95c0,-0.7 -0.319,-1.259 -0.956,-1.675c-0.638,-0.417 -1.818,-0.709 -3.539,-0.875c-2.296,-0.2 -4.121,-0.884 -5.476,-2.05c-1.355,-1.167 -2.033,-2.717 -2.033,-4.65c0,-1.4 0.279,-2.65 0.837,-3.75c0.558,-1.1 1.3,-2.017 2.224,-2.75c0.925,-0.734 2.001,-1.292 3.228,-1.675c1.228,-0.384 2.511,-0.575 3.85,-0.575c1.658,-0 3.045,0.233 4.161,0.7c1.115,0.466 2.024,1.05 2.726,1.75c0.701,0.7 1.219,1.458 1.554,2.275c0.335,0.816 0.55,1.575 0.645,2.275l-5.834,1.6c-0.128,-0.9 -0.526,-1.609 -1.196,-2.125c-0.669,-0.517 -1.61,-0.775 -2.821,-0.775Z" style="fill:rgb(244,244,245);fill-rule:nonzero;"/>
            <path d="M726.073,714.004l-6.695,-0l-0,-6l7.938,-0l2.2,-10.9l6.026,-0l-2.2,10.9l8.226,-0l-0,6l-9.469,-0l-2.678,12.85l0.478,0.35l6.408,-4.6l3.013,4.7l-6.934,4.9c-1.212,0.866 -2.503,1.3 -3.874,1.3c-0.701,-0 -1.371,-0.125 -2.009,-0.375c-0.637,-0.25 -1.195,-0.609 -1.673,-1.075c-0.479,-0.467 -0.861,-1.034 -1.148,-1.7c-0.287,-0.667 -0.431,-1.417 -0.431,-2.25c0,-0.267 0.016,-0.509 0.048,-0.725c0.032,-0.217 0.08,-0.509 0.144,-0.875l2.63,-12.5Z" style="fill:rgb(244,244,245);fill-rule:nonzero;"/>
        </g>
        <g>
            <rect x="1032.62" y="674.85" width="240.06" height="79.707" style="fill:rgb(64,140,148);stroke:rgb(64,140,148);stroke-width:10.42px;stroke-linejoin:round;stroke-miterlimit:1.5;"/>
            <path d="M1059.71,697.804l6.313,-0l-2.917,14.3l9.564,-0l2.918,-14.3l6.312,-0l-7.125,35l-6.313,-0l2.917,-14.4l-9.564,-0l-2.918,14.4l-6.264,-0l7.077,-35Z" style="fill:rgb(244,244,245);fill-rule:nonzero;"/>
            <path d="M1100.07,732.204c-0.637,0.466 -1.291,0.8 -1.961,1c-0.669,0.2 -1.323,0.3 -1.96,0.3c-0.702,-0 -1.371,-0.125 -2.009,-0.375c-0.637,-0.25 -1.195,-0.6 -1.674,-1.05c-0.478,-0.45 -0.853,-1 -1.124,-1.65c-0.271,-0.65 -0.406,-1.375 -0.406,-2.175c-0,-0.634 0.064,-1.217 0.191,-1.75l2.87,-12.55l-0.479,-0.35l-6.408,4.6l-3.013,-4.7l6.935,-4.9c0.637,-0.467 1.291,-0.8 1.96,-1c0.67,-0.2 1.324,-0.3 1.961,-0.3c0.702,-0 1.371,0.125 2.009,0.375c0.637,0.25 1.195,0.6 1.674,1.05c0.478,0.45 0.852,1 1.123,1.65c0.271,0.65 0.407,1.375 0.407,2.175c-0,0.633 -0.064,1.216 -0.191,1.75l-2.87,12.55l0.478,0.35l6.409,-4.6l3.013,4.7l-6.935,4.9Zm4.161,-31.55c-0,0.666 -0.12,1.291 -0.359,1.875c-0.239,0.583 -0.566,1.083 -0.98,1.5c-0.415,0.416 -0.901,0.75 -1.459,1c-0.558,0.25 -1.14,0.375 -1.745,0.375c-0.638,-0 -1.228,-0.125 -1.77,-0.375c-0.542,-0.25 -1.02,-0.584 -1.435,-1c-0.414,-0.417 -0.741,-0.917 -0.98,-1.5c-0.239,-0.584 -0.359,-1.209 -0.359,-1.875c0,-0.667 0.12,-1.292 0.359,-1.875c0.239,-0.584 0.566,-1.084 0.98,-1.5c0.415,-0.417 0.893,-0.75 1.435,-1c0.542,-0.25 1.132,-0.375 1.77,-0.375c0.605,-0 1.187,0.125 1.745,0.375c0.558,0.25 1.044,0.583 1.459,1c0.414,0.416 0.741,0.916 0.98,1.5c0.239,0.583 0.359,1.208 0.359,1.875Z" style="fill:rgb(244,244,245);fill-rule:nonzero;"/>
            <path d="M1129.53,729.204l-0.86,-0c-0.351,0.566 -0.75,1.108 -1.196,1.625c-0.446,0.516 -0.988,0.975 -1.626,1.375c-0.638,0.4 -1.403,0.716 -2.296,0.95c-0.892,0.233 -1.928,0.35 -3.108,0.35c-1.148,-0 -2.224,-0.2 -3.228,-0.6c-1.004,-0.4 -1.873,-1 -2.606,-1.8c-0.734,-0.8 -1.316,-1.809 -1.746,-3.025c-0.43,-1.217 -0.646,-2.642 -0.646,-4.275c0,-2.067 0.295,-4.092 0.885,-6.075c0.59,-1.984 1.459,-3.75 2.606,-5.3c1.148,-1.55 2.575,-2.792 4.281,-3.725c1.705,-0.934 3.69,-1.4 5.954,-1.4c1.944,-0 3.419,0.391 4.423,1.175c1.005,0.783 1.634,1.825 1.889,3.125l0.861,-0l0.718,-3.6l6.025,-0l-6.265,30.9c-0.255,1.133 -0.797,2.066 -1.626,2.8c-0.829,0.733 -1.785,1.1 -2.869,1.1l-14.73,-0l0,-6l12.339,-0c0.861,-0 1.387,-0.5 1.578,-1.5l1.243,-6.1Zm-5.978,-1.7c1.148,-0 2.208,-0.25 3.181,-0.75c0.972,-0.5 1.817,-1.167 2.534,-2c0.718,-0.834 1.276,-1.8 1.674,-2.9c0.399,-1.1 0.598,-2.25 0.598,-3.45c-0,-1.6 -0.446,-2.85 -1.339,-3.75c-0.893,-0.9 -2.152,-1.35 -3.778,-1.35c-1.212,-0 -2.312,0.25 -3.3,0.75c-0.988,0.5 -1.825,1.158 -2.511,1.975c-0.685,0.816 -1.219,1.766 -1.602,2.85c-0.382,1.083 -0.574,2.191 -0.574,3.325c0,1.766 0.471,3.091 1.411,3.975c0.941,0.883 2.176,1.325 3.706,1.325Z" style="fill:rgb(244,244,245);fill-rule:nonzero;"/>
            <path d="M1158.85,718.404c0.064,-0.367 0.112,-0.659 0.144,-0.875c0.031,-0.217 0.047,-0.459 0.047,-0.725c0,-1.2 -0.334,-2.134 -1.004,-2.8c-0.669,-0.667 -1.578,-1 -2.726,-1c-1.626,-0 -2.957,0.6 -3.993,1.8c-1.036,1.2 -1.762,2.8 -2.176,4.8l-2.678,13.2l-6.026,-0l7.269,-35.7l6.026,-0l-2.917,14.3l0.861,-0c1.626,-2.734 3.953,-4.1 6.982,-4.1c1.977,-0 3.595,0.616 4.854,1.85c1.259,1.233 1.889,3.033 1.889,5.4c-0,0.466 -0.032,0.941 -0.096,1.425c-0.064,0.483 -0.143,0.991 -0.239,1.525l-1.913,9.35l0.478,0.35l3.061,-2.2l3.013,4.7l-3.587,2.5c-1.211,0.866 -2.502,1.3 -3.873,1.3c-0.702,-0 -1.371,-0.125 -2.009,-0.375c-0.638,-0.25 -1.196,-0.609 -1.674,-1.075c-0.478,-0.467 -0.861,-1.034 -1.148,-1.7c-0.287,-0.667 -0.43,-1.417 -0.43,-2.25c-0,-0.434 0.064,-0.967 0.191,-1.6l1.674,-8.1Z" style="fill:rgb(244,244,245);fill-rule:nonzero;"/>
            <path d="M1177.6,722.454c-0.064,0.266 -0.096,0.55 -0.096,0.85c0,1.2 0.439,2.2 1.315,3c0.877,0.8 2.033,1.2 3.468,1.2c1.498,-0 2.694,-0.284 3.586,-0.85c0.893,-0.567 1.578,-1.234 2.057,-2l4.782,3.15c-0.383,0.666 -0.885,1.333 -1.506,2c-0.622,0.666 -1.387,1.275 -2.296,1.825c-0.909,0.55 -1.977,1 -3.204,1.35c-1.228,0.35 -2.654,0.525 -4.28,0.525c-1.467,-0 -2.814,-0.242 -4.041,-0.725c-1.228,-0.484 -2.28,-1.15 -3.157,-2c-0.876,-0.85 -1.562,-1.867 -2.056,-3.05c-0.494,-1.184 -0.741,-2.492 -0.741,-3.925c-0,-2.267 0.326,-4.4 0.98,-6.4c0.654,-2 1.602,-3.75 2.846,-5.25c1.243,-1.5 2.773,-2.684 4.591,-3.55c1.817,-0.867 3.905,-1.3 6.264,-1.3c1.658,-0 3.101,0.275 4.328,0.825c1.228,0.55 2.24,1.283 3.037,2.2c0.797,0.916 1.395,1.958 1.794,3.125c0.398,1.166 0.597,2.366 0.597,3.6c0,0.4 -0.024,0.808 -0.071,1.225c-0.048,0.416 -0.136,0.958 -0.263,1.625l-0.526,2.55l-17.408,-0Zm7.556,-9.45c-1.499,-0 -2.798,0.391 -3.898,1.175c-1.1,0.783 -1.921,1.741 -2.463,2.875l11.191,-0c0,-1.267 -0.375,-2.259 -1.124,-2.975c-0.749,-0.717 -1.984,-1.075 -3.706,-1.075Z" style="fill:rgb(244,244,245);fill-rule:nonzero;"/>
            <path d="M1214.37,713.004c-0.351,-0 -0.709,0.041 -1.076,0.125c-0.367,0.083 -0.709,0.208 -1.028,0.375c-0.319,0.166 -0.582,0.391 -0.789,0.675c-0.208,0.283 -0.311,0.625 -0.311,1.025c-0,0.7 0.382,1.216 1.148,1.55c0.765,0.333 2.072,0.616 3.921,0.85c2.072,0.266 3.746,0.925 5.022,1.975c1.275,1.05 1.912,2.558 1.912,4.525c0,2.933 -0.98,5.233 -2.941,6.9c-1.96,1.666 -4.678,2.5 -8.154,2.5c-1.753,-0 -3.259,-0.267 -4.519,-0.8c-1.259,-0.534 -2.295,-1.2 -3.108,-2c-0.813,-0.8 -1.427,-1.684 -1.842,-2.65c-0.414,-0.967 -0.637,-1.884 -0.669,-2.75l5.93,-1.5c0.096,1.1 0.542,2.041 1.339,2.825c0.797,0.783 2.009,1.175 3.635,1.175c1.116,-0 2.088,-0.184 2.917,-0.55c0.829,-0.367 1.243,-1.017 1.243,-1.95c0,-0.7 -0.319,-1.259 -0.956,-1.675c-0.638,-0.417 -1.817,-0.709 -3.539,-0.875c-2.296,-0.2 -4.121,-0.884 -5.476,-2.05c-1.355,-1.167 -2.032,-2.717 -2.032,-4.65c-0,-1.4 0.279,-2.65 0.837,-3.75c0.557,-1.1 1.299,-2.017 2.223,-2.75c0.925,-0.734 2.001,-1.292 3.228,-1.675c1.228,-0.384 2.511,-0.575 3.85,-0.575c1.658,-0 3.045,0.233 4.161,0.7c1.116,0.466 2.024,1.05 2.726,1.75c0.701,0.7 1.219,1.458 1.554,2.275c0.335,0.816 0.55,1.575 0.646,2.275l-5.835,1.6c-0.127,-0.9 -0.526,-1.609 -1.195,-2.125c-0.67,-0.517 -1.61,-0.775 -2.822,-0.775Z" style="fill:rgb(244,244,245);fill-rule:nonzero;"/>
            <path d="M1238.67,714.004l-6.695,-0l-0,-6l7.939,-0l2.2,-10.9l6.025,-0l-2.2,10.9l8.226,-0l-0,6l-9.469,-0l-2.678,12.85l0.478,0.35l6.408,-4.6l3.013,4.7l-6.934,4.9c-1.212,0.866 -2.503,1.3 -3.874,1.3c-0.701,-0 -1.371,-0.125 -2.008,-0.375c-0.638,-0.25 -1.196,-0.609 -1.674,-1.075c-0.478,-0.467 -0.861,-1.034 -1.148,-1.7c-0.287,-0.667 -0.43,-1.417 -0.43,-2.25c-0,-0.267 0.016,-0.509 0.047,-0.725c0.032,-0.217 0.08,-0.509 0.144,-0.875l2.63,-12.5Z" style="fill:rgb(244,244,245);fill-rule:nonzero;"/>
        </g>
        <path d="M688.427,129.371c0.658,-3.289 1.758,-5.7 3.299,-7.234c1.541,-1.533 3.661,-2.3 6.361,-2.3c1.126,0 2.125,0.184 2.997,0.55c0.871,0.367 1.604,0.878 2.2,1.534c0.595,0.655 1.046,1.428 1.355,2.316c0.308,0.889 0.462,1.845 0.462,2.867c-0,0.378 -0.016,0.756 -0.048,1.133c-0.032,0.378 -0.09,0.756 -0.175,1.134l-1.052,5.2c-0.617,3.089 -1.626,5.4 -3.029,6.933c-1.403,1.533 -3.295,2.389 -5.675,2.567l-0.096,0.433c-0.021,0.111 -0.032,0.211 -0.032,0.3c0,0.422 0.234,0.633 0.702,0.633l1.785,0l0,4l-3.794,0c-0.893,0 -1.615,-0.261 -2.168,-0.783c-0.553,-0.522 -0.829,-1.194 -0.829,-2.017c0,-0.177 0.011,-0.344 0.032,-0.5c0.021,-0.155 0.053,-0.322 0.096,-0.5l0.446,-2.033c-1.339,-0.511 -2.359,-1.367 -3.061,-2.567c-0.701,-1.2 -1.052,-2.6 -1.052,-4.2c0,-0.377 0.016,-0.755 0.048,-1.133c0.032,-0.378 0.09,-0.755 0.175,-1.133l1.053,-5.2Zm6.121,10.733c0.723,0 1.36,-0.139 1.913,-0.417c0.552,-0.277 1.036,-0.65 1.45,-1.116c0.415,-0.467 0.755,-1.022 1.021,-1.667c0.265,-0.644 0.473,-1.333 0.621,-2.067l1.18,-5.733c0.064,-0.355 0.112,-0.661 0.144,-0.917c0.031,-0.255 0.047,-0.505 0.047,-0.75c0,-1.133 -0.281,-2.016 -0.845,-2.65c-0.563,-0.633 -1.355,-0.95 -2.375,-0.95c-0.722,0 -1.36,0.139 -1.913,0.417c-0.552,0.278 -1.036,0.65 -1.45,1.117c-0.415,0.466 -0.755,1.022 -1.021,1.666c-0.265,0.645 -0.472,1.334 -0.621,2.067l-1.18,5.733c-0.127,0.6 -0.191,1.156 -0.191,1.667c-0,1.133 0.281,2.017 0.845,2.65c0.563,0.633 1.355,0.95 2.375,0.95Z" style="fill:rgb(35,31,32);fill-rule:nonzero;"/>
        <path d="M712.976,127.104l-1.977,9.6c-0.085,0.378 -0.127,0.745 -0.127,1.1c-0,0.845 0.223,1.472 0.669,1.883c0.446,0.412 1.042,0.617 1.786,0.617c1.126,0 1.992,-0.383 2.598,-1.15c0.606,-0.767 1.057,-1.85 1.355,-3.25l1.785,-8.8l4.017,0l-2.614,12.6l0.351,0.2l1.148,-0.867l2.008,3.067l-1.498,1.133c-0.404,0.312 -0.824,0.534 -1.26,0.667c-0.435,0.133 -0.866,0.2 -1.291,0.2c-0.871,0 -1.636,-0.261 -2.295,-0.783c-0.659,-0.522 -1.031,-1.284 -1.116,-2.284l-0.574,0c-0.468,1.134 -1.1,1.928 -1.897,2.384c-0.797,0.455 -1.695,0.683 -2.694,0.683c-1.382,0 -2.508,-0.439 -3.38,-1.317c-0.871,-0.877 -1.307,-2.105 -1.307,-3.683c0,-0.555 0.064,-1.155 0.191,-1.8l2.105,-10.2l4.017,0Z" style="fill:rgb(35,31,32);fill-rule:nonzero;"/>
        <path d="M740.65,139.671l0.318,0.233l1.531,-1.133l2.008,3.133l-1.881,1.333c-0.829,0.578 -1.7,0.867 -2.614,0.867c-0.808,0 -1.53,-0.233 -2.168,-0.7c-0.638,-0.467 -1.042,-1.122 -1.212,-1.967l-0.573,0c-0.192,0.378 -0.415,0.728 -0.67,1.05c-0.255,0.323 -0.569,0.6 -0.941,0.834c-0.371,0.233 -0.807,0.422 -1.307,0.566c-0.499,0.145 -1.089,0.217 -1.769,0.217c-0.829,0 -1.594,-0.172 -2.296,-0.517c-0.701,-0.344 -1.312,-0.822 -1.833,-1.433c-0.521,-0.611 -0.93,-1.328 -1.227,-2.15c-0.298,-0.822 -0.447,-1.722 -0.447,-2.7c0,-1.489 0.192,-2.878 0.574,-4.167c0.383,-1.288 0.935,-2.416 1.658,-3.383c0.723,-0.967 1.61,-1.728 2.662,-2.283c1.052,-0.556 2.237,-0.834 3.555,-0.834c1.169,0 2.094,0.245 2.774,0.734c0.68,0.489 1.137,1.133 1.371,1.933l0.574,0l0.446,-2.2l4.017,0l-2.55,12.567Zm-7.716,0.433c0.765,0 1.445,-0.161 2.041,-0.483c0.595,-0.322 1.089,-0.75 1.482,-1.284c0.393,-0.533 0.696,-1.161 0.909,-1.883c0.212,-0.722 0.319,-1.483 0.319,-2.283c-0,-1.045 -0.287,-1.895 -0.861,-2.55c-0.574,-0.656 -1.339,-0.984 -2.296,-0.984c-0.765,0 -1.445,0.162 -2.04,0.484c-0.595,0.322 -1.095,0.75 -1.499,1.283c-0.404,0.533 -0.712,1.161 -0.924,1.883c-0.213,0.723 -0.319,1.484 -0.319,2.284c-0,0.933 0.26,1.755 0.781,2.466c0.521,0.712 1.323,1.067 2.407,1.067Z" style="fill:rgb(35,31,32);fill-rule:nonzero;"/>
        <path d="M756.973,134.037c0.085,-0.422 0.128,-0.777 0.128,-1.066c-0,-0.8 -0.223,-1.422 -0.67,-1.867c-0.446,-0.444 -1.052,-0.667 -1.817,-0.667c-0.956,0 -1.775,0.356 -2.455,1.067c-0.68,0.711 -1.137,1.667 -1.371,2.867l-1.881,9.266l-4.017,0l3.348,-16.533l3.857,0l-0.542,2.667l0.574,-0c0.51,-1.111 1.185,-1.911 2.025,-2.4c0.839,-0.489 1.769,-0.734 2.789,-0.734c1.339,0 2.407,0.423 3.205,1.267c0.797,0.845 1.195,2.033 1.195,3.567c0,0.355 -0.021,0.683 -0.064,0.983c-0.042,0.3 -0.095,0.628 -0.159,0.983l-1.275,6.234l0.318,0.233l1.371,-1l2.009,3.133l-1.722,1.2c-0.807,0.578 -1.668,0.867 -2.582,0.867c-0.468,0 -0.914,-0.083 -1.339,-0.25c-0.425,-0.167 -0.797,-0.4 -1.116,-0.7c-0.319,-0.3 -0.574,-0.667 -0.765,-1.1c-0.191,-0.433 -0.287,-0.928 -0.287,-1.483c-0,-0.289 0.032,-0.622 0.096,-1l1.147,-5.534Z" style="fill:rgb(35,31,32);fill-rule:nonzero;"/>
        <path d="M771.352,131.104l-4.463,0l-0,-4l5.292,0l1.467,-7.267l4.017,0l-1.467,7.267l5.484,0l-0,4l-6.313,0l-1.785,8.567l0.319,0.233l4.272,-3.067l2.009,3.134l-4.623,3.266c-0.808,0.578 -1.669,0.867 -2.583,0.867c-0.467,0 -0.914,-0.083 -1.339,-0.25c-0.425,-0.167 -0.797,-0.405 -1.116,-0.717c-0.319,-0.311 -0.574,-0.688 -0.765,-1.133c-0.191,-0.444 -0.287,-0.944 -0.287,-1.5c0,-0.178 0.011,-0.339 0.032,-0.483c0.021,-0.145 0.053,-0.339 0.096,-0.584l1.753,-8.333Z" style="fill:rgb(35,31,32);fill-rule:nonzero;"/>
        <path d="M796.029,143.237c-0.425,0.312 -0.861,0.534 -1.307,0.667c-0.447,0.133 -0.882,0.2 -1.307,0.2c-0.468,0 -0.914,-0.083 -1.339,-0.25c-0.426,-0.167 -0.797,-0.4 -1.116,-0.7c-0.319,-0.3 -0.569,-0.667 -0.75,-1.1c-0.18,-0.433 -0.271,-0.917 -0.271,-1.45c0,-0.422 0.043,-0.811 0.128,-1.167l1.913,-8.366l-0.319,-0.234l-4.272,3.067l-2.009,-3.133l4.623,-3.267c0.425,-0.311 0.861,-0.533 1.307,-0.667c0.447,-0.133 0.882,-0.2 1.308,-0.2c0.467,0 0.914,0.084 1.339,0.25c0.425,0.167 0.797,0.4 1.116,0.7c0.318,0.3 0.568,0.667 0.749,1.1c0.18,0.434 0.271,0.917 0.271,1.45c-0,0.423 -0.043,0.812 -0.128,1.167l-1.913,8.367l0.319,0.233l4.272,-3.067l2.009,3.134l-4.623,3.266Zm2.774,-21.033c-0,0.445 -0.08,0.861 -0.239,1.25c-0.16,0.389 -0.378,0.722 -0.654,1c-0.276,0.278 -0.6,0.5 -0.972,0.667c-0.372,0.166 -0.76,0.25 -1.164,0.25c-0.425,-0 -0.818,-0.084 -1.18,-0.25c-0.361,-0.167 -0.68,-0.389 -0.956,-0.667c-0.276,-0.278 -0.494,-0.611 -0.654,-1c-0.159,-0.389 -0.239,-0.805 -0.239,-1.25c0,-0.444 0.08,-0.861 0.239,-1.25c0.16,-0.389 0.378,-0.722 0.654,-1c0.276,-0.278 0.595,-0.5 0.956,-0.667c0.362,-0.166 0.755,-0.25 1.18,-0.25c0.404,0 0.792,0.084 1.164,0.25c0.372,0.167 0.696,0.389 0.972,0.667c0.276,0.278 0.494,0.611 0.654,1c0.159,0.389 0.239,0.806 0.239,1.25Z" style="fill:rgb(35,31,32);fill-rule:nonzero;"/>
        <path d="M818.378,139.637l0,4l-13.677,0l-0,-6.566l11.924,-5.5l-0,-0.6l-9.278,-0l0,-3.867l13.104,0l-0,6.467l-11.86,5.466l-0,0.6l9.787,0Z" style="fill:rgb(35,31,32);fill-rule:nonzero;"/>
        <path d="M828.198,136.737c-0.042,0.178 -0.064,0.367 -0.064,0.567c0,0.8 0.293,1.467 0.877,2c0.585,0.533 1.355,0.8 2.312,0.8c0.999,0 1.796,-0.189 2.391,-0.567c0.595,-0.377 1.052,-0.822 1.371,-1.333l3.188,2.1c-0.255,0.445 -0.59,0.889 -1.004,1.333c-0.415,0.445 -0.925,0.85 -1.531,1.217c-0.605,0.367 -1.318,0.667 -2.136,0.9c-0.818,0.233 -1.769,0.35 -2.853,0.35c-0.978,0 -1.876,-0.161 -2.694,-0.483c-0.819,-0.322 -1.52,-0.767 -2.105,-1.334c-0.584,-0.566 -1.041,-1.244 -1.37,-2.033c-0.33,-0.789 -0.495,-1.661 -0.495,-2.617c0,-1.511 0.218,-2.933 0.654,-4.266c0.436,-1.334 1.068,-2.5 1.897,-3.5c0.829,-1 1.849,-1.789 3.061,-2.367c1.211,-0.578 2.603,-0.867 4.176,-0.867c1.105,0 2.067,0.184 2.886,0.55c0.818,0.367 1.493,0.856 2.024,1.467c0.531,0.611 0.93,1.306 1.196,2.083c0.265,0.778 0.398,1.578 0.398,2.4c0,0.267 -0.016,0.539 -0.048,0.817c-0.032,0.278 -0.09,0.639 -0.175,1.083l-0.351,1.7l-11.605,0Zm5.038,-6.3c-0.999,0 -1.866,0.262 -2.599,0.784c-0.733,0.522 -1.28,1.161 -1.642,1.916l7.461,0c-0,-0.844 -0.25,-1.505 -0.75,-1.983c-0.499,-0.478 -1.323,-0.717 -2.47,-0.717Z" style="fill:rgb(35,31,32);fill-rule:nonzero;"/>
        <path d="M857.721,139.671l0.319,0.233l1.722,-1.267l2.008,3.134l-2.072,1.466c-0.447,0.312 -0.888,0.534 -1.323,0.667c-0.436,0.133 -0.866,0.2 -1.292,0.2c-0.807,0 -1.53,-0.233 -2.168,-0.7c-0.637,-0.467 -1.041,-1.122 -1.211,-1.967l-0.574,0c-0.191,0.378 -0.414,0.728 -0.669,1.05c-0.256,0.323 -0.569,0.6 -0.941,0.834c-0.372,0.233 -0.808,0.422 -1.307,0.566c-0.5,0.145 -1.089,0.217 -1.77,0.217c-0.829,0 -1.594,-0.172 -2.295,-0.517c-0.702,-0.344 -1.313,-0.822 -1.833,-1.433c-0.521,-0.611 -0.93,-1.328 -1.228,-2.15c-0.297,-0.822 -0.446,-1.722 -0.446,-2.7c-0,-1.489 0.191,-2.878 0.574,-4.167c0.382,-1.288 0.935,-2.416 1.658,-3.383c0.722,-0.967 1.61,-1.728 2.662,-2.283c1.052,-0.556 2.237,-0.834 3.555,-0.834c1.126,0 2.04,0.267 2.741,0.8c0.702,0.534 1.159,1.223 1.371,2.067l0.574,0l1.945,-9.667l4.049,0l-1.977,9.667l-2.072,10.167Zm-7.715,0.433c0.765,0 1.445,-0.161 2.04,-0.483c0.595,-0.322 1.089,-0.75 1.483,-1.284c0.393,-0.533 0.696,-1.161 0.908,-1.883c0.213,-0.722 0.319,-1.483 0.319,-2.283c0,-1.045 -0.287,-1.895 -0.861,-2.55c-0.574,-0.656 -1.339,-0.984 -2.295,-0.984c-0.765,0 -1.446,0.162 -2.041,0.484c-0.595,0.322 -1.094,0.75 -1.498,1.283c-0.404,0.533 -0.712,1.161 -0.925,1.883c-0.212,0.723 -0.319,1.484 -0.319,2.284c0,0.933 0.261,1.755 0.781,2.466c0.521,0.712 1.324,1.067 2.408,1.067Z" style="fill:rgb(35,31,32);fill-rule:nonzero;"/>
        <path d="M896.745,139.671l0.319,0.233l1.53,-1.133l2.009,3.133l-1.881,1.333c-0.829,0.578 -1.701,0.867 -2.615,0.867c-0.807,0 -1.53,-0.233 -2.168,-0.7c-0.637,-0.467 -1.041,-1.122 -1.211,-1.967l-0.574,0c-0.191,0.378 -0.415,0.728 -0.67,1.05c-0.255,0.323 -0.568,0.6 -0.94,0.834c-0.372,0.233 -0.808,0.422 -1.307,0.566c-0.5,0.145 -1.09,0.217 -1.77,0.217c-0.829,0 -1.594,-0.172 -2.295,-0.517c-0.702,-0.344 -1.313,-0.822 -1.834,-1.433c-0.52,-0.611 -0.929,-1.328 -1.227,-2.15c-0.298,-0.822 -0.446,-1.722 -0.446,-2.7c-0,-1.489 0.191,-2.878 0.573,-4.167c0.383,-1.288 0.936,-2.416 1.658,-3.383c0.723,-0.967 1.61,-1.728 2.663,-2.283c1.052,-0.556 2.237,-0.834 3.554,-0.834c1.169,0 2.094,0.245 2.774,0.734c0.68,0.489 1.137,1.133 1.371,1.933l0.574,0l0.446,-2.2l4.017,0l-2.55,12.567Zm-7.716,0.433c0.766,0 1.446,-0.161 2.041,-0.483c0.595,-0.322 1.089,-0.75 1.482,-1.284c0.394,-0.533 0.696,-1.161 0.909,-1.883c0.213,-0.722 0.319,-1.483 0.319,-2.283c-0,-1.045 -0.287,-1.895 -0.861,-2.55c-0.574,-0.656 -1.339,-0.984 -2.295,-0.984c-0.766,0 -1.446,0.162 -2.041,0.484c-0.595,0.322 -1.095,0.75 -1.498,1.283c-0.404,0.533 -0.712,1.161 -0.925,1.883c-0.213,0.723 -0.319,1.484 -0.319,2.284c0,0.933 0.261,1.755 0.781,2.466c0.521,0.712 1.323,1.067 2.407,1.067Z" style="fill:rgb(35,31,32);fill-rule:nonzero;"/>
        <path d="M907.936,131.104l-4.464,0l0,-4l5.293,0l1.466,-7.267l4.017,0l-1.466,7.267l5.483,0l0,4l-6.312,0l-1.786,8.567l0.319,0.233l4.272,-3.067l2.009,3.134l-4.623,3.266c-0.808,0.578 -1.668,0.867 -2.582,0.867c-0.468,0 -0.914,-0.083 -1.339,-0.25c-0.426,-0.167 -0.798,-0.405 -1.116,-0.717c-0.319,-0.311 -0.574,-0.688 -0.766,-1.133c-0.191,-0.444 -0.286,-0.944 -0.286,-1.5c-0,-0.178 0.01,-0.339 0.031,-0.483c0.022,-0.145 0.054,-0.339 0.096,-0.584l1.754,-8.333Z" style="fill:rgb(35,31,32);fill-rule:nonzero;"/>
        <path d="M950.275,130.437c-0.234,0 -0.473,0.028 -0.717,0.084c-0.245,0.055 -0.473,0.139 -0.686,0.25c-0.212,0.111 -0.388,0.261 -0.526,0.45c-0.138,0.189 -0.207,0.416 -0.207,0.683c0,0.467 0.255,0.811 0.765,1.033c0.51,0.223 1.382,0.412 2.615,0.567c1.381,0.178 2.497,0.617 3.347,1.317c0.85,0.7 1.275,1.705 1.275,3.016c0,1.956 -0.653,3.489 -1.96,4.6c-1.307,1.112 -3.119,1.667 -5.436,1.667c-1.169,0 -2.174,-0.178 -3.013,-0.533c-0.84,-0.356 -1.53,-0.8 -2.072,-1.334c-0.542,-0.533 -0.952,-1.122 -1.228,-1.766c-0.276,-0.645 -0.425,-1.256 -0.446,-1.834l3.953,-1c0.064,0.734 0.361,1.362 0.893,1.884c0.531,0.522 1.339,0.783 2.423,0.783c0.744,0 1.392,-0.122 1.945,-0.367c0.552,-0.244 0.829,-0.677 0.829,-1.3c-0,-0.466 -0.213,-0.838 -0.638,-1.116c-0.425,-0.278 -1.212,-0.472 -2.359,-0.584c-1.531,-0.133 -2.747,-0.588 -3.651,-1.366c-0.903,-0.778 -1.355,-1.811 -1.355,-3.1c0,-0.934 0.186,-1.767 0.558,-2.5c0.372,-0.734 0.866,-1.345 1.483,-1.834c0.616,-0.488 1.333,-0.861 2.152,-1.116c0.818,-0.256 1.674,-0.384 2.566,-0.384c1.106,0 2.03,0.156 2.774,0.467c0.744,0.311 1.35,0.7 1.817,1.167c0.468,0.466 0.813,0.972 1.036,1.516c0.224,0.545 0.367,1.05 0.431,1.517l-3.89,1.067c-0.085,-0.6 -0.35,-1.072 -0.797,-1.417c-0.446,-0.344 -1.073,-0.517 -1.881,-0.517Z" style="fill:rgb(35,31,32);fill-rule:nonzero;"/>
        <path d="M964.782,136.737c-0.043,0.178 -0.064,0.367 -0.064,0.567c-0,0.8 0.292,1.467 0.877,2c0.584,0.533 1.355,0.8 2.311,0.8c0.999,0 1.796,-0.189 2.391,-0.567c0.595,-0.377 1.052,-0.822 1.371,-1.333l3.188,2.1c-0.255,0.445 -0.589,0.889 -1.004,1.333c-0.414,0.445 -0.925,0.85 -1.53,1.217c-0.606,0.367 -1.318,0.667 -2.136,0.9c-0.819,0.233 -1.77,0.35 -2.854,0.35c-0.978,0 -1.876,-0.161 -2.694,-0.483c-0.818,-0.322 -1.52,-0.767 -2.104,-1.334c-0.585,-0.566 -1.042,-1.244 -1.371,-2.033c-0.33,-0.789 -0.494,-1.661 -0.494,-2.617c-0,-1.511 0.218,-2.933 0.653,-4.266c0.436,-1.334 1.068,-2.5 1.897,-3.5c0.829,-1 1.849,-1.789 3.061,-2.367c1.212,-0.578 2.604,-0.867 4.177,-0.867c1.105,0 2.067,0.184 2.885,0.55c0.818,0.367 1.493,0.856 2.024,1.467c0.532,0.611 0.93,1.306 1.196,2.083c0.266,0.778 0.399,1.578 0.399,2.4c-0,0.267 -0.016,0.539 -0.048,0.817c-0.032,0.278 -0.091,0.639 -0.176,1.083l-0.35,1.7l-11.605,0Zm5.037,-6.3c-0.999,0 -1.865,0.262 -2.598,0.784c-0.734,0.522 -1.281,1.161 -1.642,1.916l7.46,0c0,-0.844 -0.25,-1.505 -0.749,-1.983c-0.5,-0.478 -1.323,-0.717 -2.471,-0.717Z" style="fill:rgb(35,31,32);fill-rule:nonzero;"/>
        <path d="M992.774,132.037c0.043,-0.177 0.064,-0.333 0.064,-0.466c-0,-0.622 -0.287,-0.934 -0.861,-0.934c-0.34,0 -0.595,0.117 -0.765,0.35c-0.17,0.234 -0.287,0.517 -0.351,0.85l-2.423,11.8l-4.017,0l2.359,-11.6c0.043,-0.222 0.064,-0.377 0.064,-0.466c0,-0.622 -0.276,-0.934 -0.829,-0.934c-0.616,0 -0.999,0.4 -1.148,1.2l-2.423,11.8l-3.985,0l3.348,-16.533l4.017,0l-0.319,1.6l0.574,0c0.17,-0.689 0.489,-1.205 0.956,-1.55c0.468,-0.344 0.999,-0.517 1.594,-0.517c0.702,0 1.233,0.2 1.595,0.6c0.361,0.4 0.595,0.889 0.701,1.467l0.574,0c0.234,-0.6 0.59,-1.094 1.068,-1.483c0.478,-0.389 1.1,-0.584 1.865,-0.584c0.893,0 1.578,0.3 2.056,0.9c0.479,0.6 0.718,1.323 0.718,2.167c-0,0.156 -0.006,0.295 -0.016,0.417c-0.011,0.122 -0.037,0.272 -0.08,0.45l-1.881,9.1l0.319,0.233l1.084,-0.8l2.008,3.133l-1.434,1c-0.425,0.312 -0.856,0.534 -1.291,0.667c-0.436,0.133 -0.867,0.2 -1.292,0.2c-0.467,0 -0.908,-0.083 -1.323,-0.25c-0.414,-0.167 -0.781,-0.405 -1.1,-0.717c-0.319,-0.311 -0.568,-0.694 -0.749,-1.15c-0.181,-0.455 -0.271,-0.972 -0.271,-1.55c0,-0.311 0.043,-0.688 0.128,-1.133l1.466,-7.267Z" style="fill:rgb(35,31,32);fill-rule:nonzero;"/>
        <path d="M1010.66,143.237c-0.425,0.312 -0.861,0.534 -1.307,0.667c-0.446,0.133 -0.882,0.2 -1.307,0.2c-0.468,0 -0.914,-0.083 -1.339,-0.25c-0.425,-0.167 -0.797,-0.4 -1.116,-0.7c-0.319,-0.3 -0.569,-0.667 -0.749,-1.1c-0.181,-0.433 -0.271,-0.917 -0.271,-1.45c-0,-0.422 0.042,-0.811 0.127,-1.167l1.913,-8.366l-0.319,-0.234l-4.272,3.067l-2.009,-3.133l4.623,-3.267c0.425,-0.311 0.861,-0.533 1.307,-0.667c0.447,-0.133 0.883,-0.2 1.308,-0.2c0.467,0 0.914,0.084 1.339,0.25c0.425,0.167 0.797,0.4 1.116,0.7c0.318,0.3 0.568,0.667 0.749,1.1c0.18,0.434 0.271,0.917 0.271,1.45c-0,0.423 -0.043,0.812 -0.128,1.167l-1.913,8.367l0.319,0.233l4.272,-3.067l2.009,3.134l-4.623,3.266Zm2.774,-21.033c-0,0.445 -0.08,0.861 -0.239,1.25c-0.16,0.389 -0.378,0.722 -0.654,1c-0.276,0.278 -0.6,0.5 -0.972,0.667c-0.372,0.166 -0.76,0.25 -1.164,0.25c-0.425,-0 -0.818,-0.084 -1.18,-0.25c-0.361,-0.167 -0.68,-0.389 -0.956,-0.667c-0.276,-0.278 -0.494,-0.611 -0.654,-1c-0.159,-0.389 -0.239,-0.805 -0.239,-1.25c0,-0.444 0.08,-0.861 0.239,-1.25c0.16,-0.389 0.378,-0.722 0.654,-1c0.276,-0.278 0.595,-0.5 0.956,-0.667c0.362,-0.166 0.755,-0.25 1.18,-0.25c0.404,0 0.792,0.084 1.164,0.25c0.372,0.167 0.696,0.389 0.972,0.667c0.276,0.278 0.494,0.611 0.654,1c0.159,0.389 0.239,0.806 0.239,1.25Z" style="fill:rgb(35,31,32);fill-rule:nonzero;"/>
        <path d="M1025.01,131.104l-4.463,0l-0,-4l5.292,0l1.467,-7.267l4.017,0l-1.467,7.267l5.484,0l-0,4l-6.313,0l-1.785,8.567l0.319,0.233l4.272,-3.067l2.008,3.134l-4.622,3.266c-0.808,0.578 -1.669,0.867 -2.583,0.867c-0.468,0 -0.914,-0.083 -1.339,-0.25c-0.425,-0.167 -0.797,-0.405 -1.116,-0.717c-0.319,-0.311 -0.574,-0.688 -0.765,-1.133c-0.191,-0.444 -0.287,-0.944 -0.287,-1.5c0,-0.178 0.011,-0.339 0.032,-0.483c0.021,-0.145 0.053,-0.339 0.096,-0.584l1.753,-8.333Z" style="fill:rgb(35,31,32);fill-rule:nonzero;"/>
        <path d="M1055.36,133.304c-0,1.556 -0.213,2.995 -0.638,4.317c-0.425,1.322 -1.052,2.461 -1.881,3.416c-0.829,0.956 -1.865,1.706 -3.108,2.25c-1.244,0.545 -2.684,0.817 -4.32,0.817c-0.936,0 -1.812,-0.144 -2.631,-0.433c-0.818,-0.289 -1.535,-0.717 -2.152,-1.284c-0.616,-0.566 -1.105,-1.261 -1.466,-2.083c-0.362,-0.822 -0.542,-1.755 -0.542,-2.8c-0,-1.711 0.255,-3.239 0.765,-4.583c0.51,-1.345 1.206,-2.484 2.088,-3.417c0.882,-0.933 1.924,-1.644 3.125,-2.133c1.201,-0.489 2.492,-0.734 3.873,-0.734c0.999,0 1.924,0.162 2.774,0.484c0.85,0.322 1.578,0.772 2.184,1.35c0.606,0.578 1.079,1.278 1.419,2.1c0.34,0.822 0.51,1.733 0.51,2.733Zm-9.342,6.867c0.766,-0.022 1.472,-0.2 2.121,-0.534c0.648,-0.333 1.201,-0.772 1.657,-1.316c0.457,-0.545 0.813,-1.184 1.069,-1.917c0.255,-0.733 0.382,-1.511 0.382,-2.333c0,-1.156 -0.297,-2.028 -0.893,-2.617c-0.595,-0.589 -1.392,-0.883 -2.391,-0.883c-0.765,-0 -1.466,0.172 -2.104,0.516c-0.638,0.345 -1.19,0.8 -1.658,1.367c-0.467,0.567 -0.829,1.217 -1.084,1.95c-0.255,0.733 -0.382,1.5 -0.382,2.3c-0,1.133 0.297,1.995 0.892,2.583c0.595,0.589 1.392,0.884 2.391,0.884Z" style="fill:rgb(35,31,32);fill-rule:nonzero;"/>
        <path d="M1069.16,134.037c0.085,-0.422 0.127,-0.777 0.127,-1.066c0,-0.8 -0.223,-1.422 -0.669,-1.867c-0.446,-0.444 -1.052,-0.667 -1.817,-0.667c-0.957,0 -1.775,0.356 -2.455,1.067c-0.68,0.711 -1.137,1.667 -1.371,2.867l-1.881,9.266l-4.017,0l3.347,-16.533l3.858,0l-0.542,2.667l0.574,-0c0.51,-1.111 1.185,-1.911 2.024,-2.4c0.84,-0.489 1.77,-0.734 2.79,-0.734c1.339,0 2.407,0.423 3.204,1.267c0.797,0.845 1.196,2.033 1.196,3.567c-0,0.355 -0.021,0.683 -0.064,0.983c-0.042,0.3 -0.096,0.628 -0.159,0.983l-1.276,6.234l0.319,0.233l1.371,-1l2.009,3.133l-1.722,1.2c-0.808,0.578 -1.668,0.867 -2.582,0.867c-0.468,0 -0.914,-0.083 -1.339,-0.25c-0.426,-0.167 -0.798,-0.4 -1.116,-0.7c-0.319,-0.3 -0.574,-0.667 -0.766,-1.1c-0.191,-0.433 -0.286,-0.928 -0.286,-1.483c-0,-0.289 0.031,-0.622 0.095,-1l1.148,-5.534Z" style="fill:rgb(35,31,32);fill-rule:nonzero;"/>
        <path d="M1081.85,136.737c-0.042,0.178 -0.064,0.367 -0.064,0.567c0,0.8 0.293,1.467 0.877,2c0.585,0.533 1.355,0.8 2.312,0.8c0.998,0 1.796,-0.189 2.391,-0.567c0.595,-0.377 1.052,-0.822 1.371,-1.333l3.188,2.1c-0.255,0.445 -0.59,0.889 -1.004,1.333c-0.415,0.445 -0.925,0.85 -1.531,1.217c-0.606,0.367 -1.318,0.667 -2.136,0.9c-0.818,0.233 -1.769,0.35 -2.853,0.35c-0.978,0 -1.876,-0.161 -2.694,-0.483c-0.819,-0.322 -1.52,-0.767 -2.105,-1.334c-0.584,-0.566 -1.041,-1.244 -1.371,-2.033c-0.329,-0.789 -0.494,-1.661 -0.494,-2.617c0,-1.511 0.218,-2.933 0.654,-4.266c0.436,-1.334 1.068,-2.5 1.897,-3.5c0.829,-1 1.849,-1.789 3.061,-2.367c1.211,-0.578 2.603,-0.867 4.176,-0.867c1.105,0 2.067,0.184 2.885,0.55c0.819,0.367 1.494,0.856 2.025,1.467c0.531,0.611 0.93,1.306 1.196,2.083c0.265,0.778 0.398,1.578 0.398,2.4c0,0.267 -0.016,0.539 -0.048,0.817c-0.032,0.278 -0.09,0.639 -0.175,1.083l-0.351,1.7l-11.605,0Zm5.037,-6.3c-0.999,0 -1.865,0.262 -2.598,0.784c-0.733,0.522 -1.281,1.161 -1.642,1.916l7.461,0c-0,-0.844 -0.25,-1.505 -0.75,-1.983c-0.499,-0.478 -1.323,-0.717 -2.471,-0.717Z" style="fill:rgb(35,31,32);fill-rule:nonzero;"/>
        <path d="M1106.37,130.437c-0.233,0 -0.472,0.028 -0.717,0.084c-0.244,0.055 -0.473,0.139 -0.685,0.25c-0.213,0.111 -0.388,0.261 -0.526,0.45c-0.139,0.189 -0.208,0.416 -0.208,0.683c0,0.467 0.255,0.811 0.766,1.033c0.51,0.223 1.381,0.412 2.614,0.567c1.381,0.178 2.497,0.617 3.348,1.317c0.85,0.7 1.275,1.705 1.275,3.016c-0,1.956 -0.654,3.489 -1.961,4.6c-1.307,1.112 -3.119,1.667 -5.436,1.667c-1.169,0 -2.173,-0.178 -3.013,-0.533c-0.839,-0.356 -1.53,-0.8 -2.072,-1.334c-0.542,-0.533 -0.951,-1.122 -1.228,-1.766c-0.276,-0.645 -0.425,-1.256 -0.446,-1.834l3.953,-1c0.064,0.734 0.362,1.362 0.893,1.884c0.532,0.522 1.339,0.783 2.423,0.783c0.744,0 1.392,-0.122 1.945,-0.367c0.553,-0.244 0.829,-0.677 0.829,-1.3c-0,-0.466 -0.213,-0.838 -0.638,-1.116c-0.425,-0.278 -1.211,-0.472 -2.359,-0.584c-1.53,-0.133 -2.747,-0.588 -3.65,-1.366c-0.904,-0.778 -1.355,-1.811 -1.355,-3.1c-0,-0.934 0.186,-1.767 0.557,-2.5c0.372,-0.734 0.867,-1.345 1.483,-1.834c0.616,-0.488 1.334,-0.861 2.152,-1.116c0.818,-0.256 1.674,-0.384 2.567,-0.384c1.105,0 2.029,0.156 2.773,0.467c0.744,0.311 1.35,0.7 1.818,1.167c0.467,0.466 0.813,0.972 1.036,1.516c0.223,0.545 0.366,1.05 0.43,1.517l-3.889,1.067c-0.085,-0.6 -0.351,-1.072 -0.797,-1.417c-0.447,-0.344 -1.074,-0.517 -1.882,-0.517Z" style="fill:rgb(35,31,32);fill-rule:nonzero;"/>
        <g>
            <path d="M911.372,952.136c-0.08,1.777 0.495,2.645 1.726,2.605c0.747,-0 1.313,-0.132 1.696,-0.394l0,4.784c-0.464,0.162 -1.07,0.263 -1.817,0.303c-0.787,0.081 -1.443,0.121 -1.968,0.121c-1.454,-0.04 -2.594,-0.575 -3.422,-1.605c-0.908,-0.989 -1.362,-2.19 -1.362,-3.603l-0.122,-0c-2.523,3.472 -5.975,5.208 -10.356,5.208c-4.704,-0.08 -8.216,-1.766 -10.538,-5.057c-2.362,-3.189 -3.543,-7.015 -3.543,-11.476c0,-4.563 1.141,-8.489 3.422,-11.78c2.261,-3.351 5.834,-5.067 10.72,-5.148c4.34,0 7.752,1.757 10.235,5.269l0.121,0l-0,-4.663l5.208,0l0,25.436Zm-14.747,2.968c1.615,-0 2.998,-0.373 4.149,-1.12c1.11,-0.707 2.039,-1.656 2.786,-2.847c1.453,-2.443 2.18,-5.128 2.18,-8.055c0,-3.27 -0.666,-6.147 -1.999,-8.63c-1.352,-2.523 -3.815,-3.825 -7.388,-3.906c-3.17,0.081 -5.481,1.362 -6.935,3.846c-1.453,2.442 -2.18,5.147 -2.18,8.115c0,3.149 0.727,5.986 2.18,8.509c1.454,2.645 3.856,4.007 7.207,4.088Z" style="fill:rgb(131,133,136);fill-rule:nonzero;"/>
            <circle cx="900.045" cy="855.149" r="59.625" style="fill:rgb(222,222,222);"/>
            <path d="M899.642,802.009c0.248,-0.143 0.553,-0.143 0.801,-0c4.261,2.46 41.159,23.763 45.42,26.223c0.248,0.143 0.4,0.408 0.4,0.694c0.001,4.92 0.003,47.527 0.003,52.447c-0,0.286 -0.153,0.551 -0.401,0.694c-4.26,2.46 -41.157,23.763 -45.417,26.223c-0.248,0.143 -0.554,0.143 -0.801,0c-4.261,-2.46 -41.16,-23.763 -45.42,-26.223c-0.248,-0.143 -0.401,-0.408 -0.401,-0.694c-0,-4.92 -0.002,-47.527 -0.002,-52.447c-0,-0.286 0.152,-0.551 0.4,-0.694c4.261,-2.46 41.157,-23.763 45.418,-26.223Z" style="fill:rgb(213,213,213);"/>
            <path d="M898.704,800.385c0.828,-0.478 1.848,-0.478 2.676,-0l45.42,26.223c0.828,0.478 1.338,1.362 1.338,2.318l0.003,52.447c-0,0.956 -0.51,1.839 -1.338,2.318l-45.418,26.223c-0.828,0.478 -1.848,0.478 -2.676,0l-45.42,-26.223c-0.828,-0.478 -1.338,-1.362 -1.338,-2.318l-0.002,-52.447c-0,-0.956 0.51,-1.84 1.338,-2.318l45.417,-26.223Zm0.938,1.624l-45.418,26.223c-0.248,0.143 -0.4,0.408 -0.4,0.694l0.002,52.447c0,0.286 0.153,0.551 0.401,0.694l45.42,26.223c0.247,0.143 0.553,0.143 0.801,0l45.417,-26.223c0.248,-0.143 0.401,-0.408 0.401,-0.694l-0.003,-52.447c0,-0.286 -0.152,-0.551 -0.4,-0.694l-45.42,-26.223c-0.248,-0.143 -0.553,-0.143 -0.801,-0Z" style="fill:rgb(169,169,169);"/>
            <ellipse cx="900.045" cy="855.149" rx="28.071" ry="28.07" style="fill:rgb(131,133,136);"/>
        </g>
        <g>
            <rect x="658.945" y="1001.26" width="482.199" height="79.707" style="fill:rgb(35,31,32);stroke:rgb(35,31,32);stroke-width:10.42px;stroke-linejoin:round;stroke-miterlimit:1.5;"/>
            <path d="M697.106,1051.26l0.861,0l6.456,-31.7l6.026,0l-7.126,35l-11.764,0l2.248,-31.7l-0.861,0l-6.456,31.7l-5.978,0l7.078,-35l11.764,0l-2.248,31.7Z" style="fill:rgb(244,244,245);fill-rule:nonzero;"/>
            <path d="M736.8,1039.06c-0,2.334 -0.319,4.492 -0.957,6.475c-0.637,1.984 -1.578,3.692 -2.821,5.125c-1.244,1.434 -2.798,2.559 -4.663,3.375c-1.865,0.817 -4.025,1.225 -6.48,1.225c-1.403,0 -2.718,-0.216 -3.945,-0.65c-1.228,-0.433 -2.304,-1.075 -3.229,-1.925c-0.924,-0.85 -1.657,-1.891 -2.199,-3.125c-0.542,-1.233 -0.813,-2.633 -0.813,-4.2c-0,-2.566 0.382,-4.858 1.147,-6.875c0.765,-2.016 1.81,-3.725 3.133,-5.125c1.323,-1.4 2.885,-2.466 4.686,-3.2c1.802,-0.733 3.739,-1.1 5.811,-1.1c1.498,0 2.885,0.242 4.161,0.725c1.275,0.484 2.367,1.159 3.275,2.025c0.909,0.867 1.619,1.917 2.129,3.15c0.51,1.234 0.765,2.6 0.765,4.1Zm-14.012,10.3c1.147,-0.033 2.207,-0.3 3.18,-0.8c0.972,-0.5 1.801,-1.158 2.487,-1.975c0.685,-0.816 1.219,-1.775 1.602,-2.875c0.382,-1.1 0.574,-2.266 0.574,-3.5c-0,-1.733 -0.447,-3.041 -1.339,-3.925c-0.893,-0.883 -2.089,-1.325 -3.587,-1.325c-1.148,0 -2.2,0.259 -3.157,0.775c-0.956,0.517 -1.785,1.2 -2.486,2.05c-0.702,0.85 -1.244,1.825 -1.626,2.925c-0.383,1.1 -0.574,2.25 -0.574,3.45c-0,1.7 0.446,2.992 1.339,3.875c0.893,0.884 2.088,1.325 3.587,1.325Z" style="fill:rgb(244,244,245);fill-rule:nonzero;"/>
            <path d="M749.808,1035.76l-6.696,0l0,-6l7.939,0l2.2,-10.9l6.026,0l-2.2,10.9l8.226,0l-0,6l-9.47,0l-2.678,12.85l0.479,0.35l6.408,-4.6l3.013,4.7l-6.935,4.9c-1.211,0.867 -2.502,1.3 -3.873,1.3c-0.702,0 -1.371,-0.125 -2.009,-0.375c-0.637,-0.25 -1.195,-0.608 -1.674,-1.075c-0.478,-0.466 -0.86,-1.033 -1.147,-1.7c-0.287,-0.666 -0.431,-1.416 -0.431,-2.25c0,-0.266 0.016,-0.508 0.048,-0.725c0.032,-0.216 0.08,-0.508 0.143,-0.875l2.631,-12.5Z" style="fill:rgb(244,244,245);fill-rule:nonzero;"/>
            <path d="M787.062,1040.16c0.064,-0.366 0.112,-0.658 0.144,-0.875c0.031,-0.216 0.047,-0.458 0.047,-0.725c0,-1.2 -0.334,-2.133 -1.004,-2.8c-0.669,-0.666 -1.578,-1 -2.726,-1c-1.626,0 -2.957,0.6 -3.993,1.8c-1.036,1.2 -1.762,2.8 -2.176,4.8l-2.678,13.2l-6.026,0l7.269,-35.7l6.026,0l-2.917,14.3l0.861,0c1.626,-2.733 3.953,-4.1 6.982,-4.1c1.977,0 3.595,0.617 4.854,1.85c1.259,1.234 1.889,3.034 1.889,5.4c-0,0.467 -0.032,0.942 -0.096,1.425c-0.064,0.484 -0.143,0.992 -0.239,1.525l-1.913,9.35l0.478,0.35l3.061,-2.2l3.013,4.7l-3.587,2.5c-1.211,0.867 -2.502,1.3 -3.873,1.3c-0.702,0 -1.371,-0.125 -2.009,-0.375c-0.638,-0.25 -1.196,-0.608 -1.674,-1.075c-0.478,-0.466 -0.861,-1.033 -1.148,-1.7c-0.287,-0.666 -0.43,-1.416 -0.43,-2.25c0,-0.433 0.064,-0.966 0.191,-1.6l1.674,-8.1Z" style="fill:rgb(244,244,245);fill-rule:nonzero;"/>
            <path d="M816.091,1053.96c-0.638,0.467 -1.291,0.8 -1.961,1c-0.669,0.2 -1.323,0.3 -1.961,0.3c-0.701,0 -1.371,-0.125 -2.008,-0.375c-0.638,-0.25 -1.196,-0.6 -1.674,-1.05c-0.478,-0.45 -0.853,-1 -1.124,-1.65c-0.271,-0.65 -0.406,-1.375 -0.406,-2.175c-0,-0.633 0.063,-1.216 0.191,-1.75l2.869,-12.55l-0.478,-0.35l-6.408,4.6l-3.013,-4.7l6.934,-4.9c0.638,-0.466 1.291,-0.8 1.961,-1c0.67,-0.2 1.323,-0.3 1.961,-0.3c0.701,0 1.371,0.125 2.008,0.375c0.638,0.25 1.196,0.6 1.674,1.05c0.478,0.45 0.853,1 1.124,1.65c0.271,0.65 0.407,1.375 0.407,2.175c-0,0.634 -0.064,1.217 -0.192,1.75l-2.869,12.55l0.478,0.35l6.408,-4.6l3.013,4.7l-6.934,4.9Zm4.161,-31.55c-0,0.667 -0.12,1.292 -0.359,1.875c-0.239,0.584 -0.566,1.084 -0.981,1.5c-0.414,0.417 -0.9,0.75 -1.458,1c-0.558,0.25 -1.14,0.375 -1.746,0.375c-0.637,0 -1.227,-0.125 -1.769,-0.375c-0.542,-0.25 -1.02,-0.583 -1.435,-1c-0.414,-0.416 -0.741,-0.916 -0.98,-1.5c-0.239,-0.583 -0.359,-1.208 -0.359,-1.875c0,-0.666 0.12,-1.291 0.359,-1.875c0.239,-0.583 0.566,-1.083 0.98,-1.5c0.415,-0.416 0.893,-0.75 1.435,-1c0.542,-0.25 1.132,-0.375 1.769,-0.375c0.606,0 1.188,0.125 1.746,0.375c0.558,0.25 1.044,0.584 1.458,1c0.415,0.417 0.742,0.917 0.981,1.5c0.239,0.584 0.359,1.209 0.359,1.875Z" style="fill:rgb(244,244,245);fill-rule:nonzero;"/>
            <path d="M845.311,1040.16c0.127,-0.633 0.191,-1.166 0.191,-1.6c0,-1.2 -0.335,-2.133 -1.004,-2.8c-0.67,-0.666 -1.578,-1 -2.726,-1c-1.435,0 -2.662,0.534 -3.682,1.6c-1.021,1.067 -1.706,2.5 -2.057,4.3l-2.821,13.9l-6.026,0l5.021,-24.8l5.787,0l-0.813,4l0.861,0c0.765,-1.666 1.777,-2.866 3.037,-3.6c1.259,-0.733 2.654,-1.1 4.184,-1.1c2.009,0 3.611,0.634 4.806,1.9c1.196,1.267 1.794,3.05 1.794,5.35c-0,0.534 -0.032,1.025 -0.096,1.475c-0.064,0.45 -0.143,0.942 -0.239,1.475l-1.913,9.35l0.478,0.35l2.057,-1.5l3.013,4.7l-2.583,1.8c-1.211,0.867 -2.503,1.3 -3.874,1.3c-0.701,0 -1.371,-0.125 -2.008,-0.375c-0.638,-0.25 -1.196,-0.6 -1.674,-1.05c-0.478,-0.45 -0.861,-1 -1.148,-1.65c-0.287,-0.65 -0.43,-1.391 -0.43,-2.225c-0,-0.433 0.048,-0.933 0.143,-1.5l1.722,-8.3Z" style="fill:rgb(244,244,245);fill-rule:nonzero;"/>
            <path d="M874.818,1050.96l-0.861,0c-0.351,0.567 -0.749,1.109 -1.195,1.625c-0.447,0.517 -0.989,0.975 -1.626,1.375c-0.638,0.4 -1.403,0.717 -2.296,0.95c-0.893,0.234 -1.929,0.35 -3.109,0.35c-1.147,0 -2.223,-0.2 -3.228,-0.6c-1.004,-0.4 -1.873,-1 -2.606,-1.8c-0.733,-0.8 -1.315,-1.808 -1.746,-3.025c-0.43,-1.216 -0.645,-2.641 -0.645,-4.275c-0,-2.066 0.295,-4.091 0.885,-6.075c0.589,-1.983 1.458,-3.75 2.606,-5.3c1.148,-1.55 2.574,-2.791 4.28,-3.725c1.706,-0.933 3.691,-1.4 5.954,-1.4c1.945,0 3.42,0.392 4.424,1.175c1.004,0.784 1.634,1.825 1.889,3.125l0.861,0l0.717,-3.6l6.026,0l-6.265,30.9c-0.255,1.134 -0.797,2.067 -1.626,2.8c-0.829,0.734 -1.786,1.1 -2.869,1.1l-14.73,0l-0,-6l12.338,0c0.861,0 1.387,-0.5 1.579,-1.5l1.243,-6.1Zm-5.978,-1.7c1.148,0 2.208,-0.25 3.18,-0.75c0.973,-0.5 1.818,-1.166 2.535,-2c0.717,-0.833 1.275,-1.8 1.674,-2.9c0.398,-1.1 0.597,-2.25 0.597,-3.45c0,-1.6 -0.446,-2.85 -1.339,-3.75c-0.892,-0.9 -2.152,-1.35 -3.778,-1.35c-1.211,0 -2.311,0.25 -3.299,0.75c-0.989,0.5 -1.826,1.159 -2.511,1.975c-0.686,0.817 -1.22,1.767 -1.602,2.85c-0.383,1.084 -0.574,2.192 -0.574,3.325c-0,1.767 0.47,3.092 1.411,3.975c0.94,0.884 2.176,1.325 3.706,1.325Z" style="fill:rgb(244,244,245);fill-rule:nonzero;"/>
            <path d="M920.776,1064.56l-6.026,0l5.883,-28.85l-0.479,-0.35l-2.199,1.7l-3.109,-4.5l2.582,-2c0.67,-0.5 1.363,-0.875 2.081,-1.125c0.717,-0.25 1.411,-0.375 2.08,-0.375c1.275,0 2.391,0.384 3.348,1.15c0.956,0.767 1.546,1.817 1.769,3.15l0.861,0c1.562,-2.866 4.113,-4.3 7.652,-4.3c1.084,0 2.12,0.217 3.108,0.65c0.989,0.434 1.857,1.067 2.607,1.9c0.749,0.834 1.339,1.859 1.769,3.075c0.431,1.217 0.646,2.609 0.646,4.175c-0,1.967 -0.231,3.934 -0.694,5.9c-0.462,1.967 -1.187,3.725 -2.176,5.275c-0.988,1.55 -2.255,2.809 -3.802,3.775c-1.546,0.967 -3.403,1.45 -5.571,1.45c-1.02,0 -1.913,-0.125 -2.678,-0.375c-0.765,-0.25 -1.419,-0.575 -1.961,-0.975c-0.542,-0.4 -0.988,-0.858 -1.339,-1.375c-0.351,-0.516 -0.59,-1.041 -0.717,-1.575l-0.861,0l-2.774,13.6Zm9.182,-15.3c1.18,0 2.216,-0.225 3.109,-0.675c0.892,-0.45 1.634,-1.075 2.224,-1.875c0.589,-0.8 1.028,-1.75 1.315,-2.85c0.287,-1.1 0.43,-2.3 0.43,-3.6c0,-1.4 -0.43,-2.616 -1.291,-3.65c-0.861,-1.033 -2.057,-1.55 -3.587,-1.55c-1.084,0 -2.056,0.225 -2.917,0.675c-0.861,0.45 -1.594,1.075 -2.2,1.875c-0.606,0.8 -1.076,1.75 -1.411,2.85c-0.335,1.1 -0.502,2.3 -0.502,3.6c0,1.567 0.43,2.825 1.291,3.775c0.861,0.95 2.041,1.425 3.539,1.425Z" style="fill:rgb(244,244,245);fill-rule:nonzero;"/>
            <path d="M967.165,1048.61l0.478,0.35l2.296,-1.7l3.012,4.7l-2.821,2c-1.244,0.867 -2.551,1.3 -3.922,1.3c-1.211,0 -2.295,-0.35 -3.252,-1.05c-0.956,-0.7 -1.562,-1.683 -1.817,-2.95l-0.861,0c-0.287,0.567 -0.622,1.092 -1.004,1.575c-0.383,0.484 -0.853,0.9 -1.411,1.25c-0.558,0.35 -1.211,0.634 -1.961,0.85c-0.749,0.217 -1.634,0.325 -2.654,0.325c-1.243,0 -2.391,-0.258 -3.443,-0.775c-1.052,-0.516 -1.969,-1.233 -2.75,-2.15c-0.781,-0.916 -1.395,-1.991 -1.841,-3.225c-0.447,-1.233 -0.67,-2.583 -0.67,-4.05c0,-2.233 0.287,-4.316 0.861,-6.25c0.574,-1.933 1.403,-3.625 2.487,-5.075c1.084,-1.45 2.415,-2.591 3.993,-3.425c1.578,-0.833 3.356,-1.25 5.332,-1.25c1.754,0 3.141,0.367 4.161,1.1c1.02,0.734 1.706,1.7 2.057,2.9l0.86,0l0.67,-3.3l6.026,0l-3.826,18.85Zm-11.573,0.65c1.147,0 2.167,-0.241 3.06,-0.725c0.893,-0.483 1.634,-1.125 2.224,-1.925c0.59,-0.8 1.044,-1.741 1.363,-2.825c0.319,-1.083 0.478,-2.225 0.478,-3.425c0,-1.566 -0.43,-2.841 -1.291,-3.825c-0.861,-0.983 -2.009,-1.475 -3.443,-1.475c-1.148,0 -2.168,0.242 -3.061,0.725c-0.893,0.484 -1.642,1.125 -2.248,1.925c-0.605,0.8 -1.068,1.742 -1.387,2.825c-0.318,1.084 -0.478,2.225 -0.478,3.425c0,1.4 0.391,2.634 1.172,3.7c0.781,1.067 1.985,1.6 3.611,1.6Z" style="fill:rgb(244,244,245);fill-rule:nonzero;"/>
            <path d="M983.951,1035.76l-6.696,0l0,-6l7.939,0l2.2,-10.9l6.026,0l-2.2,10.9l8.225,0l0,6l-9.469,0l-2.678,12.85l0.479,0.35l6.408,-4.6l3.013,4.7l-6.935,4.9c-1.211,0.867 -2.502,1.3 -3.873,1.3c-0.702,0 -1.371,-0.125 -2.009,-0.375c-0.637,-0.25 -1.195,-0.608 -1.674,-1.075c-0.478,-0.466 -0.86,-1.033 -1.147,-1.7c-0.287,-0.666 -0.431,-1.416 -0.431,-2.25c0,-0.266 0.016,-0.508 0.048,-0.725c0.032,-0.216 0.08,-0.508 0.143,-0.875l2.631,-12.5Z" style="fill:rgb(244,244,245);fill-rule:nonzero;"/>
            <path d="M1028.33,1045.46c-0.893,2.967 -2.479,5.342 -4.759,7.125c-2.279,1.784 -5.332,2.675 -9.158,2.675c-1.403,0 -2.726,-0.233 -3.969,-0.7c-1.244,-0.466 -2.328,-1.166 -3.252,-2.1c-0.925,-0.933 -1.65,-2.091 -2.176,-3.475c-0.526,-1.383 -0.789,-2.991 -0.789,-4.825c-0,-2.066 0.343,-4.016 1.028,-5.85c0.685,-1.833 1.682,-3.433 2.989,-4.8c1.307,-1.366 2.885,-2.45 4.734,-3.25c1.85,-0.8 3.954,-1.2 6.313,-1.2c1.722,0 3.236,0.267 4.543,0.8c1.308,0.534 2.392,1.259 3.252,2.175c0.861,0.917 1.515,1.992 1.961,3.225c0.446,1.234 0.67,2.534 0.67,3.9l-6.122,1.25c0,-1.7 -0.406,-3.016 -1.219,-3.95c-0.813,-0.933 -2.128,-1.4 -3.946,-1.4c-1.147,0 -2.207,0.225 -3.18,0.675c-0.972,0.45 -1.817,1.067 -2.535,1.85c-0.717,0.784 -1.275,1.7 -1.673,2.75c-0.399,1.05 -0.598,2.175 -0.598,3.375c-0,1.9 0.478,3.3 1.435,4.2c0.956,0.9 2.168,1.35 3.634,1.35c2.009,0 3.571,-0.466 4.687,-1.4c1.116,-0.933 1.961,-2.25 2.534,-3.95l5.596,1.55Z" style="fill:rgb(244,244,245);fill-rule:nonzero;"/>
            <path d="M1050.47,1040.16c0.064,-0.366 0.112,-0.658 0.143,-0.875c0.032,-0.216 0.048,-0.458 0.048,-0.725c0,-1.2 -0.334,-2.133 -1.004,-2.8c-0.67,-0.666 -1.578,-1 -2.726,-1c-1.626,0 -2.957,0.6 -3.993,1.8c-1.036,1.2 -1.762,2.8 -2.176,4.8l-2.678,13.2l-6.026,0l7.269,-35.7l6.026,0l-2.917,14.3l0.86,0c1.626,-2.733 3.954,-4.1 6.983,-4.1c1.976,0 3.594,0.617 4.854,1.85c1.259,1.234 1.889,3.034 1.889,5.4c-0,0.467 -0.032,0.942 -0.096,1.425c-0.064,0.484 -0.143,0.992 -0.239,1.525l-1.913,9.35l0.478,0.35l3.061,-2.2l3.013,4.7l-3.587,2.5c-1.211,0.867 -2.503,1.3 -3.874,1.3c-0.701,0 -1.371,-0.125 -2.008,-0.375c-0.638,-0.25 -1.196,-0.608 -1.674,-1.075c-0.478,-0.466 -0.861,-1.033 -1.148,-1.7c-0.287,-0.666 -0.43,-1.416 -0.43,-2.25c-0,-0.433 0.064,-0.966 0.191,-1.6l1.674,-8.1Z" style="fill:rgb(244,244,245);fill-rule:nonzero;"/>
            <path d="M1069.22,1044.21c-0.064,0.267 -0.096,0.55 -0.096,0.85c0,1.2 0.438,2.2 1.315,3c0.877,0.8 2.033,1.2 3.467,1.2c1.499,0 2.694,-0.283 3.587,-0.85c0.893,-0.566 1.578,-1.233 2.057,-2l4.782,3.15c-0.383,0.667 -0.885,1.334 -1.507,2c-0.621,0.667 -1.386,1.275 -2.295,1.825c-0.909,0.55 -1.977,1 -3.204,1.35c-1.228,0.35 -2.654,0.525 -4.28,0.525c-1.467,0 -2.814,-0.241 -4.041,-0.725c-1.228,-0.483 -2.28,-1.15 -3.157,-2c-0.877,-0.85 -1.562,-1.866 -2.056,-3.05c-0.494,-1.183 -0.741,-2.491 -0.741,-3.925c-0,-2.266 0.326,-4.4 0.98,-6.4c0.653,-2 1.602,-3.75 2.845,-5.25c1.244,-1.5 2.774,-2.683 4.591,-3.55c1.818,-0.866 3.906,-1.3 6.265,-1.3c1.658,0 3.101,0.275 4.328,0.825c1.228,0.55 2.24,1.284 3.037,2.2c0.797,0.917 1.395,1.959 1.793,3.125c0.399,1.167 0.598,2.367 0.598,3.6c0,0.4 -0.024,0.809 -0.072,1.225c-0.047,0.417 -0.135,0.959 -0.263,1.625l-0.526,2.55l-17.407,0Zm7.556,-9.45c-1.499,0 -2.798,0.392 -3.898,1.175c-1.1,0.784 -1.921,1.742 -2.463,2.875l11.191,0c-0,-1.266 -0.375,-2.258 -1.124,-2.975c-0.749,-0.716 -1.985,-1.075 -3.706,-1.075Z" style="fill:rgb(244,244,245);fill-rule:nonzero;"/>
            <path d="M1113.5,1048.61l0.478,0.35l2.583,-1.9l3.013,4.7l-3.109,2.2c-0.669,0.467 -1.331,0.8 -1.985,1c-0.653,0.2 -1.299,0.3 -1.936,0.3c-1.212,0 -2.296,-0.35 -3.252,-1.05c-0.957,-0.7 -1.563,-1.683 -1.818,-2.95l-0.86,0c-0.287,0.567 -0.622,1.092 -1.005,1.575c-0.382,0.484 -0.853,0.9 -1.411,1.25c-0.557,0.35 -1.211,0.634 -1.96,0.85c-0.75,0.217 -1.634,0.325 -2.654,0.325c-1.244,0 -2.392,-0.258 -3.444,-0.775c-1.052,-0.516 -1.968,-1.233 -2.75,-2.15c-0.781,-0.916 -1.394,-1.991 -1.841,-3.225c-0.446,-1.233 -0.669,-2.583 -0.669,-4.05c-0,-2.233 0.287,-4.316 0.861,-6.25c0.573,-1.933 1.402,-3.625 2.486,-5.075c1.084,-1.45 2.415,-2.591 3.994,-3.425c1.578,-0.833 3.355,-1.25 5.332,-1.25c1.69,0 3.061,0.4 4.113,1.2c1.052,0.8 1.737,1.834 2.056,3.1l0.861,0l2.917,-14.5l6.074,0l-2.965,14.5l-3.109,15.25Zm-11.573,0.65c1.148,0 2.168,-0.241 3.061,-0.725c0.892,-0.483 1.634,-1.125 2.223,-1.925c0.59,-0.8 1.044,-1.741 1.363,-2.825c0.319,-1.083 0.479,-2.225 0.479,-3.425c-0,-1.566 -0.431,-2.841 -1.292,-3.825c-0.861,-0.983 -2.008,-1.475 -3.443,-1.475c-1.148,0 -2.168,0.242 -3.061,0.725c-0.892,0.484 -1.642,1.125 -2.247,1.925c-0.606,0.8 -1.068,1.742 -1.387,2.825c-0.319,1.084 -0.478,2.225 -0.478,3.425c-0,1.4 0.39,2.634 1.171,3.7c0.781,1.067 1.985,1.6 3.611,1.6Z" style="fill:rgb(244,244,245);fill-rule:nonzero;"/>
        </g>
        <path d="M911.372,687.917c-0.08,1.777 0.495,2.645 1.726,2.605c0.747,-0 1.313,-0.132 1.696,-0.394l0,4.784c-0.464,0.162 -1.07,0.263 -1.817,0.303c-0.787,0.081 -1.443,0.121 -1.968,0.121c-1.454,-0.04 -2.594,-0.575 -3.422,-1.604c-0.908,-0.99 -1.362,-2.191 -1.362,-3.604l-0.122,0c-2.523,3.472 -5.975,5.208 -10.356,5.208c-4.704,-0.08 -8.216,-1.766 -10.538,-5.057c-2.362,-3.189 -3.543,-7.015 -3.543,-11.476c0,-4.563 1.141,-8.489 3.422,-11.78c2.261,-3.351 5.834,-5.067 10.72,-5.147c4.34,-0 7.752,1.756 10.235,5.268l0.121,0l-0,-4.663l5.208,0l0,25.436Zm-14.747,2.968c1.615,0 2.998,-0.373 4.149,-1.12c1.11,-0.707 2.039,-1.656 2.786,-2.847c1.453,-2.443 2.18,-5.127 2.18,-8.055c0,-3.27 -0.666,-6.147 -1.999,-8.63c-1.352,-2.523 -3.815,-3.825 -7.388,-3.906c-3.17,0.081 -5.481,1.363 -6.935,3.846c-1.453,2.442 -2.18,5.147 -2.18,8.115c0,3.149 0.727,5.986 2.18,8.509c1.454,2.645 3.856,4.007 7.207,4.088Z" style="fill:rgb(131,133,136);fill-rule:nonzero;"/>
    </g>
    <defs>
        <linearGradient id="_Linear1" x1="0" y1="0" x2="1" y2="0" gradientUnits="userSpaceOnUse" gradientTransform="matrix(468.262,0,0,442.146,665.914,425.217)"><stop offset="0" style="stop-color:rgb(145,120,199);stop-opacity:1"/><stop offset="0.21" style="stop-color:rgb(145,120,199);stop-opacity:1"/><stop offset="0.84" style="stop-color:rgb(118,188,194);stop-opacity:1"/><stop offset="1" style="stop-color:rgb(124,192,198);stop-opacity:1"/></linearGradient>
        <linearGradient id="_Linear2" x1="0" y1="0" x2="1" y2="0" gradientUnits="userSpaceOnUse" gradientTransform="matrix(468.262,0,0,442.146,665.914,425.217)"><stop offset="0" style="stop-color:rgb(145,120,199);stop-opacity:1"/><stop offset="0.21" style="stop-color:rgb(145,120,199);stop-opacity:1"/><stop offset="0.84" style="stop-color:rgb(118,188,194);stop-opacity:1"/><stop offset="1" style="stop-color:rgb(124,192,198);stop-opacity:1"/></linearGradient>
        <linearGradient id="_Linear3" x1="0" y1="0" x2="1" y2="0" gradientUnits="userSpaceOnUse" gradientTransform="matrix(514.472,0,0,480.707,642.809,420.59)"><stop offset="0" style="stop-color:rgb(145,120,199);stop-opacity:1"/><stop offset="0.21" style="stop-color:rgb(145,120,199);stop-opacity:1"/><stop offset="0.84" style="stop-color:rgb(118,188,194);stop-opacity:1"/><stop offset="1" style="stop-color:rgb(124,192,198);stop-opacity:1"/></linearGradient>
    </defs>
</svg>
