<?xml version="1.0" encoding="UTF-8" standalone="no"?>
<!DOCTYPE svg PUBLIC "-//W3C//DTD SVG 1.1//EN" "http://www.w3.org/Graphics/SVG/1.1/DTD/svg11.dtd">
<svg width="100%" height="100%" viewBox="0 0 1800 1201" version="1.1" xmlns="http://www.w3.org/2000/svg" xmlns:xlink="http://www.w3.org/1999/xlink" xml:space="preserve" xmlns:serif="http://www.serif.com/" style="fill-rule:evenodd;clip-rule:evenodd;stroke-linecap:round;stroke-miterlimit:10;">
    <rect id="_9---Fine" serif:id="9 - Fine" x="0" y="0.891" width="1800" height="1200" style="fill:none;"/>
    <g id="_9---Fine1" serif:id="9 - Fine">
        <path d="M764.855,607.119l21.165,-6.35l-6.35,-21.165" style="fill:none;stroke:url(#_Linear1);stroke-width:10.42px;"/>
        <path d="M1035.14,607.119l-21.165,-6.35l6.35,-21.165" style="fill:none;stroke:url(#_Linear2);stroke-width:10.42px;"/>
        <path d="M786.02,600.769c-71.657,-40.051 -120.151,-116.668 -120.151,-204.523c-0,-129.221 104.911,-234.131 234.131,-234.131c129.22,-0 234.131,104.91 234.131,234.131c0,87.855 -48.494,164.472 -120.151,204.523" style="fill:none;stroke:url(#_Linear3);stroke-width:10.42px;stroke-linejoin:round;stroke-miterlimit:1.5;"/>
        <g id="Large-MXR" serif:id="Large MXR">
            <circle cx="900" cy="395.443" r="188.193" style="fill:rgb(131,133,136);"/>
            <rect x="892.136" y="254.521" width="15.728" height="131.341" style="fill:white;"/>
            <circle cx="900" cy="225.299" r="7.864" style="fill:white;"/>
        </g>
        <g>
            <rect x="467.934" y="632.821" width="299.493" height="79.707" style="fill:rgb(230,33,109);stroke:rgb(230,33,109);stroke-width:10.42px;stroke-linejoin:round;stroke-miterlimit:1.5;"/>
            <rect x="488.633" y="674.174" width="14.921" height="5.7" style="fill:rgb(244,244,245);fill-rule:nonzero;"/>
            <path d="M520.866,684.474l5.165,-25.4l-0.861,0l-5.595,12l-6.313,0l0,-0.6l7.413,-14.7l12.338,0l-5.834,28.7l8.273,0l0,6.3l-24.055,0l0,-6.3l9.469,0Z" style="fill:rgb(244,244,245);fill-rule:nonzero;"/>
            <path d="M595.949,675.274c-0,2.334 -0.319,4.492 -0.957,6.475c-0.637,1.984 -1.578,3.692 -2.821,5.125c-1.244,1.434 -2.798,2.559 -4.663,3.375c-1.865,0.817 -4.025,1.225 -6.48,1.225c-1.403,0 -2.718,-0.216 -3.945,-0.65c-1.228,-0.433 -2.304,-1.075 -3.229,-1.925c-0.924,-0.85 -1.657,-1.891 -2.199,-3.125c-0.542,-1.233 -0.813,-2.633 -0.813,-4.2c-0,-2.566 0.382,-4.858 1.147,-6.875c0.766,-2.016 1.81,-3.725 3.133,-5.125c1.323,-1.4 2.885,-2.466 4.686,-3.2c1.802,-0.733 3.739,-1.1 5.811,-1.1c1.498,0 2.885,0.242 4.161,0.725c1.275,0.484 2.367,1.159 3.276,2.025c0.908,0.867 1.618,1.917 2.128,3.15c0.51,1.234 0.765,2.6 0.765,4.1Zm-14.012,10.3c1.147,-0.033 2.207,-0.3 3.18,-0.8c0.972,-0.5 1.801,-1.158 2.487,-1.975c0.685,-0.816 1.219,-1.775 1.602,-2.875c0.382,-1.1 0.574,-2.266 0.574,-3.5c-0,-1.733 -0.447,-3.041 -1.339,-3.925c-0.893,-0.883 -2.089,-1.325 -3.587,-1.325c-1.148,0 -2.2,0.259 -3.156,0.775c-0.957,0.517 -1.786,1.2 -2.487,2.05c-0.702,0.85 -1.244,1.825 -1.626,2.925c-0.383,1.1 -0.574,2.25 -0.574,3.45c-0,1.7 0.446,2.992 1.339,3.875c0.893,0.884 2.088,1.325 3.587,1.325Z" style="fill:rgb(244,244,245);fill-rule:nonzero;"/>
            <path d="M624.069,681.674c-0.893,2.967 -2.479,5.342 -4.758,7.125c-2.28,1.784 -5.333,2.675 -9.159,2.675c-1.402,0 -2.726,-0.233 -3.969,-0.7c-1.243,-0.466 -2.327,-1.166 -3.252,-2.1c-0.925,-0.933 -1.65,-2.091 -2.176,-3.475c-0.526,-1.383 -0.789,-2.991 -0.789,-4.825c0,-2.066 0.343,-4.016 1.028,-5.85c0.686,-1.833 1.682,-3.433 2.989,-4.8c1.307,-1.366 2.886,-2.45 4.735,-3.25c1.849,-0.8 3.953,-1.2 6.312,-1.2c1.722,0 3.236,0.267 4.544,0.8c1.307,0.534 2.391,1.259 3.252,2.175c0.86,0.917 1.514,1.992 1.96,3.225c0.447,1.234 0.67,2.534 0.67,3.9l-6.122,1.25c0,-1.7 -0.406,-3.016 -1.219,-3.95c-0.813,-0.933 -2.128,-1.4 -3.945,-1.4c-1.148,0 -2.208,0.225 -3.181,0.675c-0.972,0.45 -1.817,1.067 -2.534,1.85c-0.718,0.784 -1.276,1.7 -1.674,2.75c-0.399,1.05 -0.598,2.175 -0.598,3.375c0,1.9 0.478,3.3 1.435,4.2c0.956,0.9 2.168,1.35 3.634,1.35c2.009,0 3.571,-0.466 4.687,-1.4c1.116,-0.933 1.961,-2.25 2.535,-3.95l5.595,1.55Z" style="fill:rgb(244,244,245);fill-rule:nonzero;"/>
            <path d="M638.225,671.974l-6.696,0l0,-6l7.939,0l2.2,-10.9l6.026,0l-2.2,10.9l8.225,0l0,6l-9.469,0l-2.678,12.85l0.479,0.35l6.408,-4.6l3.013,4.7l-6.935,4.9c-1.211,0.867 -2.502,1.3 -3.873,1.3c-0.702,0 -1.371,-0.125 -2.009,-0.375c-0.638,-0.25 -1.195,-0.608 -1.674,-1.075c-0.478,-0.466 -0.861,-1.033 -1.147,-1.7c-0.287,-0.666 -0.431,-1.416 -0.431,-2.25c0,-0.266 0.016,-0.508 0.048,-0.725c0.032,-0.216 0.08,-0.508 0.143,-0.875l2.631,-12.5Z" style="fill:rgb(244,244,245);fill-rule:nonzero;"/>
            <path d="M679.974,684.824l0.479,0.35l2.295,-1.7l3.013,4.7l-2.822,2c-1.243,0.867 -2.55,1.3 -3.921,1.3c-1.212,0 -2.296,-0.35 -3.252,-1.05c-0.956,-0.7 -1.562,-1.683 -1.817,-2.95l-0.861,0c-0.287,0.567 -0.622,1.092 -1.004,1.575c-0.383,0.484 -0.853,0.9 -1.411,1.25c-0.558,0.35 -1.212,0.634 -1.961,0.85c-0.749,0.217 -1.634,0.325 -2.654,0.325c-1.244,0 -2.391,-0.258 -3.443,-0.775c-1.053,-0.516 -1.969,-1.233 -2.75,-2.15c-0.781,-0.916 -1.395,-1.991 -1.841,-3.225c-0.447,-1.233 -0.67,-2.583 -0.67,-4.05c0,-2.233 0.287,-4.316 0.861,-6.25c0.574,-1.933 1.403,-3.625 2.487,-5.075c1.084,-1.45 2.415,-2.591 3.993,-3.425c1.578,-0.833 3.355,-1.25 5.332,-1.25c1.754,0 3.141,0.367 4.161,1.1c1.02,0.734 1.706,1.7 2.056,2.9l0.861,0l0.67,-3.3l6.025,0l-3.826,18.85Zm-11.573,0.65c1.148,0 2.168,-0.241 3.061,-0.725c0.893,-0.483 1.634,-1.125 2.224,-1.925c0.589,-0.8 1.044,-1.741 1.363,-2.825c0.318,-1.083 0.478,-2.225 0.478,-3.425c-0,-1.566 -0.431,-2.841 -1.291,-3.825c-0.861,-0.983 -2.009,-1.475 -3.444,-1.475c-1.147,0 -2.168,0.242 -3.06,0.725c-0.893,0.484 -1.642,1.125 -2.248,1.925c-0.606,0.8 -1.068,1.742 -1.387,2.825c-0.319,1.084 -0.478,2.225 -0.478,3.425c-0,1.4 0.39,2.634 1.172,3.7c0.781,1.067 1.984,1.6 3.61,1.6Z" style="fill:rgb(244,244,245);fill-rule:nonzero;"/>
            <path d="M692.791,672.074l-0.574,-0.2l-1.865,2.45l-4.161,-3.55l2.248,-3c0.638,-0.833 1.379,-1.458 2.224,-1.875c0.845,-0.416 1.73,-0.625 2.654,-0.625c0.67,0 1.323,0.117 1.961,0.35c0.638,0.234 1.203,0.575 1.698,1.025c0.494,0.45 0.9,1.025 1.219,1.725c0.319,0.7 0.51,1.5 0.574,2.4l1.004,17l0.861,0l9.66,-22.2l5.404,2.75l-10.042,22.45l-11.621,0l-1.244,-18.7Z" style="fill:rgb(244,244,245);fill-rule:nonzero;"/>
            <path d="M723.494,680.424c-0.064,0.267 -0.096,0.55 -0.096,0.85c0,1.2 0.438,2.2 1.315,3c0.877,0.8 2.033,1.2 3.467,1.2c1.499,0 2.694,-0.283 3.587,-0.85c0.893,-0.566 1.578,-1.233 2.057,-2l4.782,3.15c-0.383,0.667 -0.885,1.334 -1.507,2c-0.621,0.667 -1.386,1.275 -2.295,1.825c-0.909,0.55 -1.977,1 -3.204,1.35c-1.228,0.35 -2.654,0.525 -4.28,0.525c-1.467,0 -2.814,-0.241 -4.042,-0.725c-1.227,-0.483 -2.279,-1.15 -3.156,-2c-0.877,-0.85 -1.562,-1.866 -2.056,-3.05c-0.494,-1.183 -0.742,-2.491 -0.742,-3.925c0,-2.266 0.327,-4.4 0.981,-6.4c0.653,-2 1.602,-3.75 2.845,-5.25c1.244,-1.5 2.774,-2.683 4.591,-3.55c1.818,-0.866 3.906,-1.3 6.265,-1.3c1.658,0 3.101,0.275 4.328,0.825c1.228,0.55 2.24,1.284 3.037,2.2c0.797,0.917 1.395,1.959 1.793,3.125c0.399,1.167 0.598,2.367 0.598,3.6c0,0.4 -0.024,0.809 -0.072,1.225c-0.047,0.417 -0.135,0.959 -0.263,1.625l-0.526,2.55l-17.407,0Zm7.556,-9.45c-1.499,0 -2.798,0.392 -3.898,1.175c-1.1,0.784 -1.921,1.742 -2.463,2.875l11.191,0c-0,-1.266 -0.375,-2.258 -1.124,-2.975c-0.749,-0.716 -1.985,-1.075 -3.706,-1.075Z" style="fill:rgb(244,244,245);fill-rule:nonzero;"/>
        </g>
        <g>
            <rect x="1032.57" y="632.821" width="299.493" height="79.707" style="fill:rgb(64,140,148);stroke:rgb(64,140,148);stroke-width:10.42px;stroke-linejoin:round;stroke-miterlimit:1.5;"/>
            <path d="M1057.18,670.424l7.891,0l1.53,-7.6l5.452,0l-1.53,7.6l6.647,0l-0,5.7l-7.843,0l-1.53,7.6l-5.452,0l1.53,-7.6l-6.695,0l-0,-5.7Z" style="fill:rgb(244,244,245);fill-rule:nonzero;"/>
            <path d="M1092,684.474l5.165,-25.4l-0.861,0l-5.595,12l-6.313,0l0,-0.6l7.413,-14.7l12.338,0l-5.834,28.7l8.273,0l0,6.3l-24.055,0l0,-6.3l9.469,0Z" style="fill:rgb(244,244,245);fill-rule:nonzero;"/>
            <path d="M1167.08,675.274c-0,2.334 -0.319,4.492 -0.957,6.475c-0.637,1.984 -1.578,3.692 -2.821,5.125c-1.244,1.434 -2.798,2.559 -4.663,3.375c-1.865,0.817 -4.025,1.225 -6.48,1.225c-1.403,0 -2.718,-0.216 -3.945,-0.65c-1.228,-0.433 -2.304,-1.075 -3.229,-1.925c-0.924,-0.85 -1.657,-1.891 -2.199,-3.125c-0.542,-1.233 -0.813,-2.633 -0.813,-4.2c-0,-2.566 0.382,-4.858 1.147,-6.875c0.766,-2.016 1.81,-3.725 3.133,-5.125c1.323,-1.4 2.885,-2.466 4.686,-3.2c1.802,-0.733 3.739,-1.1 5.811,-1.1c1.498,0 2.885,0.242 4.161,0.725c1.275,0.484 2.367,1.159 3.276,2.025c0.908,0.867 1.618,1.917 2.128,3.15c0.51,1.234 0.765,2.6 0.765,4.1Zm-14.012,10.3c1.147,-0.033 2.207,-0.3 3.18,-0.8c0.972,-0.5 1.801,-1.158 2.487,-1.975c0.685,-0.816 1.219,-1.775 1.602,-2.875c0.382,-1.1 0.574,-2.266 0.574,-3.5c-0,-1.733 -0.447,-3.041 -1.339,-3.925c-0.893,-0.883 -2.089,-1.325 -3.587,-1.325c-1.148,0 -2.2,0.259 -3.157,0.775c-0.956,0.517 -1.785,1.2 -2.486,2.05c-0.702,0.85 -1.244,1.825 -1.626,2.925c-0.383,1.1 -0.574,2.25 -0.574,3.45c-0,1.7 0.446,2.992 1.339,3.875c0.893,0.884 2.088,1.325 3.587,1.325Z" style="fill:rgb(244,244,245);fill-rule:nonzero;"/>
            <path d="M1195.2,681.674c-0.893,2.967 -2.479,5.342 -4.758,7.125c-2.28,1.784 -5.333,2.675 -9.159,2.675c-1.402,0 -2.726,-0.233 -3.969,-0.7c-1.243,-0.466 -2.327,-1.166 -3.252,-2.1c-0.925,-0.933 -1.65,-2.091 -2.176,-3.475c-0.526,-1.383 -0.789,-2.991 -0.789,-4.825c-0,-2.066 0.343,-4.016 1.028,-5.85c0.686,-1.833 1.682,-3.433 2.989,-4.8c1.307,-1.366 2.885,-2.45 4.735,-3.25c1.849,-0.8 3.953,-1.2 6.312,-1.2c1.722,0 3.236,0.267 4.544,0.8c1.307,0.534 2.391,1.259 3.252,2.175c0.86,0.917 1.514,1.992 1.96,3.225c0.447,1.234 0.67,2.534 0.67,3.9l-6.122,1.25c0,-1.7 -0.406,-3.016 -1.219,-3.95c-0.813,-0.933 -2.128,-1.4 -3.945,-1.4c-1.148,0 -2.208,0.225 -3.181,0.675c-0.972,0.45 -1.817,1.067 -2.534,1.85c-0.718,0.784 -1.276,1.7 -1.674,2.75c-0.399,1.05 -0.598,2.175 -0.598,3.375c0,1.9 0.478,3.3 1.435,4.2c0.956,0.9 2.168,1.35 3.634,1.35c2.009,0 3.571,-0.466 4.687,-1.4c1.116,-0.933 1.961,-2.25 2.535,-3.95l5.595,1.55Z" style="fill:rgb(244,244,245);fill-rule:nonzero;"/>
            <path d="M1209.35,671.974l-6.696,0l0,-6l7.939,0l2.2,-10.9l6.026,0l-2.2,10.9l8.225,0l0,6l-9.469,0l-2.678,12.85l0.479,0.35l6.408,-4.6l3.013,4.7l-6.935,4.9c-1.211,0.867 -2.502,1.3 -3.873,1.3c-0.702,0 -1.371,-0.125 -2.009,-0.375c-0.638,-0.25 -1.196,-0.608 -1.674,-1.075c-0.478,-0.466 -0.861,-1.033 -1.148,-1.7c-0.286,-0.666 -0.43,-1.416 -0.43,-2.25c0,-0.266 0.016,-0.508 0.048,-0.725c0.032,-0.216 0.08,-0.508 0.143,-0.875l2.631,-12.5Z" style="fill:rgb(244,244,245);fill-rule:nonzero;"/>
            <path d="M1251.1,684.824l0.479,0.35l2.295,-1.7l3.013,4.7l-2.822,2c-1.243,0.867 -2.55,1.3 -3.921,1.3c-1.212,0 -2.296,-0.35 -3.252,-1.05c-0.957,-0.7 -1.562,-1.683 -1.817,-2.95l-0.861,0c-0.287,0.567 -0.622,1.092 -1.004,1.575c-0.383,0.484 -0.853,0.9 -1.411,1.25c-0.558,0.35 -1.212,0.634 -1.961,0.85c-0.749,0.217 -1.634,0.325 -2.654,0.325c-1.244,0 -2.391,-0.258 -3.443,-0.775c-1.053,-0.516 -1.969,-1.233 -2.75,-2.15c-0.781,-0.916 -1.395,-1.991 -1.841,-3.225c-0.447,-1.233 -0.67,-2.583 -0.67,-4.05c-0,-2.233 0.287,-4.316 0.861,-6.25c0.574,-1.933 1.403,-3.625 2.487,-5.075c1.084,-1.45 2.415,-2.591 3.993,-3.425c1.578,-0.833 3.355,-1.25 5.332,-1.25c1.754,0 3.141,0.367 4.161,1.1c1.02,0.734 1.705,1.7 2.056,2.9l0.861,0l0.67,-3.3l6.025,0l-3.826,18.85Zm-11.573,0.65c1.148,0 2.168,-0.241 3.061,-0.725c0.893,-0.483 1.634,-1.125 2.224,-1.925c0.589,-0.8 1.044,-1.741 1.363,-2.825c0.318,-1.083 0.478,-2.225 0.478,-3.425c-0,-1.566 -0.431,-2.841 -1.291,-3.825c-0.861,-0.983 -2.009,-1.475 -3.444,-1.475c-1.147,0 -2.168,0.242 -3.06,0.725c-0.893,0.484 -1.642,1.125 -2.248,1.925c-0.606,0.8 -1.068,1.742 -1.387,2.825c-0.319,1.084 -0.478,2.225 -0.478,3.425c-0,1.4 0.39,2.634 1.172,3.7c0.781,1.067 1.984,1.6 3.61,1.6Z" style="fill:rgb(244,244,245);fill-rule:nonzero;"/>
            <path d="M1263.92,672.074l-0.574,-0.2l-1.865,2.45l-4.161,-3.55l2.248,-3c0.638,-0.833 1.379,-1.458 2.224,-1.875c0.845,-0.416 1.73,-0.625 2.654,-0.625c0.67,0 1.323,0.117 1.961,0.35c0.638,0.234 1.203,0.575 1.698,1.025c0.494,0.45 0.9,1.025 1.219,1.725c0.319,0.7 0.51,1.5 0.574,2.4l1.004,17l0.861,0l9.66,-22.2l5.404,2.75l-10.042,22.45l-11.622,0l-1.243,-18.7Z" style="fill:rgb(244,244,245);fill-rule:nonzero;"/>
            <path d="M1294.62,680.424c-0.064,0.267 -0.096,0.55 -0.096,0.85c-0,1.2 0.438,2.2 1.315,3c0.877,0.8 2.033,1.2 3.467,1.2c1.499,0 2.694,-0.283 3.587,-0.85c0.893,-0.566 1.578,-1.233 2.056,-2l4.783,3.15c-0.383,0.667 -0.885,1.334 -1.507,2c-0.621,0.667 -1.387,1.275 -2.295,1.825c-0.909,0.55 -1.977,1 -3.204,1.35c-1.228,0.35 -2.655,0.525 -4.281,0.525c-1.466,0 -2.813,-0.241 -4.041,-0.725c-1.227,-0.483 -2.279,-1.15 -3.156,-2c-0.877,-0.85 -1.562,-1.866 -2.056,-3.05c-0.494,-1.183 -0.742,-2.491 -0.742,-3.925c0,-2.266 0.327,-4.4 0.981,-6.4c0.653,-2 1.602,-3.75 2.845,-5.25c1.244,-1.5 2.774,-2.683 4.591,-3.55c1.818,-0.866 3.906,-1.3 6.265,-1.3c1.658,0 3.101,0.275 4.328,0.825c1.228,0.55 2.24,1.284 3.037,2.2c0.797,0.917 1.395,1.959 1.793,3.125c0.399,1.167 0.598,2.367 0.598,3.6c0,0.4 -0.024,0.809 -0.072,1.225c-0.047,0.417 -0.135,0.959 -0.263,1.625l-0.526,2.55l-17.407,0Zm7.556,-9.45c-1.499,0 -2.798,0.392 -3.898,1.175c-1.1,0.784 -1.921,1.742 -2.463,2.875l11.191,0c-0,-1.266 -0.375,-2.258 -1.124,-2.975c-0.749,-0.716 -1.985,-1.075 -3.706,-1.075Z" style="fill:rgb(244,244,245);fill-rule:nonzero;"/>
        </g>
        <g>
            <path d="M832.738,910.84c-0.081,1.777 0.494,2.645 1.726,2.604c0.747,0 1.312,-0.131 1.696,-0.393l-0,4.784c-0.465,0.162 -1.07,0.263 -1.817,0.303c-0.788,0.081 -1.444,0.121 -1.969,0.121c-1.453,-0.04 -2.594,-0.575 -3.421,-1.605c-0.909,-0.989 -1.363,-2.19 -1.363,-3.603l-0.121,-0c-2.524,3.472 -5.976,5.208 -10.356,5.208c-4.704,-0.081 -8.217,-1.766 -10.538,-5.057c-2.362,-3.189 -3.543,-7.015 -3.543,-11.476c-0,-4.563 1.14,-8.489 3.422,-11.78c2.261,-3.351 5.834,-5.067 10.719,-5.148c4.34,0 7.752,1.757 10.235,5.269l0.121,0l0,-4.663l5.209,-0l-0,25.436Zm-14.747,2.968c1.615,-0 2.998,-0.374 4.148,-1.121c1.111,-0.706 2.039,-1.655 2.786,-2.846c1.454,-2.443 2.18,-5.128 2.18,-8.055c0,-3.27 -0.666,-6.147 -1.998,-8.63c-1.353,-2.524 -3.816,-3.826 -7.389,-3.906c-3.169,0.08 -5.481,1.362 -6.934,3.845c-1.454,2.443 -2.181,5.148 -2.181,8.116c0,3.149 0.727,5.985 2.181,8.509c1.453,2.644 3.856,4.007 7.207,4.088Z" style="fill:rgb(131,133,136);fill-rule:nonzero;"/>
            <circle cx="821.41" cy="813.853" r="59.625" style="fill:rgb(222,222,222);"/>
            <path d="M821.007,760.713c0.248,-0.144 0.553,-0.144 0.801,-0c4.261,2.46 41.16,23.763 45.42,26.223c0.248,0.143 0.401,0.408 0.401,0.694c0,4.92 0.002,47.527 0.002,52.447c0,0.286 -0.152,0.551 -0.4,0.694c-4.261,2.46 -41.157,23.763 -45.418,26.223c-0.248,0.143 -0.553,0.143 -0.801,0c-4.261,-2.46 -41.16,-23.764 -45.42,-26.223c-0.248,-0.143 -0.401,-0.408 -0.401,-0.694c0,-4.92 -0.002,-47.527 -0.002,-52.447c-0,-0.286 0.153,-0.551 0.401,-0.694c4.26,-2.46 41.157,-23.763 45.417,-26.223Z" style="fill:rgb(213,213,213);"/>
            <path d="M820.07,759.089c0.828,-0.478 1.848,-0.478 2.676,-0l45.42,26.223c0.828,0.478 1.338,1.362 1.338,2.318l0.002,52.447c0,0.956 -0.51,1.839 -1.338,2.317l-45.417,26.224c-0.828,0.478 -1.849,0.478 -2.677,-0l-45.42,-26.224c-0.828,-0.478 -1.338,-1.361 -1.338,-2.317l-0.002,-52.447c-0,-0.956 0.51,-1.84 1.338,-2.318l45.418,-26.223Zm0.937,1.624l-45.417,26.223c-0.248,0.143 -0.401,0.408 -0.401,0.694l0.002,52.447c0,0.286 0.153,0.551 0.401,0.694l45.42,26.223c0.248,0.143 0.553,0.143 0.801,0l45.418,-26.223c0.248,-0.143 0.4,-0.408 0.4,-0.694l-0.002,-52.447c-0,-0.286 -0.153,-0.551 -0.401,-0.694l-45.42,-26.223c-0.248,-0.144 -0.553,-0.144 -0.801,-0Z" style="fill:rgb(169,169,169);"/>
            <ellipse cx="821.41" cy="813.853" rx="28.071" ry="28.07" style="fill:rgb(131,133,136);"/>
        </g>
        <g>
            <path d="M968.448,929.796l-5.511,0l-0,-42.515c-0,-9.508 4.673,-14.353 14.02,-14.535c3.674,0 6.733,0.909 9.175,2.726c2.443,1.877 3.685,4.552 3.725,8.024c-0.04,5.451 -2.564,8.943 -7.57,10.478l-0,0.121c6.318,0.989 9.528,4.683 9.629,11.083c-0.04,3.775 -1.161,6.884 -3.361,9.326c-2.281,2.463 -5.36,3.715 -9.236,3.755c-2.362,0 -4.35,-0.343 -5.965,-1.029c-1.656,-0.707 -3.291,-1.948 -4.906,-3.725l0,16.291Zm0.091,-27.101c-0,1.453 0.141,2.846 0.424,4.178c0.282,1.272 0.757,2.443 1.423,3.513c0.707,1.05 1.696,1.857 2.968,2.423c1.251,0.666 2.846,0.999 4.784,0.999c2.604,-0 4.633,-0.848 6.087,-2.544c1.393,-1.615 2.089,-3.704 2.089,-6.268c-0.04,-3.048 -0.989,-5.219 -2.846,-6.511c-1.858,-1.191 -4.169,-1.786 -6.935,-1.786c-1.05,0.04 -2.109,0.101 -3.179,0.182l-0,-4.664c0.908,0 1.776,-0.02 2.604,-0.06c2.321,-0.041 4.29,-0.677 5.905,-1.908c1.574,-1.211 2.382,-3.159 2.422,-5.844c-0.121,-4.785 -2.665,-7.177 -7.631,-7.177c-2.866,0.04 -4.936,0.888 -6.207,2.544c-1.272,1.695 -1.908,3.987 -1.908,6.873l-0,16.05Z" style="fill:rgb(131,133,136);fill-rule:nonzero;"/>
            <circle cx="978.59" cy="813.853" r="59.625" style="fill:rgb(222,222,222);"/>
            <path d="M978.187,760.713c0.248,-0.144 0.553,-0.144 0.801,-0c4.261,2.46 41.16,23.763 45.42,26.223c0.248,0.143 0.401,0.408 0.401,0.694c-0,4.92 0.002,47.527 0.002,52.447c0,0.286 -0.153,0.551 -0.401,0.694c-4.26,2.46 -41.157,23.763 -45.417,26.223c-0.248,0.143 -0.553,0.143 -0.801,0c-4.261,-2.46 -41.16,-23.764 -45.42,-26.223c-0.248,-0.143 -0.401,-0.408 -0.401,-0.694c-0,-4.92 -0.002,-47.527 -0.002,-52.447c-0,-0.286 0.152,-0.551 0.4,-0.694c4.261,-2.46 41.157,-23.763 45.418,-26.223Z" style="fill:rgb(213,213,213);"/>
            <path d="M977.249,759.089c0.828,-0.478 1.849,-0.478 2.677,-0l45.42,26.223c0.828,0.478 1.338,1.362 1.338,2.318l0.002,52.447c0,0.956 -0.51,1.839 -1.338,2.317l-45.418,26.224c-0.828,0.478 -1.848,0.478 -2.676,-0l-45.42,-26.224c-0.828,-0.478 -1.338,-1.361 -1.338,-2.317l-0.002,-52.447c-0,-0.956 0.51,-1.84 1.338,-2.318l45.417,-26.223Zm0.938,1.624l-45.418,26.223c-0.248,0.143 -0.4,0.408 -0.4,0.694l0.002,52.447c0,0.286 0.153,0.551 0.401,0.694l45.42,26.223c0.248,0.143 0.553,0.143 0.801,0l45.417,-26.223c0.248,-0.143 0.401,-0.408 0.401,-0.694l-0.002,-52.447c-0,-0.286 -0.153,-0.551 -0.401,-0.694l-45.42,-26.223c-0.248,-0.144 -0.553,-0.144 -0.801,-0Z" style="fill:rgb(169,169,169);"/>
            <ellipse cx="978.59" cy="813.853" rx="28.071" ry="28.07" style="fill:rgb(131,133,136);"/>
        </g>
        <g>
            <rect x="767.427" y="959.96" width="265.145" height="79.707" style="fill:rgb(35,31,32);stroke:rgb(35,31,32);stroke-width:10.42px;stroke-linejoin:round;stroke-miterlimit:1.5;"/>
            <path d="M806.912,999.813c-0,-1.133 0.398,-2.117 1.195,-2.95c0.798,-0.833 1.738,-1.25 2.822,-1.25c1.084,0 2.025,0.417 2.822,1.25c0.797,0.833 1.195,1.817 1.195,2.95c0,1.133 -0.398,2.117 -1.195,2.95c-0.797,0.833 -1.738,1.25 -2.822,1.25c-1.084,0 -2.024,-0.417 -2.822,-1.25c-0.797,-0.833 -1.195,-1.817 -1.195,-2.95Zm-7.556,-3.9c0.988,-4.933 2.694,-8.55 5.117,-10.85c2.423,-2.3 5.675,-3.45 9.756,-3.45c1.594,0 3.021,0.283 4.28,0.85c1.259,0.567 2.319,1.342 3.18,2.325c0.861,0.983 1.523,2.142 1.985,3.475c0.462,1.333 0.693,2.767 0.693,4.3c0,1.167 -0.111,2.283 -0.334,3.35l-1.579,7.8c-0.988,4.933 -2.694,8.55 -5.117,10.85c-2.423,2.3 -5.675,3.45 -9.756,3.45c-1.594,0 -3.02,-0.283 -4.28,-0.85c-1.259,-0.567 -2.319,-1.342 -3.18,-2.325c-0.861,-0.983 -1.522,-2.142 -1.985,-3.475c-0.462,-1.333 -0.693,-2.767 -0.693,-4.3c-0,-1.167 0.111,-2.283 0.335,-3.35l1.578,-7.8Zm9.182,16.1c2.104,0 3.754,-0.7 4.95,-2.1c1.195,-1.4 2.016,-3.2 2.463,-5.4l1.865,-9c0.191,-0.9 0.287,-1.75 0.287,-2.55c-0,-1.633 -0.399,-2.933 -1.196,-3.9c-0.797,-0.967 -2.009,-1.45 -3.635,-1.45c-2.104,0 -3.754,0.7 -4.949,2.1c-1.196,1.4 -2.017,3.2 -2.463,5.4l-1.865,9c-0.192,0.9 -0.287,1.75 -0.287,2.55c-0,1.633 0.398,2.933 1.195,3.9c0.797,0.967 2.009,1.45 3.635,1.45Z" style="fill:rgb(244,244,245);fill-rule:nonzero;"/>
            <path d="M828.385,982.313l6.408,0l1.1,31.7l0.861,0l12.864,-31.7l6.6,0l-0,0.6l-14.443,34.4l-11.764,0l-1.626,-35Z" style="fill:rgb(244,244,245);fill-rule:nonzero;"/>
            <rect x="891.224" y="1000.71" width="14.921" height="5.7" style="fill:rgb(244,244,245);fill-rule:nonzero;"/>
            <path d="M963.916,992.213c0.032,-0.167 0.048,-0.292 0.048,-0.375l-0,-0.325c-0,-0.933 -0.327,-1.767 -0.981,-2.5c-0.653,-0.733 -1.729,-1.1 -3.228,-1.1c-1.913,0 -3.427,0.525 -4.543,1.575c-1.116,1.05 -1.849,2.425 -2.2,4.125l-0.908,4.5l0.86,0c0.734,-1.3 1.714,-2.275 2.941,-2.925c1.228,-0.65 2.543,-0.975 3.946,-0.975c1.18,0 2.287,0.217 3.324,0.65c1.036,0.433 1.944,1.05 2.726,1.85c0.781,0.8 1.394,1.792 1.841,2.975c0.446,1.183 0.669,2.525 0.669,4.025c0,1.967 -0.303,3.817 -0.908,5.55c-0.606,1.733 -1.491,3.25 -2.655,4.55c-1.163,1.3 -2.614,2.325 -4.351,3.075c-1.738,0.75 -3.739,1.125 -6.002,1.125c-1.531,0 -2.933,-0.225 -4.209,-0.675c-1.275,-0.45 -2.375,-1.092 -3.3,-1.925c-0.924,-0.833 -1.642,-1.858 -2.152,-3.075c-0.51,-1.217 -0.765,-2.592 -0.765,-4.125c0,-0.9 0.096,-1.883 0.287,-2.95l2.487,-12.5c0.319,-1.667 0.869,-3.183 1.65,-4.55c0.781,-1.367 1.745,-2.542 2.893,-3.525c1.148,-0.983 2.455,-1.742 3.922,-2.275c1.466,-0.533 3.06,-0.8 4.782,-0.8c1.69,0 3.172,0.233 4.448,0.7c1.275,0.467 2.343,1.108 3.204,1.925c0.861,0.817 1.514,1.767 1.96,2.85c0.447,1.083 0.67,2.225 0.67,3.425c0,0.533 -0.048,1.1 -0.143,1.7l-6.313,0Zm-8.465,19.5c0.733,0 1.483,-0.133 2.248,-0.4c0.765,-0.267 1.45,-0.667 2.056,-1.2c0.606,-0.533 1.1,-1.208 1.483,-2.025c0.382,-0.817 0.574,-1.775 0.574,-2.875c-0,-1.3 -0.431,-2.408 -1.292,-3.325c-0.86,-0.917 -2.104,-1.375 -3.73,-1.375c-0.924,0 -1.777,0.15 -2.558,0.45c-0.781,0.3 -1.459,0.725 -2.033,1.275c-0.574,0.55 -1.028,1.233 -1.363,2.05c-0.335,0.817 -0.502,1.742 -0.502,2.775c0,1.5 0.478,2.65 1.435,3.45c0.956,0.8 2.184,1.2 3.682,1.2Z" style="fill:rgb(244,244,245);fill-rule:nonzero;"/>
            <path d="M974.724,982.313l6.408,0l1.1,31.7l0.861,0l12.864,-31.7l6.6,0l0,0.6l-14.443,34.4l-11.764,0l-1.626,-35Z" style="fill:rgb(244,244,245);fill-rule:nonzero;"/>
        </g>
    </g>
    <defs>
        <linearGradient id="_Linear1" x1="0" y1="0" x2="1" y2="0" gradientUnits="userSpaceOnUse" gradientTransform="matrix(468.262,0,0,468.262,665.869,383.188)"><stop offset="0" style="stop-color:rgb(230,33,109);stop-opacity:1"/><stop offset="0.24" style="stop-color:rgb(238,62,128);stop-opacity:1"/><stop offset="0.77" style="stop-color:rgb(118,188,194);stop-opacity:1"/><stop offset="1" style="stop-color:rgb(124,192,198);stop-opacity:1"/></linearGradient>
        <linearGradient id="_Linear2" x1="0" y1="0" x2="1" y2="0" gradientUnits="userSpaceOnUse" gradientTransform="matrix(468.262,0,0,468.262,665.869,383.188)"><stop offset="0" style="stop-color:rgb(230,33,109);stop-opacity:1"/><stop offset="0.24" style="stop-color:rgb(238,62,128);stop-opacity:1"/><stop offset="0.77" style="stop-color:rgb(118,188,194);stop-opacity:1"/><stop offset="1" style="stop-color:rgb(124,192,198);stop-opacity:1"/></linearGradient>
        <linearGradient id="_Linear3" x1="0" y1="0" x2="1" y2="0" gradientUnits="userSpaceOnUse" gradientTransform="matrix(468.262,0,0,468.262,665.869,383.188)"><stop offset="0" style="stop-color:rgb(230,33,109);stop-opacity:1"/><stop offset="0.24" style="stop-color:rgb(238,62,128);stop-opacity:1"/><stop offset="0.77" style="stop-color:rgb(118,188,194);stop-opacity:1"/><stop offset="1" style="stop-color:rgb(124,192,198);stop-opacity:1"/></linearGradient>
    </defs>
</svg>
