<?xml version="1.0" encoding="UTF-8" standalone="no"?>
<!DOCTYPE svg PUBLIC "-//W3C//DTD SVG 1.1//EN" "http://www.w3.org/Graphics/SVG/1.1/DTD/svg11.dtd">
<svg width="100%" height="100%" viewBox="0 0 1800 1201" version="1.1" xmlns="http://www.w3.org/2000/svg" xmlns:xlink="http://www.w3.org/1999/xlink" xml:space="preserve" xmlns:serif="http://www.serif.com/" style="fill-rule:evenodd;clip-rule:evenodd;stroke-linecap:round;stroke-linejoin:round;stroke-miterlimit:1.5;">
    <rect id="_9---Patch-3" serif:id="9 - Patch 3" x="0" y="0.474" width="1800" height="1200" style="fill:none;"/>
    <clipPath id="_clip1">
        <rect id="_9---Patch-31" serif:id="9 - Patch 3" x="0" y="0.474" width="1800" height="1200"/>
    </clipPath>
    <g clip-path="url(#_clip1)">
        <g id="Base">
            <rect id="Outline" x="617.357" y="87.485" width="565.286" height="1025.98" style="fill:none;stroke:rgb(12,12,12);stroke-width:4.17px;"/>
            <path id="Mounting-holes" serif:id="Mounting holes" d="M693.207,1089.51c0,-7.712 -6.26,-13.973 -13.972,-13.973l-3.992,0c-7.712,0 -13.973,6.261 -13.973,13.973c0,7.712 6.261,13.972 13.973,13.972l3.992,0c7.712,0 13.972,-6.26 13.972,-13.972Zm0,-978.073c0,-7.712 -6.26,-13.973 -13.972,-13.973l-3.992,0c-7.712,0 -13.973,6.261 -13.973,13.973c0,7.712 6.261,13.972 13.973,13.972l3.992,0c7.712,0 13.972,-6.26 13.972,-13.972Zm446.161,978.073c0,-7.712 -6.26,-13.973 -13.972,-13.973l-3.992,0c-7.712,0 -13.973,6.261 -13.973,13.973c0,7.712 6.261,13.972 13.973,13.972l3.992,0c7.712,0 13.972,-6.26 13.972,-13.972Zm0,-978.073c0,-7.712 -6.26,-13.973 -13.972,-13.973l-3.992,0c-7.712,0 -13.973,6.261 -13.973,13.973c0,7.712 6.261,13.972 13.973,13.972l3.992,0c7.712,0 13.972,-6.26 13.972,-13.972Z" style="fill:rgb(213,213,213);"/>
            <g id="Legend">
                <path d="M685.538,1038.19c-0.051,1.13 0.315,1.682 1.098,1.656c0.475,0 0.834,-0.083 1.078,-0.25l-0,3.042c-0.295,0.103 -0.68,0.167 -1.155,0.193c-0.501,0.051 -0.918,0.077 -1.252,0.077c-0.924,-0.026 -1.649,-0.366 -2.176,-1.021c-0.577,-0.629 -0.866,-1.393 -0.866,-2.291l-0.077,-0c-1.605,2.208 -3.8,3.312 -6.585,3.312c-2.991,-0.052 -5.225,-1.124 -6.701,-3.216c-1.502,-2.028 -2.253,-4.461 -2.253,-7.297c0,-2.901 0.726,-5.398 2.176,-7.49c1.438,-2.131 3.71,-3.222 6.816,-3.274c2.76,0 4.93,1.117 6.508,3.351l0.077,-0l0,-2.966l3.312,0l0,16.174Zm-9.377,1.887c1.027,0 1.906,-0.237 2.638,-0.712c0.706,-0.449 1.297,-1.053 1.772,-1.81c0.924,-1.553 1.386,-3.261 1.386,-5.122c-0,-2.079 -0.424,-3.909 -1.271,-5.487c-0.86,-1.605 -2.426,-2.433 -4.698,-2.484c-2.015,0.051 -3.485,0.866 -4.409,2.445c-0.925,1.553 -1.387,3.273 -1.387,5.16c0,2.003 0.462,3.806 1.387,5.411c0.924,1.681 2.451,2.548 4.582,2.599Z" style="fill:rgb(131,133,136);fill-rule:nonzero;"/>
                <path d="M673.895,363.514c-0.059,1.291 0.359,1.921 1.254,1.892c0.543,0 0.954,-0.095 1.232,-0.286l0,3.477c-0.337,0.117 -0.777,0.191 -1.32,0.22c-0.572,0.059 -1.049,0.088 -1.43,0.088c-1.056,-0.029 -1.885,-0.418 -2.487,-1.166c-0.66,-0.719 -0.99,-1.592 -0.99,-2.619l-0.088,-0c-1.834,2.523 -4.342,3.785 -7.526,3.785c-3.418,-0.059 -5.971,-1.284 -7.658,-3.675c-1.716,-2.318 -2.574,-5.098 -2.574,-8.34c-0,-3.315 0.829,-6.169 2.486,-8.56c1.643,-2.435 4.24,-3.682 7.79,-3.741c3.154,0 5.634,1.276 7.438,3.829l0.088,0l-0,-3.389l3.785,0l-0,18.485Zm-10.717,2.156c1.174,0 2.179,-0.271 3.015,-0.814c0.807,-0.514 1.482,-1.203 2.025,-2.069c1.056,-1.775 1.584,-3.726 1.584,-5.853c-0,-2.377 -0.484,-4.467 -1.452,-6.271c-0.983,-1.834 -2.773,-2.78 -5.37,-2.839c-2.303,0.059 -3.983,0.99 -5.039,2.795c-1.056,1.775 -1.584,3.74 -1.584,5.897c-0,2.288 0.528,4.35 1.584,6.183c1.056,1.922 2.802,2.912 5.237,2.971Z" style="fill:rgb(131,133,136);fill-rule:nonzero;"/>
                <path d="M1113.95,1058.81l-3.504,-0l-0,-27.033c-0,-6.046 2.971,-9.127 8.915,-9.243c2.336,0 4.281,0.578 5.834,1.733c1.553,1.194 2.343,2.895 2.368,5.103c-0.025,3.466 -1.63,5.686 -4.813,6.662l-0,0.077c4.017,0.629 6.058,2.978 6.123,7.047c-0.026,2.4 -0.739,4.377 -2.138,5.93c-1.45,1.566 -3.408,2.362 -5.872,2.388c-1.502,-0 -2.767,-0.218 -3.794,-0.655c-1.052,-0.449 -2.092,-1.238 -3.119,-2.368l0,10.359Zm0.058,-17.233c-0,0.924 0.09,1.81 0.27,2.657c0.179,0.809 0.481,1.553 0.904,2.234c0.45,0.667 1.079,1.181 1.887,1.54c0.796,0.424 1.81,0.636 3.043,0.636c1.656,-0 2.946,-0.54 3.87,-1.618c0.886,-1.027 1.328,-2.355 1.328,-3.986c-0.025,-1.938 -0.629,-3.318 -1.81,-4.139c-1.18,-0.758 -2.65,-1.136 -4.409,-1.136c-0.667,0.025 -1.341,0.064 -2.022,0.115l0,-2.965c0.578,0 1.13,-0.013 1.656,-0.038c1.477,-0.026 2.728,-0.43 3.755,-1.214c1.001,-0.77 1.515,-2.008 1.54,-3.716c-0.077,-3.042 -1.694,-4.563 -4.852,-4.563c-1.823,0.026 -3.138,0.565 -3.947,1.617c-0.809,1.079 -1.213,2.536 -1.213,4.371l-0,10.205Z" style="fill:rgb(131,133,136);fill-rule:nonzero;"/>
                <path d="M1124.39,378.642l-4.005,0l-0,-30.895c-0,-6.91 3.396,-10.431 10.188,-10.563c2.67,0 4.893,0.66 6.668,1.981c1.775,1.364 2.677,3.308 2.706,5.831c-0.029,3.961 -1.863,6.499 -5.501,7.614l0,0.088c4.592,0.719 6.924,3.404 6.998,8.054c-0.03,2.743 -0.844,5.002 -2.443,6.778c-1.658,1.789 -3.895,2.699 -6.711,2.728c-1.717,0 -3.162,-0.249 -4.335,-0.748c-1.203,-0.513 -2.392,-1.416 -3.565,-2.707l-0,11.839Zm0.066,-19.694c-0,1.056 0.102,2.068 0.308,3.036c0.205,0.924 0.55,1.775 1.034,2.553c0.513,0.763 1.232,1.35 2.157,1.76c0.909,0.484 2.068,0.726 3.476,0.726c1.893,0 3.367,-0.616 4.423,-1.848c1.013,-1.174 1.519,-2.692 1.519,-4.555c-0.03,-2.215 -0.719,-3.792 -2.069,-4.731c-1.349,-0.866 -3.029,-1.299 -5.039,-1.299c-0.763,0.03 -1.533,0.074 -2.31,0.133l-0,-3.389c0.66,-0 1.291,-0.015 1.892,-0.044c1.687,-0.03 3.117,-0.492 4.291,-1.387c1.144,-0.88 1.731,-2.296 1.76,-4.247c-0.088,-3.476 -1.936,-5.215 -5.545,-5.215c-2.083,0.029 -3.587,0.646 -4.511,1.849c-0.924,1.232 -1.386,2.897 -1.386,4.995l-0,11.663Z" style="fill:rgb(131,133,136);fill-rule:nonzero;"/>
                <path d="M902.399,511.922c2.655,-0.088 4.687,-0.91 6.095,-2.465c1.379,-1.599 2.069,-3.66 2.069,-6.183c-0.03,-5.399 -2.751,-8.34 -8.164,-8.824l-0,17.472Zm-4.049,3.521c-3.507,-0.059 -6.433,-1.137 -8.78,-3.235c-2.406,-2.083 -3.639,-4.907 -3.697,-8.472c-0,-3.844 1.107,-6.925 3.322,-9.242c2.201,-2.348 5.252,-3.536 9.155,-3.565l-0,-3.653l4.049,-0l-0,3.653c3.946,0.029 7.012,1.217 9.198,3.565c2.171,2.317 3.271,5.398 3.301,9.242c-0.059,3.565 -1.277,6.389 -3.653,8.472c-2.348,2.098 -5.296,3.176 -8.846,3.235l-0,3.652l-4.049,0l-0,-3.652Zm-0,-20.993c-5.443,0.484 -8.164,3.425 -8.164,8.824c-0,2.523 0.726,4.584 2.178,6.183c1.379,1.555 3.374,2.377 5.986,2.465l-0,-17.472Z" style="fill:rgb(131,133,136);fill-rule:nonzero;"/>
                <g>
                    <path d="M726.829,584.345l-19.82,0.06l-0.125,-17.109l-6.689,-0l0,17.049" style="fill:none;stroke:rgb(131,133,136);stroke-width:6.25px;"/>
                    <path d="M721.836,570.366l4.03,4.03l-4.03,4.03" style="fill:none;stroke:rgb(131,133,136);stroke-width:4.23px;stroke-linejoin:miter;stroke-miterlimit:10;"/>
                    <path d="M707.062,574.396l18.804,-0" style="fill:none;stroke:rgb(131,133,136);stroke-width:4.23px;stroke-dasharray:0.04,5.07,0,0;stroke-dashoffset:21.13;"/>
                </g>
                <g>
                    <path d="M1072.93,584.345l19.82,0.06l0.126,-17.109l6.688,-0l0,17.049" style="fill:none;stroke:rgb(131,133,136);stroke-width:6.25px;"/>
                    <path d="M1077.92,578.426l-4.029,-4.03l4.029,-4.03" style="fill:none;stroke:rgb(131,133,136);stroke-width:4.23px;stroke-linejoin:miter;stroke-miterlimit:10;"/>
                    <path d="M1092.7,574.396l-18.803,-0" style="fill:none;stroke:rgb(131,133,136);stroke-width:4.23px;stroke-dasharray:0.04,5.07,0,0;stroke-dashoffset:21.13;"/>
                </g>
                <path d="M905.028,681.237l0,-0.374l-7.988,-10.716l13.688,-0l-0,-5.018l-22.094,0l0,3.345l9.859,12.565l-9.859,12.785l0,3.323l22.732,0l-0,-4.929l-14.436,-0l8.098,-10.981Z" style="fill:rgb(131,133,136);fill-rule:nonzero;"/>
                <path d="M788.917,1021.73l-2.893,7.701l-7.264,-0l6.14,4.62l-2.956,7.764l6.973,-5.245l6.993,5.245l-2.976,-7.764l6.14,-4.62l-7.285,-0l-2.872,-7.701Z" style="fill:rgb(131,133,136);fill-rule:nonzero;"/>
                <path d="M1008.96,1020.37l-3.284,8.743l-8.247,-0l6.971,5.246l-3.356,8.814l7.916,-5.955l7.94,5.955l-3.379,-8.814l6.971,-5.246l-8.271,-0l-3.261,-8.743Zm0,3.166l2.482,6.687l5.742,0l-4.986,3.758l2.316,6.025l-5.554,-4.159l-5.553,4.159l2.316,-6.025l-4.986,-3.758l5.719,0l2.504,-6.687Z" style="fill:rgb(131,133,136);fill-rule:nonzero;"/>
                <path d="M894.81,1024.7c-1.497,-0.198 -3.01,-0.528 -4.539,-0.99l-0,-1.98c3.103,0.803 6.354,1.204 9.754,1.204c3.4,0 6.634,-0.401 9.704,-1.204l0,2.013c-1.573,0.429 -3.103,0.748 -4.588,0.957l-0,14.128c1.485,0.209 3.015,0.522 4.588,0.94l0,2.047c-3.07,-0.814 -6.304,-1.221 -9.704,-1.221c-3.4,-0 -6.651,0.407 -9.754,1.221l-0,-1.981c1.529,-0.484 3.042,-0.819 4.539,-1.006l-0,-14.128Zm2.046,13.979c2.079,-0.231 4.159,-0.231 6.238,0l0,-13.83c-2.079,0.231 -4.159,0.231 -6.238,-0l-0,13.83Z" style="fill:rgb(131,133,136);fill-rule:nonzero;"/>
                <path d="M967.578,1088.14c-4.385,0.296 -6.232,3.205 -7.214,6.269c-0.863,2.695 -1.83,5.477 -2.883,6.907c-0.584,0.794 -1.235,1.201 -1.868,1.201c-0.629,0 -1.089,-0.331 -1.384,-0.954c-0.449,-0.947 -0.438,-2.803 -0.319,-4.661c0.094,-1.457 0.237,-2.915 0.175,-3.848c-0.009,-0.135 -0.038,-0.288 -0.063,-0.402c-0.054,0.029 -0.108,0.067 -0.164,0.109c-0.207,0.156 -0.411,0.381 -0.618,0.65c-0.719,0.934 -1.43,2.348 -2.102,3.576c-0.574,1.048 -1.132,1.965 -1.629,2.426c-0.338,0.313 -0.681,0.452 -0.989,0.452c-0.581,0 -0.998,-0.354 -1.159,-1.093c-0.206,-0.945 0.081,-2.799 0.418,-4.651c0.267,-1.467 0.555,-2.933 0.566,-3.872c0.001,-0.12 -0.012,-0.254 -0.026,-0.36c-0.08,0.048 -0.16,0.118 -0.246,0.197c-0.259,0.239 -0.517,0.585 -0.779,0.998c-0.87,1.375 -1.735,3.457 -2.525,5.266c-0.65,1.488 -1.258,2.798 -1.768,3.453c-0.367,0.471 -0.758,0.66 -1.065,0.66c-0.58,-0 -0.978,-0.302 -1.207,-0.864c-0.313,-0.771 -0.196,-2.284 0.026,-3.797c0.138,-0.938 0.303,-1.877 0.373,-2.599c0.017,-0.178 0.02,-0.377 0.017,-0.54c-0.052,0.026 -0.108,0.054 -0.167,0.084c-0.479,0.242 -1.095,0.632 -1.795,1.063c-1.226,0.756 -2.695,1.621 -4.152,2.132c-0.297,1.175 -0.776,2.292 -1.407,3.163c-0.839,1.157 -1.945,1.886 -3.232,1.886c-1.133,0 -1.838,-0.575 -2.285,-1.392c-0.377,-0.688 -0.553,-1.571 -0.661,-2.357c-0.048,-0.355 -0.113,-0.778 -0.159,-1.068c-0.232,0.1 -0.543,0.238 -0.824,0.371c-0.494,0.234 -1.071,0.493 -1.69,0.702c-0.261,1.228 -0.709,2.397 -1.311,3.305c-0.793,1.196 -1.856,1.942 -3.081,1.942c-1.089,0 -1.803,-0.605 -2.264,-1.488c-0.383,-0.734 -0.579,-1.675 -0.701,-2.513c-0.052,-0.358 -0.091,-0.695 -0.129,-0.982c-0.148,0.171 -0.306,0.372 -0.474,0.585c-0.498,0.629 -1.079,1.347 -1.731,1.825c-0.517,0.379 -1.079,0.613 -1.676,0.613c-1.073,0 -1.91,-0.522 -2.521,-1.427c-0.503,-0.745 -0.846,-1.776 -1.036,-2.967c-0.877,0.64 -1.851,1.195 -2.803,1.701c-0.004,0.124 -0.012,0.248 -0.024,0.371c-0.127,1.327 -0.761,2.78 -1.573,3.73c-0.627,0.735 -1.372,1.164 -2.07,1.164c-0.364,0 -0.788,-0.141 -1.16,-0.413c-0.53,-0.387 -0.949,-1.031 -0.949,-1.796c-0,-0.771 0.582,-1.515 1.615,-2.195c0.773,-0.508 1.812,-1.014 2.915,-1.579c-0.069,-0.747 -0.295,-1.467 -0.659,-1.991c-0.273,-0.393 -0.623,-0.675 -1.064,-0.675c-1.367,0 -2.274,0.793 -2.926,1.794c-0.73,1.122 -1.15,2.506 -1.469,3.541c-0.222,0.721 -0.412,1.292 -0.593,1.573c-0.22,0.342 -0.497,0.45 -0.732,0.45c-0.125,0 -0.26,-0.033 -0.392,-0.132c-0.082,-0.062 -0.224,-0.217 -0.318,-0.511c-0.147,-0.459 -0.329,-1.594 -0.476,-3.115c-0.586,0.938 -1.163,1.794 -1.705,2.526c-0.861,1.164 -1.645,2.022 -2.238,2.436c-0.371,0.259 -0.706,0.367 -0.968,0.367c-1.146,0 -1.788,-0.804 -1.987,-2.151c-0.224,-1.522 0.134,-3.826 0.482,-5.829c0.176,-1.017 0.347,-1.953 0.42,-2.651c0.02,-0.188 0.023,-0.399 0.022,-0.557c-0.529,0.044 -1.105,0.169 -1.689,0.296c-0.389,2.129 -1.582,4.679 -3.139,6.52c-1.316,1.555 -2.898,2.589 -4.448,2.589c-1.877,-0 -3.235,-0.733 -4.158,-1.859c-1.167,0.977 -2.459,1.584 -3.745,1.584c-1.357,0 -2.486,-1.031 -3.267,-2.806c-0.257,-0.584 -0.48,-1.25 -0.669,-1.979c-0.606,1.225 -1.219,2.338 -1.811,3.271c-0.708,1.113 -1.394,1.975 -2.005,2.492c-0.522,0.441 -1.022,0.646 -1.45,0.646c-0.93,-0 -1.588,-0.632 -1.954,-1.765c-0.415,-1.284 -0.47,-3.29 -0.449,-5.296c0.02,-1.9 0.103,-3.799 -0.056,-5.014c-0.035,-0.274 -0.082,-0.508 -0.151,-0.688c-0.011,-0.03 -0.029,-0.065 -0.045,-0.094c-0.039,0.026 -0.076,0.068 -0.12,0.11c-0.17,0.162 -0.335,0.398 -0.503,0.686c-0.592,1.012 -1.171,2.594 -1.743,4.175c-0.702,1.944 -1.398,3.885 -2.06,4.876c-0.427,0.639 -0.913,0.929 -1.326,0.929c-0.476,0 -0.886,-0.292 -1.119,-0.932c-0.297,-0.82 -0.316,-2.425 -0.305,-4.031c0.008,-1.26 0.029,-2.52 -0.119,-3.326c-0.025,-0.134 -0.08,-0.292 -0.115,-0.386c-0.281,0.061 -0.517,0.304 -0.759,0.612c-0.602,0.765 -1.125,1.964 -1.679,3.158c-0.604,1.303 -1.244,2.601 -2.004,3.435c-0.612,0.672 -1.308,1.062 -2.096,1.062c-1.256,-0 -1.932,-0.891 -2.088,-2.461c-0.18,-1.8 0.329,-4.615 0.819,-7.428c0.176,-1.01 0.351,-2.02 0.483,-2.977c-0.226,0.044 -0.461,0.066 -0.706,0.066c-2.558,0 -3.341,-2.393 -2.858,-4.35c0.335,-1.356 1.287,-2.416 2.508,-2.416c1.399,-0 2.153,0.892 2.413,2.418c0.093,0.549 0.117,1.192 0.091,1.9c0.086,-0.118 0.167,-0.242 0.243,-0.372c0.621,-1.056 0.947,-2.466 0.99,-3.874c0.042,-1.405 -0.197,-2.812 -0.743,-3.865c-0.476,-0.919 -1.189,-1.563 -2.186,-1.563c-1.67,0 -3.06,0.997 -4.134,2.552c-1.738,2.517 -2.649,6.469 -2.505,10.477c0.185,5.164 1.295,10.426 0.689,13.117c-0.193,0.858 -0.557,1.489 -1.092,1.869c-0.379,0.27 -0.849,0.424 -1.434,0.424c-1.01,0 -1.887,-0.622 -2.608,-1.642c-0.916,-1.295 -1.603,-3.25 -2.153,-4.954c-0.345,-1.072 -0.635,-2.036 -0.905,-2.636c-0.01,-0.024 -0.022,-0.049 -0.035,-0.074l-0.031,0.044c-0.322,0.483 -0.685,1.26 -1.083,2.123c-0.75,1.626 -1.618,3.531 -2.512,4.531c-0.511,0.572 -1.06,0.871 -1.584,0.871c-0.615,-0 -1.146,-0.419 -1.459,-1.321c-0.484,-1.392 -0.532,-4.184 -0.498,-7.347c0.042,-3.908 0.186,-8.402 -0.39,-11.372c-0.176,-0.907 -0.413,-1.662 -0.762,-2.187c-0.259,-0.389 -0.578,-0.634 -1.005,-0.634c-0.739,0 -1.253,0.635 -1.667,1.487c-0.765,1.571 -1.09,3.921 -1.053,5.847c0.061,3.193 1.142,5.223 1.142,5.223c0.16,0.299 0.049,0.671 -0.25,0.832c-0.299,0.161 -0.671,0.049 -0.832,-0.249c-0,-0 -1.221,-2.244 -1.289,-5.783c-0.04,-2.112 0.338,-4.685 1.177,-6.408c0.654,-1.344 1.607,-2.178 2.772,-2.178c1.302,0 2.225,1.027 2.739,2.823c0.64,2.237 0.715,5.732 0.687,9.227c-0.032,3.943 -0.197,7.887 0.271,9.898c0.067,0.286 0.144,0.528 0.245,0.712c0.055,0.101 0.084,0.201 0.172,0.201c0.128,0 0.246,-0.077 0.372,-0.177c0.211,-0.166 0.416,-0.408 0.621,-0.696c0.71,-0.995 1.383,-2.505 1.987,-3.815c0.51,-1.104 0.981,-2.075 1.375,-2.561c0.315,-0.389 0.654,-0.537 0.921,-0.537c0.246,0 0.543,0.121 0.795,0.477c0.253,0.358 0.532,1.086 0.832,2.004c0.536,1.641 1.19,3.942 2.141,5.518c0.52,0.861 1.095,1.525 1.867,1.525c0.593,-0 0.954,-0.298 1.165,-0.808c0.187,-0.45 0.274,-1.03 0.307,-1.709c0.139,-2.843 -0.707,-7.267 -0.863,-11.621c-0.154,-4.296 0.859,-8.522 2.722,-11.219c1.326,-1.921 3.083,-3.082 5.145,-3.082c1.193,-0 2.141,0.572 2.834,1.509c0.93,1.259 1.382,3.219 1.323,5.185c-0.059,1.96 -0.626,3.915 -1.651,5.17c-0.285,0.35 -0.605,0.648 -0.959,0.883c-0.138,1.18 -0.349,2.453 -0.571,3.725c-0.468,2.688 -0.979,5.375 -0.808,7.095c0.078,0.782 0.241,1.354 0.866,1.354c0.597,0 1.06,-0.447 1.499,-1.044c0.55,-0.747 1.025,-1.745 1.487,-2.741c0.598,-1.29 1.178,-2.575 1.827,-3.401c0.555,-0.704 1.182,-1.095 1.862,-1.095c0.454,-0 0.862,0.291 1.075,0.954c0.263,0.815 0.261,2.411 0.25,4.009c-0.008,1.254 -0.018,2.508 0.152,3.31c0.024,0.112 0.071,0.241 0.109,0.334c0.01,-0.008 0.019,-0.017 0.027,-0.026c0.153,-0.163 0.303,-0.401 0.459,-0.691c0.547,-1.017 1.106,-2.606 1.68,-4.195c0.706,-1.954 1.442,-3.903 2.178,-4.899c0.453,-0.614 0.956,-0.906 1.414,-0.906c0.476,0 0.882,0.279 1.122,0.907c0.308,0.805 0.343,2.42 0.317,4.25c-0.031,2.177 -0.129,4.681 0.234,6.336c0.084,0.382 0.19,0.714 0.338,0.972c0.14,0.244 0.312,0.415 0.573,0.415c0.202,-0 0.411,-0.149 0.657,-0.356c0.541,-0.457 1.135,-1.229 1.761,-2.212c0.797,-1.256 1.633,-2.847 2.437,-4.597c-0.28,-1.727 -0.412,-3.65 -0.402,-5.573c0.008,-1.439 0.097,-2.877 0.262,-4.234c-3.47,0.193 -5.198,0.494 -5.198,0.494c-0.267,0.047 -0.522,-0.132 -0.569,-0.399c-0.047,-0.267 0.132,-0.522 0.4,-0.569c-0,0 1.828,-0.321 5.503,-0.518c0.34,-2.218 0.893,-4.144 1.63,-5.386c0.669,-1.124 1.513,-1.725 2.435,-1.725c0.792,0 1.346,0.489 1.58,1.468c0.242,1.011 0.115,2.678 -0.307,4.689c-0.055,0.263 -0.115,0.532 -0.179,0.806c2.329,-0.014 5.042,0.033 8.139,0.184c0.271,0.013 0.48,0.244 0.467,0.515c-0.013,0.271 -0.244,0.48 -0.515,0.467c-3.192,-0.156 -5.97,-0.2 -8.336,-0.181c-0.829,3.168 -2.176,6.888 -3.64,10.13c0.222,1.256 0.532,2.387 0.935,3.302c0.54,1.228 1.203,2.072 2.142,2.072c1.064,-0 2.112,-0.557 3.067,-1.39c-0.882,-1.696 -1.089,-3.883 -0.802,-5.843c0.227,-1.552 0.762,-2.943 1.468,-3.812c0.566,-0.696 1.249,-1.077 1.975,-1.077c0.784,-0 1.367,0.249 1.785,0.655c0.583,0.566 0.854,1.485 0.793,2.611c-0.123,2.25 -1.564,5.408 -3.565,7.569l-0.085,0.09c0.719,0.893 1.779,1.471 3.267,1.471c1.05,0 2.085,-0.662 3.02,-1.615c1.522,-1.553 2.752,-3.904 3.247,-5.948l0.014,-0.061c-0.306,0.045 -0.605,0.074 -0.891,0.074c-1.946,0 -2.706,-1.713 -2.397,-3.093c0.216,-0.966 0.939,-1.753 2.094,-1.753c0.781,-0 1.367,0.252 1.792,0.667c0.579,0.564 0.866,1.475 0.843,2.591c0.677,-0.147 1.34,-0.283 1.926,-0.283c0.318,-0 0.575,0.144 0.736,0.481c0.089,0.187 0.146,0.502 0.131,0.923c-0.025,0.742 -0.241,1.934 -0.471,3.259c-0.324,1.87 -0.685,4.019 -0.476,5.44c0.091,0.618 0.245,1.101 0.771,1.101c0.031,0 0.062,-0.024 0.102,-0.045c0.112,-0.059 0.235,-0.147 0.368,-0.26c0.492,-0.412 1.09,-1.11 1.749,-2c0.792,-1.072 1.664,-2.416 2.528,-3.896c-0.262,-4.332 -0.182,-10.219 1.062,-13.477c0.667,-1.748 1.7,-2.771 3.038,-2.771c0.64,-0 1.131,0.189 1.5,0.51c0.36,0.312 0.61,0.76 0.738,1.334c0.207,0.929 0.085,2.241 -0.304,3.77c-0.81,3.191 -2.759,7.395 -4.785,10.922c0.009,0.136 0.018,0.27 0.028,0.402c0.075,1.027 0.167,1.936 0.262,2.66c0.344,-1.112 0.81,-2.548 1.575,-3.725c0.874,-1.343 2.123,-2.353 3.956,-2.353c0.84,0 1.555,0.455 2.074,1.203c0.39,0.562 0.666,1.298 0.802,2.083c0.964,-0.528 1.921,-1.117 2.742,-1.807c-0.014,-0.233 -0.022,-0.47 -0.027,-0.709c-0.06,-3.528 0.89,-7.668 2.371,-9.837c0.749,-1.097 1.654,-1.71 2.602,-1.71c0.548,0 0.965,0.175 1.274,0.464c0.414,0.387 0.644,1.022 0.633,1.854c-0.033,2.518 -2.326,7.192 -5.377,10.252c-0.067,0.067 -0.136,0.134 -0.205,0.199c0.099,1.03 0.308,1.957 0.65,2.686c0.392,0.837 0.957,1.399 1.79,1.399c0.443,0 0.837,-0.258 1.206,-0.582c0.46,-0.405 0.871,-0.927 1.237,-1.39c0.404,-0.51 0.767,-0.952 1.072,-1.176c0.244,-0.18 0.482,-0.255 0.692,-0.255c0.211,0 0.421,0.08 0.587,0.313c0.063,0.087 0.127,0.219 0.175,0.396c0.062,0.226 0.11,0.573 0.162,0.987c0.094,0.743 0.207,1.736 0.532,2.541c0.248,0.612 0.615,1.127 1.312,1.127c0.835,-0 1.516,-0.577 2.057,-1.393c0.426,-0.642 0.761,-1.434 0.992,-2.281c-0.307,0.05 -0.616,0.079 -0.925,0.079c-3.118,-0 -4.289,-2.794 -3.861,-5.049c0.299,-1.579 1.372,-2.847 2.999,-2.847c2.144,-0 3.282,2.052 3.384,4.635c0.019,0.473 0.004,0.962 -0.043,1.454c0.539,-0.221 1.025,-0.464 1.42,-0.653c0.552,-0.262 0.983,-0.415 1.21,-0.415c0.263,-0 0.512,0.114 0.688,0.425c0.12,0.213 0.21,0.642 0.278,1.186c0.085,0.683 0.169,1.595 0.477,2.334c0.234,0.563 0.614,1.021 1.335,1.021c0.903,0 1.648,-0.566 2.237,-1.378c0.426,-0.588 0.77,-1.305 1.022,-2.075c-0.311,0.053 -0.617,0.081 -0.916,0.081c-3.1,0 -4.346,-2.797 -3.86,-5.05c0.335,-1.551 1.469,-2.825 3.319,-2.825c2.067,0 3.155,2.019 3.187,4.566c0.006,0.475 -0.023,0.967 -0.086,1.462c1.144,-0.487 2.274,-1.181 3.243,-1.779c0.867,-0.534 1.615,-1.003 2.149,-1.238c0.321,-0.141 0.591,-0.205 0.792,-0.205c0.402,-0 0.747,0.228 0.865,0.806c0.104,0.509 -0.016,1.531 -0.194,2.687c-0.203,1.318 -0.468,2.831 -0.381,3.832c0.014,0.159 0.037,0.302 0.075,0.423c0.016,0.051 0.019,0.106 0.04,0.138c0.043,-0.042 0.104,-0.103 0.148,-0.159c0.124,-0.159 0.253,-0.365 0.389,-0.607c0.567,-1.008 1.217,-2.583 1.908,-4.158c0.848,-1.93 1.765,-3.852 2.651,-4.836c0.511,-0.567 1.047,-0.85 1.54,-0.85c0.362,0 0.639,0.162 0.829,0.486c0.143,0.244 0.231,0.649 0.225,1.18c-0.012,0.988 -0.305,2.534 -0.586,4.078c-0.265,1.452 -0.522,2.902 -0.469,3.831c0.008,0.138 0.045,0.3 0.072,0.404c0.029,-0.02 0.059,-0.043 0.082,-0.065c0.109,-0.101 0.22,-0.232 0.335,-0.384c0.508,-0.68 1.058,-1.743 1.633,-2.804c0.614,-1.134 1.258,-2.265 1.896,-2.991c0.552,-0.629 1.138,-0.965 1.682,-0.965c0.421,-0 0.787,0.243 0.966,0.829c0.192,0.628 0.152,1.891 0.053,3.32c-0.115,1.666 -0.291,3.582 -0.085,4.848c0.044,0.276 0.106,0.516 0.201,0.702c0.062,0.123 0.131,0.222 0.259,0.222c0.178,0 0.339,-0.115 0.508,-0.273c0.264,-0.247 0.516,-0.606 0.765,-1.042c0.839,-1.463 1.602,-3.734 2.308,-5.939c1.149,-3.587 3.368,-6.946 8.65,-7.139l0.07,-0.328c0.031,-0.146 0.175,-0.24 0.322,-0.209l0.327,0.07c0.147,0.031 0.24,0.176 0.209,0.322l-0.058,0.272c0.003,0.002 0.006,0.004 0.009,0.007l0.256,0.05l0.061,-0.285c0.043,-0.202 0.242,-0.331 0.444,-0.288l0.459,0.098c0.202,0.043 0.331,0.242 0.287,0.444l-0.057,0.267l0.244,0.048l0.054,-0.271c0.046,-0.234 0.27,-0.389 0.506,-0.349l4.15,0.714c0.243,0.042 0.404,0.276 0.357,0.519l-0.013,0.065l0.029,0.006c0.123,0.024 0.212,0.121 0.232,0.237l3.661,0.721c0.167,0.033 0.3,0.144 0.368,0.287l1.243,0.148l0.347,0.462l-0.08,0.409l-0.497,0.295l-1.203,-0.337c-0.118,0.109 -0.284,0.162 -0.453,0.128l-3.66,-0.721c-0.063,0.1 -0.182,0.156 -0.305,0.132l-0.029,-0.006l-0.013,0.065c-0.047,0.243 -0.286,0.398 -0.527,0.345l-4.11,-0.914c-0.233,-0.052 -0.383,-0.28 -0.337,-0.515l0.054,-0.27l-0.262,-0.052l-0.061,0.286c-0.043,0.202 -0.242,0.331 -0.444,0.287l-0.459,-0.098c-0.202,-0.043 -0.33,-0.241 -0.287,-0.443l0.057,-0.267l-0.267,-0.053l-0.062,0.291c-0.031,0.146 -0.175,0.24 -0.321,0.208l-0.328,-0.069c-0.147,-0.032 -0.24,-0.176 -0.209,-0.322l0.03,-0.141Zm-61.84,10.381c-0.463,0.238 -0.907,0.468 -1.315,0.693c-0.606,0.336 -1.128,0.658 -1.494,0.994c-0.247,0.226 -0.43,0.436 -0.43,0.689c-0,0.346 0.205,0.629 0.445,0.804c0.142,0.104 0.297,0.177 0.435,0.177c0.398,-0 0.779,-0.316 1.136,-0.733c0.577,-0.677 1.043,-1.665 1.223,-2.624Zm-27.743,-0.717c1.309,-1.471 2.341,-3.4 2.815,-5.109c0.232,-0.839 0.332,-1.621 0.242,-2.258c-0.053,-0.38 -0.17,-0.702 -0.397,-0.922c-0.215,-0.209 -0.525,-0.309 -0.929,-0.309c-0.386,0 -0.72,0.253 -1.021,0.624c-0.593,0.73 -1.015,1.91 -1.206,3.214c-0.23,1.57 -0.127,3.349 0.496,4.76Zm45.704,-1.514c0.089,-0.617 0.124,-1.239 0.1,-1.832c-0.039,-0.986 -0.235,-1.894 -0.64,-2.552c-0.338,-0.549 -0.832,-0.902 -1.516,-0.902c-1.012,-0 -1.606,0.864 -1.792,1.846c-0.3,1.585 0.463,3.592 2.654,3.592c0.401,0 0.803,-0.058 1.194,-0.152Zm10.286,-1.297c0.118,-0.638 0.175,-1.283 0.167,-1.896c-0.012,-0.962 -0.18,-1.846 -0.555,-2.488c-0.307,-0.525 -0.763,-0.865 -1.403,-0.865c-1.195,0 -1.902,0.853 -2.118,1.855c-0.34,1.575 0.491,3.563 2.659,3.563c0.406,-0 0.825,-0.062 1.25,-0.169Zm-35.844,-1.07c1.61,-3.015 3.05,-6.304 3.709,-8.903c0.33,-1.3 0.471,-2.412 0.296,-3.201c-0.064,-0.284 -0.166,-0.518 -0.345,-0.673c-0.169,-0.147 -0.401,-0.21 -0.694,-0.21c-0.891,0 -1.446,0.817 -1.89,1.981c-1.017,2.664 -1.201,7.157 -1.076,11.006Zm12.754,-0.398c2.143,-2.38 3.816,-5.518 4.294,-7.742c0.125,-0.579 0.169,-1.088 0.099,-1.49c-0.036,-0.201 -0.094,-0.37 -0.212,-0.48c-0.104,-0.097 -0.251,-0.133 -0.435,-0.133c-0.369,0 -0.707,0.195 -1.028,0.5c-0.404,0.385 -0.767,0.939 -1.093,1.603c-0.993,2.026 -1.604,5.038 -1.625,7.742Zm-37.59,-8.912c-0.915,0.018 -1.76,0.044 -2.534,0.077c-0.173,1.37 -0.265,2.836 -0.273,4.302c-0.006,1.135 0.037,2.271 0.134,3.363c1.066,-2.571 2.019,-5.31 2.673,-7.742Zm15.098,6.876c0.025,-0.36 0.016,-0.696 -0.033,-1c-0.063,-0.398 -0.191,-0.734 -0.427,-0.964c-0.22,-0.214 -0.532,-0.319 -0.935,-0.319c-0.506,0 -0.8,0.371 -0.895,0.794c-0.158,0.703 0.206,1.595 1.198,1.595c0.348,0 0.716,-0.042 1.092,-0.106Zm-40.819,-5.215c0.1,-1.05 0.117,-1.996 -0.012,-2.753c-0.14,-0.823 -0.447,-1.396 -1.201,-1.396c-0.695,0 -1.124,0.711 -1.315,1.483c-0.304,1.233 0.053,2.827 1.665,2.827c0.311,-0 0.598,-0.057 0.863,-0.161Zm25.975,-2.648c0.089,-0.368 0.171,-0.726 0.244,-1.073c0.373,-1.781 0.528,-3.255 0.314,-4.151c-0.071,-0.295 -0.146,-0.525 -0.385,-0.525c-0.331,0 -0.622,0.18 -0.893,0.466c-0.358,0.376 -0.668,0.923 -0.943,1.592c-0.422,1.027 -0.751,2.325 -0.983,3.765c0.809,-0.032 1.691,-0.058 2.646,-0.074Z" style="fill:rgb(131,133,136);"/>
                <path d="M754.404,121.747c0.834,0 1.549,-0.135 2.146,-0.406c0.598,-0.27 1.099,-0.625 1.505,-1.064c0.405,-0.44 0.726,-0.947 0.963,-1.521c0.236,-0.575 0.422,-1.155 0.558,-1.741l0.135,-0.608l4.461,-0l-0.135,0.608c-0.315,1.465 -0.743,2.743 -1.284,3.836c-0.541,1.093 -1.228,2.006 -2.062,2.738c-0.834,0.732 -1.825,1.285 -2.974,1.656c-1.15,0.372 -2.502,0.558 -4.056,0.558c-1.06,0 -2.028,-0.158 -2.907,-0.473c-0.879,-0.316 -1.634,-0.778 -2.265,-1.386c-0.631,-0.608 -1.121,-1.346 -1.47,-2.214c-0.349,-0.867 -0.524,-1.865 -0.524,-2.991c-0,-0.406 0.022,-0.811 0.068,-1.217c0.045,-0.406 0.123,-0.868 0.236,-1.386l1.116,-5.273c0.698,-3.267 1.937,-5.695 3.718,-7.284c1.78,-1.588 4.101,-2.382 6.962,-2.382c1.127,-0 2.135,0.18 3.025,0.54c0.891,0.361 1.645,0.851 2.265,1.471c0.62,0.619 1.093,1.346 1.42,2.18c0.326,0.834 0.49,1.724 0.49,2.67c-0,0.315 -0.023,0.631 -0.068,0.946c-0.045,0.316 -0.101,0.643 -0.169,0.981l-0.135,0.608l-4.462,0l0.136,-0.608c0.135,-0.541 0.202,-1.059 0.202,-1.555c0,-0.879 -0.253,-1.628 -0.76,-2.248c-0.507,-0.62 -1.392,-0.929 -2.653,-0.929c-0.744,-0 -1.42,0.14 -2.028,0.422c-0.609,0.282 -1.138,0.665 -1.589,1.149c-0.451,0.485 -0.828,1.048 -1.132,1.69c-0.305,0.643 -0.536,1.313 -0.693,2.011l-1.251,5.949c-0.067,0.338 -0.124,0.671 -0.169,0.997c-0.045,0.327 -0.067,0.637 -0.067,0.93c-0,1.014 0.264,1.825 0.794,2.433c0.529,0.609 1.414,0.913 2.653,0.913Z" style="fill:rgb(131,133,136);fill-rule:nonzero;"/>
                <path d="M782.661,121.308l0.338,0.236l1.622,-1.149l2.13,3.177l-1.994,1.352c-0.879,0.586 -1.803,0.879 -2.772,0.879c-0.856,0 -1.622,-0.237 -2.298,-0.71c-0.676,-0.473 -1.105,-1.138 -1.285,-1.994l-0.608,0c-0.203,0.383 -0.44,0.738 -0.71,1.065c-0.27,0.326 -0.603,0.608 -0.997,0.845c-0.394,0.236 -0.856,0.428 -1.386,0.574c-0.529,0.147 -1.155,0.22 -1.876,0.22c-0.879,0 -1.69,-0.175 -2.433,-0.524c-0.744,-0.349 -1.392,-0.834 -1.944,-1.453c-0.552,-0.62 -0.986,-1.347 -1.301,-2.18c-0.316,-0.834 -0.473,-1.747 -0.473,-2.738c-0,-1.51 0.202,-2.918 0.608,-4.225c0.406,-1.307 0.991,-2.451 1.758,-3.431c0.766,-0.98 1.706,-1.752 2.822,-2.315c1.115,-0.564 2.372,-0.845 3.769,-0.845c1.239,-0 2.219,0.248 2.94,0.743c0.721,0.496 1.206,1.15 1.454,1.961l0.608,-0l0.473,-2.231l4.259,0l-2.704,12.743Zm-8.18,0.439c0.812,0 1.533,-0.163 2.164,-0.49c0.631,-0.327 1.154,-0.761 1.571,-1.301c0.417,-0.541 0.738,-1.178 0.964,-1.91c0.225,-0.732 0.338,-1.504 0.338,-2.315c-0,-1.059 -0.305,-1.921 -0.913,-2.586c-0.608,-0.665 -1.42,-0.997 -2.434,-0.997c-0.811,-0 -1.532,0.163 -2.163,0.49c-0.631,0.327 -1.16,0.76 -1.588,1.301c-0.429,0.541 -0.755,1.178 -0.981,1.91c-0.225,0.732 -0.338,1.504 -0.338,2.315c0,0.947 0.276,1.78 0.829,2.501c0.552,0.721 1.402,1.082 2.551,1.082Z" style="fill:rgb(131,133,136);fill-rule:nonzero;"/>
                <path d="M798.04,111.945c-0.248,0 -0.501,0.028 -0.76,0.085c-0.26,0.056 -0.502,0.14 -0.727,0.253c-0.225,0.113 -0.411,0.265 -0.558,0.456c-0.146,0.192 -0.22,0.423 -0.22,0.693c0,0.473 0.271,0.823 0.812,1.048c0.54,0.225 1.464,0.417 2.771,0.575c1.465,0.18 2.648,0.625 3.549,1.335c0.902,0.71 1.352,1.729 1.352,3.059c0,1.983 -0.693,3.537 -2.078,4.664c-1.386,1.127 -3.307,1.69 -5.763,1.69c-1.24,0 -2.304,-0.18 -3.194,-0.541c-0.891,-0.36 -1.623,-0.811 -2.197,-1.352c-0.575,-0.541 -1.009,-1.138 -1.302,-1.791c-0.293,-0.654 -0.45,-1.273 -0.473,-1.859l4.191,-1.014c0.068,0.743 0.383,1.38 0.947,1.91c0.563,0.529 1.419,0.794 2.568,0.794c0.789,-0 1.476,-0.124 2.062,-0.372c0.586,-0.248 0.879,-0.687 0.879,-1.318c0,-0.473 -0.225,-0.851 -0.676,-1.132c-0.451,-0.282 -1.284,-0.479 -2.501,-0.592c-1.623,-0.135 -2.913,-0.597 -3.87,-1.386c-0.958,-0.788 -1.437,-1.836 -1.437,-3.143c0,-0.947 0.197,-1.792 0.592,-2.535c0.394,-0.744 0.918,-1.363 1.571,-1.859c0.654,-0.496 1.414,-0.873 2.282,-1.132c0.867,-0.26 1.774,-0.389 2.721,-0.389c1.172,-0 2.152,0.158 2.94,0.473c0.789,0.315 1.431,0.71 1.927,1.183c0.496,0.473 0.862,0.986 1.099,1.538c0.236,0.552 0.388,1.065 0.456,1.538l-4.124,1.081c-0.09,-0.608 -0.372,-1.087 -0.845,-1.436c-0.473,-0.349 -1.138,-0.524 -1.994,-0.524Z" style="fill:rgb(131,133,136);fill-rule:nonzero;"/>
                <path d="M815.21,112.621l-4.732,0l0,-4.056l5.611,0l1.555,-7.368l4.259,-0l-1.555,7.368l5.814,0l-0,4.056l-6.693,0l-1.892,8.687l0.338,0.236l4.529,-3.109l2.129,3.177l-4.901,3.312c-0.856,0.586 -1.769,0.879 -2.738,0.879c-0.495,0 -0.969,-0.084 -1.419,-0.253c-0.451,-0.169 -0.845,-0.412 -1.183,-0.727c-0.338,-0.316 -0.609,-0.699 -0.812,-1.149c-0.202,-0.451 -0.304,-0.958 -0.304,-1.521c0,-0.181 0.012,-0.344 0.034,-0.49c0.023,-0.147 0.056,-0.344 0.101,-0.592l1.859,-8.45Z" style="fill:rgb(131,133,136);fill-rule:nonzero;"/>
                <path d="M847.388,114.852c0,1.577 -0.225,3.036 -0.676,4.377c-0.451,1.341 -1.115,2.495 -1.994,3.464c-0.879,0.969 -1.977,1.73 -3.296,2.282c-1.318,0.552 -2.844,0.828 -4.579,0.828c-0.992,0 -1.921,-0.146 -2.789,-0.439c-0.867,-0.293 -1.628,-0.727 -2.281,-1.302c-0.654,-0.574 -1.172,-1.278 -1.555,-2.112c-0.383,-0.834 -0.575,-1.78 -0.575,-2.839c0,-1.735 0.271,-3.285 0.811,-4.648c0.541,-1.363 1.279,-2.518 2.214,-3.464c0.935,-0.947 2.04,-1.668 3.313,-2.164c1.273,-0.495 2.642,-0.743 4.106,-0.743c1.059,-0 2.04,0.163 2.941,0.49c0.901,0.327 1.673,0.783 2.315,1.369c0.642,0.586 1.144,1.295 1.504,2.129c0.361,0.834 0.541,1.758 0.541,2.772Zm-9.903,6.963c0.811,-0.023 1.56,-0.203 2.247,-0.541c0.688,-0.338 1.274,-0.783 1.758,-1.335c0.485,-0.552 0.862,-1.2 1.132,-1.944c0.271,-0.743 0.406,-1.532 0.406,-2.366c-0,-1.172 -0.316,-2.056 -0.946,-2.653c-0.631,-0.597 -1.476,-0.896 -2.535,-0.896c-0.812,0 -1.555,0.175 -2.231,0.524c-0.676,0.349 -1.262,0.811 -1.758,1.386c-0.496,0.575 -0.879,1.234 -1.149,1.977c-0.27,0.744 -0.406,1.521 -0.406,2.332c0,1.15 0.316,2.023 0.947,2.62c0.631,0.597 1.476,0.896 2.535,0.896Z" style="fill:rgb(131,133,136);fill-rule:nonzero;"/>
                <path d="M855.23,112.553l-0.338,-0.202l-2.67,1.96l-2.265,-3.042l2.704,-2.028c0.518,-0.383 1.065,-0.67 1.639,-0.862c0.575,-0.191 1.121,-0.287 1.64,-0.287c0.901,-0 1.69,0.248 2.366,0.743c0.676,0.496 1.081,1.195 1.216,2.096l0.609,0c0.45,-0.946 1.081,-1.656 1.893,-2.129c0.811,-0.474 1.723,-0.71 2.737,-0.71c1.285,-0 2.327,0.4 3.127,1.2c0.8,0.8 1.2,1.909 1.2,3.329c-0,0.293 -0.017,0.58 -0.051,0.862c-0.034,0.282 -0.096,0.625 -0.186,1.031l-0.169,0.743l-4.529,0.338l0.101,-0.473c0.068,-0.338 0.102,-0.642 0.102,-0.912c-0,-0.654 -0.18,-1.172 -0.541,-1.555c-0.361,-0.383 -0.901,-0.575 -1.622,-0.575c-0.902,0 -1.617,0.304 -2.147,0.913c-0.529,0.608 -0.918,1.476 -1.166,2.602l-1.217,5.679l4.056,-0l0,4.056l-11.559,-0l-0,-4.056l3.245,-0l1.825,-8.721Z" style="fill:rgb(131,133,136);fill-rule:nonzero;"/>
                <path d="M902.584,115.393l-3.549,-0c-0.519,-0 -1.014,0.084 -1.488,0.253c-0.473,0.169 -0.89,0.406 -1.25,0.71c-0.361,0.304 -0.648,0.676 -0.862,1.115c-0.214,0.44 -0.321,0.941 -0.321,1.504c-0,0.789 0.253,1.369 0.76,1.741c0.507,0.372 1.155,0.558 1.944,0.558l3.515,-0l1.251,-5.881Zm5.712,-6.828l-0.609,2.772l2.705,-0l-0,4.258l-3.617,0l-2.062,9.735l-8.18,-0c-1.802,-0 -3.233,-0.456 -4.292,-1.369c-1.059,-0.913 -1.589,-2.146 -1.589,-3.701c0,-1.668 0.479,-3.082 1.437,-4.242c0.957,-1.161 2.281,-1.91 3.971,-2.248l0,-0.608c-0.811,-0.338 -1.526,-0.84 -2.146,-1.504c-0.62,-0.665 -0.93,-1.606 -0.93,-2.823c0,-1.036 0.186,-1.988 0.558,-2.856c0.372,-0.867 0.907,-1.622 1.606,-2.264c0.698,-0.643 1.554,-1.144 2.568,-1.504c1.014,-0.361 2.175,-0.541 3.482,-0.541l3.515,-0l0,4.056l-3.65,-0c-0.519,-0 -1.009,0.067 -1.471,0.203c-0.462,0.135 -0.873,0.343 -1.233,0.625c-0.361,0.282 -0.643,0.642 -0.845,1.082c-0.203,0.439 -0.305,0.952 -0.305,1.537c0,0.744 0.265,1.29 0.795,1.64c0.529,0.349 1.188,0.524 1.977,0.524l3.448,-0l0.608,-2.772l4.259,0Z" style="fill:rgb(131,133,136);fill-rule:nonzero;"/>
                <path d="M938.277,116.407l-1.893,8.923l-4.428,-0l5.002,-23.66l8.45,-0c0.992,-0 1.888,0.158 2.687,0.473c0.8,0.315 1.482,0.755 2.045,1.318c0.564,0.564 0.997,1.228 1.302,1.994c0.304,0.767 0.456,1.6 0.456,2.502c-0,1.261 -0.214,2.411 -0.642,3.447c-0.428,1.037 -1.037,1.927 -1.825,2.67c-0.789,0.744 -1.735,1.319 -2.84,1.724c-1.104,0.406 -2.332,0.609 -3.684,0.609l-4.63,-0Zm0.912,-4.259l4.124,-0c1.149,-0 2.107,-0.338 2.873,-1.014c0.766,-0.676 1.149,-1.555 1.149,-2.637c-0,-0.833 -0.265,-1.47 -0.794,-1.909c-0.53,-0.44 -1.223,-0.659 -2.079,-0.659l-3.955,-0l-1.318,6.219Z" style="fill:rgb(131,133,136);fill-rule:nonzero;"/>
                <path d="M971.502,114.852c0,1.577 -0.225,3.036 -0.676,4.377c-0.451,1.341 -1.115,2.495 -1.994,3.464c-0.879,0.969 -1.977,1.73 -3.296,2.282c-1.318,0.552 -2.845,0.828 -4.58,0.828c-0.991,0 -1.921,-0.146 -2.788,-0.439c-0.868,-0.293 -1.628,-0.727 -2.282,-1.302c-0.653,-0.574 -1.171,-1.278 -1.554,-2.112c-0.383,-0.834 -0.575,-1.78 -0.575,-2.839c-0,-1.735 0.27,-3.285 0.811,-4.648c0.541,-1.363 1.279,-2.518 2.214,-3.464c0.935,-0.947 2.039,-1.668 3.313,-2.164c1.273,-0.495 2.642,-0.743 4.106,-0.743c1.059,-0 2.039,0.163 2.941,0.49c0.901,0.327 1.673,0.783 2.315,1.369c0.642,0.586 1.144,1.295 1.504,2.129c0.361,0.834 0.541,1.758 0.541,2.772Zm-9.903,6.963c0.811,-0.023 1.56,-0.203 2.247,-0.541c0.688,-0.338 1.273,-0.783 1.758,-1.335c0.484,-0.552 0.862,-1.2 1.132,-1.944c0.271,-0.743 0.406,-1.532 0.406,-2.366c-0,-1.172 -0.316,-2.056 -0.947,-2.653c-0.631,-0.597 -1.476,-0.896 -2.535,-0.896c-0.811,0 -1.554,0.175 -2.23,0.524c-0.676,0.349 -1.262,0.811 -1.758,1.386c-0.496,0.575 -0.879,1.234 -1.149,1.977c-0.271,0.744 -0.406,1.521 -0.406,2.332c0,1.15 0.316,2.023 0.947,2.62c0.631,0.597 1.476,0.896 2.535,0.896Z" style="fill:rgb(131,133,136);fill-rule:nonzero;"/>
                <path d="M985.935,124.924c-0.451,0.316 -0.913,0.541 -1.386,0.676c-0.473,0.135 -0.935,0.203 -1.386,0.203c-0.496,0 -0.969,-0.084 -1.42,-0.253c-0.45,-0.169 -0.845,-0.406 -1.183,-0.71c-0.338,-0.304 -0.602,-0.676 -0.794,-1.116c-0.191,-0.439 -0.287,-0.929 -0.287,-1.47c-0,-0.406 0.045,-0.8 0.135,-1.183l3.684,-15.379l-0.338,-0.237l-4.529,3.11l-2.129,-3.177l4.901,-3.313c0.45,-0.315 0.912,-0.54 1.385,-0.676c0.474,-0.135 0.936,-0.202 1.386,-0.202c0.496,-0 0.969,0.084 1.42,0.253c0.451,0.169 0.845,0.406 1.183,0.71c0.338,0.304 0.603,0.676 0.794,1.115c0.192,0.44 0.287,0.93 0.287,1.471c0,0.36 -0.045,0.754 -0.135,1.183l-3.684,15.379l0.338,0.236l4.529,-3.109l2.13,3.177l-4.901,3.312Z" style="fill:rgb(131,133,136);fill-rule:nonzero;"/>
                <path d="M1006.62,124.924c-0.45,0.316 -0.912,0.541 -1.385,0.676c-0.474,0.135 -0.936,0.203 -1.386,0.203c-0.496,0 -0.969,-0.084 -1.42,-0.253c-0.451,-0.169 -0.845,-0.406 -1.183,-0.71c-0.338,-0.304 -0.603,-0.676 -0.794,-1.116c-0.192,-0.439 -0.288,-0.929 -0.288,-1.47c0,-0.406 0.046,-0.8 0.136,-1.183l3.684,-15.379l-0.338,-0.237l-4.529,3.11l-2.13,-3.177l4.901,-3.313c0.451,-0.315 0.913,-0.54 1.386,-0.676c0.473,-0.135 0.935,-0.202 1.386,-0.202c0.496,-0 0.969,0.084 1.42,0.253c0.45,0.169 0.845,0.406 1.183,0.71c0.338,0.304 0.602,0.676 0.794,1.115c0.191,0.44 0.287,0.93 0.287,1.471c0,0.36 -0.045,0.754 -0.135,1.183l-3.684,15.379l0.338,0.236l4.529,-3.109l2.129,3.177l-4.901,3.312Z" style="fill:rgb(131,133,136);fill-rule:nonzero;"/>
                <path d="M1022.24,108.565l-2.096,9.734c-0.09,0.383 -0.135,0.755 -0.135,1.116c0,0.856 0.237,1.493 0.71,1.91c0.473,0.416 1.104,0.625 1.893,0.625c1.194,-0 2.112,-0.389 2.754,-1.166c0.643,-0.778 1.121,-1.876 1.437,-3.296l1.893,-8.923l4.259,0l-2.772,12.776l0.372,0.203l1.217,-0.879l2.129,3.11l-1.589,1.149c-0.428,0.316 -0.873,0.541 -1.335,0.676c-0.462,0.135 -0.918,0.203 -1.369,0.203c-0.924,0 -1.735,-0.265 -2.433,-0.794c-0.699,-0.53 -1.093,-1.302 -1.183,-2.316l-0.609,0c-0.495,1.15 -1.166,1.955 -2.011,2.417c-0.845,0.462 -1.797,0.693 -2.856,0.693c-1.465,0 -2.659,-0.445 -3.583,-1.335c-0.924,-0.89 -1.385,-2.135 -1.385,-3.735c-0,-0.563 0.067,-1.172 0.202,-1.825l2.231,-10.343l4.259,0Z" style="fill:rgb(131,133,136);fill-rule:nonzero;"/>
                <path d="M1047.72,117.387l1.758,4.157l0.405,0l1.319,-2.433l3.38,1.757l-1.082,2.163c-0.901,1.848 -2.31,2.772 -4.225,2.772c-0.946,0 -1.718,-0.214 -2.315,-0.642c-0.597,-0.428 -1.088,-1.116 -1.471,-2.062l-1.115,-2.603l-5.577,5.239l-2.873,-3.008l6.76,-6.32l-1.69,-4.023l-0.406,0l-1.622,2.603l-3.245,-2.096l1.623,-2.501c0.969,-1.532 2.275,-2.298 3.92,-2.298c1.668,-0 2.885,0.879 3.651,2.636l1.081,2.569l5.341,-5.002l2.873,3.008l-6.49,6.084Z" style="fill:rgb(131,133,136);fill-rule:nonzero;"/>
                <path d="M1106.24,921.847l19.82,0.059c1.163,0.004 2.11,-0.933 2.119,-2.097l0.11,-15.011c-0,-0 2.478,-0 2.478,-0c0,4.564 0,14.937 0,14.937c0,1.166 0.947,2.112 2.113,2.112c1.166,0 2.112,-0.946 2.112,-2.112l0,-17.05c0,-1.167 -0.945,-2.112 -2.112,-2.112l-6.688,-0c-1.161,-0 -2.104,0.936 -2.113,2.097l-0.11,15.005c-5.101,-0.015 -17.716,-0.053 -17.716,-0.053c-1.166,-0.003 -2.116,0.941 -2.119,2.107c-0.004,1.165 0.94,2.115 2.106,2.118Z" style="fill:rgb(131,133,136);"/>
                <path d="M1112.74,912.321l-2.536,-2.536c-0,0 2.536,-2.536 2.536,-2.536c0.824,-0.824 0.824,-2.163 0,-2.988c-0.824,-0.824 -2.163,-0.824 -2.987,0l-5.524,5.524l5.524,5.524c0.824,0.824 2.163,0.824 2.987,-0c0.824,-0.825 0.824,-2.163 0,-2.988Z" style="fill:rgb(131,133,136);"/>
                <path d="M1116.47,907.673l-0.042,-0c-1.166,-0 -2.112,0.946 -2.112,2.112c-0,1.166 0.946,2.113 2.112,2.113l0.042,-0c1.166,-0 2.113,-0.947 2.113,-2.113c-0,-1.166 -0.947,-2.112 -2.113,-2.112Zm-5.112,-0l-0.042,-0c-1.166,-0 -2.113,0.946 -2.113,2.112c0,1.166 0.947,2.113 2.113,2.113l0.042,-0c1.166,-0 2.113,-0.947 2.113,-2.113c-0,-1.166 -0.947,-2.112 -2.113,-2.112Zm10.225,-0l-0.043,-0c-1.165,-0 -2.112,0.946 -2.112,2.112c-0,1.166 0.947,2.113 2.112,2.113l0.043,-0c1.166,-0 2.112,-0.947 2.112,-2.113c0,-1.166 -0.946,-2.112 -2.112,-2.112Z" style="fill:rgb(131,133,136);"/>
                <path d="M692.146,917.622c-0,0 -12.615,0.038 -17.717,0.053c-0,0 -0.11,-15.005 -0.11,-15.005c-0.008,-1.161 -0.952,-2.097 -2.112,-2.097l-6.689,-0c-1.166,-0 -2.112,0.945 -2.112,2.112l-0,17.05c-0,1.166 0.946,2.112 2.112,2.112c1.166,0 2.113,-0.946 2.113,-2.112l-0,-14.937c-0,-0 2.479,-0 2.479,-0c-0,-0 0.109,15.011 0.109,15.011c0.009,1.164 0.956,2.101 2.119,2.097l19.82,-0.059c1.166,-0.003 2.11,-0.953 2.106,-2.118c-0.003,-1.166 -0.952,-2.11 -2.118,-2.107Z" style="fill:rgb(131,133,136);"/>
                <path d="M685.665,907.249l2.536,2.536c0,0 -2.536,2.536 -2.536,2.536c-0.824,0.825 -0.824,2.163 0,2.988c0.825,0.824 2.163,0.824 2.988,-0l5.523,-5.524l-5.523,-5.524c-0.825,-0.824 -2.163,-0.824 -2.988,0c-0.824,0.825 -0.824,2.164 0,2.988Z" style="fill:rgb(131,133,136);"/>
                <path d="M681.934,911.898l0.042,-0c1.166,-0 2.113,-0.947 2.113,-2.113c-0,-1.166 -0.947,-2.112 -2.113,-2.112l-0.042,-0c-1.166,-0 -2.113,0.946 -2.113,2.112c0,1.166 0.947,2.113 2.113,2.113Zm5.112,-0l0.042,-0c1.166,-0 2.113,-0.947 2.113,-2.113c-0,-1.166 -0.947,-2.112 -2.113,-2.112l-0.042,-0c-1.166,-0 -2.112,0.946 -2.112,2.112c-0,1.166 0.946,2.113 2.112,2.113Zm-10.224,-0l0.042,-0c1.166,-0 2.112,-0.947 2.112,-2.113c0,-1.166 -0.946,-2.112 -2.112,-2.112l-0.042,-0c-1.166,-0 -2.113,0.946 -2.113,2.112c0,1.166 0.947,2.113 2.113,2.113Z" style="fill:rgb(131,133,136);"/>
                <path d="M661.057,778.178l0,16.772c0,0.741 0.388,1.428 1.023,1.81c0.634,0.382 1.422,0.404 2.077,0.058l28.206,-14.914c-0,0 -0.095,13.309 -0.095,13.309c-0.008,1.166 0.932,2.119 2.098,2.128c1.166,0.008 2.119,-0.932 2.127,-2.098l0.12,-16.843c0.005,-0.744 -0.381,-1.435 -1.016,-1.821c-0.635,-0.386 -1.427,-0.409 -2.084,-0.062l-28.231,14.927c0,-0 0,-13.266 0,-13.266c0,-1.166 -0.946,-2.112 -2.112,-2.112c-1.166,-0 -2.113,0.946 -2.113,2.112Z" style="fill:rgb(131,133,136);"/>
                <path d="M800.105,778.134c-0,-0 0.072,10.36 0.103,14.929c0,-0 -15.596,0.046 -15.596,0.046c0,0 -0.109,-15.005 -0.109,-15.005c-0.009,-1.161 -0.952,-2.097 -2.113,-2.097l-6.688,-0c-1.167,-0 -2.113,0.946 -2.113,2.112l0,17.05c0,1.166 0.947,2.113 2.113,2.113c1.166,-0 2.112,-0.947 2.112,-2.113l0,-14.937c0,-0 2.479,-0 2.479,-0c0,-0 0.11,15.012 0.11,15.012c0.009,1.163 0.956,2.1 2.119,2.097l19.82,-0.059c0.561,-0.002 1.099,-0.227 1.495,-0.627c0.395,-0.399 0.615,-0.939 0.611,-1.501l-0.118,-17.049c-0.008,-1.166 -0.961,-2.106 -2.127,-2.098c-1.166,0.008 -2.106,0.961 -2.098,2.127Z" style="fill:rgb(131,133,136);"/>
                <path d="M800.105,902.759c-0,-0 0.072,10.351 0.103,14.922c0,0 -9.077,0 -9.077,0c0,-4.564 0,-14.937 0,-14.937c0,-1.167 -0.946,-2.112 -2.112,-2.112l-13.317,-0c-1.167,-0 -2.113,0.945 -2.113,2.112l0,17.05c0,1.166 0.947,2.112 2.113,2.112c1.166,0 2.112,-0.946 2.112,-2.112l0,-14.937c0,-0 9.092,-0 9.092,-0c0,-0 0,14.937 0,14.937c0,1.167 0.946,2.112 2.113,2.112l13.316,0c0.563,0 1.103,-0.224 1.499,-0.623c0.397,-0.4 0.618,-0.941 0.614,-1.504l-0.118,-17.049c-0.008,-1.166 -0.961,-2.106 -2.127,-2.098c-1.166,0.008 -2.106,0.961 -2.098,2.127Z" style="fill:rgb(131,133,136);"/>
                <path d="M1133.12,778.178l-0,13.266c-0,-0 -28.231,-14.927 -28.231,-14.927c-0.657,-0.347 -1.448,-0.324 -2.084,0.062c-0.635,0.386 -1.021,1.077 -1.016,1.821l0.12,16.843c0.008,1.166 0.961,2.106 2.127,2.098c1.166,-0.009 2.106,-0.962 2.098,-2.128l-0.095,-13.309c7.93,4.193 28.206,14.914 28.206,14.914c0.655,0.346 1.443,0.324 2.078,-0.058c0.634,-0.382 1.022,-1.069 1.022,-1.81l-0,-16.772c-0,-1.166 -0.947,-2.112 -2.113,-2.112c-1.165,-0 -2.112,0.946 -2.112,2.112Z" style="fill:rgb(131,133,136);"/>
                <path d="M994.073,778.105l-0.119,17.049c-0.004,0.562 0.216,1.102 0.612,1.501c0.395,0.4 0.933,0.625 1.494,0.627l19.821,0.059c1.163,0.003 2.11,-0.934 2.118,-2.097l0.11,-15.012c0,-0 2.479,-0 2.479,-0c-0,-0 -0,14.937 -0,14.937c-0,1.166 0.947,2.113 2.112,2.113c1.166,-0 2.113,-0.947 2.113,-2.113l-0,-17.05c-0,-1.166 -0.946,-2.112 -2.113,-2.112l-6.688,-0c-1.161,-0 -2.104,0.936 -2.112,2.097l-0.11,15.005c-0,0 -15.596,-0.046 -15.596,-0.046c-0,-0 0.103,-14.929 0.103,-14.929c0.009,-1.166 -0.931,-2.119 -2.097,-2.127c-1.166,-0.008 -2.119,0.932 -2.127,2.098Z" style="fill:rgb(131,133,136);"/>
                <path d="M994.073,902.67l-0.119,17.05c-0.004,0.563 0.217,1.104 0.614,1.503c0.396,0.4 0.936,0.624 1.499,0.624l13.317,0c1.166,0 2.112,-0.945 2.112,-2.112l0,-14.937c0,-0 9.092,-0 9.092,-0c-0,-0 -0,14.937 -0,14.937c-0,1.166 0.947,2.112 2.112,2.112c1.166,0 2.113,-0.946 2.113,-2.112l-0,-17.05c-0,-1.167 -0.946,-2.112 -2.113,-2.112l-13.316,-0c-1.167,-0 -2.113,0.945 -2.113,2.112l0,14.937c0,0 -9.077,0 -9.077,0c0.032,-4.571 0.103,-14.922 0.103,-14.922c0.009,-1.166 -0.931,-2.119 -2.097,-2.127c-1.166,-0.008 -2.119,0.932 -2.127,2.097Z" style="fill:rgb(131,133,136);"/>
                <circle cx="899.999" cy="797.405" r="28.743" style="fill:rgb(131,133,136);"/>
                <path d="M901.791,830.009c-0.386,-0.618 -1.063,-0.993 -1.792,-0.993c-0.728,-0 -1.406,0.375 -1.792,0.993l-8.274,13.247c-0.407,0.651 -0.429,1.472 -0.056,2.143c0.372,0.672 1.079,1.088 1.847,1.088l16.55,0c0.768,0 1.475,-0.416 1.848,-1.088c0.372,-0.671 0.351,-1.492 -0.056,-2.143l-8.275,-13.247Z" style="fill:rgb(131,133,136);"/>
            </g>
            <g id="Jacks">
                <circle cx="678.335" cy="855.164" r="37.913" style="fill:rgb(222,222,222);"/>
                <circle cx="678.335" cy="976.525" r="37.913" style="fill:rgb(222,222,222);"/>
                <circle cx="1119.81" cy="855.164" r="37.913" style="fill:rgb(222,222,222);"/>
                <circle cx="1119.57" cy="976.525" r="37.913" style="fill:rgb(222,222,222);"/>
                <g id="Flat-jack" serif:id="Flat jack">
                    <path d="M899.264,942.819c0.247,-0.143 0.553,-0.143 0.801,-0c3.255,1.879 25.333,14.626 28.589,16.506c0.247,0.143 0.4,0.407 0.4,0.694c0,3.758 0.001,29.253 0.002,33.011c-0,0.287 -0.153,0.551 -0.401,0.694c-3.255,1.88 -25.332,14.627 -28.587,16.506c-0.248,0.143 -0.553,0.143 -0.801,0c-3.256,-1.879 -25.334,-14.626 -28.589,-16.506c-0.248,-0.143 -0.401,-0.407 -0.401,-0.694c0,-3.758 -0.001,-29.253 -0.001,-33.011c-0,-0.287 0.152,-0.551 0.4,-0.694c3.255,-1.88 25.332,-14.627 28.588,-16.506Z" style="fill:rgb(213,213,213);"/>
                    <path d="M898.326,941.195c0.828,-0.478 1.848,-0.478 2.676,0l28.589,16.506c0.828,0.478 1.338,1.361 1.338,2.317l0.002,33.012c-0,0.956 -0.51,1.84 -1.338,2.318l-28.588,16.506c-0.828,0.478 -1.848,0.478 -2.676,-0l-28.589,-16.506c-0.828,-0.478 -1.338,-1.361 -1.338,-2.317l-0.001,-33.012c-0,-0.956 0.51,-1.84 1.338,-2.318l28.587,-16.506Zm0.938,1.624l-28.588,16.506c-0.248,0.143 -0.4,0.407 -0.4,0.694l0.001,33.011c0,0.287 0.153,0.551 0.401,0.694l28.589,16.506c0.248,0.143 0.553,0.143 0.801,0l28.587,-16.506c0.248,-0.143 0.401,-0.407 0.401,-0.694l-0.002,-33.011c0,-0.287 -0.153,-0.551 -0.4,-0.694l-28.589,-16.506c-0.248,-0.143 -0.554,-0.143 -0.801,-0Z" style="fill:rgb(169,169,169);"/>
                    <ellipse cx="899.666" cy="976.525" rx="17.849" ry="17.848" style="fill:rgb(131,133,136);"/>
                </g>
                <g id="Flat-jack1" serif:id="Flat jack">
                    <path d="M1008.55,942.819c0.248,-0.143 0.554,-0.143 0.801,-0c3.256,1.879 25.334,14.626 28.589,16.506c0.248,0.143 0.401,0.407 0.401,0.694c0,3.758 0.001,29.253 0.001,33.011c0,0.287 -0.152,0.551 -0.4,0.694c-3.255,1.88 -25.332,14.627 -28.587,16.506c-0.248,0.143 -0.554,0.143 -0.802,0c-3.255,-1.879 -25.333,-14.626 -28.589,-16.506c-0.247,-0.143 -0.4,-0.407 -0.4,-0.694c-0,-3.758 -0.001,-29.253 -0.002,-33.011c0,-0.287 0.153,-0.551 0.401,-0.694c3.255,-1.88 25.332,-14.627 28.587,-16.506Z" style="fill:rgb(213,213,213);"/>
                    <path d="M1007.62,941.195c0.828,-0.478 1.848,-0.478 2.676,0l28.589,16.506c0.828,0.478 1.338,1.361 1.338,2.317l0.001,33.012c0,0.956 -0.51,1.84 -1.338,2.318l-28.587,16.506c-0.828,0.478 -1.848,0.478 -2.676,-0l-28.589,-16.506c-0.828,-0.478 -1.338,-1.361 -1.338,-2.317l-0.002,-33.012c0,-0.956 0.51,-1.84 1.338,-2.318l28.588,-16.506Zm0.937,1.624l-28.587,16.506c-0.248,0.143 -0.401,0.407 -0.401,0.694l0.002,33.011c-0,0.287 0.153,0.551 0.4,0.694l28.589,16.506c0.248,0.143 0.554,0.143 0.802,0l28.587,-16.506c0.248,-0.143 0.4,-0.407 0.4,-0.694l-0.001,-33.011c-0,-0.287 -0.153,-0.551 -0.401,-0.694l-28.589,-16.506c-0.247,-0.143 -0.553,-0.143 -0.801,-0Z" style="fill:rgb(169,169,169);"/>
                    <ellipse cx="1008.96" cy="976.525" rx="17.849" ry="17.848" style="fill:rgb(131,133,136);"/>
                </g>
                <g id="Flat-jack2" serif:id="Flat jack">
                    <path d="M1119.16,942.819c0.248,-0.143 0.553,-0.143 0.801,-0c3.255,1.879 25.334,14.626 28.589,16.506c0.248,0.143 0.401,0.407 0.401,0.694c-0,3.758 0.001,29.253 0.001,33.011c0,0.287 -0.153,0.551 -0.4,0.694c-3.256,1.88 -25.333,14.627 -28.588,16.506c-0.248,0.143 -0.553,0.143 -0.801,0c-3.255,-1.879 -25.334,-14.626 -28.589,-16.506c-0.248,-0.143 -0.4,-0.407 -0.4,-0.694c-0.001,-3.758 -0.002,-29.253 -0.002,-33.011c0,-0.287 0.153,-0.551 0.401,-0.694c3.255,-1.88 25.332,-14.627 28.587,-16.506Z" style="fill:rgb(213,213,213);"/>
                    <path d="M1118.23,941.195c0.828,-0.478 1.849,-0.478 2.677,0l28.588,16.506c0.828,0.478 1.339,1.361 1.339,2.317l0.001,33.012c0,0.956 -0.51,1.84 -1.338,2.318l-28.587,16.506c-0.828,0.478 -1.848,0.478 -2.676,-0l-28.589,-16.506c-0.828,-0.478 -1.338,-1.361 -1.338,-2.317l-0.002,-33.012c0,-0.956 0.51,-1.84 1.338,-2.318l28.587,-16.506Zm0.938,1.624l-28.587,16.506c-0.248,0.143 -0.401,0.407 -0.401,0.694l0.002,33.011c-0,0.287 0.152,0.551 0.4,0.694l28.589,16.506c0.248,0.143 0.553,0.143 0.801,0l28.588,-16.506c0.247,-0.143 0.4,-0.407 0.4,-0.694l-0.001,-33.011c-0,-0.287 -0.153,-0.551 -0.401,-0.694l-28.589,-16.506c-0.248,-0.143 -0.553,-0.143 -0.801,-0Z" style="fill:rgb(169,169,169);"/>
                    <ellipse cx="1119.57" cy="976.525" rx="17.849" ry="17.848" style="fill:rgb(131,133,136);"/>
                </g>
                <g id="Flat-jack3" serif:id="Flat jack">
                    <path d="M1119.41,821.458c0.248,-0.143 0.554,-0.143 0.802,-0c3.255,1.879 25.333,14.626 28.588,16.506c0.248,0.143 0.401,0.407 0.401,0.694c0,3.758 0.001,29.253 0.002,33.012c-0,0.286 -0.153,0.55 -0.401,0.693c-3.255,1.88 -25.332,14.627 -28.587,16.506c-0.248,0.143 -0.554,0.143 -0.801,0c-3.256,-1.879 -25.334,-14.626 -28.589,-16.506c-0.248,-0.143 -0.401,-0.407 -0.401,-0.693c-0,-3.759 -0.001,-29.253 -0.001,-33.012c-0,-0.287 0.152,-0.551 0.4,-0.694c3.255,-1.88 25.332,-14.627 28.587,-16.506Z" style="fill:rgb(213,213,213);"/>
                    <path d="M1118.47,819.834c0.828,-0.478 1.848,-0.478 2.676,0l28.589,16.506c0.828,0.478 1.338,1.361 1.338,2.318l0.002,33.011c-0,0.957 -0.51,1.84 -1.338,2.318l-28.588,16.506c-0.828,0.478 -1.848,0.478 -2.676,0l-28.589,-16.506c-0.828,-0.478 -1.338,-1.361 -1.338,-2.317l-0.001,-33.012c-0,-0.956 0.51,-1.84 1.338,-2.318l28.587,-16.506Zm0.937,1.624l-28.587,16.506c-0.248,0.143 -0.4,0.407 -0.4,0.694l0.001,33.012c0,0.286 0.153,0.55 0.401,0.693l28.589,16.506c0.247,0.143 0.553,0.143 0.801,0l28.587,-16.506c0.248,-0.143 0.401,-0.407 0.401,-0.693l-0.002,-33.012c0,-0.287 -0.153,-0.551 -0.401,-0.694l-28.588,-16.506c-0.248,-0.143 -0.554,-0.143 -0.802,-0Z" style="fill:rgb(169,169,169);"/>
                    <ellipse cx="1119.81" cy="855.164" rx="17.849" ry="17.848" style="fill:rgb(131,133,136);"/>
                </g>
                <g id="Flat-jack4" serif:id="Flat jack">
                    <path d="M677.933,821.458c0.248,-0.143 0.554,-0.143 0.801,-0c3.256,1.879 25.334,14.626 28.589,16.506c0.248,0.143 0.401,0.407 0.401,0.694c0,3.758 0.001,29.253 0.001,33.012c0,0.286 -0.152,0.55 -0.4,0.693c-3.255,1.88 -25.332,14.627 -28.587,16.506c-0.248,0.143 -0.554,0.143 -0.802,0c-3.255,-1.879 -25.333,-14.626 -28.588,-16.506c-0.248,-0.143 -0.401,-0.407 -0.401,-0.693c-0,-3.759 -0.001,-29.253 -0.002,-33.012c0,-0.287 0.153,-0.551 0.401,-0.694c3.255,-1.88 25.332,-14.627 28.587,-16.506Z" style="fill:rgb(213,213,213);"/>
                    <path d="M676.996,819.834c0.828,-0.478 1.848,-0.478 2.676,0l28.589,16.506c0.828,0.478 1.338,1.361 1.338,2.318l0.001,33.011c0,0.957 -0.51,1.84 -1.338,2.318l-28.587,16.506c-0.828,0.478 -1.848,0.478 -2.676,0l-28.589,-16.506c-0.828,-0.478 -1.338,-1.361 -1.338,-2.317l-0.002,-33.012c0,-0.956 0.51,-1.84 1.338,-2.318l28.588,-16.506Zm0.937,1.624l-28.587,16.506c-0.248,0.143 -0.401,0.407 -0.401,0.694l0.002,33.012c0,0.286 0.153,0.55 0.401,0.693l28.588,16.506c0.248,0.143 0.554,0.143 0.802,0l28.587,-16.506c0.248,-0.143 0.4,-0.407 0.4,-0.693l-0.001,-33.012c-0,-0.287 -0.153,-0.551 -0.401,-0.694l-28.589,-16.506c-0.247,-0.143 -0.553,-0.143 -0.801,-0Z" style="fill:rgb(169,169,169);"/>
                    <ellipse cx="678.335" cy="855.164" rx="17.849" ry="17.848" style="fill:rgb(131,133,136);"/>
                </g>
                <g id="Flat-jack5" serif:id="Flat jack">
                    <path d="M677.933,942.819c0.248,-0.143 0.554,-0.143 0.801,-0c3.256,1.879 25.334,14.626 28.589,16.506c0.248,0.143 0.401,0.407 0.401,0.694c0,3.758 0.001,29.253 0.001,33.011c0,0.287 -0.152,0.551 -0.4,0.694c-3.255,1.88 -25.332,14.627 -28.587,16.506c-0.248,0.143 -0.554,0.143 -0.802,0c-3.255,-1.879 -25.333,-14.626 -28.588,-16.506c-0.248,-0.143 -0.401,-0.407 -0.401,-0.694c-0,-3.758 -0.001,-29.253 -0.002,-33.011c0,-0.287 0.153,-0.551 0.401,-0.694c3.255,-1.88 25.332,-14.627 28.587,-16.506Z" style="fill:rgb(213,213,213);"/>
                    <path d="M676.996,941.195c0.828,-0.478 1.848,-0.478 2.676,0l28.589,16.506c0.828,0.478 1.338,1.361 1.338,2.317l0.001,33.012c0,0.956 -0.51,1.84 -1.338,2.318l-28.587,16.506c-0.828,0.478 -1.848,0.478 -2.676,-0l-28.589,-16.506c-0.828,-0.478 -1.338,-1.361 -1.338,-2.317l-0.002,-33.012c0,-0.956 0.51,-1.84 1.338,-2.318l28.588,-16.506Zm0.937,1.624l-28.587,16.506c-0.248,0.143 -0.401,0.407 -0.401,0.694l0.002,33.011c0,0.287 0.153,0.551 0.401,0.694l28.588,16.506c0.248,0.143 0.554,0.143 0.802,0l28.587,-16.506c0.248,-0.143 0.4,-0.407 0.4,-0.694l-0.001,-33.011c-0,-0.287 -0.153,-0.551 -0.401,-0.694l-28.589,-16.506c-0.247,-0.143 -0.553,-0.143 -0.801,-0Z" style="fill:rgb(169,169,169);"/>
                    <ellipse cx="678.335" cy="976.525" rx="17.849" ry="17.848" style="fill:rgb(131,133,136);"/>
                </g>
                <g id="Flat-jack6" serif:id="Flat jack">
                    <path d="M788.515,942.819c0.248,-0.143 0.553,-0.143 0.801,-0c3.255,1.879 25.334,14.626 28.589,16.506c0.248,0.143 0.4,0.407 0.4,0.694c0.001,3.758 0.002,29.253 0.002,33.011c-0,0.287 -0.153,0.551 -0.401,0.694c-3.255,1.88 -25.332,14.627 -28.587,16.506c-0.248,0.143 -0.553,0.143 -0.801,0c-3.255,-1.879 -25.334,-14.626 -28.589,-16.506c-0.248,-0.143 -0.401,-0.407 -0.401,-0.694c0,-3.758 -0.001,-29.253 -0.001,-33.011c-0,-0.287 0.153,-0.551 0.4,-0.694c3.256,-1.88 25.333,-14.627 28.588,-16.506Z" style="fill:rgb(213,213,213);"/>
                    <path d="M787.577,941.195c0.828,-0.478 1.848,-0.478 2.676,0l28.589,16.506c0.828,0.478 1.338,1.361 1.338,2.317l0.002,33.012c-0,0.956 -0.51,1.84 -1.338,2.318l-28.587,16.506c-0.828,0.478 -1.849,0.478 -2.677,-0l-28.588,-16.506c-0.828,-0.478 -1.339,-1.361 -1.339,-2.317l-0.001,-33.012c-0,-0.956 0.51,-1.84 1.338,-2.318l28.587,-16.506Zm0.938,1.624l-28.588,16.506c-0.247,0.143 -0.4,0.407 -0.4,0.694l0.001,33.011c0,0.287 0.153,0.551 0.401,0.694l28.589,16.506c0.248,0.143 0.553,0.143 0.801,0l28.587,-16.506c0.248,-0.143 0.401,-0.407 0.401,-0.694l-0.002,-33.011c0,-0.287 -0.152,-0.551 -0.4,-0.694l-28.589,-16.506c-0.248,-0.143 -0.553,-0.143 -0.801,-0Z" style="fill:rgb(169,169,169);"/>
                    <ellipse cx="788.917" cy="976.525" rx="17.849" ry="17.848" style="fill:rgb(131,133,136);"/>
                </g>
            </g>
            <g id="Stars">
                <path d="M921.849,265.252l5.267,15.96c0.212,0.641 0.718,1.143 1.361,1.349c0.643,0.207 1.346,0.093 1.891,-0.305l9.37,-6.844l-0.643,11.585c-0.037,0.674 0.25,1.326 0.773,1.753c0.523,0.427 1.219,0.579 1.873,0.407l16.256,-4.266l-11.188,12.542c-0.449,0.504 -0.631,1.193 -0.488,1.853c0.143,0.66 0.593,1.212 1.211,1.486l10.611,4.692l-10.354,5.236c-0.603,0.305 -1.024,0.879 -1.132,1.546c-0.108,0.667 0.109,1.345 0.584,1.825l11.822,11.945l-16.455,-3.417c-0.662,-0.138 -1.349,0.049 -1.849,0.503c-0.5,0.454 -0.754,1.12 -0.681,1.791l1.242,11.536l-9.712,-6.349c-0.565,-0.369 -1.273,-0.446 -1.905,-0.207c-0.631,0.239 -1.11,0.766 -1.288,1.418l-4.434,16.211l-5.268,-15.96c-0.212,-0.641 -0.717,-1.142 -1.36,-1.349c-0.644,-0.206 -1.347,-0.093 -1.892,0.306l-9.37,6.844l0.643,-11.585c0.038,-0.675 -0.25,-1.326 -0.773,-1.754c-0.523,-0.427 -1.219,-0.578 -1.872,-0.407l-16.257,4.266l11.188,-12.542c0.45,-0.504 0.631,-1.193 0.488,-1.853c-0.142,-0.66 -0.592,-1.212 -1.21,-1.485l-10.612,-4.693l10.355,-5.235c0.602,-0.305 1.023,-0.88 1.131,-1.547c0.109,-0.666 -0.108,-1.345 -0.583,-1.825l-11.823,-11.945l16.456,3.418c0.661,0.137 1.348,-0.05 1.849,-0.504c0.5,-0.454 0.753,-1.119 0.681,-1.791l-1.243,-11.536l9.712,6.349c0.565,0.37 1.273,0.447 1.905,0.207c0.632,-0.239 1.111,-0.766 1.289,-1.418l4.434,-16.211Z" style="fill:rgb(213,213,213);"/>
                <path d="M879.598,332.379l-7.734,5.817l-1.434,-10.133l-16.494,9.137l9.137,-16.494l-10.134,-1.434l6.152,-8.179l-18.124,-5.202l18.124,-5.202l-6.152,-8.18l10.134,-1.433l-9.137,-16.495l16.494,9.138l1.434,-10.134l8.179,6.152l5.202,-18.124l5.202,18.124l8.179,-6.152l1.434,10.134l0.94,-0.521l0.24,2.231l-20.473,-4.252c-0.913,-0.19 -1.841,0.241 -2.286,1.06c-0.445,0.818 -0.301,1.832 0.355,2.494l14.709,14.862l-11.747,5.94c-0.728,0.369 -1.179,1.124 -1.158,1.94c0.021,0.816 0.511,1.547 1.257,1.877l12.039,5.324l-13.92,15.604c-0.518,0.581 -0.667,1.388 -0.418,2.101Zm33.172,-55.701l1.854,-1.027l-0.519,1.899l-1.335,-0.872Zm3.267,60.235l-1.248,-0.691l0.821,-0.6l0.427,1.291Zm-13.731,-7.606l-1.071,-0.593l1.12,-0.294l-0.049,0.887Zm-2.387,-0.248l-1.293,9.137l-8.179,-6.151l-5.202,18.124l-4.796,-16.708c0.487,0.313 1.094,0.421 1.68,0.267l17.79,-4.669Z" style="fill:rgb(213,213,213);"/>
                <path d="M985.159,479.181l5.715,7.617l3.712,-5.343l0.885,6.445l8.549,-4.195l-5.478,7.789l6.229,1.88l-5.857,2.833l6.632,6.834l-9.101,-2.803l0.138,6.504l-4.505,-4.694l-4.45,8.419l-0.147,-9.521l-6.143,2.14l3.072,-5.734l-9.382,-1.631l9.01,-3.082l-3.934,-5.181l6.403,1.15l-1.348,-9.427Z" style="fill:rgb(213,213,213);stroke:rgb(213,213,213);stroke-width:6.25px;stroke-linecap:butt;stroke-miterlimit:2;"/>
                <path d="M901.721,708.322l1.4,11.485l3.821,-2.851l0.356,4.754l9.585,-6.48l-6.31,9.698l4.759,0.272l-2.783,3.871l11.508,1.197l-11.067,3.373l3.47,3.268l-4.619,1.176l8.045,8.314l-10.645,-4.53l0.557,4.734l-4.295,-2.068l0.82,11.54l-5.243,-10.313l-2.616,3.985l-1.961,-4.345l-6.79,9.367l2.613,-11.271l-4.566,1.372l1.291,-4.589l-11.223,2.811l9.246,-6.954l-4.378,-1.884l3.938,-2.686l-10.404,-5.061l11.553,0.616l-2.143,-4.258l4.743,0.475l-4.717,-10.565l8.454,7.899l1.096,-4.64l3.328,3.413l3.177,-11.125Z" style="fill:rgb(213,213,213);stroke:rgb(213,213,213);stroke-width:3.33px;stroke-linecap:butt;stroke-miterlimit:2;"/>
                <path d="M997.591,457.208l1.928,3.721l2.824,1.814l-2.824,1.815l-1.928,3.721l-1.927,-3.721l-2.824,-1.815l2.824,-1.814l1.927,-3.721Z" style="fill:rgb(213,213,213);stroke:rgb(213,213,213);stroke-width:6.25px;stroke-linecap:butt;stroke-miterlimit:2;"/>
                <path d="M1079.82,596.175l-0.319,14.01l9.816,-0.27l-6.12,7.68l11.384,8.173l-14.01,-0.319l0.269,9.816l-7.68,-6.12l-8.172,11.384l0.318,-14.01l-9.816,0.269l6.12,-7.679l-11.384,-8.173l14.01,0.319l-0.269,-9.817l7.68,6.12l8.173,-11.383Z" style="fill:rgb(213,213,213);stroke:rgb(213,213,213);stroke-width:6.25px;stroke-linecap:butt;stroke-miterlimit:2;"/>
                <path d="M672.708,614.887l3.837,11.18l8.262,1.023l-4.227,7.172l6.522,9.859l-11.601,-2.267l-5.017,6.643l-4.098,-7.246l-11.798,0.719l7.763,-8.914l-3.245,-7.666l8.325,0.074l5.277,-10.577Z" style="fill:rgb(213,213,213);stroke:rgb(213,213,213);stroke-width:6.25px;stroke-linecap:butt;stroke-miterlimit:2;"/>
                <path d="M807.009,503.986l4.043,14.262c0.043,0.153 0.107,0.292 0.187,0.407c0.08,0.115 0.174,0.203 0.277,0.26l9.557,5.272l-9.235,5.817c-0.1,0.062 -0.189,0.156 -0.262,0.275c-0.073,0.12 -0.129,0.262 -0.163,0.417l-3.21,14.473l-4.043,-14.262c-0.043,-0.154 -0.107,-0.292 -0.187,-0.407c-0.08,-0.115 -0.174,-0.204 -0.277,-0.26l-9.557,-5.272l9.236,-5.817c0.099,-0.063 0.188,-0.156 0.261,-0.276c0.073,-0.119 0.129,-0.261 0.164,-0.417l3.209,-14.472Z" style="fill:rgb(213,213,213);stroke:rgb(213,213,213);stroke-width:6.25px;"/>
                <path d="M1030.08,601.79l2.941,5.136c0.023,0.041 0.05,0.078 0.08,0.108c0.029,0.031 0.06,0.055 0.093,0.073l4.07,2.212l-2.912,3.603c-0.023,0.029 -0.043,0.064 -0.058,0.103c-0.015,0.04 -0.026,0.084 -0.032,0.13l-0.748,5.872l-2.94,-5.137c-0.024,-0.041 -0.051,-0.077 -0.08,-0.108c-0.029,-0.031 -0.061,-0.055 -0.093,-0.073l-4.07,-2.212l2.911,-3.603c0.024,-0.029 0.043,-0.063 0.058,-0.103c0.016,-0.039 0.027,-0.083 0.033,-0.13l0.747,-5.871Z" style="fill:rgb(213,213,213);stroke:rgb(213,213,213);stroke-width:6.25px;"/>
                <path d="M713.647,411.432l1.938,-2.769c0.015,-0.022 0.029,-0.05 0.04,-0.083c0.012,-0.033 0.021,-0.07 0.027,-0.11l0.81,-5.072l1.403,4.941c0.011,0.039 0.025,0.075 0.04,0.106c0.015,0.031 0.032,0.057 0.05,0.077l2.251,2.521l-1.938,2.769c-0.015,0.022 -0.029,0.05 -0.04,0.083c-0.012,0.032 -0.021,0.07 -0.027,0.11l-0.81,5.072l-1.403,-4.941c-0.011,-0.039 -0.025,-0.075 -0.04,-0.106c-0.015,-0.031 -0.032,-0.058 -0.05,-0.078l-2.251,-2.52Z" style="fill:rgb(213,213,213);stroke:rgb(213,213,213);stroke-width:6.25px;"/>
                <path d="M1097.46,632.247l1.082,5.96c0.013,0.07 0.032,0.133 0.056,0.185c0.023,0.052 0.051,0.09 0.08,0.112l2.482,1.863l-2.287,2.098c-0.027,0.024 -0.051,0.065 -0.069,0.119c-0.019,0.054 -0.031,0.119 -0.037,0.19l-0.493,6.037l-1.082,-5.959c-0.012,-0.071 -0.031,-0.134 -0.055,-0.186c-0.023,-0.052 -0.051,-0.09 -0.08,-0.112l-2.482,-1.863l2.287,-2.098c0.027,-0.024 0.051,-0.065 0.069,-0.119c0.018,-0.054 0.031,-0.119 0.037,-0.19l0.492,-6.037Z" style="fill:rgb(213,213,213);stroke:rgb(213,213,213);stroke-width:6.25px;"/>
                <path d="M1119.49,388.539l3.121,9.947c0.062,0.198 0.2,0.368 0.386,0.475c0.186,0.107 0.406,0.144 0.617,0.103l10.572,-2.04l-5.114,9.052c-0.102,0.181 -0.129,0.392 -0.075,0.593c0.054,0.2 0.184,0.375 0.366,0.489l9.083,5.731l-10.354,2.855c-0.206,0.057 -0.382,0.187 -0.492,0.363c-0.109,0.176 -0.145,0.387 -0.099,0.589l2.273,10.145l-9.529,-5.015c-0.19,-0.1 -0.411,-0.128 -0.62,-0.079c-0.209,0.049 -0.39,0.171 -0.507,0.343l-5.868,8.617l-3.122,-9.947c-0.062,-0.199 -0.2,-0.368 -0.385,-0.476c-0.186,-0.107 -0.406,-0.144 -0.617,-0.103l-10.573,2.04l5.114,-9.052c0.102,-0.18 0.129,-0.392 0.075,-0.593c-0.054,-0.2 -0.184,-0.375 -0.365,-0.489l-9.084,-5.731l10.354,-2.855c0.207,-0.057 0.382,-0.186 0.492,-0.363c0.109,-0.176 0.145,-0.386 0.1,-0.589l-2.273,-10.145l9.528,5.015c0.19,0.1 0.412,0.128 0.62,0.079c0.209,-0.048 0.39,-0.171 0.507,-0.343l5.869,-8.616Z" style="fill:rgb(213,213,213);stroke:rgb(213,213,213);stroke-width:6.25px;"/>
                <path d="M747.177,396.285l4.162,6.639c0.069,0.111 0.172,0.2 0.294,0.256c0.122,0.056 0.259,0.077 0.393,0.06l8.029,-1.032l-2.84,7.246c-0.047,0.122 -0.056,0.254 -0.026,0.38c0.03,0.126 0.098,0.241 0.196,0.331l5.85,5.352l-7.702,2.397c-0.129,0.041 -0.243,0.116 -0.327,0.217c-0.085,0.101 -0.136,0.224 -0.149,0.353l-0.733,7.705l-6.765,-4.256c-0.114,-0.071 -0.246,-0.109 -0.382,-0.109c-0.135,-0 -0.268,0.038 -0.381,0.109l-6.766,4.256l-0.733,-7.705c-0.013,-0.129 -0.064,-0.252 -0.149,-0.353c-0.084,-0.101 -0.198,-0.176 -0.327,-0.217l-7.702,-2.397l5.85,-5.352c0.098,-0.09 0.166,-0.205 0.196,-0.331c0.031,-0.126 0.021,-0.258 -0.026,-0.38l-2.84,-7.246l8.029,1.032c0.135,0.017 0.271,-0.004 0.393,-0.06c0.123,-0.056 0.225,-0.145 0.295,-0.256l4.161,-6.639Z" style="fill:rgb(213,213,213);stroke:rgb(213,213,213);stroke-width:6.25px;"/>
            </g>
            <g id="Controls">
                <g id="_1900h" serif:id="1900h">
                    <circle cx="900" cy="425.61" r="50.7" style="fill:rgb(131,133,136);"/>
                    <rect x="898.156" y="381.023" width="3.687" height="35.149" style="fill:white;"/>
                </g>
                <g id="_1900h1" serif:id="1900h">
                    <circle cx="900" cy="604.212" r="50.7" style="fill:rgb(131,133,136);"/>
                    <rect x="898.156" y="559.624" width="3.687" height="35.149" style="fill:white;"/>
                </g>
                <g id="_1900h2" serif:id="1900h">
                    <circle cx="714.524" cy="502.812" r="50.7" style="fill:rgb(131,133,136);"/>
                    <rect x="712.681" y="458.224" width="3.687" height="35.149" style="fill:white;"/>
                </g>
                <g id="_1900h3" serif:id="1900h">
                    <circle cx="1085.24" cy="502.812" r="50.7" style="fill:rgb(131,133,136);"/>
                    <rect x="1083.39" y="458.224" width="3.687" height="35.149" style="fill:white;"/>
                </g>
                <g id="Large-MXR" serif:id="Large MXR">
                    <circle cx="748.053" cy="255.553" r="99.803" style="fill:rgb(131,133,136);"/>
                    <rect x="743.882" y="180.819" width="8.341" height="69.654" style="fill:white;"/>
                    <circle cx="748.053" cy="165.322" r="4.171" style="fill:white;"/>
                </g>
                <g id="Large-MXR1" serif:id="Large MXR">
                    <circle cx="1051.95" cy="255.553" r="99.803" style="fill:rgb(131,133,136);"/>
                    <rect x="1047.78" y="180.819" width="8.341" height="69.654" style="fill:white;"/>
                    <circle cx="1051.95" cy="165.322" r="4.171" style="fill:white;"/>
                </g>
                <g id="_1RWHT" serif:id="1RWHT">
                    <ellipse cx="899.759" cy="797.492" rx="20.779" ry="20.813" style="fill:rgb(213,213,213);"/>
                </g>
                <g id="Tall-Trimmer" serif:id="Tall Trimmer">
                    <circle cx="788.917" cy="734.624" r="23.953" style="fill:rgb(131,133,136);"/>
                    <rect x="786.583" y="710.671" width="4.667" height="12.839" style="fill:white;"/>
                </g>
                <g id="Tall-Trimmer1" serif:id="Tall Trimmer">
                    <circle cx="678.335" cy="734.624" r="23.953" style="fill:rgb(131,133,136);"/>
                    <rect x="676.002" y="710.671" width="4.667" height="12.839" style="fill:white;"/>
                </g>
                <g id="Tall-Trimmer2" serif:id="Tall Trimmer">
                    <circle cx="788.917" cy="855.164" r="23.953" style="fill:rgb(131,133,136);"/>
                    <rect x="786.583" y="831.211" width="4.667" height="12.839" style="fill:white;"/>
                </g>
                <g id="Tall-Trimmer3" serif:id="Tall Trimmer">
                    <circle cx="1119.57" cy="734.624" r="23.953" style="fill:rgb(131,133,136);"/>
                    <rect x="1117.23" y="710.671" width="4.667" height="12.839" style="fill:white;"/>
                </g>
                <g id="Tall-Trimmer4" serif:id="Tall Trimmer">
                    <circle cx="1009.54" cy="855.164" r="23.953" style="fill:rgb(131,133,136);"/>
                    <rect x="1007.21" y="831.211" width="4.667" height="12.839" style="fill:white;"/>
                </g>
                <g id="Tall-Trimmer5" serif:id="Tall Trimmer">
                    <circle cx="1008.96" cy="734.624" r="23.953" style="fill:rgb(131,133,136);"/>
                    <rect x="1006.62" y="710.671" width="4.667" height="12.839" style="fill:white;"/>
                </g>
            </g>
        </g>
        <g id="_1900h4" serif:id="1900h">
            <path d="M874.65,469.518c-24.233,-13.992 -32.549,-45.025 -18.558,-69.258c13.991,-24.233 45.025,-32.549 69.258,-18.558c24.233,13.991 32.549,45.025 18.558,69.258c-13.991,24.233 -45.025,32.549 -69.258,18.558Z" style="fill:rgb(131,133,136);"/>
            <path d="M876.11,463.302l3.193,1.844l17.575,-30.44l-3.194,-1.844l-17.574,30.44Z" style="fill:white;"/>
        </g>
        <g id="_1900h5" serif:id="1900h">
            <circle cx="714.524" cy="502.811" r="50.7" style="fill:rgb(131,133,136);"/>
            <rect x="712.68" y="458.223" width="3.687" height="35.149" style="fill:white;"/>
        </g>
        <g id="_1900h6" serif:id="1900h">
            <circle cx="900.001" cy="604.213" r="50.7" style="fill:rgb(131,133,136);"/>
            <rect x="898.157" y="559.625" width="3.687" height="35.149" style="fill:white;"/>
        </g>
        <g id="_1900h7" serif:id="1900h">
            <circle cx="1085.48" cy="502.812" r="50.7" style="fill:rgb(131,133,136);"/>
            <rect x="1083.63" y="458.225" width="3.687" height="35.149" style="fill:white;"/>
        </g>
        <g id="Large-MXR2" serif:id="Large MXR">
            <circle cx="748.053" cy="255.553" r="99.803" style="fill:rgb(131,133,136);"/>
            <rect x="743.882" y="180.819" width="8.341" height="69.654" style="fill:white;"/>
            <circle cx="748.053" cy="165.322" r="4.171" style="fill:white;"/>
        </g>
        <g id="Large-MXR3" serif:id="Large MXR">
            <circle cx="1054.58" cy="255.553" r="99.803" style="fill:rgb(131,133,136);"/>
            <rect x="1050.41" y="180.819" width="8.341" height="69.654" style="fill:white;"/>
            <circle cx="1054.58" cy="165.322" r="4.171" style="fill:white;"/>
        </g>
        <g id="Tall-Trimmer6" serif:id="Tall Trimmer">
            <path d="M690.312,755.368c-11.449,6.61 -26.11,2.681 -32.72,-8.768c-6.61,-11.448 -2.682,-26.11 8.767,-32.72c11.449,-6.61 26.11,-2.681 32.72,8.768c6.61,11.448 2.682,26.11 -8.767,32.72Z" style="fill:rgb(131,133,136);"/>
            <path d="M688.291,756.535l4.042,-2.334l-6.42,-11.119l-4.042,2.334l6.42,11.119Z" style="fill:white;"/>
        </g>
        <g id="Tall-Trimmer7" serif:id="Tall Trimmer">
            <circle cx="788.917" cy="734.624" r="23.953" style="fill:rgb(131,133,136);"/>
            <rect x="786.583" y="710.671" width="4.667" height="12.839" style="fill:white;"/>
        </g>
        <g id="Tall-Trimmer8" serif:id="Tall Trimmer">
            <circle cx="788.917" cy="855.164" r="23.953" style="fill:rgb(131,133,136);"/>
            <rect x="786.583" y="831.211" width="4.667" height="12.839" style="fill:white;"/>
        </g>
        <g id="Tall-Trimmer9" serif:id="Tall Trimmer">
            <circle cx="1009.54" cy="855.164" r="23.953" style="fill:rgb(131,133,136);"/>
            <rect x="1007.21" y="831.211" width="4.667" height="12.839" style="fill:white;"/>
        </g>
        <g id="Tall-Trimmer10" serif:id="Tall Trimmer">
            <circle cx="1009.54" cy="734.624" r="23.953" style="fill:rgb(131,133,136);"/>
            <rect x="1007.21" y="710.671" width="4.667" height="12.839" style="fill:white;"/>
        </g>
        <g id="Tall-Trimmer11" serif:id="Tall Trimmer">
            <path d="M1131.54,755.368c-11.449,6.61 -26.11,2.681 -32.72,-8.768c-6.61,-11.448 -2.681,-26.11 8.767,-32.72c11.449,-6.61 26.111,-2.681 32.721,8.768c6.609,11.448 2.681,26.11 -8.768,32.72Z" style="fill:rgb(131,133,136);"/>
            <path d="M1129.52,756.535l4.042,-2.334l-6.419,-11.119l-4.043,2.334l6.42,11.119Z" style="fill:white;"/>
        </g>
        <g>
            <path d="M748.053,85.784l25.405,43.209l-50.81,0l25.405,-43.209Z" style="fill:rgb(230,33,109);stroke:rgb(230,33,109);stroke-width:10.42px;"/>
            <circle cx="748.053" cy="256.286" r="127.293" style="fill:none;stroke:rgb(230,33,109);stroke-width:10.42px;"/>
        </g>
        <g>
            <path d="M714.524,415.587l13.064,22.175l-26.129,-0l13.065,-22.175Z" style="fill:rgb(230,33,109);stroke:rgb(230,33,109);stroke-width:10.42px;"/>
            <ellipse cx="714.524" cy="503.09" rx="65.459" ry="65.328" style="fill:none;stroke:rgb(230,33,109);stroke-width:10.42px;"/>
        </g>
        <g>
            <path d="M714.524,415.587l13.064,22.175l-26.129,-0l13.065,-22.175Z" style="fill:rgb(230,33,109);stroke:rgb(230,33,109);stroke-width:10.42px;"/>
            <ellipse cx="714.524" cy="503.09" rx="65.459" ry="65.328" style="fill:none;stroke:rgb(230,33,109);stroke-width:10.42px;"/>
        </g>
        <g>
            <path d="M1085.48,415.587l13.065,22.175l-26.129,-0l13.064,-22.175Z" style="fill:rgb(125,97,186);stroke:rgb(125,97,186);stroke-width:10.42px;"/>
            <ellipse cx="1085.48" cy="503.09" rx="65.459" ry="65.328" style="fill:none;stroke:rgb(125,97,186);stroke-width:10.42px;"/>
        </g>
        <g>
            <path d="M900,515.985l13.064,22.175l-26.128,0l13.064,-22.175Z" style="fill:rgb(64,140,148);stroke:rgb(64,140,148);stroke-width:10.42px;"/>
            <ellipse cx="900" cy="603.488" rx="65.459" ry="65.328" style="fill:none;stroke:rgb(64,140,148);stroke-width:10.42px;"/>
        </g>
        <g>
            <path d="M856.633,501.433l-0.226,-25.737l22.628,13.065l-22.402,12.672Z" style="fill:rgb(64,140,148);stroke:rgb(64,140,148);stroke-width:10.42px;"/>
            <path d="M867.721,482.228c-31.288,-18.063 -42.053,-58.08 -24.025,-89.305c18.028,-31.225 58.066,-41.91 89.353,-23.847c31.288,18.064 42.053,58.081 24.025,89.306c-18.027,31.225 -58.065,41.91 -89.353,23.846Z" style="fill:none;stroke:rgb(64,140,148);stroke-width:10.42px;"/>
        </g>
        <g>
            <path d="M709.003,786.703l-15.431,-8.747l15.572,-8.99l-0.141,17.737Z" style="fill:none;stroke:rgb(230,33,109);stroke-width:10.42px;"/>
            <path d="M701.358,773.461c-21.531,12.431 -49.103,5.043 -61.533,-16.488c-12.431,-21.53 -5.043,-49.102 16.487,-61.533c21.531,-12.431 49.103,-5.043 61.534,16.488c12.43,21.53 5.042,49.103 -16.488,61.533Z" style="fill:none;stroke:rgb(230,33,109);stroke-width:10.42px;"/>
        </g>
        <g>
            <path d="M1149.74,786.703l-15.431,-8.747l15.571,-8.99l-0.14,17.737Z" style="fill:none;stroke:rgb(125,97,186);stroke-width:10.42px;"/>
            <path d="M1142.09,773.461c-21.531,12.431 -49.103,5.043 -61.534,-16.488c-12.43,-21.53 -5.043,-49.102 16.488,-61.533c21.531,-12.431 49.103,-5.043 61.533,16.488c12.431,21.53 5.043,49.103 -16.487,61.533Z" style="fill:none;stroke:rgb(125,97,186);stroke-width:10.42px;"/>
        </g>
        <path d="M922.282,1015.53c-21.531,12.431 -49.103,5.043 -61.534,-16.488c-12.43,-21.53 -5.042,-49.102 16.488,-61.533c21.531,-12.431 49.103,-5.043 61.533,16.488c12.431,21.53 5.043,49.102 -16.487,61.533Z" style="fill:none;stroke:rgb(64,140,148);stroke-width:10.42px;"/>
        <path d="M701.358,1015.53c-21.531,12.431 -49.103,5.043 -61.533,-16.488c-12.431,-21.53 -5.043,-49.102 16.487,-61.533c21.531,-12.431 49.103,-5.043 61.534,16.488c12.43,21.53 5.042,49.102 -16.488,61.533Z" style="fill:none;stroke:rgb(196,3,37);stroke-width:10.42px;"/>
        <g id="Left-in" serif:id="Left in">
            <path d="M888.066,1164.8l-0.002,-5.339l-4.523,-0.142l-0.007,-20.66l4.523,0.142l-0.002,-5.379l-5.149,-0.161l-0.002,-7.602c-1.679,-0.484 -2.924,-2.074 -2.925,-3.919l-0.023,-69.677c-0.001,-2.177 1.733,-3.891 3.87,-3.824l1.925,0.061l-0.001,-2.711l6.207,0.195l-0.014,-41.795l0.782,0.025l-0.002,-5.184c-0.001,-1.216 0.968,-2.173 2.161,-2.135l-0.564,-0.018l-0.82,-14.75l4.367,-5.404l5.234,0.155l4.347,5.543l-1.454,14.823l0.276,0.008c1.193,0.038 2.163,1.056 2.163,2.272l0.002,5.184l0.507,0.015l0.015,41.795l6.192,0.194l0.001,2.712l1.988,0.062c2.137,0.067 3.872,1.89 3.872,4.067l0.024,69.678c0,1.774 -1.151,3.241 -2.734,3.686l0.003,7.656l-5.313,-0.167l0.002,5.379l4.578,0.143l0.007,20.66l-4.578,-0.143l0.002,5.339l-24.002,-0.755l28.58,0.899l0.007,19.526c0,0.632 -0.503,1.129 -1.122,1.109l-31.791,-0.365c-0.62,-0.02 -1.123,-0.548 -1.123,-1.18l-0.007,-20.16l4.523,0.142Zm0.007,21.304l24.935,0.15l-24.935,-0.15Z" style="fill:rgb(102,173,181);"/>
            <path d="M892.724,1000.18l0,3.963l15.71,0l-0,-3.963l-15.71,-0Z" style="fill:rgb(244,244,245);"/>
            <path d="M890.528,1182.88l-0,409.563l19.934,0l0,-409.563l-19.934,-0Z" style="fill:rgb(102,173,181);"/>
        </g>
        <g id="Left-in1" serif:id="Left in">
            <path d="M665.906,1164.8l-0.002,-5.339l-4.522,-0.142l-0.007,-20.66l4.523,0.142l-0.002,-5.379l-5.149,-0.161l-0.002,-7.602c-1.68,-0.484 -2.924,-2.074 -2.925,-3.919l-0.024,-69.677c-0,-2.177 1.734,-3.891 3.87,-3.824l1.925,0.061l-0.001,-2.711l6.208,0.195l-0.014,-41.795l0.781,0.025l-0.002,-5.184c0,-1.216 0.968,-2.173 2.162,-2.135l-0.565,-0.018l-0.82,-14.75l4.368,-5.404l5.234,0.155l4.347,5.543l-1.454,14.823l0.276,0.008c1.193,0.038 2.162,1.056 2.163,2.272l0.001,5.184l0.508,0.015l0.014,41.795l6.193,0.194l0.001,2.712l1.988,0.062c2.136,0.067 3.871,1.89 3.872,4.067l0.023,69.678c0.001,1.774 -1.151,3.241 -2.733,3.686l0.002,7.656l-5.312,-0.167l0.002,5.379l4.578,0.143l0.007,20.66l-4.578,-0.143l0.001,5.339l-24.002,-0.755l28.581,0.899l0.007,19.526c-0,0.632 -0.503,1.129 -1.123,1.109l-31.791,-0.365c-0.619,-0.02 -1.123,-0.548 -1.123,-1.18l-0.007,-20.16l4.523,0.142Zm0.007,21.304l24.936,0.15l-24.936,-0.15Z" style="fill:rgb(230,33,109);"/>
            <path d="M670.565,1000.18l-0,3.963l15.709,0l0,-3.963l-15.709,-0Z" style="fill:rgb(244,244,245);"/>
            <path d="M668.368,1182.88l0,409.563l19.935,0l-0,-409.563l-19.935,-0Z" style="fill:rgb(230,33,109);"/>
        </g>
        <g>
            <path d="M1139.28,368.767l-21.251,-6.054l6.054,-21.252" style="fill:none;stroke:rgb(125,97,186);stroke-width:10.42px;stroke-linejoin:miter;stroke-miterlimit:10;"/>
            <path d="M1105.29,142.622c43.28,19.409 73.458,62.887 73.458,113.357c0,45.356 -24.372,85.065 -60.722,106.734" style="fill:none;stroke:rgb(125,97,186);stroke-width:10.42px;"/>
            <path d="M984.181,341.461l6.054,21.252l-21.251,6.054" style="fill:none;stroke:rgb(125,97,186);stroke-width:10.42px;stroke-linejoin:miter;stroke-miterlimit:10;"/>
            <path d="M1002.97,142.622c-43.28,19.409 -73.458,62.887 -73.458,113.357c-0,45.356 24.371,85.065 60.722,106.734" style="fill:none;stroke:rgb(125,97,186);stroke-width:10.42px;"/>
            <path d="M1054.58,85.784l25.405,43.209l-50.81,0l25.405,-43.209Z" style="fill:rgb(125,97,186);stroke:rgb(125,97,186);stroke-width:10.42px;"/>
        </g>
    </g>
</svg>
