<?xml version="1.0" encoding="UTF-8" standalone="no"?><!DOCTYPE svg PUBLIC "-//W3C//DTD SVG 1.1//EN" "http://www.w3.org/Graphics/SVG/1.1/DTD/svg11.dtd"><svg width="100%" height="100%" viewBox="0 0 432 288" version="1.1" xmlns="http://www.w3.org/2000/svg" xmlns:xlink="http://www.w3.org/1999/xlink" xml:space="preserve" xmlns:serif="http://www.serif.com/" style="fill-rule:evenodd;clip-rule:evenodd;stroke-linecap:round;stroke-linejoin:round;stroke-miterlimit:1.5;"><rect id="Artboard1" x="0" y="0" width="432" height="288" style="fill:none;"/><g id="Artboard11" serif:id="Artboard1"><g id="Base"><rect id="Outline" x="168.508" y="57.803" width="94.984" height="172.394" style="fill:none;stroke:#0c0c0c;stroke-width:1px;"/><path id="Mounting-holes" serif:id="Mounting holes" d="M181.253,226.172c-0,-1.296 -1.052,-2.348 -2.348,-2.348l-0.671,0c-1.295,0 -2.347,1.052 -2.347,2.348c-0,1.296 1.052,2.348 2.347,2.348l0.671,0c1.296,0 2.348,-1.052 2.348,-2.348Zm-0,-164.344c-0,-1.296 -1.052,-2.348 -2.348,-2.348l-0.671,-0c-1.295,-0 -2.347,1.052 -2.347,2.348c-0,1.296 1.052,2.348 2.347,2.348l0.671,-0c1.296,-0 2.348,-1.052 2.348,-2.348Zm74.968,164.344c-0,-1.296 -1.052,-2.348 -2.348,-2.348l-0.671,0c-1.296,0 -2.348,1.052 -2.348,2.348c0,1.296 1.052,2.348 2.348,2.348l0.671,0c1.296,0 2.348,-1.052 2.348,-2.348Zm-0,-164.344c-0,-1.296 -1.052,-2.348 -2.348,-2.348l-0.671,-0c-1.296,-0 -2.348,1.052 -2.348,2.348c0,1.296 1.052,2.348 2.348,2.348l0.671,-0c1.296,-0 2.348,-1.052 2.348,-2.348Z" style="fill:#d5d5d5;"/><g id="Legend"><path d="M179.964,217.55c-0.008,0.189 0.053,0.282 0.185,0.278c0.079,-0 0.14,-0.014 0.181,-0.042l-0,0.511c-0.05,0.017 -0.114,0.028 -0.194,0.032c-0.084,0.009 -0.155,0.013 -0.211,0.013c-0.155,-0.004 -0.277,-0.061 -0.365,-0.171c-0.097,-0.106 -0.146,-0.234 -0.146,-0.385l-0.013,-0c-0.269,0.371 -0.638,0.556 -1.106,0.556c-0.503,-0.008 -0.878,-0.189 -1.126,-0.54c-0.252,-0.341 -0.379,-0.75 -0.379,-1.226c0,-0.488 0.122,-0.907 0.366,-1.259c0.242,-0.358 0.623,-0.541 1.145,-0.55c0.464,0 0.829,0.188 1.094,0.563l0.013,0l-0,-0.498l0.556,-0l0,2.718Zm-1.575,0.317c0.172,-0 0.32,-0.04 0.443,-0.12c0.119,-0.076 0.218,-0.177 0.298,-0.304c0.155,-0.261 0.232,-0.548 0.232,-0.861c0,-0.349 -0.071,-0.657 -0.213,-0.922c-0.145,-0.269 -0.408,-0.409 -0.789,-0.417c-0.339,0.008 -0.586,0.145 -0.741,0.411c-0.156,0.261 -0.233,0.55 -0.233,0.867c-0,0.336 0.077,0.639 0.233,0.909c0.155,0.282 0.412,0.428 0.77,0.437Z" style="fill:#838588;fill-rule:nonzero;"/><path d="M178.008,104.184c-0.01,0.217 0.06,0.323 0.211,0.318c0.091,-0 0.16,-0.016 0.207,-0.048l-0,0.584c-0.057,0.02 -0.131,0.032 -0.222,0.037c-0.096,0.01 -0.176,0.015 -0.241,0.015c-0.177,-0.005 -0.316,-0.071 -0.417,-0.196c-0.111,-0.121 -0.167,-0.268 -0.167,-0.44l-0.015,-0c-0.308,0.424 -0.729,0.636 -1.264,0.636c-0.574,-0.01 -1.003,-0.216 -1.287,-0.618c-0.288,-0.389 -0.432,-0.856 -0.432,-1.401c-0,-0.557 0.139,-1.037 0.417,-1.439c0.276,-0.409 0.713,-0.618 1.309,-0.628c0.53,-0 0.947,0.214 1.25,0.643l0.015,0l-0,-0.569l0.636,-0l-0,3.106Zm-1.801,0.362c0.197,0 0.366,-0.045 0.507,-0.137c0.135,-0.086 0.249,-0.202 0.34,-0.347c0.177,-0.299 0.266,-0.626 0.266,-0.984c0,-0.399 -0.081,-0.75 -0.244,-1.054c-0.165,-0.308 -0.466,-0.467 -0.902,-0.477c-0.387,0.01 -0.669,0.167 -0.847,0.47c-0.177,0.298 -0.266,0.629 -0.266,0.991c-0,0.384 0.089,0.731 0.266,1.039c0.178,0.323 0.471,0.489 0.88,0.499Z" style="fill:#838588;fill-rule:nonzero;"/><path d="M251.951,221.013l-0.589,0l-0,-4.542c-0,-1.016 0.499,-1.534 1.498,-1.553c0.392,-0 0.719,0.097 0.98,0.291c0.261,0.2 0.394,0.486 0.398,0.857c-0.004,0.583 -0.274,0.956 -0.809,1.12l0,0.013c0.675,0.105 1.018,0.5 1.029,1.184c-0.004,0.403 -0.124,0.735 -0.359,0.996c-0.244,0.263 -0.573,0.397 -0.987,0.401c-0.252,0 -0.465,-0.036 -0.637,-0.11c-0.177,-0.075 -0.352,-0.208 -0.524,-0.398l-0,1.741Zm0.009,-2.896c0,0.156 0.015,0.305 0.046,0.447c0.03,0.136 0.081,0.261 0.152,0.375c0.075,0.112 0.181,0.199 0.317,0.259c0.133,0.071 0.304,0.107 0.511,0.107c0.278,-0 0.495,-0.091 0.65,-0.272c0.149,-0.172 0.223,-0.396 0.223,-0.67c-0.004,-0.325 -0.105,-0.557 -0.304,-0.695c-0.198,-0.128 -0.445,-0.191 -0.741,-0.191c-0.112,0.004 -0.225,0.011 -0.339,0.019l-0,-0.498c0.097,0 0.19,-0.002 0.278,-0.006c0.248,-0.005 0.458,-0.073 0.631,-0.204c0.168,-0.13 0.254,-0.338 0.259,-0.625c-0.013,-0.511 -0.285,-0.766 -0.816,-0.766c-0.306,0.004 -0.527,0.094 -0.663,0.271c-0.136,0.181 -0.204,0.426 -0.204,0.735l0,1.714Z" style="fill:#838588;fill-rule:nonzero;"/><path d="M253.704,106.726l-0.673,-0l-0,-5.192c-0,-1.161 0.57,-1.752 1.712,-1.774c0.448,-0 0.822,0.111 1.12,0.332c0.298,0.23 0.45,0.556 0.455,0.98c-0.005,0.666 -0.313,1.092 -0.924,1.28l-0,0.014c0.771,0.121 1.163,0.572 1.175,1.354c-0.005,0.461 -0.141,0.84 -0.41,1.139c-0.279,0.3 -0.655,0.453 -1.128,0.458c-0.288,0 -0.531,-0.042 -0.728,-0.126c-0.202,-0.086 -0.402,-0.238 -0.599,-0.454l-0,1.989Zm0.011,-3.309c-0,0.177 0.017,0.347 0.052,0.51c0.034,0.155 0.092,0.298 0.173,0.429c0.087,0.128 0.207,0.226 0.363,0.295c0.153,0.082 0.347,0.123 0.584,0.123c0.318,-0 0.566,-0.104 0.743,-0.311c0.17,-0.197 0.255,-0.452 0.255,-0.765c-0.005,-0.373 -0.12,-0.638 -0.347,-0.795c-0.227,-0.146 -0.509,-0.219 -0.847,-0.219c-0.128,0.005 -0.258,0.013 -0.388,0.023l-0,-0.57c0.111,0 0.217,-0.002 0.318,-0.007c0.283,-0.005 0.524,-0.083 0.721,-0.233c0.192,-0.148 0.291,-0.386 0.296,-0.714c-0.015,-0.584 -0.326,-0.876 -0.932,-0.876c-0.35,0.005 -0.603,0.108 -0.758,0.31c-0.155,0.208 -0.233,0.487 -0.233,0.84l-0,1.96Z" style="fill:#838588;fill-rule:nonzero;"/><path d="M216.403,129.121c0.446,-0.015 0.788,-0.153 1.024,-0.415c0.232,-0.268 0.348,-0.615 0.348,-1.039c-0.005,-0.907 -0.462,-1.401 -1.372,-1.482l0,2.936Zm-0.68,0.591c-0.589,-0.01 -1.081,-0.191 -1.476,-0.543c-0.404,-0.35 -0.611,-0.825 -0.621,-1.424c0,-0.646 0.186,-1.163 0.559,-1.553c0.369,-0.394 0.882,-0.594 1.538,-0.599l-0,-0.614l0.68,0l0,0.614c0.663,0.005 1.178,0.205 1.546,0.599c0.364,0.39 0.549,0.907 0.554,1.553c-0.01,0.599 -0.214,1.074 -0.614,1.424c-0.394,0.352 -0.889,0.533 -1.486,0.543l0,0.614l-0.68,-0l-0,-0.614Zm-0,-3.527c-0.915,0.081 -1.372,0.575 -1.372,1.482c-0,0.424 0.122,0.771 0.366,1.039c0.232,0.262 0.567,0.4 1.006,0.415l-0,-2.936Z" style="fill:#838588;fill-rule:nonzero;"/><g><path d="M186.902,141.29l-3.33,0.01l-0.021,-2.875l-1.124,0l0,2.865" style="fill:none;stroke:#fff;stroke-width:1.5px;"/><path d="M186.063,138.941l0.677,0.677l-0.677,0.677" style="fill:none;stroke:#fff;stroke-width:0.71px;stroke-linejoin:miter;stroke-miterlimit:10;"/><path d="M183.581,139.618l3.159,0" style="fill:none;stroke:#fff;stroke-width:0.71px;stroke-dasharray:0.01,0.85,0,0;stroke-dashoffset:3.55;"/></g><g><path d="M245.057,141.29l3.331,0.01l0.021,-2.875l1.124,0l-0,2.865" style="fill:none;stroke:#fff;stroke-width:1.5px;"/><path d="M245.896,140.295l-0.677,-0.677l0.677,-0.677" style="fill:none;stroke:#fff;stroke-width:0.71px;stroke-linejoin:miter;stroke-miterlimit:10;"/><path d="M248.379,139.618l-3.16,0" style="fill:none;stroke:#fff;stroke-width:0.71px;stroke-dasharray:0.01,0.85,0,0;stroke-dashoffset:3.55;"/></g><path d="M216.845,157.57l-0,-0.062l-1.342,-1.801l2.3,-0l-0,-0.843l-3.713,-0l0,0.562l1.657,2.111l-1.657,2.148l0,0.559l3.82,-0l-0,-0.828l-2.426,-0l1.361,-1.846Z" style="fill:#838588;fill-rule:nonzero;"/><path d="M197.335,214.783l-0.486,1.294l-1.221,-0l1.032,0.776l-0.497,1.305l1.172,-0.882l1.175,0.882l-0.5,-1.305l1.032,-0.776l-1.225,-0l-0.482,-1.294Z" style="fill:#838588;fill-rule:nonzero;"/><path d="M234.308,214.554l-0.552,1.47l-1.386,-0l1.171,0.881l-0.564,1.481l1.331,-1l1.334,1l-0.568,-1.481l1.171,-0.881l-1.389,-0l-0.548,-1.47Zm-0,0.533l0.417,1.123l0.964,0l-0.837,0.632l0.389,1.012l-0.933,-0.699l-0.933,0.699l0.389,-1.012l-0.838,-0.632l0.961,0l0.421,-1.123Z" style="fill:#838588;fill-rule:nonzero;"/><path d="M215.128,215.282c-0.252,-0.033 -0.506,-0.089 -0.763,-0.166l0,-0.333c0.522,0.135 1.068,0.202 1.639,0.202c0.571,0 1.115,-0.067 1.631,-0.202l-0,0.338c-0.265,0.072 -0.522,0.126 -0.771,0.161l-0,2.374c0.249,0.035 0.506,0.088 0.771,0.158l-0,0.344c-0.516,-0.137 -1.06,-0.205 -1.631,-0.205c-0.571,-0 -1.117,0.068 -1.639,0.205l0,-0.333c0.257,-0.081 0.511,-0.138 0.763,-0.169l-0,-2.374Zm0.344,2.349c0.349,-0.039 0.699,-0.039 1.048,-0l-0,-2.324c-0.349,0.039 -0.699,0.039 -1.048,-0l-0,2.324Z" style="fill:#838588;fill-rule:nonzero;"/><path d="M227.355,225.942c-0.737,0.05 -1.047,0.539 -1.212,1.053c-0.145,0.453 -0.308,0.921 -0.485,1.161c-0.098,0.133 -0.207,0.202 -0.313,0.202c-0.106,-0 -0.183,-0.056 -0.233,-0.161c-0.075,-0.159 -0.074,-0.47 -0.054,-0.783c0.016,-0.245 0.04,-0.489 0.03,-0.646c-0.002,-0.023 -0.007,-0.049 -0.011,-0.068c-0.009,0.005 -0.018,0.011 -0.027,0.018c-0.035,0.027 -0.069,0.065 -0.104,0.11c-0.121,0.157 -0.24,0.394 -0.353,0.601c-0.097,0.176 -0.191,0.33 -0.274,0.407c-0.057,0.053 -0.114,0.076 -0.166,0.076c-0.098,0 -0.168,-0.059 -0.195,-0.184c-0.035,-0.158 0.014,-0.47 0.07,-0.781c0.045,-0.246 0.094,-0.493 0.095,-0.651c0.001,-0.02 -0.002,-0.042 -0.004,-0.06c-0.014,0.008 -0.027,0.02 -0.041,0.033c-0.044,0.04 -0.087,0.098 -0.131,0.168c-0.146,0.231 -0.292,0.581 -0.424,0.885c-0.11,0.25 -0.212,0.47 -0.298,0.58c-0.061,0.079 -0.127,0.111 -0.178,0.111c-0.098,-0 -0.165,-0.051 -0.203,-0.146c-0.053,-0.129 -0.033,-0.383 0.004,-0.637c0.023,-0.158 0.051,-0.316 0.063,-0.437c0.003,-0.03 0.003,-0.064 0.003,-0.091c-0.009,0.004 -0.019,0.009 -0.029,0.014c-0.08,0.041 -0.183,0.106 -0.301,0.179c-0.206,0.127 -0.453,0.272 -0.698,0.358c-0.05,0.198 -0.13,0.385 -0.236,0.531c-0.141,0.195 -0.327,0.317 -0.543,0.317c-0.191,0 -0.309,-0.096 -0.384,-0.233c-0.064,-0.116 -0.093,-0.264 -0.111,-0.397c-0.008,-0.059 -0.019,-0.13 -0.027,-0.179c-0.039,0.017 -0.091,0.04 -0.138,0.062c-0.083,0.04 -0.18,0.083 -0.284,0.118c-0.044,0.207 -0.12,0.403 -0.221,0.556c-0.133,0.201 -0.312,0.326 -0.517,0.326c-0.183,-0 -0.303,-0.102 -0.381,-0.25c-0.064,-0.123 -0.097,-0.282 -0.118,-0.422c-0.008,-0.061 -0.015,-0.117 -0.021,-0.165c-0.025,0.028 -0.052,0.062 -0.08,0.098c-0.084,0.106 -0.181,0.226 -0.291,0.307c-0.087,0.063 -0.181,0.103 -0.281,0.103c-0.181,-0 -0.321,-0.088 -0.424,-0.24c-0.084,-0.125 -0.142,-0.299 -0.174,-0.499c-0.147,0.108 -0.311,0.201 -0.471,0.286c-0.001,0.021 -0.002,0.042 -0.004,0.063c-0.021,0.222 -0.128,0.467 -0.264,0.626c-0.106,0.124 -0.231,0.196 -0.348,0.196c-0.061,-0 -0.133,-0.024 -0.195,-0.07c-0.089,-0.065 -0.16,-0.173 -0.16,-0.301c0,-0.13 0.098,-0.255 0.272,-0.369c0.13,-0.086 0.304,-0.171 0.49,-0.266c-0.012,-0.125 -0.05,-0.246 -0.111,-0.334c-0.046,-0.066 -0.105,-0.114 -0.179,-0.114c-0.23,0 -0.382,0.134 -0.492,0.302c-0.122,0.188 -0.193,0.421 -0.246,0.595c-0.038,0.121 -0.07,0.217 -0.1,0.264c-0.037,0.058 -0.084,0.076 -0.123,0.076c-0.021,-0 -0.044,-0.006 -0.066,-0.022c-0.014,-0.011 -0.038,-0.037 -0.053,-0.086c-0.025,-0.077 -0.056,-0.268 -0.08,-0.524c-0.099,0.158 -0.196,0.302 -0.287,0.425c-0.145,0.195 -0.276,0.34 -0.376,0.409c-0.062,0.044 -0.118,0.062 -0.163,0.062c-0.192,-0 -0.3,-0.135 -0.333,-0.362c-0.038,-0.255 0.022,-0.643 0.081,-0.979c0.029,-0.171 0.058,-0.328 0.07,-0.445c0.003,-0.032 0.004,-0.068 0.004,-0.094c-0.089,0.007 -0.186,0.028 -0.284,0.05c-0.065,0.357 -0.266,0.786 -0.527,1.095c-0.222,0.261 -0.487,0.435 -0.748,0.435c-0.315,0 -0.543,-0.123 -0.698,-0.312c-0.196,0.164 -0.414,0.266 -0.63,0.266c-0.228,0 -0.417,-0.173 -0.549,-0.471c-0.043,-0.099 -0.08,-0.211 -0.112,-0.333c-0.102,0.206 -0.205,0.393 -0.304,0.55c-0.119,0.187 -0.235,0.332 -0.337,0.418c-0.088,0.074 -0.172,0.109 -0.244,0.109c-0.156,-0 -0.267,-0.106 -0.328,-0.297c-0.07,-0.216 -0.079,-0.552 -0.076,-0.89c0.004,-0.319 0.018,-0.638 -0.009,-0.842c-0.006,-0.046 -0.014,-0.085 -0.025,-0.116c-0.002,-0.005 -0.005,-0.011 -0.008,-0.015c-0.007,0.004 -0.013,0.011 -0.02,0.018c-0.029,0.027 -0.056,0.067 -0.085,0.115c-0.099,0.17 -0.197,0.436 -0.293,0.702c-0.118,0.327 -0.234,0.653 -0.346,0.819c-0.072,0.108 -0.153,0.156 -0.223,0.156c-0.08,0 -0.148,-0.049 -0.187,-0.156c-0.051,-0.138 -0.054,-0.408 -0.052,-0.678c0.002,-0.211 0.005,-0.423 -0.02,-0.559c-0.004,-0.022 -0.013,-0.049 -0.019,-0.064c-0.047,0.01 -0.087,0.051 -0.128,0.102c-0.101,0.129 -0.189,0.33 -0.282,0.531c-0.101,0.219 -0.209,0.437 -0.337,0.577c-0.102,0.113 -0.219,0.179 -0.352,0.179c-0.211,-0 -0.324,-0.15 -0.351,-0.414c-0.03,-0.302 0.056,-0.775 0.138,-1.248c0.03,-0.17 0.059,-0.339 0.081,-0.5c-0.038,0.007 -0.077,0.011 -0.118,0.011c-0.43,-0 -0.562,-0.402 -0.481,-0.731c0.057,-0.228 0.217,-0.406 0.422,-0.406c0.235,-0 0.362,0.15 0.405,0.406c0.016,0.093 0.02,0.201 0.016,0.32c0.014,-0.02 0.028,-0.041 0.04,-0.063c0.105,-0.177 0.16,-0.414 0.167,-0.651c0.007,-0.236 -0.033,-0.472 -0.125,-0.649c-0.08,-0.155 -0.2,-0.263 -0.368,-0.263c-0.28,0 -0.514,0.168 -0.694,0.429c-0.292,0.423 -0.445,1.087 -0.421,1.76c0.031,0.868 0.218,1.752 0.116,2.204c-0.033,0.144 -0.094,0.251 -0.184,0.314c-0.063,0.046 -0.142,0.072 -0.241,0.072c-0.169,-0 -0.317,-0.105 -0.438,-0.276c-0.154,-0.218 -0.269,-0.546 -0.362,-0.833c-0.058,-0.18 -0.106,-0.342 -0.152,-0.443c-0.001,-0.004 -0.003,-0.008 -0.006,-0.012l-0.005,0.007c-0.054,0.081 -0.115,0.212 -0.182,0.357c-0.126,0.273 -0.272,0.593 -0.422,0.761c-0.086,0.096 -0.178,0.147 -0.266,0.147c-0.103,-0 -0.193,-0.071 -0.245,-0.222c-0.082,-0.234 -0.09,-0.703 -0.084,-1.235c0.007,-0.656 0.031,-1.412 -0.065,-1.911c-0.03,-0.152 -0.07,-0.279 -0.128,-0.367c-0.044,-0.065 -0.097,-0.107 -0.169,-0.107c-0.124,0 -0.211,0.107 -0.28,0.25c-0.129,0.264 -0.184,0.659 -0.177,0.983c0.01,0.536 0.191,0.877 0.191,0.877c0.028,0.051 0.009,0.113 -0.041,0.14c-0.051,0.027 -0.113,0.008 -0.14,-0.042c-0,0 -0.205,-0.377 -0.217,-0.971c-0.007,-0.355 0.057,-0.788 0.198,-1.077c0.11,-0.226 0.27,-0.366 0.466,-0.366c0.218,-0 0.374,0.173 0.46,0.474c0.107,0.376 0.12,0.963 0.115,1.551c-0.005,0.662 -0.033,1.325 0.046,1.663c0.011,0.048 0.024,0.088 0.041,0.119c0.009,0.017 0.014,0.034 0.029,0.034c0.022,0 0.041,-0.013 0.063,-0.029c0.035,-0.028 0.069,-0.069 0.104,-0.117c0.119,-0.168 0.232,-0.421 0.334,-0.641c0.085,-0.186 0.165,-0.349 0.231,-0.431c0.053,-0.065 0.11,-0.09 0.154,-0.09c0.042,0 0.092,0.02 0.134,0.08c0.043,0.06 0.089,0.183 0.14,0.337c0.09,0.276 0.2,0.662 0.36,0.927c0.087,0.145 0.184,0.256 0.313,0.256c0.1,0 0.161,-0.05 0.196,-0.136c0.031,-0.075 0.046,-0.173 0.052,-0.287c0.023,-0.477 -0.119,-1.221 -0.145,-1.952c-0.026,-0.722 0.144,-1.432 0.457,-1.885c0.223,-0.323 0.518,-0.518 0.864,-0.518c0.201,-0 0.36,0.096 0.477,0.253c0.156,0.212 0.232,0.541 0.222,0.871c-0.01,0.33 -0.105,0.658 -0.277,0.869c-0.048,0.059 -0.102,0.109 -0.162,0.149c-0.023,0.198 -0.058,0.412 -0.095,0.625c-0.079,0.452 -0.165,0.904 -0.136,1.193c0.013,0.131 0.04,0.227 0.145,0.227c0.101,0 0.178,-0.075 0.252,-0.175c0.093,-0.126 0.172,-0.293 0.25,-0.461c0.1,-0.217 0.198,-0.433 0.307,-0.571c0.093,-0.119 0.199,-0.184 0.313,-0.184c0.076,-0 0.145,0.049 0.181,0.16c0.044,0.137 0.043,0.405 0.042,0.674c-0.002,0.21 -0.004,0.421 0.025,0.556c0.004,0.019 0.012,0.04 0.018,0.056c0.002,-0.001 0.004,-0.003 0.005,-0.004c0.026,-0.028 0.051,-0.068 0.077,-0.117c0.092,-0.17 0.186,-0.437 0.282,-0.704c0.119,-0.329 0.243,-0.656 0.366,-0.824c0.076,-0.103 0.161,-0.152 0.238,-0.152c0.08,0 0.148,0.047 0.188,0.153c0.052,0.135 0.058,0.406 0.054,0.714c-0.006,0.366 -0.022,0.786 0.039,1.064c0.014,0.065 0.032,0.12 0.057,0.164c0.023,0.041 0.052,0.069 0.096,0.069c0.034,0 0.069,-0.025 0.111,-0.059c0.09,-0.077 0.19,-0.207 0.295,-0.372c0.134,-0.211 0.275,-0.479 0.41,-0.773c-0.047,-0.29 -0.069,-0.613 -0.068,-0.936c0.002,-0.242 0.017,-0.483 0.044,-0.711c-0.583,0.032 -0.873,0.083 -0.873,0.083c-0.045,0.008 -0.088,-0.023 -0.096,-0.067c-0.008,-0.045 0.023,-0.088 0.067,-0.096c0,-0 0.308,-0.054 0.925,-0.087c0.057,-0.373 0.15,-0.696 0.274,-0.905c0.112,-0.189 0.254,-0.29 0.409,-0.29c0.133,0 0.226,0.082 0.266,0.247c0.04,0.17 0.019,0.45 -0.052,0.788c-0.009,0.044 -0.019,0.089 -0.03,0.135c0.391,-0.002 0.847,0.006 1.368,0.031c0.045,0.002 0.08,0.041 0.078,0.086c-0.002,0.046 -0.041,0.081 -0.086,0.079c-0.537,-0.026 -1.004,-0.034 -1.401,-0.03c-0.139,0.532 -0.366,1.157 -0.612,1.702c0.038,0.211 0.09,0.401 0.157,0.554c0.091,0.207 0.202,0.349 0.36,0.349c0.179,-0 0.355,-0.094 0.516,-0.234c-0.149,-0.285 -0.183,-0.652 -0.135,-0.982c0.038,-0.261 0.128,-0.494 0.247,-0.64c0.095,-0.117 0.209,-0.181 0.331,-0.181c0.132,-0 0.23,0.042 0.3,0.11c0.098,0.095 0.144,0.249 0.134,0.439c-0.021,0.378 -0.263,0.908 -0.599,1.271l-0.015,0.016c0.121,0.15 0.299,0.247 0.549,0.247c0.177,-0 0.351,-0.111 0.508,-0.272c0.255,-0.261 0.462,-0.656 0.545,-0.999l0.003,-0.01c-0.052,0.007 -0.102,0.012 -0.15,0.012c-0.327,0 -0.455,-0.288 -0.403,-0.52c0.036,-0.162 0.158,-0.294 0.352,-0.294c0.131,-0 0.23,0.042 0.301,0.112c0.097,0.095 0.146,0.248 0.142,0.435c0.114,-0.024 0.225,-0.047 0.323,-0.047c0.054,-0 0.097,0.024 0.124,0.08c0.015,0.032 0.025,0.085 0.022,0.156c-0.004,0.124 -0.04,0.325 -0.079,0.547c-0.055,0.314 -0.115,0.676 -0.08,0.914c0.015,0.104 0.041,0.185 0.129,0.185c0.006,0 0.011,-0.004 0.018,-0.007c0.018,-0.01 0.039,-0.025 0.061,-0.044c0.083,-0.069 0.184,-0.186 0.294,-0.336c0.133,-0.18 0.28,-0.406 0.425,-0.655c-0.044,-0.728 -0.03,-1.717 0.179,-2.264c0.112,-0.294 0.285,-0.466 0.51,-0.466c0.108,0 0.19,0.032 0.252,0.086c0.061,0.052 0.103,0.128 0.124,0.224c0.035,0.156 0.014,0.377 -0.051,0.634c-0.136,0.536 -0.464,1.242 -0.804,1.835c0.001,0.023 0.003,0.045 0.005,0.067c0.012,0.173 0.028,0.326 0.044,0.447c0.057,-0.187 0.136,-0.428 0.264,-0.626c0.147,-0.225 0.357,-0.395 0.665,-0.395c0.141,0 0.261,0.076 0.349,0.202c0.065,0.095 0.112,0.218 0.134,0.35c0.162,-0.089 0.323,-0.188 0.461,-0.303c-0.002,-0.04 -0.004,-0.079 -0.004,-0.12c-0.011,-0.592 0.149,-1.288 0.398,-1.653c0.126,-0.184 0.278,-0.287 0.437,-0.287c0.092,0 0.162,0.03 0.214,0.078c0.07,0.065 0.108,0.172 0.107,0.312c-0.006,0.423 -0.391,1.208 -0.904,1.722c-0.011,0.012 -0.023,0.023 -0.034,0.034c0.016,0.173 0.051,0.328 0.109,0.451c0.066,0.141 0.161,0.235 0.301,0.235c0.074,0 0.14,-0.043 0.202,-0.098c0.078,-0.068 0.147,-0.156 0.208,-0.233c0.068,-0.086 0.129,-0.16 0.18,-0.198c0.041,-0.03 0.081,-0.043 0.116,-0.043c0.036,0 0.071,0.014 0.099,0.053c0.011,0.015 0.021,0.037 0.03,0.066c0.01,0.038 0.018,0.097 0.027,0.166c0.016,0.125 0.034,0.292 0.089,0.427c0.042,0.103 0.103,0.19 0.221,0.19c0.14,-0 0.254,-0.097 0.345,-0.235c0.072,-0.107 0.128,-0.24 0.167,-0.383c-0.052,0.009 -0.104,0.013 -0.156,0.013c-0.523,0 -0.72,-0.469 -0.648,-0.848c0.05,-0.265 0.23,-0.478 0.504,-0.478c0.36,-0 0.551,0.345 0.568,0.779c0.003,0.079 0.001,0.161 -0.007,0.244c0.091,-0.037 0.172,-0.078 0.239,-0.11c0.092,-0.044 0.165,-0.07 0.203,-0.07c0.044,0 0.086,0.02 0.116,0.072c0.02,0.036 0.035,0.108 0.046,0.199c0.014,0.115 0.029,0.268 0.08,0.392c0.04,0.095 0.104,0.172 0.225,0.172c0.152,-0 0.277,-0.095 0.376,-0.232c0.071,-0.099 0.129,-0.219 0.171,-0.348c-0.052,0.009 -0.103,0.013 -0.154,0.013c-0.52,0 -0.73,-0.47 -0.648,-0.848c0.056,-0.261 0.247,-0.475 0.558,-0.475c0.347,0 0.53,0.339 0.535,0.767c0.001,0.08 -0.004,0.163 -0.014,0.246c0.192,-0.082 0.382,-0.199 0.545,-0.299c0.145,-0.09 0.271,-0.169 0.361,-0.208c0.053,-0.024 0.099,-0.034 0.133,-0.034c0.067,-0 0.125,0.038 0.145,0.135c0.017,0.085 -0.003,0.257 -0.033,0.452c-0.034,0.221 -0.078,0.475 -0.064,0.643c0.003,0.027 0.007,0.051 0.013,0.071c0.003,0.009 0.003,0.018 0.007,0.024c0.007,-0.007 0.017,-0.018 0.025,-0.027c0.02,-0.027 0.042,-0.062 0.065,-0.102c0.095,-0.169 0.204,-0.434 0.321,-0.699c0.142,-0.324 0.296,-0.647 0.445,-0.812c0.086,-0.096 0.176,-0.143 0.259,-0.143c0.061,-0 0.107,0.027 0.139,0.082c0.024,0.04 0.039,0.109 0.038,0.198c-0.002,0.166 -0.051,0.426 -0.099,0.685c-0.044,0.244 -0.087,0.488 -0.078,0.644c0.001,0.023 0.007,0.05 0.012,0.068c0.005,-0.004 0.01,-0.008 0.014,-0.011c0.018,-0.017 0.036,-0.039 0.056,-0.065c0.085,-0.114 0.178,-0.293 0.274,-0.471c0.103,-0.191 0.211,-0.381 0.319,-0.503c0.093,-0.105 0.191,-0.162 0.282,-0.162c0.071,0 0.133,0.041 0.163,0.139c0.032,0.106 0.025,0.318 0.009,0.558c-0.02,0.28 -0.049,0.602 -0.015,0.815c0.008,0.046 0.018,0.087 0.034,0.118c0.01,0.021 0.022,0.037 0.044,0.037c0.03,0 0.056,-0.019 0.085,-0.046c0.044,-0.041 0.087,-0.101 0.129,-0.175c0.14,-0.245 0.269,-0.627 0.387,-0.998c0.193,-0.602 0.566,-1.167 1.454,-1.199l0.011,-0.055c0.006,-0.025 0.03,-0.041 0.055,-0.035l0.055,0.011c0.024,0.006 0.04,0.03 0.035,0.054l-0.01,0.046c0,0.001 0.001,0.001 0.001,0.001l0.044,0.009l0.01,-0.048c0.007,-0.034 0.04,-0.056 0.074,-0.048l0.077,0.016c0.034,0.007 0.056,0.041 0.049,0.075l-0.01,0.044l0.041,0.008l0.009,-0.045c0.008,-0.039 0.046,-0.065 0.085,-0.059l0.697,0.12c0.041,0.007 0.068,0.047 0.06,0.087l-0.002,0.011l0.005,0.001c0.021,0.004 0.036,0.021 0.039,0.04l0.615,0.121c0.028,0.006 0.051,0.025 0.062,0.049l0.209,0.024l0.058,0.078l-0.013,0.069l-0.084,0.049l-0.202,-0.056c-0.02,0.018 -0.047,0.027 -0.076,0.021l-0.615,-0.121c-0.01,0.017 -0.031,0.026 -0.051,0.022l-0.005,-0.001l-0.002,0.011c-0.008,0.041 -0.048,0.067 -0.089,0.058l-0.69,-0.153c-0.04,-0.009 -0.065,-0.047 -0.057,-0.087l0.009,-0.045l-0.044,-0.009l-0.01,0.048c-0.007,0.034 -0.041,0.056 -0.075,0.048l-0.077,-0.016c-0.034,-0.007 -0.055,-0.041 -0.048,-0.075l0.009,-0.045l-0.044,-0.008l-0.011,0.048c-0.005,0.025 -0.029,0.041 -0.054,0.035l-0.055,-0.011c-0.025,-0.005 -0.04,-0.03 -0.035,-0.054l0.005,-0.024Zm-10.391,1.744c-0.078,0.04 -0.152,0.079 -0.221,0.117c-0.102,0.056 -0.189,0.11 -0.251,0.167c-0.041,0.038 -0.072,0.073 -0.072,0.116c-0,0.058 0.034,0.105 0.075,0.135c0.024,0.017 0.05,0.029 0.073,0.029c0.067,0 0.131,-0.053 0.191,-0.123c0.097,-0.113 0.175,-0.279 0.205,-0.441Zm-4.661,-0.12c0.219,-0.247 0.393,-0.571 0.472,-0.859c0.04,-0.141 0.056,-0.272 0.041,-0.379c-0.009,-0.064 -0.028,-0.118 -0.067,-0.155c-0.036,-0.035 -0.088,-0.052 -0.156,-0.052c-0.064,0 -0.121,0.043 -0.171,0.105c-0.1,0.123 -0.171,0.321 -0.203,0.54c-0.038,0.264 -0.021,0.563 0.084,0.8Zm7.679,-0.255c0.015,-0.103 0.021,-0.208 0.017,-0.307c-0.007,-0.166 -0.04,-0.319 -0.108,-0.429c-0.056,-0.092 -0.139,-0.152 -0.254,-0.152c-0.17,0 -0.27,0.145 -0.301,0.311c-0.051,0.266 0.077,0.603 0.445,0.603c0.068,0 0.135,-0.01 0.201,-0.026Zm1.728,-0.217c0.02,-0.108 0.03,-0.216 0.029,-0.319c-0.002,-0.162 -0.031,-0.31 -0.094,-0.418c-0.051,-0.088 -0.128,-0.145 -0.235,-0.145c-0.201,-0 -0.32,0.143 -0.356,0.311c-0.057,0.265 0.082,0.599 0.446,0.599c0.069,-0 0.139,-0.01 0.21,-0.028Zm-6.022,-0.18c0.27,-0.507 0.512,-1.06 0.623,-1.496c0.055,-0.219 0.079,-0.405 0.05,-0.538c-0.011,-0.048 -0.028,-0.087 -0.058,-0.113c-0.029,-0.025 -0.068,-0.035 -0.117,-0.035c-0.15,-0 -0.243,0.137 -0.318,0.332c-0.17,0.448 -0.201,1.203 -0.18,1.85Zm2.143,-0.067c0.36,-0.4 0.641,-0.927 0.721,-1.301c0.021,-0.097 0.029,-0.183 0.017,-0.25c-0.006,-0.034 -0.016,-0.062 -0.036,-0.081c-0.017,-0.016 -0.042,-0.022 -0.073,-0.022c-0.062,-0 -0.119,0.032 -0.173,0.084c-0.067,0.064 -0.129,0.157 -0.183,0.269c-0.167,0.34 -0.27,0.847 -0.273,1.301Zm-6.316,-1.498c-0.154,0.003 -0.296,0.008 -0.426,0.013c-0.029,0.231 -0.045,0.477 -0.046,0.723c-0.001,0.191 0.006,0.382 0.022,0.565c0.179,-0.432 0.34,-0.892 0.45,-1.301Zm2.536,1.156c0.005,-0.061 0.003,-0.117 -0.005,-0.168c-0.011,-0.067 -0.032,-0.124 -0.072,-0.162c-0.037,-0.036 -0.089,-0.054 -0.157,-0.054c-0.085,0 -0.135,0.062 -0.15,0.134c-0.027,0.118 0.034,0.268 0.201,0.268c0.058,-0 0.12,-0.008 0.183,-0.018Zm-6.858,-0.876c0.016,-0.177 0.019,-0.336 -0.002,-0.463c-0.024,-0.138 -0.076,-0.235 -0.202,-0.235c-0.117,0 -0.189,0.12 -0.221,0.249c-0.051,0.208 0.009,0.475 0.28,0.475c0.052,0 0.1,-0.009 0.145,-0.026Zm4.364,-0.445c0.015,-0.062 0.029,-0.122 0.041,-0.181c0.063,-0.299 0.089,-0.547 0.053,-0.697c-0.012,-0.05 -0.025,-0.088 -0.065,-0.088c-0.055,-0 -0.104,0.03 -0.15,0.078c-0.06,0.063 -0.112,0.155 -0.158,0.267c-0.071,0.173 -0.126,0.391 -0.166,0.633c0.136,-0.005 0.285,-0.01 0.445,-0.012Z" style="fill:#838588;"/><path d="M191.536,63.56c0.14,-0 0.26,-0.023 0.36,-0.068c0.101,-0.046 0.185,-0.105 0.253,-0.179c0.068,-0.074 0.122,-0.159 0.162,-0.256c0.04,-0.096 0.071,-0.194 0.094,-0.292l0.022,-0.102l0.75,-0l-0.023,0.102c-0.053,0.246 -0.125,0.461 -0.215,0.644c-0.091,0.184 -0.207,0.337 -0.347,0.461c-0.14,0.123 -0.307,0.215 -0.5,0.278c-0.193,0.062 -0.42,0.094 -0.681,0.094c-0.178,-0 -0.341,-0.027 -0.489,-0.08c-0.147,-0.053 -0.274,-0.131 -0.38,-0.233c-0.106,-0.102 -0.189,-0.226 -0.247,-0.372c-0.059,-0.146 -0.088,-0.313 -0.088,-0.502c-0,-0.069 0.004,-0.137 0.011,-0.205c0.008,-0.068 0.021,-0.146 0.04,-0.233l0.187,-0.886c0.118,-0.549 0.326,-0.957 0.625,-1.224c0.299,-0.267 0.689,-0.4 1.17,-0.4c0.189,-0 0.359,0.03 0.508,0.091c0.15,0.06 0.277,0.143 0.381,0.247c0.104,0.104 0.183,0.226 0.238,0.366c0.055,0.14 0.083,0.29 0.083,0.449c-0,0.053 -0.004,0.106 -0.012,0.159c-0.007,0.053 -0.017,0.108 -0.028,0.165l-0.023,0.102l-0.749,-0l0.022,-0.102c0.023,-0.091 0.034,-0.178 0.034,-0.262c0,-0.147 -0.042,-0.273 -0.127,-0.377c-0.086,-0.104 -0.234,-0.157 -0.446,-0.157c-0.125,0 -0.239,0.024 -0.341,0.071c-0.102,0.048 -0.191,0.112 -0.267,0.194c-0.076,0.081 -0.139,0.176 -0.19,0.284c-0.051,0.107 -0.09,0.22 -0.117,0.337l-0.21,1c-0.011,0.057 -0.021,0.113 -0.028,0.168c-0.008,0.054 -0.012,0.107 -0.012,0.156c0,0.17 0.045,0.306 0.134,0.409c0.089,0.102 0.237,0.153 0.446,0.153Z" style="fill:#838588;fill-rule:nonzero;"/><path d="M196.284,63.486l0.056,0.04l0.273,-0.193l0.358,0.534l-0.335,0.227c-0.148,0.098 -0.303,0.148 -0.466,0.148c-0.144,-0 -0.273,-0.04 -0.386,-0.12c-0.114,-0.079 -0.186,-0.191 -0.216,-0.335l-0.102,0c-0.034,0.065 -0.074,0.124 -0.119,0.179c-0.046,0.055 -0.102,0.102 -0.168,0.142c-0.066,0.04 -0.144,0.072 -0.233,0.097c-0.089,0.024 -0.194,0.037 -0.315,0.037c-0.148,-0 -0.284,-0.03 -0.409,-0.089c-0.125,-0.058 -0.234,-0.14 -0.327,-0.244c-0.092,-0.104 -0.165,-0.226 -0.218,-0.366c-0.053,-0.14 -0.08,-0.293 -0.08,-0.46c0,-0.254 0.034,-0.49 0.103,-0.71c0.068,-0.22 0.166,-0.412 0.295,-0.576c0.129,-0.165 0.287,-0.295 0.474,-0.389c0.188,-0.095 0.399,-0.142 0.633,-0.142c0.209,-0 0.373,0.041 0.494,0.124c0.122,0.084 0.203,0.194 0.245,0.33l0.102,-0l0.079,-0.375l0.716,0l-0.454,2.141Zm-1.375,0.074c0.137,-0 0.258,-0.027 0.364,-0.082c0.106,-0.055 0.194,-0.128 0.264,-0.219c0.07,-0.091 0.124,-0.198 0.162,-0.321c0.038,-0.123 0.056,-0.253 0.056,-0.389c0,-0.178 -0.051,-0.323 -0.153,-0.434c-0.102,-0.112 -0.238,-0.168 -0.409,-0.168c-0.136,0 -0.257,0.028 -0.363,0.082c-0.106,0.055 -0.195,0.128 -0.267,0.219c-0.072,0.091 -0.127,0.198 -0.165,0.321c-0.038,0.123 -0.057,0.253 -0.057,0.389c0,0.159 0.047,0.299 0.139,0.42c0.093,0.121 0.236,0.182 0.429,0.182Z" style="fill:#838588;fill-rule:nonzero;"/><path d="M198.868,61.913c-0.042,-0 -0.084,0.005 -0.128,0.014c-0.044,0.01 -0.084,0.024 -0.122,0.043c-0.038,0.019 -0.069,0.044 -0.094,0.076c-0.024,0.033 -0.037,0.071 -0.037,0.117c0,0.079 0.046,0.138 0.137,0.176c0.09,0.038 0.246,0.07 0.465,0.096c0.246,0.031 0.445,0.106 0.597,0.225c0.151,0.119 0.227,0.29 0.227,0.514c-0,0.333 -0.117,0.594 -0.349,0.784c-0.233,0.189 -0.556,0.284 -0.969,0.284c-0.208,-0 -0.387,-0.031 -0.537,-0.091c-0.149,-0.061 -0.272,-0.137 -0.369,-0.228c-0.096,-0.09 -0.169,-0.191 -0.218,-0.301c-0.05,-0.109 -0.076,-0.213 -0.08,-0.312l0.704,-0.17c0.012,0.125 0.065,0.232 0.159,0.321c0.095,0.089 0.239,0.133 0.432,0.133c0.133,0 0.248,-0.021 0.346,-0.062c0.099,-0.042 0.148,-0.116 0.148,-0.222c0,-0.079 -0.038,-0.143 -0.113,-0.19c-0.076,-0.047 -0.216,-0.081 -0.421,-0.1c-0.272,-0.022 -0.489,-0.1 -0.65,-0.232c-0.161,-0.133 -0.241,-0.309 -0.241,-0.529c-0,-0.159 0.033,-0.301 0.099,-0.426c0.066,-0.124 0.154,-0.229 0.264,-0.312c0.11,-0.083 0.238,-0.147 0.383,-0.19c0.146,-0.044 0.299,-0.065 0.458,-0.065c0.197,-0 0.361,0.026 0.494,0.079c0.132,0.053 0.24,0.119 0.323,0.199c0.084,0.079 0.145,0.165 0.185,0.258c0.04,0.093 0.065,0.179 0.077,0.259l-0.693,0.181c-0.015,-0.102 -0.063,-0.182 -0.142,-0.241c-0.08,-0.059 -0.191,-0.088 -0.335,-0.088Z" style="fill:#838588;fill-rule:nonzero;"/><path d="M201.753,62.027l-0.795,-0l-0,-0.682l0.943,0l0.261,-1.238l0.715,-0l-0.261,1.238l0.977,0l0,0.682l-1.124,-0l-0.319,1.459l0.057,0.04l0.761,-0.523l0.358,0.534l-0.823,0.557c-0.144,0.098 -0.298,0.148 -0.46,0.148c-0.084,-0 -0.163,-0.015 -0.239,-0.043c-0.076,-0.028 -0.142,-0.069 -0.199,-0.122c-0.057,-0.053 -0.102,-0.118 -0.136,-0.193c-0.034,-0.076 -0.051,-0.161 -0.051,-0.256c-0,-0.03 0.002,-0.058 0.006,-0.082c0.003,-0.025 0.009,-0.058 0.017,-0.1l0.312,-1.419Z" style="fill:#838588;fill-rule:nonzero;"/><path d="M207.16,62.401c-0,0.265 -0.038,0.511 -0.114,0.736c-0.076,0.225 -0.187,0.419 -0.335,0.582c-0.148,0.163 -0.332,0.291 -0.554,0.383c-0.221,0.093 -0.478,0.14 -0.769,0.14c-0.167,-0 -0.323,-0.025 -0.469,-0.074c-0.146,-0.05 -0.273,-0.122 -0.383,-0.219c-0.11,-0.097 -0.197,-0.215 -0.261,-0.355c-0.065,-0.14 -0.097,-0.299 -0.097,-0.477c0,-0.292 0.045,-0.552 0.136,-0.781c0.091,-0.229 0.215,-0.423 0.372,-0.582c0.157,-0.159 0.343,-0.28 0.557,-0.364c0.214,-0.083 0.444,-0.124 0.69,-0.124c0.178,-0 0.343,0.027 0.494,0.082c0.152,0.055 0.281,0.131 0.389,0.23c0.108,0.098 0.192,0.218 0.253,0.358c0.06,0.14 0.091,0.295 0.091,0.465Zm-1.664,1.17c0.136,-0.003 0.262,-0.034 0.377,-0.091c0.116,-0.056 0.214,-0.131 0.296,-0.224c0.081,-0.093 0.144,-0.201 0.19,-0.326c0.045,-0.125 0.068,-0.258 0.068,-0.398c0,-0.197 -0.053,-0.345 -0.159,-0.446c-0.106,-0.1 -0.248,-0.15 -0.426,-0.15c-0.136,-0 -0.261,0.029 -0.375,0.088c-0.113,0.058 -0.212,0.136 -0.295,0.233c-0.083,0.096 -0.148,0.207 -0.193,0.332c-0.046,0.125 -0.068,0.255 -0.068,0.392c-0,0.193 0.053,0.34 0.159,0.44c0.106,0.1 0.248,0.15 0.426,0.15Z" style="fill:#838588;fill-rule:nonzero;"/><path d="M208.477,62.015l-0.056,-0.034l-0.449,0.33l-0.381,-0.512l0.455,-0.34c0.087,-0.065 0.179,-0.113 0.275,-0.145c0.097,-0.032 0.188,-0.048 0.276,-0.048c0.151,-0 0.284,0.041 0.397,0.124c0.114,0.084 0.182,0.201 0.205,0.353l0.102,-0c0.076,-0.159 0.182,-0.279 0.318,-0.358c0.136,-0.08 0.29,-0.119 0.46,-0.119c0.216,-0 0.391,0.067 0.525,0.201c0.135,0.135 0.202,0.321 0.202,0.56c-0,0.049 -0.003,0.097 -0.009,0.144c-0.005,0.048 -0.016,0.105 -0.031,0.174l-0.028,0.125l-0.761,0.056l0.017,-0.079c0.011,-0.057 0.017,-0.108 0.017,-0.154c-0,-0.109 -0.031,-0.196 -0.091,-0.261c-0.061,-0.064 -0.152,-0.096 -0.273,-0.096c-0.151,-0 -0.271,0.051 -0.36,0.153c-0.089,0.102 -0.155,0.248 -0.196,0.437l-0.205,0.954l0.682,0l-0,0.682l-1.943,0l0,-0.682l0.546,0l0.306,-1.465Z" style="fill:#838588;fill-rule:nonzero;"/><path d="M216.434,62.492l-0.596,0c-0.087,0 -0.171,0.014 -0.25,0.043c-0.08,0.028 -0.15,0.068 -0.21,0.119c-0.061,0.051 -0.109,0.114 -0.145,0.188c-0.036,0.073 -0.054,0.158 -0.054,0.252c-0,0.133 0.043,0.23 0.128,0.293c0.085,0.062 0.194,0.093 0.326,0.093l0.591,0l0.21,-0.988Zm0.96,-1.147l-0.102,0.466l0.454,-0l0,0.715l-0.608,0l-0.346,1.636l-1.374,0c-0.303,0 -0.544,-0.077 -0.722,-0.23c-0.178,-0.153 -0.267,-0.361 -0.267,-0.622c0,-0.28 0.081,-0.518 0.242,-0.713c0.161,-0.195 0.383,-0.321 0.667,-0.377l0,-0.103c-0.136,-0.056 -0.257,-0.141 -0.361,-0.252c-0.104,-0.112 -0.156,-0.27 -0.156,-0.475c0,-0.174 0.031,-0.334 0.094,-0.479c0.062,-0.146 0.152,-0.273 0.27,-0.381c0.117,-0.108 0.261,-0.192 0.431,-0.253c0.171,-0.06 0.366,-0.091 0.585,-0.091l0.591,0l-0,0.682l-0.613,-0c-0.088,-0 -0.17,0.011 -0.247,0.034c-0.078,0.023 -0.147,0.058 -0.208,0.105c-0.06,0.047 -0.108,0.108 -0.142,0.182c-0.034,0.074 -0.051,0.16 -0.051,0.258c0,0.125 0.045,0.217 0.134,0.276c0.089,0.058 0.199,0.088 0.332,0.088l0.579,-0l0.102,-0.466l0.716,0Z" style="fill:#838588;fill-rule:nonzero;"/><path d="M222.432,62.663l-0.318,1.499l-0.744,0l0.84,-3.976l1.42,0c0.167,0 0.317,0.027 0.451,0.08c0.135,0.053 0.249,0.127 0.344,0.221c0.095,0.095 0.168,0.207 0.219,0.336c0.051,0.128 0.076,0.268 0.076,0.42c0,0.212 -0.036,0.405 -0.108,0.579c-0.071,0.174 -0.174,0.324 -0.306,0.449c-0.133,0.125 -0.292,0.221 -0.477,0.289c-0.186,0.069 -0.392,0.103 -0.619,0.103l-0.778,-0Zm0.153,-0.716l0.693,0c0.193,0 0.354,-0.057 0.483,-0.17c0.128,-0.114 0.193,-0.262 0.193,-0.443c-0,-0.14 -0.045,-0.247 -0.134,-0.321c-0.089,-0.074 -0.205,-0.111 -0.349,-0.111l-0.665,0l-0.221,1.045Z" style="fill:#838588;fill-rule:nonzero;"/><path d="M228.014,62.401c0,0.265 -0.037,0.511 -0.113,0.736c-0.076,0.225 -0.188,0.419 -0.335,0.582c-0.148,0.163 -0.333,0.291 -0.554,0.383c-0.222,0.093 -0.478,0.14 -0.77,0.14c-0.166,-0 -0.322,-0.025 -0.468,-0.074c-0.146,-0.05 -0.274,-0.122 -0.383,-0.219c-0.11,-0.097 -0.197,-0.215 -0.262,-0.355c-0.064,-0.14 -0.096,-0.299 -0.096,-0.477c-0,-0.292 0.045,-0.552 0.136,-0.781c0.091,-0.229 0.215,-0.423 0.372,-0.582c0.157,-0.159 0.343,-0.28 0.557,-0.364c0.214,-0.083 0.444,-0.124 0.69,-0.124c0.178,-0 0.342,0.027 0.494,0.082c0.151,0.055 0.281,0.131 0.389,0.23c0.108,0.098 0.192,0.218 0.253,0.358c0.06,0.14 0.09,0.295 0.09,0.465Zm-1.664,1.17c0.137,-0.003 0.263,-0.034 0.378,-0.091c0.116,-0.056 0.214,-0.131 0.295,-0.224c0.082,-0.093 0.145,-0.201 0.191,-0.326c0.045,-0.125 0.068,-0.258 0.068,-0.398c-0,-0.197 -0.053,-0.345 -0.159,-0.446c-0.106,-0.1 -0.248,-0.15 -0.426,-0.15c-0.137,-0 -0.261,0.029 -0.375,0.088c-0.114,0.058 -0.212,0.136 -0.295,0.233c-0.084,0.096 -0.148,0.207 -0.193,0.332c-0.046,0.125 -0.069,0.255 -0.069,0.392c0,0.193 0.053,0.34 0.159,0.44c0.106,0.1 0.248,0.15 0.426,0.15Z" style="fill:#838588;fill-rule:nonzero;"/><path d="M230.44,64.094c-0.076,0.053 -0.154,0.091 -0.233,0.113c-0.08,0.023 -0.157,0.035 -0.233,0.035c-0.084,-0 -0.163,-0.015 -0.239,-0.043c-0.075,-0.028 -0.142,-0.068 -0.199,-0.119c-0.056,-0.051 -0.101,-0.114 -0.133,-0.188c-0.032,-0.074 -0.048,-0.156 -0.048,-0.247c-0,-0.068 0.007,-0.134 0.022,-0.199l0.62,-2.584l-0.057,-0.039l-0.761,0.522l-0.358,-0.534l0.823,-0.556c0.076,-0.053 0.154,-0.091 0.233,-0.114c0.08,-0.023 0.157,-0.034 0.233,-0.034c0.083,-0 0.163,0.014 0.239,0.043c0.075,0.028 0.142,0.068 0.198,0.119c0.057,0.051 0.102,0.113 0.134,0.187c0.032,0.074 0.048,0.156 0.048,0.247c0,0.061 -0.007,0.127 -0.023,0.199l-0.619,2.584l0.057,0.04l0.761,-0.523l0.358,0.534l-0.823,0.557Z" style="fill:#838588;fill-rule:nonzero;"/><path d="M233.915,64.094c-0.075,0.053 -0.153,0.091 -0.233,0.113c-0.079,0.023 -0.157,0.035 -0.232,0.035c-0.084,-0 -0.163,-0.015 -0.239,-0.043c-0.076,-0.028 -0.142,-0.068 -0.199,-0.119c-0.057,-0.051 -0.101,-0.114 -0.133,-0.188c-0.032,-0.074 -0.048,-0.156 -0.048,-0.247c-0,-0.068 0.007,-0.134 0.022,-0.199l0.619,-2.584l-0.057,-0.039l-0.761,0.522l-0.357,-0.534l0.823,-0.556c0.076,-0.053 0.154,-0.091 0.233,-0.114c0.08,-0.023 0.157,-0.034 0.233,-0.034c0.083,-0 0.163,0.014 0.238,0.043c0.076,0.028 0.142,0.068 0.199,0.119c0.057,0.051 0.101,0.113 0.134,0.187c0.032,0.074 0.048,0.156 0.048,0.247c-0,0.061 -0.008,0.127 -0.023,0.199l-0.619,2.584l0.057,0.04l0.761,-0.523l0.358,0.534l-0.824,0.557Z" style="fill:#838588;fill-rule:nonzero;"/><path d="M236.539,61.345l-0.352,1.636c-0.015,0.064 -0.023,0.127 -0.023,0.187c0,0.144 0.04,0.251 0.12,0.321c0.079,0.07 0.185,0.105 0.318,0.105c0.2,0 0.355,-0.065 0.463,-0.196c0.107,-0.13 0.188,-0.315 0.241,-0.554l0.318,-1.499l0.716,0l-0.466,2.147l0.062,0.034l0.205,-0.148l0.358,0.523l-0.267,0.193c-0.072,0.053 -0.147,0.091 -0.225,0.113c-0.077,0.023 -0.154,0.035 -0.23,0.035c-0.155,-0 -0.291,-0.045 -0.409,-0.134c-0.117,-0.089 -0.183,-0.219 -0.198,-0.389l-0.103,0c-0.083,0.193 -0.196,0.328 -0.338,0.406c-0.142,0.078 -0.302,0.117 -0.479,0.117c-0.247,-0 -0.447,-0.075 -0.603,-0.225c-0.155,-0.149 -0.232,-0.359 -0.232,-0.627c-0,-0.095 0.011,-0.197 0.034,-0.307l0.375,-1.738l0.715,0Z" style="fill:#838588;fill-rule:nonzero;"/><path d="M240.821,62.827l0.296,0.699l0.068,-0l0.221,-0.409l0.568,0.295l-0.181,0.364c-0.152,0.31 -0.388,0.466 -0.71,0.466c-0.159,-0 -0.289,-0.036 -0.389,-0.108c-0.101,-0.072 -0.183,-0.188 -0.247,-0.347l-0.188,-0.437l-0.937,0.88l-0.483,-0.505l1.136,-1.062l-0.284,-0.676l-0.068,-0l-0.273,0.437l-0.545,-0.352l0.273,-0.42c0.163,-0.258 0.382,-0.386 0.659,-0.386c0.28,-0 0.484,0.147 0.613,0.443l0.182,0.431l0.897,-0.84l0.483,0.505l-1.091,1.022Z" style="fill:#838588;fill-rule:nonzero;"/><path d="M250.655,198l3.33,0.01c0.196,0 0.355,-0.157 0.356,-0.353l0.019,-2.522c-0,0 0.416,0 0.416,0c0,0.767 0,2.51 0,2.51c0,0.196 0.159,0.355 0.355,0.355c0.196,-0 0.355,-0.159 0.355,-0.355l0,-2.865c0,-0.196 -0.159,-0.355 -0.355,-0.355l-1.124,0c-0.195,0 -0.353,0.157 -0.355,0.352l-0.018,2.522c-0.857,-0.003 -2.977,-0.009 -2.977,-0.009c-0.196,-0.001 -0.355,0.158 -0.356,0.354c-0.001,0.196 0.158,0.355 0.354,0.356Z" style="fill:#838588;"/><path d="M251.746,196.399l-0.426,-0.426c-0,0 0.426,-0.426 0.426,-0.426c0.138,-0.139 0.138,-0.363 -0,-0.502c-0.139,-0.139 -0.364,-0.139 -0.502,-0l-0.928,0.928l0.928,0.928c0.138,0.139 0.363,0.139 0.502,0c0.138,-0.138 0.138,-0.363 -0,-0.502Z" style="fill:#838588;"/><path d="M252.373,195.618l-0.007,0c-0.196,0 -0.355,0.159 -0.355,0.355c-0,0.196 0.159,0.355 0.355,0.355l0.007,0c0.196,0 0.355,-0.159 0.355,-0.355c-0,-0.196 -0.159,-0.355 -0.355,-0.355Zm-0.859,0l-0.007,0c-0.196,0 -0.355,0.159 -0.355,0.355c-0,0.196 0.159,0.355 0.355,0.355l0.007,0c0.196,0 0.355,-0.159 0.355,-0.355c-0,-0.196 -0.159,-0.355 -0.355,-0.355Zm1.718,0l-0.007,0c-0.196,0 -0.355,0.159 -0.355,0.355c-0,0.196 0.159,0.355 0.355,0.355l0.007,0c0.196,0 0.355,-0.159 0.355,-0.355c-0,-0.196 -0.159,-0.355 -0.355,-0.355Z" style="fill:#838588;"/><path d="M181.074,197.29c0,-0 -2.119,0.006 -2.976,0.009c-0,-0 -0.019,-2.522 -0.019,-2.522c-0.001,-0.195 -0.16,-0.352 -0.355,-0.352l-1.124,0c-0.196,0 -0.355,0.159 -0.355,0.355l0,2.865c0,0.196 0.159,0.355 0.355,0.355c0.196,-0 0.355,-0.159 0.355,-0.355l0,-2.51c0,0 0.417,0 0.417,0c-0,0 0.018,2.522 0.018,2.522c0.002,0.196 0.161,0.353 0.356,0.353l3.331,-0.01c0.196,-0.001 0.354,-0.16 0.353,-0.356c-0,-0.196 -0.16,-0.355 -0.356,-0.354Z" style="fill:#838588;"/><path d="M179.986,195.547l0.426,0.426c-0,0 -0.426,0.426 -0.426,0.426c-0.139,0.139 -0.139,0.364 -0,0.502c0.138,0.139 0.363,0.139 0.502,0l0.928,-0.928l-0.928,-0.928c-0.139,-0.139 -0.364,-0.139 -0.502,-0c-0.139,0.139 -0.139,0.363 -0,0.502Z" style="fill:#838588;"/><path d="M179.359,196.328l0.007,0c0.196,0 0.355,-0.159 0.355,-0.355c-0,-0.196 -0.159,-0.355 -0.355,-0.355l-0.007,0c-0.196,0 -0.355,0.159 -0.355,0.355c-0,0.196 0.159,0.355 0.355,0.355Zm0.859,0l0.007,0c0.196,0 0.355,-0.159 0.355,-0.355c-0,-0.196 -0.159,-0.355 -0.355,-0.355l-0.007,0c-0.196,0 -0.355,0.159 -0.355,0.355c-0,0.196 0.159,0.355 0.355,0.355Zm-1.718,0l0.007,0c0.196,0 0.355,-0.159 0.355,-0.355c-0,-0.196 -0.159,-0.355 -0.355,-0.355l-0.007,0c-0.196,0 -0.355,0.159 -0.355,0.355c-0,0.196 0.159,0.355 0.355,0.355Z" style="fill:#838588;"/><path d="M175.851,173.859l-0,2.819c-0,0.124 0.065,0.239 0.172,0.304c0.106,0.064 0.239,0.068 0.349,0.009l4.739,-2.506c-0,0 -0.016,2.237 -0.016,2.237c-0.001,0.196 0.157,0.356 0.353,0.357c0.195,0.002 0.356,-0.156 0.357,-0.352l0.02,-2.83c0.001,-0.125 -0.064,-0.242 -0.171,-0.306c-0.106,-0.065 -0.239,-0.069 -0.35,-0.011l-4.743,2.508c-0,0 -0,-2.229 -0,-2.229c-0,-0.196 -0.159,-0.355 -0.355,-0.355c-0.196,0 -0.355,0.159 -0.355,0.355Z" style="fill:#838588;"/><path d="M199.215,173.852c-0,-0 0.012,1.741 0.017,2.508c0,0 -2.62,0.008 -2.62,0.008c-0,0 -0.019,-2.521 -0.019,-2.521c-0.001,-0.195 -0.16,-0.353 -0.355,-0.353l-1.124,0c-0.196,0 -0.355,0.159 -0.355,0.355l0,2.865c0,0.196 0.159,0.355 0.355,0.355c0.196,0 0.355,-0.159 0.355,-0.355l0,-2.51c0,0 0.417,0 0.417,0c-0,0 0.018,2.523 0.018,2.523c0.002,0.195 0.161,0.353 0.356,0.352l3.331,-0.01c0.094,-0 0.184,-0.038 0.251,-0.105c0.066,-0.067 0.103,-0.158 0.102,-0.252l-0.019,-2.865c-0.002,-0.196 -0.162,-0.354 -0.358,-0.353c-0.196,0.002 -0.354,0.162 -0.352,0.358Z" style="fill:#838588;"/><path d="M199.215,194.792c-0,0 0.012,1.74 0.017,2.508c0,-0 -1.525,-0 -1.525,-0c-0,-0.767 -0,-2.51 -0,-2.51c-0,-0.196 -0.159,-0.355 -0.355,-0.355l-2.238,0c-0.196,0 -0.355,0.159 -0.355,0.355l0,2.865c0,0.196 0.159,0.355 0.355,0.355c0.196,-0 0.355,-0.159 0.355,-0.355l0,-2.51c0,-0 1.528,-0 1.528,-0c-0,-0 -0,2.51 -0,2.51c-0,0.196 0.159,0.355 0.355,0.355l2.238,-0c0.094,-0 0.185,-0.038 0.251,-0.105c0.067,-0.067 0.104,-0.158 0.103,-0.253l-0.019,-2.864c-0.002,-0.196 -0.162,-0.354 -0.358,-0.353c-0.196,0.001 -0.354,0.162 -0.352,0.357Z" style="fill:#838588;"/><path d="M255.171,173.859l-0,2.229c-0,0 -4.744,-2.508 -4.744,-2.508c-0.11,-0.058 -0.243,-0.054 -0.35,0.011c-0.107,0.064 -0.171,0.181 -0.171,0.306l0.021,2.83c0.001,0.196 0.161,0.354 0.357,0.352c0.196,-0.001 0.354,-0.161 0.352,-0.357l-0.015,-2.237c1.332,0.705 4.739,2.506 4.739,2.506c0.11,0.059 0.242,0.055 0.349,-0.009c0.107,-0.065 0.172,-0.18 0.172,-0.304l-0,-2.819c-0,-0.196 -0.159,-0.355 -0.355,-0.355c-0.196,0 -0.355,0.159 -0.355,0.355Z" style="fill:#838588;"/><path d="M231.807,173.847l-0.02,2.865c-0.001,0.094 0.036,0.185 0.103,0.252c0.066,0.067 0.157,0.105 0.251,0.105l3.33,0.01c0.196,0.001 0.355,-0.157 0.356,-0.352l0.019,-2.523c-0,0 0.416,0 0.416,0c0,0 0,2.51 0,2.51c0,0.196 0.159,0.355 0.355,0.355c0.196,0 0.355,-0.159 0.355,-0.355l0,-2.865c0,-0.196 -0.159,-0.355 -0.355,-0.355l-1.124,0c-0.195,0 -0.353,0.158 -0.355,0.353l-0.018,2.521c-0,0 -2.621,-0.008 -2.621,-0.008c0,0 0.018,-2.508 0.018,-2.508c0.001,-0.196 -0.157,-0.356 -0.353,-0.358c-0.196,-0.001 -0.356,0.157 -0.357,0.353Z" style="fill:#838588;"/><path d="M231.807,194.778l-0.02,2.864c-0.001,0.095 0.036,0.186 0.103,0.253c0.067,0.067 0.157,0.105 0.252,0.105l2.238,-0c0.196,-0 0.355,-0.159 0.355,-0.355l-0,-2.51c-0,0 1.527,0 1.527,0c0,0 0,2.51 0,2.51c0,0.196 0.159,0.355 0.355,0.355c0.196,-0 0.355,-0.159 0.355,-0.355l0,-2.865c0,-0.196 -0.159,-0.355 -0.355,-0.355l-2.237,0c-0.196,0 -0.355,0.159 -0.355,0.355l-0,2.51c-0,-0 -1.526,-0 -1.526,-0c0.006,-0.768 0.018,-2.507 0.018,-2.507c0.001,-0.196 -0.157,-0.356 -0.353,-0.358c-0.196,-0.001 -0.356,0.157 -0.357,0.353Z" style="fill:#838588;"/><circle cx="216" cy="177.09" r="4.83" style="fill:#838588;"/><path d="M216.301,182.568c-0.065,-0.103 -0.179,-0.167 -0.301,-0.167c-0.123,0 -0.236,0.064 -0.301,0.167l-1.391,2.226c-0.068,0.11 -0.072,0.248 -0.009,0.36c0.063,0.113 0.181,0.183 0.31,0.183l2.781,0c0.129,0 0.248,-0.07 0.311,-0.183c0.062,-0.112 0.059,-0.25 -0.01,-0.36l-1.39,-2.226Z" style="fill:#838588;"/></g><g id="Jacks"><circle cx="178.754" cy="186.795" r="6.37" style="fill:#dedede;"/><circle cx="178.754" cy="207.187" r="6.37" style="fill:#dedede;"/><circle cx="252.934" cy="186.795" r="6.37" style="fill:#dedede;"/><circle cx="252.894" cy="207.187" r="6.37" style="fill:#dedede;"/><g id="Flat-jack" serif:id="Flat jack"><path d="M215.847,201.54c0.06,-0.034 0.133,-0.034 0.193,0c0.626,0.362 4.12,2.379 4.746,2.741c0.059,0.034 0.096,0.097 0.096,0.166c-0,0.723 0,4.757 0,5.48c0,0.069 -0.036,0.133 -0.096,0.167c-0.626,0.362 -4.12,2.379 -4.746,2.74c-0.059,0.034 -0.133,0.034 -0.192,0c-0.626,-0.361 -4.12,-2.378 -4.746,-2.74c-0.06,-0.034 -0.096,-0.098 -0.096,-0.167c-0,-0.723 -0.001,-4.757 -0.001,-5.48c0,-0.069 0.037,-0.132 0.097,-0.166c0.626,-0.362 4.119,-2.379 4.745,-2.741Z" style="fill:#d5d5d5;"/><path d="M215.622,201.151c0.199,-0.115 0.444,-0.115 0.643,-0l4.746,2.74c0.199,0.115 0.321,0.327 0.321,0.556l0,5.48c0,0.23 -0.122,0.442 -0.321,0.557l-4.746,2.74c-0.198,0.115 -0.443,0.115 -0.642,-0l-4.746,-2.74c-0.199,-0.115 -0.321,-0.327 -0.321,-0.557l-0.001,-5.48c0,-0.229 0.123,-0.441 0.322,-0.556l4.745,-2.74Zm0.225,0.389l-4.745,2.741c-0.06,0.034 -0.097,0.097 -0.097,0.166l0.001,5.48c-0,0.069 0.036,0.133 0.096,0.167l4.746,2.74c0.059,0.034 0.133,0.034 0.192,0l4.746,-2.74c0.06,-0.034 0.096,-0.098 0.096,-0.167l-0,-5.48c-0,-0.069 -0.037,-0.132 -0.096,-0.166l-4.746,-2.741c-0.06,-0.034 -0.133,-0.034 -0.193,0Z" style="fill:#a9a9a9;"/><ellipse cx="215.944" cy="207.187" rx="2.999" ry="2.999" style="fill:#838588;"/></g><g id="Flat-jack1" serif:id="Flat jack"><path d="M234.211,201.54c0.06,-0.034 0.133,-0.034 0.193,0c0.626,0.362 4.119,2.379 4.746,2.741c0.059,0.034 0.096,0.097 0.096,0.166c-0,0.723 -0,4.757 0,5.48c0,0.069 -0.037,0.133 -0.096,0.167c-0.626,0.362 -4.12,2.379 -4.746,2.74c-0.059,0.034 -0.133,0.034 -0.192,0c-0.627,-0.361 -4.12,-2.378 -4.746,-2.74c-0.06,-0.034 -0.096,-0.098 -0.096,-0.167c-0.001,-0.723 -0.001,-4.757 -0.001,-5.48c0,-0.069 0.037,-0.132 0.096,-0.166c0.627,-0.362 4.12,-2.379 4.746,-2.741Z" style="fill:#d5d5d5;"/><path d="M233.986,201.151c0.199,-0.115 0.444,-0.115 0.643,-0l4.746,2.74c0.198,0.115 0.321,0.327 0.321,0.556l0,5.48c0,0.23 -0.122,0.442 -0.321,0.557l-4.746,2.74c-0.199,0.115 -0.443,0.115 -0.642,-0l-4.746,-2.74c-0.199,-0.115 -0.321,-0.327 -0.321,-0.557l-0.001,-5.48c0,-0.229 0.123,-0.441 0.321,-0.556l4.746,-2.74Zm0.225,0.389l-4.746,2.741c-0.059,0.034 -0.096,0.097 -0.096,0.166l0.001,5.48c-0,0.069 0.036,0.133 0.096,0.167l4.746,2.74c0.059,0.034 0.133,0.034 0.192,0l4.746,-2.74c0.059,-0.034 0.096,-0.098 0.096,-0.167l-0,-5.48c-0,-0.069 -0.037,-0.132 -0.096,-0.166l-4.746,-2.741c-0.06,-0.034 -0.133,-0.034 -0.193,0Z" style="fill:#a9a9a9;"/><ellipse cx="234.308" cy="207.187" rx="2.999" ry="2.999" style="fill:#838588;"/></g><g id="Flat-jack2" serif:id="Flat jack"><path d="M252.797,201.54c0.06,-0.034 0.133,-0.034 0.192,0c0.627,0.362 4.12,2.379 4.747,2.741c0.059,0.034 0.096,0.097 0.096,0.166c-0,0.723 -0,4.757 -0,5.48c-0,0.069 -0.037,0.133 -0.096,0.167c-0.626,0.362 -4.12,2.379 -4.746,2.74c-0.059,0.034 -0.133,0.034 -0.192,0c-0.627,-0.361 -4.12,-2.378 -4.746,-2.74c-0.06,-0.034 -0.097,-0.098 -0.097,-0.167c0,-0.723 0,-4.757 0,-5.48c0,-0.069 0.037,-0.132 0.096,-0.166c0.627,-0.362 4.12,-2.379 4.746,-2.741Z" style="fill:#d5d5d5;"/><path d="M252.572,201.151c0.199,-0.115 0.444,-0.115 0.642,-0l4.747,2.74c0.198,0.115 0.321,0.327 0.321,0.556l-0,5.48c-0,0.23 -0.122,0.442 -0.321,0.557l-4.746,2.74c-0.199,0.115 -0.444,0.115 -0.642,-0l-4.746,-2.74c-0.199,-0.115 -0.321,-0.327 -0.322,-0.557l0,-5.48c0,-0.229 0.123,-0.441 0.321,-0.556l4.746,-2.74Zm0.225,0.389l-4.746,2.741c-0.059,0.034 -0.096,0.097 -0.096,0.166l0,5.48c0,0.069 0.037,0.133 0.097,0.167l4.746,2.74c0.059,0.034 0.133,0.034 0.192,0l4.746,-2.74c0.059,-0.034 0.096,-0.098 0.096,-0.167l-0,-5.48c-0,-0.069 -0.037,-0.132 -0.096,-0.166l-4.747,-2.741c-0.059,-0.034 -0.132,-0.034 -0.192,0Z" style="fill:#a9a9a9;"/><ellipse cx="252.894" cy="207.187" rx="2.999" ry="2.999" style="fill:#838588;"/></g><g id="Flat-jack3" serif:id="Flat jack"><path d="M252.838,181.148c0.059,-0.034 0.133,-0.034 0.192,0c0.626,0.362 4.12,2.379 4.746,2.74c0.06,0.035 0.096,0.098 0.096,0.167c0,0.723 0.001,4.757 0.001,5.48c-0,0.069 -0.037,0.132 -0.097,0.167c-0.626,0.361 -4.119,2.378 -4.745,2.74c-0.06,0.034 -0.133,0.034 -0.193,0c-0.626,-0.362 -4.12,-2.379 -4.746,-2.74c-0.059,-0.035 -0.096,-0.098 -0.096,-0.167c0,-0.723 -0,-4.757 -0,-5.48c-0,-0.069 0.036,-0.132 0.096,-0.167c0.626,-0.361 4.12,-2.378 4.746,-2.74Z" style="fill:#d5d5d5;"/><path d="M252.613,180.759c0.198,-0.115 0.443,-0.115 0.642,-0l4.746,2.74c0.199,0.114 0.321,0.326 0.321,0.556l0.001,5.48c-0,0.23 -0.123,0.442 -0.322,0.557l-4.745,2.74c-0.199,0.114 -0.444,0.114 -0.643,-0l-4.746,-2.74c-0.199,-0.115 -0.321,-0.327 -0.321,-0.557l-0,-5.48c-0,-0.23 0.122,-0.442 0.321,-0.556l4.746,-2.74Zm0.225,0.389l-4.746,2.74c-0.06,0.035 -0.096,0.098 -0.096,0.167l0,5.48c0,0.069 0.037,0.132 0.096,0.167l4.746,2.74c0.06,0.034 0.133,0.034 0.193,-0l4.745,-2.74c0.06,-0.035 0.097,-0.098 0.097,-0.167l-0.001,-5.48c0,-0.069 -0.036,-0.132 -0.096,-0.167l-4.746,-2.74c-0.059,-0.034 -0.133,-0.034 -0.192,0Z" style="fill:#a9a9a9;"/><ellipse cx="252.934" cy="186.795" rx="2.999" ry="2.999" style="fill:#838588;"/></g><g id="Flat-jack4" serif:id="Flat jack"><path d="M178.658,181.148c0.059,-0.034 0.132,-0.034 0.192,0c0.626,0.362 4.12,2.379 4.746,2.74c0.059,0.035 0.096,0.098 0.096,0.167c0,0.723 0,4.757 0,5.48c0,0.069 -0.036,0.132 -0.096,0.167c-0.626,0.361 -4.119,2.378 -4.746,2.74c-0.059,0.034 -0.132,0.034 -0.192,0c-0.626,-0.362 -4.12,-2.379 -4.746,-2.74c-0.059,-0.035 -0.096,-0.098 -0.096,-0.167c-0,-0.723 -0,-4.757 -0,-5.48c-0,-0.069 0.036,-0.132 0.096,-0.167c0.626,-0.361 4.119,-2.378 4.746,-2.74Z" style="fill:#d5d5d5;"/><path d="M178.433,180.759c0.198,-0.115 0.443,-0.115 0.642,-0l4.746,2.74c0.199,0.114 0.321,0.326 0.321,0.556l0,5.48c0,0.23 -0.122,0.442 -0.321,0.557l-4.746,2.74c-0.198,0.114 -0.443,0.114 -0.642,-0l-4.746,-2.74c-0.199,-0.115 -0.321,-0.327 -0.321,-0.557l-0,-5.48c-0,-0.23 0.122,-0.442 0.321,-0.556l4.746,-2.74Zm0.225,0.389l-4.746,2.74c-0.06,0.035 -0.096,0.098 -0.096,0.167l-0,5.48c-0,0.069 0.037,0.132 0.096,0.167l4.746,2.74c0.06,0.034 0.133,0.034 0.192,-0l4.746,-2.74c0.06,-0.035 0.096,-0.098 0.096,-0.167l0,-5.48c0,-0.069 -0.037,-0.132 -0.096,-0.167l-4.746,-2.74c-0.06,-0.034 -0.133,-0.034 -0.192,0Z" style="fill:#a9a9a9;"/><ellipse cx="178.754" cy="186.795" rx="2.999" ry="2.999" style="fill:#838588;"/></g><g id="Flat-jack5" serif:id="Flat jack"><path d="M178.658,201.54c0.059,-0.034 0.132,-0.034 0.192,0c0.626,0.362 4.12,2.379 4.746,2.741c0.059,0.034 0.096,0.097 0.096,0.166c0,0.723 0,4.757 0,5.48c0,0.069 -0.036,0.133 -0.096,0.167c-0.626,0.362 -4.119,2.379 -4.746,2.74c-0.059,0.034 -0.132,0.034 -0.192,0c-0.626,-0.361 -4.12,-2.378 -4.746,-2.74c-0.059,-0.034 -0.096,-0.098 -0.096,-0.167c-0,-0.723 -0,-4.757 -0,-5.48c-0,-0.069 0.036,-0.132 0.096,-0.166c0.626,-0.362 4.119,-2.379 4.746,-2.741Z" style="fill:#d5d5d5;"/><path d="M178.433,201.151c0.198,-0.115 0.443,-0.115 0.642,-0l4.746,2.74c0.199,0.115 0.321,0.327 0.321,0.556l0,5.48c0,0.23 -0.122,0.442 -0.321,0.557l-4.746,2.74c-0.198,0.115 -0.443,0.115 -0.642,-0l-4.746,-2.74c-0.199,-0.115 -0.321,-0.327 -0.321,-0.557l-0,-5.48c-0,-0.229 0.122,-0.441 0.321,-0.556l4.746,-2.74Zm0.225,0.389l-4.746,2.741c-0.06,0.034 -0.096,0.097 -0.096,0.166l-0,5.48c-0,0.069 0.037,0.133 0.096,0.167l4.746,2.74c0.06,0.034 0.133,0.034 0.192,0l4.746,-2.74c0.06,-0.034 0.096,-0.098 0.096,-0.167l0,-5.48c0,-0.069 -0.037,-0.132 -0.096,-0.166l-4.746,-2.741c-0.06,-0.034 -0.133,-0.034 -0.192,0Z" style="fill:#a9a9a9;"/><ellipse cx="178.754" cy="207.187" rx="2.999" ry="2.999" style="fill:#838588;"/></g><g id="Flat-jack6" serif:id="Flat jack"><path d="M197.238,201.54c0.06,-0.034 0.133,-0.034 0.193,0c0.626,0.362 4.12,2.379 4.746,2.741c0.059,0.034 0.096,0.097 0.096,0.166c-0,0.723 0,4.757 0,5.48c0,0.069 -0.036,0.133 -0.096,0.167c-0.626,0.362 -4.119,2.379 -4.746,2.74c-0.059,0.034 -0.133,0.034 -0.192,0c-0.626,-0.361 -4.12,-2.378 -4.746,-2.74c-0.06,-0.034 -0.096,-0.098 -0.096,-0.167c-0,-0.723 -0,-4.757 -0.001,-5.48c0,-0.069 0.037,-0.132 0.097,-0.166c0.626,-0.362 4.119,-2.379 4.745,-2.741Z" style="fill:#d5d5d5;"/><path d="M197.013,201.151c0.199,-0.115 0.444,-0.115 0.643,-0l4.746,2.74c0.199,0.115 0.321,0.327 0.321,0.556l0,5.48c0,0.23 -0.122,0.442 -0.321,0.557l-4.746,2.74c-0.198,0.115 -0.443,0.115 -0.642,-0l-4.746,-2.74c-0.199,-0.115 -0.321,-0.327 -0.321,-0.557l-0.001,-5.48c0,-0.229 0.123,-0.441 0.322,-0.556l4.745,-2.74Zm0.225,0.389l-4.745,2.741c-0.06,0.034 -0.097,0.097 -0.097,0.166l0.001,5.48c-0,0.069 0.036,0.133 0.096,0.167l4.746,2.74c0.059,0.034 0.133,0.034 0.192,0l4.746,-2.74c0.06,-0.034 0.096,-0.098 0.096,-0.167l-0,-5.48c-0,-0.069 -0.037,-0.132 -0.096,-0.166l-4.746,-2.741c-0.06,-0.034 -0.133,-0.034 -0.193,0Z" style="fill:#a9a9a9;"/><ellipse cx="197.335" cy="207.187" rx="2.999" ry="2.999" style="fill:#838588;"/></g></g><g id="Stars"><path d="M219.671,87.673l0.885,2.682c0.036,0.107 0.121,0.192 0.229,0.226c0.108,0.035 0.226,0.016 0.318,-0.051l1.574,-1.15l-0.108,1.947c-0.006,0.113 0.042,0.223 0.13,0.294c0.088,0.072 0.205,0.098 0.315,0.069l2.731,-0.717l-1.88,2.107c-0.075,0.085 -0.106,0.201 -0.082,0.312c0.024,0.111 0.1,0.203 0.204,0.249l1.783,0.789l-1.74,0.879c-0.101,0.052 -0.172,0.148 -0.19,0.26c-0.018,0.112 0.018,0.226 0.098,0.307l1.986,2.007l-2.765,-0.574c-0.111,-0.023 -0.226,0.008 -0.31,0.084c-0.084,0.077 -0.127,0.189 -0.115,0.301l0.209,1.939l-1.632,-1.067c-0.095,-0.062 -0.214,-0.075 -0.32,-0.035c-0.106,0.04 -0.187,0.129 -0.217,0.238l-0.745,2.724l-0.885,-2.681c-0.035,-0.108 -0.12,-0.192 -0.228,-0.227c-0.108,-0.035 -0.226,-0.016 -0.318,0.051l-1.574,1.15l0.108,-1.946c0.006,-0.114 -0.042,-0.223 -0.13,-0.295c-0.088,-0.072 -0.205,-0.097 -0.315,-0.068l-2.732,0.716l1.88,-2.107c0.076,-0.085 0.106,-0.2 0.082,-0.311c-0.024,-0.111 -0.099,-0.204 -0.203,-0.25l-1.783,-0.788l1.74,-0.88c0.101,-0.051 0.172,-0.148 0.19,-0.26c0.018,-0.112 -0.018,-0.226 -0.098,-0.307l-1.987,-2.007l2.765,0.575c0.111,0.023 0.227,-0.009 0.311,-0.085c0.084,-0.076 0.127,-0.188 0.114,-0.301l-0.208,-1.938l1.632,1.066c0.095,0.063 0.214,0.075 0.32,0.035c0.106,-0.04 0.186,-0.129 0.216,-0.238l0.745,-2.724Z" style="fill:#d5d5d5;"/><path d="M212.572,98.952l-1.3,0.978l-0.241,-1.703l-2.771,1.535l1.535,-2.771l-1.703,-0.241l1.034,-1.374l-3.045,-0.875l3.045,-0.874l-1.034,-1.374l1.703,-0.241l-1.535,-2.771l2.771,1.535l0.241,-1.703l1.375,1.034l0.874,-3.046l0.874,3.046l1.374,-1.034l0.241,1.703l0.158,-0.088l0.04,0.375l-3.44,-0.714c-0.153,-0.032 -0.309,0.04 -0.384,0.178c-0.075,0.137 -0.05,0.308 0.06,0.419l2.471,2.497l-1.973,0.998c-0.123,0.062 -0.199,0.189 -0.195,0.326c0.004,0.137 0.086,0.26 0.211,0.316l2.023,0.894l-2.339,2.622c-0.087,0.098 -0.112,0.233 -0.07,0.353Zm5.574,-9.359l0.311,-0.173l-0.087,0.319l-0.224,-0.146Zm0.549,10.121l-0.21,-0.116l0.138,-0.101l0.072,0.217Zm-2.308,-1.278l-0.179,-0.1l0.188,-0.049l-0.009,0.149Zm-0.401,-0.042l-0.217,1.536l-1.374,-1.034l-0.874,3.045l-0.806,-2.807c0.082,0.053 0.184,0.071 0.282,0.045l2.989,-0.785Z" style="fill:#d5d5d5;"/><path d="M230.309,123.619l0.961,1.28l0.623,-0.898l0.149,1.083l1.436,-0.705l-0.92,1.309l1.046,0.316l-0.984,0.476l1.115,1.148l-1.529,-0.471l0.023,1.093l-0.757,-0.788l-0.748,1.414l-0.025,-1.6l-1.032,0.36l0.516,-0.964l-1.576,-0.274l1.514,-0.517l-0.661,-0.871l1.076,0.193l-0.227,-1.584Z" style="fill:#d5d5d5;stroke:#d5d5d5;stroke-width:1.5px;stroke-linecap:butt;stroke-miterlimit:2;"/><path d="M216.289,162.121l0.235,1.93l0.642,-0.479l0.06,0.799l1.611,-1.089l-1.06,1.63l0.799,0.046l-0.467,0.65l1.933,0.201l-1.859,0.567l0.583,0.549l-0.776,0.198l1.351,1.397l-1.788,-0.762l0.093,0.796l-0.721,-0.348l0.137,1.939l-0.881,-1.733l-0.439,0.67l-0.33,-0.73l-1.141,1.574l0.439,-1.894l-0.767,0.231l0.217,-0.771l-1.886,0.472l1.554,-1.169l-0.736,-0.316l0.662,-0.451l-1.748,-0.851l1.941,0.104l-0.36,-0.716l0.797,0.08l-0.792,-1.775l1.42,1.327l0.184,-0.78l0.559,0.574l0.534,-1.87Z" style="fill:#d5d5d5;stroke:#d5d5d5;stroke-width:0.8px;stroke-linecap:butt;stroke-miterlimit:2;"/><path d="M232.398,119.927l0.324,0.625l0.475,0.305l-0.475,0.305l-0.324,0.625l-0.324,-0.625l-0.474,-0.305l0.474,-0.305l0.324,-0.625Z" style="fill:#d5d5d5;stroke:#d5d5d5;stroke-width:1.5px;stroke-linecap:butt;stroke-miterlimit:2;"/><path d="M246.214,143.278l-0.053,2.354l1.649,-0.046l-1.028,1.291l1.913,1.373l-2.354,-0.054l0.045,1.65l-1.291,-1.028l-1.373,1.912l0.054,-2.354l-1.65,0.045l1.029,-1.29l-1.913,-1.373l2.354,0.053l-0.045,-1.649l1.29,1.028l1.373,-1.912Z" style="fill:#d5d5d5;stroke:#d5d5d5;stroke-width:1.5px;stroke-linecap:butt;stroke-miterlimit:2;"/><path d="M177.808,146.422l0.645,1.878l1.388,0.172l-0.71,1.205l1.096,1.657l-1.949,-0.381l-0.843,1.116l-0.689,-1.217l-1.982,0.12l1.304,-1.497l-0.545,-1.288l1.399,0.012l0.886,-1.777Z" style="fill:#d5d5d5;stroke:#d5d5d5;stroke-width:1.5px;stroke-linecap:butt;stroke-miterlimit:2;"/><path d="M200.375,127.787l0.679,2.397c0.007,0.025 0.018,0.049 0.032,0.068c0.013,0.019 0.029,0.034 0.046,0.044l1.606,0.886l-1.552,0.977c-0.017,0.01 -0.031,0.026 -0.044,0.046c-0.012,0.02 -0.021,0.044 -0.027,0.07l-0.54,2.432l-0.679,-2.396c-0.007,-0.026 -0.018,-0.049 -0.031,-0.069c-0.014,-0.019 -0.03,-0.034 -0.047,-0.043l-1.606,-0.886l1.552,-0.978c0.017,-0.01 0.032,-0.026 0.044,-0.046c0.012,-0.02 0.022,-0.044 0.028,-0.07l0.539,-2.432Z" style="fill:#d5d5d5;stroke:#d5d5d5;stroke-width:1.5px;"/><path d="M237.858,144.221l0.494,0.863c0.004,0.007 0.008,0.013 0.013,0.018c0.005,0.005 0.01,0.01 0.016,0.012l0.684,0.372l-0.49,0.606c-0.004,0.004 -0.007,0.01 -0.009,0.017c-0.003,0.007 -0.005,0.014 -0.006,0.022l-0.125,0.986l-0.495,-0.863c-0.003,-0.007 -0.008,-0.013 -0.013,-0.018c-0.005,-0.005 -0.01,-0.009 -0.016,-0.012l-0.683,-0.372l0.489,-0.605c0.004,-0.005 0.007,-0.011 0.01,-0.018c0.002,-0.006 0.004,-0.014 0.005,-0.021l0.126,-0.987Z" style="fill:#d5d5d5;stroke:#d5d5d5;stroke-width:1.5px;"/><path d="M184.687,112.235l0.326,-0.465c0.003,-0.004 0.005,-0.008 0.007,-0.014c0.002,-0.005 0.003,-0.012 0.004,-0.018l0.136,-0.853l0.236,0.831c0.002,0.006 0.004,0.012 0.007,0.018c0.002,0.005 0.005,0.009 0.008,0.013l0.378,0.423l-0.325,0.465c-0.003,0.004 -0.005,0.009 -0.007,0.014c-0.002,0.006 -0.003,0.012 -0.005,0.019l-0.136,0.852l-0.235,-0.83c-0.002,-0.007 -0.004,-0.013 -0.007,-0.018c-0.003,-0.005 -0.005,-0.01 -0.008,-0.013l-0.379,-0.424Z" style="fill:#d5d5d5;stroke:#d5d5d5;stroke-width:1.5px;"/><path d="M249.18,149.339l0.181,1.001c0.002,0.012 0.006,0.023 0.01,0.031c0.004,0.009 0.008,0.015 0.013,0.019l0.417,0.313l-0.384,0.353c-0.005,0.004 -0.009,0.011 -0.012,0.02c-0.003,0.009 -0.005,0.02 -0.006,0.032l-0.083,1.014l-0.181,-1.001c-0.003,-0.012 -0.006,-0.023 -0.01,-0.032c-0.004,-0.008 -0.008,-0.015 -0.013,-0.018l-0.417,-0.313l0.384,-0.353c0.005,-0.004 0.009,-0.011 0.012,-0.02c0.003,-0.009 0.005,-0.02 0.006,-0.032l0.083,-1.014Z" style="fill:#d5d5d5;stroke:#d5d5d5;stroke-width:1.5px;"/><path d="M252.881,108.389l0.524,1.671c0.011,0.033 0.034,0.062 0.065,0.08c0.031,0.018 0.068,0.024 0.104,0.017l1.776,-0.343l-0.859,1.521c-0.017,0.031 -0.022,0.066 -0.013,0.1c0.009,0.034 0.031,0.063 0.062,0.082l1.526,0.963l-1.74,0.48c-0.034,0.01 -0.064,0.031 -0.082,0.061c-0.019,0.03 -0.025,0.065 -0.017,0.099l0.382,1.705l-1.601,-0.843c-0.032,-0.017 -0.069,-0.022 -0.105,-0.013c-0.035,0.008 -0.065,0.028 -0.085,0.057l-0.986,1.448l-0.524,-1.671c-0.011,-0.034 -0.034,-0.062 -0.065,-0.08c-0.031,-0.018 -0.068,-0.024 -0.104,-0.018l-1.776,0.343l0.859,-1.521c0.017,-0.03 0.022,-0.066 0.013,-0.099c-0.009,-0.034 -0.031,-0.063 -0.062,-0.083l-1.526,-0.963l1.74,-0.479c0.035,-0.01 0.064,-0.032 0.082,-0.061c0.019,-0.03 0.025,-0.065 0.017,-0.099l-0.382,-1.705l1.601,0.843c0.032,0.017 0.069,0.021 0.105,0.013c0.035,-0.008 0.065,-0.029 0.085,-0.057l0.986,-1.448Z" style="fill:#d5d5d5;stroke:#d5d5d5;stroke-width:1.5px;"/><path d="M190.321,109.69l0.7,1.116c0.011,0.018 0.028,0.033 0.049,0.043c0.021,0.009 0.044,0.013 0.066,0.01l1.349,-0.173l-0.477,1.217c-0.008,0.021 -0.009,0.043 -0.004,0.064c0.005,0.021 0.016,0.04 0.033,0.055l0.983,0.9l-1.295,0.403c-0.021,0.006 -0.04,0.019 -0.055,0.036c-0.014,0.017 -0.022,0.038 -0.025,0.059l-0.123,1.295l-1.137,-0.715c-0.019,-0.012 -0.041,-0.018 -0.064,-0.018c-0.022,-0 -0.045,0.006 -0.064,0.018l-1.136,0.715l-0.124,-1.295c-0.002,-0.021 -0.011,-0.042 -0.025,-0.059c-0.014,-0.017 -0.033,-0.03 -0.055,-0.036l-1.294,-0.403l0.983,-0.9c0.017,-0.015 0.028,-0.034 0.033,-0.055c0.005,-0.021 0.004,-0.043 -0.004,-0.064l-0.477,-1.217l1.349,0.173c0.022,0.003 0.045,-0.001 0.066,-0.01c0.02,-0.01 0.037,-0.025 0.049,-0.043l0.699,-1.116Z" style="fill:#d5d5d5;stroke:#d5d5d5;stroke-width:1.5px;"/></g><g id="Controls"><g id="_1900h" serif:id="1900h"><circle cx="216" cy="114.618" r="8.519" style="fill:#838588;"/><rect x="215.69" y="107.126" width="0.62" height="5.906" style="fill:#fff;"/></g><g id="_1900h1" serif:id="1900h"><circle cx="216" cy="144.628" r="8.519" style="fill:#838588;"/><rect x="215.69" y="137.136" width="0.62" height="5.906" style="fill:#fff;"/></g><g id="_1900h2" serif:id="1900h"><circle cx="184.835" cy="127.59" r="8.519" style="fill:#838588;"/><rect x="184.525" y="120.098" width="0.62" height="5.906" style="fill:#fff;"/></g><g id="_1900h3" serif:id="1900h"><circle cx="247.125" cy="127.59" r="8.519" style="fill:#838588;"/><rect x="246.815" y="120.098" width="0.62" height="5.906" style="fill:#fff;"/></g><g id="Large-MXR" serif:id="Large MXR"><circle cx="190.469" cy="86.043" r="16.77" style="fill:#838588;"/><rect x="189.768" y="73.486" width="1.402" height="11.704" style="fill:#fff;"/><circle cx="190.469" cy="70.882" r="0.701" style="fill:#fff;"/></g><g id="Large-MXR1" serif:id="Large MXR"><circle cx="241.531" cy="86.043" r="16.77" style="fill:#838588;"/><rect x="240.831" y="73.486" width="1.402" height="11.704" style="fill:#fff;"/><circle cx="241.531" cy="70.882" r="0.701" style="fill:#fff;"/></g><g id="_1RWHT" serif:id="1RWHT"><ellipse cx="215.959" cy="177.105" rx="3.492" ry="3.497" style="fill:#d5d5d5;"/></g><g id="Tall-Trimmer" serif:id="Tall Trimmer"><circle cx="197.335" cy="166.541" r="4.025" style="fill:#838588;"/><rect x="196.943" y="162.516" width="0.784" height="2.157" style="fill:#fff;"/></g><g id="Tall-Trimmer1" serif:id="Tall Trimmer"><circle cx="178.754" cy="166.541" r="4.025" style="fill:#838588;"/><rect x="178.362" y="162.516" width="0.784" height="2.157" style="fill:#fff;"/></g><g id="Tall-Trimmer2" serif:id="Tall Trimmer"><circle cx="197.335" cy="186.795" r="4.025" style="fill:#838588;"/><rect x="196.943" y="182.77" width="0.784" height="2.157" style="fill:#fff;"/></g><g id="Tall-Trimmer3" serif:id="Tall Trimmer"><circle cx="252.894" cy="166.541" r="4.025" style="fill:#838588;"/><rect x="252.501" y="162.516" width="0.784" height="2.157" style="fill:#fff;"/></g><g id="Tall-Trimmer4" serif:id="Tall Trimmer"><circle cx="234.406" cy="186.795" r="4.025" style="fill:#838588;"/><rect x="234.014" y="182.77" width="0.784" height="2.157" style="fill:#fff;"/></g><g id="Tall-Trimmer5" serif:id="Tall Trimmer"><circle cx="234.308" cy="166.541" r="4.025" style="fill:#838588;"/><rect x="233.916" y="162.516" width="0.784" height="2.157" style="fill:#fff;"/></g></g></g></g></svg>