<?xml version="1.0" encoding="UTF-8" standalone="no"?>
<!DOCTYPE svg PUBLIC "-//W3C//DTD SVG 1.1//EN" "http://www.w3.org/Graphics/SVG/1.1/DTD/svg11.dtd">
<svg width="100%" height="100%" viewBox="0 0 7080 12850" version="1.1" xmlns="http://www.w3.org/2000/svg" xmlns:xlink="http://www.w3.org/1999/xlink" xml:space="preserve" xmlns:serif="http://www.serif.com/" style="fill-rule:evenodd;clip-rule:evenodd;stroke-linecap:round;stroke-linejoin:round;stroke-miterlimit:1.5;">
    <g id="EdgeCuts" transform="matrix(2.37291,0,0,5.96126,-1755.3,-5311.42)">
        <rect x="739.724" y="890.991" width="2983.68" height="2155.59" style="fill:rgb(31,31,31);"/>
    </g>
    <g id="BMask" transform="matrix(8.46667,0,0,8.46667,-7255,-7545)">
        <g>
            <g transform="matrix(1,0,0,1,0,37.5)">
                <circle cx="1265.63" cy="1150.98" r="55.266" style="fill:rgb(0,255,247);"/>
            </g>
            <g transform="matrix(1,0,0,1,0,37.5)">
                <circle cx="1134.3" cy="1206.25" r="46.726" style="fill:rgb(0,255,247);"/>
            </g>
            <g transform="matrix(1,0,0,1,0,37.5)">
                <circle cx="1160.52" cy="1271.67" r="16.762" style="fill:rgb(0,255,247);"/>
            </g>
            <g transform="matrix(1,0,0,1,0,37.5)">
                <circle cx="1236.79" cy="1288.61" r="16.771" style="fill:rgb(0,255,247);"/>
            </g>
            <g transform="matrix(1,0,0,1,0,37.5)">
                <circle cx="1362.82" cy="1281.02" r="23.441" style="fill:rgb(0,255,247);"/>
            </g>
            <g transform="matrix(1,0,0,1,0,37.5)">
                <circle cx="1531.5" cy="1248.61" r="23.047" style="fill:rgb(0,255,247);"/>
            </g>
            <g transform="matrix(1,0,0,1,0,37.5)">
                <circle cx="1164.66" cy="1463.07" r="24.505" style="fill:rgb(0,255,247);"/>
            </g>
            <g transform="matrix(1,0,0,1,0,37.5)">
                <circle cx="1238.59" cy="1565.97" r="20.905" style="fill:rgb(0,255,247);"/>
            </g>
            <g transform="matrix(1,0,0,1,0,37.5)">
                <circle cx="1079.82" cy="1614.43" r="25.727" style="fill:rgb(0,255,247);"/>
            </g>
            <g transform="matrix(1,0,0,1,0,37.5)">
                <circle cx="1531.5" cy="1668.53" r="25.677" style="fill:rgb(0,255,247);"/>
            </g>
            <g transform="matrix(1,0,0,1,0,37.5)">
                <circle cx="1664.33" cy="1710.45" r="17.375" style="fill:rgb(0,255,247);"/>
            </g>
            <g transform="matrix(1,0,0,1,0,37.5)">
                <circle cx="1339.38" cy="1781.32" r="27.003" style="fill:rgb(0,255,247);"/>
            </g>
            <g transform="matrix(1,0,0,1,0,37.5)">
                <circle cx="1231.17" cy="1850.63" r="24.569" style="fill:rgb(0,255,247);"/>
            </g>
        </g>
    </g>
    <g transform="matrix(1,0,0,1,-50.9048,0)">
        <g id="BCu">
            <rect x="1146.08" y="11593.6" width="4876.16" height="941.834" style="fill:rgb(0,255,190);stroke:rgb(255,33,0);stroke-width:52.92px;"/>
        </g>
    </g>
    <g transform="matrix(8.46667,0,0,8.46667,-7250.62,-7227.5)">
        <g id="FCu">
            <path d="M1687.68,858.605L861.097,858.605L861.097,2365.99L1687.68,2365.99L1687.68,858.605ZM1452.56,2113.29C1430.62,2113.29 1412.82,2131.09 1412.82,2153.03C1412.82,2174.96 1430.62,2192.77 1452.56,2192.77C1474.49,2192.77 1492.3,2174.96 1492.3,2153.03C1492.3,2131.09 1474.49,2113.29 1452.56,2113.29ZM1098.23,2113.29C1076.29,2113.29 1058.49,2131.09 1058.49,2153.03C1058.49,2174.96 1076.29,2192.77 1098.23,2192.77C1120.16,2192.77 1137.96,2174.96 1137.96,2153.03C1137.96,2131.09 1120.16,2113.29 1098.23,2113.29ZM1274.2,2113.29C1252.27,2113.29 1234.46,2131.09 1234.46,2153.03C1234.46,2174.96 1252.27,2192.77 1274.2,2192.77C1296.14,2192.77 1313.94,2174.96 1313.94,2153.03C1313.94,2131.09 1296.14,2113.29 1274.2,2113.29ZM1098.23,1898.92C1075.32,1898.92 1056.71,1917.52 1056.71,1940.43C1056.71,1963.34 1075.32,1981.94 1098.23,1981.94C1121.14,1981.94 1139.74,1963.34 1139.74,1940.43C1139.74,1917.52 1121.14,1898.92 1098.23,1898.92ZM1274.2,1898.92C1251.29,1898.92 1232.69,1917.52 1232.69,1940.43C1232.69,1963.34 1251.29,1981.94 1274.2,1981.94C1297.11,1981.94 1315.71,1963.34 1315.71,1940.43C1315.71,1917.52 1297.11,1898.92 1274.2,1898.92ZM1452.56,1898.92C1429.65,1898.92 1411.05,1917.52 1411.05,1940.43C1411.05,1963.34 1429.65,1981.94 1452.56,1981.94C1475.47,1981.94 1494.07,1963.34 1494.07,1940.43C1494.07,1917.52 1475.47,1898.92 1452.56,1898.92ZM1594.29,1900.69C1572.36,1900.69 1554.55,1918.5 1554.55,1940.43C1554.55,1962.36 1572.36,1980.17 1594.29,1980.17C1616.22,1980.17 1634.03,1962.36 1634.03,1940.43C1634.03,1918.5 1616.22,1900.69 1594.29,1900.69ZM955.712,1900.69C933.779,1900.69 915.973,1918.5 915.973,1940.43C915.973,1962.36 933.779,1980.17 955.712,1980.17C977.644,1980.17 995.451,1962.36 995.451,1940.43C995.451,1918.5 977.644,1900.69 955.712,1900.69ZM1227.9,1838.53L1229.27,1834.83C1229.95,1833 1231.81,1831.88 1233.75,1832.15C1235.69,1832.42 1237.18,1834.01 1237.33,1835.96L1237.63,1839.89L1240,1838.91C1241.75,1838.18 1243.78,1838.73 1244.92,1840.25C1246.07,1841.77 1246.04,1843.86 1244.86,1845.35L1243.27,1847.36L1246.96,1848.73C1248.8,1849.41 1249.91,1851.28 1249.64,1853.21C1249.37,1855.15 1247.79,1856.64 1245.84,1856.79L1241.9,1857.09L1242.88,1859.46C1243.61,1861.21 1243.06,1863.24 1241.54,1864.38C1240.03,1865.53 1237.93,1865.5 1236.44,1864.32L1234.44,1862.73L1233.07,1866.42C1232.38,1868.26 1230.52,1869.37 1228.58,1869.1C1226.64,1868.83 1225.15,1867.25 1225,1865.3L1224.7,1861.36L1222.33,1862.34C1220.58,1863.07 1218.56,1862.52 1217.41,1861.01C1216.27,1859.49 1216.29,1857.39 1217.48,1855.9L1219.07,1853.9L1215.37,1852.53C1213.54,1851.85 1212.42,1849.98 1212.69,1848.04C1212.96,1846.1 1214.55,1844.62 1216.5,1844.47L1220.43,1844.16L1219.45,1841.8C1218.72,1840.04 1219.27,1838.02 1220.79,1836.87C1222.31,1835.73 1224.4,1835.76 1225.89,1836.94L1227.9,1838.53ZM1331.61,1767.19L1331.52,1764.69C1331.44,1762.68 1332.82,1760.9 1334.78,1760.47C1336.75,1760.04 1338.74,1761.07 1339.52,1762.92L1340.49,1765.24C1341.57,1764.04 1343.27,1763.56 1344.85,1764.06C1346.42,1764.55 1347.53,1765.93 1347.73,1767.53L1349.85,1766.2C1351.56,1765.13 1353.78,1765.43 1355.14,1766.92C1356.5,1768.4 1356.6,1770.65 1355.38,1772.25L1353.86,1774.25C1355.44,1774.58 1356.71,1775.81 1357.06,1777.43C1357.42,1779.04 1356.79,1780.69 1355.5,1781.65L1357.71,1782.83C1359.49,1783.77 1360.34,1785.85 1359.73,1787.77C1359.12,1789.69 1357.23,1790.9 1355.23,1790.64L1352.75,1790.33C1353.25,1791.86 1352.81,1793.58 1351.59,1794.69C1350.37,1795.81 1348.63,1796.08 1347.14,1795.45L1347.24,1797.95C1347.31,1799.96 1345.93,1801.74 1343.97,1802.17C1342,1802.61 1340.01,1801.57 1339.23,1799.72L1338.26,1797.4C1337.18,1798.6 1335.48,1799.09 1333.9,1798.59C1332.33,1798.09 1331.22,1796.71 1331.03,1795.11L1328.9,1796.44C1327.2,1797.51 1324.97,1797.21 1323.61,1795.72C1322.26,1794.24 1322.15,1791.99 1323.37,1790.39L1324.89,1788.39C1323.31,1788.06 1322.04,1786.83 1321.69,1785.22C1321.33,1783.6 1321.97,1781.95 1323.26,1780.99L1321.04,1779.81C1319.26,1778.87 1318.41,1776.79 1319.02,1774.87C1319.63,1772.95 1321.52,1771.74 1323.52,1772L1326.01,1772.31C1325.51,1770.78 1325.94,1769.07 1327.16,1767.95C1328.38,1766.83 1330.12,1766.56 1331.61,1767.19ZM1274.2,1686.32C1251.29,1686.32 1232.69,1704.92 1232.69,1727.83C1232.69,1750.74 1251.29,1769.34 1274.2,1769.34C1297.11,1769.34 1315.71,1750.74 1315.71,1727.83C1315.71,1704.92 1297.11,1686.32 1274.2,1686.32ZM1098.23,1686.32C1075.32,1686.32 1056.71,1704.92 1056.71,1727.83C1056.71,1750.74 1075.32,1769.34 1098.23,1769.34C1121.14,1769.34 1139.74,1750.74 1139.74,1727.83C1139.74,1704.92 1121.14,1686.32 1098.23,1686.32ZM1452.56,1686.32C1429.65,1686.32 1411.05,1704.92 1411.05,1727.83C1411.05,1750.74 1429.65,1769.34 1452.56,1769.34C1475.47,1769.34 1494.07,1750.74 1494.07,1727.83C1494.07,1704.92 1475.47,1686.32 1452.56,1686.32ZM1594.29,1688.09C1572.36,1688.09 1554.55,1705.9 1554.55,1727.83C1554.55,1749.76 1572.36,1767.57 1594.29,1767.57C1616.22,1767.57 1634.03,1749.76 1634.03,1727.83C1634.03,1705.9 1616.22,1688.09 1594.29,1688.09ZM955.712,1688.09C933.779,1688.09 915.973,1705.9 915.973,1727.83C915.973,1749.76 933.779,1767.57 955.712,1767.57C977.644,1767.57 995.451,1749.76 995.451,1727.83C995.451,1705.9 977.644,1688.09 955.712,1688.09ZM1658.15,1705.93L1658.88,1701.17C1659.15,1699.37 1660.56,1697.96 1662.36,1697.68C1664.16,1697.4 1665.93,1698.32 1666.73,1699.95L1668.86,1704.27L1673.62,1705C1675.42,1705.27 1676.83,1706.68 1677.11,1708.48C1677.38,1710.28 1676.47,1712.05 1674.83,1712.85L1670.52,1714.98L1669.79,1719.74C1669.52,1721.54 1668.11,1722.95 1666.31,1723.23C1664.51,1723.51 1662.74,1722.59 1661.93,1720.95L1659.81,1716.64L1655.05,1715.91C1653.25,1715.64 1651.84,1714.23 1651.56,1712.43C1651.28,1710.63 1652.2,1708.86 1653.83,1708.06L1658.15,1705.93ZM1528.23,1656.43L1529.6,1652.73C1530.29,1650.89 1532.15,1649.78 1534.09,1650.05C1536.03,1650.32 1537.51,1651.9 1537.66,1653.86L1537.97,1657.79L1540.33,1656.81C1542.09,1656.08 1544.11,1656.63 1545.26,1658.15C1546.4,1659.66 1546.38,1661.76 1545.19,1663.25L1543.6,1665.25L1547.3,1666.63C1549.13,1667.31 1550.25,1669.17 1549.98,1671.11C1549.7,1673.05 1548.12,1674.54 1546.17,1674.69L1542.24,1674.99L1543.22,1677.36C1543.95,1679.11 1543.4,1681.14 1541.88,1682.28C1540.36,1683.42 1538.27,1683.4 1536.78,1682.22L1534.77,1680.62L1533.4,1684.32C1532.72,1686.16 1530.85,1687.27 1528.92,1687C1526.98,1686.73 1525.49,1685.14 1525.34,1683.19L1525.04,1679.26L1522.67,1680.24C1520.92,1680.97 1518.89,1680.42 1517.75,1678.9C1516.6,1677.39 1516.63,1675.29 1517.81,1673.8L1519.4,1671.8L1515.7,1670.42C1513.87,1669.74 1512.76,1667.88 1513.03,1665.94C1513.3,1664 1514.88,1662.51 1516.83,1662.36L1520.77,1662.06L1519.79,1659.69C1519.06,1657.94 1519.61,1655.91 1521.12,1654.77C1522.64,1653.63 1524.74,1653.65 1526.23,1654.83L1528.23,1656.43ZM1076.55,1602.34L1077.92,1598.63C1078.61,1596.8 1080.47,1595.69 1082.41,1595.96C1084.35,1596.23 1085.84,1597.81 1085.99,1599.76L1086.29,1603.7L1088.65,1602.72C1090.41,1601.99 1092.43,1602.54 1093.58,1604.06C1094.72,1605.57 1094.7,1607.67 1093.52,1609.16L1091.92,1611.16L1095.62,1612.53C1097.45,1613.22 1098.57,1615.08 1098.3,1617.02C1098.03,1618.96 1096.44,1620.44 1094.49,1620.6L1090.56,1620.9L1091.54,1623.27C1092.27,1625.02 1091.72,1627.04 1090.2,1628.19C1088.68,1629.33 1086.59,1629.31 1085.1,1628.12L1083.09,1626.53L1081.72,1630.23C1081.04,1632.06 1079.17,1633.18 1077.24,1632.91C1075.3,1632.63 1073.81,1631.05 1073.66,1629.1L1073.36,1625.17L1070.99,1626.15C1069.24,1626.88 1067.21,1626.33 1066.07,1624.81C1064.92,1623.29 1064.95,1621.2 1066.13,1619.71L1067.72,1617.7L1064.03,1616.33C1062.19,1615.65 1061.08,1613.79 1061.35,1611.85C1061.62,1609.91 1063.2,1608.42 1065.15,1608.27L1069.09,1607.97L1068.11,1605.6C1067.38,1603.85 1067.93,1601.82 1069.45,1600.68C1070.96,1599.53 1073.06,1599.56 1074.55,1600.74L1076.55,1602.34ZM1235.32,1553.87L1236.69,1550.17C1237.37,1548.34 1239.24,1547.22 1241.18,1547.49C1243.11,1547.76 1244.6,1549.35 1244.75,1551.3L1245.06,1555.23L1247.42,1554.25C1249.18,1553.52 1251.2,1554.07 1252.35,1555.59C1253.49,1557.11 1253.46,1559.2 1252.28,1560.69L1250.69,1562.7L1254.39,1564.07C1256.22,1564.75 1257.34,1566.62 1257.06,1568.55C1256.79,1570.49 1255.21,1571.98 1253.26,1572.13L1249.33,1572.43L1250.31,1574.8C1251.04,1576.55 1250.48,1578.58 1248.97,1579.72C1247.45,1580.87 1245.35,1580.84 1243.87,1579.66L1241.86,1578.07L1240.49,1581.76C1239.81,1583.6 1237.94,1584.71 1236.01,1584.44C1234.07,1584.17 1232.58,1582.59 1232.43,1580.64L1232.12,1576.7L1229.76,1577.68C1228,1578.41 1225.98,1577.86 1224.84,1576.35C1223.69,1574.83 1223.72,1572.73 1224.9,1571.24L1226.49,1569.24L1222.79,1567.87C1220.96,1567.18 1219.85,1565.32 1220.12,1563.38C1220.39,1561.44 1221.97,1559.96 1223.92,1559.81L1227.86,1559.5L1226.87,1557.13C1226.15,1555.38 1226.7,1553.36 1228.21,1552.21C1229.73,1551.07 1231.83,1551.09 1233.31,1552.28L1235.32,1553.87ZM1098.23,1473.72C1075.32,1473.72 1056.71,1492.32 1056.71,1515.23C1056.71,1538.14 1075.32,1556.74 1098.23,1556.74C1121.14,1556.74 1139.74,1538.14 1139.74,1515.23C1139.74,1492.32 1121.14,1473.72 1098.23,1473.72ZM1452.56,1473.72C1429.65,1473.72 1411.05,1492.32 1411.05,1515.23C1411.05,1538.14 1429.65,1556.74 1452.56,1556.74C1475.47,1556.74 1494.07,1538.14 1494.07,1515.23C1494.07,1492.32 1475.47,1473.72 1452.56,1473.72ZM1594.29,1475.49C1572.36,1475.49 1554.55,1493.3 1554.55,1515.23C1554.55,1537.16 1572.36,1554.97 1594.29,1554.97C1616.22,1554.97 1634.03,1537.16 1634.03,1515.23C1634.03,1493.3 1616.22,1475.49 1594.29,1475.49ZM1274.2,1475.49C1252.27,1475.49 1234.46,1493.3 1234.46,1515.23C1234.46,1537.16 1252.27,1554.97 1274.2,1554.97C1296.14,1554.97 1313.94,1537.16 1313.94,1515.23C1313.94,1493.3 1296.14,1475.49 1274.2,1475.49ZM955.712,1475.49C933.779,1475.49 915.973,1493.3 915.973,1515.23C915.973,1537.16 933.779,1554.97 955.712,1554.97C977.644,1554.97 995.451,1537.16 995.451,1515.23C995.451,1493.3 977.644,1475.49 955.712,1475.49ZM1157.28,1457.59L1155.74,1451.22C1155.25,1449.2 1156.33,1447.13 1158.27,1446.37C1160.2,1445.61 1162.4,1446.39 1163.42,1448.2L1166.63,1453.91L1170.41,1450.44C1171.92,1449.05 1174.22,1448.97 1175.83,1450.25C1177.43,1451.53 1177.87,1453.79 1176.85,1455.57L1174.31,1460.04L1180.59,1461.88C1182.59,1462.47 1183.85,1464.44 1183.54,1466.5C1183.23,1468.56 1181.45,1470.07 1179.37,1470.05L1172.82,1469.97L1173.93,1474.98C1174.38,1476.99 1173.3,1479.01 1171.39,1479.77C1169.48,1480.52 1167.31,1479.76 1166.27,1477.99L1163.67,1473.56L1158.93,1478.08C1157.43,1479.51 1155.09,1479.62 1153.46,1478.32C1151.84,1477.02 1151.42,1474.72 1152.48,1472.93L1155.82,1467.3L1150.92,1465.76C1148.96,1465.14 1147.74,1463.2 1148.05,1461.17C1148.35,1459.14 1150.09,1457.63 1152.14,1457.62L1157.28,1457.59ZM1098.23,1261.12C1075.32,1261.12 1056.71,1279.72 1056.71,1302.63C1056.71,1325.54 1075.32,1344.14 1098.23,1344.14C1121.14,1344.14 1139.74,1325.54 1139.74,1302.63C1139.74,1279.72 1121.14,1261.12 1098.23,1261.12ZM1452.56,1261.12C1429.65,1261.12 1411.05,1279.72 1411.05,1302.63C1411.05,1325.54 1429.65,1344.14 1452.56,1344.14C1475.47,1344.14 1494.07,1325.54 1494.07,1302.63C1494.07,1279.72 1475.47,1261.12 1452.56,1261.12ZM1594.29,1262.89C1572.36,1262.89 1554.55,1280.7 1554.55,1302.63C1554.55,1324.57 1572.36,1342.37 1594.29,1342.37C1616.22,1342.37 1634.03,1324.57 1634.03,1302.63C1634.03,1280.7 1616.22,1262.89 1594.29,1262.89ZM955.712,1262.89C933.779,1262.89 915.973,1280.7 915.973,1302.63C915.973,1324.57 933.779,1342.37 955.712,1342.37C977.644,1342.37 995.451,1324.57 995.451,1302.63C995.451,1280.7 977.644,1262.89 955.712,1262.89ZM1228.85,1283.27L1228.78,1280.5C1228.74,1278.75 1229.8,1277.16 1231.42,1276.52C1233.06,1275.88 1234.91,1276.33 1236.07,1277.64L1237.9,1279.71L1239.6,1278.81C1241.06,1278.03 1242.85,1278.19 1244.15,1279.23C1245.45,1280.26 1246.01,1281.97 1245.58,1283.57L1245.08,1285.42L1247.51,1286.75C1249.05,1287.59 1249.89,1289.3 1249.63,1291.03C1249.37,1292.76 1248.06,1294.14 1246.34,1294.49L1243.63,1295.04L1243.57,1296.96C1243.51,1298.62 1242.47,1300.09 1240.92,1300.69C1239.38,1301.3 1237.62,1300.93 1236.45,1299.76L1235.1,1298.4L1232.74,1299.84C1231.24,1300.75 1229.34,1300.63 1227.96,1299.54C1226.6,1298.45 1226.06,1296.62 1226.61,1294.96L1227.49,1292.34L1225.86,1291.32C1224.45,1290.44 1223.7,1288.81 1223.95,1287.17C1224.2,1285.53 1225.39,1284.19 1227,1283.76L1228.85,1283.27ZM1359.37,1272.15L1362.14,1266.15C1362.98,1264.36 1364.95,1263.4 1366.87,1263.85C1368.8,1264.3 1370.14,1266.04 1370.09,1268.02L1369.92,1274.62L1373.3,1274.62C1375.14,1274.61 1376.77,1275.82 1377.3,1277.58C1377.83,1279.34 1377.14,1281.24 1375.61,1282.26L1372.79,1284.12L1376.59,1289.53C1377.73,1291.14 1377.58,1293.34 1376.22,1294.78C1374.87,1296.22 1372.69,1296.51 1371.01,1295.48L1365.37,1292.03L1363.69,1294.96C1362.77,1296.56 1360.91,1297.36 1359.12,1296.94C1357.33,1296.52 1356.03,1294.98 1355.91,1293.14L1355.71,1289.76L1349.13,1290.36C1347.16,1290.53 1345.34,1289.3 1344.76,1287.41C1344.19,1285.52 1345.03,1283.49 1346.77,1282.54L1352.57,1279.39L1350.87,1276.46C1349.95,1274.87 1350.18,1272.86 1351.44,1271.52C1352.7,1270.18 1354.69,1269.82 1356.34,1270.64L1359.37,1272.15ZM1154.32,1265.83L1157.25,1260.85C1158.06,1259.45 1159.62,1258.65 1161.23,1258.81C1162.84,1258.95 1164.21,1260.02 1164.76,1261.55L1166.71,1266.98L1168.9,1269.44C1169.67,1270.3 1170.05,1271.45 1169.94,1272.6C1169.83,1273.75 1169.25,1274.81 1168.34,1275.51L1165.73,1277.52L1162.81,1282.51C1161.99,1283.9 1160.44,1284.69 1158.83,1284.55C1157.22,1284.4 1155.84,1283.33 1155.29,1281.81L1153.34,1276.37L1151.15,1273.91C1150.38,1273.05 1150.01,1271.9 1150.11,1270.75C1150.22,1269.6 1150.8,1268.55 1151.72,1267.84L1154.32,1265.83ZM1525.12,1238.39L1525.67,1233.74C1525.89,1231.82 1527.4,1230.31 1529.32,1230.08C1531.23,1229.85 1533.06,1230.97 1533.72,1232.79L1535.33,1237.18L1535.89,1236.88C1537.35,1236.11 1539.13,1236.27 1540.43,1237.29C1541.72,1238.32 1542.3,1240.01 1541.88,1241.61L1541.72,1242.23L1546.37,1242.77C1548.29,1242.99 1549.8,1244.5 1550.03,1246.42C1550.25,1248.34 1549.13,1250.16 1547.32,1250.82L1542.92,1252.43L1543.23,1253C1544,1254.46 1543.84,1256.24 1542.82,1257.53C1541.79,1258.83 1540.1,1259.4 1538.5,1258.99L1537.88,1258.83L1537.34,1263.48C1537.12,1265.39 1535.6,1266.9 1533.69,1267.13C1531.77,1267.36 1529.95,1266.24 1529.29,1264.42L1527.68,1260.03L1527.11,1260.33C1525.65,1261.1 1523.87,1260.94 1522.58,1259.92C1521.28,1258.9 1520.71,1257.2 1521.12,1255.61L1521.28,1254.98L1516.63,1254.44C1514.72,1254.22 1513.2,1252.71 1512.98,1250.79C1512.75,1248.88 1513.87,1247.05 1515.68,1246.39L1520.08,1244.78L1519.78,1244.21C1519.01,1242.75 1519.17,1240.98 1520.19,1239.68C1521.21,1238.38 1522.9,1237.81 1524.5,1238.23L1525.12,1238.39ZM1130.5,1184.96L1133.04,1169.34C1133.4,1167.18 1135.35,1165.67 1137.52,1165.86C1139.7,1166.05 1141.36,1167.89 1141.32,1170.07L1141.08,1185.9L1141.77,1185.07C1143.09,1183.5 1145.35,1183.11 1147.11,1184.16C1148.87,1185.21 1149.6,1187.38 1148.84,1189.28L1148.44,1190.28L1162.25,1182.54C1164.15,1181.47 1166.56,1182.05 1167.76,1183.87C1168.97,1185.69 1168.56,1188.13 1166.84,1189.47L1154.31,1199.15L1155.39,1199.17C1157.44,1199.22 1159.15,1200.74 1159.43,1202.77C1159.7,1204.8 1158.47,1206.73 1156.51,1207.32L1155.48,1207.64L1170.14,1213.6C1172.16,1214.42 1173.2,1216.66 1172.53,1218.74C1171.86,1220.82 1169.7,1222.02 1167.58,1221.51L1152.2,1217.75L1152.86,1218.61C1154.1,1220.24 1153.97,1222.53 1152.56,1224.01C1151.14,1225.49 1148.86,1225.73 1147.18,1224.56L1146.29,1223.95L1150.77,1239.13C1151.39,1241.23 1150.29,1243.44 1148.24,1244.21C1146.2,1244.98 1143.91,1244.04 1142.99,1242.06L1136.34,1227.7L1136.08,1228.75C1135.58,1230.73 1133.71,1232.06 1131.67,1231.88C1129.63,1231.7 1128.03,1230.06 1127.88,1228.02L1127.81,1226.94L1118.73,1239.91C1117.48,1241.7 1115.06,1242.22 1113.19,1241.1C1111.31,1239.99 1110.62,1237.61 1111.59,1235.66L1118.67,1221.5L1117.69,1221.95C1115.83,1222.8 1113.63,1222.16 1112.5,1220.46C1111.37,1218.75 1111.64,1216.47 1113.15,1215.09L1113.94,1214.36L1098.15,1215.35C1095.97,1215.49 1094.06,1213.92 1093.76,1211.76C1093.46,1209.59 1094.89,1207.57 1097.02,1207.12L1112.5,1203.83L1111.54,1203.34C1109.72,1202.41 1108.84,1200.29 1109.47,1198.34C1110.1,1196.39 1112.05,1195.19 1114.08,1195.51L1115.14,1195.67L1104.52,1183.94C1103.05,1182.32 1103.08,1179.85 1104.59,1178.27C1106.1,1176.69 1108.57,1176.54 1110.25,1177.93L1122.48,1187.98L1122.26,1186.92C1121.85,1184.92 1122.96,1182.91 1124.87,1182.19C1126.79,1181.47 1128.95,1182.25 1129.96,1184.02L1130.5,1184.96ZM1269.58,1125.67L1275.26,1113.33C1276.16,1111.38 1278.4,1110.43 1280.43,1111.15C1282.46,1111.87 1283.61,1114.02 1283.08,1116.11L1279.71,1129.26L1282.1,1127.3C1283.69,1126 1286,1126.05 1287.53,1127.43C1289.06,1128.81 1289.35,1131.1 1288.22,1132.82L1286.51,1135.4L1299.25,1130.69C1301.27,1129.95 1303.53,1130.87 1304.46,1132.81C1305.38,1134.76 1304.67,1137.09 1302.82,1138.19L1291.13,1145.11L1294.21,1145.41C1296.26,1145.62 1297.86,1147.29 1297.96,1149.34C1298.07,1151.4 1296.66,1153.23 1294.64,1153.64L1291.61,1154.26L1303.94,1159.94C1305.9,1160.84 1306.85,1163.09 1306.12,1165.12C1305.4,1167.15 1303.25,1168.29 1301.16,1167.76L1288.01,1164.39L1289.97,1166.78C1291.28,1168.38 1291.23,1170.68 1289.85,1172.21C1288.47,1173.75 1286.17,1174.04 1284.46,1172.9L1281.87,1171.2L1286.58,1183.93C1287.33,1185.95 1286.41,1188.21 1284.46,1189.14C1282.52,1190.07 1280.18,1189.36 1279.09,1187.5L1272.17,1175.82L1271.86,1178.9C1271.66,1180.95 1269.99,1182.54 1267.93,1182.65C1265.88,1182.75 1264.05,1181.34 1263.63,1179.32L1263.01,1176.29L1257.34,1188.62C1256.44,1190.58 1254.19,1191.53 1252.16,1190.81C1250.13,1190.09 1248.98,1187.93 1249.52,1185.85L1252.89,1172.69L1250.49,1174.66C1248.9,1175.96 1246.59,1175.91 1245.06,1174.53C1243.53,1173.15 1243.24,1170.86 1244.37,1169.14L1246.08,1166.56L1233.34,1171.26C1231.32,1172.01 1229.06,1171.09 1228.14,1169.14C1227.21,1167.2 1227.92,1164.87 1229.78,1163.77L1241.46,1156.85L1238.38,1156.55C1236.33,1156.34 1234.73,1154.67 1234.63,1152.62C1234.52,1150.56 1235.93,1148.73 1237.95,1148.32L1240.99,1147.7L1228.65,1142.02C1226.69,1141.12 1225.75,1138.87 1226.47,1136.84C1227.19,1134.81 1229.34,1133.66 1231.43,1134.2L1244.58,1137.57L1242.62,1135.17C1241.31,1133.58 1241.37,1131.27 1242.75,1129.74C1244.13,1128.21 1246.42,1127.92 1248.14,1129.06L1250.72,1130.76L1246.01,1118.03C1245.27,1116 1246.18,1113.75 1248.13,1112.82C1250.08,1111.89 1252.41,1112.6 1253.51,1114.46L1260.42,1126.14L1260.73,1123.06C1260.93,1121.01 1262.6,1119.42 1264.66,1119.31C1266.72,1119.2 1268.54,1120.62 1268.96,1122.64L1269.58,1125.67ZM1452.56,1048.52C1429.65,1048.52 1411.05,1067.12 1411.05,1090.04C1411.05,1112.94 1429.65,1131.55 1452.56,1131.55C1475.47,1131.55 1494.07,1112.94 1494.07,1090.04C1494.07,1067.12 1475.47,1048.52 1452.56,1048.52ZM1098.23,1048.52C1075.32,1048.52 1056.71,1067.12 1056.71,1090.04C1056.71,1112.94 1075.32,1131.55 1098.23,1131.55C1121.14,1131.55 1139.74,1112.94 1139.74,1090.04C1139.74,1067.12 1121.14,1048.52 1098.23,1048.52ZM955.712,1050.3C933.779,1050.3 915.973,1068.1 915.973,1090.04C915.973,1111.97 933.779,1129.77 955.712,1129.77C977.644,1129.77 995.451,1111.97 995.451,1090.04C995.451,1068.1 977.644,1050.3 955.712,1050.3ZM1594.29,1050.3C1572.36,1050.3 1554.55,1068.1 1554.55,1090.04C1554.55,1111.97 1572.36,1129.77 1594.29,1129.77C1616.22,1129.77 1634.03,1111.97 1634.03,1090.04C1634.03,1068.1 1616.22,1050.3 1594.29,1050.3Z" style="fill:rgb(40,90,200);"/>
        </g>
    </g>
    <g id="FSilkS" transform="matrix(8.46667,0,0,8.46667,-7255,-7545)">
        <g>
            <g transform="matrix(1,0,0,1,808.167,-237.542)">
                <g transform="matrix(50,0,0,50,241.383,1186.2)">
                    <path d="M0.316,0.012C0.223,0.012 0.154,-0.02 0.109,-0.083C0.064,-0.146 0.041,-0.234 0.041,-0.349C0.041,-0.464 0.064,-0.553 0.109,-0.616C0.154,-0.679 0.223,-0.71 0.316,-0.71C0.352,-0.71 0.384,-0.705 0.412,-0.696C0.439,-0.686 0.463,-0.672 0.483,-0.655C0.503,-0.638 0.52,-0.617 0.533,-0.592C0.546,-0.567 0.556,-0.54 0.563,-0.509L0.423,-0.475C0.419,-0.492 0.414,-0.507 0.409,-0.521C0.404,-0.535 0.397,-0.547 0.389,-0.557C0.38,-0.567 0.37,-0.575 0.358,-0.581C0.345,-0.586 0.33,-0.589 0.313,-0.589C0.272,-0.589 0.244,-0.573 0.227,-0.542C0.21,-0.51 0.201,-0.466 0.201,-0.41L0.201,-0.288C0.201,-0.232 0.21,-0.188 0.227,-0.157C0.244,-0.125 0.272,-0.109 0.313,-0.109C0.348,-0.109 0.373,-0.12 0.389,-0.141C0.404,-0.162 0.416,-0.19 0.423,-0.223L0.563,-0.189C0.556,-0.158 0.546,-0.131 0.533,-0.106C0.52,-0.081 0.503,-0.06 0.483,-0.043C0.463,-0.025 0.439,-0.011 0.412,-0.002C0.384,0.007 0.352,0.012 0.316,0.012Z" style="fill-rule:nonzero;"/>
                </g>
                <g transform="matrix(50,0,0,50,271.383,1186.2)">
                    <path d="M0.487,-0C0.456,-0 0.432,-0.008 0.413,-0.024C0.394,-0.039 0.383,-0.062 0.38,-0.091L0.375,-0.091C0.366,-0.057 0.347,-0.031 0.32,-0.014C0.292,0.003 0.258,0.012 0.218,0.012C0.168,0.012 0.128,-0.002 0.098,-0.029C0.067,-0.056 0.052,-0.093 0.052,-0.142C0.052,-0.196 0.072,-0.236 0.111,-0.262C0.15,-0.288 0.208,-0.301 0.284,-0.301L0.367,-0.301L0.367,-0.327C0.367,-0.358 0.36,-0.381 0.346,-0.397C0.331,-0.412 0.307,-0.42 0.273,-0.42C0.242,-0.42 0.216,-0.414 0.197,-0.402C0.178,-0.39 0.161,-0.374 0.147,-0.355L0.066,-0.427C0.083,-0.456 0.111,-0.481 0.148,-0.5C0.185,-0.519 0.232,-0.528 0.29,-0.528C0.361,-0.528 0.416,-0.512 0.456,-0.48C0.495,-0.447 0.515,-0.398 0.515,-0.333L0.515,-0.107L0.572,-0.107L0.572,-0L0.487,-0ZM0.274,-0.085C0.3,-0.085 0.322,-0.091 0.34,-0.104C0.358,-0.117 0.367,-0.135 0.367,-0.159L0.367,-0.221L0.288,-0.221C0.227,-0.221 0.197,-0.201 0.197,-0.16L0.197,-0.14C0.197,-0.122 0.204,-0.108 0.218,-0.099C0.232,-0.09 0.251,-0.085 0.274,-0.085Z" style="fill-rule:nonzero;"/>
                </g>
                <g transform="matrix(50,0,0,50,301.383,1186.2)">
                    <path d="M0.294,0.012C0.237,0.012 0.187,0.003 0.145,-0.014C0.102,-0.031 0.07,-0.055 0.049,-0.085L0.132,-0.162C0.152,-0.14 0.175,-0.123 0.203,-0.111C0.23,-0.098 0.26,-0.092 0.295,-0.092C0.324,-0.092 0.347,-0.096 0.364,-0.106C0.381,-0.115 0.389,-0.128 0.389,-0.147C0.389,-0.162 0.383,-0.172 0.372,-0.178C0.361,-0.183 0.345,-0.188 0.325,-0.191L0.242,-0.204C0.219,-0.207 0.197,-0.213 0.177,-0.22C0.157,-0.227 0.14,-0.236 0.125,-0.248C0.11,-0.26 0.099,-0.275 0.09,-0.292C0.081,-0.309 0.077,-0.33 0.077,-0.355C0.077,-0.409 0.098,-0.451 0.139,-0.482C0.18,-0.513 0.238,-0.528 0.313,-0.528C0.364,-0.528 0.407,-0.521 0.443,-0.508C0.478,-0.494 0.507,-0.474 0.528,-0.449L0.454,-0.365C0.439,-0.382 0.419,-0.396 0.395,-0.407C0.371,-0.418 0.342,-0.424 0.308,-0.424C0.251,-0.424 0.222,-0.407 0.222,-0.372C0.222,-0.357 0.228,-0.346 0.239,-0.341C0.25,-0.335 0.266,-0.33 0.286,-0.327L0.368,-0.314C0.391,-0.311 0.413,-0.306 0.433,-0.299C0.453,-0.292 0.47,-0.282 0.486,-0.27C0.501,-0.258 0.512,-0.243 0.521,-0.226C0.53,-0.209 0.534,-0.188 0.534,-0.163C0.534,-0.109 0.513,-0.066 0.472,-0.035C0.43,-0.004 0.371,0.012 0.294,0.012Z" style="fill-rule:nonzero;"/>
                </g>
                <g transform="matrix(50,0,0,50,331.383,1186.2)">
                    <path d="M0.34,-0C0.287,-0 0.247,-0.014 0.221,-0.042C0.195,-0.07 0.182,-0.106 0.182,-0.149L0.182,-0.401L0.042,-0.401L0.042,-0.516L0.133,-0.516C0.155,-0.516 0.171,-0.52 0.18,-0.529C0.189,-0.538 0.194,-0.554 0.194,-0.577L0.194,-0.698L0.33,-0.698L0.33,-0.516L0.531,-0.516L0.531,-0.401L0.33,-0.401L0.33,-0.115L0.531,-0.115L0.531,-0L0.34,-0Z" style="fill-rule:nonzero;"/>
                </g>
                <g transform="matrix(50,0,0,50,361.383,1186.2)">
                    <path d="M0.3,0.012C0.26,0.012 0.224,0.006 0.192,-0.007C0.16,-0.019 0.133,-0.037 0.111,-0.06C0.088,-0.083 0.071,-0.112 0.059,-0.145C0.047,-0.178 0.041,-0.216 0.041,-0.258C0.041,-0.3 0.047,-0.338 0.059,-0.371C0.071,-0.404 0.088,-0.433 0.111,-0.456C0.133,-0.479 0.16,-0.497 0.192,-0.51C0.224,-0.522 0.26,-0.528 0.3,-0.528C0.34,-0.528 0.376,-0.522 0.408,-0.51C0.44,-0.497 0.467,-0.479 0.49,-0.456C0.512,-0.433 0.529,-0.404 0.541,-0.371C0.553,-0.338 0.559,-0.3 0.559,-0.258C0.559,-0.216 0.553,-0.178 0.541,-0.145C0.529,-0.112 0.512,-0.083 0.49,-0.06C0.467,-0.037 0.44,-0.019 0.408,-0.007C0.376,0.006 0.34,0.012 0.3,0.012ZM0.3,-0.098C0.333,-0.098 0.359,-0.108 0.378,-0.129C0.397,-0.15 0.406,-0.179 0.406,-0.217L0.406,-0.299C0.406,-0.337 0.397,-0.366 0.378,-0.387C0.359,-0.408 0.333,-0.418 0.3,-0.418C0.267,-0.418 0.241,-0.408 0.222,-0.387C0.203,-0.366 0.194,-0.337 0.194,-0.299L0.194,-0.217C0.194,-0.179 0.203,-0.15 0.222,-0.129C0.241,-0.108 0.267,-0.098 0.3,-0.098Z" style="fill-rule:nonzero;"/>
                </g>
                <g transform="matrix(50,0,0,50,391.383,1186.2)">
                    <path d="M0.074,-0.115L0.193,-0.115L0.193,-0.401L0.074,-0.401L0.074,-0.516L0.341,-0.516L0.341,-0.37L0.348,-0.37C0.353,-0.389 0.359,-0.407 0.368,-0.425C0.376,-0.442 0.387,-0.458 0.4,-0.472C0.413,-0.485 0.428,-0.496 0.447,-0.504C0.466,-0.512 0.488,-0.516 0.513,-0.516L0.562,-0.516L0.562,-0.38L0.452,-0.38C0.415,-0.38 0.388,-0.369 0.369,-0.348C0.35,-0.326 0.341,-0.299 0.341,-0.268L0.341,-0.115L0.511,-0.115L0.511,-0L0.074,-0L0.074,-0.115Z" style="fill-rule:nonzero;"/>
                </g>
                <g transform="matrix(50,0,0,50,451.383,1186.2)">
                    <path d="M0.207,0.012C0.176,0.012 0.148,0.007 0.124,-0.005C0.1,-0.016 0.08,-0.03 0.064,-0.049C0.047,-0.067 0.035,-0.088 0.027,-0.113C0.018,-0.137 0.014,-0.163 0.014,-0.19C0.014,-0.232 0.024,-0.269 0.044,-0.3C0.064,-0.331 0.093,-0.358 0.132,-0.381C0.111,-0.411 0.095,-0.438 0.084,-0.461C0.073,-0.484 0.067,-0.509 0.067,-0.534C0.067,-0.559 0.072,-0.582 0.082,-0.604C0.091,-0.625 0.105,-0.644 0.123,-0.66C0.14,-0.675 0.161,-0.688 0.185,-0.697C0.208,-0.705 0.234,-0.71 0.262,-0.71C0.287,-0.71 0.31,-0.707 0.331,-0.7C0.352,-0.693 0.371,-0.683 0.388,-0.672C0.404,-0.661 0.418,-0.648 0.429,-0.633C0.44,-0.618 0.448,-0.602 0.453,-0.586L0.351,-0.531C0.344,-0.552 0.332,-0.569 0.317,-0.582C0.302,-0.594 0.284,-0.6 0.264,-0.6C0.244,-0.6 0.228,-0.594 0.216,-0.582C0.203,-0.57 0.197,-0.554 0.197,-0.535L0.197,-0.53C0.197,-0.521 0.198,-0.512 0.201,-0.504C0.204,-0.495 0.208,-0.486 0.215,-0.476C0.222,-0.465 0.23,-0.453 0.241,-0.44C0.251,-0.426 0.264,-0.409 0.28,-0.389L0.337,-0.317L0.385,-0.243L0.391,-0.243C0.393,-0.254 0.395,-0.267 0.396,-0.281C0.397,-0.294 0.399,-0.308 0.4,-0.323C0.401,-0.337 0.401,-0.351 0.402,-0.365C0.402,-0.378 0.402,-0.391 0.402,-0.402L0.58,-0.402L0.58,-0.292L0.51,-0.292C0.507,-0.271 0.502,-0.249 0.495,-0.227C0.488,-0.204 0.48,-0.181 0.469,-0.158L0.599,-0L0.441,-0L0.361,-0.097L0.354,-0.097C0.349,-0.063 0.334,-0.036 0.308,-0.017C0.282,0.002 0.248,0.012 0.207,0.012ZM0.244,-0.101C0.259,-0.101 0.274,-0.104 0.287,-0.11C0.3,-0.115 0.312,-0.126 0.321,-0.141L0.192,-0.305C0.175,-0.288 0.163,-0.272 0.158,-0.255C0.153,-0.238 0.15,-0.219 0.15,-0.2L0.15,-0.198C0.15,-0.166 0.159,-0.142 0.176,-0.126C0.193,-0.109 0.215,-0.101 0.244,-0.101Z" style="fill-rule:nonzero;"/>
                </g>
                <g transform="matrix(50,0,0,50,511.383,1186.2)">
                    <path d="M0.076,-0L0.076,-0.698L0.346,-0.698C0.38,-0.698 0.41,-0.693 0.437,-0.683C0.464,-0.672 0.486,-0.657 0.505,-0.638C0.523,-0.619 0.537,-0.595 0.546,-0.568C0.555,-0.541 0.56,-0.51 0.56,-0.476C0.56,-0.442 0.555,-0.411 0.546,-0.384C0.537,-0.357 0.523,-0.333 0.505,-0.314C0.486,-0.295 0.464,-0.28 0.437,-0.27C0.41,-0.259 0.38,-0.254 0.346,-0.254L0.227,-0.254L0.227,-0L0.076,-0ZM0.227,-0.375L0.308,-0.375C0.343,-0.375 0.368,-0.382 0.382,-0.395C0.395,-0.408 0.402,-0.43 0.402,-0.461L0.402,-0.491C0.402,-0.522 0.395,-0.544 0.382,-0.557C0.368,-0.57 0.343,-0.577 0.308,-0.577L0.227,-0.577L0.227,-0.375Z" style="fill-rule:nonzero;"/>
                </g>
                <g transform="matrix(50,0,0,50,541.383,1186.2)">
                    <path d="M0.3,0.012C0.26,0.012 0.224,0.006 0.192,-0.007C0.16,-0.019 0.133,-0.037 0.111,-0.06C0.088,-0.083 0.071,-0.112 0.059,-0.145C0.047,-0.178 0.041,-0.216 0.041,-0.258C0.041,-0.3 0.047,-0.338 0.059,-0.371C0.071,-0.404 0.088,-0.433 0.111,-0.456C0.133,-0.479 0.16,-0.497 0.192,-0.51C0.224,-0.522 0.26,-0.528 0.3,-0.528C0.34,-0.528 0.376,-0.522 0.408,-0.51C0.44,-0.497 0.467,-0.479 0.49,-0.456C0.512,-0.433 0.529,-0.404 0.541,-0.371C0.553,-0.338 0.559,-0.3 0.559,-0.258C0.559,-0.216 0.553,-0.178 0.541,-0.145C0.529,-0.112 0.512,-0.083 0.49,-0.06C0.467,-0.037 0.44,-0.019 0.408,-0.007C0.376,0.006 0.34,0.012 0.3,0.012ZM0.3,-0.098C0.333,-0.098 0.359,-0.108 0.378,-0.129C0.397,-0.15 0.406,-0.179 0.406,-0.217L0.406,-0.299C0.406,-0.337 0.397,-0.366 0.378,-0.387C0.359,-0.408 0.333,-0.418 0.3,-0.418C0.267,-0.418 0.241,-0.408 0.222,-0.387C0.203,-0.366 0.194,-0.337 0.194,-0.299L0.194,-0.217C0.194,-0.179 0.203,-0.15 0.222,-0.129C0.241,-0.108 0.267,-0.098 0.3,-0.098Z" style="fill-rule:nonzero;"/>
                </g>
                <g transform="matrix(50,0,0,50,571.383,1186.2)">
                    <path d="M0.068,-0.115L0.226,-0.115L0.226,-0.625L0.068,-0.625L0.068,-0.74L0.374,-0.74L0.374,-0.115L0.532,-0.115L0.532,-0L0.068,-0L0.068,-0.115Z" style="fill-rule:nonzero;"/>
                </g>
                <g transform="matrix(50,0,0,50,601.383,1186.2)">
                    <path d="M0.068,-0.115L0.226,-0.115L0.226,-0.625L0.068,-0.625L0.068,-0.74L0.374,-0.74L0.374,-0.115L0.532,-0.115L0.532,-0L0.068,-0L0.068,-0.115Z" style="fill-rule:nonzero;"/>
                </g>
                <g transform="matrix(50,0,0,50,631.383,1186.2)">
                    <path d="M0.387,-0.094L0.381,-0.094C0.37,-0.065 0.352,-0.04 0.328,-0.019C0.303,0.002 0.27,0.012 0.229,0.012C0.204,0.012 0.182,0.008 0.161,-0.001C0.14,-0.009 0.123,-0.021 0.108,-0.038C0.093,-0.055 0.082,-0.075 0.074,-0.099C0.065,-0.123 0.061,-0.151 0.061,-0.182L0.061,-0.516L0.209,-0.516L0.209,-0.202C0.209,-0.135 0.238,-0.102 0.296,-0.102C0.307,-0.102 0.319,-0.103 0.33,-0.107C0.341,-0.11 0.35,-0.114 0.359,-0.121C0.367,-0.127 0.374,-0.135 0.379,-0.144C0.384,-0.153 0.387,-0.164 0.387,-0.177L0.387,-0.516L0.535,-0.516L0.535,-0L0.387,-0L0.387,-0.094Z" style="fill-rule:nonzero;"/>
                </g>
                <g transform="matrix(50,0,0,50,661.383,1186.2)">
                    <path d="M0.023,-0L0.216,-0.262L0.036,-0.516L0.205,-0.516L0.26,-0.433L0.302,-0.366L0.31,-0.366L0.353,-0.433L0.409,-0.516L0.564,-0.516L0.384,-0.27L0.577,-0L0.407,-0L0.342,-0.097L0.297,-0.166L0.289,-0.166L0.245,-0.097L0.179,-0L0.023,-0Z" style="fill-rule:nonzero;"/>
                </g>
            </g>
            <g transform="matrix(1,0,0,1,-187.399,118.874)">
                <g transform="matrix(58.3333,0,0,58.3333,1266.3,2175.35)">
                    <path d="M0.333,-0.541L0.401,-0.334L0.614,-0.332L0.441,-0.208L0.508,-0L0.331,-0.129L0.156,-0.001L0.224,-0.208L0.048,-0.335L0.265,-0.334L0.333,-0.541Z" style="fill-rule:nonzero;"/>
                </g>
            </g>
            <g transform="matrix(1,0,0,1,164.676,121.052)">
                <g transform="matrix(54.1667,0,0,54.1667,1266.3,2175.35)">
                    <path d="M0.399,-0.664L0.486,-0.408L0.746,-0.408L0.536,-0.254L0.621,-0L0.403,-0.156L0.19,-0.001L0.269,-0.252L0.051,-0.407L0.318,-0.408L0.399,-0.664ZM0.401,-0.587L0.336,-0.385L0.124,-0.384L0.297,-0.26L0.233,-0.06L0.401,-0.185L0.577,-0.061L0.509,-0.264L0.672,-0.384L0.469,-0.385L0.401,-0.587Z" style="fill-rule:nonzero;"/>
                </g>
            </g>
            <g transform="matrix(1,0,0,1,-13.6773,117.705)">
                <g transform="matrix(50,0,0,50,1266.3,2175.35)">
                    <path d="M0.761,0.048C0.65,0.024 0.535,0.012 0.417,0.012C0.316,0.012 0.211,0.024 0.103,0.048L0.103,-0C0.156,-0.016 0.207,-0.027 0.256,-0.033L0.256,-0.547C0.196,-0.555 0.145,-0.566 0.102,-0.582L0.103,-0.633C0.17,-0.615 0.223,-0.603 0.263,-0.598C0.303,-0.593 0.357,-0.59 0.425,-0.59C0.498,-0.59 0.554,-0.593 0.595,-0.598C0.635,-0.603 0.69,-0.615 0.761,-0.633L0.761,-0.582C0.716,-0.567 0.664,-0.556 0.604,-0.547L0.604,-0.033C0.671,-0.024 0.723,-0.014 0.761,-0.002L0.761,0.048ZM0.542,-0.039L0.542,-0.542C0.494,-0.539 0.457,-0.538 0.431,-0.538C0.404,-0.538 0.368,-0.539 0.321,-0.542L0.32,-0.038C0.357,-0.041 0.387,-0.042 0.409,-0.042L0.462,-0.041L0.542,-0.039Z" style="fill-rule:nonzero;"/>
                </g>
            </g>
            <g transform="matrix(1,0,0,1,-9.18513,-305.726)">
                <g transform="matrix(66.6667,0,0,66.6667,1266.3,2175.35)">
                    <path d="M0.288,-0.113C0.33,-0.114 0.362,-0.127 0.384,-0.152C0.406,-0.177 0.417,-0.209 0.417,-0.249C0.416,-0.334 0.373,-0.381 0.288,-0.388L0.288,-0.113ZM0.224,-0.058C0.169,-0.059 0.123,-0.076 0.086,-0.108C0.048,-0.141 0.029,-0.186 0.028,-0.242C0.028,-0.303 0.045,-0.351 0.08,-0.388C0.115,-0.424 0.163,-0.443 0.224,-0.444L0.224,-0.501L0.288,-0.501L0.288,-0.444C0.35,-0.443 0.399,-0.424 0.433,-0.388C0.467,-0.351 0.485,-0.303 0.485,-0.242C0.484,-0.186 0.465,-0.141 0.427,-0.108C0.39,-0.076 0.344,-0.059 0.288,-0.058L0.288,-0L0.224,-0L0.224,-0.058ZM0.224,-0.388C0.139,-0.381 0.096,-0.334 0.096,-0.249C0.096,-0.209 0.107,-0.177 0.13,-0.152C0.152,-0.127 0.183,-0.114 0.224,-0.113L0.224,-0.388Z" style="fill-rule:nonzero;"/>
                </g>
            </g>
            <g transform="matrix(1,0,0,1,-2.93513,-101.412)">
                <g transform="matrix(50,0,0,50,1266.3,2175.35)">
                    <path d="M0.03,-0.06L0.229,-0.255L0.039,-0.442L0.039,-0.501L0.394,-0.501L0.394,-0.442L0.124,-0.442L0.314,-0.255L0.116,-0.06L0.403,-0.06L0.403,-0L0.03,-0L0.03,-0.06Z" style="fill-rule:nonzero;"/>
                </g>
            </g>
            <g transform="matrix(1,0,0,1,-325.132,-961.81)">
                <g transform="matrix(66.6667,0,0,66.6667,1266.3,2175.35)">
                    <path d="M0.371,-0.078C0.37,-0.058 0.377,-0.048 0.391,-0.048C0.4,-0.048 0.406,-0.05 0.411,-0.053L0.411,0.002C0.405,0.004 0.398,0.005 0.39,0.005C0.381,0.006 0.373,0.007 0.367,0.007C0.351,0.007 0.338,0 0.328,-0.011C0.318,-0.023 0.313,-0.036 0.313,-0.053L0.311,-0.053C0.282,-0.013 0.243,0.007 0.192,0.007C0.139,0.006 0.098,-0.013 0.072,-0.051C0.045,-0.088 0.031,-0.131 0.031,-0.182C0.031,-0.235 0.044,-0.28 0.07,-0.317C0.096,-0.356 0.137,-0.375 0.193,-0.376C0.243,-0.376 0.282,-0.356 0.31,-0.316L0.312,-0.316L0.312,-0.369L0.371,-0.369L0.371,-0.078ZM0.203,-0.044C0.221,-0.044 0.237,-0.048 0.25,-0.057C0.263,-0.065 0.273,-0.076 0.282,-0.089C0.298,-0.117 0.307,-0.148 0.307,-0.182C0.307,-0.219 0.299,-0.252 0.284,-0.28C0.268,-0.309 0.24,-0.324 0.199,-0.325C0.163,-0.324 0.137,-0.31 0.12,-0.281C0.104,-0.253 0.095,-0.222 0.095,-0.188C0.095,-0.152 0.104,-0.12 0.12,-0.091C0.137,-0.061 0.164,-0.045 0.203,-0.044Z" style="fill-rule:nonzero;"/>
                </g>
            </g>
            <g transform="matrix(1,0,0,1,312.956,-952.598)">
                <g transform="matrix(66.6667,0,0,66.6667,1266.3,2175.35)">
                    <path d="M0.125,0.139L0.063,0.139L0.063,-0.348C0.063,-0.457 0.116,-0.512 0.223,-0.514C0.265,-0.514 0.3,-0.504 0.328,-0.483C0.356,-0.461 0.37,-0.431 0.371,-0.391C0.37,-0.329 0.341,-0.289 0.284,-0.271L0.284,-0.27C0.356,-0.258 0.393,-0.216 0.394,-0.143C0.394,-0.1 0.381,-0.064 0.355,-0.036C0.329,-0.008 0.294,0.007 0.25,0.007C0.223,0.007 0.2,0.003 0.182,-0.005C0.163,-0.013 0.144,-0.027 0.125,-0.047L0.125,0.139ZM0.126,-0.171C0.126,-0.155 0.128,-0.139 0.131,-0.124C0.135,-0.109 0.14,-0.095 0.147,-0.083C0.156,-0.071 0.167,-0.062 0.182,-0.056C0.196,-0.048 0.214,-0.044 0.236,-0.044C0.266,-0.044 0.29,-0.054 0.306,-0.073C0.322,-0.092 0.33,-0.116 0.33,-0.145C0.33,-0.18 0.319,-0.205 0.297,-0.219C0.276,-0.233 0.25,-0.24 0.218,-0.24C0.206,-0.239 0.194,-0.239 0.182,-0.238L0.182,-0.291C0.192,-0.291 0.202,-0.291 0.211,-0.292C0.238,-0.292 0.261,-0.3 0.279,-0.314C0.297,-0.328 0.306,-0.35 0.307,-0.381C0.305,-0.436 0.276,-0.463 0.219,-0.463C0.187,-0.462 0.163,-0.452 0.148,-0.434C0.134,-0.414 0.126,-0.388 0.126,-0.355L0.126,-0.171Z" style="fill-rule:nonzero;"/>
                </g>
            </g>
            <g transform="matrix(1,0,0,1,497.339,250.098)">
                <path d="M992.326,1091.91L1059.84,1091.91C1060.87,1091.91 1061.71,1091.07 1061.71,1090.04C1061.71,1089 1060.87,1088.16 1059.84,1088.16L992.326,1088.16C991.291,1088.16 990.451,1089 990.451,1090.04C990.451,1091.07 991.291,1091.91 992.326,1091.91Z"/>
            </g>
            <g transform="matrix(1,0,0,1,0.495202,250.098)">
                <path d="M992.326,1091.91L1059.84,1091.91C1060.87,1091.91 1061.71,1091.07 1061.71,1090.04C1061.71,1089 1060.87,1088.16 1059.84,1088.16L992.326,1088.16C991.291,1088.16 990.451,1089 990.451,1090.04C990.451,1091.07 991.291,1091.91 992.326,1091.91Z"/>
            </g>
            <g transform="matrix(0.11811,0,0,0.11811,856.89,891.142)">
                <path d="M6165.14,4491.32L6311.7,4491.32L6311.17,4563.68C6247.28,4563.49 6089.28,4563.02 6089.28,4563.02C6074.67,4562.97 6062.78,4574.79 6062.74,4589.4C6062.69,4604 6074.52,4615.89 6089.12,4615.93L6337.36,4616.67C6351.92,4616.72 6363.79,4604.98 6363.89,4590.41L6365.27,4402.39C6365.27,4402.39 6396.32,4402.39 6396.32,4402.39C6396.32,4459.56 6396.32,4589.48 6396.32,4589.48C6396.32,4604.08 6408.17,4615.93 6422.77,4615.93C6437.38,4615.93 6449.23,4604.08 6449.23,4589.48L6449.23,4375.93C6449.23,4361.32 6437.39,4349.48 6422.77,4349.48L6339.01,4349.48C6324.47,4349.48 6312.65,4361.2 6312.55,4375.74L6312.09,4438.4L6165.14,4438.4L6170.44,4433.1C6180.77,4422.77 6180.77,4406 6170.44,4395.68C6160.11,4385.35 6143.35,4385.35 6133.02,4395.68L6063.84,4464.86L6133.02,4534.04C6143.35,4544.37 6160.11,4544.37 6170.44,4534.04C6180.77,4523.72 6180.77,4506.95 6170.44,4496.62L6165.14,4491.32Z"/>
            </g>
            <g transform="matrix(1,0,0,1,188.088,-39.0955)">
                <path d="M741.325,1662.85L741.325,1687.66C741.325,1688.75 741.899,1689.77 742.837,1690.33C743.776,1690.9 744.942,1690.93 745.911,1690.42C745.911,1690.42 775.905,1674.56 787.635,1668.36C787.635,1668.36 787.495,1688.04 787.495,1688.04C787.483,1689.77 788.873,1691.18 790.598,1691.19C792.323,1691.2 793.733,1689.81 793.745,1688.09L793.922,1663.17C793.93,1662.07 793.359,1661.05 792.419,1660.48C791.479,1659.91 790.308,1659.87 789.336,1660.39L747.575,1682.47C747.575,1682.47 747.575,1662.85 747.575,1662.85C747.575,1661.12 746.175,1659.72 744.45,1659.72C742.725,1659.72 741.325,1661.12 741.325,1662.85Z"/>
            </g>
            <g transform="matrix(1,0,0,1,208.124,185.657)">
                <path d="M763.987,1650.56L764.14,1672.64C764.14,1672.64 741.07,1672.71 741.07,1672.71C741.07,1672.71 740.907,1650.52 740.907,1650.52C740.895,1648.8 739.499,1647.41 737.782,1647.41L727.888,1647.41C726.162,1647.41 724.763,1648.81 724.763,1650.54L724.763,1675.76C724.763,1677.49 726.164,1678.89 727.888,1678.89C729.613,1678.89 731.013,1677.49 731.013,1675.76L731.013,1653.66C731.013,1653.66 734.68,1653.66 734.68,1653.66C734.68,1653.66 734.843,1675.87 734.843,1675.87C734.855,1677.59 736.256,1678.98 737.977,1678.97L767.296,1678.89C768.127,1678.88 768.923,1678.55 769.508,1677.96C770.092,1677.37 770.418,1676.57 770.412,1675.74L770.237,1650.52C770.225,1648.79 768.815,1647.4 767.091,1647.41C765.366,1647.43 763.975,1648.84 763.987,1650.56Z"/>
            </g>
            <g transform="matrix(1,0,0,1,208.124,398.255)">
                <path d="M763.987,1650.56L764.14,1672.64C764.14,1672.64 750.713,1672.64 750.713,1672.64C750.713,1672.64 750.713,1650.54 750.713,1650.54C750.713,1648.81 749.314,1647.41 747.588,1647.41L727.888,1647.41C726.162,1647.41 724.763,1648.81 724.763,1650.54L724.763,1675.76C724.763,1677.49 726.164,1678.89 727.888,1678.89C729.613,1678.89 731.013,1677.49 731.013,1675.76L731.013,1653.66C731.013,1653.66 744.463,1653.66 744.463,1653.66C744.463,1653.66 744.463,1675.76 744.463,1675.76C744.463,1677.49 745.862,1678.89 747.588,1678.89L767.287,1678.89C768.12,1678.89 768.918,1678.55 769.504,1677.96C770.091,1677.37 770.418,1676.57 770.412,1675.74L770.237,1650.52C770.225,1648.79 768.815,1647.4 767.091,1647.41C765.366,1647.43 763.975,1648.84 763.987,1650.56Z"/>
            </g>
            <g transform="matrix(-1,0,0,1,2361.91,-39.2471)">
                <path d="M747.575,1662.85L747.575,1682.47C747.575,1682.47 789.336,1660.39 789.336,1660.39C790.308,1659.87 791.479,1659.91 792.419,1660.48C793.359,1661.05 793.93,1662.07 793.922,1663.17L793.745,1688.09C793.733,1689.81 792.323,1691.2 790.598,1691.19C788.873,1691.18 787.483,1689.77 787.495,1688.04L787.635,1668.36C787.635,1668.36 745.911,1690.42 745.911,1690.42C744.942,1690.93 743.776,1690.9 742.837,1690.33C741.899,1689.77 741.325,1688.75 741.325,1687.66L741.325,1662.85C741.325,1661.12 742.725,1659.72 744.45,1659.72C746.175,1659.72 747.575,1661.12 747.575,1662.85Z"/>
            </g>
            <g transform="matrix(-1,0,0,1,2043.51,-39.2471)">
                <path d="M745.653,1685.81L759.485,1672.55C760.387,1671.68 761.719,1671.44 762.87,1671.93C764.02,1672.42 764.769,1673.54 764.773,1674.79L764.792,1681.3C773.149,1674.14 788.765,1660.78 788.765,1660.78C789.695,1659.98 791.004,1659.8 792.114,1660.32C793.224,1660.83 793.931,1661.95 793.922,1663.17L793.745,1688.09C793.733,1689.81 792.323,1691.2 790.598,1691.19C788.873,1691.18 787.483,1689.77 787.495,1688.04C787.495,1688.04 787.571,1677.36 787.623,1669.98C779.25,1677.15 763.719,1690.44 763.719,1690.44C762.793,1691.23 761.491,1691.41 760.384,1690.91C759.277,1690.4 758.565,1689.29 758.562,1688.08L758.544,1682.11C758.544,1682.11 749.979,1690.32 749.979,1690.32C748.734,1691.52 746.754,1691.47 745.561,1690.23C744.367,1688.99 744.408,1687.01 745.653,1685.81Z"/>
            </g>
            <g transform="matrix(-1,0,0,1,2341.88,185.657)">
                <path d="M770.237,1650.52L770.412,1675.74C770.418,1676.57 770.092,1677.37 769.508,1677.96C768.923,1678.55 768.127,1678.88 767.296,1678.89L737.977,1678.97C736.256,1678.98 734.855,1677.59 734.843,1675.87L734.68,1653.66C734.68,1653.66 731.013,1653.66 731.013,1653.66C731.013,1660.42 731.013,1675.76 731.013,1675.76C731.013,1677.49 729.613,1678.89 727.888,1678.89C726.164,1678.89 724.763,1677.49 724.763,1675.76L724.763,1650.54C724.763,1648.81 726.162,1647.41 727.888,1647.41L737.782,1647.41C739.499,1647.41 740.895,1648.8 740.907,1650.52C740.907,1650.52 741.02,1665.95 741.07,1672.71C741.07,1672.71 764.14,1672.64 764.14,1672.64C764.14,1672.64 763.987,1650.56 763.987,1650.56C763.975,1648.84 765.366,1647.43 767.091,1647.41C768.815,1647.4 770.225,1648.79 770.237,1650.52Z"/>
            </g>
            <g transform="matrix(-1,0,0,1,2341.88,398.255)">
                <path d="M770.237,1650.52L770.412,1675.74C770.418,1676.57 770.091,1677.37 769.504,1677.96C768.918,1678.55 768.12,1678.89 767.287,1678.89L747.588,1678.89C745.862,1678.89 744.463,1677.49 744.463,1675.76L744.463,1653.66C744.463,1653.66 731.013,1653.66 731.013,1653.66C731.013,1653.66 731.013,1675.76 731.013,1675.76C731.013,1677.49 729.613,1678.89 727.888,1678.89C726.164,1678.89 724.763,1677.49 724.763,1675.76L724.763,1650.54C724.763,1648.81 726.162,1647.41 727.888,1647.41L747.588,1647.41C749.314,1647.41 750.713,1648.81 750.713,1650.54L750.713,1672.64C750.713,1672.64 764.14,1672.64 764.14,1672.64C764.14,1672.64 763.987,1650.56 763.987,1650.56C763.975,1648.84 765.366,1647.43 767.091,1647.41C768.815,1647.4 770.225,1648.79 770.237,1650.52Z"/>
            </g>
            <g transform="matrix(1,0,0,1,0,37.5)">
                <path d="M992.326,1091.91L1059.84,1091.91C1060.87,1091.91 1061.71,1091.07 1061.71,1090.04C1061.71,1089 1060.87,1088.16 1059.84,1088.16L992.326,1088.16C991.291,1088.16 990.451,1089 990.451,1090.04C990.451,1091.07 991.291,1091.91 992.326,1091.91Z"/>
            </g>
            <g transform="matrix(1,0,0,1,497.339,37.5)">
                <path d="M992.326,1091.91L1059.84,1091.91C1060.87,1091.91 1061.71,1091.07 1061.71,1090.04C1061.71,1089 1060.87,1088.16 1059.84,1088.16L992.326,1088.16C991.291,1088.16 990.451,1089 990.451,1090.04C990.451,1091.07 991.291,1091.91 992.326,1091.91Z"/>
            </g>
            <g transform="matrix(0.11811,0,0,0.11811,856.89,891.142)">
                <path d="M780.977,4491.32L927.543,4491.32L922.237,4496.62C911.911,4506.95 911.911,4523.72 922.237,4534.04C932.563,4544.37 949.329,4544.37 959.655,4534.04L1028.84,4464.86L959.655,4395.68C949.329,4385.35 932.563,4385.35 922.237,4395.68C911.911,4406 911.911,4422.77 922.237,4433.1L927.543,4438.4L780.589,4438.4L780.13,4375.74C780.024,4361.2 768.21,4349.48 753.673,4349.48L669.904,4349.48C655.292,4349.48 643.446,4361.32 643.446,4375.93L643.446,4589.48C643.446,4604.08 655.302,4615.93 669.904,4615.93C684.507,4615.93 696.363,4604.08 696.363,4589.48L696.363,4402.39C696.363,4402.39 727.408,4402.39 727.408,4402.39C727.408,4402.39 728.785,4590.41 728.785,4590.41C728.892,4604.98 740.754,4616.72 755.322,4616.67L1003.56,4615.93C1018.16,4615.89 1029.98,4604 1029.94,4589.4C1029.9,4574.79 1018,4562.97 1003.4,4563.02C1003.4,4563.02 845.403,4563.49 781.507,4563.68L780.977,4491.32Z"/>
            </g>
        </g>
    </g>
    <g transform="matrix(8.46667,0,0,8.46667,-7255,-7227.5)">
        <g id="FMask">
            <path d="M1229.52,1844.34L1232.59,1836.06C1232.69,1835.79 1232.97,1835.62 1233.26,1835.66C1233.55,1835.7 1233.78,1835.94 1233.8,1836.23L1234.48,1845.04L1241.36,1842.18C1241.62,1842.07 1241.92,1842.16 1242.09,1842.38C1242.27,1842.61 1242.26,1842.92 1242.09,1843.15L1237.45,1848.98L1245.73,1852.05C1246.01,1852.15 1246.17,1852.43 1246.13,1852.72C1246.09,1853.01 1245.86,1853.24 1245.56,1853.26L1236.76,1853.94L1239.61,1860.82C1239.72,1861.08 1239.64,1861.38 1239.41,1861.56C1239.18,1861.73 1238.87,1861.72 1238.65,1861.55L1232.82,1856.91L1229.74,1865.19C1229.64,1865.47 1229.36,1865.63 1229.07,1865.59C1228.78,1865.55 1228.56,1865.32 1228.54,1865.02L1227.85,1856.22L1220.98,1859.07C1220.71,1859.18 1220.41,1859.1 1220.24,1858.87C1220.07,1858.64 1220.07,1858.33 1220.25,1858.11L1224.88,1852.28L1216.6,1849.21C1216.33,1849.1 1216.16,1848.82 1216.2,1848.53C1216.24,1848.24 1216.48,1848.02 1216.77,1848L1225.58,1847.32L1222.72,1840.44C1222.61,1840.17 1222.69,1839.87 1222.92,1839.7C1223.15,1839.53 1223.46,1839.53 1223.69,1839.71L1229.52,1844.34ZM1335.39,1773.75L1335.06,1764.56C1335.05,1764.26 1335.25,1763.99 1335.55,1763.93C1335.84,1763.86 1336.14,1764.02 1336.26,1764.3L1339.82,1772.77L1343.06,1767.69C1343.21,1767.45 1343.51,1767.35 1343.78,1767.43C1344.05,1767.52 1344.23,1767.77 1344.21,1768.06L1343.94,1774.08L1351.73,1769.2C1351.99,1769.04 1352.32,1769.09 1352.52,1769.31C1352.73,1769.53 1352.74,1769.87 1352.56,1770.11L1347,1777.43L1353.02,1777.7C1353.31,1777.71 1353.54,1777.91 1353.61,1778.19C1353.67,1778.46 1353.53,1778.75 1353.28,1778.88L1347.93,1781.65L1356.05,1785.96C1356.32,1786.1 1356.44,1786.41 1356.35,1786.7C1356.26,1786.99 1355.98,1787.17 1355.68,1787.13L1346.56,1785.98L1349.34,1791.33C1349.47,1791.58 1349.41,1791.89 1349.2,1792.08C1349,1792.27 1348.68,1792.3 1348.45,1792.14L1343.37,1788.89L1343.7,1798.08C1343.71,1798.38 1343.5,1798.65 1343.21,1798.71C1342.91,1798.78 1342.61,1798.62 1342.5,1798.35L1338.94,1789.87L1335.69,1794.95C1335.54,1795.19 1335.25,1795.3 1334.98,1795.21C1334.7,1795.12 1334.53,1794.87 1334.54,1794.59L1334.81,1788.56L1327.02,1793.44C1326.77,1793.6 1326.43,1793.56 1326.23,1793.33C1326.03,1793.11 1326.01,1792.78 1326.19,1792.53L1331.75,1785.21L1325.73,1784.94C1325.45,1784.93 1325.21,1784.73 1325.15,1784.45C1325.09,1784.18 1325.22,1783.89 1325.47,1783.77L1330.82,1780.99L1322.7,1776.68C1322.43,1776.54 1322.31,1776.23 1322.4,1775.94C1322.49,1775.65 1322.77,1775.47 1323.07,1775.51L1332.19,1776.67L1329.41,1771.31C1329.28,1771.06 1329.34,1770.76 1329.55,1770.56C1329.76,1770.37 1330.07,1770.35 1330.31,1770.5L1335.39,1773.75ZM1661.37,1708.29L1662.38,1701.7C1662.42,1701.43 1662.63,1701.22 1662.9,1701.18C1663.17,1701.14 1663.44,1701.28 1663.56,1701.52L1666.5,1707.49L1673.08,1708.5C1673.35,1708.54 1673.57,1708.75 1673.61,1709.02C1673.65,1709.29 1673.51,1709.56 1673.27,1709.68L1667.29,1712.62L1666.29,1719.21C1666.25,1719.48 1666.04,1719.69 1665.77,1719.73C1665.5,1719.77 1665.23,1719.63 1665.11,1719.39L1662.16,1713.42L1655.58,1712.41C1655.31,1712.37 1655.1,1712.16 1655.06,1711.89C1655.02,1711.62 1655.16,1711.35 1655.4,1711.23L1661.37,1708.29ZM1529.85,1662.24L1532.92,1653.96C1533.03,1653.68 1533.31,1653.52 1533.6,1653.56C1533.89,1653.6 1534.11,1653.84 1534.13,1654.13L1534.81,1662.93L1541.69,1660.08C1541.95,1659.97 1542.26,1660.05 1542.43,1660.28C1542.6,1660.51 1542.6,1660.82 1542.42,1661.05L1537.79,1666.88L1546.07,1669.95C1546.34,1670.05 1546.51,1670.33 1546.47,1670.62C1546.43,1670.91 1546.19,1671.13 1545.9,1671.16L1537.09,1671.84L1539.95,1678.71C1540.06,1678.98 1539.97,1679.28 1539.75,1679.45C1539.52,1679.62 1539.2,1679.62 1538.98,1679.44L1533.15,1674.81L1530.08,1683.09C1529.98,1683.37 1529.7,1683.53 1529.41,1683.49C1529.12,1683.45 1528.89,1683.21 1528.87,1682.92L1528.19,1674.12L1521.31,1676.97C1521.05,1677.08 1520.75,1677 1520.57,1676.77C1520.4,1676.54 1520.41,1676.23 1520.58,1676L1525.22,1670.17L1516.94,1667.1C1516.66,1667 1516.5,1666.72 1516.54,1666.43C1516.58,1666.14 1516.81,1665.92 1517.11,1665.89L1525.91,1665.21L1523.06,1658.34C1522.95,1658.07 1523.03,1657.77 1523.26,1657.6C1523.49,1657.43 1523.8,1657.43 1524.02,1657.61L1529.85,1662.24ZM1078.17,1608.15L1081.25,1599.87C1081.35,1599.59 1081.63,1599.42 1081.92,1599.47C1082.21,1599.51 1082.43,1599.74 1082.45,1600.04L1083.14,1608.84L1090.01,1605.99C1090.28,1605.88 1090.58,1605.96 1090.75,1606.19C1090.92,1606.42 1090.92,1606.73 1090.74,1606.95L1086.11,1612.78L1094.39,1615.86C1094.66,1615.96 1094.83,1616.24 1094.79,1616.53C1094.75,1616.82 1094.51,1617.04 1094.22,1617.06L1085.41,1617.75L1088.27,1624.62C1088.38,1624.88 1088.3,1625.19 1088.07,1625.36C1087.84,1625.53 1087.53,1625.53 1087.3,1625.35L1081.47,1620.72L1078.4,1629C1078.3,1629.27 1078.02,1629.44 1077.73,1629.4C1077.44,1629.36 1077.21,1629.12 1077.19,1628.83L1076.51,1620.03L1069.63,1622.88C1069.37,1622.99 1069.07,1622.9 1068.89,1622.68C1068.72,1622.45 1068.73,1622.13 1068.9,1621.91L1073.54,1616.08L1065.26,1613.01C1064.98,1612.91 1064.82,1612.63 1064.86,1612.34C1064.9,1612.05 1065.13,1611.82 1065.43,1611.8L1074.23,1611.12L1071.38,1604.24C1071.27,1603.98 1071.35,1603.68 1071.58,1603.51C1071.81,1603.33 1072.12,1603.34 1072.34,1603.51L1078.17,1608.15ZM1236.94,1559.68L1240.01,1551.4C1240.12,1551.13 1240.39,1550.96 1240.68,1551C1240.98,1551.04 1241.2,1551.28 1241.22,1551.57L1241.9,1560.38L1248.78,1557.52C1249.04,1557.41 1249.35,1557.5 1249.52,1557.72C1249.69,1557.95 1249.69,1558.27 1249.51,1558.49L1244.88,1564.32L1253.15,1567.39C1253.43,1567.49 1253.6,1567.77 1253.56,1568.06C1253.52,1568.35 1253.28,1568.58 1252.99,1568.6L1244.18,1569.28L1247.04,1576.16C1247.14,1576.42 1247.06,1576.72 1246.84,1576.89C1246.61,1577.07 1246.29,1577.06 1246.07,1576.89L1240.24,1572.25L1237.17,1580.53C1237.07,1580.81 1236.79,1580.98 1236.5,1580.93C1236.2,1580.89 1235.98,1580.66 1235.96,1580.36L1235.28,1571.56L1228.4,1574.41C1228.14,1574.52 1227.83,1574.44 1227.66,1574.21C1227.49,1573.98 1227.5,1573.67 1227.67,1573.45L1232.3,1567.62L1224.03,1564.55C1223.75,1564.44 1223.58,1564.16 1223.62,1563.87C1223.66,1563.58 1223.9,1563.36 1224.19,1563.34L1233,1562.65L1230.14,1555.78C1230.04,1555.52 1230.12,1555.21 1230.35,1555.04C1230.57,1554.87 1230.89,1554.87 1231.11,1555.05L1236.94,1559.68ZM1161.77,1461.1L1159.18,1450.39C1159.11,1450.09 1159.27,1449.78 1159.56,1449.66C1159.85,1449.55 1160.18,1449.67 1160.34,1449.94L1165.73,1459.54L1172.81,1453.05C1173.03,1452.84 1173.38,1452.83 1173.62,1453.02C1173.86,1453.21 1173.92,1453.55 1173.77,1453.82L1169.03,1462.17L1179.59,1465.28C1179.89,1465.37 1180.08,1465.66 1180.03,1465.97C1179.99,1466.28 1179.72,1466.51 1179.41,1466.51L1168.39,1466.37L1170.48,1475.75C1170.54,1476.05 1170.38,1476.36 1170.1,1476.47C1169.81,1476.58 1169.48,1476.47 1169.33,1476.2L1164.47,1467.92L1156.49,1475.51C1156.27,1475.73 1155.92,1475.74 1155.67,1475.55C1155.43,1475.35 1155.36,1475.01 1155.52,1474.74L1161.14,1465.27L1151.98,1462.38C1151.69,1462.29 1151.51,1462 1151.55,1461.69C1151.6,1461.39 1151.86,1461.16 1152.17,1461.16L1161.77,1461.1ZM1232.46,1285.97L1232.32,1280.41C1232.32,1280.15 1232.48,1279.91 1232.72,1279.82C1232.96,1279.72 1233.24,1279.79 1233.42,1279.98L1237.1,1284.15L1241.26,1281.94C1241.48,1281.82 1241.75,1281.84 1241.94,1282C1242.14,1282.15 1242.22,1282.41 1242.16,1282.65L1240.93,1287.2L1245.81,1289.86C1246.04,1289.98 1246.17,1290.24 1246.13,1290.5C1246.09,1290.76 1245.9,1290.97 1245.64,1291.02L1240.19,1292.13L1240.03,1296.84C1240.02,1297.09 1239.86,1297.31 1239.63,1297.4C1239.4,1297.49 1239.13,1297.43 1238.96,1297.26L1235.63,1293.92L1230.89,1296.82C1230.66,1296.95 1230.38,1296.94 1230.17,1296.77C1229.97,1296.61 1229.89,1296.34 1229.97,1296.09L1231.74,1290.81L1227.74,1288.32C1227.53,1288.18 1227.41,1287.94 1227.45,1287.69C1227.49,1287.45 1227.67,1287.25 1227.91,1287.18L1232.46,1285.97ZM1361.05,1276.94L1365.36,1267.64C1365.48,1267.38 1365.78,1267.23 1366.07,1267.3C1366.36,1267.37 1366.56,1267.63 1366.55,1267.92L1366.28,1278.17L1373.31,1278.16C1373.59,1278.16 1373.83,1278.34 1373.91,1278.6C1373.99,1278.87 1373.88,1279.15 1373.65,1279.3L1367.8,1283.18L1373.7,1291.57C1373.87,1291.81 1373.84,1292.14 1373.64,1292.36C1373.44,1292.57 1373.11,1292.62 1372.86,1292.46L1364.12,1287.1L1360.62,1293.2C1360.48,1293.44 1360.2,1293.56 1359.93,1293.5C1359.66,1293.43 1359.47,1293.2 1359.45,1292.92L1359.02,1285.91L1348.81,1286.83C1348.51,1286.85 1348.24,1286.67 1348.15,1286.39C1348.07,1286.1 1348.19,1285.8 1348.45,1285.66L1357.46,1280.77L1353.94,1274.68C1353.8,1274.45 1353.83,1274.14 1354.02,1273.94C1354.21,1273.74 1354.51,1273.69 1354.76,1273.81L1361.05,1276.94ZM1157.03,1268.22L1160.3,1262.64C1160.42,1262.43 1160.65,1262.31 1160.9,1262.33C1161.14,1262.35 1161.35,1262.51 1161.43,1262.74L1163.61,1268.83L1166.26,1271.8C1166.37,1271.92 1166.43,1272.1 1166.41,1272.27C1166.4,1272.44 1166.31,1272.6 1166.17,1272.71L1163.03,1275.13L1159.76,1280.71C1159.63,1280.92 1159.4,1281.04 1159.16,1281.02C1158.92,1281 1158.71,1280.84 1158.63,1280.61L1156.44,1274.52L1153.8,1271.56C1153.68,1271.42 1153.62,1271.25 1153.64,1271.08C1153.66,1270.91 1153.74,1270.75 1153.88,1270.64L1157.03,1268.22ZM1528.17,1242.83L1529.18,1234.15C1529.22,1233.86 1529.44,1233.63 1529.73,1233.6C1530.02,1233.56 1530.29,1233.73 1530.39,1234L1533.4,1242.22L1537.55,1240.01C1537.77,1239.89 1538.04,1239.92 1538.23,1240.07C1538.43,1240.23 1538.51,1240.48 1538.45,1240.72L1537.28,1245.28L1545.96,1246.29C1546.25,1246.32 1546.48,1246.55 1546.51,1246.84C1546.54,1247.12 1546.38,1247.4 1546.11,1247.5L1537.89,1250.5L1540.1,1254.66C1540.21,1254.88 1540.19,1255.14 1540.04,1255.34C1539.88,1255.53 1539.63,1255.62 1539.39,1255.56L1534.83,1254.38L1533.82,1263.07C1533.79,1263.35 1533.56,1263.58 1533.27,1263.61C1532.99,1263.65 1532.71,1263.48 1532.61,1263.21L1529.61,1255L1525.45,1257.2C1525.23,1257.32 1524.96,1257.29 1524.77,1257.14C1524.58,1256.99 1524.49,1256.73 1524.55,1256.49L1525.73,1251.93L1517.04,1250.92C1516.76,1250.89 1516.53,1250.66 1516.49,1250.38C1516.46,1250.09 1516.63,1249.82 1516.9,1249.72L1525.11,1246.71L1522.91,1242.55C1522.79,1242.34 1522.82,1242.07 1522.97,1241.87C1523.12,1241.68 1523.38,1241.59 1523.62,1241.66L1528.17,1242.83ZM1132.38,1195.41L1136.54,1169.91C1136.59,1169.59 1136.88,1169.36 1137.21,1169.39C1137.54,1169.42 1137.79,1169.69 1137.78,1170.02L1137.39,1195.85L1144.49,1187.34C1144.69,1187.1 1145.03,1187.05 1145.29,1187.2C1145.56,1187.36 1145.67,1187.69 1145.55,1187.97L1141.45,1198.27L1163.98,1185.62C1164.27,1185.46 1164.63,1185.55 1164.81,1185.83C1164.99,1186.1 1164.93,1186.46 1164.67,1186.66L1144.23,1202.47L1155.31,1202.71C1155.62,1202.72 1155.88,1202.95 1155.92,1203.25C1155.96,1203.56 1155.77,1203.85 1155.48,1203.93L1144.87,1207.15L1168.8,1216.88C1169.11,1217 1169.26,1217.34 1169.16,1217.65C1169.06,1217.96 1168.74,1218.14 1168.42,1218.07L1143.32,1211.94L1150.04,1220.75C1150.23,1221 1150.21,1221.34 1149.99,1221.56C1149.78,1221.79 1149.44,1221.82 1149.19,1221.65L1140.06,1215.36L1147.37,1240.13C1147.47,1240.45 1147.3,1240.78 1147,1240.9C1146.69,1241.01 1146.35,1240.87 1146.21,1240.57L1135.35,1217.13L1132.64,1227.88C1132.57,1228.18 1132.29,1228.38 1131.98,1228.35C1131.68,1228.32 1131.44,1228.08 1131.41,1227.77L1130.64,1216.71L1115.83,1237.88C1115.64,1238.15 1115.28,1238.23 1115,1238.06C1114.72,1237.89 1114.61,1237.54 1114.76,1237.24L1126.32,1214.14L1116.23,1218.73C1115.95,1218.85 1115.62,1218.76 1115.45,1218.5C1115.28,1218.25 1115.32,1217.9 1115.55,1217.7L1123.71,1210.2L1097.93,1211.82C1097.6,1211.84 1097.31,1211.6 1097.27,1211.28C1097.22,1210.95 1097.44,1210.65 1097.76,1210.58L1123.03,1205.21L1113.15,1200.18C1112.88,1200.04 1112.75,1199.73 1112.84,1199.43C1112.93,1199.14 1113.23,1198.96 1113.53,1199.01L1124.48,1200.72L1107.14,1181.57C1106.92,1181.32 1106.93,1180.95 1107.15,1180.71C1107.38,1180.48 1107.75,1180.45 1108,1180.66L1127.96,1197.07L1125.73,1186.21C1125.67,1185.91 1125.83,1185.61 1126.12,1185.5C1126.41,1185.39 1126.73,1185.51 1126.88,1185.78L1132.38,1195.41ZM1268.28,1136.97L1278.47,1114.82C1278.61,1114.52 1278.94,1114.38 1279.25,1114.49C1279.55,1114.6 1279.73,1114.92 1279.64,1115.23L1273.59,1138.85L1284.35,1130.04C1284.58,1129.84 1284.93,1129.85 1285.16,1130.06C1285.39,1130.27 1285.43,1130.61 1285.26,1130.87L1277.61,1142.47L1300.48,1134.02C1300.78,1133.9 1301.12,1134.04 1301.26,1134.33C1301.4,1134.63 1301.29,1134.98 1301.01,1135.14L1280.03,1147.56L1293.87,1148.94C1294.17,1148.97 1294.41,1149.22 1294.43,1149.53C1294.44,1149.83 1294.23,1150.11 1293.93,1150.17L1280.31,1152.96L1302.46,1163.15C1302.75,1163.29 1302.9,1163.63 1302.79,1163.93C1302.68,1164.24 1302.36,1164.41 1302.04,1164.33L1278.42,1158.28L1287.24,1169.03C1287.43,1169.27 1287.42,1169.61 1287.21,1169.84C1287.01,1170.07 1286.66,1170.12 1286.41,1169.95L1274.8,1162.29L1283.26,1185.16C1283.37,1185.46 1283.23,1185.8 1282.94,1185.94C1282.65,1186.08 1282.3,1185.97 1282.13,1185.69L1269.71,1164.71L1268.34,1178.55C1268.31,1178.86 1268.06,1179.09 1267.75,1179.11C1267.44,1179.13 1267.17,1178.91 1267.11,1178.61L1264.32,1164.99L1254.12,1187.14C1253.99,1187.44 1253.65,1187.58 1253.34,1187.47C1253.04,1187.36 1252.87,1187.04 1252.95,1186.73L1259,1163.11L1248.25,1171.92C1248.01,1172.11 1247.66,1172.11 1247.43,1171.9C1247.2,1171.69 1247.16,1171.35 1247.33,1171.09L1254.99,1159.49L1232.11,1167.94C1231.81,1168.05 1231.47,1167.91 1231.33,1167.62C1231.19,1167.33 1231.3,1166.98 1231.58,1166.82L1252.56,1154.39L1238.73,1153.02C1238.42,1152.99 1238.18,1152.74 1238.16,1152.43C1238.15,1152.12 1238.36,1151.85 1238.66,1151.79L1252.28,1149L1230.13,1138.8C1229.84,1138.67 1229.7,1138.33 1229.8,1138.03C1229.91,1137.72 1230.24,1137.55 1230.55,1137.63L1254.17,1143.68L1245.36,1132.93C1245.16,1132.69 1245.17,1132.34 1245.38,1132.12C1245.58,1131.88 1245.93,1131.84 1246.18,1132.01L1257.79,1139.67L1249.33,1116.8C1249.22,1116.49 1249.36,1116.15 1249.65,1116.02C1249.94,1115.88 1250.29,1115.98 1250.46,1116.26L1262.88,1137.25L1264.25,1123.41C1264.28,1123.1 1264.53,1122.86 1264.84,1122.85C1265.15,1122.83 1265.42,1123.04 1265.49,1123.35L1268.28,1136.97Z" style="fill:rgb(0,255,190);"/>
        </g>
    </g>
    <g id="Drill" transform="matrix(8.46667,0,0,8.46667,-7255,-7545)">
        <g>
            <g transform="matrix(0.954011,0,0,0.954011,575.567,-113.349)">
                <circle cx="547.853" cy="1969.24" r="40.236" style="fill:rgb(255,32,144);"/>
            </g>
            <g transform="matrix(0.954011,0,0,0.954011,575.567,99.2495)">
                <circle cx="547.853" cy="1969.24" r="40.236" style="fill:rgb(255,32,144);"/>
            </g>
            <g transform="matrix(0.954011,0,0,0.954011,575.567,-325.947)">
                <circle cx="547.853" cy="1969.24" r="40.236" style="fill:rgb(255,32,144);"/>
            </g>
            <g transform="matrix(0.954011,0,0,0.954011,751.545,-113.349)">
                <circle cx="547.853" cy="1969.24" r="40.236" style="fill:rgb(255,32,144);"/>
            </g>
            <g transform="matrix(0.90998,0,0,0.90998,457.177,-664.436)">
                <circle cx="547.853" cy="1969.24" r="40.236" style="fill:rgb(255,32,144);"/>
            </g>
            <g transform="matrix(0.90998,0,0,0.90998,599.69,398.556)">
                <circle cx="547.853" cy="1969.24" r="40.236" style="fill:rgb(255,32,144);"/>
            </g>
            <g transform="matrix(0.90998,0,0,0.90998,457.177,185.958)">
                <circle cx="547.853" cy="1969.24" r="40.236" style="fill:rgb(255,32,144);"/>
            </g>
            <g transform="matrix(0.90998,0,0,0.90998,457.177,-26.6407)">
                <circle cx="547.853" cy="1969.24" r="40.236" style="fill:rgb(255,32,144);"/>
            </g>
            <g transform="matrix(0.90998,0,0,0.90998,457.177,-239.239)">
                <circle cx="547.853" cy="1969.24" r="40.236" style="fill:rgb(255,32,144);"/>
            </g>
            <g transform="matrix(0.954011,0,0,0.954011,575.567,-751.144)">
                <circle cx="547.853" cy="1969.24" r="40.236" style="fill:rgb(255,32,144);"/>
            </g>
            <g transform="matrix(0.90998,0,0,0.90998,457.177,-451.838)">
                <circle cx="547.853" cy="1969.24" r="40.236" style="fill:rgb(255,32,144);"/>
            </g>
            <g transform="matrix(0.954011,0,0,0.954011,575.567,-538.546)">
                <circle cx="547.853" cy="1969.24" r="40.236" style="fill:rgb(255,32,144);"/>
            </g>
            <g transform="matrix(0.954011,0,0,0.954011,929.898,-113.349)">
                <circle cx="547.853" cy="1969.24" r="40.236" style="fill:rgb(255,32,144);"/>
            </g>
            <g transform="matrix(0.954011,0,0,0.954011,929.898,99.2495)">
                <circle cx="547.853" cy="1969.24" r="40.236" style="fill:rgb(255,32,144);"/>
            </g>
            <g transform="matrix(0.954011,0,0,0.954011,929.898,-325.947)">
                <circle cx="547.853" cy="1969.24" r="40.236" style="fill:rgb(255,32,144);"/>
            </g>
            <g transform="matrix(0.90998,0,0,0.90998,1095.75,-664.436)">
                <circle cx="547.853" cy="1969.24" r="40.236" style="fill:rgb(255,32,144);"/>
            </g>
            <g transform="matrix(0.90998,0,0,0.90998,954.021,398.556)">
                <circle cx="547.853" cy="1969.24" r="40.236" style="fill:rgb(255,32,144);"/>
            </g>
            <g transform="matrix(0.90998,0,0,0.90998,1095.75,185.958)">
                <circle cx="547.853" cy="1969.24" r="40.236" style="fill:rgb(255,32,144);"/>
            </g>
            <g transform="matrix(0.90998,0,0,0.90998,1095.75,-26.6407)">
                <circle cx="547.853" cy="1969.24" r="40.236" style="fill:rgb(255,32,144);"/>
            </g>
            <g transform="matrix(0.741193,0,0,0.742401,868.138,90.7634)">
                <circle cx="547.853" cy="1969.24" r="40.236" style="fill:rgb(255,32,144);"/>
            </g>
            <g transform="matrix(0.90998,0,0,0.90998,1095.75,-239.239)">
                <circle cx="547.853" cy="1969.24" r="40.236" style="fill:rgb(255,32,144);"/>
            </g>
            <g transform="matrix(0.954011,0,0,0.954011,929.898,-751.144)">
                <circle cx="547.853" cy="1969.24" r="40.236" style="fill:rgb(255,32,144);"/>
            </g>
            <g transform="matrix(0.90998,0,0,0.90998,1095.75,-451.838)">
                <circle cx="547.853" cy="1969.24" r="40.236" style="fill:rgb(255,32,144);"/>
            </g>
            <g transform="matrix(0.954011,0,0,0.954011,929.898,-538.546)">
                <circle cx="547.853" cy="1969.24" r="40.236" style="fill:rgb(255,32,144);"/>
            </g>
            <g transform="matrix(0.954011,0,0,0.954011,751.545,99.2495)">
                <circle cx="547.853" cy="1969.24" r="40.236" style="fill:rgb(255,32,144);"/>
            </g>
            <g transform="matrix(0.90998,0,0,0.90998,775.668,398.556)">
                <circle cx="547.853" cy="1969.24" r="40.236" style="fill:rgb(255,32,144);"/>
            </g>
        </g>
    </g>
</svg>
