<?xml version="1.0" encoding="UTF-8" standalone="no"?>
<!DOCTYPE svg PUBLIC "-//W3C//DTD SVG 1.1//EN" "http://www.w3.org/Graphics/SVG/1.1/DTD/svg11.dtd">
<svg width="100%" height="100%" viewBox="0 0 1801 1201" version="1.1" xmlns="http://www.w3.org/2000/svg" xmlns:xlink="http://www.w3.org/1999/xlink" xml:space="preserve" xmlns:serif="http://www.serif.com/" style="fill-rule:evenodd;clip-rule:evenodd;stroke-linecap:round;stroke-miterlimit:10;">
    <rect id="_11---extra-fine" serif:id="11 - extra fine" x="0.045" y="0.333" width="1800" height="1200" style="fill:none;"/>
    <g id="_11---extra-fine1" serif:id="11 - extra fine">
        <path d="M764.9,653.547l21.165,-6.35l-6.35,-21.165" style="fill:none;stroke:url(#_Linear1);stroke-width:10.42px;"/>
        <path d="M1035.19,653.547l-21.165,-6.35l6.351,-21.165" style="fill:none;stroke:url(#_Linear2);stroke-width:10.42px;"/>
        <path d="M786.065,647.197c-71.657,-40.051 -120.151,-116.668 -120.151,-204.523c-0,-129.221 104.91,-234.131 234.131,-234.131c129.22,-0 234.131,104.91 234.131,234.131c-0,87.855 -48.494,164.472 -120.152,204.523" style="fill:none;stroke:url(#_Linear3);stroke-width:10.42px;stroke-linejoin:round;stroke-miterlimit:1.5;"/>
        <g id="Large-MXR" serif:id="Large MXR">
            <circle cx="900.045" cy="441.871" r="188.193" style="fill:rgb(131,133,136);"/>
            <rect x="892.18" y="300.949" width="15.728" height="131.341" style="fill:white;"/>
            <circle cx="900.045" cy="271.727" r="7.864" style="fill:white;"/>
        </g>
        <g>
            <rect x="320.206" y="679.249" width="447.266" height="79.707" style="fill:rgb(230,33,109);stroke:rgb(230,33,109);stroke-width:10.42px;stroke-linejoin:round;stroke-miterlimit:1.5;"/>
            <rect x="342.339" y="720.602" width="14.921" height="5.7" style="fill:rgb(244,244,245);fill-rule:nonzero;"/>
            <path d="M388.249,730.902l0,6.3l-24.199,0l1.387,-6.9c0.383,-1.966 0.965,-3.625 1.746,-4.975c0.781,-1.35 1.737,-2.466 2.869,-3.35c1.132,-0.883 2.447,-1.583 3.946,-2.1c1.498,-0.516 3.172,-0.941 5.021,-1.275c0.957,-0.166 1.889,-0.408 2.798,-0.725c0.908,-0.316 1.721,-0.725 2.439,-1.225c0.717,-0.5 1.291,-1.133 1.721,-1.9c0.431,-0.766 0.646,-1.683 0.646,-2.75c0,-1.266 -0.398,-2.283 -1.196,-3.05c-0.797,-0.766 -1.96,-1.15 -3.491,-1.15c-1.881,0 -3.451,0.575 -4.71,1.725c-1.26,1.15 -2.096,2.742 -2.511,4.775l-0.43,2.2l-6.313,0l0.574,-2.8c0.797,-3.866 2.399,-6.866 4.806,-9c2.407,-2.133 5.556,-3.2 9.445,-3.2c1.594,0 3.029,0.259 4.304,0.775c1.276,0.517 2.352,1.217 3.228,2.1c0.877,0.884 1.555,1.909 2.033,3.075c0.478,1.167 0.717,2.384 0.717,3.65c0,3.634 -1.076,6.525 -3.228,8.675c-2.152,2.15 -5.173,3.659 -9.062,4.525c-1.722,0.367 -3.125,0.75 -4.209,1.15c-1.084,0.4 -1.945,0.834 -2.582,1.3c-0.638,0.467 -1.108,0.992 -1.411,1.575c-0.303,0.584 -0.55,1.242 -0.741,1.975l-0.144,0.6l16.547,0Z" style="fill:rgb(244,244,245);fill-rule:nonzero;"/>
            <path d="M412.878,733.152c0,0.667 -0.119,1.292 -0.359,1.875c-0.239,0.584 -0.566,1.084 -0.98,1.5c-0.414,0.417 -0.901,0.75 -1.459,1c-0.558,0.25 -1.139,0.375 -1.745,0.375c-0.638,0 -1.228,-0.125 -1.77,-0.375c-0.542,-0.25 -1.02,-0.583 -1.434,-1c-0.415,-0.416 -0.742,-0.916 -0.981,-1.5c-0.239,-0.583 -0.358,-1.208 -0.358,-1.875c-0,-0.666 0.119,-1.291 0.358,-1.875c0.239,-0.583 0.566,-1.083 0.981,-1.5c0.414,-0.416 0.892,-0.75 1.434,-1c0.542,-0.25 1.132,-0.375 1.77,-0.375c0.606,0 1.187,0.125 1.745,0.375c0.558,0.25 1.045,0.584 1.459,1c0.414,0.417 0.741,0.917 0.98,1.5c0.24,0.584 0.359,1.209 0.359,1.875Z" style="fill:rgb(244,244,245);fill-rule:nonzero;"/>
            <path d="M425.312,721.602l3.922,-19.4l21.425,0l-0,6.3l-16.356,0l-1.961,9.5l0.861,0c0.701,-1.466 1.674,-2.633 2.917,-3.5c1.244,-0.866 2.901,-1.3 4.974,-1.3c1.275,0 2.439,0.234 3.491,0.7c1.052,0.467 1.961,1.125 2.726,1.975c0.765,0.85 1.355,1.892 1.769,3.125c0.415,1.234 0.622,2.617 0.622,4.15c0,2 -0.327,3.9 -0.98,5.7c-0.654,1.8 -1.602,3.367 -2.846,4.7c-1.243,1.334 -2.782,2.392 -4.615,3.175c-1.833,0.784 -3.929,1.175 -6.289,1.175c-1.721,0 -3.283,-0.233 -4.686,-0.7c-1.403,-0.466 -2.599,-1.116 -3.587,-1.95c-0.988,-0.833 -1.754,-1.841 -2.296,-3.025c-0.541,-1.183 -0.812,-2.475 -0.812,-3.875c-0,-0.666 0.079,-1.416 0.239,-2.25l0.239,-1.2l6.312,0l-0.143,0.7c-0.064,0.334 -0.112,0.592 -0.144,0.775c-0.031,0.184 -0.047,0.409 -0.047,0.675c-0,1.334 0.478,2.425 1.434,3.275c0.957,0.85 2.439,1.275 4.448,1.275c1.052,0 2.024,-0.183 2.917,-0.55c0.893,-0.366 1.658,-0.875 2.296,-1.525c0.637,-0.65 1.131,-1.408 1.482,-2.275c0.351,-0.866 0.526,-1.816 0.526,-2.85c0,-1.766 -0.382,-3.025 -1.148,-3.775c-0.765,-0.75 -1.721,-1.125 -2.869,-1.125c-0.925,0 -1.666,0.209 -2.224,0.625c-0.558,0.417 -0.98,0.909 -1.267,1.475l-10.33,0Z" style="fill:rgb(244,244,245);fill-rule:nonzero;"/>
            <path d="M496.904,717.402c-0.351,0 -0.71,0.042 -1.076,0.125c-0.367,0.084 -0.71,0.209 -1.029,0.375c-0.318,0.167 -0.581,0.392 -0.789,0.675c-0.207,0.284 -0.311,0.625 -0.311,1.025c0,0.7 0.383,1.217 1.148,1.55c0.765,0.334 2.073,0.617 3.922,0.85c2.072,0.267 3.746,0.925 5.021,1.975c1.276,1.05 1.913,2.559 1.913,4.525c0,2.934 -0.98,5.234 -2.941,6.9c-1.961,1.667 -4.679,2.5 -8.154,2.5c-1.753,0 -3.26,-0.266 -4.519,-0.8c-1.26,-0.533 -2.296,-1.2 -3.109,-2c-0.813,-0.8 -1.426,-1.683 -1.841,-2.65c-0.414,-0.966 -0.638,-1.883 -0.669,-2.75l5.93,-1.5c0.095,1.1 0.542,2.042 1.339,2.825c0.797,0.784 2.008,1.175 3.634,1.175c1.116,0 2.089,-0.183 2.918,-0.55c0.828,-0.366 1.243,-1.016 1.243,-1.95c-0,-0.7 -0.319,-1.258 -0.957,-1.675c-0.637,-0.416 -1.817,-0.708 -3.538,-0.875c-2.296,-0.2 -4.121,-0.883 -5.476,-2.05c-1.355,-1.166 -2.033,-2.716 -2.033,-4.65c0,-1.4 0.279,-2.65 0.837,-3.75c0.558,-1.1 1.299,-2.016 2.224,-2.75c0.925,-0.733 2.001,-1.291 3.228,-1.675c1.228,-0.383 2.511,-0.575 3.85,-0.575c1.658,0 3.045,0.234 4.16,0.7c1.116,0.467 2.025,1.05 2.726,1.75c0.702,0.7 1.22,1.459 1.555,2.275c0.334,0.817 0.55,1.575 0.645,2.275l-5.834,1.6c-0.128,-0.9 -0.526,-1.608 -1.196,-2.125c-0.669,-0.516 -1.61,-0.775 -2.821,-0.775Z" style="fill:rgb(244,244,245);fill-rule:nonzero;"/>
            <path d="M518.663,726.852c-0.063,0.267 -0.095,0.55 -0.095,0.85c-0,1.2 0.438,2.2 1.315,3c0.877,0.8 2.032,1.2 3.467,1.2c1.498,0 2.694,-0.283 3.587,-0.85c0.892,-0.566 1.578,-1.233 2.056,-2l4.782,3.15c-0.382,0.667 -0.884,1.334 -1.506,2c-0.622,0.667 -1.387,1.275 -2.296,1.825c-0.908,0.55 -1.976,1 -3.204,1.35c-1.227,0.35 -2.654,0.525 -4.28,0.525c-1.466,0 -2.813,-0.241 -4.041,-0.725c-1.227,-0.483 -2.28,-1.15 -3.156,-2c-0.877,-0.85 -1.563,-1.866 -2.057,-3.05c-0.494,-1.183 -0.741,-2.491 -0.741,-3.925c0,-2.266 0.327,-4.4 0.98,-6.4c0.654,-2 1.603,-3.75 2.846,-5.25c1.243,-1.5 2.774,-2.683 4.591,-3.55c1.817,-0.866 3.906,-1.3 6.265,-1.3c1.658,0 3.1,0.275 4.328,0.825c1.227,0.55 2.24,1.284 3.037,2.2c0.797,0.917 1.394,1.959 1.793,3.125c0.399,1.167 0.598,2.367 0.598,3.6c-0,0.4 -0.024,0.809 -0.072,1.225c-0.048,0.417 -0.135,0.959 -0.263,1.625l-0.526,2.55l-17.408,0Zm7.556,-9.45c-1.498,0 -2.797,0.392 -3.897,1.175c-1.1,0.784 -1.921,1.742 -2.463,2.875l11.191,0c-0,-1.266 -0.375,-2.258 -1.124,-2.975c-0.75,-0.716 -1.985,-1.075 -3.707,-1.075Z" style="fill:rgb(244,244,245);fill-rule:nonzero;"/>
            <path d="M560.652,719.802c0.064,-0.266 0.096,-0.5 0.096,-0.7c-0,-0.933 -0.431,-1.4 -1.291,-1.4c-0.511,0 -0.893,0.175 -1.148,0.525c-0.255,0.35 -0.431,0.775 -0.526,1.275l-3.635,17.7l-6.026,0l3.539,-17.4c0.064,-0.333 0.096,-0.566 0.096,-0.7c0,-0.933 -0.414,-1.4 -1.243,-1.4c-0.925,0 -1.499,0.6 -1.722,1.8l-3.635,17.7l-5.978,0l5.022,-24.8l6.026,0l-0.479,2.4l0.861,0c0.255,-1.033 0.734,-1.808 1.435,-2.325c0.701,-0.516 1.498,-0.775 2.391,-0.775c1.052,0 1.849,0.3 2.391,0.9c0.542,0.6 0.893,1.334 1.052,2.2l0.861,0c0.351,-0.9 0.885,-1.641 1.602,-2.225c0.718,-0.583 1.65,-0.875 2.798,-0.875c1.339,0 2.367,0.45 3.085,1.35c0.717,0.9 1.076,1.984 1.076,3.25c-0,0.234 -0.008,0.442 -0.024,0.625c-0.016,0.184 -0.056,0.409 -0.12,0.675l-2.821,13.65l0.478,0.35l1.626,-1.2l3.013,4.7l-2.152,1.5c-0.638,0.467 -1.284,0.8 -1.937,1c-0.654,0.2 -1.299,0.3 -1.937,0.3c-0.702,0 -1.363,-0.125 -1.985,-0.375c-0.621,-0.25 -1.171,-0.608 -1.65,-1.075c-0.478,-0.466 -0.853,-1.041 -1.124,-1.725c-0.271,-0.683 -0.406,-1.458 -0.406,-2.325c-0,-0.466 0.064,-1.033 0.191,-1.7l2.2,-10.9Z" style="fill:rgb(244,244,245);fill-rule:nonzero;"/>
            <path d="M587.481,736.602c-0.638,0.467 -1.291,0.8 -1.961,1c-0.669,0.2 -1.323,0.3 -1.96,0.3c-0.702,0 -1.371,-0.125 -2.009,-0.375c-0.638,-0.25 -1.196,-0.6 -1.674,-1.05c-0.478,-0.45 -0.853,-1 -1.124,-1.65c-0.271,-0.65 -0.406,-1.375 -0.406,-2.175c-0,-0.633 0.064,-1.216 0.191,-1.75l2.869,-12.55l-0.478,-0.35l-6.408,4.6l-3.013,-4.7l6.934,-4.9c0.638,-0.466 1.292,-0.8 1.961,-1c0.67,-0.2 1.323,-0.3 1.961,-0.3c0.701,0 1.371,0.125 2.009,0.375c0.637,0.25 1.195,0.6 1.673,1.05c0.479,0.45 0.853,1 1.124,1.65c0.271,0.65 0.407,1.375 0.407,2.175c-0,0.634 -0.064,1.217 -0.192,1.75l-2.869,12.55l0.478,0.35l6.409,-4.6l3.012,4.7l-6.934,4.9Zm4.161,-31.55c-0,0.667 -0.12,1.292 -0.359,1.875c-0.239,0.584 -0.566,1.084 -0.98,1.5c-0.415,0.417 -0.901,0.75 -1.459,1c-0.558,0.25 -1.14,0.375 -1.746,0.375c-0.637,0 -1.227,-0.125 -1.769,-0.375c-0.542,-0.25 -1.02,-0.583 -1.435,-1c-0.414,-0.416 -0.741,-0.916 -0.98,-1.5c-0.239,-0.583 -0.359,-1.208 -0.359,-1.875c0,-0.666 0.12,-1.291 0.359,-1.875c0.239,-0.583 0.566,-1.083 0.98,-1.5c0.415,-0.416 0.893,-0.75 1.435,-1c0.542,-0.25 1.132,-0.375 1.769,-0.375c0.606,0 1.188,0.125 1.746,0.375c0.558,0.25 1.044,0.584 1.459,1c0.414,0.417 0.741,0.917 0.98,1.5c0.239,0.584 0.359,1.209 0.359,1.875Z" style="fill:rgb(244,244,245);fill-rule:nonzero;"/>
            <path d="M609.002,718.402l-6.696,0l0,-6l7.939,0l2.2,-10.9l6.026,0l-2.2,10.9l8.225,0l0,6l-9.469,0l-2.678,12.85l0.478,0.35l6.409,-4.6l3.013,4.7l-6.935,4.9c-1.211,0.867 -2.503,1.3 -3.873,1.3c-0.702,0 -1.371,-0.125 -2.009,-0.375c-0.638,-0.25 -1.196,-0.608 -1.674,-1.075c-0.478,-0.466 -0.861,-1.033 -1.148,-1.7c-0.287,-0.666 -0.43,-1.416 -0.43,-2.25c-0,-0.266 0.016,-0.508 0.048,-0.725c0.032,-0.216 0.079,-0.508 0.143,-0.875l2.631,-12.5Z" style="fill:rgb(244,244,245);fill-rule:nonzero;"/>
            <path d="M654.529,721.702c0,2.334 -0.318,4.492 -0.956,6.475c-0.638,1.984 -1.578,3.692 -2.822,5.125c-1.243,1.434 -2.797,2.559 -4.662,3.375c-1.866,0.817 -4.026,1.225 -6.481,1.225c-1.402,0 -2.718,-0.216 -3.945,-0.65c-1.227,-0.433 -2.303,-1.075 -3.228,-1.925c-0.925,-0.85 -1.658,-1.891 -2.2,-3.125c-0.542,-1.233 -0.813,-2.633 -0.813,-4.2c0,-2.566 0.383,-4.858 1.148,-6.875c0.765,-2.016 1.809,-3.725 3.132,-5.125c1.323,-1.4 2.886,-2.466 4.687,-3.2c1.801,-0.733 3.738,-1.1 5.81,-1.1c1.499,0 2.886,0.242 4.161,0.725c1.275,0.484 2.367,1.159 3.276,2.025c0.909,0.867 1.618,1.917 2.128,3.15c0.51,1.234 0.765,2.6 0.765,4.1Zm-14.012,10.3c1.148,-0.033 2.208,-0.3 3.18,-0.8c0.973,-0.5 1.802,-1.158 2.487,-1.975c0.686,-0.816 1.22,-1.775 1.602,-2.875c0.383,-1.1 0.574,-2.266 0.574,-3.5c0,-1.733 -0.446,-3.041 -1.339,-3.925c-0.893,-0.883 -2.088,-1.325 -3.587,-1.325c-1.147,0 -2.2,0.259 -3.156,0.775c-0.956,0.517 -1.785,1.2 -2.487,2.05c-0.701,0.85 -1.243,1.825 -1.626,2.925c-0.382,1.1 -0.574,2.25 -0.574,3.45c0,1.7 0.447,2.992 1.339,3.875c0.893,0.884 2.089,1.325 3.587,1.325Z" style="fill:rgb(244,244,245);fill-rule:nonzero;"/>
            <path d="M675.237,722.802c0.127,-0.633 0.191,-1.166 0.191,-1.6c0,-1.2 -0.335,-2.133 -1.004,-2.8c-0.67,-0.666 -1.578,-1 -2.726,-1c-1.435,0 -2.662,0.534 -3.682,1.6c-1.021,1.067 -1.706,2.5 -2.057,4.3l-2.821,13.9l-6.026,0l5.021,-24.8l5.787,0l-0.813,4l0.861,0c0.765,-1.666 1.777,-2.866 3.036,-3.6c1.26,-0.733 2.655,-1.1 4.185,-1.1c2.009,0 3.611,0.634 4.806,1.9c1.196,1.267 1.794,3.05 1.794,5.35c-0,0.534 -0.032,1.025 -0.096,1.475c-0.064,0.45 -0.143,0.942 -0.239,1.475l-1.913,9.35l0.478,0.35l2.057,-1.5l3.012,4.7l-2.582,1.8c-1.212,0.867 -2.503,1.3 -3.874,1.3c-0.701,0 -1.371,-0.125 -2.008,-0.375c-0.638,-0.25 -1.196,-0.6 -1.674,-1.05c-0.478,-0.45 -0.861,-1 -1.148,-1.65c-0.287,-0.65 -0.43,-1.391 -0.43,-2.225c-0,-0.433 0.048,-0.933 0.143,-1.5l1.722,-8.3Z" style="fill:rgb(244,244,245);fill-rule:nonzero;"/>
            <path d="M694.271,726.852c-0.064,0.267 -0.096,0.55 -0.096,0.85c-0,1.2 0.438,2.2 1.315,3c0.877,0.8 2.032,1.2 3.467,1.2c1.499,0 2.694,-0.283 3.587,-0.85c0.893,-0.566 1.578,-1.233 2.056,-2l4.783,3.15c-0.383,0.667 -0.885,1.334 -1.507,2c-0.621,0.667 -1.387,1.275 -2.295,1.825c-0.909,0.55 -1.977,1 -3.204,1.35c-1.228,0.35 -2.655,0.525 -4.281,0.525c-1.466,0 -2.813,-0.241 -4.041,-0.725c-1.227,-0.483 -2.279,-1.15 -3.156,-2c-0.877,-0.85 -1.562,-1.866 -2.056,-3.05c-0.495,-1.183 -0.742,-2.491 -0.742,-3.925c0,-2.266 0.327,-4.4 0.981,-6.4c0.653,-2 1.602,-3.75 2.845,-5.25c1.244,-1.5 2.774,-2.683 4.591,-3.55c1.817,-0.866 3.906,-1.3 6.265,-1.3c1.658,0 3.101,0.275 4.328,0.825c1.228,0.55 2.24,1.284 3.037,2.2c0.797,0.917 1.395,1.959 1.793,3.125c0.399,1.167 0.598,2.367 0.598,3.6c0,0.4 -0.024,0.809 -0.072,1.225c-0.048,0.417 -0.135,0.959 -0.263,1.625l-0.526,2.55l-17.407,0Zm7.556,-9.45c-1.499,0 -2.798,0.392 -3.898,1.175c-1.1,0.784 -1.921,1.742 -2.463,2.875l11.191,0c-0,-1.266 -0.375,-2.258 -1.124,-2.975c-0.749,-0.716 -1.985,-1.075 -3.706,-1.075Z" style="fill:rgb(244,244,245);fill-rule:nonzero;"/>
            <path d="M731.047,717.402c-0.351,0 -0.71,0.042 -1.076,0.125c-0.367,0.084 -0.71,0.209 -1.029,0.375c-0.318,0.167 -0.581,0.392 -0.789,0.675c-0.207,0.284 -0.311,0.625 -0.311,1.025c0,0.7 0.383,1.217 1.148,1.55c0.765,0.334 2.073,0.617 3.922,0.85c2.072,0.267 3.746,0.925 5.021,1.975c1.275,1.05 1.913,2.559 1.913,4.525c0,2.934 -0.98,5.234 -2.941,6.9c-1.961,1.667 -4.679,2.5 -8.154,2.5c-1.753,0 -3.26,-0.266 -4.519,-0.8c-1.26,-0.533 -2.296,-1.2 -3.109,-2c-0.813,-0.8 -1.426,-1.683 -1.841,-2.65c-0.414,-0.966 -0.638,-1.883 -0.669,-2.75l5.93,-1.5c0.095,1.1 0.542,2.042 1.339,2.825c0.797,0.784 2.008,1.175 3.634,1.175c1.116,0 2.089,-0.183 2.918,-0.55c0.828,-0.366 1.243,-1.016 1.243,-1.95c-0,-0.7 -0.319,-1.258 -0.957,-1.675c-0.637,-0.416 -1.817,-0.708 -3.538,-0.875c-2.296,-0.2 -4.121,-0.883 -5.476,-2.05c-1.355,-1.166 -2.033,-2.716 -2.033,-4.65c0,-1.4 0.279,-2.65 0.837,-3.75c0.558,-1.1 1.299,-2.016 2.224,-2.75c0.925,-0.733 2.001,-1.291 3.228,-1.675c1.228,-0.383 2.511,-0.575 3.85,-0.575c1.658,0 3.045,0.234 4.16,0.7c1.116,0.467 2.025,1.05 2.726,1.75c0.702,0.7 1.22,1.459 1.555,2.275c0.334,0.817 0.55,1.575 0.645,2.275l-5.834,1.6c-0.128,-0.9 -0.526,-1.608 -1.196,-2.125c-0.669,-0.516 -1.61,-0.775 -2.821,-0.775Z" style="fill:rgb(244,244,245);fill-rule:nonzero;"/>
        </g>
        <g>
            <rect x="1032.62" y="679.249" width="447.266" height="79.707" style="fill:rgb(64,140,148);stroke:rgb(64,140,148);stroke-width:10.42px;stroke-linejoin:round;stroke-miterlimit:1.5;"/>
            <path d="M1057.22,716.852l7.89,0l1.531,-7.6l5.452,0l-1.531,7.6l6.648,0l-0,5.7l-7.843,0l-1.531,7.6l-5.452,0l1.531,-7.6l-6.695,0l-0,-5.7Z" style="fill:rgb(244,244,245);fill-rule:nonzero;"/>
            <path d="M1105.72,730.902l0,6.3l-24.198,0l1.387,-6.9c0.382,-1.966 0.964,-3.625 1.745,-4.975c0.781,-1.35 1.738,-2.466 2.87,-3.35c1.131,-0.883 2.447,-1.583 3.945,-2.1c1.499,-0.516 3.172,-0.941 5.021,-1.275c0.957,-0.166 1.89,-0.408 2.798,-0.725c0.909,-0.316 1.722,-0.725 2.439,-1.225c0.717,-0.5 1.291,-1.133 1.722,-1.9c0.43,-0.766 0.645,-1.683 0.645,-2.75c0,-1.266 -0.398,-2.283 -1.195,-3.05c-0.797,-0.766 -1.961,-1.15 -3.491,-1.15c-1.881,0 -3.452,0.575 -4.711,1.725c-1.259,1.15 -2.096,2.742 -2.511,4.775l-0.43,2.2l-6.313,0l0.574,-2.8c0.797,-3.866 2.399,-6.866 4.806,-9c2.408,-2.133 5.556,-3.2 9.446,-3.2c1.594,0 3.028,0.259 4.304,0.775c1.275,0.517 2.351,1.217 3.228,2.1c0.876,0.884 1.554,1.909 2.032,3.075c0.478,1.167 0.718,2.384 0.718,3.65c-0,3.634 -1.076,6.525 -3.229,8.675c-2.152,2.15 -5.172,3.659 -9.062,4.525c-1.722,0.367 -3.124,0.75 -4.208,1.15c-1.084,0.4 -1.945,0.834 -2.583,1.3c-0.638,0.467 -1.108,0.992 -1.411,1.575c-0.303,0.584 -0.55,1.242 -0.741,1.975l-0.143,0.6l16.546,0Z" style="fill:rgb(244,244,245);fill-rule:nonzero;"/>
            <path d="M1130.35,733.152c0,0.667 -0.119,1.292 -0.358,1.875c-0.239,0.584 -0.566,1.084 -0.981,1.5c-0.414,0.417 -0.9,0.75 -1.458,1c-0.558,0.25 -1.14,0.375 -1.746,0.375c-0.637,0 -1.227,-0.125 -1.769,-0.375c-0.542,-0.25 -1.021,-0.583 -1.435,-1c-0.414,-0.416 -0.741,-0.916 -0.98,-1.5c-0.239,-0.583 -0.359,-1.208 -0.359,-1.875c-0,-0.666 0.12,-1.291 0.359,-1.875c0.239,-0.583 0.566,-1.083 0.98,-1.5c0.414,-0.416 0.893,-0.75 1.435,-1c0.542,-0.25 1.132,-0.375 1.769,-0.375c0.606,0 1.188,0.125 1.746,0.375c0.558,0.25 1.044,0.584 1.458,1c0.415,0.417 0.742,0.917 0.981,1.5c0.239,0.584 0.358,1.209 0.358,1.875Z" style="fill:rgb(244,244,245);fill-rule:nonzero;"/>
            <path d="M1142.78,721.602l3.922,-19.4l21.425,0l-0,6.3l-16.356,0l-1.96,9.5l0.86,0c0.702,-1.466 1.674,-2.633 2.918,-3.5c1.243,-0.866 2.901,-1.3 4.973,-1.3c1.275,0 2.439,0.234 3.491,0.7c1.052,0.467 1.961,1.125 2.726,1.975c0.765,0.85 1.355,1.892 1.77,3.125c0.414,1.234 0.621,2.617 0.621,4.15c0,2 -0.326,3.9 -0.98,5.7c-0.654,1.8 -1.602,3.367 -2.845,4.7c-1.244,1.334 -2.782,2.392 -4.615,3.175c-1.834,0.784 -3.93,1.175 -6.289,1.175c-1.722,0 -3.284,-0.233 -4.687,-0.7c-1.403,-0.466 -2.598,-1.116 -3.587,-1.95c-0.988,-0.833 -1.753,-1.841 -2.295,-3.025c-0.542,-1.183 -0.813,-2.475 -0.813,-3.875c-0,-0.666 0.08,-1.416 0.239,-2.25l0.239,-1.2l6.313,0l-0.144,0.7c-0.063,0.334 -0.111,0.592 -0.143,0.775c-0.032,0.184 -0.048,0.409 -0.048,0.675c-0,1.334 0.478,2.425 1.435,3.275c0.956,0.85 2.439,1.275 4.447,1.275c1.052,0 2.025,-0.183 2.917,-0.55c0.893,-0.366 1.658,-0.875 2.296,-1.525c0.638,-0.65 1.132,-1.408 1.483,-2.275c0.35,-0.866 0.526,-1.816 0.526,-2.85c-0,-1.766 -0.383,-3.025 -1.148,-3.775c-0.765,-0.75 -1.722,-1.125 -2.87,-1.125c-0.924,0 -1.665,0.209 -2.223,0.625c-0.558,0.417 -0.981,0.909 -1.268,1.475l-10.33,0Z" style="fill:rgb(244,244,245);fill-rule:nonzero;"/>
            <path d="M1214.37,717.402c-0.351,0 -0.709,0.042 -1.076,0.125c-0.367,0.084 -0.709,0.209 -1.028,0.375c-0.319,0.167 -0.582,0.392 -0.789,0.675c-0.208,0.284 -0.311,0.625 -0.311,1.025c-0,0.7 0.382,1.217 1.148,1.55c0.765,0.334 2.072,0.617 3.921,0.85c2.072,0.267 3.746,0.925 5.022,1.975c1.275,1.05 1.912,2.559 1.912,4.525c0,2.934 -0.98,5.234 -2.941,6.9c-1.96,1.667 -4.678,2.5 -8.154,2.5c-1.753,0 -3.259,-0.266 -4.519,-0.8c-1.259,-0.533 -2.295,-1.2 -3.108,-2c-0.813,-0.8 -1.427,-1.683 -1.842,-2.65c-0.414,-0.966 -0.637,-1.883 -0.669,-2.75l5.93,-1.5c0.096,1.1 0.542,2.042 1.339,2.825c0.797,0.784 2.009,1.175 3.635,1.175c1.116,0 2.088,-0.183 2.917,-0.55c0.829,-0.366 1.243,-1.016 1.243,-1.95c0,-0.7 -0.319,-1.258 -0.956,-1.675c-0.638,-0.416 -1.817,-0.708 -3.539,-0.875c-2.296,-0.2 -4.121,-0.883 -5.476,-2.05c-1.355,-1.166 -2.032,-2.716 -2.032,-4.65c-0,-1.4 0.279,-2.65 0.837,-3.75c0.557,-1.1 1.299,-2.016 2.223,-2.75c0.925,-0.733 2.001,-1.291 3.228,-1.675c1.228,-0.383 2.511,-0.575 3.85,-0.575c1.658,0 3.045,0.234 4.161,0.7c1.116,0.467 2.024,1.05 2.726,1.75c0.701,0.7 1.219,1.459 1.554,2.275c0.335,0.817 0.55,1.575 0.646,2.275l-5.835,1.6c-0.127,-0.9 -0.526,-1.608 -1.195,-2.125c-0.67,-0.516 -1.61,-0.775 -2.822,-0.775Z" style="fill:rgb(244,244,245);fill-rule:nonzero;"/>
            <path d="M1236.13,726.852c-0.064,0.267 -0.096,0.55 -0.096,0.85c-0,1.2 0.438,2.2 1.315,3c0.877,0.8 2.033,1.2 3.467,1.2c1.499,0 2.694,-0.283 3.587,-0.85c0.893,-0.566 1.578,-1.233 2.056,-2l4.783,3.15c-0.383,0.667 -0.885,1.334 -1.507,2c-0.621,0.667 -1.387,1.275 -2.295,1.825c-0.909,0.55 -1.977,1 -3.204,1.35c-1.228,0.35 -2.655,0.525 -4.281,0.525c-1.466,0 -2.813,-0.241 -4.041,-0.725c-1.227,-0.483 -2.279,-1.15 -3.156,-2c-0.877,-0.85 -1.562,-1.866 -2.056,-3.05c-0.495,-1.183 -0.742,-2.491 -0.742,-3.925c0,-2.266 0.327,-4.4 0.981,-6.4c0.653,-2 1.602,-3.75 2.845,-5.25c1.244,-1.5 2.774,-2.683 4.591,-3.55c1.818,-0.866 3.906,-1.3 6.265,-1.3c1.658,0 3.101,0.275 4.328,0.825c1.228,0.55 2.24,1.284 3.037,2.2c0.797,0.917 1.395,1.959 1.793,3.125c0.399,1.167 0.598,2.367 0.598,3.6c0,0.4 -0.024,0.809 -0.072,1.225c-0.047,0.417 -0.135,0.959 -0.263,1.625l-0.526,2.55l-17.407,0Zm7.556,-9.45c-1.499,0 -2.798,0.392 -3.898,1.175c-1.1,0.784 -1.921,1.742 -2.463,2.875l11.191,0c-0,-1.266 -0.375,-2.258 -1.124,-2.975c-0.749,-0.716 -1.985,-1.075 -3.706,-1.075Z" style="fill:rgb(244,244,245);fill-rule:nonzero;"/>
            <path d="M1278.12,719.802c0.064,-0.266 0.096,-0.5 0.096,-0.7c0,-0.933 -0.43,-1.4 -1.291,-1.4c-0.51,0 -0.893,0.175 -1.148,0.525c-0.255,0.35 -0.43,0.775 -0.526,1.275l-3.634,17.7l-6.026,0l3.539,-17.4c0.063,-0.333 0.095,-0.566 0.095,-0.7c0,-0.933 -0.414,-1.4 -1.243,-1.4c-0.925,0 -1.499,0.6 -1.722,1.8l-3.634,17.7l-5.978,0l5.021,-24.8l6.026,0l-0.478,2.4l0.861,0c0.255,-1.033 0.733,-1.808 1.434,-2.325c0.702,-0.516 1.499,-0.775 2.391,-0.775c1.053,0 1.85,0.3 2.392,0.9c0.542,0.6 0.892,1.334 1.052,2.2l0.861,0c0.35,-0.9 0.884,-1.641 1.602,-2.225c0.717,-0.583 1.65,-0.875 2.797,-0.875c1.339,0 2.368,0.45 3.085,1.35c0.717,0.9 1.076,1.984 1.076,3.25c-0,0.234 -0.008,0.442 -0.024,0.625c-0.016,0.184 -0.056,0.409 -0.12,0.675l-2.821,13.65l0.478,0.35l1.626,-1.2l3.013,4.7l-2.152,1.5c-0.638,0.467 -1.283,0.8 -1.937,1c-0.654,0.2 -1.299,0.3 -1.937,0.3c-0.701,0 -1.363,-0.125 -1.984,-0.375c-0.622,-0.25 -1.172,-0.608 -1.65,-1.075c-0.479,-0.466 -0.853,-1.041 -1.124,-1.725c-0.271,-0.683 -0.407,-1.458 -0.407,-2.325c0,-0.466 0.064,-1.033 0.192,-1.7l2.199,-10.9Z" style="fill:rgb(244,244,245);fill-rule:nonzero;"/>
            <path d="M1304.95,736.602c-0.637,0.467 -1.291,0.8 -1.96,1c-0.67,0.2 -1.324,0.3 -1.961,0.3c-0.702,0 -1.371,-0.125 -2.009,-0.375c-0.637,-0.25 -1.195,-0.6 -1.674,-1.05c-0.478,-0.45 -0.852,-1 -1.123,-1.65c-0.271,-0.65 -0.407,-1.375 -0.407,-2.175c0,-0.633 0.064,-1.216 0.191,-1.75l2.87,-12.55l-0.478,-0.35l-6.409,4.6l-3.013,-4.7l6.935,-4.9c0.637,-0.466 1.291,-0.8 1.961,-1c0.669,-0.2 1.323,-0.3 1.96,-0.3c0.702,0 1.371,0.125 2.009,0.375c0.637,0.25 1.195,0.6 1.674,1.05c0.478,0.45 0.853,1 1.124,1.65c0.271,0.65 0.406,1.375 0.406,2.175c0,0.634 -0.064,1.217 -0.191,1.75l-2.87,12.55l0.479,0.35l6.408,-4.6l3.013,4.7l-6.935,4.9Zm4.161,-31.55c-0,0.667 -0.12,1.292 -0.359,1.875c-0.239,0.584 -0.566,1.084 -0.98,1.5c-0.415,0.417 -0.901,0.75 -1.459,1c-0.558,0.25 -1.139,0.375 -1.745,0.375c-0.638,0 -1.228,-0.125 -1.77,-0.375c-0.542,-0.25 -1.02,-0.583 -1.434,-1c-0.415,-0.416 -0.742,-0.916 -0.981,-1.5c-0.239,-0.583 -0.358,-1.208 -0.358,-1.875c-0,-0.666 0.119,-1.291 0.358,-1.875c0.239,-0.583 0.566,-1.083 0.981,-1.5c0.414,-0.416 0.892,-0.75 1.434,-1c0.542,-0.25 1.132,-0.375 1.77,-0.375c0.606,0 1.187,0.125 1.745,0.375c0.558,0.25 1.044,0.584 1.459,1c0.414,0.417 0.741,0.917 0.98,1.5c0.239,0.584 0.359,1.209 0.359,1.875Z" style="fill:rgb(244,244,245);fill-rule:nonzero;"/>
            <path d="M1326.47,718.402l-6.695,0l-0,-6l7.938,0l2.2,-10.9l6.026,0l-2.2,10.9l8.226,0l-0,6l-9.469,0l-2.679,12.85l0.479,0.35l6.408,-4.6l3.013,4.7l-6.934,4.9c-1.212,0.867 -2.503,1.3 -3.874,1.3c-0.702,0 -1.371,-0.125 -2.009,-0.375c-0.637,-0.25 -1.195,-0.608 -1.674,-1.075c-0.478,-0.466 -0.86,-1.033 -1.147,-1.7c-0.287,-0.666 -0.431,-1.416 -0.431,-2.25c0,-0.266 0.016,-0.508 0.048,-0.725c0.032,-0.216 0.08,-0.508 0.144,-0.875l2.63,-12.5Z" style="fill:rgb(244,244,245);fill-rule:nonzero;"/>
            <path d="M1372,721.702c-0,2.334 -0.319,4.492 -0.957,6.475c-0.637,1.984 -1.578,3.692 -2.821,5.125c-1.244,1.434 -2.798,2.559 -4.663,3.375c-1.865,0.817 -4.025,1.225 -6.48,1.225c-1.403,0 -2.718,-0.216 -3.946,-0.65c-1.227,-0.433 -2.303,-1.075 -3.228,-1.925c-0.924,-0.85 -1.658,-1.891 -2.2,-3.125c-0.542,-1.233 -0.813,-2.633 -0.813,-4.2c0,-2.566 0.383,-4.858 1.148,-6.875c0.765,-2.016 1.809,-3.725 3.133,-5.125c1.323,-1.4 2.885,-2.466 4.686,-3.2c1.802,-0.733 3.738,-1.1 5.811,-1.1c1.498,0 2.885,0.242 4.16,0.725c1.276,0.484 2.368,1.159 3.276,2.025c0.909,0.867 1.618,1.917 2.128,3.15c0.511,1.234 0.766,2.6 0.766,4.1Zm-14.013,10.3c1.148,-0.033 2.208,-0.3 3.181,-0.8c0.972,-0.5 1.801,-1.158 2.486,-1.975c0.686,-0.816 1.22,-1.775 1.603,-2.875c0.382,-1.1 0.573,-2.266 0.573,-3.5c0,-1.733 -0.446,-3.041 -1.339,-3.925c-0.892,-0.883 -2.088,-1.325 -3.586,-1.325c-1.148,0 -2.2,0.259 -3.157,0.775c-0.956,0.517 -1.785,1.2 -2.487,2.05c-0.701,0.85 -1.243,1.825 -1.625,2.925c-0.383,1.1 -0.574,2.25 -0.574,3.45c-0,1.7 0.446,2.992 1.339,3.875c0.892,0.884 2.088,1.325 3.586,1.325Z" style="fill:rgb(244,244,245);fill-rule:nonzero;"/>
            <path d="M1392.7,722.802c0.128,-0.633 0.191,-1.166 0.191,-1.6c0,-1.2 -0.334,-2.133 -1.004,-2.8c-0.669,-0.666 -1.578,-1 -2.726,-1c-1.434,0 -2.662,0.534 -3.682,1.6c-1.02,1.067 -1.706,2.5 -2.057,4.3l-2.821,13.9l-6.026,0l5.022,-24.8l5.786,0l-0.813,4l0.861,0c0.765,-1.666 1.777,-2.866 3.037,-3.6c1.259,-0.733 2.654,-1.1 4.184,-1.1c2.009,0 3.611,0.634 4.807,1.9c1.195,1.267 1.793,3.05 1.793,5.35c-0,0.534 -0.032,1.025 -0.096,1.475c-0.063,0.45 -0.143,0.942 -0.239,1.475l-1.913,9.35l0.478,0.35l2.057,-1.5l3.013,4.7l-2.583,1.8c-1.211,0.867 -2.502,1.3 -3.873,1.3c-0.702,0 -1.371,-0.125 -2.009,-0.375c-0.638,-0.25 -1.196,-0.6 -1.674,-1.05c-0.478,-0.45 -0.861,-1 -1.148,-1.65c-0.286,-0.65 -0.43,-1.391 -0.43,-2.225c0,-0.433 0.048,-0.933 0.144,-1.5l1.721,-8.3Z" style="fill:rgb(244,244,245);fill-rule:nonzero;"/>
            <path d="M1411.74,726.852c-0.064,0.267 -0.096,0.55 -0.096,0.85c0,1.2 0.439,2.2 1.315,3c0.877,0.8 2.033,1.2 3.468,1.2c1.498,0 2.694,-0.283 3.586,-0.85c0.893,-0.566 1.578,-1.233 2.057,-2l4.782,3.15c-0.383,0.667 -0.885,1.334 -1.506,2c-0.622,0.667 -1.387,1.275 -2.296,1.825c-0.909,0.55 -1.977,1 -3.204,1.35c-1.228,0.35 -2.654,0.525 -4.28,0.525c-1.467,0 -2.814,-0.241 -4.041,-0.725c-1.228,-0.483 -2.28,-1.15 -3.157,-2c-0.876,-0.85 -1.562,-1.866 -2.056,-3.05c-0.494,-1.183 -0.741,-2.491 -0.741,-3.925c-0,-2.266 0.326,-4.4 0.98,-6.4c0.654,-2 1.602,-3.75 2.845,-5.25c1.244,-1.5 2.774,-2.683 4.592,-3.55c1.817,-0.866 3.905,-1.3 6.264,-1.3c1.658,0 3.101,0.275 4.328,0.825c1.228,0.55 2.24,1.284 3.037,2.2c0.797,0.917 1.395,1.959 1.794,3.125c0.398,1.167 0.597,2.367 0.597,3.6c0,0.4 -0.024,0.809 -0.071,1.225c-0.048,0.417 -0.136,0.959 -0.263,1.625l-0.526,2.55l-17.408,0Zm7.556,-9.45c-1.499,0 -2.798,0.392 -3.898,1.175c-1.1,0.784 -1.921,1.742 -2.463,2.875l11.191,0c0,-1.266 -0.375,-2.258 -1.124,-2.975c-0.749,-0.716 -1.984,-1.075 -3.706,-1.075Z" style="fill:rgb(244,244,245);fill-rule:nonzero;"/>
            <path d="M1448.52,717.402c-0.351,0 -0.709,0.042 -1.076,0.125c-0.367,0.084 -0.709,0.209 -1.028,0.375c-0.319,0.167 -0.582,0.392 -0.789,0.675c-0.208,0.284 -0.311,0.625 -0.311,1.025c-0,0.7 0.382,1.217 1.148,1.55c0.765,0.334 2.072,0.617 3.921,0.85c2.072,0.267 3.746,0.925 5.022,1.975c1.275,1.05 1.912,2.559 1.912,4.525c0,2.934 -0.98,5.234 -2.941,6.9c-1.96,1.667 -4.678,2.5 -8.154,2.5c-1.753,0 -3.259,-0.266 -4.519,-0.8c-1.259,-0.533 -2.295,-1.2 -3.108,-2c-0.813,-0.8 -1.427,-1.683 -1.842,-2.65c-0.414,-0.966 -0.637,-1.883 -0.669,-2.75l5.93,-1.5c0.096,1.1 0.542,2.042 1.339,2.825c0.797,0.784 2.009,1.175 3.635,1.175c1.116,0 2.088,-0.183 2.917,-0.55c0.829,-0.366 1.243,-1.016 1.243,-1.95c0,-0.7 -0.319,-1.258 -0.956,-1.675c-0.638,-0.416 -1.817,-0.708 -3.539,-0.875c-2.296,-0.2 -4.121,-0.883 -5.476,-2.05c-1.355,-1.166 -2.032,-2.716 -2.032,-4.65c-0,-1.4 0.279,-2.65 0.837,-3.75c0.557,-1.1 1.299,-2.016 2.223,-2.75c0.925,-0.733 2.001,-1.291 3.228,-1.675c1.228,-0.383 2.511,-0.575 3.85,-0.575c1.658,0 3.045,0.234 4.161,0.7c1.116,0.467 2.024,1.05 2.726,1.75c0.701,0.7 1.219,1.459 1.554,2.275c0.335,0.817 0.55,1.575 0.646,2.275l-5.835,1.6c-0.127,-0.9 -0.526,-1.608 -1.195,-2.125c-0.67,-0.516 -1.61,-0.775 -2.822,-0.775Z" style="fill:rgb(244,244,245);fill-rule:nonzero;"/>
        </g>
        <g>
            <g>
                <circle cx="899.803" cy="842.599" r="24.111" style="fill:rgb(125,97,186);stroke:rgb(125,97,186);stroke-width:10.42px;stroke-linejoin:round;stroke-miterlimit:1.5;"/>
                <path d="M895.13,782.876l4.673,4.673l4.672,-4.673" style="fill:none;stroke:rgb(145,120,199);stroke-width:10.42px;"/>
                <path d="M899.803,787.549l-0,-25.265" style="fill:none;stroke:rgb(145,120,199);stroke-width:10.42px;stroke-linejoin:round;stroke-miterlimit:1.5;"/>
                <path d="M949.188,808.691l-1.711,6.383l6.384,1.71" style="fill:none;stroke:rgb(145,120,199);stroke-width:10.42px;"/>
                <path d="M947.477,815.074c8.335,-4.812 21.88,-12.632 21.88,-12.632" style="fill:none;stroke:rgb(145,120,199);stroke-width:10.42px;stroke-linejoin:round;stroke-miterlimit:1.5;"/>
                <path d="M845.745,816.784l6.383,-1.71l-1.71,-6.383" style="fill:none;stroke:rgb(145,120,199);stroke-width:10.42px;"/>
                <path d="M852.128,815.074c-8.335,-4.812 -21.879,-12.632 -21.879,-12.632" style="fill:none;stroke:rgb(145,120,199);stroke-width:10.42px;stroke-linejoin:round;stroke-miterlimit:1.5;"/>
                <path d="M865.906,793.145l6.384,1.71l1.71,-6.383" style="fill:none;stroke:rgb(145,120,199);stroke-width:10.42px;"/>
                <path d="M872.29,794.855c-4.828,-8.362 -12.689,-21.977 -12.689,-21.977" style="fill:none;stroke:rgb(145,120,199);stroke-width:10.42px;stroke-linejoin:round;stroke-miterlimit:1.5;"/>
                <path d="M925.561,788.728l1.71,6.383l6.384,-1.711" style="fill:none;stroke:rgb(145,120,199);stroke-width:10.42px;"/>
                <path d="M927.271,795.111c4.816,-8.34 12.644,-21.9 12.644,-21.9" style="fill:none;stroke:rgb(145,120,199);stroke-width:10.42px;stroke-linejoin:round;stroke-miterlimit:1.5;"/>
            </g>
            <g>
                <rect x="792.532" y="912.417" width="214.542" height="79.707" style="fill:rgb(125,97,186);stroke:rgb(125,97,186);stroke-width:10.42px;stroke-linejoin:round;stroke-miterlimit:1.5;"/>
                <path d="M835.099,933.987l6.312,0l-2.917,14.3l9.565,0l2.917,-14.3l6.313,0l-7.126,35l-6.313,0l2.917,-14.4l-9.564,0l-2.917,14.4l-6.265,0l7.078,-35Z" style="fill:rgb(244,244,245);fill-rule:nonzero;"/>
                <path d="M883.974,953.487c0,2.334 -0.319,4.492 -0.956,6.475c-0.638,1.984 -1.579,3.692 -2.822,5.125c-1.243,1.434 -2.798,2.559 -4.663,3.375c-1.865,0.817 -4.025,1.225 -6.48,1.225c-1.403,0 -2.718,-0.216 -3.945,-0.65c-1.228,-0.433 -2.304,-1.075 -3.228,-1.925c-0.925,-0.85 -1.658,-1.891 -2.2,-3.125c-0.542,-1.233 -0.813,-2.633 -0.813,-4.2c-0,-2.566 0.382,-4.858 1.148,-6.875c0.765,-2.016 1.809,-3.725 3.132,-5.125c1.323,-1.4 2.885,-2.466 4.687,-3.2c1.801,-0.733 3.738,-1.1 5.81,-1.1c1.499,0 2.886,0.242 4.161,0.725c1.275,0.484 2.367,1.159 3.276,2.025c0.908,0.867 1.618,1.917 2.128,3.15c0.51,1.234 0.765,2.6 0.765,4.1Zm-14.012,10.3c1.148,-0.033 2.208,-0.3 3.18,-0.8c0.972,-0.5 1.801,-1.158 2.487,-1.975c0.685,-0.816 1.219,-1.775 1.602,-2.875c0.383,-1.1 0.574,-2.266 0.574,-3.5c-0,-1.733 -0.447,-3.041 -1.339,-3.925c-0.893,-0.883 -2.089,-1.325 -3.587,-1.325c-1.148,0 -2.2,0.259 -3.156,0.775c-0.957,0.517 -1.786,1.2 -2.487,2.05c-0.702,0.85 -1.244,1.825 -1.626,2.925c-0.383,1.1 -0.574,2.25 -0.574,3.45c-0,1.7 0.446,2.992 1.339,3.875c0.893,0.884 2.088,1.325 3.587,1.325Z" style="fill:rgb(244,244,245);fill-rule:nonzero;"/>
                <path d="M904.395,968.387c-0.638,0.467 -1.292,0.8 -1.961,1c-0.67,0.2 -1.323,0.3 -1.961,0.3c-0.701,0 -1.371,-0.125 -2.009,-0.375c-0.637,-0.25 -1.195,-0.6 -1.673,-1.05c-0.479,-0.45 -0.853,-1 -1.124,-1.65c-0.271,-0.65 -0.407,-1.375 -0.407,-2.175c0,-0.6 0.064,-1.183 0.192,-1.75l5.212,-22.75l-0.478,-0.35l-6.408,4.6l-3.013,-4.7l6.934,-4.9c0.638,-0.466 1.292,-0.8 1.961,-1c0.67,-0.2 1.323,-0.3 1.961,-0.3c0.701,0 1.371,0.125 2.008,0.375c0.638,0.25 1.196,0.6 1.674,1.05c0.478,0.45 0.853,1 1.124,1.65c0.271,0.65 0.407,1.375 0.407,2.175c-0,0.534 -0.064,1.117 -0.192,1.75l-5.212,22.75l0.478,0.35l6.408,-4.6l3.013,4.7l-6.934,4.9Z" style="fill:rgb(244,244,245);fill-rule:nonzero;"/>
                <path d="M938.732,963.037l0.478,0.35l2.582,-1.9l3.013,4.7l-3.108,2.2c-0.67,0.467 -1.331,0.8 -1.985,1c-0.653,0.2 -1.299,0.3 -1.937,0.3c-1.211,0 -2.295,-0.35 -3.252,-1.05c-0.956,-0.7 -1.562,-1.683 -1.817,-2.95l-0.861,0c-0.287,0.567 -0.622,1.092 -1.004,1.575c-0.383,0.484 -0.853,0.9 -1.411,1.25c-0.558,0.35 -1.211,0.634 -1.961,0.85c-0.749,0.217 -1.634,0.325 -2.654,0.325c-1.243,0 -2.391,-0.258 -3.443,-0.775c-1.052,-0.516 -1.969,-1.233 -2.75,-2.15c-0.781,-0.916 -1.395,-1.991 -1.841,-3.225c-0.447,-1.233 -0.67,-2.583 -0.67,-4.05c0,-2.233 0.287,-4.316 0.861,-6.25c0.574,-1.933 1.403,-3.625 2.487,-5.075c1.084,-1.45 2.415,-2.591 3.993,-3.425c1.578,-0.833 3.356,-1.25 5.332,-1.25c1.69,0 3.061,0.4 4.113,1.2c1.052,0.8 1.738,1.834 2.057,3.1l0.861,0l2.917,-14.5l6.073,0l-2.965,14.5l-3.108,15.25Zm-11.574,0.65c1.148,0 2.168,-0.241 3.061,-0.725c0.893,-0.483 1.634,-1.125 2.224,-1.925c0.59,-0.8 1.044,-1.741 1.363,-2.825c0.319,-1.083 0.478,-2.225 0.478,-3.425c0,-1.566 -0.43,-2.841 -1.291,-3.825c-0.861,-0.983 -2.009,-1.475 -3.443,-1.475c-1.148,0 -2.168,0.242 -3.061,0.725c-0.893,0.484 -1.642,1.125 -2.248,1.925c-0.606,0.8 -1.068,1.742 -1.387,2.825c-0.318,1.084 -0.478,2.225 -0.478,3.425c0,1.4 0.391,2.634 1.172,3.7c0.781,1.067 1.984,1.6 3.61,1.6Z" style="fill:rgb(244,244,245);fill-rule:nonzero;"/>
                <path d="M966.804,933.987l-4.974,24.1l-6.312,0l4.973,-24.1l6.313,0Zm-4.687,30.95c0,0.667 -0.119,1.292 -0.358,1.875c-0.239,0.584 -0.566,1.084 -0.981,1.5c-0.414,0.417 -0.9,0.75 -1.458,1c-0.558,0.25 -1.14,0.375 -1.746,0.375c-0.638,0 -1.227,-0.125 -1.769,-0.375c-0.542,-0.25 -1.021,-0.583 -1.435,-1c-0.415,-0.416 -0.741,-0.916 -0.98,-1.5c-0.24,-0.583 -0.359,-1.208 -0.359,-1.875c-0,-0.666 0.119,-1.291 0.359,-1.875c0.239,-0.583 0.565,-1.083 0.98,-1.5c0.414,-0.416 0.893,-0.75 1.435,-1c0.542,-0.25 1.131,-0.375 1.769,-0.375c0.606,0 1.188,0.125 1.746,0.375c0.558,0.25 1.044,0.584 1.458,1c0.415,0.417 0.742,0.917 0.981,1.5c0.239,0.584 0.358,1.209 0.358,1.875Z" style="fill:rgb(244,244,245);fill-rule:nonzero;"/>
            </g>
        </g>
    </g>
    <defs>
        <linearGradient id="_Linear1" x1="0" y1="0" x2="1" y2="0" gradientUnits="userSpaceOnUse" gradientTransform="matrix(468.262,0,0,468.262,665.914,429.616)"><stop offset="0" style="stop-color:rgb(230,33,109);stop-opacity:1"/><stop offset="0.24" style="stop-color:rgb(238,62,128);stop-opacity:1"/><stop offset="0.77" style="stop-color:rgb(118,188,194);stop-opacity:1"/><stop offset="1" style="stop-color:rgb(124,192,198);stop-opacity:1"/></linearGradient>
        <linearGradient id="_Linear2" x1="0" y1="0" x2="1" y2="0" gradientUnits="userSpaceOnUse" gradientTransform="matrix(468.262,0,0,468.262,665.914,429.616)"><stop offset="0" style="stop-color:rgb(230,33,109);stop-opacity:1"/><stop offset="0.24" style="stop-color:rgb(238,62,128);stop-opacity:1"/><stop offset="0.77" style="stop-color:rgb(118,188,194);stop-opacity:1"/><stop offset="1" style="stop-color:rgb(124,192,198);stop-opacity:1"/></linearGradient>
        <linearGradient id="_Linear3" x1="0" y1="0" x2="1" y2="0" gradientUnits="userSpaceOnUse" gradientTransform="matrix(468.262,0,0,468.262,665.914,429.616)"><stop offset="0" style="stop-color:rgb(230,33,109);stop-opacity:1"/><stop offset="0.24" style="stop-color:rgb(238,62,128);stop-opacity:1"/><stop offset="0.77" style="stop-color:rgb(118,188,194);stop-opacity:1"/><stop offset="1" style="stop-color:rgb(124,192,198);stop-opacity:1"/></linearGradient>
    </defs>
</svg>
