<?xml version="1.0" encoding="UTF-8" standalone="no"?>
<!DOCTYPE svg PUBLIC "-//W3C//DTD SVG 1.1//EN" "http://www.w3.org/Graphics/SVG/1.1/DTD/svg11.dtd">
<svg width="100%" height="100%" viewBox="0 0 1801 1201" version="1.1" xmlns="http://www.w3.org/2000/svg" xmlns:xlink="http://www.w3.org/1999/xlink" xml:space="preserve" xmlns:serif="http://www.serif.com/" style="fill-rule:evenodd;clip-rule:evenodd;stroke-linecap:round;stroke-linejoin:round;stroke-miterlimit:1.5;">
    <rect id="_13---hold-button" serif:id="13 - hold button" x="0.045" y="0.222" width="1800" height="1200" style="fill:none;"/>
    <g id="_13---hold-button1" serif:id="13 - hold button">
        <g id="Base">
            <rect x="617.402" y="87.232" width="565.286" height="1025.98" style="fill:white;"/>
            <rect id="Outline" x="617.402" y="87.232" width="565.286" height="1025.98" style="fill:none;stroke:rgb(12,12,12);stroke-width:4.17px;"/>
            <path id="Mounting-holes" serif:id="Mounting holes" d="M693.252,1089.26c0,-7.712 -6.261,-13.972 -13.972,-13.972l-3.992,-0c-7.712,-0 -13.973,6.26 -13.973,13.972c0,7.712 6.261,13.973 13.973,13.973l3.992,-0c7.711,-0 13.972,-6.261 13.972,-13.973Zm0,-978.073c0,-7.712 -6.261,-13.972 -13.972,-13.972l-3.992,-0c-7.712,-0 -13.973,6.26 -13.973,13.972c0,7.712 6.261,13.973 13.973,13.973l3.992,-0c7.711,-0 13.972,-6.261 13.972,-13.973Zm446.161,978.073c0,-7.712 -6.261,-13.972 -13.972,-13.972l-3.992,-0c-7.712,-0 -13.973,6.26 -13.973,13.972c0,7.712 6.261,13.973 13.973,13.973l3.992,-0c7.711,-0 13.972,-6.261 13.972,-13.973Zm0,-978.073c0,-7.712 -6.261,-13.972 -13.972,-13.972l-3.992,-0c-7.712,-0 -13.973,6.26 -13.973,13.972c0,7.712 6.261,13.973 13.973,13.973l3.992,-0c7.711,-0 13.972,-6.261 13.972,-13.973Z" style="fill:rgb(213,213,213);"/>
            <g id="Legend">
                <path d="M685.583,1037.94c-0.051,1.13 0.314,1.682 1.097,1.656c0.475,0 0.835,-0.083 1.079,-0.25l-0,3.042c-0.296,0.103 -0.681,0.167 -1.156,0.193c-0.5,0.051 -0.917,0.077 -1.251,0.077c-0.924,-0.026 -1.65,-0.366 -2.176,-1.021c-0.578,-0.629 -0.866,-1.392 -0.866,-2.291l-0.077,0c-1.605,2.208 -3.8,3.312 -6.585,3.312c-2.991,-0.052 -5.225,-1.123 -6.701,-3.216c-1.502,-2.028 -2.253,-4.46 -2.253,-7.297c0,-2.901 0.725,-5.398 2.176,-7.49c1.438,-2.131 3.71,-3.222 6.816,-3.274c2.76,0 4.929,1.117 6.508,3.351l0.077,-0l0,-2.965l3.312,-0l-0,16.173Zm-9.377,1.887c1.027,0 1.906,-0.237 2.638,-0.712c0.706,-0.449 1.296,-1.053 1.771,-1.81c0.924,-1.553 1.387,-3.26 1.387,-5.122c-0,-2.079 -0.424,-3.908 -1.271,-5.487c-0.86,-1.605 -2.426,-2.433 -4.698,-2.484c-2.016,0.051 -3.485,0.866 -4.41,2.445c-0.924,1.553 -1.386,3.274 -1.386,5.16c0,2.003 0.462,3.806 1.386,5.411c0.925,1.682 2.452,2.548 4.583,2.599Z" style="fill:rgb(131,133,136);fill-rule:nonzero;"/>
                <path d="M673.94,363.261c-0.059,1.291 0.359,1.922 1.254,1.892c0.543,0 0.953,-0.095 1.232,-0.286l0,3.477c-0.337,0.117 -0.777,0.191 -1.32,0.22c-0.572,0.059 -1.049,0.088 -1.43,0.088c-1.057,-0.029 -1.886,-0.418 -2.487,-1.166c-0.66,-0.719 -0.99,-1.592 -0.99,-2.619l-0.088,0c-1.834,2.523 -4.343,3.785 -7.526,3.785c-3.418,-0.059 -5.971,-1.284 -7.658,-3.675c-1.716,-2.318 -2.575,-5.098 -2.575,-8.34c0,-3.315 0.829,-6.169 2.487,-8.56c1.643,-2.435 4.24,-3.682 7.79,-3.741c3.154,0 5.633,1.277 7.438,3.829l0.088,0l-0,-3.389l3.785,0l-0,18.485Zm-10.717,2.156c1.174,0 2.179,-0.271 3.015,-0.814c0.807,-0.513 1.481,-1.203 2.024,-2.068c1.056,-1.775 1.585,-3.727 1.585,-5.854c-0,-2.376 -0.484,-4.467 -1.453,-6.271c-0.983,-1.834 -2.772,-2.78 -5.369,-2.839c-2.303,0.059 -3.983,0.99 -5.039,2.795c-1.056,1.775 -1.585,3.741 -1.585,5.897c0,2.289 0.529,4.35 1.585,6.184c1.056,1.921 2.802,2.912 5.237,2.97Z" style="fill:rgb(131,133,136);fill-rule:nonzero;"/>
                <path d="M1114,1058.55l-3.504,0l-0,-27.033c-0,-6.046 2.971,-9.127 8.914,-9.242c2.337,-0 4.281,0.577 5.835,1.732c1.553,1.194 2.342,2.895 2.368,5.103c-0.026,3.466 -1.63,5.686 -4.814,6.662l0,0.077c4.018,0.629 6.059,2.978 6.123,7.047c-0.025,2.401 -0.738,4.377 -2.137,5.931c-1.451,1.566 -3.408,2.361 -5.873,2.387c-1.502,0 -2.766,-0.218 -3.793,-0.654c-1.052,-0.45 -2.092,-1.239 -3.119,-2.369l-0,10.359Zm0.058,-17.233c-0,0.925 0.09,1.81 0.269,2.657c0.18,0.809 0.482,1.554 0.905,2.234c0.449,0.667 1.078,1.181 1.887,1.54c0.796,0.424 1.81,0.636 3.042,0.636c1.656,-0 2.946,-0.539 3.871,-1.618c0.885,-1.027 1.328,-2.355 1.328,-3.985c-0.026,-1.939 -0.629,-3.319 -1.81,-4.14c-1.181,-0.757 -2.651,-1.136 -4.409,-1.136c-0.668,0.026 -1.342,0.064 -2.022,0.115l0,-2.965c0.578,0 1.13,-0.013 1.656,-0.038c1.476,-0.026 2.728,-0.43 3.755,-1.213c1.001,-0.771 1.514,-2.009 1.54,-3.716c-0.077,-3.043 -1.694,-4.564 -4.852,-4.564c-1.823,0.026 -3.139,0.565 -3.947,1.618c-0.809,1.078 -1.213,2.535 -1.213,4.37l-0,10.205Z" style="fill:rgb(131,133,136);fill-rule:nonzero;"/>
                <path d="M1124.43,378.389l-4.005,0l0,-30.895c0,-6.91 3.397,-10.43 10.189,-10.563c2.67,0 4.892,0.661 6.667,1.981c1.776,1.364 2.678,3.308 2.707,5.831c-0.029,3.961 -1.863,6.499 -5.501,7.614l-0,0.088c4.592,0.719 6.924,3.404 6.997,8.054c-0.029,2.743 -0.843,5.003 -2.442,6.778c-1.658,1.79 -3.895,2.699 -6.712,2.728c-1.716,0 -3.161,-0.249 -4.335,-0.748c-1.203,-0.513 -2.391,-1.415 -3.565,-2.706l0,11.838Zm0.066,-19.694c0,1.056 0.103,2.068 0.309,3.036c0.205,0.925 0.55,1.776 1.034,2.553c0.513,0.763 1.232,1.35 2.156,1.76c0.91,0.485 2.069,0.727 3.477,0.727c1.893,-0 3.367,-0.617 4.423,-1.849c1.012,-1.173 1.519,-2.692 1.519,-4.555c-0.03,-2.215 -0.719,-3.792 -2.069,-4.731c-1.35,-0.866 -3.029,-1.298 -5.039,-1.298c-0.763,0.029 -1.533,0.073 -2.311,0.132l0,-3.389c0.66,-0 1.291,-0.015 1.893,-0.044c1.687,-0.029 3.117,-0.492 4.291,-1.386c1.144,-0.881 1.731,-2.296 1.76,-4.247c-0.088,-3.477 -1.936,-5.216 -5.545,-5.216c-2.083,0.03 -3.587,0.646 -4.511,1.849c-0.924,1.232 -1.387,2.897 -1.387,4.995l0,11.663Z" style="fill:rgb(131,133,136);fill-rule:nonzero;"/>
                <path d="M902.443,511.669c2.656,-0.088 4.687,-0.91 6.096,-2.465c1.379,-1.599 2.068,-3.66 2.068,-6.183c-0.029,-5.399 -2.75,-8.34 -8.164,-8.824l0,17.472Zm-4.049,3.521c-3.506,-0.059 -6.433,-1.137 -8.78,-3.235c-2.406,-2.083 -3.638,-4.907 -3.697,-8.472c0,-3.844 1.108,-6.924 3.323,-9.242c2.201,-2.348 5.252,-3.536 9.154,-3.565l0,-3.653l4.049,-0l0,3.653c3.947,0.029 7.013,1.217 9.198,3.565c2.172,2.318 3.272,5.398 3.301,9.242c-0.058,3.565 -1.276,6.389 -3.653,8.472c-2.347,2.098 -5.296,3.176 -8.846,3.235l0,3.653l-4.049,-0l0,-3.653Zm0,-20.993c-5.442,0.484 -8.164,3.425 -8.164,8.824c0,2.523 0.727,4.584 2.179,6.183c1.379,1.555 3.374,2.377 5.985,2.465l0,-17.472Z" style="fill:rgb(131,133,136);fill-rule:nonzero;"/>
                <g>
                    <path d="M726.874,584.093l-19.82,0.059l-0.126,-17.109l-6.688,-0l-0,17.05" style="fill:none;stroke:rgb(131,133,136);stroke-width:6.25px;"/>
                    <path d="M721.881,570.113l4.03,4.03l-4.03,4.03" style="fill:none;stroke:rgb(131,133,136);stroke-width:4.23px;stroke-linejoin:miter;stroke-miterlimit:10;"/>
                    <path d="M707.107,574.143l18.804,-0" style="fill:none;stroke:rgb(131,133,136);stroke-width:4.23px;stroke-dasharray:0.04,5.07,0,0;stroke-dashoffset:21.13;"/>
                </g>
                <g>
                    <path d="M1072.97,584.093l19.82,0.059l0.126,-17.109l6.688,-0l-0,17.05" style="fill:none;stroke:rgb(131,133,136);stroke-width:6.25px;"/>
                    <path d="M1077.97,578.173l-4.03,-4.03l4.03,-4.03" style="fill:none;stroke:rgb(131,133,136);stroke-width:4.23px;stroke-linejoin:miter;stroke-miterlimit:10;"/>
                    <path d="M1092.74,574.143l-18.804,-0" style="fill:none;stroke:rgb(131,133,136);stroke-width:4.23px;stroke-dasharray:0.04,5.07,0,0;stroke-dashoffset:21.13;"/>
                </g>
                <path d="M905.073,680.985l-0,-0.375l-7.988,-10.716l13.687,-0l0,-5.017l-22.093,-0l-0,3.344l9.858,12.565l-9.858,12.786l-0,3.322l22.731,0l0,-4.929l-14.435,0l8.098,-10.98Z" style="fill:rgb(131,133,136);fill-rule:nonzero;"/>
                <path d="M788.962,1021.48l-2.894,7.701l-7.264,-0l6.141,4.62l-2.956,7.764l6.973,-5.245l6.993,5.245l-2.976,-7.764l6.14,-4.62l-7.285,-0l-2.872,-7.701Z" style="fill:rgb(131,133,136);fill-rule:nonzero;"/>
                <path d="M1009,1020.12l-3.285,8.743l-8.247,-0l6.971,5.246l-3.355,8.814l7.916,-5.955l7.94,5.955l-3.379,-8.814l6.971,-5.246l-8.271,-0l-3.261,-8.743Zm0,3.166l2.481,6.688l5.742,-0l-4.986,3.757l2.316,6.026l-5.553,-4.159l-5.553,4.159l2.316,-6.026l-4.986,-3.757l5.718,-0l2.505,-6.688Z" style="fill:rgb(131,133,136);fill-rule:nonzero;"/>
                <path d="M894.854,1024.45c-1.496,-0.198 -3.009,-0.528 -4.538,-0.99l-0,-1.98c3.102,0.803 6.354,1.205 9.753,1.205c3.4,-0 6.635,-0.402 9.705,-1.205l-0,2.013c-1.574,0.429 -3.103,0.748 -4.588,0.957l-0,14.128c1.485,0.209 3.014,0.522 4.588,0.941l-0,2.046c-3.07,-0.814 -6.305,-1.221 -9.705,-1.221c-3.399,-0 -6.651,0.407 -9.753,1.221l-0,-1.98c1.529,-0.485 3.042,-0.82 4.538,-1.007l0,-14.128Zm2.047,13.979c2.079,-0.231 4.159,-0.231 6.238,0l0,-13.83c-2.079,0.231 -4.159,0.231 -6.238,-0l-0,13.83Z" style="fill:rgb(131,133,136);fill-rule:nonzero;"/>
                <path d="M967.623,1087.89c-4.385,0.296 -6.232,3.205 -7.214,6.269c-0.863,2.695 -1.83,5.477 -2.883,6.908c-0.585,0.793 -1.235,1.2 -1.868,1.2c-0.629,0 -1.089,-0.331 -1.384,-0.954c-0.449,-0.947 -0.438,-2.803 -0.319,-4.66c0.094,-1.458 0.237,-2.916 0.174,-3.849c-0.009,-0.135 -0.037,-0.288 -0.062,-0.401c-0.054,0.028 -0.108,0.066 -0.164,0.108c-0.207,0.156 -0.411,0.382 -0.619,0.65c-0.719,0.934 -1.43,2.348 -2.102,3.576c-0.573,1.048 -1.131,1.965 -1.629,2.426c-0.338,0.313 -0.68,0.453 -0.988,0.453c-0.581,-0 -0.999,-0.354 -1.16,-1.094c-0.206,-0.944 0.081,-2.799 0.419,-4.651c0.267,-1.467 0.555,-2.933 0.566,-3.872c0.001,-0.12 -0.013,-0.254 -0.027,-0.359c-0.08,0.047 -0.16,0.117 -0.245,0.196c-0.259,0.239 -0.518,0.585 -0.779,0.998c-0.87,1.375 -1.735,3.457 -2.525,5.266c-0.65,1.489 -1.258,2.799 -1.768,3.453c-0.367,0.471 -0.758,0.66 -1.065,0.66c-0.58,-0 -0.978,-0.301 -1.207,-0.864c-0.313,-0.771 -0.197,-2.284 0.026,-3.796c0.138,-0.939 0.303,-1.878 0.373,-2.6c0.017,-0.178 0.019,-0.377 0.017,-0.539c-0.052,0.025 -0.108,0.054 -0.167,0.084c-0.479,0.241 -1.095,0.631 -1.795,1.062c-1.226,0.756 -2.696,1.621 -4.153,2.133c-0.297,1.175 -0.775,2.291 -1.406,3.162c-0.839,1.157 -1.946,1.886 -3.232,1.886c-1.134,0 -1.838,-0.575 -2.285,-1.392c-0.378,-0.688 -0.554,-1.57 -0.661,-2.357c-0.048,-0.355 -0.113,-0.778 -0.159,-1.068c-0.232,0.1 -0.544,0.238 -0.824,0.371c-0.495,0.234 -1.071,0.493 -1.69,0.703c-0.261,1.227 -0.709,2.397 -1.311,3.304c-0.794,1.196 -1.857,1.943 -3.081,1.943c-1.09,-0 -1.803,-0.606 -2.265,-1.489c-0.383,-0.734 -0.579,-1.675 -0.7,-2.513c-0.052,-0.358 -0.091,-0.695 -0.129,-0.982c-0.148,0.171 -0.306,0.372 -0.474,0.585c-0.498,0.629 -1.08,1.347 -1.731,1.825c-0.517,0.379 -1.08,0.613 -1.676,0.613c-1.073,0 -1.91,-0.522 -2.521,-1.427c-0.503,-0.745 -0.846,-1.776 -1.037,-2.967c-0.877,0.64 -1.85,1.195 -2.802,1.701c-0.004,0.125 -0.012,0.249 -0.024,0.372c-0.128,1.326 -0.762,2.779 -1.573,3.73c-0.627,0.734 -1.372,1.164 -2.07,1.164c-0.364,-0 -0.788,-0.142 -1.16,-0.414c-0.531,-0.387 -0.949,-1.031 -0.949,-1.796c-0,-0.771 0.582,-1.515 1.615,-2.195c0.772,-0.508 1.812,-1.014 2.914,-1.579c-0.068,-0.747 -0.294,-1.467 -0.658,-1.991c-0.273,-0.393 -0.623,-0.675 -1.064,-0.675c-1.367,0 -2.275,0.793 -2.926,1.794c-0.73,1.122 -1.15,2.506 -1.469,3.542c-0.222,0.72 -0.412,1.292 -0.593,1.573c-0.22,0.341 -0.497,0.449 -0.732,0.449c-0.126,0 -0.26,-0.033 -0.392,-0.132c-0.082,-0.061 -0.224,-0.217 -0.319,-0.511c-0.147,-0.459 -0.328,-1.594 -0.476,-3.115c-0.586,0.938 -1.163,1.794 -1.704,2.526c-0.861,1.165 -1.645,2.022 -2.239,2.436c-0.371,0.259 -0.705,0.367 -0.968,0.367c-1.145,0 -1.788,-0.804 -1.986,-2.151c-0.224,-1.522 0.134,-3.826 0.481,-5.829c0.177,-1.017 0.347,-1.952 0.421,-2.651c0.02,-0.188 0.023,-0.399 0.021,-0.557c-0.528,0.044 -1.104,0.169 -1.688,0.296c-0.389,2.129 -1.582,4.679 -3.14,6.52c-1.315,1.555 -2.897,2.589 -4.447,2.589c-1.877,0 -3.235,-0.733 -4.159,-1.858c-1.166,0.976 -2.459,1.584 -3.744,1.584c-1.358,-0 -2.486,-1.032 -3.267,-2.806c-0.257,-0.584 -0.48,-1.251 -0.669,-1.979c-0.606,1.224 -1.219,2.337 -1.812,3.27c-0.707,1.113 -1.393,1.976 -2.004,2.492c-0.522,0.441 -1.022,0.646 -1.45,0.646c-0.93,-0 -1.588,-0.632 -1.955,-1.765c-0.415,-1.284 -0.469,-3.29 -0.448,-5.296c0.02,-1.899 0.103,-3.799 -0.056,-5.014c-0.036,-0.274 -0.082,-0.508 -0.151,-0.688c-0.011,-0.03 -0.029,-0.064 -0.045,-0.093c-0.039,0.025 -0.076,0.067 -0.12,0.109c-0.17,0.162 -0.335,0.399 -0.503,0.686c-0.592,1.012 -1.172,2.594 -1.743,4.175c-0.703,1.944 -1.398,3.885 -2.06,4.876c-0.428,0.639 -0.913,0.929 -1.327,0.929c-0.475,0 -0.885,-0.292 -1.118,-0.932c-0.298,-0.819 -0.317,-2.425 -0.306,-4.031c0.009,-1.26 0.029,-2.52 -0.119,-3.326c-0.024,-0.134 -0.079,-0.292 -0.114,-0.386c-0.282,0.061 -0.517,0.304 -0.759,0.612c-0.602,0.765 -1.125,1.964 -1.679,3.158c-0.605,1.304 -1.245,2.601 -2.004,3.435c-0.612,0.672 -1.309,1.062 -2.096,1.062c-1.256,-0 -1.932,-0.89 -2.089,-2.461c-0.179,-1.8 0.33,-4.614 0.82,-7.428c0.176,-1.01 0.35,-2.02 0.483,-2.977c-0.226,0.044 -0.461,0.067 -0.706,0.067c-2.558,-0 -3.341,-2.394 -2.858,-4.351c0.335,-1.356 1.287,-2.416 2.508,-2.416c1.399,-0 2.153,0.892 2.412,2.418c0.094,0.549 0.118,1.192 0.092,1.9c0.086,-0.118 0.167,-0.242 0.243,-0.371c0.621,-1.056 0.947,-2.466 0.99,-3.874c0.042,-1.405 -0.198,-2.812 -0.743,-3.866c-0.476,-0.919 -1.189,-1.562 -2.187,-1.562c-1.669,-0 -3.059,0.996 -4.133,2.551c-1.739,2.517 -2.649,6.469 -2.505,10.477c0.185,5.164 1.295,10.426 0.689,13.118c-0.193,0.857 -0.557,1.488 -1.092,1.869c-0.379,0.269 -0.849,0.423 -1.434,0.423c-1.01,0 -1.887,-0.622 -2.608,-1.642c-0.916,-1.295 -1.603,-3.25 -2.153,-4.954c-0.346,-1.071 -0.635,-2.036 -0.905,-2.636c-0.011,-0.024 -0.023,-0.049 -0.035,-0.074l-0.031,0.044c-0.323,0.483 -0.685,1.261 -1.083,2.123c-0.75,1.626 -1.618,3.531 -2.513,4.531c-0.511,0.572 -1.06,0.871 -1.583,0.871c-0.615,-0 -1.146,-0.419 -1.46,-1.321c-0.484,-1.392 -0.531,-4.184 -0.497,-7.347c0.041,-3.908 0.186,-8.402 -0.39,-11.372c-0.176,-0.906 -0.414,-1.662 -0.762,-2.187c-0.259,-0.389 -0.578,-0.634 -1.006,-0.634c-0.738,0 -1.252,0.636 -1.667,1.487c-0.764,1.571 -1.089,3.921 -1.052,5.847c0.061,3.193 1.141,5.223 1.141,5.223c0.161,0.299 0.049,0.672 -0.249,0.832c-0.299,0.161 -0.672,0.049 -0.833,-0.249c0,-0 -1.22,-2.244 -1.288,-5.782c-0.041,-2.113 0.338,-4.686 1.177,-6.409c0.654,-1.344 1.607,-2.178 2.771,-2.178c1.302,0 2.226,1.027 2.74,2.823c0.639,2.237 0.714,5.732 0.687,9.227c-0.032,3.943 -0.197,7.887 0.271,9.898c0.066,0.287 0.144,0.528 0.244,0.712c0.055,0.101 0.084,0.201 0.173,0.201c0.128,0 0.246,-0.077 0.372,-0.177c0.211,-0.166 0.415,-0.408 0.621,-0.695c0.71,-0.996 1.383,-2.506 1.987,-3.816c0.51,-1.104 0.981,-2.075 1.375,-2.561c0.315,-0.389 0.654,-0.537 0.92,-0.537c0.247,0 0.544,0.121 0.796,0.477c0.253,0.358 0.532,1.087 0.831,2.004c0.537,1.641 1.191,3.942 2.142,5.518c0.52,0.862 1.095,1.525 1.867,1.525c0.592,-0 0.954,-0.298 1.165,-0.808c0.186,-0.45 0.274,-1.03 0.307,-1.709c0.139,-2.843 -0.707,-7.267 -0.863,-11.621c-0.154,-4.296 0.859,-8.522 2.722,-11.219c1.326,-1.92 3.083,-3.082 5.144,-3.082c1.193,-0 2.142,0.572 2.835,1.51c0.93,1.258 1.382,3.218 1.323,5.184c-0.059,1.961 -0.626,3.915 -1.651,5.17c-0.286,0.35 -0.606,0.648 -0.959,0.883c-0.138,1.181 -0.35,2.453 -0.571,3.725c-0.468,2.688 -0.979,5.375 -0.808,7.096c0.078,0.781 0.241,1.353 0.866,1.353c0.597,0 1.06,-0.447 1.499,-1.044c0.55,-0.747 1.024,-1.745 1.486,-2.741c0.598,-1.289 1.179,-2.575 1.828,-3.401c0.554,-0.704 1.182,-1.095 1.862,-1.095c0.453,-0 0.862,0.291 1.075,0.954c0.262,0.815 0.261,2.412 0.25,4.009c-0.008,1.254 -0.018,2.508 0.152,3.31c0.023,0.112 0.071,0.242 0.109,0.335c0.01,-0.009 0.019,-0.018 0.027,-0.026c0.153,-0.164 0.303,-0.402 0.459,-0.692c0.547,-1.017 1.105,-2.606 1.68,-4.195c0.706,-1.954 1.442,-3.903 2.177,-4.899c0.453,-0.614 0.957,-0.906 1.415,-0.906c0.475,0 0.882,0.279 1.122,0.907c0.307,0.805 0.343,2.42 0.317,4.25c-0.031,2.177 -0.129,4.682 0.234,6.336c0.084,0.382 0.19,0.714 0.338,0.972c0.14,0.245 0.312,0.415 0.573,0.415c0.201,-0 0.411,-0.148 0.657,-0.356c0.54,-0.456 1.135,-1.228 1.76,-2.212c0.798,-1.256 1.633,-2.847 2.437,-4.597c-0.279,-1.727 -0.412,-3.65 -0.401,-5.573c0.008,-1.439 0.097,-2.877 0.261,-4.234c-3.47,0.193 -5.197,0.495 -5.197,0.495c-0.267,0.046 -0.522,-0.133 -0.569,-0.4c-0.047,-0.267 0.132,-0.522 0.399,-0.569c0,0 1.829,-0.321 5.503,-0.518c0.341,-2.218 0.893,-4.144 1.631,-5.385c0.669,-1.125 1.512,-1.726 2.435,-1.726c0.792,0 1.345,0.489 1.58,1.468c0.242,1.011 0.115,2.679 -0.307,4.689c-0.055,0.263 -0.115,0.532 -0.18,0.807c2.33,-0.015 5.042,0.032 8.14,0.183c0.27,0.013 0.48,0.244 0.467,0.515c-0.014,0.271 -0.244,0.48 -0.515,0.467c-3.192,-0.155 -5.97,-0.2 -8.337,-0.181c-0.829,3.168 -2.175,6.888 -3.64,10.13c0.223,1.256 0.533,2.387 0.936,3.302c0.54,1.228 1.202,2.072 2.142,2.072c1.063,-0 2.112,-0.557 3.067,-1.39c-0.882,-1.696 -1.089,-3.883 -0.802,-5.843c0.227,-1.552 0.762,-2.943 1.468,-3.812c0.566,-0.696 1.249,-1.077 1.975,-1.077c0.784,-0 1.366,0.249 1.784,0.655c0.584,0.566 0.855,1.485 0.794,2.611c-0.123,2.25 -1.564,5.408 -3.565,7.569l-0.086,0.09c0.72,0.893 1.78,1.471 3.268,1.471c1.05,0 2.085,-0.661 3.019,-1.615c1.523,-1.553 2.753,-3.904 3.248,-5.948l0.014,-0.061c-0.306,0.046 -0.605,0.074 -0.892,0.074c-1.945,0 -2.706,-1.712 -2.397,-3.093c0.217,-0.966 0.94,-1.753 2.094,-1.753c0.782,-0 1.368,0.252 1.793,0.667c0.579,0.564 0.865,1.475 0.843,2.591c0.677,-0.147 1.34,-0.283 1.925,-0.283c0.319,-0 0.576,0.145 0.737,0.481c0.089,0.188 0.145,0.503 0.131,0.923c-0.026,0.742 -0.241,1.935 -0.471,3.259c-0.324,1.87 -0.685,4.019 -0.476,5.44c0.091,0.619 0.245,1.101 0.77,1.101c0.032,0 0.063,-0.024 0.103,-0.045c0.112,-0.059 0.234,-0.147 0.368,-0.259c0.492,-0.413 1.09,-1.111 1.748,-2.001c0.793,-1.071 1.665,-2.416 2.528,-3.896c-0.262,-4.332 -0.181,-10.219 1.063,-13.477c0.667,-1.748 1.7,-2.771 3.038,-2.771c0.64,-0 1.131,0.19 1.5,0.51c0.359,0.312 0.61,0.76 0.738,1.334c0.207,0.929 0.084,2.241 -0.304,3.771c-0.81,3.19 -2.759,7.395 -4.785,10.921c0.009,0.137 0.018,0.271 0.028,0.402c0.074,1.027 0.166,1.936 0.262,2.66c0.344,-1.112 0.809,-2.548 1.575,-3.725c0.873,-1.343 2.123,-2.353 3.956,-2.353c0.84,0 1.554,0.455 2.073,1.203c0.39,0.562 0.667,1.298 0.803,2.083c0.964,-0.528 1.921,-1.117 2.742,-1.806c-0.014,-0.234 -0.023,-0.471 -0.027,-0.71c-0.06,-3.528 0.89,-7.668 2.371,-9.837c0.749,-1.097 1.654,-1.71 2.601,-1.71c0.549,0 0.966,0.176 1.275,0.464c0.414,0.388 0.644,1.022 0.633,1.854c-0.033,2.518 -2.327,7.192 -5.377,10.252c-0.067,0.067 -0.136,0.134 -0.206,0.199c0.1,1.03 0.309,1.957 0.651,2.686c0.392,0.837 0.957,1.399 1.79,1.399c0.443,0 0.837,-0.258 1.205,-0.582c0.461,-0.404 0.872,-0.927 1.238,-1.39c0.404,-0.509 0.767,-0.952 1.072,-1.176c0.244,-0.179 0.481,-0.255 0.691,-0.255c0.211,0 0.422,0.081 0.588,0.313c0.062,0.088 0.127,0.219 0.175,0.396c0.061,0.226 0.11,0.573 0.162,0.987c0.094,0.743 0.206,1.736 0.532,2.541c0.247,0.612 0.615,1.127 1.312,1.127c0.835,-0 1.516,-0.577 2.057,-1.393c0.426,-0.642 0.76,-1.434 0.992,-2.281c-0.307,0.05 -0.617,0.079 -0.925,0.079c-3.119,-0 -4.289,-2.793 -3.862,-5.049c0.299,-1.578 1.373,-2.847 3,-2.847c2.144,0 3.282,2.052 3.384,4.635c0.018,0.473 0.004,0.963 -0.043,1.454c0.538,-0.22 1.025,-0.464 1.42,-0.653c0.551,-0.262 0.983,-0.415 1.21,-0.415c0.262,0 0.512,0.114 0.688,0.426c0.12,0.212 0.209,0.641 0.277,1.185c0.085,0.683 0.169,1.595 0.477,2.334c0.235,0.563 0.615,1.022 1.336,1.022c0.903,-0 1.648,-0.567 2.237,-1.379c0.426,-0.588 0.77,-1.305 1.022,-2.075c-0.311,0.053 -0.617,0.082 -0.916,0.082c-3.1,-0 -4.346,-2.798 -3.86,-5.051c0.334,-1.551 1.469,-2.824 3.319,-2.824c2.067,-0 3.154,2.019 3.187,4.565c0.006,0.476 -0.023,0.967 -0.086,1.462c1.144,-0.487 2.274,-1.181 3.243,-1.779c0.867,-0.534 1.615,-1.003 2.149,-1.238c0.32,-0.141 0.59,-0.205 0.792,-0.205c0.402,0 0.747,0.228 0.865,0.806c0.104,0.509 -0.016,1.532 -0.194,2.688c-0.204,1.317 -0.469,2.83 -0.381,3.831c0.014,0.159 0.036,0.302 0.075,0.424c0.016,0.05 0.019,0.105 0.04,0.137c0.043,-0.041 0.104,-0.103 0.147,-0.159c0.124,-0.159 0.254,-0.365 0.39,-0.607c0.566,-1.008 1.216,-2.583 1.908,-4.158c0.847,-1.929 1.765,-3.852 2.651,-4.836c0.511,-0.567 1.046,-0.85 1.54,-0.85c0.361,0 0.638,0.162 0.829,0.486c0.143,0.244 0.23,0.65 0.224,1.18c-0.011,0.989 -0.304,2.534 -0.586,4.079c-0.264,1.451 -0.521,2.901 -0.468,3.83c0.008,0.139 0.045,0.3 0.072,0.405c0.029,-0.021 0.059,-0.044 0.082,-0.065c0.109,-0.101 0.22,-0.232 0.334,-0.385c0.509,-0.679 1.059,-1.742 1.633,-2.803c0.615,-1.135 1.258,-2.266 1.897,-2.992c0.552,-0.629 1.138,-0.965 1.681,-0.965c0.422,-0 0.788,0.243 0.967,0.829c0.192,0.629 0.152,1.891 0.053,3.32c-0.115,1.666 -0.292,3.582 -0.086,4.848c0.045,0.276 0.106,0.516 0.201,0.702c0.063,0.123 0.131,0.222 0.26,0.222c0.178,0 0.338,-0.114 0.508,-0.273c0.263,-0.247 0.515,-0.606 0.765,-1.042c0.838,-1.463 1.602,-3.734 2.308,-5.939c1.149,-3.587 3.368,-6.946 8.65,-7.139l0.07,-0.328c0.031,-0.146 0.175,-0.24 0.321,-0.208l0.328,0.069c0.147,0.032 0.24,0.176 0.209,0.322l-0.058,0.272c0.003,0.002 0.006,0.005 0.009,0.007l0.256,0.051l0.061,-0.286c0.043,-0.202 0.242,-0.331 0.443,-0.288l0.46,0.098c0.202,0.043 0.33,0.242 0.287,0.444l-0.057,0.267l0.244,0.048l0.053,-0.271c0.047,-0.234 0.271,-0.389 0.507,-0.348l4.149,0.714c0.244,0.041 0.405,0.276 0.357,0.518l-0.012,0.065l0.029,0.006c0.122,0.024 0.212,0.121 0.232,0.237l3.66,0.721c0.168,0.033 0.301,0.144 0.368,0.287l1.243,0.148l0.348,0.462l-0.081,0.409l-0.496,0.295l-1.204,-0.337c-0.117,0.109 -0.283,0.162 -0.452,0.128l-3.661,-0.721c-0.062,0.1 -0.182,0.156 -0.304,0.132l-0.029,-0.006l-0.013,0.065c-0.048,0.243 -0.286,0.398 -0.527,0.345l-4.111,-0.914c-0.233,-0.052 -0.382,-0.28 -0.336,-0.514l0.053,-0.271l-0.261,-0.052l-0.061,0.286c-0.043,0.202 -0.242,0.331 -0.444,0.288l-0.459,-0.098c-0.202,-0.043 -0.331,-0.242 -0.288,-0.444l0.057,-0.267l-0.266,-0.053l-0.062,0.291c-0.031,0.146 -0.175,0.24 -0.322,0.209l-0.327,-0.07c-0.147,-0.031 -0.24,-0.176 -0.209,-0.322l0.03,-0.141Zm-61.84,10.381c-0.464,0.238 -0.907,0.468 -1.315,0.694c-0.607,0.335 -1.128,0.657 -1.495,0.993c-0.247,0.226 -0.43,0.437 -0.43,0.689c0,0.346 0.206,0.629 0.446,0.804c0.142,0.104 0.296,0.177 0.435,0.177c0.397,-0 0.779,-0.315 1.136,-0.733c0.577,-0.677 1.043,-1.664 1.223,-2.624Zm-27.743,-0.716c1.308,-1.472 2.341,-3.401 2.815,-5.11c0.232,-0.839 0.332,-1.621 0.242,-2.258c-0.053,-0.38 -0.171,-0.702 -0.397,-0.922c-0.215,-0.209 -0.525,-0.309 -0.929,-0.309c-0.386,0 -0.72,0.254 -1.021,0.624c-0.594,0.73 -1.015,1.91 -1.206,3.215c-0.23,1.569 -0.128,3.348 0.496,4.76Zm45.704,-1.515c0.089,-0.617 0.123,-1.239 0.1,-1.832c-0.039,-0.986 -0.235,-1.894 -0.64,-2.551c-0.338,-0.549 -0.832,-0.903 -1.516,-0.903c-1.013,-0 -1.606,0.864 -1.792,1.847c-0.3,1.584 0.463,3.591 2.654,3.591c0.4,0 0.802,-0.058 1.194,-0.152Zm10.286,-1.296c0.118,-0.639 0.175,-1.284 0.167,-1.897c-0.012,-0.962 -0.181,-1.846 -0.555,-2.487c-0.307,-0.525 -0.764,-0.866 -1.403,-0.866c-1.195,0 -1.902,0.853 -2.118,1.855c-0.34,1.575 0.491,3.563 2.659,3.563c0.406,-0 0.825,-0.062 1.25,-0.168Zm-35.844,-1.071c1.609,-3.014 3.049,-6.304 3.709,-8.903c0.33,-1.299 0.471,-2.411 0.295,-3.2c-0.063,-0.285 -0.165,-0.519 -0.344,-0.674c-0.169,-0.147 -0.401,-0.209 -0.694,-0.209c-0.891,-0 -1.446,0.816 -1.89,1.98c-1.017,2.665 -1.201,7.157 -1.076,11.006Zm12.754,-0.398c2.143,-2.38 3.815,-5.518 4.294,-7.742c0.125,-0.579 0.169,-1.087 0.098,-1.49c-0.035,-0.201 -0.093,-0.369 -0.212,-0.48c-0.103,-0.097 -0.251,-0.133 -0.435,-0.133c-0.368,0 -0.707,0.195 -1.027,0.501c-0.404,0.384 -0.767,0.938 -1.093,1.602c-0.993,2.026 -1.604,5.038 -1.625,7.742Zm-37.59,-8.911c-0.915,0.017 -1.76,0.044 -2.535,0.076c-0.172,1.37 -0.264,2.836 -0.272,4.302c-0.007,1.136 0.037,2.272 0.134,3.363c1.066,-2.571 2.018,-5.31 2.673,-7.741Zm15.098,6.875c0.025,-0.359 0.016,-0.696 -0.033,-1c-0.064,-0.398 -0.191,-0.734 -0.428,-0.964c-0.219,-0.214 -0.531,-0.319 -0.935,-0.319c-0.505,0 -0.8,0.371 -0.895,0.794c-0.157,0.704 0.206,1.596 1.198,1.596c0.349,-0 0.717,-0.043 1.093,-0.107Zm-40.819,-5.215c0.099,-1.05 0.117,-1.996 -0.012,-2.753c-0.14,-0.822 -0.447,-1.395 -1.201,-1.395c-0.695,-0 -1.124,0.71 -1.315,1.482c-0.305,1.234 0.053,2.827 1.665,2.827c0.311,-0 0.598,-0.057 0.863,-0.161Zm25.975,-2.648c0.089,-0.367 0.171,-0.726 0.243,-1.073c0.374,-1.781 0.529,-3.255 0.315,-4.151c-0.071,-0.295 -0.146,-0.525 -0.385,-0.525c-0.332,0 -0.622,0.181 -0.894,0.466c-0.357,0.376 -0.668,0.924 -0.942,1.592c-0.423,1.027 -0.751,2.325 -0.984,3.766c0.809,-0.033 1.691,-0.059 2.647,-0.075Z" style="fill:rgb(131,133,136);"/>
                <path d="M754.449,121.494c0.834,0 1.549,-0.135 2.146,-0.405c0.597,-0.271 1.099,-0.626 1.504,-1.065c0.406,-0.44 0.727,-0.947 0.964,-1.521c0.236,-0.575 0.422,-1.155 0.557,-1.741l0.135,-0.608l4.462,-0l-0.135,0.608c-0.316,1.465 -0.744,2.744 -1.285,3.836c-0.54,1.093 -1.228,2.006 -2.061,2.738c-0.834,0.733 -1.826,1.285 -2.975,1.657c-1.149,0.371 -2.501,0.557 -4.056,0.557c-1.059,0 -2.028,-0.158 -2.907,-0.473c-0.878,-0.315 -1.633,-0.777 -2.264,-1.386c-0.631,-0.608 -1.121,-1.346 -1.47,-2.214c-0.35,-0.867 -0.524,-1.864 -0.524,-2.991c-0,-0.406 0.022,-0.811 0.067,-1.217c0.045,-0.405 0.124,-0.867 0.237,-1.386l1.115,-5.272c0.699,-3.268 1.938,-5.696 3.718,-7.284c1.78,-1.589 4.101,-2.383 6.963,-2.383c1.127,-0 2.135,0.18 3.025,0.541c0.89,0.36 1.645,0.85 2.265,1.47c0.619,0.62 1.093,1.346 1.419,2.18c0.327,0.834 0.491,1.724 0.491,2.67c-0,0.316 -0.023,0.631 -0.068,0.947c-0.045,0.315 -0.101,0.642 -0.169,0.98l-0.135,0.608l-4.462,0l0.135,-0.608c0.135,-0.541 0.203,-1.059 0.203,-1.555c0,-0.879 -0.253,-1.628 -0.76,-2.248c-0.507,-0.619 -1.392,-0.929 -2.654,-0.929c-0.743,-0 -1.419,0.141 -2.028,0.422c-0.608,0.282 -1.138,0.665 -1.588,1.149c-0.451,0.485 -0.828,1.048 -1.133,1.69c-0.304,0.643 -0.535,1.313 -0.693,2.012l-1.25,5.948c-0.068,0.338 -0.124,0.671 -0.169,0.997c-0.045,0.327 -0.068,0.637 -0.068,0.93c0,1.014 0.265,1.825 0.795,2.434c0.529,0.608 1.414,0.912 2.653,0.912Z" style="fill:rgb(131,133,136);fill-rule:nonzero;"/>
                <path d="M782.706,121.055l0.338,0.236l1.622,-1.149l2.13,3.177l-1.995,1.352c-0.878,0.586 -1.802,0.879 -2.771,0.879c-0.857,0 -1.623,-0.236 -2.299,-0.71c-0.676,-0.473 -1.104,-1.138 -1.284,-1.994l-0.608,0c-0.203,0.383 -0.44,0.738 -0.71,1.065c-0.271,0.327 -0.603,0.608 -0.997,0.845c-0.395,0.237 -0.857,0.428 -1.386,0.575c-0.53,0.146 -1.155,0.219 -1.876,0.219c-0.879,0 -1.69,-0.174 -2.434,-0.524c-0.743,-0.349 -1.391,-0.833 -1.943,-1.453c-0.552,-0.62 -0.986,-1.346 -1.301,-2.18c-0.316,-0.834 -0.474,-1.747 -0.474,-2.738c0,-1.51 0.203,-2.918 0.609,-4.225c0.405,-1.307 0.991,-2.451 1.757,-3.431c0.766,-0.98 1.707,-1.752 2.823,-2.315c1.115,-0.563 2.371,-0.845 3.768,-0.845c1.24,-0 2.22,0.248 2.941,0.744c0.721,0.495 1.205,1.149 1.453,1.96l0.609,-0l0.473,-2.231l4.259,0l-2.704,12.743Zm-8.18,0.439c0.811,0 1.532,-0.163 2.163,-0.49c0.631,-0.327 1.155,-0.76 1.572,-1.301c0.417,-0.541 0.738,-1.178 0.963,-1.91c0.226,-0.732 0.338,-1.504 0.338,-2.315c0,-1.059 -0.304,-1.921 -0.912,-2.586c-0.609,-0.665 -1.42,-0.997 -2.434,-0.997c-0.811,-0 -1.532,0.163 -2.163,0.49c-0.631,0.327 -1.161,0.761 -1.589,1.301c-0.428,0.541 -0.755,1.178 -0.98,1.91c-0.225,0.732 -0.338,1.504 -0.338,2.315c0,0.947 0.276,1.781 0.828,2.502c0.552,0.721 1.403,1.081 2.552,1.081Z" style="fill:rgb(131,133,136);fill-rule:nonzero;"/>
                <path d="M798.085,111.692c-0.248,0 -0.502,0.028 -0.761,0.085c-0.259,0.056 -0.501,0.141 -0.726,0.253c-0.226,0.113 -0.412,0.265 -0.558,0.456c-0.147,0.192 -0.22,0.423 -0.22,0.693c0,0.474 0.271,0.823 0.811,1.048c0.541,0.226 1.465,0.417 2.772,0.575c1.465,0.18 2.648,0.625 3.549,1.335c0.901,0.71 1.352,1.729 1.352,3.059c-0,1.983 -0.693,3.538 -2.079,4.664c-1.386,1.127 -3.306,1.69 -5.763,1.69c-1.239,0 -2.304,-0.18 -3.194,-0.541c-0.89,-0.36 -1.622,-0.811 -2.197,-1.352c-0.574,-0.54 -1.008,-1.138 -1.301,-1.791c-0.293,-0.653 -0.451,-1.273 -0.473,-1.859l4.191,-1.014c0.068,0.744 0.383,1.38 0.946,1.91c0.564,0.529 1.42,0.794 2.569,0.794c0.789,0 1.476,-0.124 2.062,-0.372c0.586,-0.248 0.879,-0.687 0.879,-1.318c-0,-0.473 -0.226,-0.851 -0.676,-1.132c-0.451,-0.282 -1.285,-0.479 -2.501,-0.592c-1.623,-0.135 -2.913,-0.597 -3.871,-1.386c-0.957,-0.788 -1.436,-1.836 -1.436,-3.143c-0,-0.946 0.197,-1.791 0.591,-2.535c0.395,-0.744 0.919,-1.363 1.572,-1.859c0.654,-0.496 1.414,-0.873 2.282,-1.132c0.867,-0.259 1.774,-0.389 2.721,-0.389c1.171,-0 2.152,0.158 2.94,0.473c0.789,0.316 1.431,0.71 1.927,1.183c0.496,0.473 0.862,0.986 1.098,1.538c0.237,0.552 0.389,1.065 0.457,1.538l-4.124,1.082c-0.09,-0.609 -0.372,-1.088 -0.845,-1.437c-0.473,-0.349 -1.138,-0.524 -1.994,-0.524Z" style="fill:rgb(131,133,136);fill-rule:nonzero;"/>
                <path d="M815.255,112.368l-4.732,0l0,-4.056l5.611,0l1.555,-7.368l4.259,-0l-1.555,7.368l5.813,0l0,4.056l-6.692,0l-1.893,8.687l0.338,0.236l4.529,-3.109l2.13,3.177l-4.901,3.312c-0.856,0.586 -1.769,0.879 -2.738,0.879c-0.496,0 -0.969,-0.084 -1.42,-0.253c-0.45,-0.169 -0.845,-0.412 -1.183,-0.727c-0.338,-0.315 -0.608,-0.699 -0.811,-1.149c-0.203,-0.451 -0.304,-0.958 -0.304,-1.521c0,-0.18 0.011,-0.344 0.034,-0.49c0.022,-0.147 0.056,-0.344 0.101,-0.592l1.859,-8.45Z" style="fill:rgb(131,133,136);fill-rule:nonzero;"/>
                <path d="M847.433,114.599c-0,1.577 -0.225,3.036 -0.676,4.377c-0.451,1.341 -1.116,2.496 -1.994,3.465c-0.879,0.969 -1.978,1.729 -3.296,2.281c-1.318,0.552 -2.845,0.828 -4.58,0.828c-0.991,0 -1.921,-0.146 -2.788,-0.439c-0.868,-0.293 -1.628,-0.727 -2.282,-1.301c-0.653,-0.575 -1.171,-1.279 -1.555,-2.113c-0.383,-0.834 -0.574,-1.78 -0.574,-2.839c-0,-1.735 0.27,-3.284 0.811,-4.648c0.541,-1.363 1.279,-2.518 2.214,-3.464c0.935,-0.947 2.039,-1.668 3.312,-2.163c1.273,-0.496 2.642,-0.744 4.107,-0.744c1.059,-0 2.039,0.163 2.941,0.49c0.901,0.327 1.673,0.783 2.315,1.369c0.642,0.586 1.144,1.296 1.504,2.129c0.361,0.834 0.541,1.758 0.541,2.772Zm-9.904,6.963c0.812,-0.023 1.561,-0.203 2.248,-0.541c0.687,-0.338 1.273,-0.783 1.758,-1.335c0.484,-0.552 0.862,-1.2 1.132,-1.944c0.27,-0.743 0.406,-1.532 0.406,-2.366c-0,-1.171 -0.316,-2.056 -0.947,-2.653c-0.631,-0.597 -1.476,-0.896 -2.535,-0.896c-0.811,0 -1.555,0.175 -2.231,0.524c-0.676,0.35 -1.261,0.811 -1.757,1.386c-0.496,0.575 -0.879,1.234 -1.149,1.977c-0.271,0.744 -0.406,1.521 -0.406,2.333c0,1.149 0.316,2.022 0.946,2.619c0.631,0.597 1.476,0.896 2.535,0.896Z" style="fill:rgb(131,133,136);fill-rule:nonzero;"/>
                <path d="M855.274,112.301l-0.338,-0.203l-2.67,1.96l-2.264,-3.042l2.704,-2.028c0.518,-0.383 1.064,-0.67 1.639,-0.862c0.575,-0.191 1.121,-0.287 1.639,-0.287c0.902,-0 1.69,0.248 2.366,0.744c0.676,0.495 1.082,1.194 1.217,2.095l0.609,0c0.45,-0.946 1.081,-1.656 1.892,-2.129c0.812,-0.473 1.724,-0.71 2.738,-0.71c1.285,-0 2.327,0.4 3.127,1.2c0.8,0.8 1.2,1.91 1.2,3.329c-0,0.293 -0.017,0.58 -0.051,0.862c-0.034,0.282 -0.096,0.625 -0.186,1.031l-0.169,0.744l-4.529,0.338l0.101,-0.474c0.068,-0.338 0.102,-0.642 0.102,-0.912c-0,-0.654 -0.181,-1.172 -0.541,-1.555c-0.361,-0.383 -0.902,-0.575 -1.623,-0.575c-0.901,0 -1.616,0.305 -2.146,0.913c-0.53,0.608 -0.918,1.476 -1.166,2.603l-1.217,5.678l4.056,0l0,4.056l-11.56,0l0,-4.056l3.245,0l1.825,-8.72Z" style="fill:rgb(131,133,136);fill-rule:nonzero;"/>
                <path d="M902.628,115.14l-3.549,-0c-0.518,-0 -1.014,0.084 -1.487,0.253c-0.473,0.169 -0.89,0.406 -1.25,0.71c-0.361,0.304 -0.648,0.676 -0.862,1.115c-0.214,0.44 -0.321,0.941 -0.321,1.505c-0,0.788 0.253,1.368 0.76,1.74c0.507,0.372 1.155,0.558 1.944,0.558l3.515,0l1.25,-5.881Zm5.713,-6.828l-0.609,2.772l2.704,-0l0,4.259l-3.616,-0l-2.062,9.734l-8.18,0c-1.802,0 -3.233,-0.456 -4.292,-1.369c-1.059,-0.912 -1.589,-2.146 -1.589,-3.701c-0,-1.667 0.479,-3.081 1.436,-4.242c0.958,-1.16 2.282,-1.91 3.972,-2.248l-0,-0.608c-0.811,-0.338 -1.527,-0.839 -2.146,-1.504c-0.62,-0.665 -0.93,-1.606 -0.93,-2.822c0,-1.037 0.186,-1.989 0.558,-2.857c0.372,-0.867 0.907,-1.622 1.605,-2.264c0.699,-0.642 1.555,-1.144 2.569,-1.504c1.014,-0.361 2.175,-0.541 3.482,-0.541l3.515,-0l-0,4.056l-3.651,-0c-0.518,-0 -1.008,0.068 -1.47,0.203c-0.462,0.135 -0.873,0.343 -1.234,0.625c-0.36,0.282 -0.642,0.642 -0.845,1.082c-0.202,0.439 -0.304,0.952 -0.304,1.538c0,0.743 0.265,1.29 0.794,1.639c0.53,0.349 1.189,0.524 1.978,0.524l3.447,-0l0.609,-2.772l4.259,0Z" style="fill:rgb(131,133,136);fill-rule:nonzero;"/>
                <path d="M938.321,116.154l-1.893,8.923l-4.427,0l5.002,-23.66l8.45,-0c0.992,-0 1.887,0.158 2.687,0.473c0.8,0.316 1.482,0.755 2.045,1.318c0.563,0.564 0.997,1.228 1.301,1.995c0.305,0.766 0.457,1.599 0.457,2.501c-0,1.262 -0.214,2.411 -0.642,3.447c-0.429,1.037 -1.037,1.927 -1.826,2.671c-0.788,0.743 -1.735,1.318 -2.839,1.723c-1.104,0.406 -2.332,0.609 -3.684,0.609l-4.631,-0Zm0.913,-4.259l4.123,-0c1.15,-0 2.107,-0.338 2.873,-1.014c0.767,-0.676 1.15,-1.555 1.15,-2.636c-0,-0.834 -0.265,-1.471 -0.795,-1.91c-0.529,-0.44 -1.222,-0.659 -2.078,-0.659l-3.955,-0l-1.318,6.219Z" style="fill:rgb(131,133,136);fill-rule:nonzero;"/>
                <path d="M971.547,114.599c-0,1.577 -0.226,3.036 -0.676,4.377c-0.451,1.341 -1.116,2.496 -1.994,3.465c-0.879,0.969 -1.978,1.729 -3.296,2.281c-1.318,0.552 -2.845,0.828 -4.58,0.828c-0.991,0 -1.921,-0.146 -2.788,-0.439c-0.868,-0.293 -1.628,-0.727 -2.282,-1.301c-0.653,-0.575 -1.172,-1.279 -1.555,-2.113c-0.383,-0.834 -0.574,-1.78 -0.574,-2.839c-0,-1.735 0.27,-3.284 0.811,-4.648c0.541,-1.363 1.279,-2.518 2.214,-3.464c0.935,-0.947 2.039,-1.668 3.312,-2.163c1.273,-0.496 2.642,-0.744 4.107,-0.744c1.059,-0 2.039,0.163 2.941,0.49c0.901,0.327 1.673,0.783 2.315,1.369c0.642,0.586 1.143,1.296 1.504,2.129c0.36,0.834 0.541,1.758 0.541,2.772Zm-9.904,6.963c0.812,-0.023 1.561,-0.203 2.248,-0.541c0.687,-0.338 1.273,-0.783 1.758,-1.335c0.484,-0.552 0.862,-1.2 1.132,-1.944c0.27,-0.743 0.406,-1.532 0.406,-2.366c-0,-1.171 -0.316,-2.056 -0.947,-2.653c-0.631,-0.597 -1.476,-0.896 -2.535,-0.896c-0.811,0 -1.555,0.175 -2.231,0.524c-0.676,0.35 -1.262,0.811 -1.757,1.386c-0.496,0.575 -0.879,1.234 -1.149,1.977c-0.271,0.744 -0.406,1.521 -0.406,2.333c-0,1.149 0.315,2.022 0.946,2.619c0.631,0.597 1.476,0.896 2.535,0.896Z" style="fill:rgb(131,133,136);fill-rule:nonzero;"/>
                <path d="M985.979,124.671c-0.45,0.316 -0.912,0.541 -1.385,0.676c-0.474,0.136 -0.936,0.203 -1.386,0.203c-0.496,0 -0.969,-0.084 -1.42,-0.253c-0.45,-0.169 -0.845,-0.406 -1.183,-0.71c-0.338,-0.304 -0.603,-0.676 -0.794,-1.115c-0.192,-0.44 -0.287,-0.93 -0.287,-1.471c-0,-0.405 0.045,-0.8 0.135,-1.183l3.684,-15.379l-0.338,-0.236l-4.529,3.109l-2.13,-3.177l4.901,-3.312c0.451,-0.316 0.913,-0.541 1.386,-0.676c0.473,-0.136 0.935,-0.203 1.386,-0.203c0.496,-0 0.969,0.084 1.42,0.253c0.45,0.169 0.845,0.406 1.183,0.71c0.338,0.304 0.602,0.676 0.794,1.115c0.191,0.44 0.287,0.93 0.287,1.471c0,0.36 -0.045,0.755 -0.135,1.183l-3.684,15.379l0.338,0.236l4.529,-3.109l2.129,3.177l-4.901,3.312Z" style="fill:rgb(131,133,136);fill-rule:nonzero;"/>
                <path d="M1006.67,124.671c-0.451,0.316 -0.913,0.541 -1.386,0.676c-0.473,0.136 -0.935,0.203 -1.386,0.203c-0.495,0 -0.969,-0.084 -1.419,-0.253c-0.451,-0.169 -0.845,-0.406 -1.183,-0.71c-0.338,-0.304 -0.603,-0.676 -0.794,-1.115c-0.192,-0.44 -0.288,-0.93 -0.288,-1.471c0,-0.405 0.045,-0.8 0.135,-1.183l3.685,-15.379l-0.338,-0.236l-4.53,3.109l-2.129,-3.177l4.901,-3.312c0.451,-0.316 0.913,-0.541 1.386,-0.676c0.473,-0.136 0.935,-0.203 1.386,-0.203c0.495,-0 0.969,0.084 1.419,0.253c0.451,0.169 0.845,0.406 1.183,0.71c0.338,0.304 0.603,0.676 0.795,1.115c0.191,0.44 0.287,0.93 0.287,1.471c-0,0.36 -0.045,0.755 -0.135,1.183l-3.685,15.379l0.338,0.236l4.53,-3.109l2.129,3.177l-4.901,3.312Z" style="fill:rgb(131,133,136);fill-rule:nonzero;"/>
                <path d="M1022.28,108.312l-2.096,9.735c-0.09,0.383 -0.135,0.754 -0.135,1.115c-0,0.856 0.236,1.493 0.71,1.91c0.473,0.417 1.104,0.625 1.892,0.625c1.195,0 2.113,-0.389 2.755,-1.166c0.642,-0.778 1.121,-1.876 1.437,-3.296l1.892,-8.923l4.259,0l-2.771,12.777l0.371,0.202l1.217,-0.878l2.13,3.109l-1.589,1.149c-0.428,0.316 -0.873,0.541 -1.335,0.676c-0.462,0.136 -0.918,0.203 -1.369,0.203c-0.924,0 -1.735,-0.265 -2.434,-0.794c-0.698,-0.53 -1.092,-1.301 -1.183,-2.315l-0.608,-0c-0.496,1.149 -1.166,1.954 -2.011,2.416c-0.845,0.462 -1.797,0.693 -2.856,0.693c-1.465,0 -2.659,-0.445 -3.583,-1.335c-0.924,-0.89 -1.386,-2.135 -1.386,-3.735c0,-0.563 0.068,-1.172 0.203,-1.825l2.231,-10.343l4.259,0Z" style="fill:rgb(131,133,136);fill-rule:nonzero;"/>
                <path d="M1047.77,117.134l1.758,4.157l0.405,0l1.318,-2.433l3.38,1.757l-1.081,2.164c-0.902,1.847 -2.31,2.771 -4.225,2.771c-0.947,0 -1.718,-0.214 -2.316,-0.642c-0.597,-0.428 -1.087,-1.115 -1.47,-2.062l-1.115,-2.602l-5.577,5.239l-2.873,-3.009l6.76,-6.32l-1.69,-4.022l-0.406,-0l-1.622,2.602l-3.245,-2.095l1.622,-2.502c0.969,-1.532 2.276,-2.298 3.921,-2.298c1.668,-0 2.884,0.879 3.651,2.636l1.081,2.569l5.341,-5.002l2.873,3.008l-6.49,6.084Z" style="fill:rgb(131,133,136);fill-rule:nonzero;"/>
                <path d="M1106.29,921.595l19.82,0.059c1.163,0.003 2.11,-0.934 2.118,-2.097l0.11,-15.012c0,-0 2.479,-0 2.479,-0c0,4.564 0,14.937 0,14.937c0,1.166 0.947,2.113 2.113,2.113c1.166,-0 2.112,-0.947 2.112,-2.113l0,-17.05c0,-1.166 -0.946,-2.112 -2.112,-2.112l-6.689,-0c-1.16,-0 -2.104,0.936 -2.112,2.097l-0.11,15.005c-5.102,-0.015 -17.717,-0.052 -17.717,-0.052c-1.166,-0.004 -2.115,0.94 -2.118,2.106c-0.004,1.166 0.94,2.115 2.106,2.119Z" style="fill:rgb(131,133,136);"/>
                <path d="M1112.78,912.068l-2.536,-2.536c-0,0 2.536,-2.536 2.536,-2.536c0.824,-0.824 0.824,-2.163 -0,-2.987c-0.825,-0.825 -2.163,-0.825 -2.988,-0l-5.523,5.523l5.523,5.524c0.825,0.824 2.163,0.824 2.988,-0c0.824,-0.824 0.824,-2.163 -0,-2.988Z" style="fill:rgb(131,133,136);"/>
                <path d="M1116.51,907.42l-0.042,-0c-1.166,-0 -2.113,0.946 -2.113,2.112c0,1.166 0.947,2.113 2.113,2.113l0.042,-0c1.166,-0 2.113,-0.947 2.113,-2.113c-0,-1.166 -0.947,-2.112 -2.113,-2.112Zm-5.112,-0l-0.042,-0c-1.166,-0 -2.113,0.946 -2.113,2.112c0,1.166 0.947,2.113 2.113,2.113l0.042,-0c1.166,-0 2.112,-0.947 2.112,-2.113c0,-1.166 -0.946,-2.112 -2.112,-2.112Zm10.224,-0l-0.042,-0c-1.166,-0 -2.112,0.946 -2.112,2.112c-0,1.166 0.946,2.113 2.112,2.113l0.042,-0c1.166,-0 2.113,-0.947 2.113,-2.113c-0,-1.166 -0.947,-2.112 -2.113,-2.112Z" style="fill:rgb(131,133,136);"/>
                <path d="M692.19,917.37c0,-0 -12.615,0.037 -17.716,0.052c-0,0 -0.11,-15.005 -0.11,-15.005c-0.009,-1.161 -0.952,-2.097 -2.113,-2.097l-6.688,-0c-1.167,-0 -2.112,0.946 -2.112,2.112l-0,17.05c-0,1.166 0.946,2.113 2.112,2.113c1.166,-0 2.113,-0.947 2.113,-2.113l-0,-14.937c-0,-0 2.478,-0 2.478,-0c0,-0 0.11,15.012 0.11,15.012c0.009,1.163 0.956,2.1 2.119,2.097l19.82,-0.059c1.166,-0.004 2.11,-0.953 2.106,-2.119c-0.003,-1.166 -0.953,-2.11 -2.119,-2.106Z" style="fill:rgb(131,133,136);"/>
                <path d="M685.71,906.996l2.536,2.536c0,0 -2.536,2.536 -2.536,2.536c-0.825,0.825 -0.825,2.164 -0,2.988c0.824,0.824 2.163,0.824 2.987,-0l5.524,-5.524l-5.524,-5.523c-0.824,-0.825 -2.163,-0.825 -2.987,-0c-0.825,0.824 -0.825,2.163 -0,2.987Z" style="fill:rgb(131,133,136);"/>
                <path d="M681.978,911.645l0.043,-0c1.166,-0 2.112,-0.947 2.112,-2.113c0,-1.166 -0.946,-2.112 -2.112,-2.112l-0.043,-0c-1.165,-0 -2.112,0.946 -2.112,2.112c-0,1.166 0.947,2.113 2.112,2.113Zm5.113,-0l0.042,-0c1.166,-0 2.112,-0.947 2.112,-2.113c0,-1.166 -0.946,-2.112 -2.112,-2.112l-0.042,-0c-1.166,-0 -2.113,0.946 -2.113,2.112c0,1.166 0.947,2.113 2.113,2.113Zm-10.225,-0l0.042,-0c1.166,-0 2.113,-0.947 2.113,-2.113c-0,-1.166 -0.947,-2.112 -2.113,-2.112l-0.042,-0c-1.166,-0 -2.112,0.946 -2.112,2.112c-0,1.166 0.946,2.113 2.112,2.113Z" style="fill:rgb(131,133,136);"/>
                <path d="M661.102,777.926l0,16.772c0,0.74 0.388,1.427 1.022,1.809c0.635,0.382 1.423,0.404 2.078,0.058l28.206,-14.913c-0,-0 -0.095,13.308 -0.095,13.308c-0.008,1.166 0.932,2.119 2.098,2.128c1.166,0.008 2.119,-0.932 2.127,-2.098l0.12,-16.843c0.005,-0.744 -0.381,-1.435 -1.016,-1.821c-0.636,-0.386 -1.427,-0.409 -2.084,-0.062l-28.231,14.927c0,-0 0,-13.265 0,-13.265c0,-1.166 -0.947,-2.113 -2.112,-2.113c-1.166,0 -2.113,0.947 -2.113,2.113Z" style="fill:rgb(131,133,136);"/>
                <path d="M800.15,777.881c-0,0 0.071,10.361 0.103,14.929c0,0 -15.596,0.047 -15.596,0.047c0,-0 -0.11,-15.006 -0.11,-15.006c-0.008,-1.161 -0.952,-2.097 -2.112,-2.097l-6.688,-0c-1.167,-0 -2.113,0.946 -2.113,2.112l0,17.05c0,1.166 0.947,2.113 2.113,2.113c1.165,-0 2.112,-0.947 2.112,-2.113l0,-14.937c0,-0 2.479,-0 2.479,-0c-0,-0 0.11,15.012 0.11,15.012c0.008,1.163 0.955,2.1 2.118,2.097l19.82,-0.059c0.562,-0.002 1.1,-0.227 1.495,-0.626c0.396,-0.4 0.616,-0.94 0.612,-1.501l-0.119,-17.05c-0.008,-1.166 -0.961,-2.106 -2.127,-2.098c-1.166,0.008 -2.106,0.961 -2.097,2.127Z" style="fill:rgb(131,133,136);"/>
                <path d="M800.15,902.506c-0,0 0.071,10.351 0.103,14.923c-0,-0 -9.077,-0 -9.077,-0c-0,-4.565 -0,-14.938 -0,-14.938c-0,-1.166 -0.946,-2.112 -2.113,-2.112l-13.316,-0c-1.167,-0 -2.113,0.946 -2.113,2.112l0,17.05c0,1.166 0.947,2.113 2.113,2.113c1.165,-0 2.112,-0.947 2.112,-2.113l0,-14.937c0,-0 9.092,-0 9.092,-0c-0,-0 -0,14.937 -0,14.937c-0,1.167 0.946,2.113 2.112,2.113l13.317,-0c0.563,-0 1.103,-0.225 1.499,-0.624c0.397,-0.4 0.618,-0.941 0.614,-1.504l-0.119,-17.049c-0.008,-1.166 -0.961,-2.106 -2.127,-2.098c-1.166,0.008 -2.106,0.961 -2.097,2.127Z" style="fill:rgb(131,133,136);"/>
                <path d="M1133.16,777.926l-0,13.265c-0,-0 -28.231,-14.927 -28.231,-14.927c-0.657,-0.347 -1.449,-0.324 -2.084,0.062c-0.635,0.386 -1.021,1.077 -1.016,1.821l0.12,16.843c0.008,1.166 0.961,2.106 2.127,2.098c1.166,-0.009 2.106,-0.962 2.097,-2.128l-0.094,-13.308c7.929,4.192 28.206,14.913 28.206,14.913c0.655,0.346 1.443,0.324 2.077,-0.058c0.635,-0.382 1.023,-1.069 1.023,-1.809l-0,-16.772c-0,-1.166 -0.947,-2.113 -2.113,-2.113c-1.166,0 -2.112,0.947 -2.112,2.113Z" style="fill:rgb(131,133,136);"/>
                <path d="M994.117,777.852l-0.118,17.05c-0.004,0.561 0.216,1.101 0.611,1.501c0.396,0.399 0.933,0.624 1.495,0.626l19.82,0.059c1.163,0.003 2.11,-0.934 2.119,-2.097l0.11,-15.012c-0,-0 2.479,-0 2.479,-0c-0,-0 -0,14.937 -0,14.937c-0,1.166 0.946,2.113 2.112,2.113c1.166,-0 2.113,-0.947 2.113,-2.113l-0,-17.05c-0,-1.166 -0.946,-2.112 -2.113,-2.112l-6.688,-0c-1.161,-0 -2.104,0.936 -2.113,2.097l-0.11,15.006c0,-0 -15.595,-0.047 -15.595,-0.047c-0,0 0.103,-14.929 0.103,-14.929c0.008,-1.166 -0.932,-2.119 -2.098,-2.127c-1.166,-0.008 -2.119,0.932 -2.127,2.098Z" style="fill:rgb(131,133,136);"/>
                <path d="M994.117,902.418l-0.118,17.049c-0.004,0.563 0.217,1.104 0.614,1.504c0.396,0.399 0.936,0.624 1.499,0.624l13.316,-0c1.167,-0 2.113,-0.946 2.113,-2.113l-0,-14.937c-0,-0 9.092,-0 9.092,-0c-0,-0 -0,14.937 -0,14.937c-0,1.166 0.946,2.113 2.112,2.113c1.166,-0 2.113,-0.947 2.113,-2.113l-0,-17.05c-0,-1.166 -0.946,-2.112 -2.113,-2.112l-13.317,-0c-1.166,-0 -2.112,0.946 -2.112,2.112l-0,14.938c-0,-0 -9.077,-0 -9.077,-0c0.031,-4.572 0.103,-14.923 0.103,-14.923c0.008,-1.166 -0.932,-2.119 -2.098,-2.127c-1.166,-0.008 -2.119,0.932 -2.127,2.098Z" style="fill:rgb(131,133,136);"/>
                <circle cx="900.044" cy="797.152" r="28.743" style="fill:rgb(131,133,136);"/>
                <path d="M901.836,829.756c-0.386,-0.618 -1.064,-0.993 -1.792,-0.993c-0.729,-0 -1.406,0.375 -1.792,0.993l-8.275,13.247c-0.407,0.651 -0.428,1.472 -0.056,2.143c0.373,0.672 1.08,1.089 1.848,1.089l16.55,-0c0.768,-0 1.475,-0.417 1.847,-1.089c0.373,-0.671 0.351,-1.492 -0.056,-2.143l-8.274,-13.247Z" style="fill:rgb(131,133,136);"/>
            </g>
            <g id="Jacks">
                <circle cx="678.38" cy="854.911" r="37.913" style="fill:rgb(222,222,222);"/>
                <circle cx="678.38" cy="976.272" r="37.913" style="fill:rgb(222,222,222);"/>
                <circle cx="1119.85" cy="854.911" r="37.913" style="fill:rgb(222,222,222);"/>
                <circle cx="1119.61" cy="976.272" r="37.913" style="fill:rgb(222,222,222);"/>
                <g id="Flat-jack" serif:id="Flat jack">
                    <path d="M899.308,942.566c0.248,-0.143 0.554,-0.143 0.801,0c3.256,1.879 25.334,14.627 28.589,16.506c0.248,0.143 0.401,0.407 0.401,0.694c0,3.758 0.001,29.253 0.001,33.012c0,0.286 -0.152,0.55 -0.4,0.693c-3.255,1.88 -25.332,14.627 -28.587,16.506c-0.248,0.143 -0.554,0.143 -0.802,0c-3.255,-1.879 -25.333,-14.626 -28.589,-16.506c-0.247,-0.143 -0.4,-0.407 -0.4,-0.693c-0,-3.759 -0.001,-29.253 -0.002,-33.012c0,-0.286 0.153,-0.551 0.401,-0.694c3.255,-1.88 25.332,-14.626 28.587,-16.506Z" style="fill:rgb(213,213,213);"/>
                    <path d="M898.371,940.942c0.828,-0.478 1.848,-0.478 2.676,0l28.589,16.506c0.828,0.478 1.338,1.362 1.338,2.318l0.001,33.011c0,0.957 -0.51,1.84 -1.338,2.318l-28.587,16.506c-0.828,0.478 -1.848,0.478 -2.676,0l-28.589,-16.506c-0.828,-0.478 -1.338,-1.361 -1.338,-2.317l-0.002,-33.012c0,-0.956 0.51,-1.84 1.338,-2.318l28.588,-16.506Zm0.937,1.624l-28.587,16.506c-0.248,0.143 -0.401,0.408 -0.401,0.694l0.002,33.012c-0,0.286 0.153,0.55 0.4,0.693l28.589,16.506c0.248,0.143 0.554,0.143 0.802,0l28.587,-16.506c0.248,-0.143 0.4,-0.407 0.4,-0.693l-0.001,-33.012c-0,-0.287 -0.153,-0.551 -0.401,-0.694l-28.589,-16.506c-0.247,-0.143 -0.553,-0.143 -0.801,0Z" style="fill:rgb(169,169,169);"/>
                    <ellipse cx="899.71" cy="976.272" rx="17.849" ry="17.848" style="fill:rgb(131,133,136);"/>
                </g>
                <g id="Flat-jack1" serif:id="Flat jack">
                    <path d="M1008.6,942.566c0.248,-0.143 0.553,-0.143 0.801,0c3.255,1.879 25.334,14.627 28.589,16.506c0.248,0.143 0.401,0.407 0.401,0.694c-0,3.758 0.001,29.253 0.001,33.012c0,0.286 -0.153,0.55 -0.4,0.693c-3.256,1.88 -25.333,14.627 -28.588,16.506c-0.248,0.143 -0.553,0.143 -0.801,0c-3.255,-1.879 -25.334,-14.626 -28.589,-16.506c-0.248,-0.143 -0.4,-0.407 -0.4,-0.693c-0.001,-3.759 -0.002,-29.253 -0.002,-33.012c0,-0.286 0.153,-0.551 0.401,-0.694c3.255,-1.88 25.332,-14.626 28.587,-16.506Z" style="fill:rgb(213,213,213);"/>
                    <path d="M1007.66,940.942c0.828,-0.478 1.849,-0.478 2.677,0l28.588,16.506c0.828,0.478 1.338,1.362 1.339,2.318l0.001,33.011c0,0.957 -0.51,1.84 -1.338,2.318l-28.587,16.506c-0.828,0.478 -1.848,0.478 -2.676,0l-28.589,-16.506c-0.828,-0.478 -1.338,-1.361 -1.338,-2.317l-0.002,-33.012c0,-0.956 0.51,-1.84 1.338,-2.318l28.587,-16.506Zm0.938,1.624l-28.587,16.506c-0.248,0.143 -0.401,0.408 -0.401,0.694l0.002,33.012c-0,0.286 0.152,0.55 0.4,0.693l28.589,16.506c0.248,0.143 0.553,0.143 0.801,0l28.588,-16.506c0.247,-0.143 0.4,-0.407 0.4,-0.693l-0.001,-33.012c-0,-0.287 -0.153,-0.551 -0.401,-0.694l-28.589,-16.506c-0.248,-0.143 -0.553,-0.143 -0.801,0Z" style="fill:rgb(169,169,169);"/>
                    <ellipse cx="1009" cy="976.272" rx="17.849" ry="17.848" style="fill:rgb(131,133,136);"/>
                </g>
                <g id="Flat-jack2" serif:id="Flat jack">
                    <path d="M1119.21,942.566c0.248,-0.143 0.553,-0.143 0.801,0c3.255,1.879 25.334,14.627 28.589,16.506c0.248,0.143 0.4,0.407 0.4,0.694c0,3.758 0.002,29.253 0.002,33.012c-0,0.286 -0.153,0.55 -0.401,0.693c-3.255,1.88 -25.332,14.627 -28.587,16.506c-0.248,0.143 -0.553,0.143 -0.801,0c-3.255,-1.879 -25.334,-14.626 -28.589,-16.506c-0.248,-0.143 -0.401,-0.407 -0.401,-0.693c0,-3.759 -0.001,-29.253 -0.001,-33.012c-0,-0.286 0.153,-0.551 0.4,-0.694c3.256,-1.88 25.333,-14.626 28.588,-16.506Z" style="fill:rgb(213,213,213);"/>
                    <path d="M1118.27,940.942c0.828,-0.478 1.848,-0.478 2.676,0l28.589,16.506c0.828,0.478 1.338,1.362 1.338,2.318l0.002,33.011c-0,0.957 -0.51,1.84 -1.338,2.318l-28.587,16.506c-0.828,0.478 -1.849,0.478 -2.677,0l-28.589,-16.506c-0.827,-0.478 -1.338,-1.361 -1.338,-2.317l-0.001,-33.012c-0,-0.956 0.51,-1.84 1.338,-2.318l28.587,-16.506Zm0.938,1.624l-28.588,16.506c-0.247,0.143 -0.4,0.408 -0.4,0.694l0.001,33.012c0,0.286 0.153,0.55 0.401,0.693l28.589,16.506c0.248,0.143 0.553,0.143 0.801,0l28.587,-16.506c0.248,-0.143 0.401,-0.407 0.401,-0.693l-0.002,-33.012c0,-0.287 -0.152,-0.551 -0.4,-0.694l-28.589,-16.506c-0.248,-0.143 -0.553,-0.143 -0.801,0Z" style="fill:rgb(169,169,169);"/>
                    <ellipse cx="1119.61" cy="976.272" rx="17.849" ry="17.848" style="fill:rgb(131,133,136);"/>
                </g>
                <g id="Flat-jack3" serif:id="Flat jack">
                    <path d="M1119.45,821.205c0.248,-0.143 0.553,-0.143 0.801,0c3.256,1.88 25.334,14.627 28.589,16.506c0.248,0.143 0.401,0.408 0.401,0.694c-0,3.758 0.001,29.253 0.001,33.012c0,0.286 -0.152,0.55 -0.4,0.694c-3.255,1.879 -25.332,14.626 -28.588,16.505c-0.247,0.144 -0.553,0.144 -0.801,0c-3.255,-1.879 -25.333,-14.626 -28.589,-16.505c-0.247,-0.144 -0.4,-0.408 -0.4,-0.694c-0,-3.759 -0.001,-29.253 -0.002,-33.012c0,-0.286 0.153,-0.551 0.401,-0.694c3.255,-1.879 25.332,-14.626 28.587,-16.506Z" style="fill:rgb(213,213,213);"/>
                    <path d="M1118.51,819.581c0.828,-0.478 1.848,-0.478 2.676,0l28.589,16.506c0.828,0.478 1.338,1.362 1.338,2.318l0.001,33.012c0,0.956 -0.51,1.839 -1.338,2.317l-28.587,16.506c-0.828,0.478 -1.848,0.478 -2.676,0l-28.589,-16.506c-0.828,-0.478 -1.338,-1.361 -1.338,-2.317l-0.002,-33.012c0,-0.956 0.51,-1.84 1.338,-2.318l28.588,-16.506Zm0.937,1.624l-28.587,16.506c-0.248,0.143 -0.401,0.408 -0.401,0.694l0.002,33.012c-0,0.286 0.153,0.55 0.4,0.694l28.589,16.505c0.248,0.144 0.554,0.144 0.801,0l28.588,-16.505c0.248,-0.144 0.4,-0.408 0.4,-0.694l-0.001,-33.012c-0,-0.286 -0.153,-0.551 -0.401,-0.694l-28.589,-16.506c-0.248,-0.143 -0.553,-0.143 -0.801,0Z" style="fill:rgb(169,169,169);"/>
                    <ellipse cx="1119.85" cy="854.911" rx="17.849" ry="17.848" style="fill:rgb(131,133,136);"/>
                </g>
                <g id="Flat-jack4" serif:id="Flat jack">
                    <path d="M677.978,821.205c0.248,-0.143 0.553,-0.143 0.801,0c3.255,1.88 25.334,14.627 28.589,16.506c0.248,0.143 0.401,0.408 0.401,0.694c-0,3.758 0.001,29.253 0.001,33.012c0,0.286 -0.153,0.55 -0.4,0.694c-3.255,1.879 -25.333,14.626 -28.588,16.505c-0.248,0.144 -0.553,0.144 -0.801,0c-3.255,-1.879 -25.334,-14.626 -28.589,-16.505c-0.248,-0.144 -0.4,-0.408 -0.4,-0.694c-0,-3.759 -0.002,-29.253 -0.002,-33.012c0,-0.286 0.153,-0.551 0.401,-0.694c3.255,-1.879 25.332,-14.626 28.587,-16.506Z" style="fill:rgb(213,213,213);"/>
                    <path d="M677.04,819.581c0.829,-0.478 1.849,-0.478 2.677,0l28.589,16.506c0.828,0.478 1.338,1.362 1.338,2.318l0.001,33.012c0,0.956 -0.51,1.839 -1.338,2.317l-28.587,16.506c-0.828,0.478 -1.848,0.478 -2.676,0l-28.589,-16.506c-0.828,-0.478 -1.338,-1.361 -1.338,-2.317l-0.002,-33.012c0,-0.956 0.51,-1.84 1.338,-2.318l28.587,-16.506Zm0.938,1.624l-28.587,16.506c-0.248,0.143 -0.401,0.408 -0.401,0.694l0.002,33.012c-0,0.286 0.152,0.55 0.4,0.694l28.589,16.505c0.248,0.144 0.553,0.144 0.801,0l28.588,-16.505c0.247,-0.144 0.4,-0.408 0.4,-0.694l-0.001,-33.012c-0,-0.286 -0.153,-0.551 -0.401,-0.694l-28.589,-16.506c-0.248,-0.143 -0.553,-0.143 -0.801,0Z" style="fill:rgb(169,169,169);"/>
                    <ellipse cx="678.38" cy="854.911" rx="17.849" ry="17.848" style="fill:rgb(131,133,136);"/>
                </g>
                <g id="Flat-jack5" serif:id="Flat jack">
                    <path d="M677.978,942.566c0.248,-0.143 0.553,-0.143 0.801,0c3.255,1.879 25.334,14.627 28.589,16.506c0.248,0.143 0.401,0.407 0.401,0.694c-0,3.758 0.001,29.253 0.001,33.012c0,0.286 -0.153,0.55 -0.4,0.693c-3.255,1.88 -25.333,14.627 -28.588,16.506c-0.248,0.143 -0.553,0.143 -0.801,0c-3.255,-1.879 -25.334,-14.626 -28.589,-16.506c-0.248,-0.143 -0.4,-0.407 -0.4,-0.693c-0,-3.759 -0.002,-29.253 -0.002,-33.012c0,-0.286 0.153,-0.551 0.401,-0.694c3.255,-1.88 25.332,-14.626 28.587,-16.506Z" style="fill:rgb(213,213,213);"/>
                    <path d="M677.04,940.942c0.829,-0.478 1.849,-0.478 2.677,0l28.589,16.506c0.828,0.478 1.338,1.362 1.338,2.318l0.001,33.011c0,0.957 -0.51,1.84 -1.338,2.318l-28.587,16.506c-0.828,0.478 -1.848,0.478 -2.676,0l-28.589,-16.506c-0.828,-0.478 -1.338,-1.361 -1.338,-2.317l-0.002,-33.012c0,-0.956 0.51,-1.84 1.338,-2.318l28.587,-16.506Zm0.938,1.624l-28.587,16.506c-0.248,0.143 -0.401,0.408 -0.401,0.694l0.002,33.012c-0,0.286 0.152,0.55 0.4,0.693l28.589,16.506c0.248,0.143 0.553,0.143 0.801,0l28.588,-16.506c0.247,-0.143 0.4,-0.407 0.4,-0.693l-0.001,-33.012c-0,-0.287 -0.153,-0.551 -0.401,-0.694l-28.589,-16.506c-0.248,-0.143 -0.553,-0.143 -0.801,0Z" style="fill:rgb(169,169,169);"/>
                    <ellipse cx="678.38" cy="976.272" rx="17.849" ry="17.848" style="fill:rgb(131,133,136);"/>
                </g>
                <g id="Flat-jack6" serif:id="Flat jack">
                    <path d="M788.559,942.566c0.248,-0.143 0.554,-0.143 0.802,0c3.255,1.879 25.333,14.627 28.588,16.506c0.248,0.143 0.401,0.407 0.401,0.694c0,3.758 0.001,29.253 0.002,33.012c-0,0.286 -0.153,0.55 -0.401,0.693c-3.255,1.88 -25.332,14.627 -28.587,16.506c-0.248,0.143 -0.554,0.143 -0.801,0c-3.256,-1.879 -25.334,-14.626 -28.589,-16.506c-0.248,-0.143 -0.401,-0.407 -0.401,-0.693c-0,-3.759 -0.001,-29.253 -0.001,-33.012c-0,-0.286 0.152,-0.551 0.4,-0.694c3.255,-1.88 25.332,-14.626 28.587,-16.506Z" style="fill:rgb(213,213,213);"/>
                    <path d="M787.622,940.942c0.828,-0.478 1.848,-0.478 2.676,0l28.589,16.506c0.828,0.478 1.338,1.362 1.338,2.318l0.002,33.011c-0,0.957 -0.51,1.84 -1.338,2.318l-28.588,16.506c-0.828,0.478 -1.848,0.478 -2.676,0l-28.589,-16.506c-0.828,-0.478 -1.338,-1.361 -1.338,-2.317l-0.001,-33.012c-0,-0.956 0.51,-1.84 1.338,-2.318l28.587,-16.506Zm0.937,1.624l-28.587,16.506c-0.248,0.143 -0.4,0.408 -0.4,0.694l0.001,33.012c0,0.286 0.153,0.55 0.401,0.693l28.589,16.506c0.247,0.143 0.553,0.143 0.801,0l28.587,-16.506c0.248,-0.143 0.401,-0.407 0.401,-0.693l-0.002,-33.012c0,-0.287 -0.153,-0.551 -0.401,-0.694l-28.588,-16.506c-0.248,-0.143 -0.554,-0.143 -0.802,0Z" style="fill:rgb(169,169,169);"/>
                    <ellipse cx="788.962" cy="976.272" rx="17.849" ry="17.848" style="fill:rgb(131,133,136);"/>
                </g>
            </g>
            <g id="Stars">
                <path d="M921.893,264.999l5.268,15.96c0.212,0.641 0.717,1.143 1.361,1.349c0.643,0.207 1.346,0.093 1.891,-0.305l9.37,-6.844l-0.643,11.585c-0.037,0.674 0.25,1.326 0.773,1.753c0.523,0.427 1.219,0.579 1.872,0.407l16.257,-4.266l-11.188,12.542c-0.45,0.504 -0.631,1.193 -0.488,1.853c0.143,0.66 0.592,1.213 1.21,1.486l10.612,4.692l-10.354,5.236c-0.603,0.305 -1.024,0.879 -1.132,1.546c-0.109,0.667 0.108,1.345 0.583,1.825l11.823,11.946l-16.456,-3.418c-0.661,-0.138 -1.348,0.05 -1.848,0.503c-0.501,0.454 -0.754,1.12 -0.682,1.791l1.243,11.536l-9.712,-6.349c-0.565,-0.369 -1.273,-0.446 -1.905,-0.207c-0.631,0.24 -1.11,0.767 -1.289,1.418l-4.433,16.211l-5.268,-15.959c-0.212,-0.642 -0.718,-1.143 -1.361,-1.35c-0.643,-0.206 -1.346,-0.092 -1.891,0.306l-9.37,6.844l0.643,-11.585c0.037,-0.675 -0.25,-1.326 -0.773,-1.754c-0.523,-0.427 -1.219,-0.578 -1.873,-0.407l-16.256,4.266l11.188,-12.542c0.449,-0.504 0.631,-1.192 0.488,-1.853c-0.143,-0.66 -0.593,-1.212 -1.21,-1.485l-10.612,-4.692l10.354,-5.236c0.603,-0.305 1.024,-0.88 1.132,-1.546c0.108,-0.667 -0.108,-1.345 -0.584,-1.825l-11.822,-11.946l16.455,3.418c0.662,0.137 1.349,-0.05 1.849,-0.504c0.501,-0.453 0.754,-1.119 0.681,-1.791l-1.242,-11.536l9.712,6.349c0.565,0.37 1.273,0.447 1.905,0.207c0.631,-0.239 1.11,-0.766 1.288,-1.417l4.434,-16.212Z" style="fill:rgb(213,213,213);"/>
                <path d="M879.642,332.126l-7.734,5.818l-1.433,-10.134l-16.495,9.137l9.138,-16.494l-10.134,-1.434l6.152,-8.179l-18.124,-5.202l18.124,-5.202l-6.152,-8.179l10.134,-1.434l-9.138,-16.494l16.495,9.137l1.433,-10.134l8.179,6.152l5.203,-18.124l5.202,18.124l8.179,-6.152l1.434,10.134l0.94,-0.521l0.24,2.231l-20.474,-4.252c-0.912,-0.19 -1.841,0.241 -2.285,1.06c-0.445,0.818 -0.301,1.832 0.354,2.494l14.71,14.863l-11.747,5.939c-0.728,0.369 -1.179,1.124 -1.158,1.94c0.021,0.817 0.51,1.547 1.257,1.878l12.039,5.323l-13.92,15.604c-0.518,0.581 -0.667,1.388 -0.419,2.101Zm33.173,-55.701l1.854,-1.027l-0.52,1.899l-1.334,-0.872Zm3.266,60.235l-1.248,-0.691l0.822,-0.6l0.426,1.291Zm-13.731,-7.606l-1.07,-0.593l1.12,-0.294l-0.05,0.887Zm-2.386,-0.247l-1.293,9.137l-8.179,-6.152l-5.202,18.124l-4.796,-16.708c0.486,0.313 1.093,0.421 1.68,0.267l17.79,-4.668Z" style="fill:rgb(213,213,213);"/>
                <path d="M985.203,478.928l5.716,7.617l3.712,-5.343l0.885,6.445l8.549,-4.195l-5.478,7.789l6.228,1.88l-5.856,2.833l6.632,6.834l-9.101,-2.803l0.137,6.505l-4.504,-4.695l-4.45,8.419l-0.147,-9.521l-6.143,2.14l3.072,-5.734l-9.382,-1.63l9.01,-3.083l-3.934,-5.181l6.403,1.15l-1.349,-9.427Z" style="fill:rgb(213,213,213);stroke:rgb(213,213,213);stroke-width:6.25px;stroke-linecap:butt;stroke-miterlimit:2;"/>
                <path d="M901.766,708.069l1.399,11.485l3.822,-2.85l0.356,4.753l9.585,-6.48l-6.311,9.698l4.76,0.272l-2.783,3.871l11.508,1.197l-11.068,3.373l3.471,3.268l-4.62,1.176l8.046,8.314l-10.646,-4.53l0.558,4.734l-4.295,-2.068l0.819,11.541l-5.243,-10.314l-2.615,3.985l-1.961,-4.345l-6.791,9.367l2.613,-11.27l-4.565,1.371l1.291,-4.589l-11.223,2.811l9.246,-6.954l-4.379,-1.884l3.939,-2.686l-10.404,-5.061l11.553,0.617l-2.143,-4.258l4.743,0.474l-4.717,-10.564l8.454,7.898l1.095,-4.64l3.329,3.413l3.177,-11.125Z" style="fill:rgb(213,213,213);stroke:rgb(213,213,213);stroke-width:3.33px;stroke-linecap:butt;stroke-miterlimit:2;"/>
                <path d="M997.636,456.955l1.927,3.721l2.825,1.814l-2.825,1.815l-1.927,3.721l-1.927,-3.721l-2.824,-1.815l2.824,-1.814l1.927,-3.721Z" style="fill:rgb(213,213,213);stroke:rgb(213,213,213);stroke-width:6.25px;stroke-linecap:butt;stroke-miterlimit:2;"/>
                <path d="M1079.86,595.922l-0.319,14.01l9.817,-0.269l-6.12,7.679l11.383,8.173l-14.01,-0.319l0.27,9.816l-7.68,-6.12l-8.173,11.384l0.319,-14.01l-9.816,0.269l6.12,-7.679l-11.384,-8.173l14.01,0.319l-0.269,-9.816l7.68,6.12l8.172,-11.384Z" style="fill:rgb(213,213,213);stroke:rgb(213,213,213);stroke-width:6.25px;stroke-linecap:butt;stroke-miterlimit:2;"/>
                <path d="M672.752,614.634l3.838,11.18l8.262,1.023l-4.227,7.172l6.522,9.859l-11.601,-2.267l-5.017,6.644l-4.098,-7.247l-11.799,0.719l7.764,-8.914l-3.245,-7.666l8.324,0.074l5.277,-10.577Z" style="fill:rgb(213,213,213);stroke:rgb(213,213,213);stroke-width:6.25px;stroke-linecap:butt;stroke-miterlimit:2;"/>
                <path d="M807.054,503.733l4.043,14.262c0.043,0.154 0.107,0.292 0.187,0.407c0.08,0.115 0.174,0.203 0.277,0.26l9.557,5.272l-9.236,5.817c-0.099,0.062 -0.188,0.156 -0.261,0.276c-0.073,0.119 -0.129,0.261 -0.164,0.417l-3.209,14.472l-4.043,-14.262c-0.043,-0.154 -0.107,-0.292 -0.187,-0.407c-0.08,-0.115 -0.174,-0.203 -0.277,-0.26l-9.557,-5.272l9.235,-5.817c0.1,-0.062 0.189,-0.156 0.262,-0.276c0.073,-0.119 0.129,-0.261 0.163,-0.416l3.21,-14.473Z" style="fill:rgb(213,213,213);stroke:rgb(213,213,213);stroke-width:6.25px;"/>
                <path d="M1030.13,601.537l2.941,5.136c0.023,0.041 0.05,0.078 0.079,0.108c0.029,0.031 0.061,0.056 0.093,0.073l4.071,2.212l-2.912,3.603c-0.023,0.029 -0.043,0.064 -0.058,0.103c-0.016,0.04 -0.026,0.084 -0.032,0.131l-0.748,5.871l-2.941,-5.137c-0.023,-0.041 -0.05,-0.077 -0.079,-0.108c-0.03,-0.03 -0.061,-0.055 -0.093,-0.073l-4.071,-2.212l2.912,-3.603c0.023,-0.028 0.043,-0.063 0.058,-0.103c0.015,-0.039 0.026,-0.083 0.032,-0.13l0.748,-5.871Z" style="fill:rgb(213,213,213);stroke:rgb(213,213,213);stroke-width:6.25px;"/>
                <path d="M713.692,411.179l1.937,-2.769c0.016,-0.022 0.03,-0.05 0.041,-0.083c0.011,-0.032 0.021,-0.07 0.027,-0.11l0.81,-5.072l1.403,4.941c0.011,0.039 0.025,0.075 0.04,0.106c0.015,0.031 0.032,0.057 0.05,0.078l2.251,2.52l-1.938,2.769c-0.015,0.022 -0.029,0.05 -0.04,0.083c-0.012,0.033 -0.021,0.07 -0.027,0.11l-0.81,5.072l-1.403,-4.941c-0.012,-0.039 -0.025,-0.075 -0.04,-0.106c-0.016,-0.031 -0.032,-0.057 -0.05,-0.077l-2.251,-2.521Z" style="fill:rgb(213,213,213);stroke:rgb(213,213,213);stroke-width:6.25px;"/>
                <path d="M1097.51,631.994l1.082,5.96c0.013,0.07 0.032,0.134 0.055,0.185c0.024,0.052 0.051,0.09 0.081,0.112l2.482,1.863l-2.288,2.098c-0.027,0.025 -0.05,0.065 -0.069,0.119c-0.018,0.054 -0.031,0.119 -0.036,0.19l-0.493,6.037l-1.082,-5.959c-0.013,-0.071 -0.032,-0.134 -0.055,-0.186c-0.024,-0.052 -0.051,-0.09 -0.081,-0.112l-2.482,-1.863l2.288,-2.097c0.027,-0.025 0.05,-0.066 0.069,-0.12c0.018,-0.054 0.031,-0.119 0.037,-0.19l0.492,-6.037Z" style="fill:rgb(213,213,213);stroke:rgb(213,213,213);stroke-width:6.25px;"/>
                <path d="M1119.54,388.286l3.122,9.947c0.062,0.198 0.2,0.368 0.386,0.475c0.185,0.107 0.405,0.144 0.616,0.104l10.573,-2.041l-5.114,9.052c-0.102,0.181 -0.129,0.392 -0.075,0.593c0.054,0.2 0.184,0.375 0.365,0.49l9.084,5.731l-10.354,2.854c-0.207,0.057 -0.382,0.187 -0.492,0.363c-0.109,0.177 -0.145,0.387 -0.1,0.589l2.274,10.145l-9.529,-5.014c-0.19,-0.1 -0.412,-0.129 -0.62,-0.08c-0.209,0.049 -0.39,0.171 -0.507,0.343l-5.869,8.617l-3.121,-9.947c-0.062,-0.199 -0.2,-0.368 -0.386,-0.475c-0.185,-0.108 -0.406,-0.145 -0.616,-0.104l-10.573,2.04l5.114,-9.052c0.102,-0.18 0.129,-0.392 0.075,-0.592c-0.054,-0.201 -0.184,-0.376 -0.365,-0.49l-9.084,-5.731l10.354,-2.855c0.207,-0.057 0.382,-0.186 0.492,-0.363c0.109,-0.176 0.145,-0.386 0.1,-0.588l-2.274,-10.146l9.529,5.015c0.19,0.1 0.411,0.129 0.62,0.08c0.209,-0.049 0.39,-0.172 0.507,-0.344l5.868,-8.616Z" style="fill:rgb(213,213,213);stroke:rgb(213,213,213);stroke-width:6.25px;"/>
                <path d="M747.222,396.033l4.161,6.638c0.07,0.111 0.172,0.2 0.294,0.256c0.123,0.056 0.259,0.077 0.394,0.06l8.029,-1.032l-2.84,7.247c-0.047,0.121 -0.057,0.253 -0.027,0.379c0.031,0.126 0.099,0.241 0.197,0.331l5.85,5.352l-7.702,2.398c-0.129,0.04 -0.243,0.115 -0.327,0.216c-0.085,0.102 -0.137,0.224 -0.149,0.353l-0.734,7.706l-6.765,-4.257c-0.113,-0.071 -0.246,-0.109 -0.381,-0.109c-0.136,0 -0.268,0.038 -0.382,0.109l-6.765,4.257l-0.734,-7.706c-0.012,-0.129 -0.063,-0.251 -0.148,-0.353c-0.084,-0.101 -0.198,-0.176 -0.327,-0.216l-7.703,-2.398l5.851,-5.352c0.098,-0.09 0.166,-0.205 0.196,-0.331c0.03,-0.126 0.021,-0.258 -0.026,-0.379l-2.84,-7.247l8.029,1.032c0.134,0.017 0.271,-0.004 0.393,-0.06c0.122,-0.056 0.225,-0.145 0.294,-0.256l4.162,-6.638Z" style="fill:rgb(213,213,213);stroke:rgb(213,213,213);stroke-width:6.25px;"/>
            </g>
            <g id="Controls">
                <g id="_1900h" serif:id="1900h">
                    <circle cx="900.045" cy="425.357" r="50.7" style="fill:rgb(131,133,136);"/>
                    <rect x="898.201" y="380.77" width="3.687" height="35.149" style="fill:white;"/>
                </g>
                <g id="_1900h1" serif:id="1900h">
                    <circle cx="900.045" cy="603.959" r="50.7" style="fill:rgb(131,133,136);"/>
                    <rect x="898.201" y="559.372" width="3.687" height="35.149" style="fill:white;"/>
                </g>
                <g id="_1900h2" serif:id="1900h">
                    <circle cx="714.569" cy="502.559" r="50.7" style="fill:rgb(131,133,136);"/>
                    <rect x="712.725" y="457.971" width="3.687" height="35.149" style="fill:white;"/>
                </g>
                <g id="_1900h3" serif:id="1900h">
                    <circle cx="1085.28" cy="502.559" r="50.7" style="fill:rgb(131,133,136);"/>
                    <rect x="1083.44" y="457.971" width="3.687" height="35.149" style="fill:white;"/>
                </g>
                <g id="Large-MXR" serif:id="Large MXR">
                    <circle cx="748.098" cy="255.3" r="99.803" style="fill:rgb(131,133,136);"/>
                    <rect x="743.927" y="180.566" width="8.341" height="69.654" style="fill:white;"/>
                    <circle cx="748.098" cy="165.069" r="4.171" style="fill:white;"/>
                </g>
                <g id="Large-MXR1" serif:id="Large MXR">
                    <circle cx="1051.99" cy="255.3" r="99.803" style="fill:rgb(131,133,136);"/>
                    <rect x="1047.82" y="180.566" width="8.341" height="69.654" style="fill:white;"/>
                    <circle cx="1051.99" cy="165.069" r="4.171" style="fill:white;"/>
                </g>
                <g id="_1RWHT" serif:id="1RWHT">
                    <ellipse cx="899.804" cy="797.239" rx="20.779" ry="20.813" style="fill:rgb(213,213,213);"/>
                </g>
                <g id="Tall-Trimmer" serif:id="Tall Trimmer">
                    <circle cx="788.962" cy="734.371" r="23.953" style="fill:rgb(131,133,136);"/>
                    <rect x="786.628" y="710.418" width="4.667" height="12.839" style="fill:white;"/>
                </g>
                <g id="Tall-Trimmer1" serif:id="Tall Trimmer">
                    <circle cx="678.38" cy="734.371" r="23.953" style="fill:rgb(131,133,136);"/>
                    <rect x="676.046" y="710.418" width="4.667" height="12.839" style="fill:white;"/>
                </g>
                <g id="Tall-Trimmer2" serif:id="Tall Trimmer">
                    <circle cx="788.962" cy="854.911" r="23.953" style="fill:rgb(131,133,136);"/>
                    <rect x="786.628" y="830.958" width="4.667" height="12.839" style="fill:white;"/>
                </g>
                <g id="Tall-Trimmer3" serif:id="Tall Trimmer">
                    <circle cx="1119.61" cy="734.371" r="23.953" style="fill:rgb(131,133,136);"/>
                    <rect x="1117.28" y="710.418" width="4.667" height="12.839" style="fill:white;"/>
                </g>
                <g id="Tall-Trimmer4" serif:id="Tall Trimmer">
                    <circle cx="1009.59" cy="854.911" r="23.953" style="fill:rgb(131,133,136);"/>
                    <rect x="1007.25" y="830.958" width="4.667" height="12.839" style="fill:white;"/>
                </g>
                <g id="Tall-Trimmer5" serif:id="Tall Trimmer">
                    <circle cx="1009" cy="734.371" r="23.953" style="fill:rgb(131,133,136);"/>
                    <rect x="1006.67" y="710.418" width="4.667" height="12.839" style="fill:white;"/>
                </g>
            </g>
        </g>
        <g>
            <g>
                <circle cx="900.044" cy="797.152" r="24.111" style="fill:rgb(125,97,186);stroke:rgb(125,97,186);stroke-width:10.42px;"/>
                <path d="M895.371,737.429l4.673,4.673l4.673,-4.673" style="fill:none;stroke:rgb(145,120,199);stroke-width:10.42px;stroke-linejoin:miter;stroke-miterlimit:10;"/>
                <path d="M900.044,742.102l-0,-25.264" style="fill:none;stroke:rgb(145,120,199);stroke-width:10.42px;"/>
                <path d="M949.429,763.244l-1.71,6.383l6.383,1.711" style="fill:none;stroke:rgb(145,120,199);stroke-width:10.42px;stroke-linejoin:miter;stroke-miterlimit:10;"/>
                <path d="M947.719,769.627c8.334,-4.812 21.879,-12.632 21.879,-12.632" style="fill:none;stroke:rgb(145,120,199);stroke-width:10.42px;"/>
                <path d="M845.986,771.338l6.383,-1.711l-1.71,-6.383" style="fill:none;stroke:rgb(145,120,199);stroke-width:10.42px;stroke-linejoin:miter;stroke-miterlimit:10;"/>
                <path d="M852.369,769.627c-8.335,-4.812 -21.879,-12.632 -21.879,-12.632" style="fill:none;stroke:rgb(145,120,199);stroke-width:10.42px;"/>
                <path d="M866.148,747.698l6.383,1.711l1.71,-6.384" style="fill:none;stroke:rgb(145,120,199);stroke-width:10.42px;stroke-linejoin:miter;stroke-miterlimit:10;"/>
                <path d="M872.531,749.409c-4.828,-8.362 -12.689,-21.978 -12.689,-21.978" style="fill:none;stroke:rgb(145,120,199);stroke-width:10.42px;"/>
                <path d="M925.802,743.281l1.711,6.383l6.383,-1.71" style="fill:none;stroke:rgb(145,120,199);stroke-width:10.42px;stroke-linejoin:miter;stroke-miterlimit:10;"/>
                <path d="M927.513,749.664c4.815,-8.34 12.643,-21.899 12.643,-21.899" style="fill:none;stroke:rgb(145,120,199);stroke-width:10.42px;"/>
            </g>
            <g>
                <rect x="792.774" y="866.97" width="214.542" height="79.707" style="fill:rgb(125,97,186);stroke:rgb(125,97,186);stroke-width:10.42px;"/>
                <path d="M835.34,888.541l6.312,-0l-2.917,14.3l9.565,-0l2.917,-14.3l6.313,-0l-7.126,35l-6.313,-0l2.918,-14.4l-9.565,-0l-2.917,14.4l-6.265,-0l7.078,-35Z" style="fill:rgb(244,244,245);fill-rule:nonzero;"/>
                <path d="M884.215,908.041c0,2.333 -0.319,4.491 -0.956,6.475c-0.638,1.983 -1.578,3.691 -2.822,5.125c-1.243,1.433 -2.798,2.558 -4.663,3.375c-1.865,0.816 -4.025,1.225 -6.48,1.225c-1.402,-0 -2.718,-0.217 -3.945,-0.65c-1.228,-0.434 -2.304,-1.075 -3.228,-1.925c-0.925,-0.85 -1.658,-1.892 -2.2,-3.125c-0.542,-1.234 -0.813,-2.634 -0.813,-4.2c-0,-2.567 0.383,-4.859 1.148,-6.875c0.765,-2.017 1.809,-3.725 3.132,-5.125c1.323,-1.4 2.885,-2.467 4.687,-3.2c1.801,-0.734 3.738,-1.1 5.81,-1.1c1.499,-0 2.886,0.241 4.161,0.725c1.275,0.483 2.367,1.158 3.276,2.025c0.909,0.866 1.618,1.916 2.128,3.15c0.51,1.233 0.765,2.6 0.765,4.1Zm-14.012,10.3c1.148,-0.034 2.208,-0.3 3.18,-0.8c0.973,-0.5 1.802,-1.159 2.487,-1.975c0.685,-0.817 1.22,-1.775 1.602,-2.875c0.383,-1.1 0.574,-2.267 0.574,-3.5c-0,-1.734 -0.446,-3.042 -1.339,-3.925c-0.893,-0.884 -2.088,-1.325 -3.587,-1.325c-1.148,-0 -2.2,0.258 -3.156,0.775c-0.957,0.516 -1.786,1.2 -2.487,2.05c-0.701,0.85 -1.243,1.825 -1.626,2.925c-0.383,1.1 -0.574,2.25 -0.574,3.45c0,1.7 0.447,2.991 1.339,3.875c0.893,0.883 2.088,1.325 3.587,1.325Z" style="fill:rgb(244,244,245);fill-rule:nonzero;"/>
                <path d="M904.636,922.941c-0.638,0.466 -1.291,0.8 -1.961,1c-0.67,0.2 -1.323,0.3 -1.961,0.3c-0.701,-0 -1.371,-0.125 -2.008,-0.375c-0.638,-0.25 -1.196,-0.6 -1.674,-1.05c-0.478,-0.45 -0.853,-1 -1.124,-1.65c-0.271,-0.65 -0.407,-1.375 -0.407,-2.175c0,-0.6 0.064,-1.184 0.192,-1.75l5.213,-22.75l-0.479,-0.35l-6.408,4.6l-3.013,-4.7l6.934,-4.9c0.638,-0.467 1.292,-0.8 1.961,-1c0.67,-0.2 1.323,-0.3 1.961,-0.3c0.701,-0 1.371,0.125 2.009,0.375c0.637,0.25 1.195,0.6 1.673,1.05c0.479,0.45 0.853,1 1.124,1.65c0.271,0.65 0.407,1.375 0.407,2.175c-0,0.533 -0.064,1.116 -0.192,1.75l-5.212,22.75l0.478,0.35l6.408,-4.6l3.013,4.7l-6.934,4.9Z" style="fill:rgb(244,244,245);fill-rule:nonzero;"/>
                <path d="M938.973,917.591l0.478,0.35l2.583,-1.9l3.012,4.7l-3.108,2.2c-0.67,0.466 -1.331,0.8 -1.985,1c-0.653,0.2 -1.299,0.3 -1.937,0.3c-1.211,-0 -2.295,-0.35 -3.252,-1.05c-0.956,-0.7 -1.562,-1.684 -1.817,-2.95l-0.861,-0c-0.287,0.566 -0.621,1.091 -1.004,1.575c-0.383,0.483 -0.853,0.9 -1.411,1.25c-0.558,0.35 -1.211,0.633 -1.96,0.85c-0.75,0.216 -1.634,0.325 -2.655,0.325c-1.243,-0 -2.391,-0.259 -3.443,-0.775c-1.052,-0.517 -1.969,-1.234 -2.75,-2.15c-0.781,-0.917 -1.395,-1.992 -1.841,-3.225c-0.446,-1.234 -0.67,-2.584 -0.67,-4.05c0,-2.234 0.287,-4.317 0.861,-6.25c0.574,-1.934 1.403,-3.625 2.487,-5.075c1.084,-1.45 2.415,-2.592 3.993,-3.425c1.579,-0.834 3.356,-1.25 5.333,-1.25c1.689,-0 3.06,0.4 4.112,1.2c1.053,0.8 1.738,1.833 2.057,3.1l0.861,-0l2.917,-14.5l6.073,-0l-2.965,14.5l-3.108,15.25Zm-11.573,0.65c1.147,-0 2.168,-0.242 3.06,-0.725c0.893,-0.484 1.634,-1.125 2.224,-1.925c0.59,-0.8 1.044,-1.742 1.363,-2.825c0.319,-1.084 0.478,-2.225 0.478,-3.425c0,-1.567 -0.43,-2.842 -1.291,-3.825c-0.861,-0.984 -2.008,-1.475 -3.443,-1.475c-1.148,-0 -2.168,0.241 -3.061,0.725c-0.893,0.483 -1.642,1.125 -2.248,1.925c-0.605,0.8 -1.068,1.741 -1.386,2.825c-0.319,1.083 -0.479,2.225 -0.479,3.425c0,1.4 0.391,2.633 1.172,3.7c0.781,1.066 1.985,1.6 3.611,1.6Z" style="fill:rgb(244,244,245);fill-rule:nonzero;"/>
                <path d="M967.045,888.541l-4.973,24.1l-6.313,-0l4.974,-24.1l6.312,-0Zm-4.686,30.95c-0,0.666 -0.12,1.291 -0.359,1.875c-0.239,0.583 -0.566,1.083 -0.981,1.5c-0.414,0.416 -0.9,0.75 -1.458,1c-0.558,0.25 -1.14,0.375 -1.746,0.375c-0.637,-0 -1.227,-0.125 -1.769,-0.375c-0.542,-0.25 -1.02,-0.584 -1.435,-1c-0.414,-0.417 -0.741,-0.917 -0.98,-1.5c-0.239,-0.584 -0.359,-1.209 -0.359,-1.875c0,-0.667 0.12,-1.292 0.359,-1.875c0.239,-0.584 0.566,-1.084 0.98,-1.5c0.415,-0.417 0.893,-0.75 1.435,-1c0.542,-0.25 1.132,-0.375 1.769,-0.375c0.606,-0 1.188,0.125 1.746,0.375c0.558,0.25 1.044,0.583 1.458,1c0.415,0.416 0.742,0.916 0.981,1.5c0.239,0.583 0.359,1.208 0.359,1.875Z" style="fill:rgb(244,244,245);fill-rule:nonzero;"/>
            </g>
        </g>
        <path d="M663.389,369.306l21.252,-6.054l-6.055,-21.252" style="fill:none;stroke:url(#_Linear1);stroke-width:10.42px;stroke-linejoin:miter;stroke-miterlimit:10;"/>
        <path d="M832.807,369.306l-21.252,-6.054l6.055,-21.252" style="fill:none;stroke:url(#_Linear2);stroke-width:10.42px;stroke-linejoin:miter;stroke-miterlimit:10;"/>
        <path d="M684.641,363.252c-36.361,-21.674 -60.74,-61.393 -60.74,-106.762c0,-68.546 55.651,-124.196 124.197,-124.196c68.546,-0 124.197,55.65 124.197,124.196c-0,45.369 -24.379,85.088 -60.74,106.762" style="fill:none;stroke:url(#_Linear3);stroke-width:10.42px;"/>
        <path d="M967.283,369.306l21.251,-6.054l-6.054,-21.252" style="fill:none;stroke:url(#_Linear4);stroke-width:10.42px;stroke-linejoin:miter;stroke-miterlimit:10;"/>
        <path d="M1136.7,369.306l-21.251,-6.054l6.055,-21.252" style="fill:none;stroke:url(#_Linear5);stroke-width:10.42px;stroke-linejoin:miter;stroke-miterlimit:10;"/>
        <path d="M988.534,363.252c-36.36,-21.674 -60.739,-61.393 -60.739,-106.762c-0,-68.546 55.651,-124.196 124.197,-124.196c68.546,-0 124.196,55.65 124.196,124.196c0,45.369 -24.378,85.088 -60.739,106.762" style="fill:none;stroke:url(#_Linear6);stroke-width:10.42px;"/>
        <path d="M653.734,569.439l21.377,-5.598l-5.598,-21.376" style="fill:none;stroke:url(#_Linear7);stroke-width:10.42px;stroke-linejoin:miter;stroke-miterlimit:10;"/>
        <path d="M775.404,569.439l-21.376,-5.598l5.597,-21.376" style="fill:none;stroke:url(#_Linear8);stroke-width:10.42px;stroke-linejoin:miter;stroke-miterlimit:10;"/>
        <path d="M675.111,563.841c-19.65,-12.884 -32.638,-35.104 -32.638,-60.335c0,-39.791 32.305,-72.096 72.096,-72.096c39.791,0 72.096,32.305 72.096,72.096c0,25.231 -12.988,47.451 -32.637,60.335" style="fill:none;stroke:url(#_Linear9);stroke-width:10.42px;"/>
        <path d="M1024.44,569.439l21.376,-5.598l-5.597,-21.376" style="fill:none;stroke:url(#_Linear10);stroke-width:10.42px;stroke-linejoin:miter;stroke-miterlimit:10;"/>
        <path d="M1146.12,569.439l-21.377,-5.598l5.598,-21.376" style="fill:none;stroke:url(#_Linear11);stroke-width:10.42px;stroke-linejoin:miter;stroke-miterlimit:10;"/>
        <path d="M1045.82,563.841c-19.649,-12.884 -32.637,-35.104 -32.637,-60.335c-0,-39.791 32.305,-72.096 72.096,-72.096c39.791,0 72.096,32.305 72.096,72.096c-0,25.231 -12.988,47.451 -32.638,60.335" style="fill:none;stroke:url(#_Linear12);stroke-width:10.42px;"/>
        <path d="M839.21,492.081l21.376,-5.598l-5.597,-21.376" style="fill:none;stroke:url(#_Linear13);stroke-width:10.42px;stroke-linejoin:miter;stroke-miterlimit:10;"/>
        <path d="M960.88,492.081l-21.377,-5.598l5.598,-21.376" style="fill:none;stroke:url(#_Linear14);stroke-width:10.42px;stroke-linejoin:miter;stroke-miterlimit:10;"/>
        <path d="M860.586,486.483c-19.649,-12.884 -32.637,-35.104 -32.637,-60.335c-0,-39.79 32.305,-72.096 72.096,-72.096c39.791,0 72.096,32.306 72.096,72.096c-0,25.231 -12.988,47.451 -32.638,60.335" style="fill:none;stroke:url(#_Linear15);stroke-width:10.42px;"/>
    </g>
    <defs>
        <linearGradient id="_Linear1" x1="0" y1="0" x2="1" y2="0" gradientUnits="userSpaceOnUse" gradientTransform="matrix(248.393,0,0,248.393,623.901,249.564)"><stop offset="0" style="stop-color:rgb(230,33,109);stop-opacity:1"/><stop offset="0.24" style="stop-color:rgb(238,62,128);stop-opacity:1"/><stop offset="0.77" style="stop-color:rgb(118,188,194);stop-opacity:1"/><stop offset="1" style="stop-color:rgb(124,192,198);stop-opacity:1"/></linearGradient>
        <linearGradient id="_Linear2" x1="0" y1="0" x2="1" y2="0" gradientUnits="userSpaceOnUse" gradientTransform="matrix(248.393,0,0,248.393,623.901,249.564)"><stop offset="0" style="stop-color:rgb(230,33,109);stop-opacity:1"/><stop offset="0.24" style="stop-color:rgb(238,62,128);stop-opacity:1"/><stop offset="0.77" style="stop-color:rgb(118,188,194);stop-opacity:1"/><stop offset="1" style="stop-color:rgb(124,192,198);stop-opacity:1"/></linearGradient>
        <linearGradient id="_Linear3" x1="0" y1="0" x2="1" y2="0" gradientUnits="userSpaceOnUse" gradientTransform="matrix(248.393,0,0,248.393,623.901,249.564)"><stop offset="0" style="stop-color:rgb(230,33,109);stop-opacity:1"/><stop offset="0.24" style="stop-color:rgb(238,62,128);stop-opacity:1"/><stop offset="0.77" style="stop-color:rgb(118,188,194);stop-opacity:1"/><stop offset="1" style="stop-color:rgb(124,192,198);stop-opacity:1"/></linearGradient>
        <linearGradient id="_Linear4" x1="0" y1="0" x2="1" y2="0" gradientUnits="userSpaceOnUse" gradientTransform="matrix(248.393,0,0,248.393,927.795,249.564)"><stop offset="0" style="stop-color:rgb(230,33,109);stop-opacity:1"/><stop offset="0.24" style="stop-color:rgb(238,62,128);stop-opacity:1"/><stop offset="0.77" style="stop-color:rgb(118,188,194);stop-opacity:1"/><stop offset="1" style="stop-color:rgb(124,192,198);stop-opacity:1"/></linearGradient>
        <linearGradient id="_Linear5" x1="0" y1="0" x2="1" y2="0" gradientUnits="userSpaceOnUse" gradientTransform="matrix(248.393,0,0,248.393,927.795,249.564)"><stop offset="0" style="stop-color:rgb(230,33,109);stop-opacity:1"/><stop offset="0.24" style="stop-color:rgb(238,62,128);stop-opacity:1"/><stop offset="0.77" style="stop-color:rgb(118,188,194);stop-opacity:1"/><stop offset="1" style="stop-color:rgb(124,192,198);stop-opacity:1"/></linearGradient>
        <linearGradient id="_Linear6" x1="0" y1="0" x2="1" y2="0" gradientUnits="userSpaceOnUse" gradientTransform="matrix(248.393,0,0,248.393,927.795,249.564)"><stop offset="0" style="stop-color:rgb(230,33,109);stop-opacity:1"/><stop offset="0.24" style="stop-color:rgb(238,62,128);stop-opacity:1"/><stop offset="0.77" style="stop-color:rgb(118,188,194);stop-opacity:1"/><stop offset="1" style="stop-color:rgb(124,192,198);stop-opacity:1"/></linearGradient>
        <linearGradient id="_Linear7" x1="0" y1="0" x2="1" y2="0" gradientUnits="userSpaceOnUse" gradientTransform="matrix(144.192,0,0,144.192,642.473,499.485)"><stop offset="0" style="stop-color:rgb(230,33,109);stop-opacity:1"/><stop offset="0.24" style="stop-color:rgb(238,62,128);stop-opacity:1"/><stop offset="0.77" style="stop-color:rgb(118,188,194);stop-opacity:1"/><stop offset="1" style="stop-color:rgb(124,192,198);stop-opacity:1"/></linearGradient>
        <linearGradient id="_Linear8" x1="0" y1="0" x2="1" y2="0" gradientUnits="userSpaceOnUse" gradientTransform="matrix(144.192,0,0,144.192,642.473,499.485)"><stop offset="0" style="stop-color:rgb(230,33,109);stop-opacity:1"/><stop offset="0.24" style="stop-color:rgb(238,62,128);stop-opacity:1"/><stop offset="0.77" style="stop-color:rgb(118,188,194);stop-opacity:1"/><stop offset="1" style="stop-color:rgb(124,192,198);stop-opacity:1"/></linearGradient>
        <linearGradient id="_Linear9" x1="0" y1="0" x2="1" y2="0" gradientUnits="userSpaceOnUse" gradientTransform="matrix(144.192,0,0,144.192,642.473,499.485)"><stop offset="0" style="stop-color:rgb(230,33,109);stop-opacity:1"/><stop offset="0.24" style="stop-color:rgb(238,62,128);stop-opacity:1"/><stop offset="0.77" style="stop-color:rgb(118,188,194);stop-opacity:1"/><stop offset="1" style="stop-color:rgb(124,192,198);stop-opacity:1"/></linearGradient>
        <linearGradient id="_Linear10" x1="0" y1="0" x2="1" y2="0" gradientUnits="userSpaceOnUse" gradientTransform="matrix(144.192,0,0,144.192,1013.18,499.485)"><stop offset="0" style="stop-color:rgb(230,33,109);stop-opacity:1"/><stop offset="0.24" style="stop-color:rgb(238,62,128);stop-opacity:1"/><stop offset="0.77" style="stop-color:rgb(118,188,194);stop-opacity:1"/><stop offset="1" style="stop-color:rgb(124,192,198);stop-opacity:1"/></linearGradient>
        <linearGradient id="_Linear11" x1="0" y1="0" x2="1" y2="0" gradientUnits="userSpaceOnUse" gradientTransform="matrix(144.192,0,0,144.192,1013.18,499.485)"><stop offset="0" style="stop-color:rgb(230,33,109);stop-opacity:1"/><stop offset="0.24" style="stop-color:rgb(238,62,128);stop-opacity:1"/><stop offset="0.77" style="stop-color:rgb(118,188,194);stop-opacity:1"/><stop offset="1" style="stop-color:rgb(124,192,198);stop-opacity:1"/></linearGradient>
        <linearGradient id="_Linear12" x1="0" y1="0" x2="1" y2="0" gradientUnits="userSpaceOnUse" gradientTransform="matrix(144.192,0,0,144.192,1013.18,499.485)"><stop offset="0" style="stop-color:rgb(230,33,109);stop-opacity:1"/><stop offset="0.24" style="stop-color:rgb(238,62,128);stop-opacity:1"/><stop offset="0.77" style="stop-color:rgb(118,188,194);stop-opacity:1"/><stop offset="1" style="stop-color:rgb(124,192,198);stop-opacity:1"/></linearGradient>
        <linearGradient id="_Linear13" x1="0" y1="0" x2="1" y2="0" gradientUnits="userSpaceOnUse" gradientTransform="matrix(144.192,0,0,144.192,827.949,422.127)"><stop offset="0" style="stop-color:rgb(230,33,109);stop-opacity:1"/><stop offset="0.24" style="stop-color:rgb(238,62,128);stop-opacity:1"/><stop offset="0.77" style="stop-color:rgb(118,188,194);stop-opacity:1"/><stop offset="1" style="stop-color:rgb(124,192,198);stop-opacity:1"/></linearGradient>
        <linearGradient id="_Linear14" x1="0" y1="0" x2="1" y2="0" gradientUnits="userSpaceOnUse" gradientTransform="matrix(144.192,0,0,144.192,827.949,422.127)"><stop offset="0" style="stop-color:rgb(230,33,109);stop-opacity:1"/><stop offset="0.24" style="stop-color:rgb(238,62,128);stop-opacity:1"/><stop offset="0.77" style="stop-color:rgb(118,188,194);stop-opacity:1"/><stop offset="1" style="stop-color:rgb(124,192,198);stop-opacity:1"/></linearGradient>
        <linearGradient id="_Linear15" x1="0" y1="0" x2="1" y2="0" gradientUnits="userSpaceOnUse" gradientTransform="matrix(144.192,0,0,144.192,827.949,422.127)"><stop offset="0" style="stop-color:rgb(230,33,109);stop-opacity:1"/><stop offset="0.24" style="stop-color:rgb(238,62,128);stop-opacity:1"/><stop offset="0.77" style="stop-color:rgb(118,188,194);stop-opacity:1"/><stop offset="1" style="stop-color:rgb(124,192,198);stop-opacity:1"/></linearGradient>
    </defs>
</svg>
