<?xml version="1.0" encoding="UTF-8" standalone="no"?>
<!DOCTYPE svg PUBLIC "-//W3C//DTD SVG 1.1//EN" "http://www.w3.org/Graphics/SVG/1.1/DTD/svg11.dtd">
<svg width="100%" height="100%" viewBox="0 0 1801 1201" version="1.1" xmlns="http://www.w3.org/2000/svg" xmlns:xlink="http://www.w3.org/1999/xlink" xml:space="preserve" xmlns:serif="http://www.serif.com/" style="fill-rule:evenodd;clip-rule:evenodd;stroke-linecap:round;stroke-linejoin:round;stroke-miterlimit:1.5;">
    <rect id="_15---lfo-tweaks" serif:id="15 - lfo tweaks" x="0.134" y="0.444" width="1800" height="1200" style="fill:none;"/>
    <g id="_15---lfo-tweaks1" serif:id="15 - lfo tweaks">
        <g id="Base">
            <rect x="617.491" y="87.455" width="565.286" height="1025.98" style="fill:white;"/>
            <rect id="Outline" x="617.491" y="87.455" width="565.286" height="1025.98" style="fill:none;stroke:rgb(12,12,12);stroke-width:4.17px;"/>
            <path id="Mounting-holes" serif:id="Mounting holes" d="M693.342,1089.48c-0,-7.712 -6.261,-13.973 -13.973,-13.973l-3.992,0c-7.711,0 -13.972,6.261 -13.972,13.973c-0,7.711 6.261,13.972 13.972,13.972l3.992,0c7.712,0 13.973,-6.261 13.973,-13.972Zm-0,-978.073c-0,-7.712 -6.261,-13.973 -13.973,-13.973l-3.992,0c-7.711,0 -13.972,6.261 -13.972,13.973c-0,7.711 6.261,13.972 13.972,13.972l3.992,0c7.712,0 13.973,-6.261 13.973,-13.972Zm446.161,978.073c-0,-7.712 -6.261,-13.973 -13.973,-13.973l-3.992,0c-7.712,0 -13.972,6.261 -13.972,13.973c-0,7.711 6.26,13.972 13.972,13.972l3.992,0c7.712,0 13.973,-6.261 13.973,-13.972Zm-0,-978.073c-0,-7.712 -6.261,-13.973 -13.973,-13.973l-3.992,0c-7.712,0 -13.972,6.261 -13.972,13.973c-0,7.711 6.26,13.972 13.972,13.972l3.992,0c7.712,0 13.973,-6.261 13.973,-13.972Z" style="fill:rgb(213,213,213);"/>
            <g id="Legend">
                <path d="M685.673,1038.16c-0.052,1.13 0.314,1.682 1.097,1.656c0.475,0 0.834,-0.083 1.078,-0.25l0,3.042c-0.295,0.103 -0.68,0.167 -1.155,0.192c-0.501,0.052 -0.918,0.078 -1.252,0.078c-0.924,-0.026 -1.649,-0.366 -2.175,-1.021c-0.578,-0.629 -0.867,-1.393 -0.867,-2.291l-0.077,-0c-1.604,2.208 -3.799,3.312 -6.585,3.312c-2.991,-0.052 -5.224,-1.124 -6.7,-3.216c-1.502,-2.028 -2.253,-4.461 -2.253,-7.297c-0,-2.902 0.725,-5.398 2.176,-7.491c1.437,-2.13 3.709,-3.221 6.816,-3.273c2.759,0 4.929,1.117 6.508,3.35l0.077,0l-0,-2.965l3.312,0l-0,16.174Zm-9.377,1.887c1.026,0 1.906,-0.237 2.637,-0.712c0.706,-0.45 1.297,-1.053 1.772,-1.81c0.924,-1.553 1.386,-3.261 1.386,-5.122c0,-2.079 -0.423,-3.909 -1.271,-5.488c-0.86,-1.604 -2.426,-2.432 -4.698,-2.483c-2.015,0.051 -3.485,0.866 -4.409,2.445c-0.924,1.553 -1.386,3.273 -1.386,5.16c-0,2.003 0.462,3.806 1.386,5.411c0.924,1.681 2.452,2.548 4.583,2.599Z" style="fill:rgb(131,133,136);fill-rule:nonzero;"/>
                <path d="M674.029,363.483c-0.058,1.291 0.36,1.922 1.254,1.893c0.543,-0 0.954,-0.095 1.233,-0.286l-0,3.477c-0.338,0.117 -0.778,0.19 -1.321,0.22c-0.572,0.058 -1.048,0.088 -1.43,0.088c-1.056,-0.03 -1.885,-0.418 -2.486,-1.166c-0.661,-0.719 -0.991,-1.592 -0.991,-2.619l-0.088,-0c-1.833,2.523 -4.342,3.785 -7.526,3.785c-3.418,-0.059 -5.97,-1.284 -7.657,-3.675c-1.717,-2.318 -2.575,-5.098 -2.575,-8.34c0,-3.316 0.829,-6.169 2.487,-8.56c1.643,-2.435 4.239,-3.682 7.789,-3.741c3.155,-0 5.634,1.276 7.438,3.829l0.088,-0l0,-3.389l3.785,0l0,18.484Zm-10.716,2.157c1.173,0 2.178,-0.271 3.014,-0.814c0.807,-0.514 1.482,-1.203 2.025,-2.069c1.056,-1.775 1.584,-3.726 1.584,-5.853c0,-2.377 -0.484,-4.467 -1.452,-6.272c-0.983,-1.833 -2.773,-2.78 -5.369,-2.838c-2.304,0.058 -3.983,0.99 -5.04,2.794c-1.056,1.776 -1.584,3.741 -1.584,5.898c0,2.288 0.528,4.35 1.584,6.183c1.057,1.922 2.802,2.912 5.238,2.971Z" style="fill:rgb(131,133,136);fill-rule:nonzero;"/>
                <path d="M1114.09,1058.78l-3.505,-0l0,-27.034c0,-6.046 2.972,-9.126 8.915,-9.242c2.336,0 4.281,0.578 5.834,1.733c1.553,1.194 2.343,2.895 2.369,5.103c-0.026,3.465 -1.631,5.686 -4.814,6.662l-0,0.077c4.018,0.629 6.059,2.978 6.123,7.047c-0.026,2.4 -0.738,4.377 -2.137,5.93c-1.451,1.566 -3.408,2.362 -5.873,2.388c-1.502,-0 -2.766,-0.218 -3.793,-0.655c-1.053,-0.449 -2.093,-1.238 -3.119,-2.368l-0,10.359Zm0.057,-17.233c0,0.924 0.09,1.81 0.27,2.657c0.18,0.809 0.481,1.553 0.905,2.234c0.449,0.667 1.078,1.181 1.887,1.54c0.796,0.424 1.81,0.635 3.042,0.635c1.656,0 2.946,-0.539 3.87,-1.617c0.886,-1.027 1.329,-2.355 1.329,-3.986c-0.026,-1.938 -0.629,-3.318 -1.81,-4.139c-1.181,-0.758 -2.651,-1.136 -4.41,-1.136c-0.667,0.025 -1.341,0.064 -2.021,0.115l-0,-2.965c0.577,-0 1.129,-0.013 1.656,-0.039c1.476,-0.025 2.727,-0.43 3.754,-1.213c1.002,-0.77 1.515,-2.009 1.541,-3.716c-0.077,-3.042 -1.695,-4.563 -4.852,-4.563c-1.823,0.026 -3.139,0.565 -3.948,1.617c-0.808,1.079 -1.213,2.535 -1.213,4.371l0,10.205Z" style="fill:rgb(131,133,136);fill-rule:nonzero;"/>
                <path d="M1124.52,378.612l-4.005,0l0,-30.895c0,-6.91 3.396,-10.431 10.188,-10.563c2.67,0 4.893,0.66 6.668,1.981c1.775,1.364 2.677,3.308 2.707,5.831c-0.03,3.961 -1.863,6.499 -5.502,7.614l0,0.088c4.592,0.719 6.925,3.403 6.998,8.054c-0.029,2.743 -0.843,5.002 -2.442,6.777c-1.658,1.79 -3.895,2.7 -6.712,2.729c-1.717,0 -3.162,-0.249 -4.335,-0.748c-1.203,-0.514 -2.391,-1.416 -3.565,-2.707l0,11.839Zm0.066,-19.695c0,1.057 0.103,2.069 0.308,3.037c0.205,0.924 0.55,1.775 1.034,2.553c0.514,0.763 1.233,1.349 2.157,1.76c0.909,0.484 2.068,0.726 3.477,0.726c1.892,0 3.366,-0.616 4.423,-1.848c1.012,-1.174 1.518,-2.692 1.518,-4.555c-0.029,-2.215 -0.719,-3.792 -2.068,-4.731c-1.35,-0.866 -3.03,-1.299 -5.04,-1.299c-0.762,0.03 -1.533,0.074 -2.31,0.132l-0,-3.388c0.66,-0 1.291,-0.015 1.892,-0.044c1.687,-0.03 3.118,-0.492 4.291,-1.387c1.145,-0.88 1.731,-2.296 1.761,-4.247c-0.088,-3.477 -1.937,-5.215 -5.546,-5.215c-2.083,0.029 -3.586,0.645 -4.511,1.848c-0.924,1.233 -1.386,2.898 -1.386,4.996l0,11.662Z" style="fill:rgb(131,133,136);fill-rule:nonzero;"/>
                <path d="M902.533,511.892c2.655,-0.088 4.687,-0.91 6.095,-2.465c1.379,-1.599 2.069,-3.66 2.069,-6.183c-0.03,-5.399 -2.751,-8.34 -8.164,-8.825l-0,17.473Zm-4.049,3.52c-3.506,-0.058 -6.433,-1.137 -8.78,-3.234c-2.406,-2.084 -3.638,-4.908 -3.697,-8.472c-0,-3.844 1.108,-6.925 3.323,-9.243c2.2,-2.347 5.252,-3.535 9.154,-3.564l-0,-3.653l4.049,-0l-0,3.653c3.946,0.029 7.012,1.217 9.198,3.564c2.171,2.318 3.272,5.399 3.301,9.243c-0.059,3.564 -1.276,6.388 -3.653,8.472c-2.347,2.097 -5.296,3.176 -8.846,3.234l-0,3.653l-4.049,0l-0,-3.653Zm-0,-20.993c-5.443,0.485 -8.164,3.426 -8.164,8.825c-0,2.523 0.726,4.584 2.178,6.183c1.379,1.555 3.375,2.377 5.986,2.465l-0,-17.473Z" style="fill:rgb(131,133,136);fill-rule:nonzero;"/>
                <g>
                    <path d="M726.963,584.315l-19.82,0.059l-0.125,-17.108l-6.688,-0l-0,17.049" style="fill:none;stroke:rgb(131,133,136);stroke-width:6.25px;"/>
                    <path d="M721.97,570.336l4.03,4.03l-4.03,4.029" style="fill:none;stroke:rgb(131,133,136);stroke-width:4.23px;stroke-linejoin:miter;stroke-miterlimit:10;"/>
                    <path d="M707.197,574.366l18.803,-0" style="fill:none;stroke:rgb(131,133,136);stroke-width:4.23px;stroke-dasharray:0.04,5.07,0,0;stroke-dashoffset:21.13;"/>
                </g>
                <g>
                    <path d="M1073.07,584.315l19.82,0.059l0.125,-17.108l6.688,-0l0,17.049" style="fill:none;stroke:rgb(131,133,136);stroke-width:6.25px;"/>
                    <path d="M1078.06,578.395l-4.03,-4.029l4.03,-4.03" style="fill:none;stroke:rgb(131,133,136);stroke-width:4.23px;stroke-linejoin:miter;stroke-miterlimit:10;"/>
                    <path d="M1092.83,574.366l-18.803,-0" style="fill:none;stroke:rgb(131,133,136);stroke-width:4.23px;stroke-dasharray:0.04,5.07,0,0;stroke-dashoffset:21.13;"/>
                </g>
                <path d="M905.163,681.207l-0,-0.374l-7.988,-10.716l13.687,-0l-0,-5.018l-22.093,0l-0,3.345l9.858,12.565l-9.858,12.785l-0,3.323l22.731,0l0,-4.929l-14.435,-0l8.098,-10.981Z" style="fill:rgb(131,133,136);fill-rule:nonzero;"/>
                <path d="M789.051,1021.7l-2.893,7.702l-7.264,-0l6.14,4.62l-2.955,7.764l6.972,-5.245l6.994,5.245l-2.977,-7.764l6.14,-4.62l-7.284,-0l-2.873,-7.702Z" style="fill:rgb(131,133,136);fill-rule:nonzero;"/>
                <path d="M1009.09,1020.34l-3.285,8.744l-8.247,-0l6.971,5.246l-3.356,8.814l7.917,-5.955l7.94,5.955l-3.38,-8.814l6.971,-5.246l-8.27,-0l-3.261,-8.744Zm-0,3.167l2.481,6.687l5.742,0l-4.986,3.758l2.316,6.025l-5.553,-4.159l-5.553,4.159l2.315,-6.025l-4.986,-3.758l5.719,0l2.505,-6.687Z" style="fill:rgb(131,133,136);fill-rule:nonzero;"/>
                <path d="M894.944,1024.67c-1.497,-0.198 -3.009,-0.528 -4.539,-0.99l0,-1.981c3.103,0.804 6.354,1.205 9.754,1.205c3.4,0 6.635,-0.401 9.704,-1.205l0,2.014c-1.573,0.429 -3.102,0.748 -4.588,0.957l0,14.128c1.486,0.209 3.015,0.522 4.588,0.94l0,2.047c-3.069,-0.814 -6.304,-1.222 -9.704,-1.222c-3.4,0 -6.651,0.408 -9.754,1.222l0,-1.981c1.53,-0.484 3.042,-0.819 4.539,-1.006l-0,-14.128Zm2.046,13.979c2.08,-0.231 4.159,-0.231 6.239,-0l-0,-13.83c-2.08,0.231 -4.159,0.231 -6.239,-0l0,13.83Z" style="fill:rgb(131,133,136);fill-rule:nonzero;"/>
                <path d="M967.713,1088.11c-4.386,0.296 -6.233,3.205 -7.214,6.269c-0.864,2.695 -1.831,5.477 -2.884,6.907c-0.584,0.794 -1.235,1.201 -1.868,1.201c-0.628,-0 -1.089,-0.332 -1.384,-0.954c-0.449,-0.948 -0.438,-2.803 -0.318,-4.661c0.093,-1.457 0.237,-2.915 0.174,-3.848c-0.009,-0.135 -0.038,-0.288 -0.062,-0.402c-0.054,0.029 -0.109,0.067 -0.165,0.109c-0.206,0.155 -0.411,0.381 -0.618,0.65c-0.719,0.933 -1.43,2.348 -2.102,3.576c-0.574,1.048 -1.132,1.965 -1.629,2.426c-0.338,0.313 -0.681,0.452 -0.988,0.452c-0.581,0 -0.999,-0.354 -1.16,-1.093c-0.206,-0.945 0.081,-2.799 0.418,-4.651c0.267,-1.467 0.556,-2.933 0.566,-3.872c0.002,-0.12 -0.012,-0.254 -0.026,-0.36c-0.08,0.047 -0.16,0.118 -0.246,0.197c-0.259,0.239 -0.517,0.585 -0.778,0.998c-0.87,1.375 -1.736,3.457 -2.526,5.266c-0.649,1.488 -1.258,2.798 -1.768,3.453c-0.366,0.471 -0.758,0.66 -1.064,0.66c-0.58,-0 -0.979,-0.302 -1.207,-0.864c-0.313,-0.772 -0.197,-2.284 0.025,-3.797c0.139,-0.938 0.303,-1.877 0.373,-2.599c0.018,-0.178 0.02,-0.378 0.017,-0.54c-0.052,0.026 -0.107,0.054 -0.167,0.084c-0.479,0.242 -1.094,0.632 -1.794,1.063c-1.226,0.756 -2.696,1.62 -4.153,2.132c-0.297,1.175 -0.776,2.292 -1.407,3.163c-0.839,1.157 -1.945,1.886 -3.232,1.886c-1.133,0 -1.837,-0.575 -2.285,-1.392c-0.377,-0.688 -0.553,-1.571 -0.66,-2.358c-0.049,-0.354 -0.114,-0.777 -0.159,-1.067c-0.232,0.1 -0.544,0.238 -0.824,0.371c-0.495,0.234 -1.072,0.492 -1.691,0.702c-0.261,1.228 -0.709,2.397 -1.311,3.305c-0.793,1.196 -1.856,1.942 -3.081,1.942c-1.089,0 -1.803,-0.605 -2.264,-1.488c-0.383,-0.734 -0.579,-1.675 -0.701,-2.513c-0.052,-0.358 -0.091,-0.695 -0.129,-0.982c-0.148,0.171 -0.305,0.372 -0.474,0.585c-0.498,0.629 -1.079,1.347 -1.731,1.825c-0.516,0.379 -1.079,0.613 -1.676,0.613c-1.072,-0 -1.909,-0.522 -2.52,-1.427c-0.503,-0.745 -0.846,-1.776 -1.037,-2.967c-0.877,0.639 -1.85,1.195 -2.802,1.701c-0.005,0.124 -0.013,0.248 -0.024,0.371c-0.128,1.327 -0.762,2.78 -1.573,3.73c-0.627,0.734 -1.372,1.164 -2.07,1.164c-0.364,0 -0.788,-0.141 -1.16,-0.413c-0.531,-0.388 -0.95,-1.031 -0.95,-1.796c0,-0.771 0.582,-1.515 1.615,-2.195c0.773,-0.509 1.813,-1.014 2.915,-1.579c-0.069,-0.747 -0.295,-1.467 -0.658,-1.991c-0.273,-0.393 -0.623,-0.675 -1.065,-0.675c-1.366,-0 -2.274,0.793 -2.925,1.794c-0.73,1.122 -1.151,2.506 -1.47,3.541c-0.222,0.721 -0.412,1.292 -0.593,1.573c-0.22,0.342 -0.496,0.45 -0.731,0.45c-0.126,0 -0.261,-0.033 -0.392,-0.132c-0.083,-0.062 -0.225,-0.217 -0.319,-0.511c-0.147,-0.46 -0.328,-1.594 -0.476,-3.115c-0.586,0.938 -1.163,1.794 -1.704,2.526c-0.862,1.164 -1.646,2.022 -2.239,2.436c-0.371,0.259 -0.705,0.367 -0.968,0.367c-1.145,-0 -1.788,-0.804 -1.986,-2.151c-0.224,-1.522 0.134,-3.827 0.481,-5.829c0.176,-1.017 0.347,-1.953 0.42,-2.651c0.02,-0.189 0.023,-0.399 0.022,-0.557c-0.529,0.043 -1.105,0.169 -1.688,0.296c-0.39,2.129 -1.583,4.679 -3.14,6.52c-1.316,1.555 -2.898,2.589 -4.447,2.589c-1.878,-0 -3.236,-0.733 -4.159,-1.859c-1.166,0.977 -2.459,1.584 -3.745,1.584c-1.357,0 -2.486,-1.031 -3.266,-2.806c-0.257,-0.584 -0.48,-1.25 -0.67,-1.979c-0.606,1.225 -1.218,2.338 -1.811,3.271c-0.707,1.112 -1.393,1.975 -2.005,2.491c-0.522,0.441 -1.021,0.646 -1.45,0.646c-0.929,0 -1.588,-0.631 -1.954,-1.764c-0.415,-1.285 -0.469,-3.29 -0.448,-5.296c0.02,-1.9 0.102,-3.799 -0.056,-5.015c-0.036,-0.273 -0.082,-0.507 -0.151,-0.688c-0.012,-0.029 -0.029,-0.064 -0.045,-0.093c-0.039,0.025 -0.076,0.068 -0.12,0.11c-0.17,0.161 -0.335,0.398 -0.504,0.686c-0.592,1.012 -1.171,2.594 -1.742,4.175c-0.703,1.944 -1.398,3.884 -2.061,4.876c-0.427,0.639 -0.912,0.929 -1.326,0.929c-0.476,0 -0.886,-0.292 -1.118,-0.932c-0.298,-0.82 -0.317,-2.425 -0.306,-4.031c0.009,-1.26 0.029,-2.52 -0.119,-3.327c-0.025,-0.134 -0.079,-0.292 -0.114,-0.385c-0.282,0.061 -0.517,0.304 -0.76,0.612c-0.601,0.765 -1.124,1.963 -1.678,3.158c-0.605,1.303 -1.245,2.601 -2.005,3.435c-0.612,0.671 -1.308,1.062 -2.096,1.062c-1.255,-0 -1.932,-0.891 -2.088,-2.461c-0.179,-1.8 0.33,-4.615 0.82,-7.428c0.176,-1.01 0.35,-2.02 0.483,-2.978c-0.227,0.045 -0.462,0.067 -0.706,0.067c-2.559,0 -3.342,-2.393 -2.858,-4.35c0.335,-1.356 1.286,-2.417 2.507,-2.417c1.399,0 2.154,0.893 2.413,2.419c0.093,0.549 0.117,1.192 0.092,1.9c0.085,-0.118 0.166,-0.242 0.242,-0.372c0.622,-1.056 0.948,-2.466 0.99,-3.874c0.043,-1.405 -0.197,-2.812 -0.743,-3.865c-0.476,-0.919 -1.188,-1.563 -2.186,-1.563c-1.67,0 -3.059,0.997 -4.134,2.552c-1.738,2.517 -2.648,6.468 -2.505,10.477c0.186,5.164 1.296,10.426 0.689,13.117c-0.193,0.858 -0.556,1.489 -1.091,1.869c-0.379,0.27 -0.85,0.424 -1.435,0.424c-1.009,0 -1.887,-0.622 -2.608,-1.642c-0.915,-1.295 -1.603,-3.251 -2.152,-4.955c-0.346,-1.071 -0.636,-2.036 -0.905,-2.635c-0.011,-0.024 -0.023,-0.049 -0.036,-0.074l-0.031,0.044c-0.322,0.483 -0.685,1.26 -1.082,2.122c-0.751,1.627 -1.619,3.531 -2.513,4.532c-0.511,0.572 -1.06,0.871 -1.583,0.871c-0.615,-0 -1.146,-0.419 -1.46,-1.321c-0.484,-1.392 -0.531,-4.184 -0.498,-7.347c0.042,-3.908 0.187,-8.402 -0.39,-11.372c-0.176,-0.907 -0.413,-1.662 -0.762,-2.187c-0.259,-0.389 -0.577,-0.634 -1.005,-0.634c-0.738,-0 -1.252,0.635 -1.667,1.487c-0.764,1.57 -1.09,3.92 -1.053,5.847c0.061,3.193 1.142,5.223 1.142,5.223c0.161,0.298 0.049,0.671 -0.25,0.832c-0.298,0.161 -0.671,0.049 -0.832,-0.25c0,0 -1.221,-2.243 -1.288,-5.782c-0.041,-2.112 0.338,-4.686 1.176,-6.408c0.655,-1.344 1.607,-2.178 2.772,-2.178c1.302,0 2.225,1.027 2.739,2.823c0.64,2.237 0.715,5.732 0.687,9.227c-0.031,3.943 -0.196,7.886 0.271,9.897c0.067,0.287 0.145,0.528 0.245,0.713c0.055,0.101 0.084,0.201 0.173,0.201c0.127,-0 0.246,-0.077 0.372,-0.177c0.21,-0.166 0.415,-0.408 0.62,-0.696c0.711,-0.996 1.383,-2.505 1.988,-3.815c0.509,-1.105 0.98,-2.075 1.374,-2.561c0.316,-0.389 0.655,-0.537 0.921,-0.537c0.246,0 0.543,0.121 0.795,0.477c0.254,0.358 0.532,1.086 0.832,2.004c0.537,1.641 1.19,3.942 2.141,5.518c0.521,0.861 1.095,1.524 1.867,1.524c0.593,0 0.954,-0.297 1.166,-0.808c0.186,-0.449 0.274,-1.029 0.307,-1.708c0.138,-2.843 -0.707,-7.267 -0.864,-11.621c-0.154,-4.296 0.859,-8.522 2.722,-11.219c1.327,-1.921 3.084,-3.083 5.145,-3.083c1.193,0 2.141,0.573 2.834,1.51c0.93,1.258 1.383,3.219 1.323,5.184c-0.059,1.961 -0.626,3.916 -1.65,5.171c-0.286,0.35 -0.606,0.648 -0.96,0.883c-0.137,1.18 -0.349,2.453 -0.571,3.725c-0.468,2.688 -0.979,5.375 -0.807,7.095c0.078,0.782 0.24,1.354 0.865,1.354c0.597,-0 1.06,-0.447 1.5,-1.044c0.549,-0.747 1.024,-1.745 1.486,-2.741c0.598,-1.29 1.178,-2.575 1.828,-3.401c0.554,-0.704 1.181,-1.096 1.862,-1.096c0.453,0 0.861,0.291 1.075,0.955c0.262,0.815 0.261,2.411 0.25,4.009c-0.009,1.254 -0.019,2.507 0.151,3.31c0.024,0.112 0.072,0.241 0.11,0.334c0.009,-0.008 0.018,-0.017 0.026,-0.026c0.153,-0.163 0.304,-0.401 0.46,-0.691c0.546,-1.017 1.105,-2.607 1.679,-4.195c0.706,-1.954 1.442,-3.903 2.178,-4.899c0.453,-0.614 0.956,-0.906 1.415,-0.906c0.475,-0 0.882,0.279 1.121,0.907c0.308,0.805 0.344,2.42 0.318,4.25c-0.032,2.177 -0.129,4.681 0.233,6.336c0.084,0.382 0.191,0.714 0.338,0.972c0.14,0.244 0.313,0.415 0.573,0.415c0.202,-0 0.412,-0.149 0.658,-0.356c0.54,-0.457 1.135,-1.229 1.76,-2.212c0.798,-1.256 1.633,-2.847 2.437,-4.597c-0.28,-1.727 -0.412,-3.65 -0.401,-5.573c0.008,-1.439 0.097,-2.878 0.261,-4.234c-3.47,0.193 -5.198,0.494 -5.198,0.494c-0.267,0.047 -0.522,-0.132 -0.568,-0.399c-0.047,-0.267 0.132,-0.522 0.399,-0.569c-0,-0 1.829,-0.321 5.503,-0.518c0.341,-2.218 0.893,-4.144 1.631,-5.386c0.668,-1.124 1.512,-1.725 2.434,-1.725c0.793,0 1.346,0.489 1.58,1.468c0.242,1.011 0.115,2.678 -0.306,4.689c-0.055,0.262 -0.115,0.531 -0.18,0.806c2.33,-0.014 5.042,0.033 8.139,0.184c0.271,0.013 0.48,0.244 0.467,0.515c-0.013,0.271 -0.244,0.48 -0.515,0.467c-3.191,-0.156 -5.97,-0.2 -8.336,-0.181c-0.829,3.167 -2.176,6.888 -3.64,10.13c0.223,1.256 0.533,2.387 0.935,3.302c0.541,1.228 1.203,2.071 2.142,2.071c1.064,0 2.113,-0.556 3.067,-1.389c-0.882,-1.696 -1.088,-3.883 -0.802,-5.844c0.227,-1.551 0.763,-2.942 1.469,-3.811c0.565,-0.696 1.249,-1.078 1.975,-1.078c0.784,0 1.366,0.25 1.784,0.656c0.583,0.566 0.855,1.485 0.793,2.611c-0.122,2.25 -1.564,5.408 -3.565,7.568l-0.085,0.091c0.719,0.893 1.78,1.471 3.268,1.471c1.05,-0 2.085,-0.662 3.019,-1.615c1.522,-1.553 2.753,-3.904 3.247,-5.948l0.014,-0.062c-0.306,0.046 -0.605,0.075 -0.891,0.075c-1.945,0 -2.706,-1.713 -2.397,-3.093c0.216,-0.966 0.94,-1.754 2.094,-1.754c0.782,0 1.367,0.253 1.793,0.667c0.579,0.565 0.865,1.476 0.842,2.592c0.677,-0.147 1.341,-0.284 1.926,-0.284c0.318,0 0.575,0.145 0.736,0.482c0.09,0.187 0.146,0.502 0.132,0.923c-0.026,0.742 -0.242,1.934 -0.471,3.259c-0.325,1.87 -0.686,4.019 -0.477,5.44c0.091,0.618 0.245,1.101 0.771,1.101c0.031,0 0.062,-0.024 0.103,-0.045c0.112,-0.059 0.234,-0.148 0.367,-0.26c0.492,-0.412 1.09,-1.11 1.749,-2c0.793,-1.072 1.664,-2.416 2.528,-3.896c-0.262,-4.332 -0.181,-10.219 1.062,-13.478c0.667,-1.747 1.7,-2.77 3.038,-2.77c0.64,-0 1.131,0.189 1.5,0.51c0.36,0.312 0.61,0.76 0.738,1.334c0.207,0.929 0.085,2.241 -0.303,3.77c-0.81,3.19 -2.76,7.395 -4.786,10.922c0.009,0.136 0.019,0.27 0.028,0.402c0.075,1.026 0.167,1.936 0.263,2.66c0.343,-1.112 0.809,-2.548 1.575,-3.725c0.873,-1.343 2.123,-2.353 3.955,-2.353c0.84,0 1.555,0.455 2.074,1.203c0.39,0.562 0.667,1.298 0.803,2.083c0.963,-0.528 1.921,-1.117 2.742,-1.807c-0.014,-0.233 -0.023,-0.47 -0.027,-0.71c-0.061,-3.527 0.889,-7.667 2.37,-9.836c0.749,-1.097 1.655,-1.71 2.602,-1.71c0.549,0 0.966,0.175 1.275,0.464c0.413,0.387 0.644,1.022 0.633,1.854c-0.033,2.518 -2.327,7.192 -5.378,10.252c-0.067,0.067 -0.135,0.134 -0.205,0.199c0.1,1.029 0.308,1.957 0.65,2.686c0.392,0.837 0.957,1.399 1.79,1.399c0.443,0 0.837,-0.258 1.206,-0.582c0.46,-0.405 0.872,-0.927 1.238,-1.39c0.403,-0.51 0.767,-0.952 1.072,-1.176c0.244,-0.18 0.481,-0.255 0.691,-0.255c0.211,-0 0.422,0.08 0.588,0.313c0.062,0.087 0.126,0.219 0.174,0.396c0.062,0.226 0.11,0.573 0.162,0.987c0.094,0.743 0.207,1.735 0.532,2.54c0.248,0.613 0.615,1.128 1.312,1.128c0.836,-0 1.516,-0.578 2.058,-1.394c0.425,-0.641 0.76,-1.433 0.991,-2.28c-0.306,0.05 -0.616,0.079 -0.925,0.079c-3.118,-0 -4.288,-2.794 -3.861,-5.049c0.299,-1.579 1.372,-2.847 3,-2.847c2.144,-0 3.281,2.052 3.383,4.635c0.019,0.473 0.004,0.962 -0.042,1.454c0.538,-0.221 1.024,-0.465 1.42,-0.653c0.551,-0.263 0.982,-0.415 1.21,-0.415c0.262,-0 0.511,0.114 0.687,0.425c0.12,0.212 0.21,0.642 0.278,1.186c0.085,0.683 0.169,1.595 0.477,2.334c0.235,0.563 0.614,1.021 1.335,1.021c0.904,0 1.648,-0.566 2.237,-1.378c0.427,-0.588 0.77,-1.305 1.022,-2.075c-0.311,0.053 -0.617,0.081 -0.916,0.081c-3.099,0 -4.345,-2.798 -3.859,-5.05c0.334,-1.551 1.468,-2.825 3.319,-2.825c2.066,0 3.154,2.019 3.186,4.566c0.007,0.475 -0.023,0.967 -0.085,1.461c1.144,-0.486 2.273,-1.18 3.243,-1.778c0.866,-0.534 1.614,-1.003 2.149,-1.238c0.32,-0.141 0.59,-0.205 0.792,-0.205c0.402,-0 0.746,0.227 0.864,0.806c0.104,0.509 -0.016,1.531 -0.194,2.687c-0.203,1.317 -0.468,2.831 -0.381,3.832c0.014,0.159 0.037,0.302 0.075,0.423c0.016,0.051 0.02,0.106 0.04,0.137c0.043,-0.041 0.105,-0.102 0.148,-0.158c0.124,-0.159 0.253,-0.366 0.389,-0.607c0.567,-1.008 1.217,-2.583 1.909,-4.158c0.847,-1.93 1.764,-3.852 2.651,-4.836c0.51,-0.568 1.046,-0.85 1.54,-0.85c0.361,0 0.638,0.162 0.828,0.486c0.144,0.244 0.231,0.649 0.225,1.18c-0.011,0.988 -0.305,2.534 -0.586,4.078c-0.264,1.452 -0.521,2.902 -0.468,3.831c0.008,0.138 0.044,0.3 0.071,0.404c0.029,-0.02 0.06,-0.043 0.083,-0.065c0.109,-0.101 0.219,-0.232 0.334,-0.385c0.509,-0.679 1.058,-1.742 1.633,-2.803c0.615,-1.134 1.258,-2.265 1.896,-2.992c0.553,-0.628 1.139,-0.964 1.682,-0.964c0.421,-0 0.787,0.243 0.966,0.829c0.193,0.628 0.152,1.891 0.054,3.32c-0.116,1.666 -0.292,3.582 -0.086,4.848c0.045,0.276 0.106,0.515 0.201,0.702c0.062,0.122 0.131,0.222 0.259,0.222c0.179,0 0.339,-0.115 0.508,-0.273c0.264,-0.247 0.516,-0.606 0.766,-1.042c0.838,-1.463 1.601,-3.734 2.308,-5.939c1.148,-3.587 3.368,-6.946 8.649,-7.139l0.07,-0.328c0.031,-0.147 0.176,-0.24 0.322,-0.209l0.328,0.07c0.146,0.031 0.239,0.176 0.208,0.322l-0.058,0.271c0.003,0.003 0.006,0.005 0.009,0.008l0.257,0.05l0.061,-0.285c0.043,-0.202 0.241,-0.331 0.443,-0.288l0.459,0.098c0.202,0.043 0.331,0.242 0.288,0.444l-0.057,0.267l0.244,0.048l0.053,-0.271c0.046,-0.234 0.271,-0.389 0.506,-0.349l4.15,0.714c0.244,0.042 0.405,0.276 0.357,0.519l-0.013,0.065l0.03,0.006c0.122,0.024 0.211,0.121 0.231,0.237l3.661,0.721c0.168,0.033 0.3,0.144 0.368,0.287l1.243,0.148l0.347,0.461l-0.08,0.41l-0.497,0.295l-1.203,-0.337c-0.117,0.108 -0.283,0.161 -0.452,0.128l-3.661,-0.721c-0.062,0.1 -0.182,0.156 -0.304,0.131l-0.03,-0.005l-0.012,0.065c-0.048,0.242 -0.286,0.398 -0.527,0.344l-4.111,-0.913c-0.233,-0.052 -0.382,-0.28 -0.336,-0.515l0.053,-0.27l-0.262,-0.052l-0.061,0.286c-0.043,0.202 -0.242,0.33 -0.443,0.287l-0.459,-0.098c-0.202,-0.043 -0.331,-0.241 -0.288,-0.443l0.057,-0.267l-0.266,-0.053l-0.062,0.291c-0.032,0.146 -0.176,0.24 -0.322,0.208l-0.328,-0.069c-0.146,-0.032 -0.24,-0.176 -0.209,-0.322l0.031,-0.141Zm-61.84,10.381c-0.464,0.238 -0.908,0.468 -1.315,0.693c-0.607,0.335 -1.128,0.657 -1.495,0.993c-0.247,0.227 -0.43,0.437 -0.43,0.69c0,0.346 0.205,0.629 0.446,0.804c0.141,0.104 0.296,0.176 0.435,0.176c0.397,0 0.778,-0.315 1.135,-0.733c0.577,-0.676 1.044,-1.664 1.224,-2.623Zm-27.744,-0.717c1.309,-1.471 2.341,-3.4 2.815,-5.109c0.233,-0.839 0.332,-1.621 0.243,-2.258c-0.054,-0.38 -0.171,-0.703 -0.398,-0.923c-0.215,-0.208 -0.525,-0.308 -0.928,-0.308c-0.386,0 -0.721,0.253 -1.022,0.624c-0.593,0.73 -1.015,1.91 -1.206,3.214c-0.229,1.57 -0.127,3.348 0.496,4.76Zm45.705,-1.514c0.088,-0.617 0.123,-1.239 0.099,-1.832c-0.039,-0.986 -0.235,-1.894 -0.64,-2.552c-0.337,-0.549 -0.832,-0.902 -1.515,-0.902c-1.013,-0 -1.607,0.864 -1.793,1.846c-0.3,1.585 0.463,3.592 2.654,3.592c0.401,-0 0.803,-0.058 1.195,-0.152Zm10.286,-1.297c0.117,-0.638 0.175,-1.283 0.167,-1.896c-0.013,-0.962 -0.181,-1.847 -0.556,-2.488c-0.306,-0.525 -0.763,-0.865 -1.402,-0.865c-1.196,0 -1.902,0.853 -2.118,1.855c-0.34,1.575 0.491,3.563 2.658,3.563c0.406,-0 0.826,-0.062 1.251,-0.169Zm-35.844,-1.071c1.609,-3.014 3.049,-6.304 3.709,-8.902c0.33,-1.3 0.471,-2.412 0.295,-3.201c-0.063,-0.284 -0.166,-0.518 -0.344,-0.673c-0.169,-0.147 -0.402,-0.21 -0.695,-0.21c-0.89,0 -1.446,0.817 -1.89,1.981c-1.017,2.664 -1.2,7.157 -1.075,11.005Zm12.753,-0.397c2.144,-2.381 3.816,-5.518 4.295,-7.742c0.124,-0.579 0.168,-1.088 0.098,-1.49c-0.035,-0.201 -0.094,-0.37 -0.212,-0.481c-0.104,-0.096 -0.251,-0.132 -0.435,-0.132c-0.369,-0 -0.707,0.195 -1.028,0.5c-0.403,0.385 -0.767,0.939 -1.092,1.602c-0.994,2.027 -1.605,5.039 -1.626,7.743Zm-37.589,-8.912c-0.915,0.018 -1.76,0.044 -2.535,0.077c-0.173,1.37 -0.264,2.836 -0.273,4.302c-0.006,1.135 0.038,2.271 0.134,3.363c1.067,-2.571 2.019,-5.31 2.674,-7.742Zm15.097,6.876c0.026,-0.36 0.017,-0.696 -0.032,-1.001c-0.064,-0.397 -0.192,-0.733 -0.428,-0.963c-0.22,-0.215 -0.531,-0.319 -0.935,-0.319c-0.505,0 -0.8,0.37 -0.895,0.794c-0.158,0.703 0.206,1.595 1.198,1.595c0.349,0 0.716,-0.043 1.092,-0.106Zm-40.818,-5.215c0.099,-1.05 0.116,-1.996 -0.013,-2.753c-0.139,-0.823 -0.447,-1.396 -1.201,-1.396c-0.694,0 -1.124,0.711 -1.314,1.483c-0.305,1.233 0.052,2.827 1.665,2.827c0.31,-0 0.598,-0.057 0.863,-0.161Zm25.974,-2.648c0.09,-0.368 0.171,-0.726 0.244,-1.073c0.373,-1.781 0.529,-3.255 0.314,-4.151c-0.07,-0.296 -0.145,-0.525 -0.385,-0.525c-0.331,-0 -0.622,0.18 -0.893,0.466c-0.358,0.376 -0.668,0.923 -0.943,1.592c-0.422,1.027 -0.751,2.324 -0.983,3.765c0.809,-0.033 1.691,-0.059 2.646,-0.074Z" style="fill:rgb(131,133,136);"/>
                <path d="M754.538,121.717c0.834,-0 1.55,-0.135 2.147,-0.406c0.597,-0.27 1.098,-0.625 1.504,-1.064c0.405,-0.44 0.727,-0.947 0.963,-1.521c0.237,-0.575 0.423,-1.155 0.558,-1.741l0.135,-0.608l4.462,-0l-0.136,0.608c-0.315,1.465 -0.743,2.743 -1.284,3.836c-0.541,1.093 -1.228,2.006 -2.062,2.738c-0.833,0.732 -1.825,1.284 -2.974,1.656c-1.149,0.372 -2.501,0.558 -4.056,0.558c-1.059,-0 -2.028,-0.158 -2.907,-0.473c-0.879,-0.316 -1.634,-0.778 -2.265,-1.386c-0.63,-0.608 -1.121,-1.346 -1.47,-2.214c-0.349,-0.868 -0.524,-1.865 -0.524,-2.991c0,-0.406 0.023,-0.811 0.068,-1.217c0.045,-0.406 0.124,-0.868 0.236,-1.386l1.116,-5.273c0.698,-3.267 1.938,-5.695 3.718,-7.284c1.78,-1.588 4.101,-2.383 6.963,-2.383c1.126,0 2.135,0.181 3.025,0.541c0.89,0.361 1.645,0.851 2.264,1.471c0.62,0.619 1.093,1.346 1.42,2.18c0.327,0.833 0.49,1.723 0.49,2.67c0,0.315 -0.022,0.631 -0.068,0.946c-0.045,0.316 -0.101,0.642 -0.169,0.98l-0.135,0.609l-4.461,-0l0.135,-0.609c0.135,-0.54 0.203,-1.059 0.203,-1.554c-0,-0.879 -0.254,-1.628 -0.761,-2.248c-0.507,-0.62 -1.391,-0.93 -2.653,-0.93c-0.744,0 -1.42,0.141 -2.028,0.423c-0.609,0.282 -1.138,0.665 -1.589,1.149c-0.45,0.485 -0.828,1.048 -1.132,1.69c-0.304,0.642 -0.535,1.313 -0.693,2.011l-1.251,5.949c-0.067,0.338 -0.123,0.67 -0.169,0.997c-0.045,0.327 -0.067,0.637 -0.067,0.93c-0,1.014 0.265,1.825 0.794,2.433c0.53,0.609 1.414,0.913 2.653,0.913Z" style="fill:rgb(131,133,136);fill-rule:nonzero;"/>
                <path d="M782.795,121.278l0.338,0.236l1.623,-1.149l2.129,3.177l-1.994,1.352c-0.879,0.586 -1.803,0.879 -2.772,0.879c-0.856,-0 -1.622,-0.237 -2.298,-0.71c-0.676,-0.473 -1.104,-1.138 -1.284,-1.994l-0.609,-0c-0.203,0.383 -0.439,0.738 -0.71,1.065c-0.27,0.326 -0.602,0.608 -0.997,0.845c-0.394,0.236 -0.856,0.428 -1.386,0.574c-0.529,0.147 -1.154,0.22 -1.875,0.22c-0.879,-0 -1.69,-0.175 -2.434,-0.524c-0.744,-0.349 -1.392,-0.834 -1.944,-1.453c-0.552,-0.62 -0.985,-1.347 -1.301,-2.18c-0.315,-0.834 -0.473,-1.747 -0.473,-2.738c-0,-1.51 0.203,-2.918 0.608,-4.225c0.406,-1.307 0.992,-2.451 1.758,-3.431c0.766,-0.98 1.707,-1.752 2.822,-2.315c1.116,-0.564 2.372,-0.845 3.769,-0.845c1.239,-0 2.219,0.248 2.941,0.743c0.721,0.496 1.205,1.149 1.453,1.961l0.608,-0l0.474,-2.231l4.258,-0l-2.704,12.743Zm-8.179,0.439c0.811,-0 1.532,-0.163 2.163,-0.49c0.631,-0.327 1.155,-0.761 1.572,-1.301c0.416,-0.541 0.738,-1.178 0.963,-1.91c0.225,-0.733 0.338,-1.504 0.338,-2.316c-0,-1.059 -0.304,-1.92 -0.913,-2.585c-0.608,-0.665 -1.419,-0.997 -2.433,-0.997c-0.811,-0 -1.533,0.163 -2.163,0.49c-0.631,0.327 -1.161,0.76 -1.589,1.301c-0.428,0.541 -0.755,1.177 -0.98,1.91c-0.226,0.732 -0.338,1.504 -0.338,2.315c-0,0.947 0.276,1.78 0.828,2.501c0.552,0.721 1.403,1.082 2.552,1.082Z" style="fill:rgb(131,133,136);fill-rule:nonzero;"/>
                <path d="M798.174,111.915c-0.248,-0 -0.501,0.028 -0.76,0.084c-0.259,0.057 -0.502,0.141 -0.727,0.254c-0.225,0.113 -0.411,0.265 -0.558,0.456c-0.146,0.192 -0.219,0.423 -0.219,0.693c-0,0.473 0.27,0.823 0.811,1.048c0.541,0.225 1.465,0.417 2.772,0.574c1.464,0.181 2.647,0.626 3.549,1.336c0.901,0.709 1.352,1.729 1.352,3.059c-0,1.982 -0.693,3.537 -2.079,4.664c-1.386,1.127 -3.307,1.69 -5.763,1.69c-1.239,-0 -2.304,-0.18 -3.194,-0.541c-0.89,-0.36 -1.623,-0.811 -2.197,-1.352c-0.575,-0.541 -1.009,-1.138 -1.301,-1.791c-0.293,-0.654 -0.451,-1.273 -0.474,-1.859l4.192,-1.014c0.067,0.743 0.383,1.38 0.946,1.909c0.563,0.53 1.42,0.795 2.569,0.795c0.788,-0 1.476,-0.124 2.062,-0.372c0.585,-0.248 0.878,-0.687 0.878,-1.318c0,-0.473 -0.225,-0.851 -0.676,-1.133c-0.45,-0.281 -1.284,-0.478 -2.501,-0.591c-1.622,-0.135 -2.912,-0.597 -3.87,-1.386c-0.958,-0.789 -1.436,-1.836 -1.436,-3.143c-0,-0.947 0.197,-1.792 0.591,-2.535c0.394,-0.744 0.918,-1.364 1.572,-1.859c0.653,-0.496 1.414,-0.873 2.281,-1.133c0.868,-0.259 1.775,-0.388 2.721,-0.388c1.172,-0 2.152,0.157 2.941,0.473c0.788,0.315 1.431,0.71 1.926,1.183c0.496,0.473 0.862,0.986 1.099,1.538c0.236,0.552 0.389,1.064 0.456,1.538l-4.123,1.081c-0.091,-0.608 -0.372,-1.087 -0.845,-1.436c-0.474,-0.349 -1.138,-0.524 -1.995,-0.524Z" style="fill:rgb(131,133,136);fill-rule:nonzero;"/>
                <path d="M815.345,112.591l-4.732,-0l-0,-4.056l5.611,-0l1.554,-7.369l4.259,0l-1.555,7.369l5.814,-0l0,4.056l-6.692,-0l-1.893,8.687l0.338,0.236l4.529,-3.109l2.129,3.177l-4.901,3.312c-0.856,0.586 -1.768,0.879 -2.737,0.879c-0.496,-0 -0.969,-0.085 -1.42,-0.254c-0.451,-0.169 -0.845,-0.411 -1.183,-0.726c-0.338,-0.316 -0.608,-0.699 -0.811,-1.149c-0.203,-0.451 -0.304,-0.958 -0.304,-1.521c-0,-0.181 0.011,-0.344 0.033,-0.491c0.023,-0.146 0.057,-0.343 0.102,-0.591l1.859,-8.45Z" style="fill:rgb(131,133,136);fill-rule:nonzero;"/>
                <path d="M847.522,114.822c0,1.577 -0.225,3.036 -0.676,4.377c-0.45,1.341 -1.115,2.495 -1.994,3.464c-0.879,0.969 -1.977,1.73 -3.295,2.282c-1.318,0.552 -2.845,0.828 -4.58,0.828c-0.992,-0 -1.921,-0.147 -2.789,-0.439c-0.867,-0.293 -1.628,-0.727 -2.281,-1.302c-0.654,-0.574 -1.172,-1.279 -1.555,-2.112c-0.383,-0.834 -0.575,-1.78 -0.575,-2.839c0,-1.736 0.271,-3.285 0.812,-4.648c0.54,-1.363 1.278,-2.518 2.214,-3.465c0.935,-0.946 2.039,-1.667 3.312,-2.163c1.273,-0.495 2.642,-0.743 4.107,-0.743c1.059,-0 2.039,0.163 2.94,0.49c0.902,0.327 1.673,0.783 2.316,1.369c0.642,0.586 1.143,1.295 1.504,2.129c0.36,0.834 0.54,1.758 0.54,2.772Zm-9.903,6.963c0.811,-0.023 1.56,-0.203 2.248,-0.541c0.687,-0.338 1.273,-0.783 1.757,-1.335c0.485,-0.552 0.862,-1.2 1.133,-1.944c0.27,-0.743 0.405,-1.532 0.405,-2.366c0,-1.172 -0.315,-2.056 -0.946,-2.653c-0.631,-0.597 -1.476,-0.896 -2.535,-0.896c-0.811,0 -1.555,0.175 -2.231,0.524c-0.676,0.349 -1.262,0.811 -1.758,1.386c-0.495,0.574 -0.878,1.233 -1.149,1.977c-0.27,0.744 -0.405,1.521 -0.405,2.332c-0,1.15 0.315,2.023 0.946,2.62c0.631,0.597 1.476,0.896 2.535,0.896Z" style="fill:rgb(131,133,136);fill-rule:nonzero;"/>
                <path d="M855.364,112.523l-0.338,-0.203l-2.67,1.961l-2.265,-3.042l2.704,-2.028c0.519,-0.383 1.065,-0.67 1.64,-0.862c0.574,-0.192 1.121,-0.287 1.639,-0.287c0.901,-0 1.69,0.248 2.366,0.743c0.676,0.496 1.081,1.195 1.217,2.096l0.608,-0c0.451,-0.947 1.082,-1.656 1.893,-2.13c0.811,-0.473 1.724,-0.709 2.738,-0.709c1.284,-0 2.326,0.4 3.126,1.2c0.8,0.8 1.2,1.909 1.2,3.329c0,0.293 -0.017,0.58 -0.051,0.862c-0.033,0.281 -0.095,0.625 -0.185,1.031l-0.169,0.743l-4.53,0.338l0.102,-0.473c0.067,-0.338 0.101,-0.642 0.101,-0.913c0,-0.653 -0.18,-1.171 -0.541,-1.554c-0.36,-0.383 -0.901,-0.575 -1.622,-0.575c-0.901,0 -1.617,0.304 -2.146,0.913c-0.53,0.608 -0.919,1.476 -1.167,2.602l-1.216,5.679l4.056,-0l-0,4.056l-11.56,-0l0,-4.056l3.245,-0l1.825,-8.721Z" style="fill:rgb(131,133,136);fill-rule:nonzero;"/>
                <path d="M902.718,115.362l-3.549,0c-0.518,0 -1.014,0.085 -1.487,0.254c-0.473,0.169 -0.89,0.406 -1.251,0.71c-0.36,0.304 -0.648,0.676 -0.862,1.115c-0.214,0.44 -0.321,0.941 -0.321,1.504c0,0.789 0.254,1.369 0.761,1.741c0.507,0.372 1.155,0.558 1.943,0.558l3.515,-0l1.251,-5.882Zm5.712,-6.827l-0.608,2.771l2.704,0l-0,4.259l-3.617,0l-2.062,9.735l-8.179,-0c-1.803,-0 -3.234,-0.457 -4.293,-1.369c-1.059,-0.913 -1.588,-2.146 -1.588,-3.701c-0,-1.668 0.478,-3.082 1.436,-4.242c0.958,-1.161 2.282,-1.91 3.972,-2.248l-0,-0.608c-0.812,-0.338 -1.527,-0.84 -2.147,-1.504c-0.619,-0.665 -0.929,-1.606 -0.929,-2.823c-0,-1.036 0.186,-1.988 0.557,-2.856c0.372,-0.867 0.907,-1.622 1.606,-2.264c0.699,-0.643 1.555,-1.144 2.569,-1.505c1.014,-0.36 2.174,-0.54 3.481,-0.54l3.515,-0l0,4.056l-3.65,-0c-0.518,-0 -1.008,0.067 -1.47,0.202c-0.462,0.136 -0.873,0.344 -1.234,0.626c-0.361,0.281 -0.642,0.642 -0.845,1.081c-0.203,0.44 -0.304,0.952 -0.304,1.538c-0,0.744 0.265,1.29 0.794,1.64c0.53,0.349 1.189,0.523 1.977,0.523l3.448,0l0.608,-2.771l4.259,-0Z" style="fill:rgb(131,133,136);fill-rule:nonzero;"/>
                <path d="M938.411,116.377l-1.893,8.923l-4.428,-0l5.003,-23.66l8.45,-0c0.991,-0 1.887,0.157 2.687,0.473c0.8,0.315 1.481,0.755 2.045,1.318c0.563,0.563 0.997,1.228 1.301,1.994c0.304,0.766 0.456,1.6 0.456,2.501c0,1.262 -0.214,2.412 -0.642,3.448c-0.428,1.037 -1.036,1.927 -1.825,2.67c-0.789,0.744 -1.735,1.318 -2.839,1.724c-1.104,0.406 -2.333,0.609 -3.685,0.609l-4.63,-0Zm0.912,-4.259l4.124,-0c1.149,-0 2.107,-0.338 2.873,-1.014c0.766,-0.676 1.149,-1.555 1.149,-2.637c0,-0.833 -0.264,-1.47 -0.794,-1.909c-0.53,-0.44 -1.222,-0.66 -2.079,-0.66l-3.954,0l-1.319,6.22Z" style="fill:rgb(131,133,136);fill-rule:nonzero;"/>
                <path d="M971.636,114.822c0,1.577 -0.225,3.036 -0.676,4.377c-0.45,1.341 -1.115,2.495 -1.994,3.464c-0.879,0.969 -1.977,1.73 -3.295,2.282c-1.319,0.552 -2.845,0.828 -4.58,0.828c-0.992,-0 -1.921,-0.147 -2.789,-0.439c-0.867,-0.293 -1.628,-0.727 -2.281,-1.302c-0.654,-0.574 -1.172,-1.279 -1.555,-2.112c-0.383,-0.834 -0.575,-1.78 -0.575,-2.839c0,-1.736 0.271,-3.285 0.812,-4.648c0.54,-1.363 1.278,-2.518 2.213,-3.465c0.936,-0.946 2.04,-1.667 3.313,-2.163c1.273,-0.495 2.642,-0.743 4.107,-0.743c1.059,-0 2.039,0.163 2.94,0.49c0.901,0.327 1.673,0.783 2.315,1.369c0.643,0.586 1.144,1.295 1.505,2.129c0.36,0.834 0.54,1.758 0.54,2.772Zm-9.903,6.963c0.811,-0.023 1.56,-0.203 2.248,-0.541c0.687,-0.338 1.273,-0.783 1.757,-1.335c0.485,-0.552 0.862,-1.2 1.133,-1.944c0.27,-0.743 0.405,-1.532 0.405,-2.366c0,-1.172 -0.315,-2.056 -0.946,-2.653c-0.631,-0.597 -1.476,-0.896 -2.535,-0.896c-0.811,0 -1.555,0.175 -2.231,0.524c-0.676,0.349 -1.262,0.811 -1.758,1.386c-0.495,0.574 -0.878,1.233 -1.149,1.977c-0.27,0.744 -0.405,1.521 -0.405,2.332c-0,1.15 0.315,2.023 0.946,2.62c0.631,0.597 1.476,0.896 2.535,0.896Z" style="fill:rgb(131,133,136);fill-rule:nonzero;"/>
                <path d="M986.069,124.894c-0.451,0.316 -0.913,0.541 -1.386,0.676c-0.473,0.135 -0.935,0.203 -1.386,0.203c-0.495,-0 -0.969,-0.085 -1.419,-0.254c-0.451,-0.169 -0.845,-0.405 -1.183,-0.709c-0.338,-0.305 -0.603,-0.676 -0.795,-1.116c-0.191,-0.439 -0.287,-0.929 -0.287,-1.47c0,-0.406 0.045,-0.8 0.135,-1.183l3.685,-15.379l-0.338,-0.237l-4.53,3.11l-2.129,-3.177l4.901,-3.313c0.451,-0.315 0.913,-0.541 1.386,-0.676c0.473,-0.135 0.935,-0.203 1.386,-0.203c0.495,0 0.969,0.085 1.419,0.254c0.451,0.169 0.845,0.406 1.183,0.71c0.338,0.304 0.603,0.676 0.794,1.115c0.192,0.44 0.288,0.93 0.288,1.47c-0,0.361 -0.045,0.755 -0.135,1.183l-3.685,15.38l0.338,0.236l4.53,-3.109l2.129,3.177l-4.901,3.312Z" style="fill:rgb(131,133,136);fill-rule:nonzero;"/>
                <path d="M1006.75,124.894c-0.451,0.316 -0.913,0.541 -1.386,0.676c-0.473,0.135 -0.935,0.203 -1.386,0.203c-0.496,-0 -0.969,-0.085 -1.42,-0.254c-0.45,-0.169 -0.845,-0.405 -1.183,-0.709c-0.338,-0.305 -0.602,-0.676 -0.794,-1.116c-0.191,-0.439 -0.287,-0.929 -0.287,-1.47c-0,-0.406 0.045,-0.8 0.135,-1.183l3.684,-15.379l-0.338,-0.237l-4.529,3.11l-2.129,-3.177l4.901,-3.313c0.45,-0.315 0.912,-0.541 1.385,-0.676c0.474,-0.135 0.936,-0.203 1.386,-0.203c0.496,0 0.969,0.085 1.42,0.254c0.45,0.169 0.845,0.406 1.183,0.71c0.338,0.304 0.603,0.676 0.794,1.115c0.192,0.44 0.287,0.93 0.287,1.47c0,0.361 -0.045,0.755 -0.135,1.183l-3.684,15.38l0.338,0.236l4.529,-3.109l2.13,3.177l-4.901,3.312Z" style="fill:rgb(131,133,136);fill-rule:nonzero;"/>
                <path d="M1022.37,108.535l-2.095,9.734c-0.09,0.383 -0.136,0.755 -0.136,1.116c0,0.856 0.237,1.493 0.71,1.909c0.473,0.417 1.104,0.626 1.893,0.626c1.194,-0 2.113,-0.389 2.755,-1.166c0.642,-0.778 1.121,-1.876 1.436,-3.296l1.893,-8.923l4.259,-0l-2.772,12.776l0.372,0.203l1.217,-0.879l2.129,3.11l-1.588,1.149c-0.428,0.316 -0.873,0.541 -1.335,0.676c-0.462,0.135 -0.919,0.203 -1.369,0.203c-0.924,-0 -1.735,-0.265 -2.434,-0.794c-0.698,-0.53 -1.093,-1.302 -1.183,-2.316l-0.608,0c-0.496,1.15 -1.166,1.955 -2.011,2.417c-0.845,0.462 -1.797,0.693 -2.857,0.693c-1.464,-0 -2.658,-0.445 -3.582,-1.335c-0.924,-0.89 -1.386,-2.135 -1.386,-3.735c-0,-0.563 0.067,-1.172 0.203,-1.825l2.23,-10.343l4.259,-0Z" style="fill:rgb(131,133,136);fill-rule:nonzero;"/>
                <path d="M1047.86,117.357l1.757,4.157l0.406,0l1.318,-2.433l3.38,1.757l-1.082,2.163c-0.901,1.848 -2.309,2.772 -4.225,2.772c-0.946,-0 -1.718,-0.214 -2.315,-0.642c-0.597,-0.428 -1.087,-1.116 -1.47,-2.062l-1.116,-2.603l-5.577,5.239l-2.873,-3.008l6.76,-6.32l-1.69,-4.023l-0.405,0l-1.623,2.603l-3.245,-2.096l1.623,-2.501c0.969,-1.532 2.276,-2.298 3.921,-2.298c1.667,-0 2.884,0.878 3.65,2.636l1.082,2.569l5.34,-5.003l2.873,3.009l-6.489,6.084Z" style="fill:rgb(131,133,136);fill-rule:nonzero;"/>
                <path d="M1106.38,921.817l19.82,0.059c1.163,0.004 2.111,-0.934 2.119,-2.097l0.11,-15.012c0,0 2.479,0 2.479,0c-0,4.565 -0,14.938 -0,14.938c-0,1.166 0.946,2.112 2.112,2.112c1.166,0 2.113,-0.946 2.113,-2.112l-0,-17.05c-0,-1.167 -0.946,-2.113 -2.113,-2.113l-6.688,0c-1.161,0 -2.104,0.937 -2.112,2.098l-0.11,15.005c-5.102,-0.015 -17.717,-0.053 -17.717,-0.053c-1.166,-0.003 -2.115,0.941 -2.119,2.106c-0.003,1.166 0.94,2.116 2.106,2.119Z" style="fill:rgb(131,133,136);"/>
                <path d="M1112.87,912.291l-2.536,-2.536c0,0 2.536,-2.536 2.536,-2.536c0.825,-0.825 0.825,-2.163 0,-2.988c-0.824,-0.824 -2.163,-0.824 -2.987,0l-5.524,5.524l5.524,5.524c0.824,0.824 2.163,0.824 2.987,-0c0.825,-0.825 0.825,-2.163 0,-2.988Z" style="fill:rgb(131,133,136);"/>
                <path d="M1116.6,907.643l-0.042,-0c-1.166,-0 -2.113,0.946 -2.113,2.112c0,1.166 0.947,2.113 2.113,2.113l0.042,-0c1.166,-0 2.112,-0.947 2.112,-2.113c0,-1.166 -0.946,-2.112 -2.112,-2.112Zm-5.112,-0l-0.043,-0c-1.166,-0 -2.112,0.946 -2.112,2.112c-0,1.166 0.946,2.113 2.112,2.113l0.043,-0c1.165,-0 2.112,-0.947 2.112,-2.113c0,-1.166 -0.947,-2.112 -2.112,-2.112Zm10.224,-0l-0.042,-0c-1.166,-0 -2.113,0.946 -2.113,2.112c0,1.166 0.947,2.113 2.113,2.113l0.042,-0c1.166,-0 2.113,-0.947 2.113,-2.113c-0,-1.166 -0.947,-2.112 -2.113,-2.112Z" style="fill:rgb(131,133,136);"/>
                <path d="M692.28,917.592c-0,0 -12.615,0.038 -17.717,0.053c0,0 -0.11,-15.005 -0.11,-15.005c-0.008,-1.161 -0.951,-2.098 -2.112,-2.098l-6.688,0c-1.167,0 -2.113,0.946 -2.113,2.113l0,17.05c0,1.166 0.947,2.112 2.113,2.112c1.166,0 2.112,-0.946 2.112,-2.112l0,-14.938c0,0 2.479,0 2.479,0c-0,0 0.11,15.012 0.11,15.012c0.008,1.163 0.955,2.101 2.119,2.097l19.82,-0.059c1.165,-0.003 2.109,-0.953 2.106,-2.119c-0.004,-1.165 -0.953,-2.109 -2.119,-2.106Z" style="fill:rgb(131,133,136);"/>
                <path d="M685.8,907.219l2.536,2.536c-0,0 -2.536,2.536 -2.536,2.536c-0.825,0.825 -0.825,2.163 -0,2.988c0.824,0.824 2.163,0.824 2.987,-0l5.524,-5.524l-5.524,-5.524c-0.824,-0.824 -2.163,-0.824 -2.987,0c-0.825,0.825 -0.825,2.163 -0,2.988Z" style="fill:rgb(131,133,136);"/>
                <path d="M682.068,911.868l0.042,-0c1.166,-0 2.113,-0.947 2.113,-2.113c-0,-1.166 -0.947,-2.112 -2.113,-2.112l-0.042,-0c-1.166,-0 -2.112,0.946 -2.112,2.112c-0,1.166 0.946,2.113 2.112,2.113Zm5.112,-0l0.043,-0c1.166,-0 2.112,-0.947 2.112,-2.113c0,-1.166 -0.946,-2.112 -2.112,-2.112l-0.043,-0c-1.166,-0 -2.112,0.946 -2.112,2.112c-0,1.166 0.946,2.113 2.112,2.113Zm-10.224,-0l0.042,-0c1.166,-0 2.113,-0.947 2.113,-2.113c-0,-1.166 -0.947,-2.112 -2.113,-2.112l-0.042,-0c-1.166,-0 -2.113,0.946 -2.113,2.112c0,1.166 0.947,2.113 2.113,2.113Z" style="fill:rgb(131,133,136);"/>
                <path d="M661.192,778.148l-0,16.772c-0,0.741 0.388,1.428 1.022,1.81c0.634,0.382 1.423,0.404 2.078,0.058l28.205,-14.914c0,0 -0.094,13.309 -0.094,13.309c-0.008,1.166 0.931,2.119 2.097,2.127c1.166,0.009 2.119,-0.931 2.128,-2.097l0.119,-16.843c0.005,-0.744 -0.38,-1.435 -1.016,-1.821c-0.635,-0.386 -1.427,-0.409 -2.084,-0.062l-28.23,14.927c-0,-0 -0,-13.266 -0,-13.266c-0,-1.166 -0.947,-2.112 -2.113,-2.112c-1.166,-0 -2.112,0.946 -2.112,2.112Z" style="fill:rgb(131,133,136);"/>
                <path d="M800.239,778.104c0,-0 0.072,10.36 0.104,14.929c-0,-0 -15.596,0.046 -15.596,0.046c-0,0 -0.11,-15.005 -0.11,-15.005c-0.009,-1.161 -0.952,-2.097 -2.113,-2.097l-6.688,-0c-1.167,-0 -2.112,0.945 -2.112,2.112l-0,17.05c-0,1.166 0.946,2.112 2.112,2.112c1.166,0 2.113,-0.946 2.113,-2.112l-0,-14.937c-0,-0 2.478,-0 2.478,-0c0,-0 0.11,15.011 0.11,15.011c0.009,1.164 0.956,2.101 2.119,2.097l19.82,-0.059c0.562,-0.001 1.1,-0.227 1.495,-0.626c0.395,-0.399 0.615,-0.939 0.611,-1.501l-0.118,-17.05c-0.008,-1.165 -0.961,-2.105 -2.127,-2.097c-1.166,0.008 -2.106,0.961 -2.098,2.127Z" style="fill:rgb(131,133,136);"/>
                <path d="M800.239,902.729c0,-0 0.072,10.351 0.104,14.922c-0,0 -9.078,0 -9.078,0c0,-4.564 0,-14.937 0,-14.937c0,-1.167 -0.945,-2.112 -2.112,-2.112l-13.317,-0c-1.167,-0 -2.112,0.945 -2.112,2.112l-0,17.05c-0,1.166 0.946,2.112 2.112,2.112c1.166,0 2.113,-0.946 2.113,-2.112l-0,-14.937c-0,-0 9.091,-0 9.091,-0c0,-0 0,14.937 0,14.937c0,1.167 0.946,2.112 2.113,2.112l13.317,0c0.563,0 1.102,-0.224 1.499,-0.624c0.396,-0.399 0.617,-0.94 0.613,-1.503l-0.118,-17.05c-0.008,-1.165 -0.961,-2.105 -2.127,-2.097c-1.166,0.008 -2.106,0.961 -2.098,2.127Z" style="fill:rgb(131,133,136);"/>
                <path d="M1133.25,778.148l0,13.266c0,-0 -28.23,-14.927 -28.23,-14.927c-0.658,-0.347 -1.449,-0.324 -2.084,0.062c-0.636,0.386 -1.022,1.077 -1.016,1.821l0.119,16.843c0.008,1.166 0.962,2.106 2.128,2.097c1.165,-0.008 2.105,-0.961 2.097,-2.127l-0.094,-13.309c7.929,4.193 28.205,14.914 28.205,14.914c0.655,0.346 1.443,0.324 2.078,-0.058c0.634,-0.382 1.022,-1.069 1.022,-1.81l0,-16.772c0,-1.166 -0.946,-2.112 -2.112,-2.112c-1.166,-0 -2.113,0.946 -2.113,2.112Z" style="fill:rgb(131,133,136);"/>
                <path d="M994.207,778.074l-0.118,17.05c-0.004,0.562 0.216,1.102 0.611,1.501c0.395,0.399 0.933,0.625 1.495,0.626l19.82,0.059c1.163,0.004 2.11,-0.933 2.119,-2.097l0.11,-15.011c-0,-0 2.478,-0 2.478,-0c0,-0 0,14.937 0,14.937c0,1.166 0.947,2.112 2.113,2.112c1.166,0 2.112,-0.946 2.112,-2.112l0,-17.05c0,-1.167 -0.946,-2.112 -2.112,-2.112l-6.689,-0c-1.16,-0 -2.103,0.936 -2.112,2.097l-0.11,15.005c0,0 -15.596,-0.046 -15.596,-0.046c0,-0 0.104,-14.929 0.104,-14.929c0.008,-1.166 -0.932,-2.119 -2.098,-2.127c-1.166,-0.008 -2.119,0.932 -2.127,2.097Z" style="fill:rgb(131,133,136);"/>
                <path d="M994.207,902.64l-0.118,17.05c-0.004,0.563 0.217,1.104 0.613,1.503c0.397,0.4 0.936,0.624 1.499,0.624l13.317,0c1.167,0 2.112,-0.946 2.112,-2.112l0,-14.938c0,0 9.092,0 9.092,0c0,0 0,14.938 0,14.938c0,1.166 0.947,2.112 2.113,2.112c1.166,0 2.112,-0.946 2.112,-2.112l0,-17.05c0,-1.167 -0.946,-2.113 -2.112,-2.113l-13.317,0c-1.167,0 -2.113,0.946 -2.113,2.113l0,14.937c0,0 -9.077,0 -9.077,0c0.032,-4.571 0.104,-14.922 0.104,-14.922c0.008,-1.166 -0.932,-2.119 -2.098,-2.127c-1.166,-0.009 -2.119,0.931 -2.127,2.097Z" style="fill:rgb(131,133,136);"/>
                <circle cx="900.133" cy="797.375" r="28.743" style="fill:rgb(131,133,136);"/>
                <path d="M901.925,829.979c-0.386,-0.618 -1.063,-0.994 -1.792,-0.994c-0.728,0 -1.405,0.376 -1.791,0.994l-8.275,13.247c-0.407,0.651 -0.428,1.472 -0.056,2.143c0.372,0.672 1.08,1.088 1.847,1.088l16.55,0c0.768,0 1.476,-0.416 1.848,-1.088c0.372,-0.671 0.351,-1.492 -0.056,-2.143l-8.275,-13.247Z" style="fill:rgb(131,133,136);"/>
            </g>
            <g id="Jacks">
                <circle cx="678.47" cy="855.133" r="37.913" style="fill:rgb(222,222,222);"/>
                <circle cx="678.47" cy="976.494" r="37.913" style="fill:rgb(222,222,222);"/>
                <circle cx="1119.94" cy="855.133" r="37.913" style="fill:rgb(222,222,222);"/>
                <circle cx="1119.7" cy="976.494" r="37.913" style="fill:rgb(222,222,222);"/>
                <g id="Flat-jack" serif:id="Flat jack">
                    <path d="M899.398,942.789c0.248,-0.143 0.553,-0.143 0.801,-0c3.255,1.879 25.334,14.626 28.589,16.506c0.248,0.143 0.4,0.407 0.4,0.693c0.001,3.759 0.002,29.253 0.002,33.012c-0,0.287 -0.153,0.551 -0.401,0.694c-3.255,1.88 -25.332,14.627 -28.587,16.506c-0.248,0.143 -0.553,0.143 -0.801,0c-3.255,-1.879 -25.334,-14.626 -28.589,-16.506c-0.248,-0.143 -0.4,-0.407 -0.4,-0.694c-0.001,-3.758 -0.002,-29.253 -0.002,-33.012c-0,-0.286 0.153,-0.55 0.401,-0.693c3.255,-1.88 25.332,-14.627 28.587,-16.506Z" style="fill:rgb(213,213,213);"/>
                    <path d="M898.46,941.165c0.828,-0.478 1.848,-0.478 2.677,-0l28.588,16.506c0.828,0.478 1.338,1.361 1.338,2.317l0.002,33.012c-0,0.956 -0.51,1.84 -1.338,2.318l-28.587,16.506c-0.828,0.478 -1.849,0.478 -2.677,-0l-28.588,-16.506c-0.828,-0.478 -1.338,-1.361 -1.338,-2.318l-0.002,-33.011c-0,-0.957 0.51,-1.84 1.338,-2.318l28.587,-16.506Zm0.938,1.624l-28.587,16.506c-0.248,0.143 -0.401,0.407 -0.401,0.693l0.002,33.012c-0,0.287 0.152,0.551 0.4,0.694l28.589,16.506c0.248,0.143 0.553,0.143 0.801,0l28.587,-16.506c0.248,-0.143 0.401,-0.407 0.401,-0.694l-0.002,-33.012c0,-0.286 -0.152,-0.55 -0.4,-0.693l-28.589,-16.506c-0.248,-0.143 -0.553,-0.143 -0.801,-0Z" style="fill:rgb(169,169,169);"/>
                    <ellipse cx="899.8" cy="976.494" rx="17.849" ry="17.848" style="fill:rgb(131,133,136);"/>
                </g>
                <g id="Flat-jack1" serif:id="Flat jack">
                    <path d="M1008.69,942.789c0.247,-0.143 0.553,-0.143 0.801,-0c3.255,1.879 25.333,14.626 28.589,16.506c0.247,0.143 0.4,0.407 0.4,0.693c0,3.759 0.001,29.253 0.002,33.012c-0,0.287 -0.153,0.551 -0.401,0.694c-3.255,1.88 -25.332,14.627 -28.587,16.506c-0.248,0.143 -0.553,0.143 -0.801,0c-3.256,-1.879 -25.334,-14.626 -28.589,-16.506c-0.248,-0.143 -0.401,-0.407 -0.401,-0.694c0,-3.758 -0.001,-29.253 -0.001,-33.012c-0,-0.286 0.152,-0.55 0.4,-0.693c3.255,-1.88 25.332,-14.627 28.588,-16.506Z" style="fill:rgb(213,213,213);"/>
                    <path d="M1007.75,941.165c0.828,-0.478 1.848,-0.478 2.676,-0l28.589,16.506c0.828,0.478 1.338,1.361 1.338,2.317l0.002,33.012c-0,0.956 -0.51,1.84 -1.338,2.318l-28.588,16.506c-0.828,0.478 -1.848,0.478 -2.676,-0l-28.589,-16.506c-0.828,-0.478 -1.338,-1.361 -1.338,-2.318l-0.001,-33.011c-0,-0.957 0.51,-1.84 1.338,-2.318l28.587,-16.506Zm0.938,1.624l-28.588,16.506c-0.248,0.143 -0.4,0.407 -0.4,0.693l0.001,33.012c0,0.287 0.153,0.551 0.401,0.694l28.589,16.506c0.248,0.143 0.553,0.143 0.801,0l28.587,-16.506c0.248,-0.143 0.401,-0.407 0.401,-0.694l-0.002,-33.012c0,-0.286 -0.153,-0.55 -0.4,-0.693l-28.589,-16.506c-0.248,-0.143 -0.554,-0.143 -0.801,-0Z" style="fill:rgb(169,169,169);"/>
                    <ellipse cx="1009.09" cy="976.494" rx="17.849" ry="17.848" style="fill:rgb(131,133,136);"/>
                </g>
                <g id="Flat-jack2" serif:id="Flat jack">
                    <path d="M1119.3,942.789c0.248,-0.143 0.554,-0.143 0.801,-0c3.256,1.879 25.334,14.626 28.589,16.506c0.248,0.143 0.401,0.407 0.401,0.693c0,3.759 0.001,29.253 0.001,33.012c0,0.287 -0.152,0.551 -0.4,0.694c-3.255,1.88 -25.332,14.627 -28.587,16.506c-0.248,0.143 -0.554,0.143 -0.802,0c-3.255,-1.879 -25.333,-14.626 -28.588,-16.506c-0.248,-0.143 -0.401,-0.407 -0.401,-0.694c-0,-3.758 -0.001,-29.253 -0.002,-33.012c0,-0.286 0.153,-0.55 0.401,-0.693c3.255,-1.88 25.332,-14.627 28.587,-16.506Z" style="fill:rgb(213,213,213);"/>
                    <path d="M1118.36,941.165c0.828,-0.478 1.848,-0.478 2.676,-0l28.589,16.506c0.828,0.478 1.338,1.361 1.338,2.317l0.001,33.012c0,0.956 -0.51,1.84 -1.338,2.318l-28.587,16.506c-0.828,0.478 -1.848,0.478 -2.676,-0l-28.589,-16.506c-0.828,-0.478 -1.338,-1.361 -1.338,-2.318l-0.002,-33.011c0,-0.957 0.51,-1.84 1.338,-2.318l28.588,-16.506Zm0.937,1.624l-28.587,16.506c-0.248,0.143 -0.401,0.407 -0.401,0.693l0.002,33.012c-0,0.287 0.153,0.551 0.401,0.694l28.588,16.506c0.248,0.143 0.554,0.143 0.802,0l28.587,-16.506c0.248,-0.143 0.4,-0.407 0.4,-0.694l-0.001,-33.012c-0,-0.286 -0.153,-0.55 -0.401,-0.693l-28.589,-16.506c-0.247,-0.143 -0.553,-0.143 -0.801,-0Z" style="fill:rgb(169,169,169);"/>
                    <ellipse cx="1119.7" cy="976.494" rx="17.849" ry="17.848" style="fill:rgb(131,133,136);"/>
                </g>
                <g id="Flat-jack3" serif:id="Flat jack">
                    <path d="M1119.54,821.428c0.248,-0.143 0.553,-0.143 0.801,-0c3.255,1.879 25.334,14.626 28.589,16.506c0.248,0.143 0.4,0.407 0.4,0.694c0.001,3.758 0.002,29.253 0.002,33.011c-0,0.287 -0.153,0.551 -0.401,0.694c-3.255,1.88 -25.332,14.627 -28.587,16.506c-0.248,0.143 -0.553,0.143 -0.801,0c-3.255,-1.879 -25.334,-14.626 -28.589,-16.506c-0.248,-0.143 -0.401,-0.407 -0.401,-0.694c0,-3.758 -0.001,-29.253 -0.001,-33.011c-0,-0.287 0.153,-0.551 0.4,-0.694c3.256,-1.88 25.333,-14.627 28.588,-16.506Z" style="fill:rgb(213,213,213);"/>
                    <path d="M1118.6,819.804c0.828,-0.478 1.848,-0.478 2.676,0l28.589,16.506c0.828,0.478 1.338,1.361 1.338,2.317l0.002,33.012c-0,0.956 -0.51,1.84 -1.338,2.318l-28.587,16.506c-0.828,0.478 -1.849,0.478 -2.677,-0l-28.588,-16.506c-0.828,-0.478 -1.338,-1.361 -1.339,-2.317l-0.001,-33.012c-0,-0.956 0.51,-1.84 1.338,-2.318l28.587,-16.506Zm0.938,1.624l-28.588,16.506c-0.247,0.143 -0.4,0.407 -0.4,0.694l0.001,33.011c0,0.287 0.153,0.551 0.401,0.694l28.589,16.506c0.248,0.143 0.553,0.143 0.801,0l28.587,-16.506c0.248,-0.143 0.401,-0.407 0.401,-0.694l-0.002,-33.011c0,-0.287 -0.152,-0.551 -0.4,-0.694l-28.589,-16.506c-0.248,-0.143 -0.553,-0.143 -0.801,-0Z" style="fill:rgb(169,169,169);"/>
                    <ellipse cx="1119.94" cy="855.133" rx="17.849" ry="17.848" style="fill:rgb(131,133,136);"/>
                </g>
                <g id="Flat-jack4" serif:id="Flat jack">
                    <path d="M678.068,821.428c0.248,-0.143 0.553,-0.143 0.801,-0c3.255,1.879 25.333,14.626 28.589,16.506c0.248,0.143 0.4,0.407 0.4,0.694c0,3.758 0.002,29.253 0.002,33.011c-0,0.287 -0.153,0.551 -0.401,0.694c-3.255,1.88 -25.332,14.627 -28.587,16.506c-0.248,0.143 -0.553,0.143 -0.801,0c-3.256,-1.879 -25.334,-14.626 -28.589,-16.506c-0.248,-0.143 -0.401,-0.407 -0.401,-0.694c0,-3.758 -0.001,-29.253 -0.001,-33.011c-0,-0.287 0.152,-0.551 0.4,-0.694c3.255,-1.88 25.332,-14.627 28.588,-16.506Z" style="fill:rgb(213,213,213);"/>
                    <path d="M677.13,819.804c0.828,-0.478 1.848,-0.478 2.676,0l28.589,16.506c0.828,0.478 1.338,1.361 1.338,2.317l0.002,33.012c-0,0.956 -0.51,1.84 -1.338,2.318l-28.588,16.506c-0.828,0.478 -1.848,0.478 -2.676,-0l-28.589,-16.506c-0.828,-0.478 -1.338,-1.361 -1.338,-2.317l-0.001,-33.012c-0,-0.956 0.51,-1.84 1.338,-2.318l28.587,-16.506Zm0.938,1.624l-28.588,16.506c-0.248,0.143 -0.4,0.407 -0.4,0.694l0.001,33.011c0,0.287 0.153,0.551 0.401,0.694l28.589,16.506c0.248,0.143 0.553,0.143 0.801,0l28.587,-16.506c0.248,-0.143 0.401,-0.407 0.401,-0.694l-0.002,-33.011c0,-0.287 -0.152,-0.551 -0.4,-0.694l-28.589,-16.506c-0.248,-0.143 -0.553,-0.143 -0.801,-0Z" style="fill:rgb(169,169,169);"/>
                    <ellipse cx="678.47" cy="855.133" rx="17.849" ry="17.848" style="fill:rgb(131,133,136);"/>
                </g>
                <g id="Flat-jack5" serif:id="Flat jack">
                    <path d="M678.068,942.789c0.248,-0.143 0.553,-0.143 0.801,-0c3.255,1.879 25.333,14.626 28.589,16.506c0.248,0.143 0.4,0.407 0.4,0.693c0,3.759 0.002,29.253 0.002,33.012c-0,0.287 -0.153,0.551 -0.401,0.694c-3.255,1.88 -25.332,14.627 -28.587,16.506c-0.248,0.143 -0.553,0.143 -0.801,0c-3.256,-1.879 -25.334,-14.626 -28.589,-16.506c-0.248,-0.143 -0.401,-0.407 -0.401,-0.694c0,-3.758 -0.001,-29.253 -0.001,-33.012c-0,-0.286 0.152,-0.55 0.4,-0.693c3.255,-1.88 25.332,-14.627 28.588,-16.506Z" style="fill:rgb(213,213,213);"/>
                    <path d="M677.13,941.165c0.828,-0.478 1.848,-0.478 2.676,-0l28.589,16.506c0.828,0.478 1.338,1.361 1.338,2.317l0.002,33.012c-0,0.956 -0.51,1.84 -1.338,2.318l-28.588,16.506c-0.828,0.478 -1.848,0.478 -2.676,-0l-28.589,-16.506c-0.828,-0.478 -1.338,-1.361 -1.338,-2.318l-0.001,-33.011c-0,-0.957 0.51,-1.84 1.338,-2.318l28.587,-16.506Zm0.938,1.624l-28.588,16.506c-0.248,0.143 -0.4,0.407 -0.4,0.693l0.001,33.012c0,0.287 0.153,0.551 0.401,0.694l28.589,16.506c0.248,0.143 0.553,0.143 0.801,0l28.587,-16.506c0.248,-0.143 0.401,-0.407 0.401,-0.694l-0.002,-33.012c0,-0.286 -0.152,-0.55 -0.4,-0.693l-28.589,-16.506c-0.248,-0.143 -0.553,-0.143 -0.801,-0Z" style="fill:rgb(169,169,169);"/>
                    <ellipse cx="678.47" cy="976.494" rx="17.849" ry="17.848" style="fill:rgb(131,133,136);"/>
                </g>
                <g id="Flat-jack6" serif:id="Flat jack">
                    <path d="M788.649,942.789c0.248,-0.143 0.553,-0.143 0.801,-0c3.255,1.879 25.334,14.626 28.589,16.506c0.248,0.143 0.401,0.407 0.401,0.693c-0,3.759 0.001,29.253 0.001,33.012c0,0.287 -0.153,0.551 -0.4,0.694c-3.255,1.88 -25.332,14.627 -28.588,16.506c-0.248,0.143 -0.553,0.143 -0.801,0c-3.255,-1.879 -25.334,-14.626 -28.589,-16.506c-0.248,-0.143 -0.4,-0.407 -0.4,-0.694c-0,-3.758 -0.002,-29.253 -0.002,-33.012c0,-0.286 0.153,-0.55 0.401,-0.693c3.255,-1.88 25.332,-14.627 28.587,-16.506Z" style="fill:rgb(213,213,213);"/>
                    <path d="M787.712,941.165c0.828,-0.478 1.848,-0.478 2.676,-0l28.589,16.506c0.828,0.478 1.338,1.361 1.338,2.317l0.001,33.012c0,0.956 -0.51,1.84 -1.338,2.318l-28.587,16.506c-0.828,0.478 -1.848,0.478 -2.676,-0l-28.589,-16.506c-0.828,-0.478 -1.338,-1.361 -1.338,-2.318l-0.002,-33.011c0,-0.957 0.51,-1.84 1.338,-2.318l28.588,-16.506Zm0.937,1.624l-28.587,16.506c-0.248,0.143 -0.401,0.407 -0.401,0.693l0.002,33.012c-0,0.287 0.152,0.551 0.4,0.694l28.589,16.506c0.248,0.143 0.553,0.143 0.801,0l28.588,-16.506c0.247,-0.143 0.4,-0.407 0.4,-0.694l-0.001,-33.012c-0,-0.286 -0.153,-0.55 -0.401,-0.693l-28.589,-16.506c-0.248,-0.143 -0.553,-0.143 -0.801,-0Z" style="fill:rgb(169,169,169);"/>
                    <ellipse cx="789.051" cy="976.494" rx="17.849" ry="17.848" style="fill:rgb(131,133,136);"/>
                </g>
            </g>
            <g id="Stars">
                <path d="M921.983,265.222l5.268,15.96c0.211,0.641 0.717,1.143 1.36,1.349c0.643,0.206 1.346,0.093 1.892,-0.306l9.369,-6.843l-0.642,11.585c-0.038,0.674 0.249,1.326 0.773,1.753c0.523,0.427 1.219,0.578 1.872,0.407l16.256,-4.266l-11.187,12.542c-0.45,0.504 -0.631,1.193 -0.489,1.853c0.143,0.66 0.593,1.212 1.211,1.485l10.612,4.693l-10.355,5.236c-0.603,0.304 -1.023,0.879 -1.132,1.546c-0.108,0.666 0.109,1.345 0.584,1.825l11.823,11.945l-16.456,-3.418c-0.661,-0.137 -1.348,0.05 -1.849,0.504c-0.5,0.454 -0.753,1.119 -0.681,1.791l1.242,11.536l-9.711,-6.349c-0.566,-0.37 -1.274,-0.447 -1.905,-0.207c-0.632,0.239 -1.111,0.766 -1.289,1.418l-4.434,16.211l-5.268,-15.96c-0.211,-0.641 -0.717,-1.143 -1.36,-1.349c-0.643,-0.206 -1.346,-0.093 -1.892,0.306l-9.369,6.844l0.642,-11.586c0.038,-0.674 -0.249,-1.326 -0.773,-1.753c-0.523,-0.427 -1.219,-0.578 -1.872,-0.407l-16.256,4.266l11.187,-12.542c0.45,-0.504 0.631,-1.193 0.489,-1.853c-0.143,-0.66 -0.593,-1.212 -1.211,-1.485l-10.612,-4.693l10.355,-5.236c0.603,-0.304 1.023,-0.879 1.132,-1.546c0.108,-0.666 -0.109,-1.345 -0.584,-1.825l-11.823,-11.945l16.456,3.418c0.661,0.137 1.348,-0.05 1.849,-0.504c0.5,-0.454 0.753,-1.119 0.681,-1.791l-1.242,-11.536l9.711,6.349c0.566,0.37 1.274,0.447 1.905,0.207c0.632,-0.239 1.111,-0.766 1.289,-1.418l4.434,-16.211Z" style="fill:rgb(213,213,213);"/>
                <path d="M879.732,332.349l-7.734,5.817l-1.434,-10.133l-16.494,9.137l9.137,-16.494l-10.133,-1.434l6.152,-8.179l-18.125,-5.202l18.125,-5.203l-6.152,-8.179l10.133,-1.433l-9.137,-16.495l16.494,9.138l1.434,-10.134l8.179,6.152l5.202,-18.124l5.203,18.124l8.179,-6.152l1.433,10.134l0.94,-0.521l0.241,2.231l-20.474,-4.252c-0.912,-0.19 -1.841,0.241 -2.286,1.059c-0.445,0.819 -0.301,1.833 0.355,2.495l14.709,14.862l-11.746,5.94c-0.729,0.369 -1.18,1.124 -1.159,1.94c0.021,0.816 0.511,1.547 1.258,1.877l12.038,5.324l-13.919,15.604c-0.518,0.581 -0.668,1.388 -0.419,2.101Zm33.172,-55.701l1.855,-1.027l-0.52,1.899l-1.335,-0.872Zm3.267,60.235l-1.248,-0.691l0.822,-0.6l0.426,1.291Zm-13.731,-7.606l-1.07,-0.593l1.119,-0.294l-0.049,0.887Zm-2.387,-0.248l-1.292,9.137l-8.179,-6.152l-5.203,18.125l-4.796,-16.708c0.487,0.313 1.094,0.421 1.68,0.267l17.79,-4.669Z" style="fill:rgb(213,213,213);"/>
                <path d="M985.293,479.151l5.716,7.617l3.712,-5.343l0.885,6.445l8.548,-4.195l-5.477,7.789l6.228,1.879l-5.856,2.834l6.632,6.833l-9.101,-2.802l0.137,6.504l-4.504,-4.694l-4.45,8.419l-0.147,-9.521l-6.144,2.14l3.073,-5.734l-9.382,-1.631l9.01,-3.082l-3.935,-5.181l6.404,1.15l-1.349,-9.427Z" style="fill:rgb(213,213,213);stroke:rgb(213,213,213);stroke-width:6.25px;stroke-linecap:butt;stroke-miterlimit:2;"/>
                <path d="M901.856,708.292l1.399,11.485l3.821,-2.851l0.357,4.754l9.584,-6.48l-6.31,9.697l4.759,0.273l-2.782,3.871l11.507,1.197l-11.067,3.372l3.47,3.269l-4.619,1.176l8.046,8.314l-10.646,-4.531l0.558,4.735l-4.295,-2.068l0.819,11.54l-5.243,-10.313l-2.616,3.985l-1.961,-4.345l-6.79,9.367l2.613,-11.271l-4.566,1.372l1.291,-4.589l-11.223,2.811l9.247,-6.955l-4.379,-1.884l3.938,-2.685l-10.404,-5.061l11.554,0.616l-2.144,-4.258l4.744,0.475l-4.717,-10.565l8.454,7.899l1.095,-4.64l3.328,3.413l3.178,-11.125Z" style="fill:rgb(213,213,213);stroke:rgb(213,213,213);stroke-width:3.33px;stroke-linecap:butt;stroke-miterlimit:2;"/>
                <path d="M997.726,457.177l1.927,3.721l2.824,1.815l-2.824,1.815l-1.927,3.721l-1.927,-3.721l-2.825,-1.815l2.825,-1.815l1.927,-3.721Z" style="fill:rgb(213,213,213);stroke:rgb(213,213,213);stroke-width:6.25px;stroke-linecap:butt;stroke-miterlimit:2;"/>
                <path d="M1079.95,596.145l-0.319,14.01l9.816,-0.27l-6.12,7.68l11.384,8.173l-14.01,-0.319l0.269,9.816l-7.679,-6.12l-8.173,11.384l0.319,-14.01l-9.816,0.269l6.119,-7.68l-11.383,-8.172l14.01,0.319l-0.27,-9.817l7.68,6.12l8.173,-11.383Z" style="fill:rgb(213,213,213);stroke:rgb(213,213,213);stroke-width:6.25px;stroke-linecap:butt;stroke-miterlimit:2;"/>
                <path d="M672.842,614.857l3.838,11.18l8.261,1.023l-4.226,7.172l6.522,9.859l-11.602,-2.267l-5.016,6.643l-4.098,-7.246l-11.799,0.719l7.764,-8.914l-3.245,-7.666l8.324,0.074l5.277,-10.577Z" style="fill:rgb(213,213,213);stroke:rgb(213,213,213);stroke-width:6.25px;stroke-linecap:butt;stroke-miterlimit:2;"/>
                <path d="M807.144,503.956l4.042,14.262c0.044,0.153 0.107,0.292 0.187,0.407c0.08,0.115 0.175,0.203 0.278,0.26l9.557,5.272l-9.236,5.817c-0.099,0.062 -0.188,0.156 -0.262,0.275c-0.073,0.12 -0.128,0.262 -0.163,0.417l-3.21,14.473l-4.042,-14.262c-0.044,-0.154 -0.107,-0.292 -0.187,-0.407c-0.08,-0.115 -0.175,-0.204 -0.278,-0.26l-9.557,-5.272l9.236,-5.817c0.099,-0.063 0.188,-0.157 0.262,-0.276c0.073,-0.119 0.128,-0.261 0.163,-0.417l3.21,-14.472Z" style="fill:rgb(213,213,213);stroke:rgb(213,213,213);stroke-width:6.25px;"/>
                <path d="M1030.22,601.76l2.94,5.136c0.024,0.041 0.051,0.077 0.08,0.108c0.029,0.031 0.06,0.055 0.093,0.073l4.07,2.212l-2.912,3.603c-0.023,0.029 -0.042,0.063 -0.058,0.103c-0.015,0.04 -0.026,0.083 -0.032,0.13l-0.748,5.871l-2.94,-5.136c-0.024,-0.041 -0.05,-0.077 -0.08,-0.108c-0.029,-0.031 -0.06,-0.055 -0.093,-0.073l-4.07,-2.212l2.912,-3.603c0.023,-0.029 0.043,-0.063 0.058,-0.103c0.015,-0.039 0.026,-0.083 0.032,-0.13l0.748,-5.871Z" style="fill:rgb(213,213,213);stroke:rgb(213,213,213);stroke-width:6.25px;"/>
                <path d="M713.781,411.401l1.938,-2.768c0.015,-0.022 0.029,-0.05 0.041,-0.083c0.011,-0.033 0.02,-0.07 0.027,-0.11l0.81,-5.072l1.403,4.941c0.011,0.039 0.024,0.075 0.039,0.106c0.016,0.031 0.033,0.057 0.051,0.077l2.251,2.521l-1.938,2.769c-0.016,0.022 -0.029,0.05 -0.041,0.083c-0.011,0.032 -0.02,0.069 -0.027,0.11l-0.81,5.072l-1.403,-4.941c-0.011,-0.039 -0.024,-0.075 -0.04,-0.106c-0.015,-0.032 -0.032,-0.058 -0.05,-0.078l-2.251,-2.521Z" style="fill:rgb(213,213,213);stroke:rgb(213,213,213);stroke-width:6.25px;"/>
                <path d="M1097.6,632.217l1.082,5.959c0.012,0.071 0.031,0.134 0.055,0.186c0.023,0.052 0.051,0.09 0.08,0.112l2.482,1.863l-2.287,2.097c-0.027,0.025 -0.051,0.066 -0.069,0.12c-0.018,0.054 -0.031,0.119 -0.037,0.19l-0.492,6.037l-1.082,-5.96c-0.013,-0.07 -0.032,-0.134 -0.056,-0.185c-0.023,-0.052 -0.051,-0.09 -0.08,-0.112l-2.482,-1.863l2.287,-2.098c0.027,-0.024 0.051,-0.065 0.069,-0.119c0.019,-0.054 0.031,-0.119 0.037,-0.19l0.493,-6.037Z" style="fill:rgb(213,213,213);stroke:rgb(213,213,213);stroke-width:6.25px;"/>
                <path d="M1119.62,388.509l3.121,9.947c0.063,0.198 0.2,0.368 0.386,0.475c0.186,0.107 0.406,0.144 0.617,0.103l10.572,-2.04l-5.114,9.052c-0.102,0.181 -0.128,0.392 -0.075,0.593c0.054,0.2 0.185,0.375 0.366,0.489l9.083,5.731l-10.354,2.855c-0.206,0.057 -0.382,0.187 -0.491,0.363c-0.11,0.176 -0.145,0.386 -0.1,0.589l2.273,10.145l-9.528,-5.015c-0.19,-0.1 -0.412,-0.128 -0.621,-0.079c-0.209,0.049 -0.389,0.171 -0.506,0.343l-5.869,8.617l-3.122,-9.947c-0.062,-0.199 -0.199,-0.369 -0.385,-0.476c-0.186,-0.107 -0.406,-0.144 -0.617,-0.103l-10.572,2.04l5.114,-9.052c0.102,-0.181 0.128,-0.392 0.075,-0.593c-0.054,-0.2 -0.185,-0.375 -0.366,-0.489l-9.083,-5.731l10.354,-2.855c0.206,-0.057 0.382,-0.187 0.491,-0.363c0.11,-0.176 0.145,-0.386 0.1,-0.589l-2.273,-10.145l9.528,5.015c0.19,0.1 0.412,0.128 0.621,0.079c0.209,-0.048 0.389,-0.171 0.506,-0.343l5.869,-8.616Z" style="fill:rgb(213,213,213);stroke:rgb(213,213,213);stroke-width:6.25px;"/>
                <path d="M747.311,396.255l4.162,6.638c0.07,0.112 0.172,0.201 0.294,0.257c0.122,0.056 0.259,0.077 0.393,0.06l8.029,-1.032l-2.839,7.246c-0.048,0.122 -0.057,0.254 -0.027,0.38c0.03,0.126 0.099,0.241 0.196,0.331l5.851,5.352l-7.703,2.397c-0.129,0.041 -0.242,0.116 -0.327,0.217c-0.084,0.101 -0.136,0.224 -0.148,0.353l-0.734,7.705l-6.765,-4.256c-0.113,-0.071 -0.246,-0.109 -0.382,-0.109c-0.135,-0 -0.268,0.038 -0.381,0.109l-6.765,4.256l-0.734,-7.705c-0.012,-0.129 -0.064,-0.252 -0.148,-0.353c-0.085,-0.101 -0.199,-0.176 -0.328,-0.217l-7.702,-2.397l5.85,-5.352c0.098,-0.09 0.167,-0.205 0.197,-0.331c0.03,-0.126 0.021,-0.258 -0.027,-0.38l-2.839,-7.246l8.029,1.032c0.134,0.017 0.271,-0.004 0.393,-0.06c0.122,-0.056 0.224,-0.145 0.294,-0.257l4.161,-6.638Z" style="fill:rgb(213,213,213);stroke:rgb(213,213,213);stroke-width:6.25px;"/>
            </g>
            <g id="Controls">
                <g id="_1900h" serif:id="1900h">
                    <circle cx="900.134" cy="425.58" r="50.7" style="fill:rgb(131,133,136);"/>
                    <rect x="898.291" y="380.992" width="3.687" height="35.149" style="fill:white;"/>
                </g>
                <g id="_1900h1" serif:id="1900h">
                    <circle cx="900.134" cy="604.182" r="50.7" style="fill:rgb(131,133,136);"/>
                    <rect x="898.291" y="559.594" width="3.687" height="35.149" style="fill:white;"/>
                </g>
                <g id="_1900h2" serif:id="1900h">
                    <circle cx="714.659" cy="502.781" r="50.7" style="fill:rgb(131,133,136);"/>
                    <rect x="712.815" y="458.194" width="3.687" height="35.149" style="fill:white;"/>
                </g>
                <g id="_1900h3" serif:id="1900h">
                    <circle cx="1085.37" cy="502.781" r="50.7" style="fill:rgb(131,133,136);"/>
                    <rect x="1083.53" y="458.194" width="3.687" height="35.149" style="fill:white;"/>
                </g>
                <g id="Large-MXR" serif:id="Large MXR">
                    <circle cx="748.187" cy="255.523" r="99.803" style="fill:rgb(131,133,136);"/>
                    <rect x="744.017" y="180.788" width="8.341" height="69.654" style="fill:white;"/>
                    <circle cx="748.187" cy="165.291" r="4.171" style="fill:white;"/>
                </g>
                <g id="Large-MXR1" serif:id="Large MXR">
                    <circle cx="1052.08" cy="255.523" r="99.803" style="fill:rgb(131,133,136);"/>
                    <rect x="1047.91" y="180.788" width="8.341" height="69.654" style="fill:white;"/>
                    <circle cx="1052.08" cy="165.291" r="4.171" style="fill:white;"/>
                </g>
                <g id="_1RWHT" serif:id="1RWHT">
                    <ellipse cx="899.893" cy="797.462" rx="20.779" ry="20.813" style="fill:rgb(213,213,213);"/>
                </g>
                <g id="Tall-Trimmer" serif:id="Tall Trimmer">
                    <circle cx="789.051" cy="734.594" r="23.953" style="fill:rgb(131,133,136);"/>
                    <rect x="786.717" y="710.641" width="4.667" height="12.839" style="fill:white;"/>
                </g>
                <g id="Tall-Trimmer1" serif:id="Tall Trimmer">
                    <circle cx="678.47" cy="734.594" r="23.953" style="fill:rgb(131,133,136);"/>
                    <rect x="676.136" y="710.641" width="4.667" height="12.839" style="fill:white;"/>
                </g>
                <g id="Tall-Trimmer2" serif:id="Tall Trimmer">
                    <circle cx="789.051" cy="855.133" r="23.953" style="fill:rgb(131,133,136);"/>
                    <rect x="786.717" y="831.181" width="4.667" height="12.839" style="fill:white;"/>
                </g>
                <g id="Tall-Trimmer3" serif:id="Tall Trimmer">
                    <circle cx="1119.7" cy="734.594" r="23.953" style="fill:rgb(131,133,136);"/>
                    <rect x="1117.37" y="710.641" width="4.667" height="12.839" style="fill:white;"/>
                </g>
                <g id="Tall-Trimmer4" serif:id="Tall Trimmer">
                    <circle cx="1009.68" cy="855.133" r="23.953" style="fill:rgb(131,133,136);"/>
                    <rect x="1007.34" y="831.181" width="4.667" height="12.839" style="fill:white;"/>
                </g>
                <g id="Tall-Trimmer5" serif:id="Tall Trimmer">
                    <circle cx="1009.09" cy="734.594" r="23.953" style="fill:rgb(131,133,136);"/>
                    <rect x="1006.76" y="710.641" width="4.667" height="12.839" style="fill:white;"/>
                </g>
            </g>
        </g>
        <g>
            <rect x="168.287" y="382.497" width="415.666" height="79.707" style="fill:rgb(230,33,109);stroke:rgb(230,33,109);stroke-width:10.42px;"/>
            <path d="M188.132,438.467l6.982,-34.4l6.313,0l-5.835,28.7l14.539,0l-0,6.3l-21.999,0l0,-0.6Z" style="fill:rgb(244,244,245);fill-rule:nonzero;"/>
            <path d="M224.573,404.067l20.134,0l-0,6.3l-15.112,0l-1.626,8l13.534,0l-0,6.3l-14.825,0l-2.918,14.4l-6.312,0l7.125,-35Z" style="fill:rgb(244,244,245);fill-rule:nonzero;"/>
            <path d="M249.059,417.667c0.988,-4.933 2.638,-8.55 4.95,-10.85c2.311,-2.3 5.491,-3.45 9.54,-3.45c1.69,0 3.189,0.275 4.496,0.825c1.307,0.55 2.407,1.317 3.3,2.3c0.892,0.984 1.57,2.142 2.032,3.475c0.462,1.334 0.694,2.767 0.694,4.3c-0,0.567 -0.024,1.134 -0.072,1.7c-0.048,0.567 -0.136,1.134 -0.263,1.7l-1.578,7.8c-0.989,4.934 -2.639,8.55 -4.95,10.85c-2.312,2.3 -5.492,3.45 -9.541,3.45c-1.69,0 -3.188,-0.275 -4.495,-0.825c-1.307,-0.55 -2.407,-1.316 -3.3,-2.3c-0.893,-0.983 -1.57,-2.133 -2.033,-3.45c-0.462,-1.316 -0.693,-2.758 -0.693,-4.325c-0,-0.566 0.024,-1.133 0.072,-1.7c0.048,-0.566 0.135,-1.133 0.263,-1.7l1.578,-7.8Zm9.182,16.1c1.084,0 2.04,-0.208 2.869,-0.625c0.829,-0.416 1.555,-0.975 2.176,-1.675c0.622,-0.7 1.132,-1.533 1.531,-2.5c0.398,-0.966 0.709,-2 0.932,-3.1l1.77,-8.6c0.095,-0.533 0.167,-0.991 0.215,-1.375c0.048,-0.383 0.072,-0.758 0.072,-1.125c-0,-1.7 -0.423,-3.025 -1.268,-3.975c-0.845,-0.95 -2.032,-1.425 -3.562,-1.425c-1.084,0 -2.041,0.209 -2.87,0.625c-0.829,0.417 -1.554,0.975 -2.176,1.675c-0.622,0.7 -1.132,1.534 -1.53,2.5c-0.399,0.967 -0.71,2 -0.933,3.1l-1.769,8.6c-0.192,0.9 -0.287,1.734 -0.287,2.5c-0,1.7 0.422,3.025 1.267,3.975c0.845,0.95 2.033,1.425 3.563,1.425Z" style="fill:rgb(244,244,245);fill-rule:nonzero;"/>
            <path d="M315.916,420.267l-6.743,0l-0,-6l7.986,0l1.052,-5.1c0.128,-0.7 0.383,-1.366 0.766,-2c0.382,-0.633 0.837,-1.175 1.363,-1.625c0.526,-0.45 1.115,-0.808 1.769,-1.075c0.654,-0.266 1.315,-0.4 1.985,-0.4l8.417,0l-0,6l-7.174,0c-0.861,0 -1.387,0.5 -1.578,1.5l-0.574,2.7l8.082,0l0,6l-9.325,0l-5.309,24.8c-0.35,1.634 -1.004,2.809 -1.96,3.525c-0.957,0.717 -1.993,1.075 -3.109,1.075c-0.925,0 -1.825,-0.225 -2.702,-0.675c-0.877,-0.45 -1.554,-1.091 -2.033,-1.925l-3.012,-5.05l4.638,-2.95l2.105,3.8l0.574,-0.1l4.782,-22.5Z" style="fill:rgb(244,244,245);fill-rule:nonzero;"/>
            <path d="M342.267,420.167l-0.479,-0.3l-3.778,2.9l-3.204,-4.5l3.826,-3c0.733,-0.566 1.506,-0.991 2.319,-1.275c0.813,-0.283 1.587,-0.425 2.32,-0.425c1.275,0 2.391,0.367 3.347,1.1c0.957,0.734 1.531,1.767 1.722,3.1l0.861,0c0.638,-1.4 1.53,-2.45 2.678,-3.15c1.148,-0.7 2.439,-1.05 3.874,-1.05c1.817,0 3.292,0.592 4.423,1.775c1.132,1.184 1.698,2.825 1.698,4.925c0,0.434 -0.024,0.859 -0.072,1.275c-0.047,0.417 -0.135,0.925 -0.263,1.525l-0.239,1.1l-6.408,0.5l0.143,-0.7c0.096,-0.5 0.144,-0.95 0.144,-1.35c-0,-0.966 -0.255,-1.733 -0.765,-2.3c-0.51,-0.566 -1.276,-0.85 -2.296,-0.85c-1.275,0 -2.287,0.45 -3.037,1.35c-0.749,0.9 -1.299,2.184 -1.65,3.85l-1.721,8.4l5.739,0l-0,6l-16.356,0l0,-6l4.591,0l2.583,-12.9Z" style="fill:rgb(244,244,245);fill-rule:nonzero;"/>
            <path d="M370.913,428.717c-0.064,0.267 -0.096,0.55 -0.096,0.85c0,1.2 0.438,2.2 1.315,3c0.877,0.8 2.033,1.2 3.467,1.2c1.499,0 2.694,-0.283 3.587,-0.85c0.893,-0.566 1.578,-1.233 2.057,-2l4.782,3.15c-0.383,0.667 -0.885,1.334 -1.507,2c-0.621,0.667 -1.386,1.275 -2.295,1.825c-0.909,0.55 -1.977,1 -3.204,1.35c-1.228,0.35 -2.654,0.525 -4.28,0.525c-1.467,0 -2.814,-0.241 -4.041,-0.725c-1.228,-0.483 -2.28,-1.15 -3.157,-2c-0.877,-0.85 -1.562,-1.866 -2.056,-3.05c-0.494,-1.183 -0.741,-2.491 -0.741,-3.925c-0,-2.266 0.326,-4.4 0.98,-6.4c0.654,-2 1.602,-3.75 2.845,-5.25c1.244,-1.5 2.774,-2.683 4.591,-3.55c1.818,-0.866 3.906,-1.3 6.265,-1.3c1.658,0 3.101,0.275 4.328,0.825c1.228,0.55 2.24,1.284 3.037,2.2c0.797,0.917 1.395,1.959 1.793,3.125c0.399,1.167 0.598,2.367 0.598,3.6c0,0.4 -0.024,0.809 -0.071,1.225c-0.048,0.417 -0.136,0.959 -0.264,1.625l-0.526,2.55l-17.407,0Zm7.556,-9.45c-1.499,0 -2.798,0.392 -3.898,1.175c-1.1,0.784 -1.921,1.742 -2.463,2.875l11.191,0c-0,-1.266 -0.375,-2.258 -1.124,-2.975c-0.749,-0.716 -1.985,-1.075 -3.706,-1.075Z" style="fill:rgb(244,244,245);fill-rule:nonzero;"/>
            <path d="M404.533,433.767c1.147,0 2.199,-0.25 3.156,-0.75c0.956,-0.5 1.785,-1.175 2.487,-2.025c0.701,-0.85 1.243,-1.825 1.626,-2.925c0.382,-1.1 0.574,-2.25 0.574,-3.45c-0,-1.6 -0.439,-2.841 -1.316,-3.725c-0.876,-0.883 -2.096,-1.325 -3.658,-1.325c-1.148,0 -2.208,0.259 -3.18,0.775c-0.973,0.517 -1.802,1.2 -2.487,2.05c-0.686,0.85 -1.22,1.825 -1.602,2.925c-0.383,1.1 -0.574,2.25 -0.574,3.45c-0,1.634 0.438,2.875 1.315,3.725c0.877,0.85 2.096,1.275 3.659,1.275Zm5.834,1.7l-0.861,0c-0.351,0.567 -0.749,1.109 -1.195,1.625c-0.447,0.517 -0.981,0.975 -1.602,1.375c-0.622,0.4 -1.363,0.717 -2.224,0.95c-0.861,0.234 -1.865,0.35 -3.013,0.35c-1.116,0 -2.16,-0.216 -3.133,-0.65c-0.972,-0.433 -1.833,-1.05 -2.582,-1.85c-0.749,-0.8 -1.339,-1.766 -1.769,-2.9c-0.431,-1.133 -0.646,-2.4 -0.646,-3.8c-0,-2.233 0.295,-4.375 0.885,-6.425c0.589,-2.05 1.458,-3.858 2.606,-5.425c1.148,-1.566 2.551,-2.816 4.208,-3.75c1.658,-0.933 3.555,-1.4 5.691,-1.4c1.945,0 3.404,0.417 4.376,1.25c0.973,0.834 1.634,1.85 1.985,3.05l0.861,0l0.717,-3.6l6.026,0l-5.882,28.75l0.478,0.35l2.678,-1.9l3.013,4.7l-3.204,2.2c-0.638,0.467 -1.3,0.8 -1.985,1c-0.686,0.2 -1.347,0.3 -1.985,0.3c-1.434,0 -2.654,-0.475 -3.658,-1.425c-1.005,-0.95 -1.507,-2.258 -1.507,-3.925c0,-0.466 0.064,-1.016 0.192,-1.65l1.53,-7.2Z" style="fill:rgb(244,244,245);fill-rule:nonzero;"/>
            <path d="M432.222,414.267l-2.965,14.4c-0.127,0.567 -0.191,1.117 -0.191,1.65c-0,1.267 0.335,2.209 1.004,2.825c0.67,0.617 1.562,0.925 2.678,0.925c1.69,0 2.989,-0.575 3.898,-1.725c0.909,-1.15 1.586,-2.775 2.032,-4.875l2.679,-13.2l6.025,0l-3.921,18.9l0.526,0.3l1.721,-1.3l3.013,4.6l-2.247,1.7c-0.606,0.467 -1.236,0.8 -1.889,1c-0.654,0.2 -1.3,0.3 -1.937,0.3c-1.307,0 -2.455,-0.391 -3.444,-1.175c-0.988,-0.783 -1.546,-1.925 -1.673,-3.425l-0.861,0c-0.702,1.7 -1.65,2.892 -2.846,3.575c-1.195,0.684 -2.542,1.025 -4.041,1.025c-2.072,0 -3.762,-0.658 -5.069,-1.975c-1.307,-1.316 -1.961,-3.158 -1.961,-5.525c0,-0.833 0.096,-1.733 0.287,-2.7l3.157,-15.3l6.025,0Z" style="fill:rgb(244,244,245);fill-rule:nonzero;"/>
            <path d="M458.716,428.717c-0.063,0.267 -0.095,0.55 -0.095,0.85c-0,1.2 0.438,2.2 1.315,3c0.877,0.8 2.032,1.2 3.467,1.2c1.499,0 2.694,-0.283 3.587,-0.85c0.893,-0.566 1.578,-1.233 2.056,-2l4.783,3.15c-0.383,0.667 -0.885,1.334 -1.507,2c-0.622,0.667 -1.387,1.275 -2.295,1.825c-0.909,0.55 -1.977,1 -3.205,1.35c-1.227,0.35 -2.654,0.525 -4.28,0.525c-1.466,0 -2.813,-0.241 -4.041,-0.725c-1.227,-0.483 -2.279,-1.15 -3.156,-2c-0.877,-0.85 -1.562,-1.866 -2.057,-3.05c-0.494,-1.183 -0.741,-2.491 -0.741,-3.925c0,-2.266 0.327,-4.4 0.981,-6.4c0.653,-2 1.602,-3.75 2.845,-5.25c1.243,-1.5 2.774,-2.683 4.591,-3.55c1.817,-0.866 3.906,-1.3 6.265,-1.3c1.658,0 3.1,0.275 4.328,0.825c1.227,0.55 2.24,1.284 3.037,2.2c0.797,0.917 1.395,1.959 1.793,3.125c0.399,1.167 0.598,2.367 0.598,3.6c-0,0.4 -0.024,0.809 -0.072,1.225c-0.048,0.417 -0.135,0.959 -0.263,1.625l-0.526,2.55l-17.408,0Zm7.556,-9.45c-1.498,0 -2.797,0.392 -3.897,1.175c-1.1,0.784 -1.921,1.742 -2.463,2.875l11.191,0c-0,-1.266 -0.375,-2.258 -1.124,-2.975c-0.749,-0.716 -1.985,-1.075 -3.707,-1.075Z" style="fill:rgb(244,244,245);fill-rule:nonzero;"/>
            <path d="M498.218,424.667c0.128,-0.633 0.192,-1.166 0.192,-1.6c-0,-1.2 -0.335,-2.133 -1.005,-2.8c-0.669,-0.666 -1.578,-1 -2.725,-1c-1.435,0 -2.663,0.534 -3.683,1.6c-1.02,1.067 -1.706,2.5 -2.056,4.3l-2.822,13.9l-6.026,0l5.022,-24.8l5.786,0l-0.813,4l0.861,0c0.765,-1.666 1.778,-2.866 3.037,-3.6c1.259,-0.733 2.654,-1.1 4.185,-1.1c2.008,0 3.61,0.634 4.806,1.9c1.195,1.267 1.793,3.05 1.793,5.35c0,0.534 -0.032,1.025 -0.095,1.475c-0.064,0.45 -0.144,0.942 -0.24,1.475l-1.912,9.35l0.478,0.35l2.056,-1.5l3.013,4.7l-2.582,1.8c-1.212,0.867 -2.503,1.3 -3.874,1.3c-0.702,0 -1.371,-0.125 -2.009,-0.375c-0.637,-0.25 -1.195,-0.6 -1.674,-1.05c-0.478,-0.45 -0.86,-1 -1.147,-1.65c-0.287,-0.65 -0.431,-1.391 -0.431,-2.225c0,-0.433 0.048,-0.933 0.144,-1.5l1.721,-8.3Z" style="fill:rgb(244,244,245);fill-rule:nonzero;"/>
            <path d="M534.899,429.967c-0.893,2.967 -2.479,5.342 -4.758,7.125c-2.28,1.784 -5.333,2.675 -9.159,2.675c-1.402,0 -2.726,-0.233 -3.969,-0.7c-1.243,-0.466 -2.327,-1.166 -3.252,-2.1c-0.925,-0.933 -1.65,-2.091 -2.176,-3.475c-0.526,-1.383 -0.789,-2.991 -0.789,-4.825c-0,-2.066 0.343,-4.016 1.028,-5.85c0.686,-1.833 1.682,-3.433 2.989,-4.8c1.307,-1.366 2.885,-2.45 4.735,-3.25c1.849,-0.8 3.953,-1.2 6.312,-1.2c1.722,0 3.236,0.267 4.544,0.8c1.307,0.534 2.391,1.259 3.252,2.175c0.86,0.917 1.514,1.992 1.96,3.225c0.447,1.234 0.67,2.534 0.67,3.9l-6.122,1.25c0,-1.7 -0.406,-3.016 -1.219,-3.95c-0.813,-0.933 -2.128,-1.4 -3.946,-1.4c-1.147,0 -2.207,0.225 -3.18,0.675c-0.972,0.45 -1.817,1.067 -2.534,1.85c-0.718,0.784 -1.276,1.7 -1.674,2.75c-0.399,1.05 -0.598,2.175 -0.598,3.375c-0,1.9 0.478,3.3 1.435,4.2c0.956,0.9 2.168,1.35 3.634,1.35c2.009,0 3.571,-0.466 4.687,-1.4c1.116,-0.933 1.961,-2.25 2.535,-3.95l5.595,1.55Z" style="fill:rgb(244,244,245);fill-rule:nonzero;"/>
            <path d="M549.533,428.667c-0.064,0.234 -0.112,0.484 -0.144,0.75c-0.031,0.267 -0.047,0.534 -0.047,0.8c-0,1.267 0.35,2.225 1.052,2.875c0.701,0.65 1.658,0.975 2.869,0.975c1.722,0 3.045,-0.583 3.969,-1.75c0.925,-1.166 1.61,-2.85 2.057,-5.05l2.63,-13l6.026,0l-6.265,30.9c-0.223,1.134 -0.749,2.067 -1.578,2.8c-0.829,0.734 -1.786,1.1 -2.87,1.1l-13.868,0l-0,-6l11.429,0c0.861,0 1.387,-0.5 1.579,-1.5l1.243,-6.1l-0.861,0c-0.701,1.5 -1.594,2.592 -2.678,3.275c-1.084,0.684 -2.439,1.025 -4.065,1.025c-0.956,0 -1.849,-0.175 -2.678,-0.525c-0.829,-0.35 -1.562,-0.85 -2.2,-1.5c-0.638,-0.65 -1.14,-1.45 -1.506,-2.4c-0.367,-0.95 -0.55,-2.041 -0.55,-3.275c-0,-0.833 0.095,-1.7 0.287,-2.6l1.865,-9.25l-0.478,-0.35l-2.87,2.1l-3.013,-4.7l3.491,-2.45c0.606,-0.433 1.228,-0.75 1.865,-0.95c0.638,-0.2 1.276,-0.3 1.913,-0.3c0.702,0 1.371,0.125 2.009,0.375c0.638,0.25 1.196,0.6 1.674,1.05c0.478,0.45 0.861,1 1.148,1.65c0.286,0.65 0.43,1.392 0.43,2.225c-0,0.467 -0.048,0.967 -0.144,1.5l-1.721,8.3Z" style="fill:rgb(244,244,245);fill-rule:nonzero;"/>
        </g>
        <path d="M960.969,492.303l-21.376,-5.597l5.597,-21.376" style="fill:none;stroke:rgb(230,33,109);stroke-width:10.42px;stroke-linejoin:miter;stroke-miterlimit:10;"/>
        <path d="M867.034,490.425c-23.157,-12.001 -38.996,-36.192 -38.996,-64.054c0,-39.791 32.305,-72.096 72.096,-72.096c39.791,0 72.096,32.305 72.096,72.096c0,25.23 -12.988,47.451 -32.637,60.335" style="fill:none;stroke:rgb(230,33,109);stroke-width:10.42px;"/>
        <g>
            <g>
                <circle cx="900.133" cy="797.375" r="24.111" style="fill:rgb(125,97,186);stroke:rgb(125,97,186);stroke-width:10.42px;"/>
                <path d="M895.461,737.652l4.672,4.673l4.673,-4.673" style="fill:none;stroke:rgb(145,120,199);stroke-width:10.42px;stroke-linejoin:miter;stroke-miterlimit:10;"/>
                <path d="M900.133,742.325l0,-25.264" style="fill:none;stroke:rgb(145,120,199);stroke-width:10.42px;"/>
                <path d="M949.519,763.467l-1.711,6.383l6.383,1.71" style="fill:none;stroke:rgb(145,120,199);stroke-width:10.42px;stroke-linejoin:miter;stroke-miterlimit:10;"/>
                <path d="M947.808,769.85c8.335,-4.812 21.88,-12.632 21.88,-12.632" style="fill:none;stroke:rgb(145,120,199);stroke-width:10.42px;"/>
                <path d="M846.076,771.56l6.383,-1.71l-1.711,-6.383" style="fill:none;stroke:rgb(145,120,199);stroke-width:10.42px;stroke-linejoin:miter;stroke-miterlimit:10;"/>
                <path d="M852.459,769.85c-8.335,-4.812 -21.88,-12.632 -21.88,-12.632" style="fill:none;stroke:rgb(145,120,199);stroke-width:10.42px;"/>
                <path d="M866.237,747.921l6.383,1.71l1.711,-6.383" style="fill:none;stroke:rgb(145,120,199);stroke-width:10.42px;stroke-linejoin:miter;stroke-miterlimit:10;"/>
                <path d="M872.62,749.631c-4.827,-8.361 -12.688,-21.977 -12.688,-21.977" style="fill:none;stroke:rgb(145,120,199);stroke-width:10.42px;"/>
                <path d="M925.892,743.504l1.71,6.383l6.383,-1.71" style="fill:none;stroke:rgb(145,120,199);stroke-width:10.42px;stroke-linejoin:miter;stroke-miterlimit:10;"/>
                <path d="M927.602,749.887c4.815,-8.34 12.644,-21.9 12.644,-21.9" style="fill:none;stroke:rgb(145,120,199);stroke-width:10.42px;"/>
            </g>
            <g>
                <rect x="792.863" y="867.193" width="214.542" height="79.707" style="fill:rgb(125,97,186);stroke:rgb(125,97,186);stroke-width:10.42px;"/>
                <path d="M835.429,888.763l6.313,0l-2.917,14.3l9.564,0l2.918,-14.3l6.312,0l-7.125,35l-6.313,0l2.917,-14.4l-9.564,0l-2.918,14.4l-6.265,0l7.078,-35Z" style="fill:rgb(244,244,245);fill-rule:nonzero;"/>
                <path d="M884.305,908.263c-0,2.334 -0.319,4.492 -0.957,6.475c-0.637,1.984 -1.578,3.692 -2.821,5.125c-1.244,1.434 -2.798,2.559 -4.663,3.375c-1.865,0.817 -4.025,1.225 -6.48,1.225c-1.403,0 -2.718,-0.216 -3.946,-0.65c-1.227,-0.433 -2.303,-1.075 -3.228,-1.925c-0.924,-0.85 -1.657,-1.891 -2.199,-3.125c-0.542,-1.233 -0.813,-2.633 -0.813,-4.2c-0,-2.566 0.382,-4.858 1.147,-6.875c0.765,-2.016 1.81,-3.725 3.133,-5.125c1.323,-1.4 2.885,-2.466 4.686,-3.2c1.802,-0.733 3.739,-1.1 5.811,-1.1c1.498,0 2.885,0.242 4.161,0.725c1.275,0.484 2.367,1.159 3.275,2.025c0.909,0.867 1.618,1.917 2.129,3.15c0.51,1.234 0.765,2.6 0.765,4.1Zm-14.012,10.3c1.147,-0.033 2.207,-0.3 3.18,-0.8c0.972,-0.5 1.801,-1.158 2.487,-1.975c0.685,-0.816 1.219,-1.775 1.602,-2.875c0.382,-1.1 0.574,-2.266 0.574,-3.5c-0,-1.733 -0.447,-3.041 -1.339,-3.925c-0.893,-0.883 -2.089,-1.325 -3.587,-1.325c-1.148,0 -2.2,0.259 -3.157,0.775c-0.956,0.517 -1.785,1.2 -2.486,2.05c-0.702,0.85 -1.244,1.825 -1.626,2.925c-0.383,1.1 -0.574,2.25 -0.574,3.45c-0,1.7 0.446,2.992 1.339,3.875c0.893,0.884 2.088,1.325 3.587,1.325Z" style="fill:rgb(244,244,245);fill-rule:nonzero;"/>
                <path d="M904.725,923.163c-0.637,0.467 -1.291,0.8 -1.96,1c-0.67,0.2 -1.324,0.3 -1.961,0.3c-0.702,0 -1.371,-0.125 -2.009,-0.375c-0.637,-0.25 -1.195,-0.6 -1.674,-1.05c-0.478,-0.45 -0.852,-1 -1.123,-1.65c-0.271,-0.65 -0.407,-1.375 -0.407,-2.175c0,-0.6 0.064,-1.183 0.191,-1.75l5.213,-22.75l-0.478,-0.35l-6.408,4.6l-3.013,-4.7l6.934,-4.9c0.638,-0.466 1.291,-0.8 1.961,-1c0.669,-0.2 1.323,-0.3 1.961,-0.3c0.701,0 1.371,0.125 2.008,0.375c0.638,0.25 1.196,0.6 1.674,1.05c0.478,0.45 0.853,1 1.124,1.65c0.271,0.65 0.406,1.375 0.406,2.175c0,0.534 -0.063,1.117 -0.191,1.75l-5.213,22.75l0.479,0.35l6.408,-4.6l3.013,4.7l-6.935,4.9Z" style="fill:rgb(244,244,245);fill-rule:nonzero;"/>
                <path d="M939.062,917.813l0.479,0.35l2.582,-1.9l3.013,4.7l-3.108,2.2c-0.67,0.467 -1.332,0.8 -1.985,1c-0.654,0.2 -1.299,0.3 -1.937,0.3c-1.211,0 -2.295,-0.35 -3.252,-1.05c-0.956,-0.7 -1.562,-1.683 -1.817,-2.95l-0.861,0c-0.287,0.567 -0.622,1.092 -1.004,1.575c-0.383,0.484 -0.853,0.9 -1.411,1.25c-0.558,0.35 -1.212,0.634 -1.961,0.85c-0.749,0.217 -1.634,0.325 -2.654,0.325c-1.244,0 -2.391,-0.258 -3.443,-0.775c-1.052,-0.516 -1.969,-1.233 -2.75,-2.15c-0.781,-0.916 -1.395,-1.991 -1.841,-3.225c-0.447,-1.233 -0.67,-2.583 -0.67,-4.05c0,-2.233 0.287,-4.316 0.861,-6.25c0.574,-1.933 1.403,-3.625 2.487,-5.075c1.084,-1.45 2.415,-2.591 3.993,-3.425c1.578,-0.833 3.356,-1.25 5.332,-1.25c1.69,0 3.061,0.4 4.113,1.2c1.052,0.8 1.738,1.834 2.056,3.1l0.861,0l2.917,-14.5l6.074,0l-2.965,14.5l-3.109,15.25Zm-11.573,0.65c1.148,0 2.168,-0.241 3.061,-0.725c0.893,-0.483 1.634,-1.125 2.224,-1.925c0.59,-0.8 1.044,-1.741 1.363,-2.825c0.319,-1.083 0.478,-2.225 0.478,-3.425c-0,-1.566 -0.43,-2.841 -1.291,-3.825c-0.861,-0.983 -2.009,-1.475 -3.444,-1.475c-1.147,0 -2.168,0.242 -3.06,0.725c-0.893,0.484 -1.642,1.125 -2.248,1.925c-0.606,0.8 -1.068,1.742 -1.387,2.825c-0.319,1.084 -0.478,2.225 -0.478,3.425c-0,1.4 0.39,2.634 1.172,3.7c0.781,1.067 1.984,1.6 3.61,1.6Z" style="fill:rgb(244,244,245);fill-rule:nonzero;"/>
                <path d="M967.135,888.763l-4.974,24.1l-6.313,0l4.974,-24.1l6.313,0Zm-4.687,30.95c0,0.667 -0.119,1.292 -0.359,1.875c-0.239,0.584 -0.565,1.084 -0.98,1.5c-0.414,0.417 -0.901,0.75 -1.459,1c-0.558,0.25 -1.139,0.375 -1.745,0.375c-0.638,0 -1.228,-0.125 -1.77,-0.375c-0.542,-0.25 -1.02,-0.583 -1.434,-1c-0.415,-0.416 -0.742,-0.916 -0.981,-1.5c-0.239,-0.583 -0.358,-1.208 -0.358,-1.875c-0,-0.666 0.119,-1.291 0.358,-1.875c0.239,-0.583 0.566,-1.083 0.981,-1.5c0.414,-0.416 0.892,-0.75 1.434,-1c0.542,-0.25 1.132,-0.375 1.77,-0.375c0.606,0 1.187,0.125 1.745,0.375c0.558,0.25 1.045,0.584 1.459,1c0.415,0.417 0.741,0.917 0.98,1.5c0.24,0.584 0.359,1.209 0.359,1.875Z" style="fill:rgb(244,244,245);fill-rule:nonzero;"/>
            </g>
        </g>
    </g>
</svg>
