<?xml version="1.0" encoding="UTF-8" standalone="no"?>
<!DOCTYPE svg PUBLIC "-//W3C//DTD SVG 1.1//EN" "http://www.w3.org/Graphics/SVG/1.1/DTD/svg11.dtd">
<svg width="100%" height="100%" viewBox="0 0 1801 1201" version="1.1" xmlns="http://www.w3.org/2000/svg" xmlns:xlink="http://www.w3.org/1999/xlink" xml:space="preserve" xmlns:serif="http://www.serif.com/" style="fill-rule:evenodd;clip-rule:evenodd;stroke-linecap:round;stroke-linejoin:round;stroke-miterlimit:1.5;">
    <rect id="_17---lfo-pwm-tweaks" serif:id="17 - lfo pwm tweaks" x="0.134" y="0.333" width="1800" height="1200" style="fill:none;"/>
    <g id="_17---lfo-pwm-tweaks1" serif:id="17 - lfo pwm tweaks">
        <g id="Base">
            <rect x="617.491" y="87.344" width="565.286" height="1025.98" style="fill:white;"/>
            <rect id="Outline" x="617.491" y="87.344" width="565.286" height="1025.98" style="fill:none;stroke:rgb(12,12,12);stroke-width:4.17px;"/>
            <path id="Mounting-holes" serif:id="Mounting holes" d="M693.342,1089.37c-0,-7.711 -6.261,-13.972 -13.973,-13.972l-3.992,-0c-7.711,-0 -13.972,6.261 -13.972,13.972c-0,7.712 6.261,13.973 13.972,13.973l3.992,-0c7.712,-0 13.973,-6.261 13.973,-13.973Zm-0,-978.073c-0,-7.711 -6.261,-13.972 -13.973,-13.972l-3.992,-0c-7.711,-0 -13.972,6.261 -13.972,13.972c-0,7.712 6.261,13.973 13.972,13.973l3.992,-0c7.712,-0 13.973,-6.261 13.973,-13.973Zm446.161,978.073c-0,-7.711 -6.261,-13.972 -13.973,-13.972l-3.992,-0c-7.712,-0 -13.972,6.261 -13.972,13.972c-0,7.712 6.26,13.973 13.972,13.973l3.992,-0c7.712,-0 13.973,-6.261 13.973,-13.973Zm-0,-978.073c-0,-7.711 -6.261,-13.972 -13.973,-13.972l-3.992,-0c-7.712,-0 -13.972,6.261 -13.972,13.972c-0,7.712 6.26,13.973 13.972,13.973l3.992,-0c7.712,-0 13.973,-6.261 13.973,-13.973Z" style="fill:rgb(213,213,213);"/>
            <g id="Legend">
                <path d="M685.673,1038.05c-0.052,1.129 0.314,1.681 1.097,1.656c0.475,-0 0.834,-0.084 1.078,-0.251l0,3.043c-0.295,0.102 -0.68,0.166 -1.155,0.192c-0.501,0.051 -0.918,0.077 -1.252,0.077c-0.924,-0.026 -1.649,-0.366 -2.175,-1.02c-0.578,-0.629 -0.867,-1.393 -0.867,-2.292l-0.077,0c-1.604,2.208 -3.799,3.312 -6.585,3.312c-2.991,-0.051 -5.224,-1.123 -6.7,-3.215c-1.502,-2.029 -2.253,-4.461 -2.253,-7.298c-0,-2.901 0.725,-5.398 2.176,-7.49c1.437,-2.131 3.709,-3.222 6.816,-3.273c2.759,-0 4.929,1.117 6.508,3.35l0.077,0l-0,-2.965l3.312,-0l-0,16.174Zm-9.377,1.887c1.026,-0 1.906,-0.238 2.637,-0.713c0.706,-0.449 1.297,-1.052 1.772,-1.81c0.924,-1.553 1.386,-3.26 1.386,-5.121c0,-2.08 -0.423,-3.909 -1.271,-5.488c-0.86,-1.604 -2.426,-2.432 -4.698,-2.484c-2.015,0.052 -3.485,0.867 -4.409,2.446c-0.924,1.553 -1.386,3.273 -1.386,5.16c-0,2.002 0.462,3.806 1.386,5.41c0.924,1.682 2.452,2.548 4.583,2.6Z" style="fill:rgb(131,133,136);fill-rule:nonzero;"/>
                <path d="M674.029,363.372c-0.058,1.291 0.36,1.922 1.254,1.893c0.543,-0 0.954,-0.096 1.233,-0.286l-0,3.476c-0.338,0.118 -0.778,0.191 -1.321,0.22c-0.572,0.059 -1.048,0.088 -1.43,0.088c-1.056,-0.029 -1.885,-0.418 -2.486,-1.166c-0.661,-0.719 -0.991,-1.592 -0.991,-2.618l-0.088,-0c-1.833,2.523 -4.342,3.784 -7.526,3.784c-3.418,-0.058 -5.97,-1.283 -7.657,-3.674c-1.717,-2.318 -2.575,-5.098 -2.575,-8.34c0,-3.316 0.829,-6.169 2.487,-8.56c1.643,-2.436 4.239,-3.683 7.789,-3.741c3.155,-0 5.634,1.276 7.438,3.829l0.088,-0l0,-3.389l3.785,-0l0,18.484Zm-10.716,2.157c1.173,-0 2.178,-0.272 3.014,-0.815c0.807,-0.513 1.482,-1.202 2.025,-2.068c1.056,-1.775 1.584,-3.726 1.584,-5.853c0,-2.377 -0.484,-4.468 -1.452,-6.272c-0.983,-1.834 -2.773,-2.78 -5.369,-2.839c-2.304,0.059 -3.983,0.991 -5.04,2.795c-1.056,1.775 -1.584,3.741 -1.584,5.897c0,2.289 0.528,4.35 1.584,6.184c1.057,1.922 2.802,2.912 5.238,2.971Z" style="fill:rgb(131,133,136);fill-rule:nonzero;"/>
                <path d="M1114.09,1058.67l-3.505,-0l0,-27.034c0,-6.046 2.972,-9.127 8.915,-9.242c2.336,-0 4.281,0.577 5.834,1.733c1.553,1.194 2.343,2.894 2.369,5.102c-0.026,3.466 -1.631,5.687 -4.814,6.662l-0,0.077c4.018,0.629 6.059,2.978 6.123,7.048c-0.026,2.4 -0.738,4.377 -2.137,5.93c-1.451,1.566 -3.408,2.362 -5.873,2.388c-1.502,-0 -2.766,-0.219 -3.793,-0.655c-1.053,-0.449 -2.093,-1.239 -3.119,-2.368l-0,10.359Zm0.057,-17.233c0,0.924 0.09,1.81 0.27,2.657c0.18,0.808 0.481,1.553 0.905,2.233c0.449,0.668 1.078,1.181 1.887,1.541c0.796,0.423 1.81,0.635 3.042,0.635c1.656,0 2.946,-0.539 3.87,-1.617c0.886,-1.027 1.329,-2.356 1.329,-3.986c-0.026,-1.938 -0.629,-3.318 -1.81,-4.14c-1.181,-0.757 -2.651,-1.136 -4.41,-1.136c-0.667,0.026 -1.341,0.064 -2.021,0.116l-0,-2.965c0.577,-0 1.129,-0.013 1.656,-0.039c1.476,-0.026 2.727,-0.43 3.754,-1.213c1.002,-0.77 1.515,-2.009 1.541,-3.716c-0.077,-3.042 -1.695,-4.563 -4.852,-4.563c-1.823,0.025 -3.139,0.564 -3.948,1.617c-0.808,1.078 -1.213,2.535 -1.213,4.371l0,10.205Z" style="fill:rgb(131,133,136);fill-rule:nonzero;"/>
                <path d="M1124.52,378.501l-4.005,-0l0,-30.896c0,-6.909 3.396,-10.43 10.188,-10.562c2.67,-0 4.893,0.66 6.668,1.98c1.775,1.365 2.677,3.308 2.707,5.832c-0.03,3.961 -1.863,6.499 -5.502,7.614l0,0.088c4.592,0.718 6.925,3.403 6.998,8.053c-0.029,2.744 -0.843,5.003 -2.442,6.778c-1.658,1.79 -3.895,2.699 -6.712,2.729c-1.717,-0 -3.162,-0.25 -4.335,-0.748c-1.203,-0.514 -2.391,-1.416 -3.565,-2.707l0,11.839Zm0.066,-19.695c0,1.056 0.103,2.069 0.308,3.037c0.205,0.924 0.55,1.775 1.034,2.552c0.514,0.763 1.233,1.35 2.157,1.761c0.909,0.484 2.068,0.726 3.477,0.726c1.892,-0 3.366,-0.616 4.423,-1.848c1.012,-1.174 1.518,-2.692 1.518,-4.556c-0.029,-2.215 -0.719,-3.792 -2.068,-4.731c-1.35,-0.865 -3.03,-1.298 -5.04,-1.298c-0.762,0.029 -1.533,0.073 -2.31,0.132l-0,-3.389c0.66,0 1.291,-0.014 1.892,-0.044c1.687,-0.029 3.118,-0.491 4.291,-1.386c1.145,-0.88 1.731,-2.296 1.761,-4.247c-0.088,-3.477 -1.937,-5.215 -5.546,-5.215c-2.083,0.029 -3.586,0.645 -4.511,1.848c-0.924,1.232 -1.386,2.897 -1.386,4.995l0,11.663Z" style="fill:rgb(131,133,136);fill-rule:nonzero;"/>
                <path d="M902.533,511.78c2.655,-0.088 4.687,-0.909 6.095,-2.464c1.379,-1.599 2.069,-3.661 2.069,-6.184c-0.03,-5.398 -2.751,-8.34 -8.164,-8.824l-0,17.472Zm-4.049,3.521c-3.506,-0.059 -6.433,-1.137 -8.78,-3.235c-2.406,-2.083 -3.638,-4.907 -3.697,-8.472c-0,-3.843 1.108,-6.924 3.323,-9.242c2.2,-2.347 5.252,-3.535 9.154,-3.565l-0,-3.653l4.049,0l-0,3.653c3.946,0.03 7.012,1.218 9.198,3.565c2.171,2.318 3.272,5.399 3.301,9.242c-0.059,3.565 -1.276,6.389 -3.653,8.472c-2.347,2.098 -5.296,3.176 -8.846,3.235l-0,3.653l-4.049,-0l-0,-3.653Zm-0,-20.993c-5.443,0.484 -8.164,3.426 -8.164,8.824c-0,2.523 0.726,4.585 2.178,6.184c1.379,1.555 3.375,2.376 5.986,2.464l-0,-17.472Z" style="fill:rgb(131,133,136);fill-rule:nonzero;"/>
                <g>
                    <path d="M726.963,584.204l-19.82,0.059l-0.125,-17.109l-6.688,0l-0,17.05" style="fill:none;stroke:rgb(131,133,136);stroke-width:6.25px;"/>
                    <path d="M721.97,570.224l4.03,4.03l-4.03,4.03" style="fill:none;stroke:rgb(131,133,136);stroke-width:4.23px;stroke-linejoin:miter;stroke-miterlimit:10;"/>
                    <path d="M707.197,574.254l18.803,0" style="fill:none;stroke:rgb(131,133,136);stroke-width:4.23px;stroke-dasharray:0.04,5.07,0,0;stroke-dashoffset:21.13;"/>
                </g>
                <g>
                    <path d="M1073.07,584.204l19.82,0.059l0.125,-17.109l6.688,0l0,17.05" style="fill:none;stroke:rgb(131,133,136);stroke-width:6.25px;"/>
                    <path d="M1078.06,578.284l-4.03,-4.03l4.03,-4.03" style="fill:none;stroke:rgb(131,133,136);stroke-width:4.23px;stroke-linejoin:miter;stroke-miterlimit:10;"/>
                    <path d="M1092.83,574.254l-18.803,0" style="fill:none;stroke:rgb(131,133,136);stroke-width:4.23px;stroke-dasharray:0.04,5.07,0,0;stroke-dashoffset:21.13;"/>
                </g>
                <path d="M905.163,681.096l-0,-0.374l-7.988,-10.717l13.687,0l-0,-5.017l-22.093,0l-0,3.345l9.858,12.565l-9.858,12.785l-0,3.323l22.731,-0l0,-4.93l-14.435,0l8.098,-10.98Z" style="fill:rgb(131,133,136);fill-rule:nonzero;"/>
                <path d="M789.051,1021.59l-2.893,7.701l-7.264,0l6.14,4.621l-2.955,7.763l6.972,-5.245l6.994,5.245l-2.977,-7.763l6.14,-4.621l-7.284,0l-2.873,-7.701Z" style="fill:rgb(131,133,136);fill-rule:nonzero;"/>
                <path d="M1009.09,1020.23l-3.285,8.743l-8.247,0l6.971,5.246l-3.356,8.814l7.917,-5.954l7.94,5.954l-3.38,-8.814l6.971,-5.246l-8.27,0l-3.261,-8.743Zm-0,3.167l2.481,6.687l5.742,-0l-4.986,3.757l2.316,6.026l-5.553,-4.159l-5.553,4.159l2.315,-6.026l-4.986,-3.757l5.719,-0l2.505,-6.687Z" style="fill:rgb(131,133,136);fill-rule:nonzero;"/>
                <path d="M894.944,1024.56c-1.497,-0.198 -3.009,-0.528 -4.539,-0.99l0,-1.981c3.103,0.803 6.354,1.205 9.754,1.205c3.4,-0 6.635,-0.402 9.704,-1.205l0,2.014c-1.573,0.429 -3.102,0.748 -4.588,0.957l0,14.127c1.486,0.209 3.015,0.523 4.588,0.941l0,2.046c-3.069,-0.814 -6.304,-1.221 -9.704,-1.221c-3.4,0 -6.651,0.407 -9.754,1.221l0,-1.98c1.53,-0.484 3.042,-0.82 4.539,-1.007l-0,-14.127Zm2.046,13.979c2.08,-0.231 4.159,-0.231 6.239,-0l-0,-13.831c-2.08,0.231 -4.159,0.231 -6.239,0l0,13.831Z" style="fill:rgb(131,133,136);fill-rule:nonzero;"/>
                <path d="M967.713,1088c-4.386,0.297 -6.233,3.205 -7.214,6.27c-0.864,2.695 -1.831,5.477 -2.884,6.907c-0.584,0.793 -1.235,1.201 -1.868,1.201c-0.628,-0 -1.089,-0.332 -1.384,-0.954c-0.449,-0.948 -0.438,-2.803 -0.318,-4.661c0.093,-1.458 0.237,-2.915 0.174,-3.848c-0.009,-0.135 -0.038,-0.288 -0.062,-0.402c-0.054,0.028 -0.109,0.066 -0.165,0.108c-0.206,0.156 -0.411,0.382 -0.618,0.651c-0.719,0.933 -1.43,2.348 -2.102,3.576c-0.574,1.047 -1.132,1.964 -1.629,2.425c-0.338,0.313 -0.681,0.453 -0.988,0.453c-0.581,-0 -0.999,-0.354 -1.16,-1.094c-0.206,-0.944 0.081,-2.798 0.418,-4.65c0.267,-1.467 0.556,-2.934 0.566,-3.873c0.002,-0.119 -0.012,-0.254 -0.026,-0.359c-0.08,0.047 -0.16,0.117 -0.246,0.196c-0.259,0.24 -0.517,0.585 -0.778,0.999c-0.87,1.375 -1.736,3.457 -2.526,5.266c-0.649,1.488 -1.258,2.798 -1.768,3.453c-0.366,0.47 -0.758,0.659 -1.064,0.659c-0.58,0 -0.979,-0.301 -1.207,-0.864c-0.313,-0.771 -0.197,-2.284 0.025,-3.796c0.139,-0.939 0.303,-1.877 0.373,-2.6c0.018,-0.177 0.02,-0.377 0.017,-0.539c-0.052,0.025 -0.107,0.054 -0.167,0.084c-0.479,0.242 -1.094,0.631 -1.794,1.063c-1.226,0.756 -2.696,1.62 -4.153,2.132c-0.297,1.175 -0.776,2.292 -1.407,3.162c-0.839,1.157 -1.945,1.887 -3.232,1.887c-1.133,-0 -1.837,-0.575 -2.285,-1.392c-0.377,-0.689 -0.553,-1.571 -0.66,-2.358c-0.049,-0.355 -0.114,-0.778 -0.159,-1.068c-0.232,0.101 -0.544,0.239 -0.824,0.371c-0.495,0.235 -1.072,0.493 -1.691,0.703c-0.261,1.227 -0.709,2.397 -1.311,3.304c-0.793,1.197 -1.856,1.943 -3.081,1.943c-1.089,-0 -1.803,-0.605 -2.264,-1.489c-0.383,-0.733 -0.579,-1.674 -0.701,-2.513c-0.052,-0.358 -0.091,-0.695 -0.129,-0.982c-0.148,0.172 -0.305,0.373 -0.474,0.585c-0.498,0.629 -1.079,1.347 -1.731,1.826c-0.516,0.379 -1.079,0.613 -1.676,0.613c-1.072,-0 -1.909,-0.522 -2.52,-1.427c-0.503,-0.745 -0.846,-1.777 -1.037,-2.968c-0.877,0.64 -1.85,1.196 -2.802,1.701c-0.005,0.125 -0.013,0.249 -0.024,0.372c-0.128,1.326 -0.762,2.779 -1.573,3.73c-0.627,0.734 -1.372,1.164 -2.07,1.164c-0.364,-0 -0.788,-0.141 -1.16,-0.413c-0.531,-0.388 -0.95,-1.031 -0.95,-1.796c0,-0.772 0.582,-1.516 1.615,-2.195c0.773,-0.509 1.813,-1.014 2.915,-1.58c-0.069,-0.746 -0.295,-1.467 -0.658,-1.991c-0.273,-0.393 -0.623,-0.674 -1.065,-0.674c-1.366,-0 -2.274,0.792 -2.925,1.793c-0.73,1.122 -1.151,2.506 -1.47,3.542c-0.222,0.72 -0.412,1.292 -0.593,1.573c-0.22,0.341 -0.496,0.45 -0.731,0.45c-0.126,-0 -0.261,-0.033 -0.392,-0.132c-0.083,-0.062 -0.225,-0.217 -0.319,-0.512c-0.147,-0.459 -0.328,-1.593 -0.476,-3.114c-0.586,0.938 -1.163,1.794 -1.704,2.525c-0.862,1.165 -1.646,2.022 -2.239,2.437c-0.371,0.259 -0.705,0.367 -0.968,0.367c-1.145,-0 -1.788,-0.804 -1.986,-2.152c-0.224,-1.522 0.134,-3.826 0.481,-5.828c0.176,-1.017 0.347,-1.953 0.42,-2.651c0.02,-0.189 0.023,-0.399 0.022,-0.558c-0.529,0.044 -1.105,0.17 -1.688,0.297c-0.39,2.129 -1.583,4.678 -3.14,6.519c-1.316,1.555 -2.898,2.589 -4.447,2.589c-1.878,0 -3.236,-0.732 -4.159,-1.858c-1.166,0.976 -2.459,1.584 -3.745,1.584c-1.357,-0 -2.486,-1.031 -3.266,-2.806c-0.257,-0.584 -0.48,-1.251 -0.67,-1.979c-0.606,1.225 -1.218,2.338 -1.811,3.27c-0.707,1.113 -1.393,1.976 -2.005,2.492c-0.522,0.441 -1.021,0.646 -1.45,0.646c-0.929,0 -1.588,-0.632 -1.954,-1.765c-0.415,-1.284 -0.469,-3.289 -0.448,-5.296c0.02,-1.899 0.102,-3.798 -0.056,-5.014c-0.036,-0.274 -0.082,-0.507 -0.151,-0.688c-0.012,-0.029 -0.029,-0.064 -0.045,-0.093c-0.039,0.025 -0.076,0.067 -0.12,0.109c-0.17,0.162 -0.335,0.399 -0.504,0.686c-0.592,1.012 -1.171,2.595 -1.742,4.176c-0.703,1.944 -1.398,3.884 -2.061,4.876c-0.427,0.639 -0.912,0.929 -1.326,0.929c-0.476,-0 -0.886,-0.292 -1.118,-0.933c-0.298,-0.819 -0.317,-2.424 -0.306,-4.031c0.009,-1.26 0.029,-2.52 -0.119,-3.326c-0.025,-0.134 -0.079,-0.292 -0.114,-0.385c-0.282,0.06 -0.517,0.304 -0.76,0.612c-0.601,0.764 -1.124,1.963 -1.678,3.158c-0.605,1.303 -1.245,2.6 -2.005,3.434c-0.612,0.672 -1.308,1.062 -2.096,1.062c-1.255,0 -1.932,-0.89 -2.088,-2.46c-0.179,-1.801 0.33,-4.615 0.82,-7.428c0.176,-1.01 0.35,-2.02 0.483,-2.978c-0.227,0.044 -0.462,0.067 -0.706,0.067c-2.559,-0 -3.342,-2.393 -2.858,-4.35c0.335,-1.357 1.286,-2.417 2.507,-2.417c1.399,0 2.154,0.893 2.413,2.419c0.093,0.549 0.117,1.191 0.092,1.899c0.085,-0.117 0.166,-0.241 0.242,-0.371c0.622,-1.056 0.948,-2.466 0.99,-3.874c0.043,-1.405 -0.197,-2.812 -0.743,-3.866c-0.476,-0.918 -1.188,-1.562 -2.186,-1.562c-1.67,-0 -3.059,0.996 -4.134,2.552c-1.738,2.516 -2.648,6.468 -2.505,10.476c0.186,5.164 1.296,10.426 0.689,13.118c-0.193,0.858 -0.556,1.489 -1.091,1.869c-0.379,0.27 -0.85,0.424 -1.435,0.424c-1.009,-0 -1.887,-0.622 -2.608,-1.642c-0.915,-1.295 -1.603,-3.251 -2.152,-4.955c-0.346,-1.071 -0.636,-2.036 -0.905,-2.636c-0.011,-0.024 -0.023,-0.048 -0.036,-0.073l-0.031,0.044c-0.322,0.482 -0.685,1.26 -1.082,2.122c-0.751,1.627 -1.619,3.531 -2.513,4.531c-0.511,0.572 -1.06,0.871 -1.583,0.871c-0.615,0 -1.146,-0.419 -1.46,-1.321c-0.484,-1.391 -0.531,-4.184 -0.498,-7.347c0.042,-3.907 0.187,-8.402 -0.39,-11.372c-0.176,-0.906 -0.413,-1.661 -0.762,-2.186c-0.259,-0.39 -0.577,-0.634 -1.005,-0.634c-0.738,-0 -1.252,0.635 -1.667,1.487c-0.764,1.57 -1.09,3.92 -1.053,5.846c0.061,3.194 1.142,5.224 1.142,5.224c0.161,0.298 0.049,0.671 -0.25,0.832c-0.298,0.161 -0.671,0.049 -0.832,-0.25c0,0 -1.221,-2.244 -1.288,-5.782c-0.041,-2.113 0.338,-4.686 1.176,-6.408c0.655,-1.344 1.607,-2.178 2.772,-2.178c1.302,-0 2.225,1.027 2.739,2.823c0.64,2.237 0.715,5.731 0.687,9.226c-0.031,3.944 -0.196,7.887 0.271,9.898c0.067,0.287 0.145,0.528 0.245,0.712c0.055,0.102 0.084,0.202 0.173,0.202c0.127,-0 0.246,-0.077 0.372,-0.177c0.21,-0.167 0.415,-0.408 0.62,-0.696c0.711,-0.996 1.383,-2.505 1.988,-3.816c0.509,-1.104 0.98,-2.075 1.374,-2.56c0.316,-0.389 0.655,-0.537 0.921,-0.537c0.246,-0 0.543,0.121 0.795,0.477c0.254,0.357 0.532,1.086 0.832,2.003c0.537,1.642 1.19,3.942 2.141,5.518c0.521,0.862 1.095,1.525 1.867,1.525c0.593,0 0.954,-0.297 1.166,-0.808c0.186,-0.449 0.274,-1.029 0.307,-1.709c0.138,-2.842 -0.707,-7.266 -0.864,-11.621c-0.154,-4.295 0.859,-8.522 2.722,-11.219c1.327,-1.92 3.084,-3.082 5.145,-3.082c1.193,0 2.141,0.573 2.834,1.51c0.93,1.258 1.383,3.218 1.323,5.184c-0.059,1.961 -0.626,3.916 -1.65,5.17c-0.286,0.35 -0.606,0.648 -0.96,0.884c-0.137,1.18 -0.349,2.452 -0.571,3.725c-0.468,2.688 -0.979,5.375 -0.807,7.095c0.078,0.782 0.24,1.354 0.865,1.354c0.597,-0 1.06,-0.448 1.5,-1.044c0.549,-0.747 1.024,-1.745 1.486,-2.741c0.598,-1.29 1.178,-2.576 1.828,-3.401c0.554,-0.704 1.181,-1.096 1.862,-1.096c0.453,0 0.861,0.291 1.075,0.954c0.262,0.815 0.261,2.412 0.25,4.01c-0.009,1.253 -0.019,2.507 0.151,3.309c0.024,0.112 0.072,0.242 0.11,0.335c0.009,-0.009 0.018,-0.018 0.026,-0.026c0.153,-0.163 0.304,-0.402 0.46,-0.692c0.546,-1.016 1.105,-2.606 1.679,-4.194c0.706,-1.954 1.442,-3.903 2.178,-4.9c0.453,-0.614 0.956,-0.905 1.415,-0.905c0.475,-0 0.882,0.279 1.121,0.907c0.308,0.805 0.344,2.42 0.318,4.249c-0.032,2.178 -0.129,4.682 0.233,6.337c0.084,0.382 0.191,0.713 0.338,0.971c0.14,0.245 0.313,0.415 0.573,0.415c0.202,0 0.412,-0.148 0.658,-0.356c0.54,-0.456 1.135,-1.228 1.76,-2.212c0.798,-1.255 1.633,-2.846 2.437,-4.596c-0.28,-1.727 -0.412,-3.65 -0.401,-5.574c0.008,-1.439 0.097,-2.877 0.261,-4.234c-3.47,0.194 -5.198,0.495 -5.198,0.495c-0.267,0.047 -0.522,-0.132 -0.568,-0.4c-0.047,-0.267 0.132,-0.522 0.399,-0.568c-0,-0 1.829,-0.322 5.503,-0.518c0.341,-2.218 0.893,-4.145 1.631,-5.386c0.668,-1.125 1.512,-1.725 2.434,-1.725c0.793,-0 1.346,0.488 1.58,1.468c0.242,1.011 0.115,2.678 -0.306,4.688c-0.055,0.263 -0.115,0.532 -0.18,0.807c2.33,-0.015 5.042,0.033 8.139,0.183c0.271,0.014 0.48,0.244 0.467,0.515c-0.013,0.271 -0.244,0.481 -0.515,0.467c-3.191,-0.155 -5.97,-0.2 -8.336,-0.18c-0.829,3.167 -2.176,6.888 -3.64,10.13c0.223,1.256 0.533,2.386 0.935,3.301c0.541,1.228 1.203,2.072 2.142,2.072c1.064,0 2.113,-0.557 3.067,-1.39c-0.882,-1.695 -1.088,-3.882 -0.802,-5.843c0.227,-1.552 0.763,-2.942 1.469,-3.811c0.565,-0.697 1.249,-1.078 1.975,-1.078c0.784,0 1.366,0.25 1.784,0.655c0.583,0.566 0.855,1.485 0.793,2.611c-0.122,2.251 -1.564,5.409 -3.565,7.569l-0.085,0.09c0.719,0.893 1.78,1.472 3.268,1.472c1.05,-0 2.085,-0.662 3.019,-1.615c1.522,-1.554 2.753,-3.905 3.247,-5.949l0.014,-0.061c-0.306,0.046 -0.605,0.075 -0.891,0.075c-1.945,-0 -2.706,-1.713 -2.397,-3.093c0.216,-0.967 0.94,-1.754 2.094,-1.754c0.782,0 1.367,0.253 1.793,0.667c0.579,0.564 0.865,1.476 0.842,2.592c0.677,-0.147 1.341,-0.284 1.926,-0.284c0.318,0 0.575,0.145 0.736,0.481c0.09,0.188 0.146,0.503 0.132,0.924c-0.026,0.741 -0.242,1.934 -0.471,3.259c-0.325,1.869 -0.686,4.018 -0.477,5.439c0.091,0.619 0.245,1.102 0.771,1.102c0.031,-0 0.062,-0.025 0.103,-0.046c0.112,-0.058 0.234,-0.147 0.367,-0.259c0.492,-0.413 1.09,-1.11 1.749,-2c0.793,-1.072 1.664,-2.417 2.528,-3.897c-0.262,-4.332 -0.181,-10.218 1.062,-13.477c0.667,-1.748 1.7,-2.771 3.038,-2.771c0.64,0 1.131,0.19 1.5,0.511c0.36,0.312 0.61,0.76 0.738,1.334c0.207,0.928 0.085,2.241 -0.303,3.77c-0.81,3.19 -2.76,7.395 -4.786,10.922c0.009,0.136 0.019,0.27 0.028,0.402c0.075,1.026 0.167,1.936 0.263,2.659c0.343,-1.112 0.809,-2.548 1.575,-3.725c0.873,-1.342 2.123,-2.352 3.955,-2.352c0.84,-0 1.555,0.455 2.074,1.203c0.39,0.562 0.667,1.298 0.803,2.082c0.963,-0.528 1.921,-1.116 2.742,-1.806c-0.014,-0.233 -0.023,-0.47 -0.027,-0.71c-0.061,-3.527 0.889,-7.667 2.37,-9.837c0.749,-1.096 1.655,-1.709 2.602,-1.709c0.549,-0 0.966,0.175 1.275,0.464c0.413,0.387 0.644,1.022 0.633,1.853c-0.033,2.518 -2.327,7.192 -5.378,10.253c-0.067,0.067 -0.135,0.133 -0.205,0.199c0.1,1.029 0.308,1.956 0.65,2.686c0.392,0.836 0.957,1.399 1.79,1.399c0.443,-0 0.837,-0.258 1.206,-0.582c0.46,-0.405 0.872,-0.928 1.238,-1.39c0.403,-0.51 0.767,-0.952 1.072,-1.177c0.244,-0.179 0.481,-0.254 0.691,-0.254c0.211,-0 0.422,0.08 0.588,0.313c0.062,0.087 0.126,0.218 0.174,0.396c0.062,0.226 0.11,0.573 0.162,0.987c0.094,0.743 0.207,1.735 0.532,2.54c0.248,0.612 0.615,1.127 1.312,1.127c0.836,0 1.516,-0.577 2.058,-1.393c0.425,-0.642 0.76,-1.433 0.991,-2.281c-0.306,0.051 -0.616,0.079 -0.925,0.079c-3.118,0 -4.288,-2.793 -3.861,-5.049c0.299,-1.578 1.372,-2.847 3,-2.847c2.144,0 3.281,2.053 3.383,4.635c0.019,0.474 0.004,0.963 -0.042,1.455c0.538,-0.221 1.024,-0.465 1.42,-0.653c0.551,-0.263 0.982,-0.416 1.21,-0.416c0.262,0 0.511,0.115 0.687,0.426c0.12,0.212 0.21,0.642 0.278,1.186c0.085,0.682 0.169,1.594 0.477,2.334c0.235,0.563 0.614,1.021 1.335,1.021c0.904,-0 1.648,-0.566 2.237,-1.379c0.427,-0.588 0.77,-1.305 1.022,-2.074c-0.311,0.052 -0.617,0.081 -0.916,0.081c-3.099,-0 -4.345,-2.798 -3.859,-5.051c0.334,-1.55 1.468,-2.824 3.319,-2.824c2.066,-0 3.154,2.019 3.186,4.565c0.007,0.476 -0.023,0.968 -0.085,1.462c1.144,-0.487 2.273,-1.18 3.243,-1.778c0.866,-0.535 1.614,-1.004 2.149,-1.239c0.32,-0.141 0.59,-0.204 0.792,-0.204c0.402,-0 0.746,0.227 0.864,0.806c0.104,0.508 -0.016,1.531 -0.194,2.687c-0.203,1.317 -0.468,2.831 -0.381,3.832c0.014,0.158 0.037,0.301 0.075,0.423c0.016,0.051 0.02,0.105 0.04,0.137c0.043,-0.041 0.105,-0.103 0.148,-0.158c0.124,-0.16 0.253,-0.366 0.389,-0.607c0.567,-1.008 1.217,-2.584 1.909,-4.158c0.847,-1.93 1.764,-3.853 2.651,-4.837c0.51,-0.567 1.046,-0.849 1.54,-0.849c0.361,-0 0.638,0.161 0.828,0.486c0.144,0.244 0.231,0.649 0.225,1.179c-0.011,0.989 -0.305,2.534 -0.586,4.079c-0.264,1.451 -0.521,2.902 -0.468,3.831c0.008,0.138 0.044,0.299 0.071,0.404c0.029,-0.021 0.06,-0.044 0.083,-0.065c0.109,-0.101 0.219,-0.232 0.334,-0.385c0.509,-0.679 1.058,-1.742 1.633,-2.803c0.615,-1.135 1.258,-2.266 1.896,-2.992c0.553,-0.628 1.139,-0.965 1.682,-0.965c0.421,0 0.787,0.244 0.966,0.829c0.193,0.629 0.152,1.891 0.054,3.32c-0.116,1.666 -0.292,3.582 -0.086,4.848c0.045,0.276 0.106,0.516 0.201,0.703c0.062,0.122 0.131,0.222 0.259,0.222c0.179,-0 0.339,-0.115 0.508,-0.273c0.264,-0.247 0.516,-0.606 0.766,-1.042c0.838,-1.463 1.601,-3.735 2.308,-5.939c1.148,-3.587 3.368,-6.946 8.649,-7.14l0.07,-0.327c0.031,-0.147 0.176,-0.241 0.322,-0.209l0.328,0.07c0.146,0.031 0.239,0.175 0.208,0.322l-0.058,0.271c0.003,0.002 0.006,0.005 0.009,0.007l0.257,0.051l0.061,-0.286c0.043,-0.202 0.241,-0.33 0.443,-0.287l0.459,0.098c0.202,0.043 0.331,0.241 0.288,0.443l-0.057,0.267l0.244,0.048l0.053,-0.271c0.046,-0.234 0.271,-0.389 0.506,-0.348l4.15,0.714c0.244,0.042 0.405,0.276 0.357,0.518l-0.013,0.066l0.03,0.006c0.122,0.023 0.211,0.121 0.231,0.237l3.661,0.721c0.168,0.033 0.3,0.143 0.368,0.287l1.243,0.147l0.347,0.462l-0.08,0.409l-0.497,0.296l-1.203,-0.338c-0.117,0.109 -0.283,0.162 -0.452,0.129l-3.661,-0.721c-0.062,0.099 -0.182,0.155 -0.304,0.131l-0.03,-0.006l-0.012,0.066c-0.048,0.242 -0.286,0.398 -0.527,0.344l-4.111,-0.913c-0.233,-0.052 -0.382,-0.281 -0.336,-0.515l0.053,-0.271l-0.262,-0.051l-0.061,0.285c-0.043,0.202 -0.242,0.331 -0.443,0.288l-0.459,-0.098c-0.202,-0.043 -0.331,-0.242 -0.288,-0.444l0.057,-0.267l-0.266,-0.052l-0.062,0.29c-0.032,0.147 -0.176,0.24 -0.322,0.209l-0.328,-0.07c-0.146,-0.031 -0.24,-0.175 -0.209,-0.322l0.031,-0.141Zm-61.84,10.381c-0.464,0.239 -0.908,0.469 -1.315,0.694c-0.607,0.335 -1.128,0.657 -1.495,0.993c-0.247,0.226 -0.43,0.437 -0.43,0.69c0,0.346 0.205,0.628 0.446,0.804c0.141,0.103 0.296,0.176 0.435,0.176c0.397,0 0.778,-0.315 1.135,-0.733c0.577,-0.676 1.044,-1.664 1.224,-2.624Zm-27.744,-0.716c1.309,-1.472 2.341,-3.401 2.815,-5.11c0.233,-0.838 0.332,-1.62 0.243,-2.258c-0.054,-0.38 -0.171,-0.702 -0.398,-0.922c-0.215,-0.209 -0.525,-0.308 -0.928,-0.308c-0.386,-0 -0.721,0.253 -1.022,0.623c-0.593,0.731 -1.015,1.911 -1.206,3.215c-0.229,1.57 -0.127,3.348 0.496,4.76Zm45.705,-1.515c0.088,-0.617 0.123,-1.238 0.099,-1.831c-0.039,-0.987 -0.235,-1.894 -0.64,-2.552c-0.337,-0.549 -0.832,-0.903 -1.515,-0.903c-1.013,0 -1.607,0.865 -1.793,1.847c-0.3,1.585 0.463,3.592 2.654,3.592c0.401,-0 0.803,-0.059 1.195,-0.153Zm10.286,-1.296c0.117,-0.638 0.175,-1.283 0.167,-1.897c-0.013,-0.961 -0.181,-1.846 -0.556,-2.487c-0.306,-0.525 -0.763,-0.865 -1.402,-0.865c-1.196,-0 -1.902,0.853 -2.118,1.854c-0.34,1.576 0.491,3.563 2.658,3.563c0.406,0 0.826,-0.061 1.251,-0.168Zm-35.844,-1.071c1.609,-3.014 3.049,-6.304 3.709,-8.903c0.33,-1.299 0.471,-2.411 0.295,-3.2c-0.063,-0.285 -0.166,-0.519 -0.344,-0.674c-0.169,-0.146 -0.402,-0.209 -0.695,-0.209c-0.89,-0 -1.446,0.817 -1.89,1.98c-1.017,2.665 -1.2,7.157 -1.075,11.006Zm12.753,-0.397c2.144,-2.381 3.816,-5.519 4.295,-7.743c0.124,-0.578 0.168,-1.087 0.098,-1.49c-0.035,-0.201 -0.094,-0.369 -0.212,-0.48c-0.104,-0.097 -0.251,-0.132 -0.435,-0.132c-0.369,-0 -0.707,0.194 -1.028,0.5c-0.403,0.384 -0.767,0.938 -1.092,1.602c-0.994,2.026 -1.605,5.038 -1.626,7.743Zm-37.589,-8.912c-0.915,0.017 -1.76,0.044 -2.535,0.077c-0.173,1.37 -0.264,2.836 -0.273,4.301c-0.006,1.136 0.038,2.272 0.134,3.363c1.067,-2.571 2.019,-5.309 2.674,-7.741Zm15.097,6.875c0.026,-0.359 0.017,-0.696 -0.032,-1c-0.064,-0.397 -0.192,-0.734 -0.428,-0.964c-0.22,-0.214 -0.531,-0.318 -0.935,-0.318c-0.505,-0 -0.8,0.37 -0.895,0.793c-0.158,0.704 0.206,1.596 1.198,1.596c0.349,0 0.716,-0.043 1.092,-0.107Zm-40.818,-5.214c0.099,-1.051 0.116,-1.996 -0.013,-2.753c-0.139,-0.823 -0.447,-1.396 -1.201,-1.396c-0.694,-0 -1.124,0.711 -1.314,1.482c-0.305,1.234 0.052,2.827 1.665,2.827c0.31,0 0.598,-0.056 0.863,-0.16Zm25.974,-2.649c0.09,-0.367 0.171,-0.725 0.244,-1.073c0.373,-1.781 0.529,-3.255 0.314,-4.15c-0.07,-0.296 -0.145,-0.525 -0.385,-0.525c-0.331,-0 -0.622,0.18 -0.893,0.465c-0.358,0.376 -0.668,0.924 -0.943,1.593c-0.422,1.027 -0.751,2.324 -0.983,3.765c0.809,-0.033 1.691,-0.059 2.646,-0.075Z" style="fill:rgb(131,133,136);"/>
                <path d="M754.538,121.606c0.834,-0 1.55,-0.136 2.147,-0.406c0.597,-0.27 1.098,-0.625 1.504,-1.065c0.405,-0.439 0.727,-0.946 0.963,-1.521c0.237,-0.574 0.423,-1.155 0.558,-1.74l0.135,-0.609l4.462,0l-0.136,0.609c-0.315,1.464 -0.743,2.743 -1.284,3.836c-0.541,1.093 -1.228,2.005 -2.062,2.738c-0.833,0.732 -1.825,1.284 -2.974,1.656c-1.149,0.372 -2.501,0.558 -4.056,0.558c-1.059,-0 -2.028,-0.158 -2.907,-0.474c-0.879,-0.315 -1.634,-0.777 -2.265,-1.385c-0.63,-0.609 -1.121,-1.347 -1.47,-2.214c-0.349,-0.868 -0.524,-1.865 -0.524,-2.992c0,-0.405 0.023,-0.811 0.068,-1.216c0.045,-0.406 0.124,-0.868 0.236,-1.386l1.116,-5.273c0.698,-3.267 1.938,-5.695 3.718,-7.284c1.78,-1.589 4.101,-2.383 6.963,-2.383c1.126,0 2.135,0.18 3.025,0.541c0.89,0.36 1.645,0.851 2.264,1.47c0.62,0.62 1.093,1.347 1.42,2.18c0.327,0.834 0.49,1.724 0.49,2.671c0,0.315 -0.022,0.63 -0.068,0.946c-0.045,0.315 -0.101,0.642 -0.169,0.98l-0.135,0.609l-4.461,-0l0.135,-0.609c0.135,-0.541 0.203,-1.059 0.203,-1.555c-0,-0.878 -0.254,-1.628 -0.761,-2.247c-0.507,-0.62 -1.391,-0.93 -2.653,-0.93c-0.744,0 -1.42,0.141 -2.028,0.423c-0.609,0.281 -1.138,0.664 -1.589,1.149c-0.45,0.484 -0.828,1.048 -1.132,1.69c-0.304,0.642 -0.535,1.312 -0.693,2.011l-1.251,5.949c-0.067,0.338 -0.123,0.67 -0.169,0.997c-0.045,0.327 -0.067,0.636 -0.067,0.929c-0,1.014 0.265,1.826 0.794,2.434c0.53,0.608 1.414,0.913 2.653,0.913Z" style="fill:rgb(131,133,136);fill-rule:nonzero;"/>
                <path d="M782.795,121.166l0.338,0.237l1.623,-1.149l2.129,3.177l-1.994,1.352c-0.879,0.586 -1.803,0.879 -2.772,0.879c-0.856,-0 -1.622,-0.237 -2.298,-0.71c-0.676,-0.473 -1.104,-1.138 -1.284,-1.994l-0.609,-0c-0.203,0.383 -0.439,0.738 -0.71,1.064c-0.27,0.327 -0.602,0.609 -0.997,0.845c-0.394,0.237 -0.856,0.428 -1.386,0.575c-0.529,0.146 -1.154,0.22 -1.875,0.22c-0.879,-0 -1.69,-0.175 -2.434,-0.524c-0.744,-0.35 -1.392,-0.834 -1.944,-1.454c-0.552,-0.619 -0.985,-1.346 -1.301,-2.18c-0.315,-0.834 -0.473,-1.746 -0.473,-2.738c-0,-1.509 0.203,-2.918 0.608,-4.225c0.406,-1.307 0.992,-2.45 1.758,-3.43c0.766,-0.981 1.707,-1.752 2.822,-2.316c1.116,-0.563 2.372,-0.845 3.769,-0.845c1.239,0 2.219,0.248 2.941,0.744c0.721,0.496 1.205,1.149 1.453,1.96l0.608,0l0.474,-2.23l4.258,-0l-2.704,12.742Zm-8.179,0.44c0.811,-0 1.532,-0.164 2.163,-0.491c0.631,-0.326 1.155,-0.76 1.572,-1.301c0.416,-0.541 0.738,-1.177 0.963,-1.91c0.225,-0.732 0.338,-1.504 0.338,-2.315c-0,-1.059 -0.304,-1.921 -0.913,-2.586c-0.608,-0.664 -1.419,-0.997 -2.433,-0.997c-0.811,0 -1.533,0.164 -2.163,0.49c-0.631,0.327 -1.161,0.761 -1.589,1.302c-0.428,0.541 -0.755,1.177 -0.98,1.909c-0.226,0.733 -0.338,1.505 -0.338,2.316c-0,0.946 0.276,1.78 0.828,2.501c0.552,0.721 1.403,1.082 2.552,1.082Z" style="fill:rgb(131,133,136);fill-rule:nonzero;"/>
                <path d="M798.174,111.804c-0.248,-0 -0.501,0.028 -0.76,0.084c-0.259,0.056 -0.502,0.141 -0.727,0.254c-0.225,0.112 -0.411,0.264 -0.558,0.456c-0.146,0.191 -0.219,0.422 -0.219,0.693c-0,0.473 0.27,0.822 0.811,1.048c0.541,0.225 1.465,0.416 2.772,0.574c1.464,0.18 2.647,0.625 3.549,1.335c0.901,0.71 1.352,1.73 1.352,3.059c-0,1.983 -0.693,3.538 -2.079,4.665c-1.386,1.126 -3.307,1.69 -5.763,1.69c-1.239,-0 -2.304,-0.181 -3.194,-0.541c-0.89,-0.361 -1.623,-0.811 -2.197,-1.352c-0.575,-0.541 -1.009,-1.138 -1.301,-1.792c-0.293,-0.653 -0.451,-1.273 -0.474,-1.859l4.192,-1.014c0.067,0.744 0.383,1.381 0.946,1.91c0.563,0.53 1.42,0.794 2.569,0.794c0.788,0 1.476,-0.124 2.062,-0.371c0.585,-0.248 0.878,-0.688 0.878,-1.319c0,-0.473 -0.225,-0.85 -0.676,-1.132c-0.45,-0.282 -1.284,-0.479 -2.501,-0.591c-1.622,-0.136 -2.912,-0.598 -3.87,-1.386c-0.958,-0.789 -1.436,-1.837 -1.436,-3.144c-0,-0.946 0.197,-1.791 0.591,-2.535c0.394,-0.743 0.918,-1.363 1.572,-1.859c0.653,-0.495 1.414,-0.873 2.281,-1.132c0.868,-0.259 1.775,-0.389 2.721,-0.389c1.172,0 2.152,0.158 2.941,0.474c0.788,0.315 1.431,0.709 1.926,1.183c0.496,0.473 0.862,0.985 1.099,1.537c0.236,0.553 0.389,1.065 0.456,1.538l-4.123,1.082c-0.091,-0.608 -0.372,-1.087 -0.845,-1.437c-0.474,-0.349 -1.138,-0.523 -1.995,-0.523Z" style="fill:rgb(131,133,136);fill-rule:nonzero;"/>
                <path d="M815.345,112.48l-4.732,-0l-0,-4.056l5.611,-0l1.554,-7.369l4.259,0l-1.555,7.369l5.814,-0l0,4.056l-6.692,-0l-1.893,8.686l0.338,0.237l4.529,-3.11l2.129,3.177l-4.901,3.313c-0.856,0.586 -1.768,0.879 -2.737,0.879c-0.496,-0 -0.969,-0.085 -1.42,-0.254c-0.451,-0.169 -0.845,-0.411 -1.183,-0.727c-0.338,-0.315 -0.608,-0.698 -0.811,-1.149c-0.203,-0.451 -0.304,-0.958 -0.304,-1.521c-0,-0.18 0.011,-0.343 0.033,-0.49c0.023,-0.146 0.057,-0.344 0.102,-0.591l1.859,-8.45Z" style="fill:rgb(131,133,136);fill-rule:nonzero;"/>
                <path d="M847.522,114.71c0,1.578 -0.225,3.037 -0.676,4.377c-0.45,1.341 -1.115,2.496 -1.994,3.465c-0.879,0.969 -1.977,1.729 -3.295,2.281c-1.318,0.553 -2.845,0.829 -4.58,0.829c-0.992,-0 -1.921,-0.147 -2.789,-0.44c-0.867,-0.293 -1.628,-0.727 -2.281,-1.301c-0.654,-0.575 -1.172,-1.279 -1.555,-2.113c-0.383,-0.833 -0.575,-1.78 -0.575,-2.839c0,-1.735 0.271,-3.284 0.812,-4.647c0.54,-1.364 1.278,-2.518 2.214,-3.465c0.935,-0.946 2.039,-1.667 3.312,-2.163c1.273,-0.496 2.642,-0.744 4.107,-0.744c1.059,0 2.039,0.164 2.94,0.49c0.902,0.327 1.673,0.783 2.316,1.369c0.642,0.586 1.143,1.296 1.504,2.13c0.36,0.833 0.54,1.757 0.54,2.771Zm-9.903,6.963c0.811,-0.022 1.56,-0.203 2.248,-0.541c0.687,-0.338 1.273,-0.783 1.757,-1.335c0.485,-0.552 0.862,-1.2 1.133,-1.943c0.27,-0.744 0.405,-1.533 0.405,-2.366c0,-1.172 -0.315,-2.056 -0.946,-2.654c-0.631,-0.597 -1.476,-0.895 -2.535,-0.895c-0.811,-0 -1.555,0.174 -2.231,0.524c-0.676,0.349 -1.262,0.811 -1.758,1.385c-0.495,0.575 -0.878,1.234 -1.149,1.978c-0.27,0.743 -0.405,1.521 -0.405,2.332c-0,1.149 0.315,2.022 0.946,2.619c0.631,0.598 1.476,0.896 2.535,0.896Z" style="fill:rgb(131,133,136);fill-rule:nonzero;"/>
                <path d="M855.364,112.412l-0.338,-0.203l-2.67,1.961l-2.265,-3.042l2.704,-2.028c0.519,-0.384 1.065,-0.671 1.64,-0.862c0.574,-0.192 1.121,-0.288 1.639,-0.288c0.901,0 1.69,0.248 2.366,0.744c0.676,0.496 1.081,1.194 1.217,2.096l0.608,-0c0.451,-0.947 1.082,-1.657 1.893,-2.13c0.811,-0.473 1.724,-0.71 2.738,-0.71c1.284,0 2.326,0.4 3.126,1.2c0.8,0.8 1.2,1.91 1.2,3.33c0,0.292 -0.017,0.58 -0.051,0.861c-0.033,0.282 -0.095,0.626 -0.185,1.031l-0.169,0.744l-4.53,0.338l0.102,-0.473c0.067,-0.338 0.101,-0.642 0.101,-0.913c0,-0.653 -0.18,-1.172 -0.541,-1.555c-0.36,-0.383 -0.901,-0.574 -1.622,-0.574c-0.901,-0 -1.617,0.304 -2.146,0.912c-0.53,0.609 -0.919,1.476 -1.167,2.603l-1.216,5.678l4.056,0l-0,4.056l-11.56,0l0,-4.056l3.245,0l1.825,-8.72Z" style="fill:rgb(131,133,136);fill-rule:nonzero;"/>
                <path d="M902.718,115.251l-3.549,0c-0.518,0 -1.014,0.085 -1.487,0.254c-0.473,0.169 -0.89,0.405 -1.251,0.709c-0.36,0.305 -0.648,0.676 -0.862,1.116c-0.214,0.439 -0.321,0.941 -0.321,1.504c0,0.789 0.254,1.369 0.761,1.741c0.507,0.371 1.155,0.557 1.943,0.557l3.515,0l1.251,-5.881Zm5.712,-6.827l-0.608,2.771l2.704,0l-0,4.259l-3.617,-0l-2.062,9.734l-8.179,0c-1.803,0 -3.234,-0.456 -4.293,-1.369c-1.059,-0.912 -1.588,-2.146 -1.588,-3.701c-0,-1.667 0.478,-3.081 1.436,-4.242c0.958,-1.16 2.282,-1.909 3.972,-2.247l-0,-0.609c-0.812,-0.338 -1.527,-0.839 -2.147,-1.504c-0.619,-0.664 -0.929,-1.605 -0.929,-2.822c-0,-1.037 0.186,-1.989 0.557,-2.856c0.372,-0.868 0.907,-1.623 1.606,-2.265c0.699,-0.642 1.555,-1.143 2.569,-1.504c1.014,-0.36 2.174,-0.541 3.481,-0.541l3.515,0l0,4.056l-3.65,0c-0.518,0 -1.008,0.068 -1.47,0.203c-0.462,0.135 -0.873,0.344 -1.234,0.625c-0.361,0.282 -0.642,0.643 -0.845,1.082c-0.203,0.439 -0.304,0.952 -0.304,1.538c-0,0.744 0.265,1.29 0.794,1.639c0.53,0.35 1.189,0.524 1.977,0.524l3.448,0l0.608,-2.771l4.259,-0Z" style="fill:rgb(131,133,136);fill-rule:nonzero;"/>
                <path d="M938.411,116.265l-1.893,8.923l-4.428,0l5.003,-23.66l8.45,0c0.991,0 1.887,0.158 2.687,0.474c0.8,0.315 1.481,0.754 2.045,1.318c0.563,0.563 0.997,1.228 1.301,1.994c0.304,0.766 0.456,1.6 0.456,2.501c0,1.262 -0.214,2.411 -0.642,3.448c-0.428,1.036 -1.036,1.926 -1.825,2.67c-0.789,0.744 -1.735,1.318 -2.839,1.724c-1.104,0.405 -2.333,0.608 -3.685,0.608l-4.63,0Zm0.912,-4.259l4.124,0c1.149,0 2.107,-0.338 2.873,-1.014c0.766,-0.676 1.149,-1.554 1.149,-2.636c0,-0.834 -0.264,-1.47 -0.794,-1.91c-0.53,-0.439 -1.222,-0.659 -2.079,-0.659l-3.954,0l-1.319,6.219Z" style="fill:rgb(131,133,136);fill-rule:nonzero;"/>
                <path d="M971.636,114.71c0,1.578 -0.225,3.037 -0.676,4.377c-0.45,1.341 -1.115,2.496 -1.994,3.465c-0.879,0.969 -1.977,1.729 -3.295,2.281c-1.319,0.553 -2.845,0.829 -4.58,0.829c-0.992,-0 -1.921,-0.147 -2.789,-0.44c-0.867,-0.293 -1.628,-0.727 -2.281,-1.301c-0.654,-0.575 -1.172,-1.279 -1.555,-2.113c-0.383,-0.833 -0.575,-1.78 -0.575,-2.839c0,-1.735 0.271,-3.284 0.812,-4.647c0.54,-1.364 1.278,-2.518 2.213,-3.465c0.936,-0.946 2.04,-1.667 3.313,-2.163c1.273,-0.496 2.642,-0.744 4.107,-0.744c1.059,0 2.039,0.164 2.94,0.49c0.901,0.327 1.673,0.783 2.315,1.369c0.643,0.586 1.144,1.296 1.505,2.13c0.36,0.833 0.54,1.757 0.54,2.771Zm-9.903,6.963c0.811,-0.022 1.56,-0.203 2.248,-0.541c0.687,-0.338 1.273,-0.783 1.757,-1.335c0.485,-0.552 0.862,-1.2 1.133,-1.943c0.27,-0.744 0.405,-1.533 0.405,-2.366c0,-1.172 -0.315,-2.056 -0.946,-2.654c-0.631,-0.597 -1.476,-0.895 -2.535,-0.895c-0.811,-0 -1.555,0.174 -2.231,0.524c-0.676,0.349 -1.262,0.811 -1.758,1.385c-0.495,0.575 -0.878,1.234 -1.149,1.978c-0.27,0.743 -0.405,1.521 -0.405,2.332c-0,1.149 0.315,2.022 0.946,2.619c0.631,0.598 1.476,0.896 2.535,0.896Z" style="fill:rgb(131,133,136);fill-rule:nonzero;"/>
                <path d="M986.069,124.783c-0.451,0.315 -0.913,0.541 -1.386,0.676c-0.473,0.135 -0.935,0.203 -1.386,0.203c-0.495,-0 -0.969,-0.085 -1.419,-0.254c-0.451,-0.169 -0.845,-0.406 -1.183,-0.71c-0.338,-0.304 -0.603,-0.676 -0.795,-1.115c-0.191,-0.44 -0.287,-0.93 -0.287,-1.47c0,-0.406 0.045,-0.8 0.135,-1.183l3.685,-15.379l-0.338,-0.237l-4.53,3.11l-2.129,-3.178l4.901,-3.312c0.451,-0.316 0.913,-0.541 1.386,-0.676c0.473,-0.135 0.935,-0.203 1.386,-0.203c0.495,0 0.969,0.085 1.419,0.254c0.451,0.169 0.845,0.405 1.183,0.709c0.338,0.305 0.603,0.676 0.794,1.116c0.192,0.439 0.288,0.929 0.288,1.47c-0,0.361 -0.045,0.755 -0.135,1.183l-3.685,15.379l0.338,0.237l4.53,-3.11l2.129,3.177l-4.901,3.313Z" style="fill:rgb(131,133,136);fill-rule:nonzero;"/>
                <path d="M1006.75,124.783c-0.451,0.315 -0.913,0.541 -1.386,0.676c-0.473,0.135 -0.935,0.203 -1.386,0.203c-0.496,-0 -0.969,-0.085 -1.42,-0.254c-0.45,-0.169 -0.845,-0.406 -1.183,-0.71c-0.338,-0.304 -0.602,-0.676 -0.794,-1.115c-0.191,-0.44 -0.287,-0.93 -0.287,-1.47c-0,-0.406 0.045,-0.8 0.135,-1.183l3.684,-15.379l-0.338,-0.237l-4.529,3.11l-2.129,-3.178l4.901,-3.312c0.45,-0.316 0.912,-0.541 1.385,-0.676c0.474,-0.135 0.936,-0.203 1.386,-0.203c0.496,0 0.969,0.085 1.42,0.254c0.45,0.169 0.845,0.405 1.183,0.709c0.338,0.305 0.603,0.676 0.794,1.116c0.192,0.439 0.287,0.929 0.287,1.47c0,0.361 -0.045,0.755 -0.135,1.183l-3.684,15.379l0.338,0.237l4.529,-3.11l2.13,3.177l-4.901,3.313Z" style="fill:rgb(131,133,136);fill-rule:nonzero;"/>
                <path d="M1022.37,108.424l-2.095,9.734c-0.09,0.383 -0.136,0.755 -0.136,1.115c0,0.857 0.237,1.493 0.71,1.91c0.473,0.417 1.104,0.625 1.893,0.625c1.194,0 2.113,-0.388 2.755,-1.166c0.642,-0.777 1.121,-1.876 1.436,-3.295l1.893,-8.923l4.259,-0l-2.772,12.776l0.372,0.203l1.217,-0.879l2.129,3.11l-1.588,1.149c-0.428,0.315 -0.873,0.541 -1.335,0.676c-0.462,0.135 -0.919,0.203 -1.369,0.203c-0.924,-0 -1.735,-0.265 -2.434,-0.795c-0.698,-0.529 -1.093,-1.301 -1.183,-2.315l-0.608,-0c-0.496,1.149 -1.166,1.955 -2.011,2.417c-0.845,0.462 -1.797,0.693 -2.857,0.693c-1.464,-0 -2.658,-0.445 -3.582,-1.336c-0.924,-0.89 -1.386,-2.135 -1.386,-3.734c-0,-0.564 0.067,-1.172 0.203,-1.826l2.23,-10.342l4.259,-0Z" style="fill:rgb(131,133,136);fill-rule:nonzero;"/>
                <path d="M1047.86,117.245l1.757,4.158l0.406,-0l1.318,-2.434l3.38,1.758l-1.082,2.163c-0.901,1.848 -2.309,2.772 -4.225,2.772c-0.946,-0 -1.718,-0.215 -2.315,-0.643c-0.597,-0.428 -1.087,-1.115 -1.47,-2.061l-1.116,-2.603l-5.577,5.239l-2.873,-3.008l6.76,-6.321l-1.69,-4.022l-0.405,-0l-1.623,2.603l-3.245,-2.096l1.623,-2.501c0.969,-1.533 2.276,-2.299 3.921,-2.299c1.667,0 2.884,0.879 3.65,2.637l1.082,2.569l5.34,-5.003l2.873,3.008l-6.489,6.084Z" style="fill:rgb(131,133,136);fill-rule:nonzero;"/>
                <path d="M1106.38,921.706l19.82,0.059c1.163,0.003 2.111,-0.934 2.119,-2.097l0.11,-15.012c0,0 2.479,0 2.479,0c-0,4.564 -0,14.937 -0,14.937c-0,1.166 0.946,2.113 2.112,2.113c1.166,-0 2.113,-0.947 2.113,-2.113l-0,-17.049c-0,-1.167 -0.946,-2.113 -2.113,-2.113l-6.688,0c-1.161,0 -2.104,0.937 -2.112,2.097l-0.11,15.006c-5.102,-0.015 -17.717,-0.053 -17.717,-0.053c-1.166,-0.004 -2.115,0.94 -2.119,2.106c-0.003,1.166 0.94,2.115 2.106,2.119Z" style="fill:rgb(131,133,136);"/>
                <path d="M1112.87,912.18l-2.536,-2.536c0,-0 2.536,-2.536 2.536,-2.536c0.825,-0.825 0.825,-2.164 0,-2.988c-0.824,-0.824 -2.163,-0.824 -2.987,-0l-5.524,5.524l5.524,5.523c0.824,0.825 2.163,0.825 2.987,0c0.825,-0.824 0.825,-2.163 0,-2.987Z" style="fill:rgb(131,133,136);"/>
                <path d="M1116.6,907.531l-0.042,0c-1.166,0 -2.113,0.947 -2.113,2.113c0,1.166 0.947,2.112 2.113,2.112l0.042,0c1.166,0 2.112,-0.946 2.112,-2.112c0,-1.166 -0.946,-2.113 -2.112,-2.113Zm-5.112,0l-0.043,0c-1.166,0 -2.112,0.947 -2.112,2.113c-0,1.166 0.946,2.112 2.112,2.112l0.043,0c1.165,0 2.112,-0.946 2.112,-2.112c0,-1.166 -0.947,-2.113 -2.112,-2.113Zm10.224,0l-0.042,0c-1.166,0 -2.113,0.947 -2.113,2.113c0,1.166 0.947,2.112 2.113,2.112l0.042,0c1.166,0 2.113,-0.946 2.113,-2.112c-0,-1.166 -0.947,-2.113 -2.113,-2.113Z" style="fill:rgb(131,133,136);"/>
                <path d="M692.28,917.481c-0,-0 -12.615,0.038 -17.717,0.053c0,-0 -0.11,-15.006 -0.11,-15.006c-0.008,-1.16 -0.951,-2.097 -2.112,-2.097l-6.688,0c-1.167,0 -2.113,0.946 -2.113,2.113l0,17.049c0,1.166 0.947,2.113 2.113,2.113c1.166,-0 2.112,-0.947 2.112,-2.113l0,-14.937c0,0 2.479,0 2.479,0c-0,0 0.11,15.012 0.11,15.012c0.008,1.163 0.955,2.1 2.119,2.097l19.82,-0.059c1.165,-0.004 2.109,-0.953 2.106,-2.119c-0.004,-1.166 -0.953,-2.11 -2.119,-2.106Z" style="fill:rgb(131,133,136);"/>
                <path d="M685.8,907.108l2.536,2.536c-0,-0 -2.536,2.536 -2.536,2.536c-0.825,0.824 -0.825,2.163 -0,2.987c0.824,0.825 2.163,0.825 2.987,0l5.524,-5.523l-5.524,-5.524c-0.824,-0.824 -2.163,-0.824 -2.987,-0c-0.825,0.824 -0.825,2.163 -0,2.988Z" style="fill:rgb(131,133,136);"/>
                <path d="M682.068,911.756l0.042,0c1.166,0 2.113,-0.946 2.113,-2.112c-0,-1.166 -0.947,-2.113 -2.113,-2.113l-0.042,0c-1.166,0 -2.112,0.947 -2.112,2.113c-0,1.166 0.946,2.112 2.112,2.112Zm5.112,0l0.043,0c1.166,0 2.112,-0.946 2.112,-2.112c0,-1.166 -0.946,-2.113 -2.112,-2.113l-0.043,0c-1.166,0 -2.112,0.947 -2.112,2.113c-0,1.166 0.946,2.112 2.112,2.112Zm-10.224,0l0.042,0c1.166,0 2.113,-0.946 2.113,-2.112c-0,-1.166 -0.947,-2.113 -2.113,-2.113l-0.042,0c-1.166,0 -2.113,0.947 -2.113,2.113c0,1.166 0.947,2.112 2.113,2.112Z" style="fill:rgb(131,133,136);"/>
                <path d="M661.192,778.037l-0,16.772c-0,0.741 0.388,1.427 1.022,1.809c0.634,0.383 1.423,0.405 2.078,0.058l28.205,-14.913c0,0 -0.094,13.309 -0.094,13.309c-0.008,1.166 0.931,2.119 2.097,2.127c1.166,0.008 2.119,-0.931 2.128,-2.097l0.119,-16.844c0.005,-0.743 -0.38,-1.435 -1.016,-1.82c-0.635,-0.386 -1.427,-0.41 -2.084,-0.062l-28.23,14.926c-0,0 -0,-13.265 -0,-13.265c-0,-1.166 -0.947,-2.113 -2.113,-2.113c-1.166,0 -2.112,0.947 -2.112,2.113Z" style="fill:rgb(131,133,136);"/>
                <path d="M800.239,777.992c0,0 0.072,10.361 0.104,14.929c-0,0 -15.596,0.047 -15.596,0.047c-0,-0 -0.11,-15.006 -0.11,-15.006c-0.009,-1.16 -0.952,-2.097 -2.113,-2.097l-6.688,0c-1.167,0 -2.112,0.946 -2.112,2.113l-0,17.05c-0,1.165 0.946,2.112 2.112,2.112c1.166,0 2.113,-0.947 2.113,-2.112l-0,-14.938c-0,0 2.478,0 2.478,0c0,0 0.11,15.012 0.11,15.012c0.009,1.163 0.956,2.101 2.119,2.097l19.82,-0.059c0.562,-0.002 1.1,-0.227 1.495,-0.626c0.395,-0.399 0.615,-0.939 0.611,-1.501l-0.118,-17.05c-0.008,-1.166 -0.961,-2.106 -2.127,-2.098c-1.166,0.008 -2.106,0.962 -2.098,2.127Z" style="fill:rgb(131,133,136);"/>
                <path d="M800.239,902.617c0,0 0.072,10.351 0.104,14.923c-0,-0 -9.078,-0 -9.078,-0c0,-4.564 0,-14.937 0,-14.937c0,-1.167 -0.945,-2.113 -2.112,-2.113l-13.317,0c-1.167,0 -2.112,0.946 -2.112,2.113l-0,17.049c-0,1.166 0.946,2.113 2.112,2.113c1.166,-0 2.113,-0.947 2.113,-2.113l-0,-14.937c-0,0 9.091,0 9.091,0c0,0 0,14.937 0,14.937c0,1.167 0.946,2.113 2.113,2.113l13.317,-0c0.563,-0 1.102,-0.225 1.499,-0.624c0.396,-0.399 0.617,-0.94 0.613,-1.503l-0.118,-17.05c-0.008,-1.166 -0.961,-2.106 -2.127,-2.098c-1.166,0.008 -2.106,0.961 -2.098,2.127Z" style="fill:rgb(131,133,136);"/>
                <path d="M1133.25,778.037l0,13.265c0,0 -28.23,-14.926 -28.23,-14.926c-0.658,-0.348 -1.449,-0.324 -2.084,0.062c-0.636,0.385 -1.022,1.077 -1.016,1.82l0.119,16.844c0.008,1.166 0.962,2.105 2.128,2.097c1.165,-0.008 2.105,-0.961 2.097,-2.127l-0.094,-13.309c7.929,4.192 28.205,14.913 28.205,14.913c0.655,0.347 1.443,0.325 2.078,-0.058c0.634,-0.382 1.022,-1.068 1.022,-1.809l0,-16.772c0,-1.166 -0.946,-2.113 -2.112,-2.113c-1.166,0 -2.113,0.947 -2.113,2.113Z" style="fill:rgb(131,133,136);"/>
                <path d="M994.207,777.963l-0.118,17.05c-0.004,0.562 0.216,1.102 0.611,1.501c0.395,0.399 0.933,0.624 1.495,0.626l19.82,0.059c1.163,0.004 2.11,-0.934 2.119,-2.097l0.11,-15.012c-0,0 2.478,0 2.478,0c0,0 0,14.938 0,14.938c0,1.165 0.947,2.112 2.113,2.112c1.166,0 2.112,-0.947 2.112,-2.112l0,-17.05c0,-1.167 -0.946,-2.113 -2.112,-2.113l-6.689,0c-1.16,0 -2.103,0.937 -2.112,2.097l-0.11,15.006c0,-0 -15.596,-0.047 -15.596,-0.047c0,0 0.104,-14.929 0.104,-14.929c0.008,-1.165 -0.932,-2.119 -2.098,-2.127c-1.166,-0.008 -2.119,0.932 -2.127,2.098Z" style="fill:rgb(131,133,136);"/>
                <path d="M994.207,902.529l-0.118,17.05c-0.004,0.563 0.217,1.104 0.613,1.503c0.397,0.399 0.936,0.624 1.499,0.624l13.317,-0c1.167,-0 2.112,-0.946 2.112,-2.113l0,-14.937c0,0 9.092,0 9.092,0c0,0 0,14.937 0,14.937c0,1.166 0.947,2.113 2.113,2.113c1.166,-0 2.112,-0.947 2.112,-2.113l0,-17.049c0,-1.167 -0.946,-2.113 -2.112,-2.113l-13.317,0c-1.167,0 -2.113,0.946 -2.113,2.113l0,14.937c0,-0 -9.077,-0 -9.077,-0c0.032,-4.572 0.104,-14.923 0.104,-14.923c0.008,-1.166 -0.932,-2.119 -2.098,-2.127c-1.166,-0.008 -2.119,0.932 -2.127,2.098Z" style="fill:rgb(131,133,136);"/>
                <circle cx="900.133" cy="797.264" r="28.743" style="fill:rgb(131,133,136);"/>
                <path d="M901.925,829.867c-0.386,-0.618 -1.063,-0.993 -1.792,-0.993c-0.728,0 -1.405,0.375 -1.791,0.993l-8.275,13.247c-0.407,0.651 -0.428,1.472 -0.056,2.144c0.372,0.671 1.08,1.088 1.847,1.088l16.55,-0c0.768,-0 1.476,-0.417 1.848,-1.088c0.372,-0.672 0.351,-1.493 -0.056,-2.144l-8.275,-13.247Z" style="fill:rgb(131,133,136);"/>
            </g>
            <g id="Jacks">
                <circle cx="678.47" cy="855.022" r="37.913" style="fill:rgb(222,222,222);"/>
                <circle cx="678.47" cy="976.383" r="37.913" style="fill:rgb(222,222,222);"/>
                <circle cx="1119.94" cy="855.022" r="37.913" style="fill:rgb(222,222,222);"/>
                <circle cx="1119.7" cy="976.383" r="37.913" style="fill:rgb(222,222,222);"/>
                <g id="Flat-jack" serif:id="Flat jack">
                    <path d="M899.398,942.677c0.248,-0.143 0.553,-0.143 0.801,0c3.255,1.88 25.334,14.627 28.589,16.506c0.248,0.143 0.4,0.408 0.4,0.694c0.001,3.759 0.002,29.253 0.002,33.012c-0,0.286 -0.153,0.551 -0.401,0.694c-3.255,1.879 -25.332,14.626 -28.587,16.506c-0.248,0.143 -0.553,0.143 -0.801,-0c-3.255,-1.88 -25.334,-14.627 -28.589,-16.506c-0.248,-0.143 -0.4,-0.408 -0.4,-0.694c-0.001,-3.759 -0.002,-29.253 -0.002,-33.012c-0,-0.286 0.153,-0.551 0.401,-0.694c3.255,-1.879 25.332,-14.626 28.587,-16.506Z" style="fill:rgb(213,213,213);"/>
                    <path d="M898.46,941.054c0.828,-0.478 1.848,-0.479 2.677,-0l28.588,16.505c0.828,0.478 1.338,1.362 1.338,2.318l0.002,33.012c-0,0.956 -0.51,1.839 -1.338,2.318l-28.587,16.505c-0.828,0.479 -1.849,0.479 -2.677,0.001l-28.588,-16.506c-0.828,-0.478 -1.338,-1.362 -1.338,-2.318l-0.002,-33.012c-0,-0.956 0.51,-1.839 1.338,-2.317l28.587,-16.506Zm0.938,1.623l-28.587,16.506c-0.248,0.143 -0.401,0.408 -0.401,0.694l0.002,33.012c-0,0.286 0.152,0.551 0.4,0.694l28.589,16.506c0.248,0.143 0.553,0.143 0.801,-0l28.587,-16.506c0.248,-0.143 0.401,-0.408 0.401,-0.694l-0.002,-33.012c0,-0.286 -0.152,-0.551 -0.4,-0.694l-28.589,-16.506c-0.248,-0.143 -0.553,-0.143 -0.801,0Z" style="fill:rgb(169,169,169);"/>
                    <ellipse cx="899.8" cy="976.383" rx="17.849" ry="17.848" style="fill:rgb(131,133,136);"/>
                </g>
                <g id="Flat-jack1" serif:id="Flat jack">
                    <path d="M1008.69,942.677c0.247,-0.143 0.553,-0.143 0.801,0c3.255,1.88 25.333,14.627 28.589,16.506c0.247,0.143 0.4,0.408 0.4,0.694c0,3.759 0.001,29.253 0.002,33.012c-0,0.286 -0.153,0.551 -0.401,0.694c-3.255,1.879 -25.332,14.626 -28.587,16.506c-0.248,0.143 -0.553,0.143 -0.801,-0c-3.256,-1.88 -25.334,-14.627 -28.589,-16.506c-0.248,-0.143 -0.401,-0.408 -0.401,-0.694c0,-3.759 -0.001,-29.253 -0.001,-33.012c-0,-0.286 0.152,-0.551 0.4,-0.694c3.255,-1.879 25.332,-14.626 28.588,-16.506Z" style="fill:rgb(213,213,213);"/>
                    <path d="M1007.75,941.054c0.828,-0.478 1.848,-0.479 2.676,-0l28.589,16.505c0.828,0.478 1.338,1.362 1.338,2.318l0.002,33.012c-0,0.956 -0.51,1.839 -1.338,2.318l-28.588,16.505c-0.828,0.479 -1.848,0.479 -2.676,0.001l-28.589,-16.506c-0.828,-0.478 -1.338,-1.362 -1.338,-2.318l-0.001,-33.012c-0,-0.956 0.51,-1.839 1.338,-2.317l28.587,-16.506Zm0.938,1.623l-28.588,16.506c-0.248,0.143 -0.4,0.408 -0.4,0.694l0.001,33.012c0,0.286 0.153,0.551 0.401,0.694l28.589,16.506c0.248,0.143 0.553,0.143 0.801,-0l28.587,-16.506c0.248,-0.143 0.401,-0.408 0.401,-0.694l-0.002,-33.012c0,-0.286 -0.153,-0.551 -0.4,-0.694l-28.589,-16.506c-0.248,-0.143 -0.554,-0.143 -0.801,0Z" style="fill:rgb(169,169,169);"/>
                    <ellipse cx="1009.09" cy="976.383" rx="17.849" ry="17.848" style="fill:rgb(131,133,136);"/>
                </g>
                <g id="Flat-jack2" serif:id="Flat jack">
                    <path d="M1119.3,942.677c0.248,-0.143 0.554,-0.143 0.801,0c3.256,1.88 25.334,14.627 28.589,16.506c0.248,0.143 0.401,0.408 0.401,0.694c0,3.759 0.001,29.253 0.001,33.012c0,0.286 -0.152,0.551 -0.4,0.694c-3.255,1.879 -25.332,14.626 -28.587,16.506c-0.248,0.143 -0.554,0.143 -0.802,-0c-3.255,-1.88 -25.333,-14.627 -28.588,-16.506c-0.248,-0.143 -0.401,-0.408 -0.401,-0.694c-0,-3.759 -0.001,-29.253 -0.002,-33.012c0,-0.286 0.153,-0.551 0.401,-0.694c3.255,-1.879 25.332,-14.626 28.587,-16.506Z" style="fill:rgb(213,213,213);"/>
                    <path d="M1118.36,941.054c0.828,-0.478 1.848,-0.479 2.676,-0l28.589,16.505c0.828,0.478 1.338,1.362 1.338,2.318l0.001,33.012c0,0.956 -0.51,1.839 -1.338,2.318l-28.587,16.505c-0.828,0.479 -1.848,0.479 -2.676,0.001l-28.589,-16.506c-0.828,-0.478 -1.338,-1.362 -1.338,-2.318l-0.002,-33.012c0,-0.956 0.51,-1.839 1.338,-2.317l28.588,-16.506Zm0.937,1.623l-28.587,16.506c-0.248,0.143 -0.401,0.408 -0.401,0.694l0.002,33.012c-0,0.286 0.153,0.551 0.401,0.694l28.588,16.506c0.248,0.143 0.554,0.143 0.802,-0l28.587,-16.506c0.248,-0.143 0.4,-0.408 0.4,-0.694l-0.001,-33.012c-0,-0.286 -0.153,-0.551 -0.401,-0.694l-28.589,-16.506c-0.247,-0.143 -0.553,-0.143 -0.801,0Z" style="fill:rgb(169,169,169);"/>
                    <ellipse cx="1119.7" cy="976.383" rx="17.849" ry="17.848" style="fill:rgb(131,133,136);"/>
                </g>
                <g id="Flat-jack3" serif:id="Flat jack">
                    <path d="M1119.54,821.316c0.248,-0.143 0.553,-0.143 0.801,0c3.255,1.88 25.334,14.627 28.589,16.506c0.248,0.143 0.4,0.408 0.4,0.694c0.001,3.759 0.002,29.253 0.002,33.012c-0,0.286 -0.153,0.551 -0.401,0.694c-3.255,1.879 -25.332,14.626 -28.587,16.506c-0.248,0.143 -0.553,0.143 -0.801,-0c-3.255,-1.88 -25.334,-14.627 -28.589,-16.506c-0.248,-0.143 -0.401,-0.408 -0.401,-0.694c0,-3.759 -0.001,-29.253 -0.001,-33.012c-0,-0.286 0.153,-0.551 0.4,-0.694c3.256,-1.879 25.333,-14.626 28.588,-16.506Z" style="fill:rgb(213,213,213);"/>
                    <path d="M1118.6,819.693c0.828,-0.478 1.848,-0.478 2.676,-0l28.589,16.506c0.828,0.478 1.338,1.361 1.338,2.317l0.002,33.012c-0,0.956 -0.51,1.84 -1.338,2.318l-28.587,16.506c-0.828,0.478 -1.849,0.478 -2.677,-0l-28.588,-16.506c-0.828,-0.478 -1.338,-1.362 -1.339,-2.318l-0.001,-33.012c-0,-0.956 0.51,-1.839 1.338,-2.317l28.587,-16.506Zm0.938,1.623l-28.588,16.506c-0.247,0.143 -0.4,0.408 -0.4,0.694l0.001,33.012c0,0.286 0.153,0.551 0.401,0.694l28.589,16.506c0.248,0.143 0.553,0.143 0.801,-0l28.587,-16.506c0.248,-0.143 0.401,-0.408 0.401,-0.694l-0.002,-33.012c0,-0.286 -0.152,-0.551 -0.4,-0.694l-28.589,-16.506c-0.248,-0.143 -0.553,-0.143 -0.801,0Z" style="fill:rgb(169,169,169);"/>
                    <ellipse cx="1119.94" cy="855.022" rx="17.849" ry="17.848" style="fill:rgb(131,133,136);"/>
                </g>
                <g id="Flat-jack4" serif:id="Flat jack">
                    <path d="M678.068,821.316c0.248,-0.143 0.553,-0.143 0.801,0c3.255,1.88 25.333,14.627 28.589,16.506c0.248,0.143 0.4,0.408 0.4,0.694c0,3.759 0.002,29.253 0.002,33.012c-0,0.286 -0.153,0.551 -0.401,0.694c-3.255,1.879 -25.332,14.626 -28.587,16.506c-0.248,0.143 -0.553,0.143 -0.801,-0c-3.256,-1.88 -25.334,-14.627 -28.589,-16.506c-0.248,-0.143 -0.401,-0.408 -0.401,-0.694c0,-3.759 -0.001,-29.253 -0.001,-33.012c-0,-0.286 0.152,-0.551 0.4,-0.694c3.255,-1.879 25.332,-14.626 28.588,-16.506Z" style="fill:rgb(213,213,213);"/>
                    <path d="M677.13,819.693c0.828,-0.478 1.848,-0.478 2.676,-0l28.589,16.506c0.828,0.478 1.338,1.361 1.338,2.317l0.002,33.012c-0,0.956 -0.51,1.84 -1.338,2.318l-28.588,16.506c-0.828,0.478 -1.848,0.478 -2.676,-0l-28.589,-16.506c-0.828,-0.478 -1.338,-1.362 -1.338,-2.318l-0.001,-33.012c-0,-0.956 0.51,-1.839 1.338,-2.317l28.587,-16.506Zm0.938,1.623l-28.588,16.506c-0.248,0.143 -0.4,0.408 -0.4,0.694l0.001,33.012c0,0.286 0.153,0.551 0.401,0.694l28.589,16.506c0.248,0.143 0.553,0.143 0.801,-0l28.587,-16.506c0.248,-0.143 0.401,-0.408 0.401,-0.694l-0.002,-33.012c0,-0.286 -0.152,-0.551 -0.4,-0.694l-28.589,-16.506c-0.248,-0.143 -0.553,-0.143 -0.801,0Z" style="fill:rgb(169,169,169);"/>
                    <ellipse cx="678.47" cy="855.022" rx="17.849" ry="17.848" style="fill:rgb(131,133,136);"/>
                </g>
                <g id="Flat-jack5" serif:id="Flat jack">
                    <path d="M678.068,942.677c0.248,-0.143 0.553,-0.143 0.801,0c3.255,1.88 25.333,14.627 28.589,16.506c0.248,0.143 0.4,0.408 0.4,0.694c0,3.759 0.002,29.253 0.002,33.012c-0,0.286 -0.153,0.551 -0.401,0.694c-3.255,1.879 -25.332,14.626 -28.587,16.506c-0.248,0.143 -0.553,0.143 -0.801,-0c-3.256,-1.88 -25.334,-14.627 -28.589,-16.506c-0.248,-0.143 -0.401,-0.408 -0.401,-0.694c0,-3.759 -0.001,-29.253 -0.001,-33.012c-0,-0.286 0.152,-0.551 0.4,-0.694c3.255,-1.879 25.332,-14.626 28.588,-16.506Z" style="fill:rgb(213,213,213);"/>
                    <path d="M677.13,941.054c0.828,-0.478 1.848,-0.479 2.676,-0l28.589,16.505c0.828,0.478 1.338,1.362 1.338,2.318l0.002,33.012c-0,0.956 -0.51,1.839 -1.338,2.318l-28.588,16.505c-0.828,0.479 -1.848,0.479 -2.676,0.001l-28.589,-16.506c-0.828,-0.478 -1.338,-1.362 -1.338,-2.318l-0.001,-33.012c-0,-0.956 0.51,-1.839 1.338,-2.317l28.587,-16.506Zm0.938,1.623l-28.588,16.506c-0.248,0.143 -0.4,0.408 -0.4,0.694l0.001,33.012c0,0.286 0.153,0.551 0.401,0.694l28.589,16.506c0.248,0.143 0.553,0.143 0.801,-0l28.587,-16.506c0.248,-0.143 0.401,-0.408 0.401,-0.694l-0.002,-33.012c0,-0.286 -0.152,-0.551 -0.4,-0.694l-28.589,-16.506c-0.248,-0.143 -0.553,-0.143 -0.801,0Z" style="fill:rgb(169,169,169);"/>
                    <ellipse cx="678.47" cy="976.383" rx="17.849" ry="17.848" style="fill:rgb(131,133,136);"/>
                </g>
                <g id="Flat-jack6" serif:id="Flat jack">
                    <path d="M788.649,942.677c0.248,-0.143 0.553,-0.143 0.801,0c3.255,1.88 25.334,14.627 28.589,16.506c0.248,0.143 0.401,0.408 0.401,0.694c-0,3.759 0.001,29.253 0.001,33.012c0,0.286 -0.153,0.551 -0.4,0.694c-3.255,1.879 -25.332,14.626 -28.588,16.506c-0.248,0.143 -0.553,0.143 -0.801,-0c-3.255,-1.88 -25.334,-14.627 -28.589,-16.506c-0.248,-0.143 -0.4,-0.408 -0.4,-0.694c-0,-3.759 -0.002,-29.253 -0.002,-33.012c0,-0.286 0.153,-0.551 0.401,-0.694c3.255,-1.879 25.332,-14.626 28.587,-16.506Z" style="fill:rgb(213,213,213);"/>
                    <path d="M787.712,941.054c0.828,-0.478 1.848,-0.479 2.676,-0l28.589,16.505c0.828,0.478 1.338,1.362 1.338,2.318l0.001,33.012c0,0.956 -0.51,1.839 -1.338,2.318l-28.587,16.505c-0.828,0.479 -1.848,0.479 -2.676,0.001l-28.589,-16.506c-0.828,-0.478 -1.338,-1.362 -1.338,-2.318l-0.002,-33.012c0,-0.956 0.51,-1.839 1.338,-2.317l28.588,-16.506Zm0.937,1.623l-28.587,16.506c-0.248,0.143 -0.401,0.408 -0.401,0.694l0.002,33.012c-0,0.286 0.152,0.551 0.4,0.694l28.589,16.506c0.248,0.143 0.553,0.143 0.801,-0l28.588,-16.506c0.247,-0.143 0.4,-0.408 0.4,-0.694l-0.001,-33.012c-0,-0.286 -0.153,-0.551 -0.401,-0.694l-28.589,-16.506c-0.248,-0.143 -0.553,-0.143 -0.801,0Z" style="fill:rgb(169,169,169);"/>
                    <ellipse cx="789.051" cy="976.383" rx="17.849" ry="17.848" style="fill:rgb(131,133,136);"/>
                </g>
            </g>
            <g id="Stars">
                <path d="M921.983,265.111l5.268,15.959c0.211,0.642 0.717,1.143 1.36,1.35c0.643,0.206 1.346,0.092 1.892,-0.306l9.369,-6.844l-0.642,11.585c-0.038,0.675 0.249,1.326 0.773,1.754c0.523,0.427 1.219,0.578 1.872,0.407l16.256,-4.266l-11.187,12.542c-0.45,0.504 -0.631,1.192 -0.489,1.853c0.143,0.66 0.593,1.212 1.211,1.485l10.612,4.692l-10.355,5.236c-0.603,0.305 -1.023,0.88 -1.132,1.546c-0.108,0.667 0.109,1.345 0.584,1.825l11.823,11.946l-16.456,-3.418c-0.661,-0.137 -1.348,0.05 -1.849,0.504c-0.5,0.453 -0.753,1.119 -0.681,1.791l1.242,11.536l-9.711,-6.349c-0.566,-0.37 -1.274,-0.447 -1.905,-0.207c-0.632,0.239 -1.111,0.766 -1.289,1.417l-4.434,16.212l-5.268,-15.96c-0.211,-0.641 -0.717,-1.143 -1.36,-1.349c-0.643,-0.207 -1.346,-0.093 -1.892,0.305l-9.369,6.844l0.642,-11.585c0.038,-0.674 -0.249,-1.326 -0.773,-1.753c-0.523,-0.427 -1.219,-0.579 -1.872,-0.407l-16.256,4.266l11.187,-12.542c0.45,-0.504 0.631,-1.193 0.489,-1.853c-0.143,-0.66 -0.593,-1.213 -1.211,-1.486l-10.612,-4.692l10.355,-5.236c0.603,-0.305 1.023,-0.879 1.132,-1.546c0.108,-0.667 -0.109,-1.345 -0.584,-1.825l-11.823,-11.946l16.456,3.418c0.661,0.138 1.348,-0.05 1.849,-0.503c0.5,-0.454 0.753,-1.12 0.681,-1.791l-1.242,-11.536l9.711,6.349c0.566,0.369 1.274,0.446 1.905,0.207c0.632,-0.24 1.111,-0.767 1.289,-1.418l4.434,-16.211Z" style="fill:rgb(213,213,213);"/>
                <path d="M879.732,332.238l-7.734,5.817l-1.434,-10.134l-16.494,9.138l9.137,-16.495l-10.133,-1.433l6.152,-8.179l-18.125,-5.203l18.125,-5.202l-6.152,-8.179l10.133,-1.434l-9.137,-16.494l16.494,9.137l1.434,-10.133l8.179,6.152l5.202,-18.125l5.203,18.125l8.179,-6.152l1.433,10.133l0.94,-0.521l0.241,2.232l-20.474,-4.253c-0.912,-0.189 -1.841,0.241 -2.286,1.06c-0.445,0.819 -0.301,1.832 0.355,2.495l14.709,14.862l-11.746,5.94c-0.729,0.368 -1.18,1.123 -1.159,1.94c0.021,0.816 0.511,1.547 1.258,1.877l12.038,5.323l-13.919,15.605c-0.518,0.581 -0.668,1.388 -0.419,2.101Zm33.172,-55.702l1.855,-1.027l-0.52,1.9l-1.335,-0.873Zm3.267,60.236l-1.248,-0.691l0.822,-0.601l0.426,1.292Zm-13.731,-7.606l-1.07,-0.593l1.119,-0.294l-0.049,0.887Zm-2.387,-0.248l-1.292,9.137l-8.179,-6.152l-5.203,18.124l-4.796,-16.708c0.487,0.313 1.094,0.421 1.68,0.267l17.79,-4.668Z" style="fill:rgb(213,213,213);"/>
                <path d="M985.293,479.04l5.716,7.616l3.712,-5.342l0.885,6.445l8.548,-4.196l-5.477,7.79l6.228,1.879l-5.856,2.833l6.632,6.834l-9.101,-2.802l0.137,6.504l-4.504,-4.694l-4.45,8.419l-0.147,-9.522l-6.144,2.141l3.073,-5.735l-9.382,-1.63l9.01,-3.082l-3.935,-5.182l6.404,1.15l-1.349,-9.426Z" style="fill:rgb(213,213,213);stroke:rgb(213,213,213);stroke-width:6.25px;stroke-linecap:butt;stroke-miterlimit:2;"/>
                <path d="M901.856,708.18l1.399,11.485l3.821,-2.85l0.357,4.754l9.584,-6.48l-6.31,9.697l4.759,0.273l-2.782,3.87l11.507,1.198l-11.067,3.372l3.47,3.268l-4.619,1.177l8.046,8.314l-10.646,-4.531l0.558,4.734l-4.295,-2.068l0.819,11.541l-5.243,-10.314l-2.616,3.986l-1.961,-4.346l-6.79,9.368l2.613,-11.271l-4.566,1.371l1.291,-4.589l-11.223,2.811l9.247,-6.954l-4.379,-1.884l3.938,-2.685l-10.404,-5.061l11.554,0.616l-2.144,-4.258l4.744,0.474l-4.717,-10.564l8.454,7.898l1.095,-4.639l3.328,3.412l3.178,-11.125Z" style="fill:rgb(213,213,213);stroke:rgb(213,213,213);stroke-width:3.33px;stroke-linecap:butt;stroke-miterlimit:2;"/>
                <path d="M997.726,457.066l1.927,3.721l2.824,1.815l-2.824,1.814l-1.927,3.722l-1.927,-3.722l-2.825,-1.814l2.825,-1.815l1.927,-3.721Z" style="fill:rgb(213,213,213);stroke:rgb(213,213,213);stroke-width:6.25px;stroke-linecap:butt;stroke-miterlimit:2;"/>
                <path d="M1079.95,596.033l-0.319,14.01l9.816,-0.269l-6.12,7.68l11.384,8.172l-14.01,-0.319l0.269,9.817l-7.679,-6.12l-8.173,11.384l0.319,-14.01l-9.816,0.269l6.119,-7.68l-11.383,-8.173l14.01,0.319l-0.27,-9.816l7.68,6.12l8.173,-11.384Z" style="fill:rgb(213,213,213);stroke:rgb(213,213,213);stroke-width:6.25px;stroke-linecap:butt;stroke-miterlimit:2;"/>
                <path d="M672.842,614.745l3.838,11.181l8.261,1.023l-4.226,7.172l6.522,9.858l-11.602,-2.266l-5.016,6.643l-4.098,-7.246l-11.799,0.719l7.764,-8.914l-3.245,-7.666l8.324,0.074l5.277,-10.578Z" style="fill:rgb(213,213,213);stroke:rgb(213,213,213);stroke-width:6.25px;stroke-linecap:butt;stroke-miterlimit:2;"/>
                <path d="M807.144,503.845l4.042,14.262c0.044,0.153 0.107,0.292 0.187,0.406c0.08,0.115 0.175,0.204 0.278,0.261l9.557,5.271l-9.236,5.817c-0.099,0.063 -0.188,0.157 -0.262,0.276c-0.073,0.119 -0.128,0.261 -0.163,0.417l-3.21,14.472l-4.042,-14.262c-0.044,-0.153 -0.107,-0.292 -0.187,-0.407c-0.08,-0.114 -0.175,-0.203 -0.278,-0.26l-9.557,-5.272l9.236,-5.816c0.099,-0.063 0.188,-0.157 0.262,-0.276c0.073,-0.12 0.128,-0.262 0.163,-0.417l3.21,-14.472Z" style="fill:rgb(213,213,213);stroke:rgb(213,213,213);stroke-width:6.25px;"/>
                <path d="M1030.22,601.648l2.94,5.137c0.024,0.041 0.051,0.077 0.08,0.108c0.029,0.03 0.06,0.055 0.093,0.073l4.07,2.212l-2.912,3.603c-0.023,0.028 -0.042,0.063 -0.058,0.103c-0.015,0.039 -0.026,0.083 -0.032,0.13l-0.748,5.871l-2.94,-5.136c-0.024,-0.041 -0.05,-0.078 -0.08,-0.108c-0.029,-0.031 -0.06,-0.056 -0.093,-0.073l-4.07,-2.212l2.912,-3.603c0.023,-0.029 0.043,-0.064 0.058,-0.103c0.015,-0.04 0.026,-0.084 0.032,-0.131l0.748,-5.871Z" style="fill:rgb(213,213,213);stroke:rgb(213,213,213);stroke-width:6.25px;"/>
                <path d="M713.781,411.29l1.938,-2.769c0.015,-0.022 0.029,-0.05 0.041,-0.082c0.011,-0.033 0.02,-0.07 0.027,-0.111l0.81,-5.072l1.403,4.941c0.011,0.04 0.024,0.075 0.039,0.107c0.016,0.031 0.033,0.057 0.051,0.077l2.251,2.521l-1.938,2.769c-0.016,0.022 -0.029,0.049 -0.041,0.082c-0.011,0.033 -0.02,0.07 -0.027,0.111l-0.81,5.072l-1.403,-4.941c-0.011,-0.04 -0.024,-0.076 -0.04,-0.107c-0.015,-0.031 -0.032,-0.057 -0.05,-0.077l-2.251,-2.521Z" style="fill:rgb(213,213,213);stroke:rgb(213,213,213);stroke-width:6.25px;"/>
                <path d="M1097.6,632.105l1.082,5.96c0.012,0.07 0.031,0.134 0.055,0.186c0.023,0.051 0.051,0.09 0.08,0.112l2.482,1.863l-2.287,2.097c-0.027,0.025 -0.051,0.066 -0.069,0.12c-0.018,0.053 -0.031,0.118 -0.037,0.19l-0.492,6.037l-1.082,-5.96c-0.013,-0.07 -0.032,-0.134 -0.056,-0.186c-0.023,-0.051 -0.051,-0.09 -0.08,-0.112l-2.482,-1.863l2.287,-2.097c0.027,-0.025 0.051,-0.066 0.069,-0.119c0.019,-0.054 0.031,-0.119 0.037,-0.191l0.493,-6.037Z" style="fill:rgb(213,213,213);stroke:rgb(213,213,213);stroke-width:6.25px;"/>
                <path d="M1119.62,388.397l3.121,9.947c0.063,0.199 0.2,0.368 0.386,0.475c0.186,0.108 0.406,0.145 0.617,0.104l10.572,-2.04l-5.114,9.052c-0.102,0.18 -0.128,0.392 -0.075,0.592c0.054,0.201 0.185,0.376 0.366,0.49l9.083,5.731l-10.354,2.855c-0.206,0.057 -0.382,0.186 -0.491,0.363c-0.11,0.176 -0.145,0.386 -0.1,0.588l2.273,10.146l-9.528,-5.015c-0.19,-0.1 -0.412,-0.129 -0.621,-0.08c-0.209,0.049 -0.389,0.172 -0.506,0.344l-5.869,8.616l-3.122,-9.947c-0.062,-0.198 -0.199,-0.368 -0.385,-0.475c-0.186,-0.107 -0.406,-0.144 -0.617,-0.104l-10.572,2.041l5.114,-9.052c0.102,-0.181 0.128,-0.393 0.075,-0.593c-0.054,-0.201 -0.185,-0.375 -0.366,-0.49l-9.083,-5.731l10.354,-2.854c0.206,-0.057 0.382,-0.187 0.491,-0.363c0.11,-0.177 0.145,-0.387 0.1,-0.589l-2.273,-10.146l9.528,5.015c0.19,0.1 0.412,0.129 0.621,0.08c0.209,-0.049 0.389,-0.171 0.506,-0.343l5.869,-8.617Z" style="fill:rgb(213,213,213);stroke:rgb(213,213,213);stroke-width:6.25px;"/>
                <path d="M747.311,396.144l4.162,6.638c0.07,0.111 0.172,0.2 0.294,0.257c0.122,0.056 0.259,0.076 0.393,0.059l8.029,-1.031l-2.839,7.246c-0.048,0.121 -0.057,0.253 -0.027,0.379c0.03,0.127 0.099,0.242 0.196,0.331l5.851,5.352l-7.703,2.398c-0.129,0.04 -0.242,0.115 -0.327,0.217c-0.084,0.101 -0.136,0.224 -0.148,0.353l-0.734,7.705l-6.765,-4.256c-0.113,-0.072 -0.246,-0.11 -0.382,-0.11c-0.135,0 -0.268,0.038 -0.381,0.11l-6.765,4.256l-0.734,-7.705c-0.012,-0.129 -0.064,-0.252 -0.148,-0.353c-0.085,-0.102 -0.199,-0.177 -0.328,-0.217l-7.702,-2.398l5.85,-5.352c0.098,-0.089 0.167,-0.204 0.197,-0.331c0.03,-0.126 0.021,-0.258 -0.027,-0.379l-2.839,-7.246l8.029,1.031c0.134,0.017 0.271,-0.003 0.393,-0.059c0.122,-0.057 0.224,-0.146 0.294,-0.257l4.161,-6.638Z" style="fill:rgb(213,213,213);stroke:rgb(213,213,213);stroke-width:6.25px;"/>
            </g>
            <g id="Controls">
                <g id="_1900h" serif:id="1900h">
                    <circle cx="900.134" cy="425.468" r="50.7" style="fill:rgb(131,133,136);"/>
                    <rect x="898.291" y="380.881" width="3.687" height="35.149" style="fill:white;"/>
                </g>
                <g id="_1900h1" serif:id="1900h">
                    <circle cx="900.134" cy="604.07" r="50.7" style="fill:rgb(131,133,136);"/>
                    <rect x="898.291" y="559.483" width="3.687" height="35.149" style="fill:white;"/>
                </g>
                <g id="_1900h2" serif:id="1900h">
                    <circle cx="714.659" cy="502.67" r="50.7" style="fill:rgb(131,133,136);"/>
                    <rect x="712.815" y="458.083" width="3.687" height="35.149" style="fill:white;"/>
                </g>
                <g id="_1900h3" serif:id="1900h">
                    <circle cx="1085.37" cy="502.67" r="50.7" style="fill:rgb(131,133,136);"/>
                    <rect x="1083.53" y="458.083" width="3.687" height="35.149" style="fill:white;"/>
                </g>
                <g id="Large-MXR" serif:id="Large MXR">
                    <circle cx="748.187" cy="255.412" r="99.803" style="fill:rgb(131,133,136);"/>
                    <rect x="744.017" y="180.677" width="8.341" height="69.654" style="fill:white;"/>
                    <circle cx="748.187" cy="165.18" r="4.171" style="fill:white;"/>
                </g>
                <g id="Large-MXR1" serif:id="Large MXR">
                    <circle cx="1052.08" cy="255.412" r="99.803" style="fill:rgb(131,133,136);"/>
                    <rect x="1047.91" y="180.677" width="8.341" height="69.654" style="fill:white;"/>
                    <circle cx="1052.08" cy="165.18" r="4.171" style="fill:white;"/>
                </g>
                <g id="_1RWHT" serif:id="1RWHT">
                    <ellipse cx="899.893" cy="797.351" rx="20.779" ry="20.813" style="fill:rgb(213,213,213);"/>
                </g>
                <g id="Tall-Trimmer" serif:id="Tall Trimmer">
                    <circle cx="789.051" cy="734.483" r="23.953" style="fill:rgb(131,133,136);"/>
                    <rect x="786.717" y="710.53" width="4.667" height="12.839" style="fill:white;"/>
                </g>
                <g id="Tall-Trimmer1" serif:id="Tall Trimmer">
                    <circle cx="678.47" cy="734.483" r="23.953" style="fill:rgb(131,133,136);"/>
                    <rect x="676.136" y="710.53" width="4.667" height="12.839" style="fill:white;"/>
                </g>
                <g id="Tall-Trimmer2" serif:id="Tall Trimmer">
                    <circle cx="789.051" cy="855.022" r="23.953" style="fill:rgb(131,133,136);"/>
                    <rect x="786.717" y="831.069" width="4.667" height="12.839" style="fill:white;"/>
                </g>
                <g id="Tall-Trimmer3" serif:id="Tall Trimmer">
                    <circle cx="1119.7" cy="734.483" r="23.953" style="fill:rgb(131,133,136);"/>
                    <rect x="1117.37" y="710.53" width="4.667" height="12.839" style="fill:white;"/>
                </g>
                <g id="Tall-Trimmer4" serif:id="Tall Trimmer">
                    <circle cx="1009.68" cy="855.022" r="23.953" style="fill:rgb(131,133,136);"/>
                    <rect x="1007.34" y="831.069" width="4.667" height="12.839" style="fill:white;"/>
                </g>
                <g id="Tall-Trimmer5" serif:id="Tall Trimmer">
                    <circle cx="1009.09" cy="734.483" r="23.953" style="fill:rgb(131,133,136);"/>
                    <rect x="1006.76" y="710.53" width="4.667" height="12.839" style="fill:white;"/>
                </g>
            </g>
        </g>
        <path d="M653.824,569.55l21.376,-5.598l-5.597,-21.376" style="fill:none;stroke:url(#_Linear1);stroke-width:10.42px;stroke-linejoin:miter;stroke-miterlimit:10;"/>
        <path d="M775.494,569.55l-21.377,-5.598l5.598,-21.376" style="fill:none;stroke:url(#_Linear2);stroke-width:10.42px;stroke-linejoin:miter;stroke-miterlimit:10;"/>
        <path d="M675.2,563.952c-19.649,-12.883 -32.637,-35.104 -32.637,-60.334c-0,-39.791 32.305,-72.096 72.096,-72.096c39.79,-0 72.096,32.305 72.096,72.096c-0,25.23 -12.989,47.451 -32.638,60.334" style="fill:none;stroke:url(#_Linear3);stroke-width:10.42px;"/>
        <path d="M1024.53,569.55l21.377,-5.598l-5.598,-21.376" style="fill:none;stroke:url(#_Linear4);stroke-width:10.42px;stroke-linejoin:miter;stroke-miterlimit:10;"/>
        <path d="M1146.2,569.55l-21.376,-5.598l5.597,-21.376" style="fill:none;stroke:url(#_Linear5);stroke-width:10.42px;stroke-linejoin:miter;stroke-miterlimit:10;"/>
        <path d="M1045.91,563.952c-19.649,-12.883 -32.638,-35.104 -32.638,-60.334c0,-39.791 32.305,-72.096 72.096,-72.096c39.791,-0 72.096,32.305 72.096,72.096c0,25.23 -12.988,47.451 -32.637,60.334" style="fill:none;stroke:url(#_Linear6);stroke-width:10.42px;"/>
        <g>
            <rect x="1217.49" y="436.338" width="352.782" height="136.15" style="fill:url(#_Linear7);stroke:url(#_Linear8);stroke-width:10.42px;"/>
            <g transform="matrix(0.956466,0,0,1,946.715,-2317.18)">
                <g transform="matrix(50,0,0,50,299.213,2814.69)">
                    <path d="M0.187,-0.264l-0.056,0.264l-0.131,-0l0.148,-0.7l0.25,0c0.029,0 0.056,0.005 0.08,0.014c0.023,0.009 0.043,0.022 0.06,0.039c0.017,0.017 0.029,0.036 0.038,0.059c0.009,0.023 0.014,0.047 0.014,0.074c-0,0.037 -0.006,0.071 -0.019,0.102c-0.013,0.031 -0.031,0.057 -0.054,0.079c-0.023,0.022 -0.051,0.039 -0.084,0.051c-0.033,0.012 -0.069,0.018 -0.109,0.018l-0.137,0Zm0.027,-0.126l0.122,0c0.034,0 0.062,-0.01 0.085,-0.03c0.023,-0.02 0.034,-0.046 0.034,-0.078c0,-0.025 -0.008,-0.043 -0.023,-0.056c-0.016,-0.013 -0.037,-0.02 -0.062,-0.02l-0.117,0l-0.039,0.184Z" style="fill:rgb(244,244,245);fill-rule:nonzero;"/>
                </g>
                <g transform="matrix(50,0,0,50,329.813,2814.69)">
                    <path d="M0.223,-0.496l-0.062,0.288c-0.003,0.011 -0.004,0.022 -0.004,0.033c0,0.025 0.007,0.044 0.021,0.056c0.014,0.013 0.033,0.019 0.056,0.019c0.035,-0 0.063,-0.012 0.082,-0.035c0.019,-0.023 0.033,-0.055 0.042,-0.097l0.056,-0.264l0.126,0l-0.082,0.378l0.011,0.006l0.036,-0.026l0.063,0.092l-0.047,0.034c-0.013,0.009 -0.026,0.016 -0.04,0.02c-0.013,0.004 -0.027,0.006 -0.04,0.006c-0.027,-0 -0.051,-0.008 -0.072,-0.024c-0.021,-0.015 -0.032,-0.038 -0.035,-0.068l-0.018,-0c-0.015,0.034 -0.035,0.058 -0.06,0.071c-0.025,0.014 -0.053,0.021 -0.084,0.021c-0.043,-0 -0.079,-0.013 -0.106,-0.04c-0.027,-0.026 -0.041,-0.063 -0.041,-0.11c-0,-0.017 0.002,-0.035 0.006,-0.054l0.066,-0.306l0.126,0Z" style="fill:rgb(244,244,245);fill-rule:nonzero;"/>
                </g>
                <g transform="matrix(50,0,0,50,360.413,2814.69)">
                    <path d="M0.373,-0.012c-0.013,0.009 -0.027,0.016 -0.041,0.02c-0.014,0.004 -0.028,0.006 -0.041,0.006c-0.015,0 -0.029,-0.002 -0.042,-0.008c-0.013,-0.005 -0.025,-0.012 -0.035,-0.021c-0.01,-0.009 -0.018,-0.02 -0.024,-0.033c-0.005,-0.012 -0.008,-0.027 -0.008,-0.043c0,-0.012 0.001,-0.024 0.004,-0.035l0.109,-0.455l-0.01,-0.007l-0.134,0.092l-0.063,-0.094l0.145,-0.098c0.013,-0.009 0.027,-0.016 0.041,-0.02c0.014,-0.004 0.028,-0.006 0.041,-0.006c0.015,0 0.029,0.002 0.042,0.007c0.013,0.005 0.025,0.012 0.035,0.021c0.01,0.009 0.018,0.02 0.024,0.033c0.005,0.013 0.008,0.028 0.008,0.044c-0,0.011 -0.001,0.022 -0.004,0.035l-0.109,0.455l0.01,0.007l0.134,-0.092l0.063,0.094l-0.145,0.098Z" style="fill:rgb(244,244,245);fill-rule:nonzero;"/>
                </g>
                <g transform="matrix(50,0,0,50,391.013,2814.69)">
                    <path d="M0.322,-0.396c-0.007,-0 -0.015,0.001 -0.023,0.003c-0.007,0.001 -0.014,0.004 -0.021,0.007c-0.007,0.003 -0.012,0.008 -0.016,0.014c-0.005,0.005 -0.007,0.012 -0.007,0.02c0,0.014 0.008,0.024 0.024,0.031c0.016,0.007 0.043,0.012 0.082,0.017c0.043,0.005 0.078,0.018 0.105,0.039c0.027,0.021 0.04,0.052 0.04,0.091c0,0.059 -0.02,0.105 -0.062,0.138c-0.04,0.033 -0.097,0.05 -0.17,0.05c-0.037,-0 -0.068,-0.005 -0.095,-0.016c-0.026,-0.011 -0.048,-0.024 -0.065,-0.04c-0.017,-0.016 -0.029,-0.034 -0.038,-0.053c-0.009,-0.019 -0.013,-0.038 -0.014,-0.055l0.124,-0.03c0.002,0.022 0.011,0.041 0.028,0.056c0.017,0.016 0.042,0.024 0.076,0.024c0.023,-0 0.044,-0.004 0.061,-0.011c0.017,-0.007 0.026,-0.02 0.026,-0.039c0,-0.014 -0.007,-0.025 -0.02,-0.034c-0.013,-0.008 -0.038,-0.014 -0.074,-0.017c-0.048,-0.004 -0.086,-0.018 -0.114,-0.041c-0.029,-0.023 -0.043,-0.054 -0.043,-0.093c0,-0.028 0.006,-0.053 0.018,-0.075c0.011,-0.022 0.027,-0.04 0.046,-0.055c0.019,-0.015 0.042,-0.026 0.068,-0.034c0.025,-0.007 0.052,-0.011 0.08,-0.011c0.035,0 0.064,0.005 0.087,0.014c0.023,0.009 0.042,0.021 0.057,0.035c0.015,0.014 0.025,0.029 0.032,0.045c0.007,0.017 0.012,0.032 0.014,0.046l-0.122,0.032c-0.003,-0.018 -0.011,-0.032 -0.025,-0.043c-0.014,-0.01 -0.034,-0.015 -0.059,-0.015Z" style="fill:rgb(244,244,245);fill-rule:nonzero;"/>
                </g>
                <g transform="matrix(50,0,0,50,421.613,2814.69)">
                    <path d="M0.165,-0.207c-0.001,0.005 -0.002,0.011 -0.002,0.017c0,0.024 0.009,0.044 0.027,0.06c0.019,0.016 0.043,0.024 0.073,0.024c0.031,0 0.056,-0.006 0.075,-0.017c0.019,-0.011 0.033,-0.025 0.043,-0.04l0.1,0.063c-0.008,0.013 -0.018,0.027 -0.031,0.04c-0.014,0.013 -0.029,0.026 -0.048,0.037c-0.019,0.011 -0.042,0.02 -0.067,0.027c-0.026,0.007 -0.056,0.01 -0.09,0.01c-0.031,0 -0.059,-0.005 -0.084,-0.014c-0.026,-0.01 -0.048,-0.023 -0.066,-0.04c-0.019,-0.017 -0.033,-0.038 -0.043,-0.062c-0.011,-0.023 -0.016,-0.049 -0.016,-0.078c0,-0.045 0.007,-0.088 0.021,-0.128c0.013,-0.04 0.033,-0.075 0.059,-0.105c0.026,-0.03 0.058,-0.054 0.096,-0.071c0.038,-0.017 0.082,-0.026 0.131,-0.026c0.035,0 0.065,0.005 0.091,0.017c0.025,0.011 0.046,0.025 0.063,0.043c0.017,0.019 0.029,0.04 0.038,0.063c0.008,0.023 0.012,0.047 0.012,0.072c0,0.008 -0,0.016 -0.001,0.025c-0.001,0.008 -0.003,0.019 -0.006,0.032l-0.011,0.051l-0.364,0Zm0.158,-0.189c-0.031,-0 -0.058,0.008 -0.081,0.024c-0.023,0.015 -0.041,0.034 -0.052,0.057l0.234,0c0,-0.025 -0.008,-0.045 -0.023,-0.059c-0.016,-0.015 -0.042,-0.022 -0.078,-0.022Z" style="fill:rgb(244,244,245);fill-rule:nonzero;"/>
                </g>
                <g transform="matrix(50,0,0,50,482.813,2814.69)">
                    <path d="M0.145,-0.126l-0.011,0.054l0.018,0l0.011,-0.048l0.101,-0.376l0.2,0l-0.052,0.376l-0.01,0.048l0.018,-0l0.012,-0.054l0.101,-0.382l0.103,0.025l-0.133,0.483l-0.201,-0l0.059,-0.436l-0.018,0l-0.115,0.436l-0.196,-0l0.057,-0.496l0.105,0l-0.049,0.37Z" style="fill:rgb(244,244,245);fill-rule:nonzero;"/>
                </g>
                <g transform="matrix(50,0,0,50,513.413,2814.69)">
                    <path d="M0.38,-0.012c-0.013,0.009 -0.027,0.016 -0.041,0.02c-0.014,0.004 -0.028,0.006 -0.041,0.006c-0.015,0 -0.029,-0.002 -0.042,-0.008c-0.013,-0.005 -0.025,-0.012 -0.035,-0.021c-0.01,-0.009 -0.018,-0.02 -0.024,-0.033c-0.005,-0.012 -0.008,-0.027 -0.008,-0.043c-0,-0.013 0.001,-0.024 0.004,-0.035l0.06,-0.251l-0.01,-0.007l-0.134,0.092l-0.063,-0.094l0.145,-0.098c0.013,-0.009 0.027,-0.016 0.041,-0.02c0.014,-0.004 0.028,-0.006 0.041,-0.006c0.015,0 0.029,0.003 0.042,0.007c0.013,0.005 0.025,0.013 0.035,0.022c0.01,0.009 0.018,0.019 0.024,0.032c0.005,0.013 0.008,0.028 0.008,0.044c-0,0.013 -0.001,0.024 -0.004,0.035l-0.06,0.251l0.01,0.007l0.134,-0.092l0.063,0.094l-0.145,0.098Zm0.087,-0.631c0,0.013 -0.003,0.026 -0.008,0.037c-0.004,0.012 -0.011,0.022 -0.02,0.03c-0.009,0.009 -0.019,0.015 -0.03,0.02c-0.012,0.005 -0.024,0.008 -0.037,0.008c-0.013,-0 -0.026,-0.003 -0.037,-0.008c-0.011,-0.005 -0.021,-0.011 -0.03,-0.02c-0.009,-0.008 -0.016,-0.018 -0.021,-0.03c-0.005,-0.011 -0.007,-0.024 -0.007,-0.037c0,-0.013 0.003,-0.026 0.008,-0.037c0.005,-0.012 0.011,-0.022 0.02,-0.03c0.009,-0.009 0.019,-0.015 0.03,-0.02c0.011,-0.005 0.024,-0.008 0.037,-0.008c0.013,0 0.025,0.003 0.036,0.008c0.012,0.005 0.022,0.011 0.031,0.02c0.009,0.008 0.016,0.018 0.02,0.03c0.005,0.011 0.008,0.024 0.008,0.037Z" style="fill:rgb(244,244,245);fill-rule:nonzero;"/>
                </g>
                <g transform="matrix(50,0,0,50,544.013,2814.69)">
                    <path d="M0.479,-0.119l0.01,0.007l0.054,-0.038l0.063,0.094l-0.065,0.044c-0.014,0.009 -0.028,0.016 -0.042,0.02c-0.013,0.004 -0.027,0.006 -0.04,0.006c-0.025,-0 -0.048,-0.007 -0.068,-0.021c-0.02,-0.014 -0.033,-0.034 -0.038,-0.059l-0.018,0c-0.006,0.011 -0.013,0.022 -0.021,0.032c-0.008,0.009 -0.018,0.018 -0.03,0.025c-0.011,0.007 -0.025,0.012 -0.041,0.017c-0.015,0.004 -0.034,0.006 -0.055,0.006c-0.026,0 -0.05,-0.005 -0.072,-0.016c-0.022,-0.01 -0.041,-0.024 -0.058,-0.042c-0.016,-0.019 -0.029,-0.04 -0.038,-0.065c-0.009,-0.025 -0.014,-0.052 -0.014,-0.081c-0,-0.045 0.006,-0.086 0.018,-0.125c0.012,-0.039 0.029,-0.073 0.052,-0.101c0.023,-0.029 0.05,-0.052 0.083,-0.069c0.033,-0.017 0.071,-0.025 0.112,-0.025c0.035,0 0.064,0.008 0.086,0.024c0.022,0.016 0.036,0.037 0.043,0.062l0.018,0l0.061,-0.29l0.127,0l-0.062,0.29l-0.065,0.305Zm-0.242,0.013c0.024,0 0.045,-0.005 0.064,-0.014c0.019,-0.01 0.034,-0.023 0.046,-0.039c0.013,-0.016 0.022,-0.035 0.029,-0.056c0.007,-0.022 0.01,-0.045 0.01,-0.069c-0,-0.031 -0.009,-0.057 -0.027,-0.076c-0.018,-0.02 -0.042,-0.03 -0.072,-0.03c-0.024,0 -0.045,0.005 -0.064,0.015c-0.019,0.009 -0.034,0.022 -0.047,0.038c-0.013,0.016 -0.022,0.035 -0.029,0.056c-0.007,0.022 -0.01,0.045 -0.01,0.069c-0,0.028 0.008,0.053 0.024,0.074c0.017,0.021 0.042,0.032 0.076,0.032Z" style="fill:rgb(244,244,245);fill-rule:nonzero;"/>
                </g>
                <g transform="matrix(50,0,0,50,574.613,2814.69)">
                    <path d="M0.218,-0.376l-0.14,0l0,-0.12l0.166,0l0.046,-0.218l0.126,0l-0.046,0.218l0.172,0l0,0.12l-0.198,0l-0.056,0.257l0.01,0.007l0.134,-0.092l0.063,0.094l-0.145,0.098c-0.025,0.017 -0.052,0.026 -0.081,0.026c-0.015,-0 -0.029,-0.003 -0.042,-0.008c-0.013,-0.005 -0.025,-0.012 -0.035,-0.021c-0.01,-0.009 -0.018,-0.021 -0.024,-0.034c-0.006,-0.013 -0.009,-0.028 -0.009,-0.045c-0,-0.005 0,-0.01 0.001,-0.015c0.001,-0.004 0.002,-0.01 0.003,-0.017l0.055,-0.25Z" style="fill:rgb(244,244,245);fill-rule:nonzero;"/>
                </g>
                <g transform="matrix(50,0,0,50,605.213,2814.69)">
                    <path d="M0.385,-0.288c0.001,-0.007 0.002,-0.013 0.003,-0.017c0.001,-0.005 0.001,-0.01 0.001,-0.015c0,-0.024 -0.007,-0.043 -0.021,-0.056c-0.014,-0.013 -0.033,-0.02 -0.057,-0.02c-0.034,0 -0.062,0.012 -0.083,0.036c-0.022,0.024 -0.037,0.056 -0.046,0.096l-0.056,0.264l-0.126,0l0.152,-0.714l0.126,0l-0.061,0.286l0.018,0c0.034,-0.055 0.083,-0.082 0.146,-0.082c0.041,0 0.075,0.012 0.101,0.037c0.027,0.025 0.04,0.061 0.04,0.108c0,0.009 -0.001,0.019 -0.002,0.029c-0.001,0.009 -0.003,0.019 -0.005,0.03l-0.04,0.187l0.01,0.007l0.064,-0.044l0.063,0.094l-0.075,0.05c-0.025,0.017 -0.052,0.026 -0.081,0.026c-0.015,0 -0.029,-0.002 -0.042,-0.007c-0.013,-0.005 -0.025,-0.013 -0.035,-0.022c-0.01,-0.009 -0.018,-0.021 -0.024,-0.034c-0.006,-0.013 -0.009,-0.028 -0.009,-0.045c-0,-0.009 0.001,-0.019 0.004,-0.032l0.035,-0.162Z" style="fill:rgb(244,244,245);fill-rule:nonzero;"/>
                </g>
                <g transform="matrix(50,0,0,50,299.213,2864.69)">
                    <path d="M0.534,-0.182c-0.019,0.059 -0.052,0.107 -0.1,0.142c-0.047,0.036 -0.111,0.054 -0.191,0.054c-0.029,-0 -0.057,-0.005 -0.083,-0.014c-0.026,-0.009 -0.049,-0.023 -0.068,-0.042c-0.019,-0.019 -0.035,-0.042 -0.046,-0.07c-0.011,-0.027 -0.016,-0.059 -0.016,-0.096c-0,-0.041 0.007,-0.08 0.021,-0.117c0.015,-0.037 0.036,-0.069 0.063,-0.096c0.027,-0.027 0.06,-0.049 0.099,-0.065c0.039,-0.016 0.083,-0.024 0.132,-0.024c0.036,0 0.068,0.005 0.095,0.016c0.027,0.011 0.05,0.025 0.068,0.043c0.018,0.019 0.032,0.04 0.041,0.065c0.009,0.025 0.014,0.051 0.014,0.078l-0.128,0.025c-0,-0.034 -0.009,-0.06 -0.026,-0.079c-0.017,-0.019 -0.044,-0.028 -0.082,-0.028c-0.024,0 -0.046,0.005 -0.067,0.014c-0.02,0.009 -0.038,0.021 -0.052,0.036c-0.016,0.016 -0.027,0.034 -0.036,0.055c-0.008,0.021 -0.012,0.044 -0.012,0.068c0,0.038 0.01,0.066 0.03,0.084c0.02,0.018 0.045,0.027 0.076,0.027c0.042,-0 0.075,-0.009 0.098,-0.028c0.023,-0.019 0.041,-0.045 0.053,-0.079l0.117,0.031Z" style="fill:rgb(244,244,245);fill-rule:nonzero;"/>
                </g>
                <g transform="matrix(50,0,0,50,329.813,2864.69)">
                    <path d="M0.165,-0.207c-0.001,0.005 -0.002,0.011 -0.002,0.017c0,0.024 0.009,0.044 0.027,0.06c0.019,0.016 0.043,0.024 0.073,0.024c0.031,0 0.056,-0.006 0.075,-0.017c0.019,-0.011 0.033,-0.025 0.043,-0.04l0.1,0.063c-0.008,0.013 -0.018,0.027 -0.031,0.04c-0.014,0.013 -0.029,0.026 -0.048,0.037c-0.019,0.011 -0.042,0.02 -0.067,0.027c-0.026,0.007 -0.056,0.01 -0.09,0.01c-0.031,0 -0.059,-0.005 -0.084,-0.014c-0.026,-0.01 -0.048,-0.023 -0.066,-0.04c-0.019,-0.017 -0.033,-0.038 -0.043,-0.062c-0.011,-0.023 -0.016,-0.049 -0.016,-0.078c0,-0.045 0.007,-0.088 0.021,-0.128c0.013,-0.04 0.033,-0.075 0.059,-0.105c0.026,-0.03 0.058,-0.054 0.096,-0.071c0.038,-0.017 0.082,-0.026 0.131,-0.026c0.035,0 0.065,0.005 0.091,0.017c0.025,0.011 0.046,0.025 0.063,0.043c0.017,0.019 0.029,0.04 0.038,0.063c0.008,0.023 0.012,0.047 0.012,0.072c0,0.008 -0,0.016 -0.001,0.025c-0.001,0.008 -0.003,0.019 -0.006,0.032l-0.011,0.051l-0.364,0Zm0.158,-0.189c-0.031,-0 -0.058,0.008 -0.081,0.024c-0.023,0.015 -0.041,0.034 -0.052,0.057l0.234,0c0,-0.025 -0.008,-0.045 -0.023,-0.059c-0.016,-0.015 -0.042,-0.022 -0.078,-0.022Z" style="fill:rgb(244,244,245);fill-rule:nonzero;"/>
                </g>
                <g transform="matrix(50,0,0,50,360.413,2864.69)">
                    <path d="M0.379,-0.288c0.003,-0.013 0.004,-0.023 0.004,-0.032c0,-0.024 -0.007,-0.043 -0.021,-0.056c-0.014,-0.013 -0.033,-0.02 -0.057,-0.02c-0.03,0 -0.056,0.011 -0.077,0.032c-0.021,0.021 -0.036,0.05 -0.043,0.086l-0.059,0.278l-0.126,0l0.105,-0.496l0.121,0l-0.017,0.08l0.018,0c0.016,-0.033 0.037,-0.057 0.064,-0.072c0.026,-0.015 0.055,-0.022 0.087,-0.022c0.042,0 0.076,0.013 0.101,0.038c0.024,0.025 0.037,0.061 0.037,0.107c0,0.011 -0.001,0.021 -0.002,0.03c-0.001,0.009 -0.003,0.018 -0.005,0.029l-0.04,0.187l0.01,0.007l0.043,-0.03l0.063,0.094l-0.054,0.036c-0.025,0.017 -0.052,0.026 -0.081,0.026c-0.015,0 -0.029,-0.002 -0.042,-0.007c-0.013,-0.005 -0.025,-0.012 -0.035,-0.021c-0.01,-0.009 -0.018,-0.02 -0.024,-0.033c-0.006,-0.013 -0.009,-0.028 -0.009,-0.045c0,-0.009 0.001,-0.019 0.003,-0.03l0.036,-0.166Z" style="fill:rgb(244,244,245);fill-rule:nonzero;"/>
                </g>
                <g transform="matrix(50,0,0,50,391.013,2864.69)">
                    <path d="M0.218,-0.376l-0.14,0l0,-0.12l0.166,0l0.046,-0.218l0.126,0l-0.046,0.218l0.172,0l0,0.12l-0.198,0l-0.056,0.257l0.01,0.007l0.134,-0.092l0.063,0.094l-0.145,0.098c-0.025,0.017 -0.052,0.026 -0.081,0.026c-0.015,-0 -0.029,-0.003 -0.042,-0.008c-0.013,-0.005 -0.025,-0.012 -0.035,-0.021c-0.01,-0.009 -0.018,-0.021 -0.024,-0.034c-0.006,-0.013 -0.009,-0.028 -0.009,-0.045c-0,-0.005 0,-0.01 0.001,-0.015c0.001,-0.004 0.002,-0.01 0.003,-0.017l0.055,-0.25Z" style="fill:rgb(244,244,245);fill-rule:nonzero;"/>
                </g>
                <g transform="matrix(50,0,0,50,421.613,2864.69)">
                    <path d="M0.165,-0.207c-0.001,0.005 -0.002,0.011 -0.002,0.017c0,0.024 0.009,0.044 0.027,0.06c0.019,0.016 0.043,0.024 0.073,0.024c0.031,0 0.056,-0.006 0.075,-0.017c0.019,-0.011 0.033,-0.025 0.043,-0.04l0.1,0.063c-0.008,0.013 -0.018,0.027 -0.031,0.04c-0.014,0.013 -0.029,0.026 -0.048,0.037c-0.019,0.011 -0.042,0.02 -0.067,0.027c-0.026,0.007 -0.056,0.01 -0.09,0.01c-0.031,0 -0.059,-0.005 -0.084,-0.014c-0.026,-0.01 -0.048,-0.023 -0.066,-0.04c-0.019,-0.017 -0.033,-0.038 -0.043,-0.062c-0.011,-0.023 -0.016,-0.049 -0.016,-0.078c0,-0.045 0.007,-0.088 0.021,-0.128c0.013,-0.04 0.033,-0.075 0.059,-0.105c0.026,-0.03 0.058,-0.054 0.096,-0.071c0.038,-0.017 0.082,-0.026 0.131,-0.026c0.035,0 0.065,0.005 0.091,0.017c0.025,0.011 0.046,0.025 0.063,0.043c0.017,0.019 0.029,0.04 0.038,0.063c0.008,0.023 0.012,0.047 0.012,0.072c0,0.008 -0,0.016 -0.001,0.025c-0.001,0.008 -0.003,0.019 -0.006,0.032l-0.011,0.051l-0.364,0Zm0.158,-0.189c-0.031,-0 -0.058,0.008 -0.081,0.024c-0.023,0.015 -0.041,0.034 -0.052,0.057l0.234,0c0,-0.025 -0.008,-0.045 -0.023,-0.059c-0.016,-0.015 -0.042,-0.022 -0.078,-0.022Z" style="fill:rgb(244,244,245);fill-rule:nonzero;"/>
                </g>
                <g transform="matrix(50,0,0,50,452.213,2864.69)">
                    <path d="M0.178,-0.378l-0.01,-0.006l-0.079,0.058l-0.067,-0.09l0.08,-0.06c0.015,-0.011 0.032,-0.02 0.049,-0.026c0.017,-0.005 0.033,-0.008 0.048,-0.008c0.027,0 0.05,0.007 0.07,0.022c0.02,0.015 0.032,0.035 0.036,0.062l0.018,0c0.013,-0.028 0.032,-0.049 0.056,-0.063c0.024,-0.014 0.051,-0.021 0.081,-0.021c0.038,0 0.069,0.012 0.093,0.035c0.023,0.024 0.035,0.057 0.035,0.099c0,0.009 -0,0.017 -0.001,0.025c-0.001,0.009 -0.003,0.019 -0.006,0.031l-0.005,0.022l-0.134,0.01l0.003,-0.014c0.002,-0.01 0.003,-0.019 0.003,-0.027c0,-0.019 -0.005,-0.035 -0.016,-0.046c-0.011,-0.011 -0.027,-0.017 -0.048,-0.017c-0.027,-0 -0.048,0.009 -0.063,0.027c-0.016,0.018 -0.028,0.044 -0.035,0.077l-0.036,0.168l0.12,-0l0,0.12l-0.342,-0l0,-0.12l0.096,-0l0.054,-0.258Z" style="fill:rgb(244,244,245);fill-rule:nonzero;"/>
                </g>
            </g>
        </g>
        <g id="Tall-Trimmer6" serif:id="Tall Trimmer">
            <path d="M798.694,755.226c-11.449,6.61 -26.11,2.681 -32.72,-8.767c-6.61,-11.449 -2.682,-26.111 8.767,-32.72c11.449,-6.61 26.11,-2.682 32.72,8.767c6.61,11.449 2.682,26.11 -8.767,32.72Z" style="fill:rgb(131,133,136);"/>
            <path d="M796.673,756.393l4.042,-2.334l-6.42,-11.119l-4.042,2.334l6.42,11.119Z" style="fill:white;"/>
        </g>
        <g id="Tall-Trimmer7" serif:id="Tall Trimmer">
            <path d="M1021.07,755.227c-11.449,6.61 -26.11,2.681 -32.72,-8.768c-6.61,-11.448 -2.682,-26.11 8.767,-32.72c11.449,-6.61 26.11,-2.681 32.72,8.768c6.61,11.448 2.682,26.11 -8.767,32.72Z" style="fill:rgb(131,133,136);"/>
            <path d="M1019.05,756.394l4.042,-2.334l-6.42,-11.119l-4.042,2.333l6.42,11.12Z" style="fill:white;"/>
        </g>
        <g>
            <g>
                <circle cx="900.133" cy="797.264" r="24.111" style="fill:rgb(125,97,186);stroke:rgb(125,97,186);stroke-width:10.42px;"/>
                <path d="M895.461,737.541l4.672,4.672l4.673,-4.672" style="fill:none;stroke:rgb(145,120,199);stroke-width:10.42px;stroke-linejoin:miter;stroke-miterlimit:10;"/>
                <path d="M900.133,742.213l0,-25.264" style="fill:none;stroke:rgb(145,120,199);stroke-width:10.42px;"/>
                <path d="M949.519,763.355l-1.711,6.384l6.383,1.71" style="fill:none;stroke:rgb(145,120,199);stroke-width:10.42px;stroke-linejoin:miter;stroke-miterlimit:10;"/>
                <path d="M947.808,769.739c8.335,-4.813 21.88,-12.633 21.88,-12.633" style="fill:none;stroke:rgb(145,120,199);stroke-width:10.42px;"/>
                <path d="M846.076,771.449l6.383,-1.71l-1.711,-6.384" style="fill:none;stroke:rgb(145,120,199);stroke-width:10.42px;stroke-linejoin:miter;stroke-miterlimit:10;"/>
                <path d="M852.459,769.739c-8.335,-4.813 -21.88,-12.633 -21.88,-12.633" style="fill:none;stroke:rgb(145,120,199);stroke-width:10.42px;"/>
                <path d="M866.237,747.81l6.383,1.71l1.711,-6.383" style="fill:none;stroke:rgb(145,120,199);stroke-width:10.42px;stroke-linejoin:miter;stroke-miterlimit:10;"/>
                <path d="M872.62,749.52c-4.827,-8.362 -12.688,-21.977 -12.688,-21.977" style="fill:none;stroke:rgb(145,120,199);stroke-width:10.42px;"/>
                <path d="M925.892,743.392l1.71,6.384l6.383,-1.711" style="fill:none;stroke:rgb(145,120,199);stroke-width:10.42px;stroke-linejoin:miter;stroke-miterlimit:10;"/>
                <path d="M927.602,749.776c4.815,-8.341 12.644,-21.9 12.644,-21.9" style="fill:none;stroke:rgb(145,120,199);stroke-width:10.42px;"/>
            </g>
            <g>
                <rect x="792.863" y="867.081" width="214.542" height="79.707" style="fill:rgb(125,97,186);stroke:rgb(125,97,186);stroke-width:10.42px;"/>
                <path d="M835.429,888.652l6.313,-0l-2.917,14.3l9.564,-0l2.918,-14.3l6.312,-0l-7.125,35l-6.313,-0l2.917,-14.4l-9.564,-0l-2.918,14.4l-6.265,-0l7.078,-35Z" style="fill:rgb(244,244,245);fill-rule:nonzero;"/>
                <path d="M884.305,908.152c-0,2.333 -0.319,4.492 -0.957,6.475c-0.637,1.983 -1.578,3.692 -2.821,5.125c-1.244,1.433 -2.798,2.558 -4.663,3.375c-1.865,0.817 -4.025,1.225 -6.48,1.225c-1.403,-0 -2.718,-0.217 -3.946,-0.65c-1.227,-0.433 -2.303,-1.075 -3.228,-1.925c-0.924,-0.85 -1.657,-1.892 -2.199,-3.125c-0.542,-1.233 -0.813,-2.633 -0.813,-4.2c-0,-2.567 0.382,-4.858 1.147,-6.875c0.765,-2.017 1.81,-3.725 3.133,-5.125c1.323,-1.4 2.885,-2.467 4.686,-3.2c1.802,-0.733 3.739,-1.1 5.811,-1.1c1.498,-0 2.885,0.242 4.161,0.725c1.275,0.483 2.367,1.158 3.275,2.025c0.909,0.867 1.618,1.917 2.129,3.15c0.51,1.233 0.765,2.6 0.765,4.1Zm-14.012,10.3c1.147,-0.033 2.207,-0.3 3.18,-0.8c0.972,-0.5 1.801,-1.158 2.487,-1.975c0.685,-0.817 1.219,-1.775 1.602,-2.875c0.382,-1.1 0.574,-2.267 0.574,-3.5c-0,-1.733 -0.447,-3.042 -1.339,-3.925c-0.893,-0.883 -2.089,-1.325 -3.587,-1.325c-1.148,-0 -2.2,0.258 -3.157,0.775c-0.956,0.517 -1.785,1.2 -2.486,2.05c-0.702,0.85 -1.244,1.825 -1.626,2.925c-0.383,1.1 -0.574,2.25 -0.574,3.45c-0,1.7 0.446,2.992 1.339,3.875c0.893,0.883 2.088,1.325 3.587,1.325Z" style="fill:rgb(244,244,245);fill-rule:nonzero;"/>
                <path d="M904.725,923.052c-0.637,0.467 -1.291,0.8 -1.96,1c-0.67,0.2 -1.324,0.3 -1.961,0.3c-0.702,-0 -1.371,-0.125 -2.009,-0.375c-0.637,-0.25 -1.195,-0.6 -1.674,-1.05c-0.478,-0.45 -0.852,-1 -1.123,-1.65c-0.271,-0.65 -0.407,-1.375 -0.407,-2.175c0,-0.6 0.064,-1.183 0.191,-1.75l5.213,-22.75l-0.478,-0.35l-6.408,4.6l-3.013,-4.7l6.934,-4.9c0.638,-0.467 1.291,-0.8 1.961,-1c0.669,-0.2 1.323,-0.3 1.961,-0.3c0.701,-0 1.371,0.125 2.008,0.375c0.638,0.25 1.196,0.6 1.674,1.05c0.478,0.45 0.853,1 1.124,1.65c0.271,0.65 0.406,1.375 0.406,2.175c0,0.533 -0.063,1.117 -0.191,1.75l-5.213,22.75l0.479,0.35l6.408,-4.6l3.013,4.7l-6.935,4.9Z" style="fill:rgb(244,244,245);fill-rule:nonzero;"/>
                <path d="M939.062,917.702l0.479,0.35l2.582,-1.9l3.013,4.7l-3.108,2.2c-0.67,0.467 -1.332,0.8 -1.985,1c-0.654,0.2 -1.299,0.3 -1.937,0.3c-1.211,-0 -2.295,-0.35 -3.252,-1.05c-0.956,-0.7 -1.562,-1.683 -1.817,-2.95l-0.861,-0c-0.287,0.567 -0.622,1.092 -1.004,1.575c-0.383,0.483 -0.853,0.9 -1.411,1.25c-0.558,0.35 -1.212,0.633 -1.961,0.85c-0.749,0.217 -1.634,0.325 -2.654,0.325c-1.244,-0 -2.391,-0.258 -3.443,-0.775c-1.052,-0.517 -1.969,-1.233 -2.75,-2.15c-0.781,-0.917 -1.395,-1.992 -1.841,-3.225c-0.447,-1.233 -0.67,-2.583 -0.67,-4.05c0,-2.233 0.287,-4.317 0.861,-6.25c0.574,-1.933 1.403,-3.625 2.487,-5.075c1.084,-1.45 2.415,-2.592 3.993,-3.425c1.578,-0.833 3.356,-1.25 5.332,-1.25c1.69,-0 3.061,0.4 4.113,1.2c1.052,0.8 1.738,1.833 2.056,3.1l0.861,-0l2.917,-14.5l6.074,-0l-2.965,14.5l-3.109,15.25Zm-11.573,0.65c1.148,-0 2.168,-0.242 3.061,-0.725c0.893,-0.483 1.634,-1.125 2.224,-1.925c0.59,-0.8 1.044,-1.742 1.363,-2.825c0.319,-1.083 0.478,-2.225 0.478,-3.425c-0,-1.567 -0.43,-2.842 -1.291,-3.825c-0.861,-0.983 -2.009,-1.475 -3.444,-1.475c-1.147,-0 -2.168,0.242 -3.06,0.725c-0.893,0.483 -1.642,1.125 -2.248,1.925c-0.606,0.8 -1.068,1.742 -1.387,2.825c-0.319,1.083 -0.478,2.225 -0.478,3.425c-0,1.4 0.39,2.633 1.172,3.7c0.781,1.067 1.984,1.6 3.61,1.6Z" style="fill:rgb(244,244,245);fill-rule:nonzero;"/>
                <path d="M967.135,888.652l-4.974,24.1l-6.313,-0l4.974,-24.1l6.313,-0Zm-4.687,30.95c0,0.667 -0.119,1.292 -0.359,1.875c-0.239,0.583 -0.565,1.083 -0.98,1.5c-0.414,0.417 -0.901,0.75 -1.459,1c-0.558,0.25 -1.139,0.375 -1.745,0.375c-0.638,-0 -1.228,-0.125 -1.77,-0.375c-0.542,-0.25 -1.02,-0.583 -1.434,-1c-0.415,-0.417 -0.742,-0.917 -0.981,-1.5c-0.239,-0.583 -0.358,-1.208 -0.358,-1.875c-0,-0.667 0.119,-1.292 0.358,-1.875c0.239,-0.583 0.566,-1.083 0.981,-1.5c0.414,-0.417 0.892,-0.75 1.434,-1c0.542,-0.25 1.132,-0.375 1.77,-0.375c0.606,-0 1.187,0.125 1.745,0.375c0.558,0.25 1.045,0.583 1.459,1c0.415,0.417 0.741,0.917 0.98,1.5c0.24,0.583 0.359,1.208 0.359,1.875Z" style="fill:rgb(244,244,245);fill-rule:nonzero;"/>
            </g>
        </g>
    </g>
    <defs>
        <linearGradient id="_Linear1" x1="0" y1="0" x2="1" y2="0" gradientUnits="userSpaceOnUse" gradientTransform="matrix(144.192,0,0,136.15,642.563,499.597)"><stop offset="0" style="stop-color:rgb(230,33,109);stop-opacity:1"/><stop offset="0.21" style="stop-color:rgb(238,62,128);stop-opacity:1"/><stop offset="0.84" style="stop-color:rgb(118,188,194);stop-opacity:1"/><stop offset="1" style="stop-color:rgb(124,192,198);stop-opacity:1"/></linearGradient>
        <linearGradient id="_Linear2" x1="0" y1="0" x2="1" y2="0" gradientUnits="userSpaceOnUse" gradientTransform="matrix(144.192,0,0,136.15,642.563,499.597)"><stop offset="0" style="stop-color:rgb(230,33,109);stop-opacity:1"/><stop offset="0.21" style="stop-color:rgb(238,62,128);stop-opacity:1"/><stop offset="0.84" style="stop-color:rgb(118,188,194);stop-opacity:1"/><stop offset="1" style="stop-color:rgb(124,192,198);stop-opacity:1"/></linearGradient>
        <linearGradient id="_Linear3" x1="0" y1="0" x2="1" y2="0" gradientUnits="userSpaceOnUse" gradientTransform="matrix(144.192,0,0,136.15,642.563,499.597)"><stop offset="0" style="stop-color:rgb(230,33,109);stop-opacity:1"/><stop offset="0.21" style="stop-color:rgb(238,62,128);stop-opacity:1"/><stop offset="0.84" style="stop-color:rgb(118,188,194);stop-opacity:1"/><stop offset="1" style="stop-color:rgb(124,192,198);stop-opacity:1"/></linearGradient>
        <linearGradient id="_Linear4" x1="0" y1="0" x2="1" y2="0" gradientUnits="userSpaceOnUse" gradientTransform="matrix(144.192,0,0,136.15,1013.27,499.597)"><stop offset="0" style="stop-color:rgb(230,33,109);stop-opacity:1"/><stop offset="0.21" style="stop-color:rgb(238,62,128);stop-opacity:1"/><stop offset="0.84" style="stop-color:rgb(118,188,194);stop-opacity:1"/><stop offset="1" style="stop-color:rgb(124,192,198);stop-opacity:1"/></linearGradient>
        <linearGradient id="_Linear5" x1="0" y1="0" x2="1" y2="0" gradientUnits="userSpaceOnUse" gradientTransform="matrix(144.192,0,0,136.15,1013.27,499.597)"><stop offset="0" style="stop-color:rgb(230,33,109);stop-opacity:1"/><stop offset="0.21" style="stop-color:rgb(238,62,128);stop-opacity:1"/><stop offset="0.84" style="stop-color:rgb(118,188,194);stop-opacity:1"/><stop offset="1" style="stop-color:rgb(124,192,198);stop-opacity:1"/></linearGradient>
        <linearGradient id="_Linear6" x1="0" y1="0" x2="1" y2="0" gradientUnits="userSpaceOnUse" gradientTransform="matrix(144.192,0,0,136.15,1013.27,499.597)"><stop offset="0" style="stop-color:rgb(230,33,109);stop-opacity:1"/><stop offset="0.21" style="stop-color:rgb(238,62,128);stop-opacity:1"/><stop offset="0.84" style="stop-color:rgb(118,188,194);stop-opacity:1"/><stop offset="1" style="stop-color:rgb(124,192,198);stop-opacity:1"/></linearGradient>
        <linearGradient id="_Linear7" x1="0" y1="0" x2="1" y2="0" gradientUnits="userSpaceOnUse" gradientTransform="matrix(650.056,0,0,232.564,1137.63,-3773.59)"><stop offset="0" style="stop-color:rgb(230,33,109);stop-opacity:1"/><stop offset="0.48" style="stop-color:rgb(149,155,177);stop-opacity:1"/><stop offset="1" style="stop-color:rgb(124,192,198);stop-opacity:1"/></linearGradient>
        <linearGradient id="_Linear8" x1="0" y1="0" x2="1" y2="0" gradientUnits="userSpaceOnUse" gradientTransform="matrix(650.056,0,0,232.564,1137.63,-3773.59)"><stop offset="0" style="stop-color:rgb(230,33,109);stop-opacity:1"/><stop offset="0.48" style="stop-color:rgb(149,155,177);stop-opacity:1"/><stop offset="1" style="stop-color:rgb(124,192,198);stop-opacity:1"/></linearGradient>
    </defs>
</svg>
